<?xml version="1.0" encoding="UTF-8" standalone="no"?>
<svg
   xmlns:dc="http://purl.org/dc/elements/1.1/"
   xmlns:cc="http://creativecommons.org/ns#"
   xmlns:rdf="http://www.w3.org/1999/02/22-rdf-syntax-ns#"
   xmlns:svg="http://www.w3.org/2000/svg"
   xmlns="http://www.w3.org/2000/svg"
   width="22"
   height="22"
   viewBox="0 0 22 22"
   version="1.1"
   id="svg842">
  <defs
     id="defs836" />
  <metadata
     id="metadata839">
    <rdf:RDF>
      <cc:Work
         rdf:about="">
        <dc:format>image/svg+xml</dc:format>
        <dc:type
           rdf:resource="http://purl.org/dc/dcmitype/StillImage" />
        <dc:title></dc:title>
      </cc:Work>
    </rdf:RDF>
  </metadata>
  <g
     id="layer1">
    <g
       id="g875"
       style="enable-background:new">
      <rect
         y="0"
         x="0"
         height="22"
         width="22"
         style="opacity:0.00100002"
         id="rect4224" />
      <circle
         cy="11"
         cx="11"
         style="opacity:0.5;fill:#da4453;fill-opacity:1"
         id="circle4230"
         r="11" />
      <path
         d="m 7.0031447,7.0002283 h 0.999607 c 0.010366,-1.2e-4 0.020782,-4.6e-4 0.031238,0 0.2548508,0.0112 0.5096696,0.1285762 0.6872298,0.3124908 l 2.2803535,2.2811834 2.311591,-2.2811834 c 0.26552,-0.2304932 0.446496,-0.305491 0.687229,-0.3124908 H 15 V 8.000199 c 0,0.2864617 -0.03433,0.550634 -0.249901,0.7499781 l -2.280354,2.2811829 2.249116,2.249935 C 14.906975,13.469459 14.999992,13.734731 15,14.000024 v 0.99997 h -0.999607 c -0.265196,-10e-6 -0.530377,-0.0931 -0.718467,-0.281241 l -2.280353,-2.281184 -2.2803538,2.281184 c -0.18809,0.188184 -0.4532818,0.281241 -0.7184675,0.281241 h -0.999607 v -0.99997 c -2.9e-6,-0.265283 0.093024,-0.530565 0.2811395,-0.718729 L 9.5646376,11.03136 7.2842842,8.7501771 C 7.073625,8.5555528 6.9812434,8.2809408 7.0031447,8.000199 Z"
         style="opacity:1;fill:#aaaaac;fill-opacity:1;stroke-width:0.999789"
         id="path10839-9" />
    </g>
  </g>
</svg>
