<?xml version="1.0" encoding="UTF-8" standalone="no"?>
<svg
   xmlns:dc="http://purl.org/dc/elements/1.1/"
   xmlns:cc="http://creativecommons.org/ns#"
   xmlns:rdf="http://www.w3.org/1999/02/22-rdf-syntax-ns#"
   xmlns:svg="http://www.w3.org/2000/svg"
   xmlns="http://www.w3.org/2000/svg"
   id="svg842"
   version="1.1"
   viewBox="0 0 16 16"
   height="16"
   width="16">
  <defs
     id="defs836" />
  <metadata
     id="metadata839">
    <rdf:RDF>
      <cc:Work
         rdf:about="">
        <dc:format>image/svg+xml</dc:format>
        <dc:type
           rdf:resource="http://purl.org/dc/dcmitype/StillImage" />
        <dc:title></dc:title>
      </cc:Work>
    </rdf:RDF>
  </metadata>
  <g
     id="layer1">
    <g
       id="g837"
       transform="translate(2,2)">
      <rect
         style="opacity:0.00100002"
         id="rect817"
         width="12"
         height="12"
         x="0"
         y="0" />
      <rect
         id="rect825"
         width="8"
         height="5"
         x="2"
         y="6"
         rx="1"
         ry="1"
         style="opacity:1;fill:#aaaaac;fill-opacity:1" />
      <path
         id="rect829"
         d="M 6,1 C 4.338,1 3,2.338 3,4 v 4 c 0,1.662 1.338,3 3,3 1.662,0 3,-1.338 3,-3 V 4 C 9,2.338 7.662,1 6,1 Z M 6,3 C 6.5885945,3 7,3.4114055 7,4 V 8 C 7,8.5885945 6.5885945,9 6,9 5.4114055,9 5,8.5885945 5,8 V 4 C 5,3.4114055 5.4114055,3 6,3 Z"
         style="opacity:1;fill:#aaaaac;fill-opacity:1" />
    </g>
  </g>
</svg>
