<svg id="svg39" width="300" height="300" version="1.1" xmlns="http://www.w3.org/2000/svg" xmlns:xlink="http://www.w3.org/1999/xlink">
 <defs id="defs2">
  <linearGradient id="linearGradient988">
   <stop id="stop1" offset="0"/>
   <stop id="stop2" stop-opacity="0" offset="1"/>
  </linearGradient>
  <linearGradient id="linearGradient1054" x1="155" x2="155" y1="951.36" y2="971.36" gradientUnits="userSpaceOnUse" xlink:href="#linearGradient988"/>
  <radialGradient id="radialGradient1062" cx="100" cy="948.86" r="12.5" gradientTransform="matrix(-2 1.8506e-6 -1.4805e-6 -1.6 303 2469.5)" gradientUnits="userSpaceOnUse" xlink:href="#linearGradient988"/>
  <radialGradient id="radialGradient1070" cx="100" cy="948.86" r="12.5" gradientTransform="matrix(-2 5.2353e-5 -4.1884e-5 -1.6001 303.04 2469.6)" gradientUnits="userSpaceOnUse" xlink:href="#linearGradient988"/>
  <linearGradient id="linearGradient1078" x1="103" x2="78" y1="892.36" y2="892.36" gradientUnits="userSpaceOnUse" xlink:href="#linearGradient988"/>
  <radialGradient id="radialGradient1094" cx="101" cy="856.86" r="12.5" gradientTransform="matrix(-2.8296e-6 -1.44 2 -3.93e-6 -1610.7 998.81)" gradientUnits="userSpaceOnUse" xlink:href="#linearGradient988"/>
  <radialGradient id="radialGradient1102" cx="101" cy="856.86" r="12.5" gradientTransform="matrix(-2.8296e-6 -1.44 2 -3.93e-6 -1610.7 998.81)" gradientUnits="userSpaceOnUse" xlink:href="#linearGradient988"/>
  <linearGradient id="linearGradient1187" x1="103" x2="81" y1="892.36" y2="892.36" gradientUnits="userSpaceOnUse" xlink:href="#linearGradient988"/>
  <linearGradient id="linearGradient1189" x1="155" x2="155" y1="951.36" y2="962.36" gradientUnits="userSpaceOnUse" xlink:href="#linearGradient988"/>
  <radialGradient id="radialGradient1191" cx="100" cy="948.86" r="12.5" gradientTransform="matrix(-1.76 0 0 -.88 279 1786.4)" gradientUnits="userSpaceOnUse" xlink:href="#linearGradient988"/>
  <radialGradient id="radialGradient1193" cx="101" cy="856.86" r="12.5" gradientTransform="matrix(0 -1.44 1.76 0 -1405.1 998.8)" gradientUnits="userSpaceOnUse" xlink:href="#linearGradient988"/>
  <radialGradient id="radialGradient1199" cx="100" cy="948.86" r="12.5" gradientTransform="matrix(-1.76 0 0 -.88 279 1786.4)" gradientUnits="userSpaceOnUse" xlink:href="#linearGradient988"/>
 </defs>
 <path id="decoration-center" d="m101 101v98h98v-98z" fill="#1e1e20"/>
 <g id="decoration-left" transform="translate(0 -752.36)">
  <path id="path2" d="m76 853.36v98h10v-98z" fill="url(#linearGradient1078)" opacity=".5"/>
  <path id="path3" d="m101 951.36v-97.999h-15v98z" fill="#1e1e20"/>
 </g>
 <g id="decoration-top" transform="translate(0 -752.36)">
  <path id="path4" d="m101 853.36h97.999v-18h-98z" fill="#1e1e20"/>
  <path id="path5" d="m199 833.36h-98v2h98z" opacity=".001"/>
  <path id="path6" transform="translate(0 752.36)" d="m101 83v1h98v-1z" fill="#fff" opacity=".12"/>
 </g>
 <g id="decoration-bottom" transform="translate(0 -752.36)">
  <path id="path7" d="m101 971.36h98v-14h-98z" fill="url(#linearGradient1054)" opacity=".5"/>
  <path id="path8" d="m199 951.36h-97.999v6h98z" fill="#1e1e20"/>
 </g>
 <g id="decoration-bottomleft" transform="translate(0 -752.36)">
  <path id="path9" d="m101 971.36h-25v-20h25z" fill="url(#radialGradient1070)" opacity=".5"/>
  <path id="path10" d="m101 957.36h-15v-6h15z" fill="#1e1e20"/>
 </g>
 <g id="decoration-topleft" transform="translate(0 -752.36)">
  <path id="path11" d="m101 833.36h-25v20h25z" fill="url(#radialGradient1094)" opacity=".5"/>
  <path id="path12" d="m101 835.36h-9c-4.5 0-6 1.5-6 6v12h15z" fill="#1e1e20"/>
  <path id="path13" transform="translate(0 752.36)" d="m92 83c-4.5 0-6 1.5-6 6v1c0-4.5 1.5-6 6-6h9v-1z" fill="#fff" opacity=".12"/>
 </g>
 <g id="decoration-right" transform="matrix(-1 0 0 1 300 -752.36)">
  <path id="path14" d="m76 853.36v98h10v-98z" fill="url(#linearGradient1078)" opacity=".5"/>
  <path id="path15" d="m101 951.36v-97.999h-15v98z" fill="#1e1e20"/>
 </g>
 <g id="decoration-topright" transform="matrix(-1 0 0 1 300 -752.36)">
  <path id="path16" d="m101 833.36h-25v20h25z" fill="url(#radialGradient1102)" opacity=".5"/>
  <path id="path17" d="m101 835.36h-9c-4.5 0-6 1.5-6 6v12h15z" fill="#1e1e20"/>
  <path id="path18" transform="matrix(-1 0 0 1 300 752.36)" d="m199 83v1h9c4.5 0 6 1.5 6 6v-1c0-4.5-1.5-6-6-6z" fill="#fff" opacity=".12"/>
 </g>
 <g id="decoration-bottomright" transform="matrix(-1 0 0 1 300 -752.36)">
  <path id="path19" d="m101 971.36h-25v-20h25z" fill="url(#radialGradient1062)" opacity=".5"/>
  <path id="path20" d="m101 957.36h-15v-6h15z" fill="#1e1e20"/>
 </g>
 <path id="decoration-inactive-center" d="m369 101v98h98v-98z" fill="#1e1e20"/>
 <g id="decoration-inactive-left" transform="translate(268 -752.36)">
  <path id="path21" d="m76 853.36v98h10v-98z" fill="url(#linearGradient1187)" opacity=".5"/>
  <path id="path22" d="m101 951.36v-97.999h-15v98z" fill="#1e1e20"/>
 </g>
 <g id="decoration-inactive-top" transform="translate(268 -752.36)">
  <path id="path23" d="m101 853.36h97.999v-18h-98z" fill="#1e1e20"/>
  <path id="path24" d="m199 833.36h-98v2h98z" opacity=".001"/>
  <path id="path25" transform="translate(0 752.36)" d="m101 83v1h98v-1z" fill="#fff" opacity=".12"/>
 </g>
 <g id="decoration-inactive-bottom" transform="translate(268 -752.36)">
  <path id="path26" d="m101 971.36h98v-14h-98z" fill="url(#linearGradient1189)" opacity=".5"/>
  <path id="path27" d="m199 951.36h-97.999v6h98z" fill="#1e1e20"/>
 </g>
 <g id="decoration-inactive-bottomleft" transform="translate(268 -752.36)">
  <path id="path28" d="m101 971.36h-25v-20h25z" fill="url(#radialGradient1191)" opacity=".5"/>
  <path id="path29" d="m101 957.36h-15v-6h15z" fill="#1e1e20"/>
 </g>
 <g id="decoration-inactive-topleft" transform="translate(268 -752.36)">
  <path id="path30" d="m101 833.36h-25v20h25z" fill="url(#radialGradient1193)" opacity=".5"/>
  <path id="path31" d="m101 835.36h-9c-4.5 0-6 1.5-6 6v12h15z" fill="#1e1e20"/>
  <path id="path32" transform="translate(0 752.36)" d="m92 83c-4.5 0-6 1.5-6 6v1c0-4.5 1.5-6 6-6h9v-1z" fill="#fff" opacity=".12"/>
 </g>
 <g id="decoration-inactive-right" transform="matrix(-1 0 0 1 568 -752.36)">
  <path id="path33" d="m76 853.36v98h10v-98z" fill="url(#linearGradient1187)" opacity=".5"/>
  <path id="path34" d="m101 951.36v-97.999h-15v98z" fill="#1e1e20"/>
 </g>
 <g id="decoration-inactive-topright" transform="matrix(-1 0 0 1 568 -752.36)">
  <path id="path35" d="m101 833.36h-25v20h25z" fill="url(#radialGradient1193)" opacity=".5"/>
  <path id="path36" d="m101 835.36h-9c-4.5 0-6 1.5-6 6v12h15z" fill="#1e1e20"/>
  <path id="path37" transform="matrix(-1 0 0 1 300 752.36)" d="m199 83v1h9c4.5 0 6 1.5 6 6v-1c0-4.5-1.5-6-6-6z" fill="#fff" opacity=".12"/>
 </g>
 <g id="decoration-inactive-bottomright" transform="matrix(-1 0 0 1 568 -752.36)">
  <path id="path38" d="m101 971.36h-25v-20h25z" fill="url(#radialGradient1199)" opacity=".5"/>
  <path id="path39" d="m101 957.36h-15v-6h15z" fill="#1e1e20"/>
 </g>
 <rect id="shadow-hint-left-margin" x="76" y="148" width="10" height="4" fill="#f0f" stroke-width="1.1952"/>
 <rect id="shadow-hint-bottom-margin" x="148" y="205" width="4" height="14" fill="#f0f" stroke-width="1.4142"/>
 <rect id="shadow-hint-right-margin" x="214" y="148" width="10" height="4" fill="#f0f" stroke-width="1.1952"/>
 <rect id="shadow-hint-top-margin" x="148" y="81" width="4" height="2" fill="#f0f" stroke-width=".53452"/>
 <rect id="hint-tile-center" x="-7" y="-7" width="7" height="7" fill="#f00"/>
 <path id="mask-center" d="m569 102v98h98v-98z" fill="#1e1e20"/>
 <g id="mask-left" transform="translate(468,-751.36)">
  <path id="path21-9" d="m76 853.36v98h10v-98z" fill="none"/>
  <path id="path22-1" d="m101 951.36v-97.999h-15v98z" fill="#1e1e20"/>
 </g>
 <g id="mask-top" transform="translate(468,-751.36)">
  <path id="path23-7" d="m101 853.36h97.999v-18h-98z" fill="#1e1e20"/>
  <path id="path24-0" d="m199 833.36h-98v2h98z" fill="none"/>
 </g>
 <g id="mask-bottom" transform="translate(468,-751.36)">
  <path id="path26-6" d="m101 971.36h98v-14h-98z" fill="none"/>
  <path id="path27-0" d="m199 951.36h-97.999v6h98z" fill="#1e1e20"/>
 </g>
 <g id="mask-bottomleft" transform="translate(468,-751.36)">
  <path id="path28-2" transform="translate(-268,752.36)" d="m344 199v20h25v-14h-15v-6z" fill="none"/>
  <path id="path29-6" d="m101 957.36h-15v-6h15z" fill="#1e1e20"/>
 </g>
 <g id="mask-topleft" transform="translate(468,-751.36)">
  <path id="path30-8" transform="translate(-268,752.36)" d="m344 81v20h10v-12c0-4.5 1.5-6 6-6h9v-2z" fill="none"/>
  <path id="path31-7" d="m101 835.36h-9c-4.5 0-6 1.5-6 6v12h15z" fill="#1e1e20"/>
 </g>
 <g id="mask-right" transform="matrix(-1,0,0,1,768,-751.36)">
  <path id="path33-0" d="m76 853.36v98h10v-98z" fill="none"/>
  <path id="path34-2" d="m101 951.36v-97.999h-15v98z" fill="#1e1e20"/>
 </g>
 <g id="mask-topright" transform="matrix(-1,0,0,1,768,-751.36)">
  <path id="path35-7" transform="matrix(-1,0,0,1,568,752.36)" d="m467 81v2h9c4.5 0 6 1.5 6 6v12h10v-20z" fill="none"/>
  <path id="path36-5" d="m101 835.36h-9c-4.5 0-6 1.5-6 6v12h15z" fill="#1e1e20"/>
 </g>
 <g id="mask-bottomright" transform="matrix(-1,0,0,1,768,-751.36)">
  <path id="path38-2" transform="matrix(-1,0,0,1,568,752.36)" d="m482 199v6h-15v14h25v-20z" fill="none"/>
  <path id="path39-8" d="m101 957.36h-15v-6h15z" fill="#1e1e20"/>
 </g>
</svg>
