<svg id="svg" width="32" height="32" version="1.1" viewBox="0 0 32 32" xmlns="http://www.w3.org/2000/svg">
 <g id="22-22-accessories-dictionary" transform="translate(27,37)">
  <rect x="5" y="5" width="22" height="22" style="opacity:.00100002"/>
  <g transform="translate(8,-9)">
   <path d="m0.94 30.75v-2.19l4.22-1.13 2.34 0.6 2.39-0.67 3.74 1v2.45z" style="fill:#aaaaac;opacity:.3"/>
   <path d="m10.03 17.15c-0.15 0-0.3 0.01-0.46 0.03-0.57 0.08-1.25 0.35-2.02 0.76-1.54-0.85-2.74-0.9-3.74-0.64-1.07 0.27-1.94 0.72-3.29 0.68l-0.52-0.02v14.04h15v-14.02l-0.52 0.02c-1.51 0.05-2.27-0.39-3.25-0.68-0.36-0.11-0.76-0.18-1.2-0.17zm-5.29 0.99c0.62-0.07 1.3 0.08 2.26 0.6v8.64c-1.1-0.63-2.21-0.68-3.18-0.44-0.66 0.16-1.25 0.34-1.82 0.49v-8.64c0.8-0.14 1.47-0.37 2.05-0.52 0.24-0.06 0.46-0.11 0.69-0.13zm5.6 0c0.2 0.02 0.4 0.07 0.61 0.14 0.53 0.15 1.19 0.4 2.05 0.55v8.6c-0.57-0.15-1.16-0.34-1.81-0.5-0.98-0.24-2.09-0.18-3.19 0.48v-8.61c0.7-0.38 1.25-0.59 1.68-0.66 0.24-0.03 0.45-0.03 0.66 0zm-0.54 9.61c0.37-0.01 0.75 0.05 1.15 0.15 0.64 0.16 1.32 0.43 2.05 0.63v1.47h-11v-1.46c0.72-0.2 1.41-0.47 2.05-0.63 1.08-0.27 2-0.3 3.15 0.74l0.34 0.3 0.33-0.31c0.7-0.64 1.31-0.87 1.93-0.89z" style="fill:#aaaaac"/>
  </g>
 </g>
 <g id="22-22-accessories-calculator">
  <rect x="32" y="10" width="22" height="22" style="opacity:.00100002"/>
  <path d="m38 13s-2 0-2 2v11s0 2 2 2h11s2 0 2-2v-11c0-2-2-2-2-2zm0 2h5v5h-5v-4zm6 0h5v5h-5zm1.44 1c-0.34 0.08-0.54 0.58-0.28 0.84l0.65 0.66-0.65 0.66c-0.26 0.15-0.31 0.56-0.1 0.78 0.22 0.21 0.63 0.16 0.78-0.1l0.66-0.65 0.66 0.65c0.15 0.26 0.56 0.31 0.78 0.1 0.21-0.22 0.16-0.63-0.1-0.78l-0.65-0.66 0.65-0.66c0.26-0.23 0.15-0.73-0.18-0.84h-0.07c-0.16-0.02-0.32 0.04-0.43 0.16l-0.66 0.65-0.66-0.65c-0.06-0.08-0.15-0.13-0.25-0.16-0.05-0.01-0.1-0.01-0.15 0zm-6.44 1v1h3v-1h-2zm-1 4h5v5h-5v-1zm6 0h5v5h-5zm-4 1v1h-1v1h1v1h1v-1h1v-1h-1v-1zm5 0v1h3v-1zm0 2v1h3v-1z" style="fill:#aaaaac"/>
 </g>
 <g id="accessories-dictionary" transform="translate(0,32)">
  <rect width="32" height="32" style="opacity:.00100002"/>
  <g transform="translate(-2e-4,5e-6)">
   <rect transform="matrix(0,-1,-1,0,0,0)" x="-30" y="-30" width="28" height="28" rx="1.4" ry="1.4" style="fill:#e4e4e4"/>
   <path d="m30 28.6v-25.2c0-0.7756-0.624-1.4-1.4-1.4h-12.6v28h12.6c0.7756 0 1.4-0.6244 1.4-1.4z" style="opacity:.1"/>
   <path d="M 3.4004,2 C 2.6248,2 2,2.6248 2,3.4004 v 1 C 2,3.6248 2.6248,3 3.4004,3 h 25.2 c 0.775,0 1.4,0.6248 1.4,1.4004 v -1 C 30.0004,2.6248 29.3754,2 28.6004,2 Z" style="fill:#ffffff;opacity:.2"/>
   <path d="m2 28.6v1c0 0.775 0.6248 1.4 1.4004 1.4h25.2c0.775 0 1.4-0.625 1.4-1.4v-1c0 0.775-0.625 1.4-1.4 1.4h-25.2c-0.7752 0-1.4-0.625-1.4-1.4z" style="opacity:.2"/>
   <path d="m12.8 1c-0.8 0-0.8 0.6857-0.8 0.6857v11.314l2-1 2 1v-11.314c0-0.68571-0.80001-0.68571-0.80001-0.68571z" style="fill:#c2352a"/>
  </g>
 </g>
 <g id="accessories-calculator">
  <rect width="32" height="32" style="opacity:.00100002"/>
  <g>
   <path d="m3.5 3h25c0.831 0 1.5 0.669 1.5 1.5v17.839157l-2.517986 4.745632c-0.38949 0.73407-0.827994 1.011155-1.5 1.5l-3.320143 2.415211h-19.161871c-0.831 0-1.5-0.669-1.5-1.5v-25c0-0.831 0.669-1.5 1.5-1.5z" style="opacity:.2"/>
   <path d="m30 16v6.647482l-1.541624 4.824769c-0.252926 0.791574-0.634728 1.53776-1.448612 1.70555l-3.988181 0.822199h-8.021583v-14z" style="fill:#666666"/>
   <path d="m2 15v13.5c0 0.831 0.669 1.5 1.5 1.5h12.5v-15z" style="fill:#8c8c8c"/>
   <path d="m3.5 2c-0.831 0-1.5 0.669-1.5 1.5v12.5h15v-14z" style="fill:#a6a6a6"/>
   <path d="m28.5 2c0.831 0 1.5 0.669 1.5 1.5v12.5h-14v-14z" style="fill:#595959"/>
   <path d="m3.5 2c-0.831 0-1.5 0.669-1.5 1.5v1c0-0.831 0.669-1.5 1.5-1.5h25c0.831 0 1.5 0.669 1.5 1.5v-1c0-0.831-0.669-1.5-1.5-1.5z" style="fill:#ffffff;opacity:.2"/>
   <circle cx="23" cy="24" r="8" style="opacity:.2"/>
   <circle cx="23" cy="23" r="8" style="fill:#07ce8e"/>
   <path d="m9 7.000484v3h-3v1h3v3h1v-3h3v-1h-3v-3zm11 3v1h6v-1zm-13.646484 10.646484-0.7070312 0.707032 2.6464844 2.646484-2.6464844 2.646484 0.7070312 0.707032 2.6464844-2.646485 2.6464836 2.646485 0.707032-0.707032-2.6464844-2.646484 2.6464844-2.646484-0.707032-0.707032-2.6464836 2.646485z" style="opacity:.2"/>
   <path d="m9 6v3h-3v1h3v3h1v-3h3v-1h-3v-3zm11 3v1h6v-1zm-13.646484 10.646484-0.7070312 0.707032 2.6464844 2.646484-2.6464844 2.646484 0.7070312 0.707032 2.6464844-2.646485 2.6464836 2.646485 0.707032-0.707032-2.6464844-2.646484 2.6464844-2.646484-0.707032-0.707032-2.6464836 2.646485z" style="fill:#ffffff"/>
   <path d="m20 21v1h6v-1zm0 3v1h6v-1z" style="fill:#ffffff"/>
  </g>
 </g>
</svg>
