<svg width="32" height="32" version="1.1" xmlns="http://www.w3.org/2000/svg">
 <g id="22-22-akonadi" transform="translate(39.494834,7.7037887)">
  <path d="m0 2.5e-7h22v22h-22z" style="opacity:.00100002"/>
  <path d="m8.0019531 3.0000197c-2.2068991 1.2739076-3.5714628 3.4317524-3.9121093 5.7636719 0.2413848-0.1145249 0.4906622-0.2168418 0.7460937-0.2988281 1.1019519-0.3536957 2.3311937-0.459726 3.6171875-0.4648438 1.780616-0.0070863 3.682093 0.2250012 5.466797 0.5664062-1.389096-2.9981719-3.395849-5.5780579-5.9179689-5.5664062zm4.2402349 1.1171875c1.042747 1.1188808 1.891926 2.5313686 2.585937 4.0292969l0.318359 0.6875c0.963016 0.2195514 1.886754 0.4562651 2.691407 0.7089844-0.592699-2.7758085-2.802943-4.918935-5.595703-5.4257813zm-3.7851568 4.8828125c-2.4581357 0.0097826-4.5647186 0.4379741-5.4570312 2.0000003 0 4.418 3.5817 8 8 8 4.418 0 8-3.582 8-8-2.340914-0.915391-6.840288-2.0147358-10.542969-2.0000003z" style="fill:#aaaaac"/>
 </g>
 <g id="akonadi">
  <rect width="32" height="32" style="opacity:.00100002"/>
  <g>
   <path d="M 29.1,15.8 A 12.75,12.75 0 0 1 16.35,28.55 12.75,12.75 0 0 1 3.6,15.8 12.75,12.75 0 0 1 16.35,3.05 12.75,12.75 0 0 1 29.1,15.8 Z" style="fill:#cddff0"/>
   <path d="m16.35 3.05a12.75 12.75 0 0 0-12.75 12.75 12.75 12.75 0 0 0 0.0161 0.435 12.75 12.75 0 0 1 12.734-12.435 12.75 12.75 0 0 1 12.734 12.315 12.75 12.75 0 0 0 0.016-0.315 12.75 12.75 0 0 0-12.75-12.75z" style="fill:#ffffff;opacity:.2"/>
   <path d="m24.227 27.588c-6.815 3.936-15.53 1.6-19.466-5.215-3.9345-6.816-1.5993-15.531 5.2164-19.466 8.0306-0.0371 13.13 17.316 14.25 24.681z" style="fill:#62b4e7"/>
   <path d="m30.6 15.75c0 7.87-6.38 14.25-14.25 14.25-7.8701 0-14.25-6.38-14.25-14.25 3.9835-6.9734 21.562-2.713 28.5 0z" style="fill:#357dc5"/>
   <path d="m2.1469 16.678c-0.0148 0.025-0.0325 0.047-0.0469 0.072 0 7.87 6.3799 14.25 14.25 14.25s14.25-6.3799 14.25-14.25c-0.01527-6e-3 -0.0354-0.01159-0.05078-0.01758-0.507 7.41-6.661 13.268-14.199 13.268-7.5569 0-13.723-5.887-14.203-13.322z" style="opacity:.2"/>
  </g>
 </g>
</svg>
