<?xml version="1.0" encoding="UTF-8"?>
<svg width="32" height="32" version="1.1" xmlns="http://www.w3.org/2000/svg">
 <g id="applications-other" fill="#aaaaac">
  <rect width="32" height="32" opacity=".001"/>
  <path class="ColorScheme-Text" d="m5 2c-1.662 0-3 1.338-3 3v6c0 1.662 1.338 3 3 3h6c1.662 0 3-1.338 3-3v-6c0-1.662-1.338-3-3-3zm16 0c-1.662 0-3 1.338-3 3v6c0 1.662 1.338 3 3 3h6c1.662 0 3-1.338 3-3v-6c0-1.662-1.338-3-3-3zm0 3h6v6h-6zm-16 13c-1.662 0-3 1.338-3 3v6c0 1.662 1.338 3 3 3h6c1.662 0 3-1.338 3-3v-6c0-1.662-1.338-3-3-3zm16 0c-1.662 0-3 1.338-3 3v6c0 1.662 1.338 3 3 3h6c1.662 0 3-1.338 3-3v-6c0-1.662-1.338-3-3-3zm-16 3h6v6h-6z" fill="#aaaaac"/>
 </g>
 <g id="22-22-applications-other" transform="translate(27,5)">
  <rect x="5" y="5" width="22" height="22" opacity=".001"/>
  <path transform="translate(-27,-5)" d="m37.5 14c-0.831 0-1.5 0.669-1.5 1.5v3c0 0.831 0.669 1.5 1.5 1.5h3c0.831 0 1.5-0.669 1.5-1.5v-3c0-0.831-0.669-1.5-1.5-1.5zm8 0c-0.831 0-1.5 0.669-1.5 1.5v3c0 0.831 0.669 1.5 1.5 1.5h3c0.831 0 1.5-0.669 1.5-1.5v-3c0-0.831-0.669-1.5-1.5-1.5zm0.5 2h2v2h-2zm-8.5 6c-0.831 0-1.5 0.669-1.5 1.5v3c0 0.831 0.669 1.5 1.5 1.5h3c0.831 0 1.5-0.669 1.5-1.5v-3c0-0.831-0.669-1.5-1.5-1.5zm8 0c-0.831 0-1.5 0.669-1.5 1.5v3c0 0.831 0.669 1.5 1.5 1.5h3c0.831 0 1.5-0.669 1.5-1.5v-3c0-0.831-0.669-1.5-1.5-1.5zm-7.5 2h2v2h-2z" fill="#aaaaac"/>
 </g>
</svg>
