<?xml version="1.0" encoding="UTF-8"?>
<svg width="32" height="32" version="1.1" xmlns="http://www.w3.org/2000/svg">
 <g id="applications-other" fill="#aaaaac">
  <rect width="32" height="32" opacity=".001"/>
  <path class="ColorScheme-Text" d="m5 2c-1.662 0-3 1.338-3 3v6c0 1.662 1.338 3 3 3h6c1.662 0 3-1.338 3-3v-6c0-1.662-1.338-3-3-3zm16 0c-1.662 0-3 1.338-3 3v6c0 1.662 1.338 3 3 3h6c1.662 0 3-1.338 3-3v-6c0-1.662-1.338-3-3-3zm0 3h6v6h-6zm-16 13c-1.662 0-3 1.338-3 3v6c0 1.662 1.338 3 3 3h6c1.662 0 3-1.338 3-3v-6c0-1.662-1.338-3-3-3zm16 0c-1.662 0-3 1.338-3 3v6c0 1.662 1.338 3 3 3h6c1.662 0 3-1.338 3-3v-6c0-1.662-1.338-3-3-3zm-16 3h6v6h-6z"/>
 </g>
</svg>
