<svg width="32" height="32" version="1.1" viewBox="0 0 32 32" xmlns="http://www.w3.org/2000/svg">
 <g id="22-22-applications-other">
  <rect x="32" y="10" width="22" height="22" style="opacity:.00100002"/>
  <path d="m40.5 14c-0.5 0-0.5 0.5-0.5 0.5v8c0 0.5 0.5 0.5 0.5 0.5h10s0.5 0 0.5-0.5v-8c0-0.5-0.5-0.5-0.5-0.5zm1.5 3h7v4h-7zm-7.480469 2s-0.519531 0-0.519531 0.5v8c0 0.5 0.5 0.5 0.5 0.5h10s0.5-0.02 0.5-0.5v-3.5h-2v2h-7v-4h3v-3z" style="fill:#aaaaac"/>
 </g>
 <g id="applications-other">
  <rect width="32" height="32" style="fill-rule:evenodd;opacity:.00100002"/>
  <g transform="translate(0 .99999997)">
   <path d="M 9.5,1 C 9.3521,1 9.2129,1.0288 9.0781,1.0684 9.2147,1.0357 9.3499,1 9.5,1 Z M 8,4.9 V 18.5 C 8,19.331 8.669,20 9.5,20 h 19 C 29.331,20 30,19.331 30,18.5 V 4.9 Z" style="fill:#c8c8ca"/>
   <path d="m8 18.5v1c0 0.831 0.669 1.5 1.5 1.5h19c0.831 0 1.5-0.669 1.5-1.5v-1c0 0.831-0.669 1.5-1.5 1.5h-19c-0.831 0-1.5-0.669-1.5-1.5z" style="opacity:.2"/>
   <path d="m9.5 1c-0.831 0-1.5 0.5-1.5 1.5v2.5h22v-2.5c0-0.831-0.669-1.5-1.5-1.5z" style="fill:#6e6e70"/>
   <path d="m9.5 1c-0.831 0-1.5 0.669-1.5 1.5v1c0-0.831 0.669-1.5 1.5-1.5h19c0.831 0 1.5 0.669 1.5 1.5v-1c0-0.831-0.669-1.5-1.5-1.5z" style="fill:#ffffff;opacity:.1"/>
  </g>
  <g>
   <path d="m2 13.9v13.6c0 0.831 0.669 1.5 1.5 1.5h19c0.831 0 1.5-0.669 1.5-1.5v-13.6z" style="fill:#dcdcde"/>
   <path d="m3.5 10c-0.831 0-1.5 0.669-1.5 1.5v2.5h22v-2.5c0-0.831-0.669-1.5-1.5-1.5z" style="fill:#6e6e70"/>
   <path d="m2 27.5v1c0 0.831 0.669 1.5 1.5 1.5h19c0.831 0 1.5-0.669 1.5-1.5v-1c0 0.831-0.669 1.5-1.5 1.5h-19c-0.831 0-1.5-0.669-1.5-1.5z" style="opacity:.2"/>
  </g>
 </g>
</svg>
