<?xml version="1.0" encoding="UTF-8"?>
<svg width="32" height="32" version="1.1" xmlns="http://www.w3.org/2000/svg">
 <g id="22-22-audio-volume-muted" transform="translate(-325 397)">
  <path d="m325-419h22v22h-22v-22z" opacity=".001"/>
  <path d="m335-416-5 5h-3v6h3l5 5zm2 0v2c2.8684 0.84571 5 3.0629 5 6s-2.1316 5.1543-5 6v2c3.8946-0.89143 7-4.1143 7-8s-3.1054-7.1086-7-8zm0 4v8s3.0002-1 3-4-3-4-3-4z" fill="#aaaaac" opacity=".3"/>
 </g>
 <g id="22-22-audio-volume-low" transform="translate(-293 397)">
  <path d="m325-419h22v22h-22v-22z" opacity=".001"/>
  <path d="m335-416-5 5h-3v6h3l5 5z" fill="#aaaaac"/>
  <path d="m337-416v2c2.8684 0.84571 5 3.0629 5 6s-2.1316 5.1543-5 6v2c3.8946-0.89143 7-4.1143 7-8s-3.1054-7.1086-7-8z" fill="#aaaaac" opacity=".3"/>
  <path d="m337-412v8s3.0002-1 3-4-3-4-3-4z" fill="#aaaaac" opacity=".3"/>
 </g>
 <g id="22-22-audio-volume-medium" transform="translate(-261 397)">
  <path d="m325-419h22v22h-22v-22z" opacity=".001"/>
  <path d="m335-416-5 5h-3v6h3l5 5z" fill="#aaaaac"/>
  <path d="m337-416v2c2.8684 0.84571 5 3.0629 5 6s-2.1316 5.1543-5 6v2c3.8946-0.89143 7-4.1143 7-8s-3.1054-7.1086-7-8z" fill="#aaaaac" opacity=".3"/>
  <path d="m337-412v8s3.0002-1 3-4-3-4-3-4z" fill="#aaaaac"/>
 </g>
 <g id="22-22-audio-volume-high" transform="translate(-229 397)">
  <path d="m325-419h22v22h-22v-22z" opacity=".001"/>
  <path d="m335-416-5 5h-3v6h3l5 5z" fill="#aaaaac"/>
  <path d="m337-416v2c2.8684 0.84571 5 3.0629 5 6s-2.1316 5.1543-5 6v2c3.8946-0.89143 7-4.1143 7-8s-3.1054-7.1086-7-8z" fill="#aaaaac"/>
  <path d="m337-412v8s3.0002-1 3-4-3-4-3-4z" fill="#aaaaac"/>
 </g>
 <g id="audio-volume-muted">
  <path d="m-6.818e-7 -4.5e-6h32v32h-32v-32z" opacity=".001"/>
  <path d="m15 4-7.5 7h-4.5v10h4.5l7.5 7v-24zm3 0.046875v3.0137a9 9 0 0 1 8 8.9395 9 9 0 0 1-8 8.9336v3.0156a12 12 0 0 0 11-11.949 12 12 0 0 0-11-11.953zm0 6.043v11.824a6 6 0 0 0 5-5.9141 6 6 0 0 0-5-5.9102z" fill="#aaaaac" opacity=".3"/>
 </g>
 <g id="audio-volume-low" transform="translate(32)">
  <path d="m-6.818e-7 -4.5e-6h32v32h-32v-32z" opacity=".001"/>
  <path d="m15 4-7.5 7h-4.5v10h4.5l7.5 7z" fill="#aaaaac"/>
  <path transform="translate(-32)" d="m50 4.0469v3.0137a9 9 0 0 1 8 8.9395 9 9 0 0 1-8 8.9336v3.0156a12 12 0 0 0 11-11.949 12 12 0 0 0-11-11.953zm0 6.043v11.824a6 6 0 0 0 5-5.9141 6 6 0 0 0-5-5.9102z" fill="#aaaaac" opacity=".3"/>
 </g>
 <g id="audio-volume-medium" transform="translate(64)">
  <path d="m-6.818e-7 -4.5e-6h32v32h-32v-32z" opacity=".001"/>
  <path transform="translate(-64)" d="m79 4-7.5 7h-4.5v10h4.5l7.5 7v-24zm3 6.0898v11.824a6 6 0 0 0 5-5.9141 6 6 0 0 0-5-5.9102z" fill="#aaaaac"/>
  <path d="m18 4.0469v3.0137a9 9 0 0 1 8 8.9395 9 9 0 0 1-8 8.9336v3.0156a12 12 0 0 0 11-11.949 12 12 0 0 0-11-11.953z" fill="#aaaaac" opacity=".3"/>
 </g>
 <g id="audio-volume-high" transform="translate(96)">
  <path d="m-6.818e-7 -4.5e-6h32v32h-32v-32z" opacity=".001"/>
  <path transform="translate(-96)" d="m111 4-7.5 7h-4.5v10h4.5l7.5 7v-24zm3 0.046875v3.0137a9 9 0 0 1 8 8.9395 9 9 0 0 1-8 8.9336v3.0156a12 12 0 0 0 11-11.949 12 12 0 0 0-11-11.953zm0 6.043v11.824a6 6 0 0 0 5-5.9141 6 6 0 0 0-5-5.9102z" fill="#aaaaac"/>
 </g>
 <g id="audio-radio-symbolic" transform="translate(0,-249.18)">
  <rect y="281.18" width="32" height="32" opacity=".001"/>
  <rect x="2" y="290.18" width="28" height="22" rx="3" ry="3" opacity=".2"/>
  <path d="m8.4766 281.26a1.5002 1.5002 0 0 0-1.4766 1.5215v7.5a1.5002 1.5002 0 1 0 3 0v-7.5a1.5002 1.5002 0 0 0-1.5234-1.5215z" fill="#8e8e8e"/>
  <rect x="6" y="288.18" width="5" height="2" rx="1" ry="1" fill="#494949"/>
  <rect x="2" y="289.18" width="28" height="22" rx="3" ry="3" fill="#00cdbf"/>
  <circle cx="11" cy="300.18" r="7" opacity=".5"/>
  <circle cx="11" cy="301.18" r="4" opacity=".2"/>
  <circle cx="11" cy="300.18" r="4" fill="#ffa800"/>
  <path d="m20 299.18a1.0001 1.0001 0 1 0 0 2h7a1.0001 1.0001 0 1 0 0-2z" opacity=".5"/>
  <path d="m20 295.18a1.0001 1.0001 0 1 0 0 2h7a1.0001 1.0001 0 1 0 0-2z" opacity=".5"/>
  <path d="m20 303.18a1.0001 1.0001 0 1 0 0 2h7a1.0001 1.0001 0 1 0 0-2z" opacity=".5"/>
  <path d="m5 289.18c-1.662 0-3 1.338-3 3v1c0-1.662 1.338-3 3-3h22c1.662 0 3 1.338 3 3v-1c0-1.662-1.338-3-3-3z" fill="#fff" opacity=".2"/>
  <path d="m11 296.18a4 4 0 0 0-4 4 4 4 0 0 0 0.035156 0.49414 4 4 0 0 1 3.9648-3.4941 4 4 0 0 1 3.9648 3.5059 4 4 0 0 0 0.035156-0.50586 4 4 0 0 0-4-4z" fill="#fff" opacity=".2"/>
 </g>
 <g id="22-22-audio-radio-symbolic" transform="translate(-5 59)">
  <rect x="5" y="5" width="22" height="22" opacity=".001"/>
  <path d="m11.984 6.9922c-0.55229 0.0086-0.99302 0.46334-0.98438 1.0156v3h-1c-1.108 0-2 0.892-2 2v8.9922c0 1.108 0.892 2 2 2h12c1.108 0 2-0.892 2-2v-8.9922c0-1.108-0.89867-2.1214-2-2h-9v-3c0.0088-0.56453-0.45109-1.0245-1.0156-1.0156zm-1.9844 6.0156h12v8.9922h-12zm3.5 1.9922a2.5 2.5 0 0 0-2.5 2.5 2.5 2.5 0 0 0 2.5 2.5 2.5 2.5 0 0 0 2.5-2.5 2.5 2.5 0 0 0-2.5-2.5zm4 0a0.50005 0.50005 0 1 0 0 1h3a0.50005 0.50005 0 1 0 0-1zm0 2a0.50005 0.50005 0 1 0 0 1h3a0.50005 0.50005 0 1 0 0-1zm0 2a0.50005 0.50005 0 1 0 0 1h3a0.50005 0.50005 0 1 0 0-1z" fill="#aaaaac"/>
 </g>
</svg>
