<svg width="32" height="32" style="enable-background:new" version="1.1" xmlns="http://www.w3.org/2000/svg">
 <g id="22-22-audio-volume-muted" transform="translate(-325.0004,451)">
  <path d="m325.0004-419h22v22h-22v-22z" style="fill:#ff0000;opacity:.00100002"/>
  <path d="m335.0004-416-5 5h-3v6h3l5 5zm2 0v2c2.86838 0.84571 5 3.06286 5 6s-2.13163 5.15429-5 6v2c3.89455-0.89143 7-4.11429 7-8s-3.10545-7.10857-7-8zm0 4v8s3.0002-1 3-4-3-4-3-4z" style="fill:#ffffff;opacity:.25"/>
 </g>
 <g id="22-22-audio-volume-low" transform="translate(-300.0004,451)">
  <path d="m325.0004-419h22v22h-22v-22z" style="fill:#ff0000;opacity:.00100002"/>
  <g>
   <path d="m335.0004-416-5 5h-3v6h3l5 5z" style="fill:#aaaaac"/>
   <path d="m337.0004-416v2c2.86838 0.84571 5 3.06286 5 6s-2.13163 5.15429-5 6v2c3.89455-0.89143 7-4.11429 7-8s-3.10545-7.10857-7-8z" style="fill:#ffffff;opacity:.25"/>
   <path d="m337.0004-412v8s3.0002-1 3-4-3-4-3-4z" style="fill:#ffffff;opacity:.25"/>
  </g>
 </g>
 <g id="22-22-audio-volume-medium" transform="translate(-275.0004,451)">
  <path d="m325.0004-419h22v22h-22v-22z" style="fill:#ff0000;opacity:.00100002"/>
  <g>
   <path d="m335.0004-416-5 5h-3v6h3l5 5z" style="fill:#aaaaac"/>
   <path d="m337.0004-416v2c2.86838 0.84571 5 3.06286 5 6s-2.13163 5.15429-5 6v2c3.89455-0.89143 7-4.11429 7-8s-3.10545-7.10857-7-8z" style="fill:#ffffff;opacity:.25"/>
   <path d="m337.0004-412v8s3.0002-1 3-4-3-4-3-4z" style="fill:#aaaaac"/>
  </g>
 </g>
 <g id="22-22-audio-volume-high" transform="translate(-250.0004,451)">
  <path d="m325.0004-419h22v22h-22v-22z" style="fill:#ff0000;opacity:.00100002"/>
  <g>
   <path d="m335.0004-416-5 5h-3v6h3l5 5z" style="fill:#aaaaac"/>
   <path d="m337.0004-416v2c2.86838 0.84571 5 3.06286 5 6s-2.13163 5.15429-5 6v2c3.89455-0.89143 7-4.11429 7-8s-3.10545-7.10857-7-8z" style="fill:#aaaaac"/>
   <path d="m337.0004-412v8s3.0002-1 3-4-3-4-3-4z" style="fill:#aaaaac"/>
  </g>
 </g>
 <g id="audio-volume-low" transform="translate(32,32)">
  <rect y="-32" width="32" height="32" style="opacity:.00100002"/>
  <g transform="translate(1,-32)" style="enable-background:new">
   <path d="m14.999 2-7.999 8.002h-6v12h6l7.999 7.998z" style="fill:#aaaaac"/>
   <path d="m18.999 2v3c4.64 1.48 8 5.86 8 11s-3.36 9.52-8 11v3c6.3-1.56 11-7.2 11-14s-4.7-12.44-11-14z" style="fill:#ffffff;opacity:.25"/>
   <path d="m18.999 10v12c2.12-1.16 3.582-3.4 3.582-6s-1.442-4.84-3.582-6z" style="fill:#ffffff;opacity:.25"/>
   <path d="m14.998 2-7.998 8.002h-6v1h6l7.998-8.002z" style="fill:#dfdfdf;opacity:.2"/>
   <path d="m1 22.002v1h6l7.998 7.998v-1l-7.998-7.998z" style="opacity:.2"/>
  </g>
 </g>
 <g id="audio-volume-muted" transform="translate(0,32)">
  <rect y="-32" width="32" height="32" style="opacity:.00100002"/>
  <g transform="translate(1,-32)" style="enable-background:new">
   <path d="m14.999 2-7.999 8.002h-6v12h6l7.999 7.998z" style="fill:#aaaaac;opacity:.45"/>
   <path d="m14.998 2-7.998 8.002h-6v1h6l7.998-8.002z" style="fill:#dfdfdf;opacity:.2"/>
   <path d="m1 22.002v1h6l7.998 7.998v-1l-7.998-7.998z" style="opacity:.2"/>
   <circle cx="18" cy="24" r="7" style="fill:#db3c30"/>
   <path d="M 24.977,24.459 A 7,7 0 0 1 18,31 7,7 0 0 1 11.023,24.541 7,7 0 0 0 11,25 a 7,7 0 0 0 7,7 7,7 0 0 0 7,-7 7,7 0 0 0 -0.02344,-0.54102 z" style="opacity:.2"/>
   <g transform="matrix(.70711 -.70711 .70711 .70711 -15.941 24)" style="fill:#dfdfdf">
    <rect x="20" y="23" width="8" height="2" style="fill:#ffffff"/>
    <rect transform="rotate(90)" x="20" y="-25" width="8" height="2" style="fill:#ffffff"/>
   </g>
  </g>
 </g>
 <g id="audio-volume-medium" transform="translate(64,32)">
  <rect y="-32" width="32" height="32" style="opacity:.00100002"/>
  <g transform="translate(1,-32)" style="enable-background:new">
   <path d="m14.999 2-7.999 8.002h-6v12h6l7.999 7.998z" style="fill:#aaaaac"/>
   <path d="m18.999 2v3c4.64 1.48 8 5.86 8 11s-3.36 9.52-8 11v3c6.3-1.56 11-7.2 11-14s-4.7-12.44-11-14z" style="fill:#ffffff;opacity:.25"/>
   <path d="m18.999 10v12c2.12-1.16 3.582-3.4 3.582-6s-1.442-4.84-3.582-6z" style="fill:#aaaaac"/>
   <path d="m14.998 2-7.998 8.002h-6v1h6l7.998-8.002z" style="fill:#dfdfdf;opacity:.2"/>
   <path d="m18.998 10v1c2 1.084 3.374 3.117 3.547 5.5 0.012-0.167 0.035-0.33 0.035-0.5 0-2.6-1.442-4.84-3.582-6z" style="fill:#dfdfdf;opacity:.2"/>
   <path d="m1 22.002v1h6l7.998 7.998v-1l-7.998-7.998z" style="opacity:.2"/>
   <path d="m22.545 16.5c-0.17529 2.3834-1.5653 4.4158-3.5469 5.5v1c2.12-1.16 3.582-3.4 3.582-6 0-0.16981-0.02306-0.33346-0.03516-0.5z" style="opacity:.2"/>
  </g>
 </g>
 <g id="audio-volume-high" transform="translate(96,32)">
  <rect y="-32" width="32" height="32" style="opacity:.00100002"/>
  <g transform="translate(1,-32)" style="enable-background:new">
   <path d="m14.999 2-7.999 8.002h-6v12h6l7.999 7.998z" style="fill:#aaaaac"/>
   <path d="m18.999 2v3c4.64 1.48 8 5.86 8 11s-3.36 9.52-8 11v3c6.3-1.56 11-7.2 11-14s-4.7-12.44-11-14z" style="fill:#aaaaac"/>
   <path d="m18.999 10v12c2.12-1.16 3.582-3.4 3.582-6s-1.442-4.84-3.582-6z" style="fill:#aaaaac"/>
   <path d="m14.998 2-7.998 8.002h-6v1h6l7.998-8.002z" style="fill:#dfdfdf;opacity:.2"/>
   <path d="m18.998 2v1c6.144 1.5213 10.753 6.9266 10.979 13.5 5e-3 -0.167 0.021-0.331 0.021-0.5 0-6.8-4.7-12.44-11-14zm7.981 14.5c-0.211 4.922-3.493 9.068-7.981 10.5v1c4.64-1.48 8-5.86 8-11 0-0.168-0.012-0.334-0.019-0.5z" style="fill:#dfdfdf;opacity:.2"/>
   <path d="m18.998 10v1c2 1.084 3.374 3.117 3.547 5.5 0.012-0.167 0.035-0.33 0.035-0.5 0-2.6-1.442-4.84-3.582-6z" style="fill:#dfdfdf;opacity:.2"/>
   <path d="m1 22.002v1h6l7.998 7.998v-1l-7.998-7.998z" style="opacity:.2"/>
   <path d="m18.998 5v1c4.4882 1.4316 7.77 5.5785 7.9805 10.5 0.0071-0.16646 0.01953-0.33183 0.01953-0.5 0-5.14-3.36-9.52-8-11zm10.979 11.5c-0.226 6.573-4.835 11.979-10.979 13.5v1c6.3-1.56 11-7.2 11-14 0-0.16868-0.01575-0.33279-0.02148-0.5z" style="opacity:.2"/>
   <path d="m22.545 16.5c-0.17529 2.3834-1.5653 4.4158-3.5469 5.5v1c2.12-1.16 3.582-3.4 3.582-6 0-0.16981-0.02306-0.33346-0.03516-0.5z" style="opacity:.2"/>
  </g>
 </g>
</svg>
