<svg width="32" height="32" version="1" xmlns="http://www.w3.org/2000/svg">
 <g id="22-22-cantata" transform="translate(32,10)">
  <rect width="22" height="22" rx=".58200002" ry=".68800002" style="opacity:.00100002"/>
  <path d="m10.810547 2.9806386a8 8 0 0 0-7.8105475 8.0429694 8.0000005 8.0000005 0 0 0 16 0 8 8 0 0 0-8.189453-8.0429694zm0.189453 1.998047c3.308423 0 6 2.6915771 6 6.0000004 0 3.308422-2.691577 5.999998-6 5.999998-3.3084235 0-6.0000005-2.691576-6.0000005-5.999998 0-3.3084233 2.691577-6.0000004 6.0000005-6.0000004zm0.400391 0.9999999c-0.4 0-0.400391 0.4179688-0.400391 0.4179688v4.7890627c-0.384502-0.136042-0.670523-0.206361-1.0996095-0.207031-1.546397 0-2.900391 0.89543-2.900391 1.999998 0 1.10457 1.453603 2 3 2 1.5463985 0 3.0000015-0.89543 3.0000015-2v-4.9999985s2.26729 1.1586675 1.324218 2.0234385c-0.259008 0.14857-0.344328 0.378196-0.298828 0.578125 0.06909 0.303608 0.439979 0.538683 0.953125 0.320312 0.771015-0.401989 1.021484-1.1226568 1.021484-1.7226567 0-1.8-2.999608-3.1992188-4.599609-3.1992188z" style="fill:#aaaaac"/>
 </g>
 <g id="cantata">
  <rect width="32" height="32" style="opacity:.00100002"/>
  <g>
   <path d="m29.999781 17.078316a14 14 0 1 0-27.999562 0 14 14 0 0 0 27.999562 0" style="opacity:.2"/>
   <path d="m29.999781 16.078318a14 14 0 1 0-27.999562 0 14 14 0 0 0 27.999562 0" style="fill:#4f4f4f"/>
   <path d="m6.0000001 16.999998c0 5.514038 4.4859619 10 10.000001 10 5.514038 0 9.999999-4.485962 9.999999-10s-4.485961-10-9.999999-10c-5.514039 0-10.000001 4.4859624-10.000001 10z" style="opacity:.2"/>
   <path d="m6.0000001 16c0 5.514038 4.4859619 10 10.000001 10 5.514038 0 9.999999-4.485962 9.999999-10s-4.485961-10-9.999999-10c-5.514039 0-10.000001 4.4859621-10.000001 10z" style="fill:#ffffff"/>
   <path d="m16 8.7330011v7.6309979c-0.67288-0.238074-1.349099-0.362828-2.1-0.364-2.706195 0-4.9 1.567003-4.9 3.5s2.193805 3.5 4.9 3.5 5.1-1.567003 5.1-3.5v-8.499999s1.40919 1.216259 1.8845 2.477607c0.242945 0.644713 0.242226 1.301205-0.316004 1.813085-0.453263 0.259997-0.60189 0.661842-0.522265 1.011717 0.120915 0.531315 0.767227 0.944064 1.665234 0.561915 1.349275-0.703481 1.788035-1.964648 1.788035-3.014649 0-3.15-3.9995-5.8499995-6.7995-5.8499995-0.7 0-0.7 0.7333256-0.7 0.7333256z" style="fill:#366adb"/>
   <path d="M 15.669922,2.0039062 A 14,14 0 0 0 2,16.078125 14,14 0 0 0 2.015625,16.339844 14,14 0 0 1 29.980469,16.626953 14,14 0 0 0 30,16.078125 14,14 0 0 0 15.669922,2.0039062 Z" style="fill:#ffffff;opacity:.1"/>
  </g>
 </g>
</svg>
