<svg width="32" height="32" version="1.1" viewBox="0 0 32 32" xmlns="http://www.w3.org/2000/svg">
 <g id="22-22-choqok" transform="translate(32,10)">
  <rect width="22" height="22" style="opacity:.00100002"/>
  <path d="m11 3-0.761719 1-0.83789-0.5-0.566407 1.2265625c-1.754818 0.3611-2.9958676 1.2082281-4.0234371 2.5488285-1.7973067 2.3449-1.8105469 6.392034-1.8105469 8.677734s4.190476 3.046875 8 3.046875 8-0.761175 8-3.046875-0.01325-6.332834-1.810547-8.677734c-1.02757-1.3406004-2.268618-2.1877285-4.023437-2.5488285l-0.566407-1.2265625-0.83789 0.5zm3.5 7a1.5 1.5 0 0 1 1.5 1.5 1.5 1.5 0 0 1-1.5 1.5 1.5 1.5 0 0 1-1.5-1.5 1.5 1.5 0 0 1 1.5-1.5zm-7 1a1.5 1.5 0 0 1 1.5 1.5 1.5 1.5 0 0 1-0.087891 0.5 1.5 1.5 0 0 0-1.412109-1 1.5 1.5 0 0 0-1.4121094 1 1.5 1.5 0 0 1-0.0878906-0.5 1.5 1.5 0 0 1 1.5-1.5zm6.5 0v1h1v-1zm-3 2c0.07658 1e-3 0.15085 0.03466 0.205078 0.09766l1.701172 1.738278c0.182041 0.210098 0.085661 1.163962-0.171875 1.164062h-3.46875c-0.257539-1e-4 -0.353916-0.953964-0.171875-1.164062l1.701172-1.738282c0.054227-0.063 0.128493-0.097556 0.205078-0.097656z" style="fill:#aaaaac"/>
 </g>
 <g id="choqok">
  <rect width="32" height="32" style="opacity:.00100002"/>
  <g>
   <path d="M 16,2.5 14.666667,4.1 13,3.5 12.208333,5.0209 C 9.1374002,5.6528 6.9675199,7.137 5.1692733,9.4831 2.0239867,13.5866 2,20.6667 2,24.6667 2,28.6666 9.333333,30 16,30 c 6.666667,0 14,-1.3334 14,-5.3333 0,-4 -0.024,-11.0801 -3.169273,-15.1836 C 25.03248,7.1369 22.8626,5.6528 19.791667,5.0208 L 19,3.5 17.333333,4.1 Z" style="opacity:.2"/>
   <path d="M 16,1.5 14.666667,3.1 13,2.5 12.208333,4.0209 C 9.1374002,4.6528 6.9675199,6.137 5.1692733,8.4831 2.0239867,12.5866 2,19.6667 2,23.6667 2,27.6666 9.333333,29 16,29 c 6.666667,0 14,-1.3334 14,-5.3333 0,-4 -0.024,-11.0801 -3.169273,-15.1836 C 25.03248,6.1369 22.8626,4.6528 19.791667,4.0208 L 19,2.5 17.333333,3.1 Z" style="fill:#81b427"/>
   <path d="M 12.694481,23.0884 C 13.376456,24.2696 14.636057,24.998 16,25 c 1.363943,0 2.623544,-0.7304 3.305519,-1.9116 H 16 Z" style="fill:#86572f"/>
   <path d="m16.000001 20c-0.15317 1e-4 -0.301029 0.058-0.409484 0.1621l-3.402434 2.897c-0.364082 0.35-0.172602 1.3851 0.342477 1.3854l3.469441 0.5555 3.46944-0.5555c0.515073-3e-4 0.70656-1.0354 0.342477-1.3854l-3.402435-2.897c-0.108455-0.1043-0.256313-0.162-0.409482-0.1621z" style="opacity:.2"/>
   <path d="m16.000001 19c-0.15317 1e-4 -0.301029 0.058-0.409484 0.1621l-3.402434 2.897c-0.364082 0.35-0.172602 1.3851 0.342477 1.3854l3.469441 0.5555 3.46944-0.5555c0.515073-3e-4 0.70656-1.0354 0.342477-1.3854l-3.402435-2.897c-0.108455-0.1043-0.256313-0.162-0.409482-0.1621z" style="fill:#ffc12e"/>
   <path d="m16 19c-0.15317 1e-4 -0.301701 0.05801-0.410156 0.162109l-3.402344 2.896485c-0.239509 0.230245-0.233897 0.75236-0.05859 1.085937 0.0194-0.02891 0.03433-0.06261 0.05859-0.08594l3.402344-2.896485c0.108455-0.104097 0.256986-0.162006 0.410156-0.162106 0.153169 1e-4 0.301701 0.05781 0.410156 0.162109l3.402344 2.896485c0.02427 0.02333 0.03919 0.05703 0.05859 0.08594 0.175303-0.333577 0.180916-0.855692-0.05859-1.085937l-3.402344-2.896488c-0.108455-0.1043-0.256987-0.162009-0.410156-0.162109z" style="fill:#ffffff;opacity:.2"/>
   <path d="M 16,1.5 14.666016,3.0996094 13,2.5 12.208984,4.0214844 C 9.1380516,4.6533844 6.9681685,6.1363219 5.1699219,8.4824219 2.0246353,12.585922 2,19.666016 2,23.666016 c 0,0.03998 0.012214,0.07578 0.013672,0.115234 0.014556,-4.089473 0.210742,-10.455969 3.15625,-14.2988281 1.7982466,-2.3461 3.9681297,-3.8290375 7.039062,-4.4609375 L 13,3.5 14.666016,4.0996094 16,2.5 17.333984,4.0996094 19,3.5 19.791016,5.0214844 c 3.070933,0.632 5.240815,2.1147375 7.039062,4.4609375 2.945495,3.8428591 3.141693,10.2093551 3.15625,14.2988281 C 29.987786,23.7418 30,23.705997 30,23.666016 c 0,-4 -0.02465,-11.080094 -3.169922,-15.1835941 -1.798247,-2.3462 -3.968129,-3.8289375 -7.039062,-4.4609375 L 19,2.5 17.333984,3.0996094 Z" style="fill:#ffffff;opacity:.2"/>
   <circle cx="23" cy="17" r="3" style="opacity:.2"/>
   <circle cx="23" cy="16" r="3" style="fill:#ffffff"/>
   <path d="m 9,15.000047 a 3,3 0 0 0 -3,3 A 3,3 0 0 0 6.1757812,19.002 3,3 0 0 1 9,17.000047 3,3 0 0 1 11.824219,18.998094 3,3 0 0 0 12,18.000047 a 3,3 0 0 0 -3,-3 z" style="opacity:.2"/>
   <path d="m 9,14.000047 a 3,3 0 0 0 -3,3 A 3,3 0 0 0 6.1757812,18.002 3,3 0 0 1 9,16.000047 3,3 0 0 1 11.824219,17.998094 3,3 0 0 0 12,17.000047 a 3,3 0 0 0 -3,-3 z" style="fill:#ffffff"/>
   <circle cx="23" cy="16" r="2" style="fill:#3f3f3f"/>
  </g>
 </g>
</svg>
