<svg width="32" height="32" version="1" xmlns="http://www.w3.org/2000/svg">
 <g id="16-16-computer-laptop" transform="translate(-2e-4,32)">
  <rect x="22" y="22" width="22" height="22" style="opacity:.00100002"/>
  <path d="m26 26c-1 0-1 1-1 1v9.003906c0 0.937762 0.851074 0.992431 0.960938 0.996094h14.068359c0.967071-0.021714 0.970703-0.996094 0.970703-0.996094v-9.003906s0-1-1-1zm1 2h12v6.976562l-12 0.02539zm-2 10c-0.554 0-1 0.446-1 1s0.446 1 1 1h16c0.554 0 1-0.446 1-1s-0.446-1-1-1z" style="fill:#aaaaac"/>
 </g>
 <g id="16-16-computer" transform="translate(-2e-4,32)">
  <rect y="22" width="22" height="22" style="opacity:.00100002"/>
  <path d="m4 26c-1 0-1 1.000279-1 1.000279v10.002791c0 1.000279 1 1.000279 1 1.000279h5s-1 0-1 1.000279v0.996372h6v-0.996372c0-1.000279-0.978516-1.000279-0.978516-1.000279h4.978516c1 0 1-1.000279 1-1.000279v-10.002791s0-1.000279-1-1.000279zm1 2.000558h12v7.976836l-12 0.0254z" style="fill:#aaaaac"/>
 </g>
 <g id="22-22-computer-laptop" transform="translate(-2e-4,32)">
  <rect x="22" width="22" height="22" style="opacity:.00100002"/>
  <path d="m25.125 3c-1.125 0-1.125 1.1425781-1.125 1.1425781v10.732422c0 0.857382 0.632812 1.071414 0.949219 1.125h16.058593c0.980655-0.093346 0.992188-1.125 0.992188-1.125v-10.732422s0-1.1425781-1.125-1.1425781zm0.875 2h14v8.986328l-14 0.02734zm-2 12c-0.554 0-1 0.446-1 1s0.446 1 1 1h18c0.554 0 1-0.446 1-1s-0.446-1-1-1z" style="fill:#aaaaac"/>
 </g>
 <g id="22-22-computer" transform="translate(-2e-4,32)">
  <rect width="22" height="22" style="opacity:.00100002"/>
  <path d="m3.125 2.9999998c-1.125 0-1.125 1.1431761-1.125 1.1431761v11.731336c0 1.143176 1.125 1.143176 1.125 1.143176h5.0375s-1.2001266-0.298955-1.1625 0.843601v1.138711h8v-1.138711c0-1.143176-1.050415-0.843601-1.050415-0.843601h4.925415c1.125 0 1.125-1.143176 1.125-1.143176v-11.731336s0-1.1431761-1.125-1.1431761zm0.875 2.0000002h14v9.98549l-14 0.02902z" style="fill:#aaaaac"/>
 </g>
 <g id="computer-laptop" transform="translate(-4.0002,34)">
  <rect x="36" y="-34" width="32" height="32" style="opacity:.00100002"/>
  <g transform="translate(36,-35)">
   <rect transform="matrix(0,-1,-1,0,0,0)" x="-27" y="-31" width="3" height="30" rx="1" ry="1" style="fill:#8e8e8e"/>
   <path d="m29 22.75v-15.5c0-0.6925-0.58-1.25-1.3-1.25h-23.4c-0.7202 0-1.3 0.5575-1.3 1.25v15.5c0 0.692 0.5798 1.25 1.3 1.25h23.4c0.7202 0 1.3-0.5575 1.3-1.25z" style="fill:#5f5f5f"/>
   <path d="m27 22v-14h-22v14z" style="opacity:.4"/>
   <path d="m4.3008 6c-0.7202 0-1.3008 0.5575-1.3008 1.25v1c0-0.6925 0.5806-1.25 1.3008-1.25h23.398c0.72 0 1.301 0.5575 1.301 1.25v-1c0-0.6925-0.581-1.25-1.301-1.25z" style="fill:#cfd8dc;opacity:.1"/>
   <path d="m3 22.75v1c0 0.692 0.5806 1.25 1.3008 1.25h23.398c0.72 0 1.301-0.558 1.301-1.25v-1c0 0.692-0.581 1.25-1.301 1.25h-23.398c-0.7204 0-1.301-0.558-1.301-1.25z" style="opacity:.2"/>
   <path d="m1 26v1c0 0.554 0.446 1 1 1h28c0.554 0 1-0.446 1-1v-1c0 0.554-0.446 1-1 1h-28c-0.554 0-1-0.446-1-1z" style="opacity:.2"/>
   <path d="m27 23v-1h-22v1z" style="fill:#ffffff;opacity:.1"/>
  </g>
 </g>
 <g id="computer" transform="translate(-2e-4,34)">
  <rect y="-34" width="32" height="32" style="opacity:.00100002"/>
  <g transform="translate(2e-4,-35)">
   <rect transform="matrix(0,-1,-1,0,0,0)" x="-28" y="-24" width="21" height="16" rx="1.313" ry="1.3329999" style="fill:#8e8e8e"/>
   <rect transform="matrix(0,-1,-1,0,0,0)" x="-25" y="-29" width="20" height="26" rx="1.25" ry="1.3" style="fill:#5f5f5f"/>
   <rect transform="matrix(0,-1,-1,0,0,0)" x="-23" y="-27" width="16" height="22" rx="0" ry="0" style="opacity:.4"/>
   <path d="m4.3008 5c-0.7202 0-1.3008 0.5575-1.3008 1.25v1c0-0.6925 0.5806-1.25 1.3008-1.25h23.398c0.72 0 1.301 0.5575 1.301 1.25v-1c0-0.6925-0.581-1.25-1.301-1.25z" style="fill:#cfd8dc;opacity:.1"/>
   <path d="m8 26.688v1c0 0.727 0.5953 1.312 1.334 1.312h13.332c0.739 0 1.334-0.585 1.334-1.312v-1c0 0.727-0.595 1.312-1.334 1.312h-13.332c-0.7387 0-1.334-0.585-1.334-1.312z" style="opacity:.2"/>
   <path d="m3 23.75v1c0 0.692 0.5806 1.25 1.3008 1.25h23.398c0.72 0 1.301-0.558 1.301-1.25v-1c0 0.692-0.581 1.25-1.301 1.25h-23.398c-0.7204 0-1.301-0.558-1.301-1.25z" style="opacity:.2"/>
   <rect transform="matrix(0,-1,-1,0,0,0)" x="-24" y="-27" width="1" height="22" rx="0" ry="0" style="fill:#ffffff;opacity:.1"/>
  </g>
 </g>
</svg>
