<?xml version="1.0" encoding="UTF-8"?>
<svg width="32" height="32" version="1.1" xmlns="http://www.w3.org/2000/svg">
 <g id="22-22-device-notifier">
  <rect x="32" y="10" width="22" height="22" opacity=".001"/>
  <path d="m42.98 13a0.37527 0.31579 0 0 0-0.30664 0.1582l-0.8125 1.1836-0.81055 1.1836a0.37527 0.31579 0 0 0 0.32422 0.47461h0.625v6h-3v-1.0879a1.5 1.5 0 0 0 1-1.4121 1.5 1.5 0 0 0-1.5-1.5 1.5 1.5 0 0 0-1.5 1.5 1.5 1.5 0 0 0 1 1.4121v1.5879a0.50005 0.50005 0 0 0 0.5 0.5h3.5v2.2715a2 2 0 0 0-1 1.7285 2 2 0 0 0 2 2 2 2 0 0 0 2-2 2 2 0 0 0-1-1.7305v-2.2695h3.5a0.50005 0.50005 0 0 0 0.5-0.5v-2.5h0.25c0.4155 0 0.75-0.3345 0.75-0.75v-1.5c0-0.4155-0.3345-0.75-0.75-0.75h-1.5c-0.4155 0-0.75 0.3345-0.75 0.75v1.5c0 0.4155 0.3345 0.75 0.75 0.75h0.25v2h-3v-6h0.625a0.37527 0.31579 0 0 0 0.32422-0.47461l-0.81055-1.1836-0.8125-1.1836a0.37527 0.31579 0 0 0-0.3457-0.1582z" fill="#aaaaac"/>
 </g>
 <g id="device-notifier">
  <rect width="32" height="32" opacity=".001"/>
  <circle cx="16" cy="17" r="14" opacity=".2"/>
  <circle cx="16" cy="16" r="14" fill="#8e8e8e"/>
  <path d="m15.98 9a0.37527 0.31579 0 0 0-0.30664 0.1582l-0.8125 1.1836-0.81055 1.1836a0.37527 0.31579 0 0 0 0.32422 0.47461h0.625v6h-3v-1.0879a1.5 1.5 0 0 0 1-1.4121 1.5 1.5 0 0 0-1.5-1.5 1.5 1.5 0 0 0-1.5 1.5 1.5 1.5 0 0 0 1 1.4121v1.5879a0.50005 0.50005 0 0 0 0.5 0.5h3.5v2.2715a2 2 0 0 0-1 1.7285 2 2 0 0 0 2 2 2 2 0 0 0 2-2 2 2 0 0 0-1-1.7305v-2.2695h3.5a0.50005 0.50005 0 0 0 0.5-0.5v-2.5h0.25c0.4155 0 0.75-0.3345 0.75-0.75v-1.5c0-0.4155-0.3345-0.75-0.75-0.75h-1.5c-0.4155 0-0.75 0.3345-0.75 0.75v1.5c0 0.4155 0.3345 0.75 0.75 0.75h0.25v2h-3v-6h0.625a0.37527 0.31579 0 0 0 0.32422-0.47461l-0.81055-1.1836-0.8125-1.1836a0.37527 0.31579 0 0 0-0.3457-0.1582z" opacity=".2"/>
  <path d="m15.98 8a0.37527 0.31579 0 0 0-0.30664 0.1582l-0.8125 1.1836-0.81055 1.1836a0.37527 0.31579 0 0 0 0.32422 0.47461h0.625v6h-3v-1.0879a1.5 1.5 0 0 0 1-1.4121 1.5 1.5 0 0 0-1.5-1.5 1.5 1.5 0 0 0-1.5 1.5 1.5 1.5 0 0 0 1 1.4121v1.5879a0.50005 0.50005 0 0 0 0.5 0.5h3.5v2.2715a2 2 0 0 0-1 1.7285 2 2 0 0 0 2 2 2 2 0 0 0 2-2 2 2 0 0 0-1-1.7305v-2.2695h3.5a0.50005 0.50005 0 0 0 0.5-0.5v-2.5h0.25c0.4155 0 0.75-0.3345 0.75-0.75v-1.5c0-0.4155-0.3345-0.75-0.75-0.75h-1.5c-0.4155 0-0.75 0.3345-0.75 0.75v1.5c0 0.4155 0.3345 0.75 0.75 0.75h0.25v2h-3v-6h0.625a0.37527 0.31579 0 0 0 0.32422-0.47461l-0.81055-1.1836-0.8125-1.1836a0.37527 0.31579 0 0 0-0.3457-0.1582z" fill="#fff"/>
  <path d="M 16,2 A 14,14 0 0 0 2,16 14,14 0 0 0 2.0214844,16.585938 14,14 0 0 1 16,3 14,14 0 0 1 29.978516,16.414062 14,14 0 0 0 30,16 14,14 0 0 0 16,2 Z" fill="#fff" opacity=".2"/>
 </g>
</svg>
