<svg id="svg" width="32" height="32" version="1.1" viewBox="0 0 32 32" xmlns="http://www.w3.org/2000/svg">
 <g id="22-22-device-notifier" transform="translate(32,10)">
  <rect width="22" height="22" style="opacity:.00100002"/>
  <path d="m6 3c-1.108 0-2 0.892-2 2v12c0 1.108 0.892 2 2 2h10c1.108 0 2-0.892 2-2v-12c0-1.108-0.892-2-2-2zm5 3 4 5h-8zm-4 6h8v2h-8z" style="fill:#aaaaac"/>
 </g>
 <g id="device-notifier">
  <rect width="32" height="32" style="opacity:.00100002"/>
  <g>
   <rect transform="matrix(0,-1,-1,0,0,0)" x="-31" y="-27" width="28" height="22" rx="2" ry="2" style="opacity:.2"/>
   <rect transform="matrix(0,-1,-1,0,0,0)" x="-30" y="-27" width="28" height="22" rx="2" ry="2" style="fill:#8e8e8e"/>
   <path d="m11 16h10v2h-10zm5-8 5 6h-10z" style="opacity:.5"/>
   <path d="m7 2c-1.108 0-2 0.892-2 2v1c0-1.108 0.892-2 2-2h18c1.108 0 2 0.892 2 2v-1c0-1.108-0.892-2-2-2z" style="fill:#ffffff;opacity:.2"/>
  </g>
 </g>
</svg>
