<svg width="32" height="32" style="enable-background:new" version="1.1" xmlns="http://www.w3.org/2000/svg">
 <g id="16-16-document-encrypt" transform="translate(-350,248)" style="enable-background:new">
  <rect x="350" y="-286" width="16" height="16" style="fill:#ff7dff;opacity:.00100002"/>
  <path d="m357.99759-285.00336c-2.216 0-4 1.82162-4 4.0625v1.9375h-1c-0.554 0-1 0.446-1 1v6c0 0.554 0.446 1 1 1h10c0.554 0 1-0.446 1-1v-6c0-0.554-0.446-1-1-1h-1v-1.9375c0-2.24-1.784-4.0625-4-4.0625zm0 2c1.108 0 2 0.892 2 2v2h-4v-2c0-1.108 0.892-2 2-2z" style="fill:#aaaaac"/>
 </g>
 <g id="16-16-document-decrypt" transform="translate(-354,248)" style="enable-background:new">
  <rect x="370" y="-286" width="16" height="16" style="fill:#ff7dff;opacity:.00100002"/>
  <path d="m377.99759-286.00336c-2.19497 0-3.96658 1.78839-4 4v1h2v-1c0-1.108 0.892-2 2-2s2 0.892 2 2v4h-7c-0.554 0-1 0.446-1 1v6c0 0.554 0.446 1 1 1h10c0.554 0 1-0.446 1-1v-6c0-0.554-0.446-1-1-1h-1v-3.9375c0-2.24-1.784-4.0625-4-4.0625z" style="fill:#aaaaac"/>
 </g>
 <g id="22-22-document-open-recent" transform="translate(-351,243)" style="enable-background:new">
  <rect x="383" y="-233" width="22" height="22" style="fill-opacity:.40392157;fill:#2b0000;opacity:.00100002"/>
  <path d="m393.99759-231.00336a9 9 0 0 0-9 9 9 9 0 0 0 9 9 9 9 0 0 0 9-9 9 9 0 0 0-9-9zm0 3a6 6 0 0 1 6 6 6 6 0 0 1-6 6 6 6 0 0 1-6-6 6 6 0 0 1 6-6zm-1 1v6h0.082v0.0117l3.45312 3.45313 1.41407-1.41407-2.94922-2.95117v-5.09961h-2z" style="fill:#aaaaac"/>
 </g>
 <g id="document-encrypt" transform="translate(-347,235)" style="enable-background:new">
  <rect x="347" y="-257" width="22" height="22" style="fill-opacity:.40392157;fill:#2b0000;opacity:.00100002"/>
  <path d="m357.99758-254.00336c-5.00262-3e-3 -4.99999 4.64286-4.99999 4.64286v2.35714h-0.83333c-0.64633 0-1.16667 0.36686-1.16667 1v6.85714c0 0.63315 0.52034 1.14286 1.16667 1.14286h11.66666c0.64633 0 1.16667-0.50971 1.16667-1.14286v-6.85714c0-0.63314-0.52963-0.89079-1.16667-1h-0.83333v-2.35714s3e-3 -4.6395-5.00001-4.64286zm0 3c2.00262-3e-3 2.00001 1.57143 2.00001 1.57143v2.42857h-4v-2.42857s3e-3 -1.56807 1.99999-1.57143z" style="fill:#aaaaac"/>
 </g>
 <g id="document-decrypt" transform="translate(-347,235)" style="enable-background:new">
  <rect x="369" y="-257" width="22" height="22" style="fill-opacity:.40392157;fill:#2b0000;opacity:.00100002"/>
  <path transform="translate(346.99759,-257.00336)" d="m33 3c-3.896664-0.00234-4.7419 2.7538008-4.931641 4h3.074219c0.197136-0.4491044 0.673565-0.9980081 1.857422-1 2.00262-3e-3 2 1.5722656 2 1.5722656v2.4277344h-7.833984c-0.64633 0-1.166016 0.36686-1.166016 1v6.857422c0 0.63315 0.519686 1.142578 1.166016 1.142578h11.667968c0.64633 0 1.166016-0.509428 1.166016-1.142578v-6.857422c0-0.63314-0.528976-0.89079-1.166016-1h-0.833984v-2.3574219s3e-3 -4.6392181-5-4.6425781z" style="fill:#aaaaac"/>
 </g>
 <g id="document-open-recent" transform="translate(-394,267)" style="enable-background:new">
  <rect x="394" y="-267" width="32" height="32" style="fill-opacity:.40392157;fill:#2b0000;opacity:.00100002"/>
  <path d="m409.99759-265.00336c-3.58291 0-7.16672 1.36594-9.90039 4.09961-5.46734 5.46734-5.46734 14.33345 0 19.80078 5.46732 5.46734 14.33344 5.46734 19.80078 0s5.46734-14.33345 0-19.80078c-2.73367-2.73367-6.31748-4.09961-9.90039-4.09961zm-0.14648 4.00195a10 10 0 0 1 7.21679 2.92774 10 10 0 0 1 0 14.14062 10 10 0 0 1-14.14062 0 10 10 0 0 1 0-14.14062 10 10 0 0 1 6.92383-2.92774zm-1.85352 1.99805v8.82813l3.41406 3.41406 1.22852 1.23047 0.18554 0.18359 1.41407-1.41406 1.41406-1.41406-0.1875-0.1875-1.22656-1.22657-2.24219-2.24218v-7.17188z" style="fill:#aaaaac"/>
 </g>
</svg>
