<svg width="32" height="32" style="enable-background:new" version="1.1" xmlns="http://www.w3.org/2000/svg">
 <g id="22-22-edit-delete" transform="translate(32,10)">
  <rect width="22" height="22" style="opacity:.00100002"/>
  <path d="m16.65685 5.34315a8 8 0 0 0-11.3137 0 8 8 0 0 0 0 11.3137 8 8 0 0 0 11.3137 0 8 8 0 0 0 0-11.3137zm-1.22362 3.34494a5 5 0 0 1-0.8977 5.84744 5 5 0 0 1-5.84329 0.89355zm-2.12547-2.11717-6.74099 6.74099a5 5 0 0 1 0.8977-5.84744 5 5 0 0 1 5.84329-0.89355z" style="fill:#aaaaac"/>
 </g>
 <g id="edit-delete">
  <rect width="32" height="32" rx="2.3759999" ry="2.0869999" style="opacity:.00100002"/>
  <g>
   <circle cx="16" cy="17" r="14" style="opacity:.2"/>
   <circle cx="16" cy="16" r="14" style="fill:#c2352a"/>
   <path d="M 16,7 A 10,10 0 0 0 6,17 10,10 0 0 0 7.6621094,22.507812 L 21.507812,8.6621094 A 10,10 0 0 0 16,7 Z m 8.337891,4.492188 -13.845703,13.845703 A 10,10 0 0 0 16,27 10,10 0 0 0 26,17 10,10 0 0 0 24.337891,11.492188 Z" style="opacity:.2"/>
   <path d="M 16,6 A 10,10 0 0 0 6,16 10,10 0 0 0 7.6621094,21.507812 L 21.507812,7.6621094 A 10,10 0 0 0 16,6 Z m 8.337891,4.492188 -13.845703,13.845703 A 10,10 0 0 0 16,26 10,10 0 0 0 26,16 10,10 0 0 0 24.337891,10.492188 Z" style="fill:#ffffff"/>
   <path d="M 16,2 A 14,14 0 0 0 2,16 14,14 0 0 0 2.0214844,16.585938 14,14 0 0 1 16,3 14,14 0 0 1 29.978516,16.414062 14,14 0 0 0 30,16 14,14 0 0 0 16,2 Z" style="fill:#ffffff;opacity:.2"/>
  </g>
 </g>
</svg>
