<?xml version="1.0" encoding="UTF-8"?>
<svg width="32" height="32" version="1.1" xmlns="http://www.w3.org/2000/svg">
 <g id="22-22-elisa" transform="translate(27,5)">
  <rect x="5" y="5" width="22" height="22" opacity=".001"/>
  <path d="m7.5605 8c-0.86456 0-1.5605 0.74196-1.5605 1.6641v12.672c0 0.8957 0.6584 1.6153 1.4883 1.6562l2.0742-3.7344a0.50005 0.50005 0 0 1 0.4375-0.25781h-1.1973c-0.44479 0-0.80273-0.40556-0.80273-0.91016v-8.123c0-0.5362 0.35795-0.9668 0.80273-0.9668h14.395c0.44479 0 0.80273 0.4306 0.80273 0.9668v8.123c0 0.5046-0.35795 0.91016-0.80273 0.91016h-1.1973a0.50005 0.50005 0 0 1 0.4375 0.25781l2.0742 3.7344c0.82988-0.040959 1.4883-0.76055 1.4883-1.6562v-12.672c0-0.9221-0.69599-1.6641-1.5605-1.6641zm4.3496 6c-1.0575 0-1.9102 0.89175-1.9102 1.998v0.0098c0 1.1063 0.85268 1.9961 1.9102 1.9961h8.1797c1.0575-7e-5 1.9102-0.88983 1.9102-1.9961v-0.0098c0-1.1063-0.85268-1.998-1.9102-1.998zm0.089844 1c0.55228 0 1 0.44773 1 1s-0.44772 1-1 1-1-0.44773-1-1 0.44772-1 1-1zm2 0h4v2h-4zm6 0c0.55228 0 1 0.44773 1 1s-0.44772 1-1 1-1-0.44773-1-1 0.44772-1 1-1zm-9.7051 6-1.668 3h14.746l-1.668-3zm0.45508 1a0.75 0.75 0 0 1 0.75 0.75 0.75 0.75 0 0 1-0.75 0.75 0.75 0.75 0 0 1-0.75-0.75 0.75 0.75 0 0 1 0.75-0.75zm10.5 0a0.75 0.75 0 0 1 0.75 0.75 0.75 0.75 0 0 1-0.75 0.75 0.75 0.75 0 0 1-0.75-0.75 0.75 0.75 0 0 1 0.75-0.75z" fill="#aaaaac"/>
  <path d="m14 15v2h1.8256c0.11465-0.321 0.17377-0.6592 0.1748-1-1e-3 -0.3408-0.06015-0.679-0.1748-1z" fill="#aaaaac" opacity=".3"/>
 </g>
 <g id="elisa">
  <rect width="32" height="32" opacity=".001"/>
  <g transform="translate(0 -1090.5)">
   <path d="m3.341 1094.5c-1.2968 0-2.341 1.1149-2.341 2.4981v19.004c0 1.3833 1.0441 2.4982 2.341 2.4982h25.318c1.2968 0 2.341-1.1149 2.341-2.4982v-19.004c0-1.3832-1.0441-2.4981-2.341-2.4981zm6.2305 8.8235a3.2143 3.1765 0 0 1 3.2143 3.1765 3.2143 3.1765 0 0 1-3.2143 3.1764 3.2143 3.1765 0 0 1-3.2143-3.1764 3.2143 3.1765 0 0 1 3.2143-3.1765zm12.857 0a3.2143 3.1765 0 0 1 3.2143 3.1765 3.2143 3.1765 0 0 1-3.2143 3.1764 3.2143 3.1765 0 0 1-3.2143-3.1764 3.2143 3.1765 0 0 1 3.2143-3.1765z" fill="#3f3f3f"/>
   <path d="m4 1118.5 2.8235-5h18.353l2.8235 5z" fill="#4f4f4f"/>
   <circle cx="9.5" cy="1116" r="1.5" opacity=".4"/>
   <path transform="translate(0 1090.5)" d="m5.2031 7c-0.66718 0-1.2031 0.64687-1.2031 1.4512v4.5488h24v-4.5488c0-0.8043-0.53594-1.4512-1.2031-1.4512z" fill="#e4e4e4"/>
   <path transform="translate(0 1090.5)" d="m4 13v7.6348c0 0.757 0.53594 1.3652 1.2031 1.3652h21.594c0.66718 0 1.2031-0.60823 1.2031-1.3652v-7.6348zm6 0.5a2.5 2.5 0 0 1 2.5 2.5 2.5 2.5 0 0 1-2.5 2.5 2.5 2.5 0 0 1-2.5-2.5 2.5 2.5 0 0 1 2.5-2.5zm12 0a2.5 2.5 0 0 1 2.5 2.5 2.5 2.5 0 0 1-2.5 2.5 2.5 2.5 0 0 1-2.5-2.5 2.5 2.5 0 0 1 2.5-2.5z" fill="#1eb259"/>
   <path transform="translate(0 1090.5)" d="m10 13a3 3 0 0 0-3 3 3 3 0 0 0 3 3h12a3 3 0 0 0 3-3 3 3 0 0 0-3-3zm0 1a2 2 0 0 1 2 2 2 2 0 0 1-2 2 2 2 0 0 1-2-2 2 2 0 0 1 2-2zm12 0a2 2 0 0 1 2 2 2 2 0 0 1-2 2 2 2 0 0 1-2-2 2 2 0 0 1 2-2z" fill="#3f3f3f"/>
   <rect x="13" y="1104.5" width="6" height="4" fill="#ccc"/>
   <circle cx="22.5" cy="1116" r="1.5" opacity=".4"/>
   <path transform="translate(0 1090.5)" d="m13 14v4h2.6484a6 6 0 0 0 0.35156-2 6 6 0 0 0-0.34961-2z" fill="#874f29"/>
   <rect x="13" y="1104.5" width="6" height="1" opacity=".2"/>
   <path transform="translate(0 1090.5)" d="m4 20.635v1c0 0.757 0.53594 1.3652 1.2031 1.3652h21.594c0.66718 0 1.2031-0.60823 1.2031-1.3652v-1c0 0.757-0.53594 1.3652-1.2031 1.3652h-21.594c-0.66718 0-1.2031-0.60823-1.2031-1.3652z" opacity=".2"/>
   <path transform="translate(0 1090.5)" d="m6.8242 23-2.8242 5h0.56445l2.2598-4h18.352l2.2598 4h0.56445l-2.8242-5z" fill="#fff" opacity=".1"/>
   <path transform="translate(0 1090.5)" d="m1 25.502v1c0 1.3833 1.045 2.498 2.3418 2.498h25.316c1.2968 0 2.3418-1.1147 2.3418-2.498v-1c0 1.3833-1.045 2.498-2.3418 2.498h-25.316c-1.2968 0-2.3418-1.1147-2.3418-2.498z" opacity=".2"/>
   <path transform="translate(0 1090.5)" d="m3.3418 4c-1.2968 0-2.3418 1.1148-2.3418 2.498v1c0-1.3832 1.045-2.498 2.3418-2.498h25.316c1.2968 0 2.3418 1.1148 2.3418 2.498v-1c0-1.3832-1.045-2.498-2.3418-2.498z" fill="#fff" opacity=".1"/>
   <path transform="translate(0 1090.5)" d="M 10,14 A 2,2 0 0 0 8,16 2,2 0 0 0 8.0644531,16.496094 2,2 0 0 1 10,15 2,2 0 0 1 11.935547,16.503906 2,2 0 0 0 12,16 2,2 0 0 0 10,14 Z m 12,0 a 2,2 0 0 0 -2,2 2,2 0 0 0 0.06445,0.496094 A 2,2 0 0 1 22,15 2,2 0 0 1 23.935547,16.503906 2,2 0 0 0 24,16 2,2 0 0 0 22,14 Z" opacity=".2"/>
  </g>
 </g>
</svg>
