<svg width="32" height="32" version="1.1" xmlns="http://www.w3.org/2000/svg">
 <g id="22-22-face-laughing" transform="translate(32,10)">
  <rect width="22" height="22" style="opacity:.00100002"/>
  <path d="m11 3a8 8 0 0 0-8 8 8 8 0 0 0 8 8 8 8 0 0 0 8-8 8 8 0 0 0-8-8zm-3 4a2 2 0 0 1 2 2 2 2 0 0 1-2 2 2 2 0 0 1-2-2 2 2 0 0 1 2-2zm6 0a2 2 0 0 1 2 2 2 2 0 0 1-2 2 2 2 0 0 1-2-2 2 2 0 0 1 2-2zm-7.0625 4.986328a1.0001 1.0001 0 0 1 0.099609 0 1.0001 1.0001 0 0 1 0.953125 0.867188s0.075177 0.506001 0.4785156 1.050781c0.4033391 0.54478 1.0334322 1.095703 2.5312504 1.095703 1.497818 0 2.127911-0.550923 2.53125-1.095703 0.403336-0.544781 0.478516-1.050781 0.478516-1.050781a1.00101 1.00101 0 1 1 1.980468 0.292968s-0.144347 0.994-0.851562 1.949219c-0.707215 0.95522-2.078706 1.904297-4.138672 1.904297-2.0599659 0-3.4314566-0.949077-4.1386719-1.904297s-0.8515625-1.949219-0.8515625-1.949219a1.0001 1.0001 0 0 1 0.9277344-1.160156z" style="fill:#aaaaac"/>
 </g>
 <g id="face-laughing">
  <rect width="32" height="32" style="opacity:.00100002"/>
  <g transform="translate(-4e-4)">
   <rect transform="matrix(0,-1,-1,0,0,0)" x="-30" y="-30" width="28" height="28" rx="14" ry="14" style="fill:#fecd38"/>
   <path d="m16 2c-7.756 0-14 6.244-14 14 0 0.169 0.0195 0.333 0.0254 0.5 0.2637-7.5206 6.3874-13.5 13.975-13.5 7.5872 0 13.711 5.9794 13.975 13.5 6e-3 -0.16736 0.0254-0.33116 0.0254-0.5 0-7.756-6.244-14-14-14z" style="fill:#ffffff;opacity:.1"/>
   <g transform="matrix(.7 0 0 .7 -37.937 2.2578)" style="fill:#3f3f3f">
    <circle cx="69.910004" cy="12.489" r="2.8570001"/>
    <circle cx="84.195999" cy="12.489" r="2.8570001"/>
    <path d="m69.444 24.355a8.7947 10.554 0 0 0 7.6094 5.2768 8.7947 10.554 0 0 0 7.6026-5.2768h-1.0684a8.7947 10.554 0 0 1-6.5342 3.5179 8.7947 10.554 0 0 1-6.5376-3.5179z"/>
   </g>
   <path d="m2.0254 16.5c-0.0059 0.167-0.0254 0.331-0.0254 0.5 0 7.756 6.244 14 14 14s14-6.244 14-14c0-0.16884-0.01952-0.33264-0.02539-0.5-0.264 7.521-6.388 13.5-13.975 13.5-7.5872 0-13.711-5.979-13.975-13.5z" style="opacity:.2"/>
  </g>
 </g>
</svg>
