<svg id="svg" width="32" height="32" version="1.1" viewBox="0 0 32 32" xmlns="http://www.w3.org/2000/svg">
 <g id="22-22-input-touchpad-on" transform="translate(-393.0002,239.00336)" style="enable-background:new;filter:url(#filter7554)">
  <path d="m425.0002-165.00336h22v22h-22z" style="opacity:.00100002"/>
  <path d="m428.19942-162.00336c-1.2 0-1.19922 1.23047-1.19922 1.23047v13.53906s-7.8e-4 1.23047 1.19922 1.23047h15.60156s1.19922 3e-4 1.19922-1.23047v-13.53906c0-1.23077-1.19922-1.23047-1.19922-1.23047zm12.80078 2h2v1h-2zm0 2h2v1h-2zm0 2h2v1h-2zm0 2h2v1h-2zm-12 3h6v3h-6zm8 0h6v3h-6z" style="fill:#aaaaac"/>
 </g>
 <g id="22-22-input-touchpad-off" transform="translate(-415.0002,207.00336)" style="enable-background:new;filter:url(#filter7554)">
  <path d="m447.0002-165.00336h22v22h-22z" style="opacity:.00100002"/>
  <path d="m450.19942-162.00336c-1.2 0-1.19922 1.23047-1.19922 1.23047v13.53906s-7.8e-4 1.23047 1.19922 1.23047h15.60156s1.19922 3e-4 1.19922-1.23047v-13.53906c0-1.23077-1.19922-1.23047-1.19922-1.23047zm12.80078 2h2v1h-2zm0 2h2v1h-2zm0 2h2v1h-2zm0 2h2v1h-2zm-12 3h6v3h-6zm8 0h6v3h-6z" style="fill:#ffffff;opacity:.25"/>
 </g>
 <g id="22-22-input-mouse-battery" transform="translate(224,-22)">
  <rect width="22" height="22" style="fill:#0000ff;opacity:.00100002"/>
  <path d="m10 3c-2.8108099 0.2515385-5 2.6018325-5 5.484375v0.5h5zm1 0v5.984375h5v-0.5c0-2.8825425-2.18919-5.2328365-5-5.484375zm-6 6.9863281v3.5058599c0 3.05147 2.4530001 5.507812 5.5 5.507812 3.047 0 5.5-2.456342 5.5-5.507812v-3.5058599h-6zm6 1.0136719v3h2l-3 4v-3h-2z" style="fill:#aaaaac"/>
 </g>
 <g id="22-22-input-keyboard-battery" transform="translate(192,-22)">
  <rect width="22" height="22" style="fill:#0000ff;opacity:.00100002"/>
  <path d="m5 4.9999998c-1.108 0-2 0.892-2 2.0000001v8.0000001c0 1.108 0.892 2 2 2h12c1.108 0 2-0.892 2-2v-8.0000001c0-1.1080001-0.892-2.0000001-2-2.0000001zm-1 2.0000001h2v2h-2zm3 0h2v2h-2zm3 0h2v2h-2zm3 0h2v2h-2zm3 0h2v2h-2v3.0000001h2l-3 4v-3h-2l3-4.0000001zm-12 3h2v2.0000001h-2zm3 0h2v2.0000001h-2zm3 0h2v2.0000001h-2zm-5 3.0000001h7v2h-7z" style="fill:#aaaaac"/>
 </g>
 <g id="22-22-input-keyboard-virtual-off">
  <rect x="160" y="-22" width="22" height="22" style="opacity:.00100002"/>
  <g>
   <path d="m165-17c-1.108 0-2 0.892-2 2v8c0 1.108 0.892 2 2 2h7.00781a5 5 0 0 1-0.90234-2h-6.10547v-2h6.10156a5 5 0 0 1 0.31836-1h-1.41992v-2h2v1.009766a5 5 0 0 1 1-1.001954v-0.007812h0.01a5 5 0 0 1 2.99-1v-2h2v2h-2a5 5 0 0 1 3 1.007812v-3.007812c0-1.108-0.892-2-2-2zm-1 2h2v2h-2zm3 0h2v2h-2zm3 0h2v2h-2zm3 0h2v2h-2zm-9 3h2v2h-2zm3 0h2v2h-2z" style="fill:#ffffff;opacity:.25"/>
   <path d="m176-12c-2.2091 0-4 1.7909-4 4s1.7909 4 4 4 4-1.7909 4-4-1.7909-4-4-4zm-1.64258 1.632812-4e-3 0.01367 1.64648 1.6464848 1.64648-1.6464848 0.70704 0.7070316-1.64639 1.6464864 1.64649 1.6464844-0.70704 0.7070312-1.64257-1.6601562-1.64649 1.6464844-0.70703-0.7070313 1.64649-1.6464844-1.64649-1.6464843z" style="fill:#aaaaac"/>
  </g>
 </g>
 <g id="22-22-input-keyboard-virtual-on">
  <rect x="128" y="-22" width="22" height="22" style="opacity:.00100002"/>
  <path d="m133-17c-1.108 0-2 0.892-2 2v8c0 1.108 0.892 2 2 2h8.77148c-0.18402-0.2205141-0.36641-0.4364742-0.5625-0.6933594-0.31598-0.3746643-0.57904-0.6734087-0.79296-0.9746094-0.07058-0.0993678-0.14436-0.2117103-0.2129-0.3320312h-7.20312v-2h8v0.037109c0.21075-0.042375 0.38695-0.041868 0.52539-0.025391 0.36179 0.043061 0.63174 0.1432842 0.74805 0.1757812 0.36644 0.1023848 0.50078 0.2933156 0.72851 0.46875-1e-3 -0.1244683-1e-3 -0.129352-2e-3 -0.2734375-4e-3 -0.6039956-5.5e-4 -0.919825 0-1.3828127h-2v-2h2v0.900391c0-0.2-0.0323-0.505166 0.12109-0.935547 0.0767-0.215191 0.22556-0.480258 0.48633-0.677735 0.26083-0.197478 0.60077-0.287108 0.89263-0.287108h-0.5v-2h2v2h-1.5c0.29186 0 0.63182 0.08962 0.89258 0.287109 0.26077 0.19748 0.40963 0.462546 0.48633 0.677735 0.15334 0.430377 0.11914 0.735547 0.11914 0.935547 9.5e-4 0.05051-3.1e-4 0.187935 0 0.259765 0.13451 0.04671 0.27783 0.04005 0.39257 0.126953 0.2608 0.197477 0.40963 0.462544 0.48633 0.677735 0.0265 0.075487 5e-3 0.096152 0.0215 0.1640622 0.0338 0.00924 0.0675 0.016449 0.10156 0.023438v-5.1523442c0-1.108-0.892-2-2-2zm-1 2h2v2h-2zm3 0h2v2h-2zm3 0h2v2h-2zm3 0h2v2h-2zm-9 3h2v2h-2zm3 0h2v2h-2zm3 0h2v2h-2zm6.5 0c-0.49921 0-0.5 0.500391-0.5 0.900391-6e-3 0.353102-7e-3 1.3892961 0 2.4765621 0.0106 1.738042 0.0208 1.9858019 0 2.0605469-0.887-0.201593-1.23378-1.0741184-1.99609-1.2871094-0.32069-0.0896-0.9374-0.3096352-0.99805 0.027344-0.0548 0.304659 0.32409 0.7224285 0.99805 1.5234375 1.05975 1.388365 1.97658 2.2235766 2.1582 2.2753906 0.11105 0.03173 2.98851 0.03163 3.10351 0 0.0522-0.01437 0.12574-0.061689 0.17969-0.1152344 0.0756-0.07504 0.10339-0.1290718 0.16211-0.3105469 0.16811-0.5195749 0.3392-1.1117052 0.38672-1.5507812 0.0117-0.287465 3e-3 -0.5282775 0-0.7890625 0-0.515182 4e-3 -0.1206719 0-0.3105469 0-0.4-8e-4 -0.9003906-0.5-0.9003906-0.49921 0-0.49805 0.5003906-0.49805 0.9003906 8.6e-4 -0.404087 3e-3 -0.855117 0-1 0-0.4-8e-4 -0.9003906-0.5-0.9003906s-0.49804 0.5003906-0.49804 0.9003906c8.6e-4 -0.404085 3e-3 -0.855117 0-1 0-0.4-7.9e-4 -0.9003906-0.5-0.9003906-0.4992 0-0.5 0.5003906-0.5 0.9003906 1e-3 -0.219947 0-0.2746231 0-0.6894531 0-0.5151817 4e-3 -1.1206717 0-1.3105467 0-0.4 1e-3 -0.900391-0.49805-0.900391z" style="fill:#aaaaac"/>
 </g>
 <g id="22-22-input-keyboard-brightness" transform="translate(96,-22)">
  <rect width="22" height="22" style="fill:#0000ff;opacity:.00100002"/>
  <path d="m5 5c-1.108 0-2 0.892-2 2v8c0 1.108 0.892 2 2 2h12c1.108 0 2-0.892 2-2v-8c0-1.108-0.892-2-2-2zm-1 2h2v2h-2zm3 0h2v2h-2zm3 0h2v2h-2zm3 0h2v2h-2zm3 0h2v2h-2zm-12 3h2v2h-2zm3 0h2v2h-2zm3 0h2v2h-2zm5.5 0c1.380712 0 2.5 1.119288 2.5 2.5s-1.119288 2.5-2.5 2.5-2.5-1.119288-2.5-2.5 1.119288-2.5 2.5-2.5zm-0.5 1v3c0.828427 0 2 0 2-1.5s-1.171573-1.5-2-1.5zm-10 2h7v2h-7z" style="fill:#aaaaac"/>
 </g>
 <g id="22-22-input-num-on" transform="translate(32,-32)">
  <rect x="32" y="10" width="22" height="22" style="fill:#0000ff;opacity:.00100002"/>
  <path d="m37 15c-1.108 0-2 0.892-2 2v8c0 1.108 0.892 2 2 2h12c1.108 0 2-0.892 2-2v-8c0-1.108-0.892-2-2-2zm-1 2h2v2h-2zm3 0h2v2h-2zm3 0h2v2h-2zm3 0h2v2h-2zm3 0h2v2h-2zm-12 3h2v2h-2zm3 0h2v2h-2zm3 0h2v2h-2zm5 0h1v4h1v1h-3v-1h1v-2h-1v-1h1zm-10 3h7v2h-7z" style="fill:#aaaaac"/>
 </g>
 <g id="22-22-input-caps-on" transform="translate(-16,30)">
  <rect x="48" y="-52" width="22" height="22" style="fill:#0000ff;opacity:.00100002"/>
  <path d="m53-47c-1.108 0-2 0.892-2 2v8c0 1.108 0.892 2 2 2h12c1.108 0 2-0.892 2-2v-8c0-1.108-0.892-2-2-2zm-1 2h2v2h-2zm3 0h2v2h-2zm3 0h2v2h-2zm3 0h2v2h-2zm3 0h2v2h-2zm-12 3h2v2h-2zm3 0h2v2h-2zm3 0h2v2h-2zm4 0h3v1h-2v3h2v1h-3zm-9 3h7v2h-7z" style="fill:#aaaaac"/>
 </g>
 <g id="22-22-input-keyboard" transform="translate(-12,2)">
  <rect x="12" y="-24" width="22" height="22" style="fill:#0000ff;opacity:.00100002"/>
  <path d="m17-19c-1.108 0-2 0.892-2 2v8c0 1.108 0.892 2 2 2h12c1.108 0 2-0.892 2-2v-8c0-1.108-0.892-2-2-2zm-1 2h2v2h-2zm3 0h2v2h-2zm3 0h2v2h-2zm3 0h2v2h-2zm3 0h2v2h-2zm-12 3h2v2h-2zm3 0h2v2h-2zm3 0h2v2h-2zm3 0h2v2h-2zm3 0h2v2h-2zm-11 3h12v2h-12z" style="fill:#aaaaac"/>
 </g>
 <g id="input-touchpad-on" transform="translate(0,95.999999)" style="enable-background:new">
  <rect y="-32" width="32" height="32" style="opacity:.00100002"/>
  <g transform="translate(0,-32)">
   <rect transform="matrix(0,-1,-1,0,0,0)" x="-29" y="-29" width="26" height="26" rx="1.3" ry="1.3" style="fill:#c4c4c4"/>
   <path d="M 4.3008,3 C 3.5806,3 3,3.5806 3,4.3008 v 1 C 3,4.5806 3.5806,4 4.3008,4 h 23.398 c 0.72,0 1.301,0.5806 1.301,1.3008 v -1 C 28.9998,3.5806 28.4188,3 27.6988,3 Z" style="fill:#dfdfdf;opacity:.1"/>
   <g style="fill:#5d5d5d">
    <rect x="4" y="22" width="11" height="6" rx="1.222" ry="1.2"/>
    <rect x="17" y="22" width="11" height="6" rx="1.222" ry="1.2"/>
    <rect x="24" y="7" width="4" height="1"/>
    <rect x="24" y="9" width="4" height="1"/>
    <rect x="24" y="11" width="4" height="1"/>
    <rect x="24" y="13" width="4" height="1"/>
    <rect x="24" y="15" width="4" height="1"/>
    <rect x="24" y="17" width="4" height="1"/>
   </g>
   <path d="m3 27.699v1c0 0.72 0.5806 1.301 1.3008 1.301h23.398c0.72 0 1.301-0.581 1.301-1.301v-1c0 0.72-0.581 1.301-1.301 1.301h-23.398c-0.7204 0-1.301-0.581-1.301-1.301z" style="opacity:.2"/>
  </g>
 </g>
 <g id="input-touchpad-off" transform="translate(0,64)" style="enable-background:new">
  <rect y="-32" width="32" height="32" style="opacity:.00100002"/>
  <g transform="translate(0,-32)">
   <rect transform="matrix(0,-1,-1,0,0,0)" x="-29" y="-29" width="26" height="26" rx="1.3" ry="1.3" style="fill:#c4c4c4"/>
   <path d="M 4.3008,3 C 3.5806,3 3,3.5806 3,4.3008 v 1 C 3,4.5806 3.5806,4 4.3008,4 h 23.398 c 0.72,0 1.301,0.5806 1.301,1.3008 v -1 C 28.9998,3.5806 28.4188,3 27.6988,3 Z" style="fill:#dfdfdf;opacity:.1"/>
   <g style="fill:#5d5d5d">
    <rect x="4" y="22" width="11" height="6" rx="1.222" ry="1.2"/>
    <rect x="17" y="22" width="11" height="6" rx="1.222" ry="1.2"/>
    <rect x="24" y="7" width="4" height="1"/>
    <rect x="24" y="9" width="4" height="1"/>
    <rect x="24" y="11" width="4" height="1"/>
    <rect x="24" y="13" width="4" height="1"/>
    <rect x="24" y="15" width="4" height="1"/>
    <rect x="24" y="17" width="4" height="1"/>
   </g>
   <path d="m3 27.699v1c0 0.72 0.5806 1.301 1.3008 1.301h23.398c0.72 0 1.301-0.581 1.301-1.301v-1c0 0.72-0.581 1.301-1.301 1.301h-23.398c-0.7204 0-1.301-0.581-1.301-1.301z" style="opacity:.2"/>
   <circle cx="24" cy="24" r="7" style="fill:#db3c30"/>
   <path d="M 30.977,24.459 A 7,7 0 0 1 24,31 7,7 0 0 1 17.023,24.541 7,7 0 0 0 17,25 a 7,7 0 0 0 7,7 7,7 0 0 0 7,-7 7,7 0 0 0 -0.02344,-0.54102 z" style="opacity:.2"/>
   <g transform="matrix(.70711 -.70711 .70711 .70711 -9.9411 24)" style="fill:#dfdfdf">
    <rect x="20" y="23" width="8" height="2" style="fill:#ffffff"/>
    <rect transform="rotate(90)" x="20" y="-25" width="8" height="2" style="fill:#ffffff"/>
   </g>
  </g>
 </g>
 <g id="input-mouse-battery" transform="translate(224)">
  <rect width="32" height="32" style="opacity:.00100002"/>
  <g>
   <g transform="translate(5.15e-6,-1.0000002)">
    <path d="m16 2.9999997c-0.012 0-0.025 2e-3 -0.037 2e-3h-0.0041c-4.4859 0.0279999-8.9589 4.6770002-8.9589 8.1660003v11.535c0 4.741 3.375 8.297 9 8.297 5.624999 9.8e-4 8.999999-3.554 8.999999-8.295v-11.219c0-3.6260004-4.494-8.4530003-8.999999-8.4820003z" style="opacity:.2"/>
    <path d="m16 1.9999999c-0.012 0-0.025 2e-3 -0.037 2e-3h-0.0041c-4.4859 0.0279999-8.9589 4.6770002-8.9589 8.1660001v11.535c0 4.741 3.375 8.297 9 8.297 5.624999 9.8e-4 8.999999-3.554 8.999999-8.295v-11.219c0-3.6260002-4.494-8.4530001-8.999999-8.4820001z" style="fill:#4f4f4f"/>
    <path d="m16 1.9999999c-0.012 0-0.02451 0.00137-0.0365 0.00137h-0.0041c-4.485963 0.028-8.9594103 4.6772138-8.9594103 8.1662131v5.832417h18.00001v-5.513867c0-3.6260002-4.494001-8.4530315-9-8.4820316z" style="opacity:.1"/>
    <path d="m16 1.9999999c-0.012 0-0.02451 0.00137-0.0365 0.00137h-0.0041c-4.485963 0.028-8.9594103 4.6772138-8.9594103 8.1662131v5.832417h9.0000103v-13.995899z" style="opacity:.1"/>
    <path d="m16 7.0002992c0.551 0 1 0.5760396 1 1.2857862v3.4288296c0 0.709046-0.449 1.285085-1 1.285085s-1-0.576039-1-1.286085v-3.4288298c0-0.709047 0.449-1.2850854 1-1.2850854" style="opacity:.2"/>
    <path d="m16 6.0002994c0.551 0 1 0.5760396 1 1.2857862v3.4288294c0 0.709046-0.449 1.285085-1 1.285085s-1-0.576039-1-1.286085v-3.4288296c0-0.709047 0.449-1.2850854 1-1.2850854" style="fill:#e4e4e4"/>
    <path d="m16 2c-0.012 0-0.02511 0.00195-0.03711 0.00195h-0.0039c-4.485906 0.028003-8.95899 4.6770189-8.95899 8.166019v1c0-3.4890003 4.473084-8.138016 8.958984-8.1660159h0.0039c0.012007 0 0.025116-0.0019531 0.037116-0.0019531v0.00391c4.505999 0.029 9 4.8564215 9 8.482422v-1c0-3.6260041-4.494001-8.4534258-9-8.4824258z" style="fill:#ffffff;opacity:.1"/>
   </g>
   <g transform="translate(66.021,6.576)">
    <circle cx="-42.021" cy="16.424" r="8" style="fill:#f45744"/>
    <path d="m-34.042 16.848a8 8 0 0 1-7.979 7.576 8 8 0 0 1-7.979-7.424 8 8 0 0 0-0.021 0.424 8 8 0 0 0 8 8 8 8 0 0 0 8-8 8 8 0 0 0-0.02148-0.57617z" style="opacity:.1"/>
    <path d="m-42.021 11.424v4h4l-4 6v-4h-4z" style="fill:#ffffff"/>
   </g>
  </g>
 </g>
 <g id="input-keyboard-battery" transform="translate(192)">
  <rect width="32" height="32" style="opacity:.00100002"/>
  <g>
   <rect x="2" y="6" width="28" height="20" rx="1.4" ry="1.4" style="fill:#4f4f4f"/>
   <path d="M 3.4004,6 C 2.6248,6 2,6.6248 2,7.4004 v 1 C 2,7.6248 2.6248,7 3.4004,7 h 25.2 c 0.775,0 1.4,0.6248 1.4,1.4004 v -1 C 30.0004,6.6248 29.3754,6 28.6004,6 Z" style="fill:#ffffff;opacity:.07519998"/>
   <path d="m2 24.6v1c0 0.775 0.6248 1.4 1.4004 1.4h25.2c0.775 0 1.4-0.625 1.4-1.4v-1c0 0.775-0.625 1.4-1.4 1.4h-25.2c-0.7752 0-1.4-0.625-1.4-1.4z" style="opacity:.1"/>
   <circle cx="5.5" cy="11.5" r="1.5" style="opacity:.1"/>
   <circle cx="10.5" cy="11.5" r="1.5" style="opacity:.1"/>
   <circle cx="15.5" cy="11.5" r="1.5" style="opacity:.1"/>
   <circle cx="20.5" cy="11.5" r="1.5" style="opacity:.1"/>
   <circle cx="25.5" cy="11.5" r="1.5" style="opacity:.1"/>
   <circle cx="8.5" cy="17.5" r="1.5" style="opacity:.1"/>
   <circle cx="13.5" cy="17.5" r="1.5" style="opacity:.1"/>
   <circle cx="18.5" cy="17.5" r="1.5" style="opacity:.1"/>
   <circle cx="23.5" cy="17.5" r="1.5" style="opacity:.1"/>
   <rect x="6" y="22" width="20" height="3" rx=".75" ry=".75" style="opacity:.1"/>
   <circle cx="5.5" cy="10.5" r="1.5" style="fill:#e4e4e4"/>
   <circle cx="10.5" cy="10.5" r="1.5" style="fill:#e4e4e4"/>
   <circle cx="15.5" cy="10.5" r="1.5" style="fill:#e4e4e4"/>
   <circle cx="20.5" cy="10.5" r="1.5" style="fill:#e4e4e4"/>
   <circle cx="25.5" cy="10.5" r="1.5" style="fill:#e4e4e4"/>
   <circle cx="8.5" cy="16.5" r="1.5" style="fill:#e4e4e4"/>
   <circle cx="13.5" cy="16.5" r="1.5" style="fill:#e4e4e4"/>
   <circle cx="18.5" cy="16.5" r="1.5" style="fill:#e4e4e4"/>
   <circle cx="23.5" cy="16.5" r="1.5" style="fill:#e4e4e4"/>
   <rect x="6" y="21" width="20" height="3" rx=".75" ry=".75" style="fill:#e4e4e4"/>
   <circle cx="24" cy="23" r="8" style="fill:#f45744"/>
   <path d="M 31.979,23.424 A 8,8 0 0 1 24,31 8,8 0 0 1 16.021,23.576 8,8 0 0 0 16,24 a 8,8 0 0 0 8,8 8,8 0 0 0 8,-8 8,8 0 0 0 -0.02148,-0.57617 z" style="opacity:.1"/>
   <path d="m24 18v4h4l-4 6v-4h-4z" style="fill:#ffffff"/>
  </g>
 </g>
 <g id="input-keyboard-virtual-off" transform="translate(41,-40)">
  <rect x="119" y="40" width="32" height="32" style="opacity:.00100002"/>
  <g>
   <rect x="119" y="46" width="28" height="20" rx="1.4" ry="1.4" style="fill:#898989"/>
   <path d="m120.4004 46c-0.7756 0-1.4004 0.6248-1.4004 1.4004v1c0-0.7756 0.6248-1.4004 1.4004-1.4004h25.2c0.775 0 1.4 0.6248 1.4 1.4004v-1c0-0.7756-0.625-1.4004-1.4-1.4004z" style="fill:#ffffff;opacity:.2"/>
   <path d="m119 64.6v1c0 0.775 0.6248 1.4 1.4004 1.4h25.2c0.775 0 1.4-0.625 1.4-1.4v-1c0 0.775-0.625 1.4-1.4 1.4h-25.2c-0.7752 0-1.4-0.625-1.4-1.4z" style="opacity:.2"/>
   <path d="m122.5 49a1.5 1.5 0 0 0-1.5 1.5 1.5 1.5 0 0 0 1.5 1.5 1.5 1.5 0 0 0 1.5-1.5 1.5 1.5 0 0 0-1.5-1.5zm5 0a1.5 1.5 0 0 0-1.5 1.5 1.5 1.5 0 0 0 1.5 1.5 1.5 1.5 0 0 0 1.5-1.5 1.5 1.5 0 0 0-1.5-1.5zm5 0a1.5 1.5 0 0 0-1.5 1.5 1.5 1.5 0 0 0 1.5 1.5 1.5 1.5 0 0 0 1.5-1.5 1.5 1.5 0 0 0-1.5-1.5zm5 0a1.5 1.5 0 0 0-1.5 1.5 1.5 1.5 0 0 0 1.5 1.5 1.5 1.5 0 0 0 1.5-1.5 1.5 1.5 0 0 0-1.5-1.5zm5 0a1.5 1.5 0 0 0-1.5 1.5 1.5 1.5 0 0 0 1.5 1.5 1.5 1.5 0 0 0 1.5-1.5 1.5 1.5 0 0 0-1.5-1.5zm-17 6a1.5 1.5 0 0 0-1.5 1.5 1.5 1.5 0 0 0 1.5 1.5 1.5 1.5 0 0 0 1.5-1.5 1.5 1.5 0 0 0-1.5-1.5zm5 0a1.5 1.5 0 0 0-1.5 1.5 1.5 1.5 0 0 0 1.5 1.5 1.5 1.5 0 0 0 1.5-1.5 1.5 1.5 0 0 0-1.5-1.5zm5 0a1.5 1.5 0 0 0-1.5 1.5 1.5 1.5 0 0 0 1.5 1.5 1.5 1.5 0 0 0 1.5-1.5 1.5 1.5 0 0 0-1.5-1.5zm5 0a1.5 1.5 0 0 0-1.5 1.5 1.5 1.5 0 0 0 1.5 1.5 1.5 1.5 0 0 0 1.5-1.5 1.5 1.5 0 0 0-1.5-1.5zm-16.75 6c-0.4155 0-0.75 0.3345-0.75 0.75v1.5c0 0.4155 0.3345 0.75 0.75 0.75h18.5c0.4155 0 0.75-0.3345 0.75-0.75v-1.5c0-0.4155-0.3345-0.75-0.75-0.75z" style="opacity:.4"/>
   <circle cx="143" cy="64" r="8" style="opacity:.2"/>
   <circle cx="143" cy="63" r="8" style="fill:#f34235"/>
   <path d="m146 60-6 6v0m0-6 6 6" style="fill:none;stroke-linecap:round;stroke-linejoin:round;stroke-width:2;stroke:#ffffff"/>
  </g>
 </g>
 <g id="input-keyboard-virtual-on" transform="translate(19,-47)">
  <rect x="109" y="47" width="32" height="32" style="opacity:.00100002"/>
  <g>
   <rect x="109" y="53" width="28" height="20" rx="1.4" ry="1.4" style="fill:#3399df"/>
   <circle cx="130.5" cy="63.5" r="3.5" style="fill:#ffffff;opacity:.2"/>
   <circle cx="130.5" cy="63.5" r="2.5" style="fill:#ffffff;opacity:.2"/>
   <path d="m110.4004 53c-0.7756 0-1.4004 0.6248-1.4004 1.4004v1c0-0.7756 0.6248-1.4004 1.4004-1.4004h25.2c0.775 0 1.4 0.6248 1.4 1.4004v-1c0-0.7756-0.625-1.4004-1.4-1.4004z" style="fill:#ffffff;opacity:.2"/>
   <path d="m109 71.6v1c0 0.775 0.6248 1.4 1.4004 1.4h25.2c0.775 0 1.4-0.625 1.4-1.4v-1c0 0.775-0.625 1.4-1.4 1.4h-25.2c-0.7752 0-1.4-0.625-1.4-1.4z" style="opacity:.2"/>
   <path d="m112.5 56a1.5 1.5 0 0 0-1.5 1.5 1.5 1.5 0 0 0 1.5 1.5 1.5 1.5 0 0 0 1.5-1.5 1.5 1.5 0 0 0-1.5-1.5zm5 0a1.5 1.5 0 0 0-1.5 1.5 1.5 1.5 0 0 0 1.5 1.5 1.5 1.5 0 0 0 1.5-1.5 1.5 1.5 0 0 0-1.5-1.5zm5 0a1.5 1.5 0 0 0-1.5 1.5 1.5 1.5 0 0 0 1.5 1.5 1.5 1.5 0 0 0 1.5-1.5 1.5 1.5 0 0 0-1.5-1.5zm5 0a1.5 1.5 0 0 0-1.5 1.5 1.5 1.5 0 0 0 1.5 1.5 1.5 1.5 0 0 0 1.5-1.5 1.5 1.5 0 0 0-1.5-1.5zm5 0a1.5 1.5 0 0 0-1.5 1.5 1.5 1.5 0 0 0 1.5 1.5 1.5 1.5 0 0 0 1.5-1.5 1.5 1.5 0 0 0-1.5-1.5zm-17 6a1.5 1.5 0 0 0-1.5 1.5 1.5 1.5 0 0 0 1.5 1.5 1.5 1.5 0 0 0 1.5-1.5 1.5 1.5 0 0 0-1.5-1.5zm5 0a1.5 1.5 0 0 0-1.5 1.5 1.5 1.5 0 0 0 1.5 1.5 1.5 1.5 0 0 0 1.5-1.5 1.5 1.5 0 0 0-1.5-1.5zm5 0a1.5 1.5 0 0 0-1.5 1.5 1.5 1.5 0 0 0 1.5 1.5 1.5 1.5 0 0 0 1.5-1.5 1.5 1.5 0 0 0-1.5-1.5zm5 0a1.5 1.5 0 0 0-1.5 1.5 1.5 1.5 0 0 0 1.5 1.5 1.5 1.5 0 0 0 1.5-1.5 1.5 1.5 0 0 0-1.5-1.5zm-16.75 6c-0.4155 0-0.75 0.3345-0.75 0.75v1.5c0 0.4155 0.3345 0.75 0.75 0.75h18.5c0.4155 0 0.75-0.3345 0.75-0.75v-1.5c0-0.4155-0.3345-0.75-0.75-0.75z" style="opacity:.4"/>
   <path d="m130.47847 63.000396c-1.50068 0-1.50123 0.999903-1.50457 2-0.0104 0.617929-8e-3 1.907833 4e-3 3.810547 0.0186 3.041575 0.0129 3.99615-0.0234 4.126953-1.03682-0.109281-2.60502-0.528244-3.30666-1.083455-0.45859-0.363804-0.91365-0.69731-1.01022-0.740234-0.40259-0.178945-0.9738-0.06626-1.30136 0.257812-0.2265 0.224083-0.31028 0.423849-0.33023 0.783203-0.0152 0.274612-6e-3 0.339564 0.0782 0.521485 0.053 0.114607 0.14918 0.268452 0.21299 0.341797 0.0638 0.07335 0.93687 1.205649 1.94032 2.517578 1.85835 2.42964 3.70724 3.330672 4.02573 3.421345 0.19472 0.05553 10.23854 0.0573 10.4402 2e-3 0.0916-0.02514 0.22391-0.109415 0.3185-0.203125 0.13255-0.131317 0.18232-0.227341 0.28528-0.544921 0.2948-0.909259 0.58884-2.292162 0.67218-3.060547 0.0363-0.892812 0.017-0.926771 0-1.650391-3.2e-4 -0.01364-3e-3 -0.02555-4e-3 -0.03906 1e-3 -0.64306 5e-3 -1.186604 0-1.460938 3e-3 -1.000095 5e-3 -2-1.49285-2-1.35172 0-1.47741 0.819191-1.49286 1.712891-2e-3 0.02404-9e-3 0.04812-0.01 0.07227 5.3e-4 -0.24172 3e-3 -0.63772 0-0.785156 3e-3 -1.000095 3e-3 -2-1.49481-2-1.34275 0-1.47591 0.808614-1.49285 1.695312-4e-3 0.0021-8e-3 0.0036-0.0117 0.0059-2e-5 -0.0052-2e-3 -0.05373-2e-3 -0.06445 1.2e-4 -0.179803 2e-3 -0.517156 0-0.636719 3e-3 -1.000095 3e-3 -2-1.49481-2-1.13856 0-1.41196 0.578703-1.47917 1.294922-2e-3 3.65e-4 -0.0252 0.0058-0.0254 0.0059-0.0213 0.0077-4e-3 -1.215075-4e-3 -2.53125 0-0.901566 6e-3 -1.437249 0-1.769531 3e-3 -1.000095 4e-3 -2-1.49676-2z" style="opacity:.2"/>
   <path d="m130.47847 62.000396c-1.50068 0-1.50123 0.999903-1.50457 2-0.0104 0.617929-8e-3 1.907833 4e-3 3.810547 0.0186 3.041575 0.0129 3.99615-0.0234 4.126953-1.03682-0.109281-2.60502-0.528244-3.30666-1.083455-0.45859-0.363804-0.91365-0.69731-1.01022-0.740234-0.40259-0.178945-0.9738-0.06626-1.30136 0.257812-0.2265 0.224083-0.31028 0.423849-0.33023 0.783203-0.0152 0.274612-6e-3 0.339564 0.0782 0.521485 0.053 0.114607 0.14918 0.268452 0.21299 0.341797 0.0638 0.07335 0.93687 1.205649 1.94032 2.517578 1.85835 2.42964 3.70724 3.330672 4.02573 3.421345 0.19472 0.05553 10.23854 0.0573 10.4402 2e-3 0.0916-0.02514 0.22391-0.109415 0.3185-0.203125 0.13255-0.131317 0.18232-0.227341 0.28528-0.544921 0.2948-0.909259 0.58884-2.292162 0.67218-3.060547 0.0363-0.892812 0.017-0.926771 0-1.650391-3.2e-4 -0.01364-3e-3 -0.02555-4e-3 -0.03906 1e-3 -0.64306 5e-3 -1.186604 0-1.460938 3e-3 -1.000095 5e-3 -2-1.49285-2-1.35172 0-1.47741 0.819191-1.49286 1.712891-2e-3 0.02404-9e-3 0.04812-0.01 0.07227 5.3e-4 -0.24172 3e-3 -0.63772 0-0.785156 3e-3 -1.000095 3e-3 -2-1.49481-2-1.34275 0-1.47591 0.808614-1.49285 1.695312-4e-3 0.0021-8e-3 0.0036-0.0117 0.0059-2e-5 -0.0052-2e-3 -0.05373-2e-3 -0.06445 1.2e-4 -0.179803 2e-3 -0.517156 0-0.636719 3e-3 -1.000095 3e-3 -2-1.49481-2-1.13856 0-1.41196 0.578703-1.47917 1.294922-2e-3 3.65e-4 -0.0252 0.0058-0.0254 0.0059-0.0213 0.0077-4e-3 -1.215075-4e-3 -2.53125 0-0.901566 6e-3 -1.437249 0-1.769531 3e-3 -1.000095 4e-3 -2-1.49676-2z" style="fill:#e4e4e4"/>
  </g>
 </g>
 <g id="input-keyboard-brightness" transform="translate(96)">
  <rect width="32" height="32" style="opacity:.00100002"/>
  <g>
   <rect x="2" y="6" width="28" height="20" rx="1.4" ry="1.4" style="fill:#4f4f4f"/>
   <path d="M 3.4004,6 C 2.6248,6 2,6.6248 2,7.4004 v 1 C 2,7.6248 2.6248,7 3.4004,7 h 25.2 c 0.775,0 1.4,0.6248 1.4,1.4004 v -1 C 30.0004,6.6248 29.3754,6 28.6004,6 Z" style="fill:#ffffff;opacity:.07519998"/>
   <path d="m2 24.6v1c0 0.775 0.6248 1.4 1.4004 1.4h25.2c0.775 0 1.4-0.625 1.4-1.4v-1c0 0.775-0.625 1.4-1.4 1.4h-25.2c-0.7752 0-1.4-0.625-1.4-1.4z" style="opacity:.1"/>
   <circle cx="5.5" cy="11.5" r="1.5" style="opacity:.1"/>
   <circle cx="10.5" cy="11.5" r="1.5" style="opacity:.1"/>
   <circle cx="15.5" cy="11.5" r="1.5" style="opacity:.1"/>
   <circle cx="20.5" cy="11.5" r="1.5" style="opacity:.1"/>
   <circle cx="25.5" cy="11.5" r="1.5" style="opacity:.1"/>
   <circle cx="8.5" cy="17.5" r="1.5" style="opacity:.1"/>
   <circle cx="13.5" cy="17.5" r="1.5" style="opacity:.1"/>
   <circle cx="18.5" cy="17.5" r="1.5" style="opacity:.1"/>
   <circle cx="23.5" cy="17.5" r="1.5" style="opacity:.1"/>
   <rect x="6" y="22" width="20" height="3" rx=".75" ry=".75" style="opacity:.1"/>
   <circle cx="5.5" cy="10.5" r="1.5" style="fill:#e4e4e4"/>
   <circle cx="10.5" cy="10.5" r="1.5" style="fill:#e4e4e4"/>
   <circle cx="15.5" cy="10.5" r="1.5" style="fill:#e4e4e4"/>
   <circle cx="20.5" cy="10.5" r="1.5" style="fill:#e4e4e4"/>
   <circle cx="25.5" cy="10.5" r="1.5" style="fill:#e4e4e4"/>
   <circle cx="8.5" cy="16.5" r="1.5" style="fill:#e4e4e4"/>
   <circle cx="13.5" cy="16.5" r="1.5" style="fill:#e4e4e4"/>
   <circle cx="18.5" cy="16.5" r="1.5" style="fill:#e4e4e4"/>
   <circle cx="23.5" cy="16.5" r="1.5" style="fill:#e4e4e4"/>
   <rect x="6" y="21" width="20" height="3" rx=".75" ry=".75" style="fill:#e4e4e4"/>
   <circle cx="24" cy="23" r="8" style="fill:#ffb607"/>
   <path d="M 31.979,23.424 A 8,8 0 0 1 24,31 8,8 0 0 1 16.021,23.576 8,8 0 0 0 16,24 a 8,8 0 0 0 8,8 8,8 0 0 0 8,-8 8,8 0 0 0 -0.02148,-0.57617 z" style="opacity:.1"/>
   <path d="m24 18v10a5 5 0 0 0 5-5 5 5 0 0 0-5-5z" style="fill:#ffffff"/>
  </g>
 </g>
 <g id="input-num-on" transform="translate(64)">
  <rect width="32" height="32" style="opacity:.00100002"/>
  <g transform="translate(0,1)">
   <rect x="2" y="5" width="28" height="20" rx="1.4" ry="1.4" style="fill:#4f4f4f"/>
   <path d="M 3.4004,5 C 2.6248,5 2,5.6248 2,6.4004 v 1 C 2,6.6248 2.6248,6 3.4004,6 h 25.2 c 0.775,0 1.4,0.6248 1.4,1.4004 v -1 C 30.0004,5.6248 29.3754,5 28.6004,5 Z" style="fill:#ffffff;opacity:.07519998"/>
   <path d="m2 23.6v1c0 0.775 0.6248 1.4 1.4004 1.4h25.2c0.775 0 1.4-0.625 1.4-1.4v-1c0 0.775-0.625 1.4-1.4 1.4h-25.2c-0.7752 0-1.4-0.625-1.4-1.4z" style="opacity:.1"/>
   <circle cx="5.5" cy="10.5" r="1.5" style="opacity:.1"/>
   <circle cx="10.5" cy="10.5" r="1.5" style="opacity:.1"/>
   <circle cx="15.5" cy="10.5" r="1.5" style="opacity:.1"/>
   <circle cx="20.5" cy="10.5" r="1.5" style="opacity:.1"/>
   <circle cx="25.5" cy="10.5" r="1.5" style="opacity:.1"/>
   <circle cx="8.5" cy="16.5" r="1.5" style="opacity:.1"/>
   <circle cx="13.5" cy="16.5" r="1.5" style="opacity:.1"/>
   <circle cx="18.5" cy="16.5" r="1.5" style="opacity:.1"/>
   <circle cx="23.5" cy="16.5" r="1.5" style="opacity:.1"/>
   <rect x="6" y="21" width="20" height="3" rx=".75" ry=".75" style="opacity:.1"/>
   <circle cx="5.5" cy="9.5" r="1.5" style="fill:#e4e4e4"/>
   <circle cx="10.5" cy="9.5" r="1.5" style="fill:#e4e4e4"/>
   <circle cx="15.5" cy="9.5" r="1.5" style="fill:#e4e4e4"/>
   <circle cx="20.5" cy="9.5" r="1.5" style="fill:#e4e4e4"/>
   <circle cx="25.5" cy="9.5" r="1.5" style="fill:#e4e4e4"/>
   <circle cx="8.5" cy="15.5" r="1.5" style="fill:#e4e4e4"/>
   <circle cx="13.5" cy="15.5" r="1.5" style="fill:#e4e4e4"/>
   <circle cx="18.5" cy="15.5" r="1.5" style="fill:#e4e4e4"/>
   <circle cx="23.5" cy="15.5" r="1.5" style="fill:#e4e4e4"/>
   <rect x="6" y="20" width="20" height="3" rx=".75" ry=".75" style="fill:#e4e4e4"/>
   <circle cx="24" cy="22" r="8" style="fill:#1fc238"/>
   <path d="M 31.979,22.424 A 8,8 0 0 1 24,30 8,8 0 0 1 16.021,22.576 8,8 0 0 0 16,23 a 8,8 0 0 0 8,8 8,8 0 0 0 8,-8 8,8 0 0 0 -0.02148,-0.57617 z" style="opacity:.1"/>
   <path d="m25 17v7h1.9999v2h-5.9997v-2h1.9999v-4.5l-1.9999 0.5v-2z" style="fill:#ffffff"/>
  </g>
 </g>
 <g id="input-caps-on">
  <rect x="32" width="32" height="32" style="opacity:.00100002"/>
  <g>
   <rect x="34" y="6" width="28" height="20" rx="1.4" ry="1.4" style="fill:#4f4f4f"/>
   <path d="m35.4004 6c-0.7756 0-1.4004 0.6248-1.4004 1.4004v1c0-0.7756 0.6248-1.4004 1.4004-1.4004h25.2c0.775 0 1.4 0.6248 1.4 1.4004v-1c0-0.7756-0.625-1.4004-1.4-1.4004z" style="fill:#ffffff;opacity:.07519998"/>
   <path d="m34 24.6v1c0 0.775 0.6248 1.4 1.4004 1.4h25.2c0.775 0 1.4-0.625 1.4-1.4v-1c0 0.775-0.625 1.4-1.4 1.4h-25.2c-0.7752 0-1.4-0.625-1.4-1.4z" style="opacity:.1"/>
   <circle cx="37.5" cy="11.5" r="1.5" style="opacity:.1"/>
   <circle cx="42.5" cy="11.5" r="1.5" style="opacity:.1"/>
   <circle cx="47.5" cy="11.5" r="1.5" style="opacity:.1"/>
   <circle cx="52.5" cy="11.5" r="1.5" style="opacity:.1"/>
   <circle cx="57.5" cy="11.5" r="1.5" style="opacity:.1"/>
   <circle cx="40.5" cy="17.5" r="1.5" style="opacity:.1"/>
   <circle cx="45.5" cy="17.5" r="1.5" style="opacity:.1"/>
   <circle cx="50.5" cy="17.5" r="1.5" style="opacity:.1"/>
   <circle cx="55.5" cy="17.5" r="1.5" style="opacity:.1"/>
   <rect x="38" y="22" width="20" height="3" rx=".75" ry=".75" style="opacity:.1"/>
   <circle cx="37.5" cy="10.5" r="1.5" style="fill:#e4e4e4"/>
   <circle cx="42.5" cy="10.5" r="1.5" style="fill:#e4e4e4"/>
   <circle cx="47.5" cy="10.5" r="1.5" style="fill:#e4e4e4"/>
   <circle cx="52.5" cy="10.5" r="1.5" style="fill:#e4e4e4"/>
   <circle cx="57.5" cy="10.5" r="1.5" style="fill:#e4e4e4"/>
   <circle cx="40.5" cy="16.5" r="1.5" style="fill:#e4e4e4"/>
   <circle cx="45.5" cy="16.5" r="1.5" style="fill:#e4e4e4"/>
   <circle cx="50.5" cy="16.5" r="1.5" style="fill:#e4e4e4"/>
   <circle cx="55.5" cy="16.5" r="1.5" style="fill:#e4e4e4"/>
   <rect x="38" y="21" width="20" height="3" rx=".75" ry=".75" style="fill:#e4e4e4"/>
   <circle cx="56" cy="23" r="8" style="fill:#3399df"/>
   <path d="M 63.979,23.424 A 8,8 0 0 1 56,31 8,8 0 0 1 48.021,23.576 8,8 0 0 0 48,24 a 8,8 0 0 0 8,8 8,8 0 0 0 8,-8 8,8 0 0 0 -0.02148,-0.57617 z" style="opacity:.1"/>
   <path d="m58 27h-4v-8h4v0" style="fill:none;stroke-linecap:round;stroke-linejoin:round;stroke-width:2;stroke:#ffffff"/>
  </g>
 </g>
 <g id="input-keyboard">
  <rect width="32" height="32" style="opacity:.00100002"/>
  <g>
   <rect x="2" y="6" width="28" height="20" rx="1.4" ry="1.4" style="fill:#4f4f4f"/>
   <path d="M 3.4004,6 C 2.6248,6 2,6.6248 2,7.4004 v 1 C 2,7.6248 2.6248,7 3.4004,7 h 25.2 c 0.775,0 1.4,0.6248 1.4,1.4004 v -1 C 30.0004,6.6248 29.3754,6 28.6004,6 Z" style="fill:#ffffff;opacity:.07519998"/>
   <path d="m2 24.6v1c0 0.775 0.6248 1.4 1.4004 1.4h25.2c0.775 0 1.4-0.625 1.4-1.4v-1c0 0.775-0.625 1.4-1.4 1.4h-25.2c-0.7752 0-1.4-0.625-1.4-1.4z" style="opacity:.1"/>
   <circle cx="5.5" cy="11.5" r="1.5" style="opacity:.1"/>
   <circle cx="10.5" cy="11.5" r="1.5" style="opacity:.1"/>
   <circle cx="15.5" cy="11.5" r="1.5" style="opacity:.1"/>
   <circle cx="20.5" cy="11.5" r="1.5" style="opacity:.1"/>
   <circle cx="25.5" cy="11.5" r="1.5" style="opacity:.1"/>
   <circle cx="8.5" cy="17.5" r="1.5" style="opacity:.1"/>
   <circle cx="13.5" cy="17.5" r="1.5" style="opacity:.1"/>
   <circle cx="18.5" cy="17.5" r="1.5" style="opacity:.1"/>
   <circle cx="23.5" cy="17.5" r="1.5" style="opacity:.1"/>
   <rect x="6" y="22" width="20" height="3" rx=".75" ry=".75" style="opacity:.1"/>
   <circle cx="5.5" cy="10.5" r="1.5" style="fill:#e4e4e4"/>
   <circle cx="10.5" cy="10.5" r="1.5" style="fill:#e4e4e4"/>
   <circle cx="15.5" cy="10.5" r="1.5" style="fill:#e4e4e4"/>
   <circle cx="20.5" cy="10.5" r="1.5" style="fill:#e4e4e4"/>
   <circle cx="25.5" cy="10.5" r="1.5" style="fill:#e4e4e4"/>
   <circle cx="8.5" cy="16.5" r="1.5" style="fill:#e4e4e4"/>
   <circle cx="13.5" cy="16.5" r="1.5" style="fill:#e4e4e4"/>
   <circle cx="18.5" cy="16.5" r="1.5" style="fill:#e4e4e4"/>
   <circle cx="23.5" cy="16.5" r="1.5" style="fill:#e4e4e4"/>
   <rect x="6" y="21" width="20" height="3" rx=".75" ry=".75" style="fill:#e4e4e4"/>
  </g>
 </g>
</svg>
