<svg width="32" height="32" version="1" xmlns="http://www.w3.org/2000/svg">
 <g id="22-22-internet-web-browser" transform="translate(27,5)">
  <rect x="5" y="5" width="22" height="22" style="opacity:.00100002"/>
  <path d="m16 8c-4.42 0-8 3.58-8 8s3.58 8 8 8 8-3.58 8-8-3.58-8-8-8zm4.86 3.14-3.25 6.47-6.47 3.25 3.25-6.47zm-4.86 4c-0.47 0-0.86 0.39-0.86 0.86s0.39 0.86 0.86 0.86 0.86-0.39 0.86-0.86-0.39-0.86-0.86-0.86z" style="fill:#aaaaac"/>
 </g>
 <g id="internet-web-browser">
  <rect width="32" height="32" style="opacity:.00100002"/>
  <g transform="translate(-.00283333)">
   <rect transform="matrix(0,-1,-1,0,0,0)" x="-30" y="-30" width="28" height="28" rx="14" ry="14" style="fill:#6573c3"/>
   <path d="m25.893 6.1095-19.781 19.78c5.4793 5.4793 14.302 5.4793 19.781 0 5.4793-5.4793 5.4793-14.302 0-19.781z" style="opacity:.1"/>
   <path d="m6.1121 25.89 8.6542-11.127 2.4726 2.4726z" style="fill:#f2f2f2"/>
   <path d="m25.893 6.1095-11.127 8.6542 2.4726 2.4726z" style="fill:#f34235"/>
   <path d="m25.893 6.1095-19.781 19.78c-5.4793-5.4793-5.4793-14.302 0-19.781 5.4793-5.4793 14.302-5.4793 19.781 0z" style="fill:#ffffff;opacity:.2"/>
   <path d="m16.003 2c-7.7564 0-14 6.244-14 14 0 0.0735-0.0059 0.14635 0 0.21875 0.1495-7.6244 6.3383-13.719 14-13.719 7.6613 0 13.85 6.0946 14 13.719 6e-3 -0.0724 0-0.14521 0-0.21875 0-7.756-6.244-14-14-14z" style="fill:#ffffff;opacity:.4"/>
   <path d="m2.0273 16.5c-0.00587 0.16736-0.025391 0.33116-0.025391 0.5 0 7.756 6.244 14 14 14s14-6.244 14-14c0-0.16884-0.01952-0.33264-0.02539-0.5-0.264 7.521-6.388 13.5-13.975 13.5-7.5872 0-13.711-5.979-13.975-13.5z" style="opacity:.2"/>
  </g>
 </g>
</svg>
