<svg width="32" height="32" version="1.1" viewBox="0 0 32 32" xmlns="http://www.w3.org/2000/svg">
 <g id="22-22-jami" transform="translate(32.000001,10)">
  <rect width="22" height="22" style="opacity:.00100002"/>
  <path d="m8.09375 3.5878906c-0.1785797 0.009861-0.3537858 0.0580804-0.5136719 0.1503906l-1.1542969 0.6679688c-0.6395441 0.369241-0.7986687 1.2850894-0.3554687 2.0527344l2.6230469 4.5410156 2.3085936-4-1.4667968-2.5410156c-0.3324-0.5757337-0.905667-0.9006767-1.4414062-0.8710938zm5.216797 7.4121094-2.308594 4 1.46875 2.542969c0.4432 0.767645 1.315534 1.087991 1.955078 0.71875l1.154297-0.666016c0.639544-0.369241 0.796716-1.285089 0.353516-2.052734z" style="fill:#aaaaac;opacity:.3"/>
  <rect transform="matrix(-.8660254 -.5 -.5 .8660254 0 0)" x="-17.030001" y="-3.97" width="4" height="16" rx="1.3329999" ry="1.6" style="fill:#aaaaac;opacity:.6"/>
  <rect transform="matrix(0,-1,-1,0,0,0)" x="-13" y="-19" width="4" height="16" rx="1.3329999" ry="1.6" style="fill:#aaaaac"/>
 </g>
 <g id="jami">
  <rect width="32" height="32" style="opacity:.00100002"/>
  <g transform="translate(0 .01873684)">
   <rect transform="rotate(-30)" x="1.36" y="7.7199998" width="8" height="30" rx="2.6670001" ry="3" style="opacity:.2"/>
   <rect transform="rotate(-30)" x="1.86" y="6.8600001" width="8" height="30" rx="2.6670001" ry="3" style="fill:#115090"/>
   <rect transform="matrix(-.8660254 -.5 -.5 .8660254 0 0)" x="-26.360001" y="-8.2799997" width="8" height="30" rx="2.6670001" ry="3" style="opacity:.2"/>
   <path d="m10.671875 2.0273438c-0.352182 0.0285033-0.6977261 0.1317395-1.0175781 0.3164062l-2.3085938 1.3320312c-0.9622743 0.5555694-1.4041415 1.6859599-1.2109375 2.8242188 0.1234491-0.7596654 0.5357996-1.4344277 1.2109375-1.8242188l2.3085938-1.3320312c1.2794081-0.7386667 2.9795471-0.1756623 3.8105471 1.2636719l12 20.785156c0.205979 0.356766 0.336715 0.7323 0.40039 1.107422 0.110491-0.679925-0.0079-1.427618-0.40039-2.107422l-12-20.785156c-0.62325-1.0795007-1.736424-1.6655882-2.792969-1.5800781z" style="fill:#ffffff;opacity:.1"/>
   <rect transform="matrix(-.8660254 -.5 -.5 .8660254 0 0)" x="-25.860001" y="-9.1400003" width="8" height="30" rx="2.6670001" ry="3" style="fill:#0c7ace"/>
   <path d="m21.328125 2.0273438c-1.056545-0.0855101-2.169719 0.5005774-2.792969 1.5800781l-12 20.785156c-0.392485 0.679804-0.5108815 1.427497-0.4003906 2.107422 0.0636757-0.375122 0.1944118-0.750656 0.4003906-1.107422l12-20.785156c0.831-1.4393342 2.531139-2.0023386 3.810547-1.2636719l2.308594 1.3320312c0.675138 0.3897911 1.087488 1.0645534 1.210937 1.8242188 0.193204-1.1382589-0.248663-2.2686494-1.210937-2.8242188l-2.308594-1.3320312c-0.319852-0.1846667-0.665396-0.2879029-1.017578-0.3164062z" style="fill:#ffffff;opacity:.1"/>
   <rect transform="matrix(0,-1,-1,0,0,0)" x="-21" y="-31" width="8" height="30" rx="2.6670001" ry="3" style="opacity:.2"/>
   <rect transform="matrix(0,-1,-1,0,0,0)" x="-20" y="-31" width="8" height="30" rx="2.6670001" ry="3" style="fill:#00a8ec"/>
   <path d="m 4,12 c -1.662,0 -3,1.188682 -3,2.666016 v 1 C 1,14.188682 2.338,13 4,13 h 24 c 1.662,0 3,1.188682 3,2.666016 v -1 C 31,13.188682 29.662,12 28,12 Z" style="fill:#ffffff;opacity:.2"/>
  </g>
 </g>
</svg>
