<svg width="32" height="32" style="enable-background:new" version="1.1" xmlns="http://www.w3.org/2000/svg">
 <g id="22-22-kaffeine" transform="translate(0,2)">
  <path d="m32 8.0000001h22v22h-22v-22z" style="opacity:.00100002"/>
  <path d="m35.199219 11c-0.0089 0-0.01466 0.0038-0.02344 0.0039l1.996096 1.9961h2.828125l-2-2zm4.800781 2-2 2h-2.828125l2-2h-2.828125l-0.34375-0.34375v13.113281s-7.81e-4 1.230469 1.199219 1.230469h15.601562s1.199219 3.01e-4 1.199219-1.230469v-12.769531h-0.685547l-2 2h-2.828125l2-2h2.828125l-2.001953-2h-2.826172l1.947266 1.947266-0.052735 0.052734h-2.724609l-2 2h-2.828125l2-2h2.828125l-2-2h-2.828125l1.992187 1.992188-0.007812 0.007812zm-5.125-1.960938c-0.180583 0.04094-0.324002 0.115833-0.4375 0.208985 0.114021-0.09345 0.256541-0.167617 0.4375-0.208985zm-0.4375 0.208985h-2e-3c-0.05685 0.04681-0.105532 0.09812-0.148438 0.152344 0.04308-0.05377 0.09338-0.105619 0.150391-0.152344zm6.335938 4.751953a0.80778854 0.87104999 0 0 1 0.46289 0.132812l2.691406 1.814454 2.69336 1.814453a0.80778854 0.87104999 0 0 1 0 1.476562l-2.69336 1.814453-2.691406 1.814454a0.80778854 0.87104999 0 0 1-1.236328-0.738282v-7.257812a0.80778854 0.87104999 0 0 1 0.773438-0.871094z" style="fill:#aaaaac"/>
 </g>
 <g id="kaffeine">
  <rect width="32" height="32" style="opacity:.00100002"/>
  <g>
   <rect transform="matrix(0,-1,-1,0,0,0)" x="-28" y="-30" width="24" height="28" rx="1.5" ry="1.5" style="fill:#54402a"/>
   <path d="m12.51 14.999648a0.49999 0.55556 0 0 0-0.51 0.556v8.8884a0.49999 0.55556 0 0 0 0.74798 0.4828l6.9993-4.4439a0.49999 0.55556 0 0 0 0-0.9656l-6.9993-4.4445a0.49999 0.55556 0 0 0-0.23797-0.073z" style="opacity:.2"/>
   <path d="m12.51 13.999648a0.49999 0.55556 0 0 0-0.51 0.556v8.8884a0.49999 0.55556 0 0 0 0.74798 0.4828l6.9993-4.4439a0.49999 0.55556 0 0 0 0-0.9656l-6.9993-4.4445a0.49999 0.55556 0 0 0-0.23797-0.073z" style="fill:#d2d2d2"/>
   <path d="m2 26.5v1c0 0.831 0.669 1.5 1.5 1.5h25c0.831 0 1.5-0.669 1.5-1.5v-1c0 0.831-0.669 1.5-1.5 1.5h-25c-0.831 0-1.5-0.669-1.5-1.5z" style="opacity:.2"/>
   <path d="m2 10v-4.5c0-0.831 0.669-1.5 1.5-1.5h25c0.831 0 1.5 0.669 1.5 1.5v4.5z" style="opacity:.2"/>
   <path d="m2 6.5v-1c0-0.831 0.669-1.5 1.5-1.5h25c0.831 0 1.5 0.669 1.5 1.5v1c0-0.831-0.669-1.5-1.5-1.5h-25c-0.831 0-1.5 0.669-1.5 1.5z" style="fill:#ffffff;opacity:.2"/>
   <path d="m2 7v-1.5c0-0.831 0.669-1.5 1.5-1.5h25c0.831 0 1.5 0.669 1.5 1.5v1.5z" style="opacity:.2"/>
   <path d="m3.5 4c-0.831 0-1.5 0.669-1.5 1.5v4.5h6v-3l-3-3z" style="fill:#d2d2d2"/>
   <path d="m12 7-3-3h4l3 3z" style="fill-rule:evenodd;fill:#bebebe"/>
   <path d="m12 7-3 3h4l3-3z" style="fill-rule:evenodd;fill:#d2d2d2"/>
   <path d="m19 7-3-3h4l3 3z" style="fill-rule:evenodd;fill:#bebebe"/>
   <path d="m19 7-3 3h4l3-3z" style="fill-rule:evenodd;fill:#d2d2d2"/>
   <path d="m26 7-3-3h4l3 3z" style="fill-rule:evenodd;fill:#bebebe"/>
   <path d="m26 7-3 3h4l3-3z" style="fill-rule:evenodd;fill:#d2d2d2"/>
  </g>
 </g>
</svg>
