<svg width="32" height="32" style="enable-background:new" version="1.1" viewBox="0 0 32 32" xmlns="http://www.w3.org/2000/svg">
 <g id="22-22-kalarm">
  <rect x="32" y="10" width="22" height="22" style="opacity:.00100002"/>
  <path d="m37 11.988281v0.011719c-1.656854 0-3 1.343146-3 3 6.29e-4 0.799718 0.320535 1.566084 0.888672 2.128906 0.88843-1.8521 2.388234-3.351634 4.240234-4.240234-0.560883-0.572441-1.327491-0.896668-2.128906-0.900391zm12 0.011719c-0.799718 6.29e-4 -1.566084 0.320535-2.128906 0.888672 1.852 0.8886 3.351834 2.388134 4.240234 4.240234 0.560987-0.555651 0.880296-1.310062 0.888672-2.099609 0-1.656854-1.343146-3-3-3zm-6 2c-3.854149 0-7 3.145851-7 7s3.145851 7 7 7 7-3.145851 7-7-3.145851-7-7-7zm0 2c2.773268 0 5 2.226732 5 5s-2.226732 5-5 5-5-2.226732-5-5 2.226732-5 5-5zm2.876953 2.667969c-0.144229-0.0132-0.296151 0.0174-0.441406 0.101562l-2.804688 1.580078c-0.448737 0.252615-0.515239 0.870209-0.130859 1.212891l0.783203 1.357422c0.334354 0.597369 1.228486 0.471185 1.384766-0.195313 0.04491-0.189618 0.01376-0.38921-0.08594-0.55664l-0.521484-0.902344 2.111328-1.191406c0.177688-0.09703 0.308879-0.262026 0.363281-0.457031 0.133967-0.48548-0.225515-0.909622-0.658203-0.949219zm2.824219 7.935547c-0.7072 0.717164-1.543466 1.294333-2.464844 1.701172 0.274841 0.432366 0.751346 0.694554 1.263672 0.695312 0.828427 0 1.5-0.671573 1.5-1.5-4.21e-4 -0.323219-0.105233-0.637656-0.298828-0.896484zm-11.404297 0.0039c-0.192103 0.258007-0.29618 0.570921-0.296875 0.892584 0 0.828427 0.671573 1.5 1.5 1.5 0.510493-1.45e-4 0.985867-0.259909 1.261719-0.689453-0.921536-0.407422-1.757813-0.985261-2.464844-1.703125z" style="fill:#aaaaac"/>
 </g>
 <g id="kalarm">
  <rect width="32" height="32" style="opacity:.00100002"/>
  <g>
   <path d="m11.257 22.079c-0.74997-0.03976-1.61 0.3043-2.2955 0.98984l-2.9695 2.9695c-1.0969 1.0969-1.3176 2.6418-0.49492 3.4645 0.82265 0.82265 2.3676 0.60194 3.4645-0.49492l2.9695-2.9695c1.0969-1.0969 1.3176-2.6418 0.49492-3.4645-0.30849-0.30849-0.71896-0.47106-1.1689-0.49492zm9.4076 0c-0.44998 0.02386-0.85908 0.18643-1.1676 0.49492-0.82265 0.82265-0.60194 2.3676 0.49492 3.4645l2.9695 2.9695c1.0969 1.0969 2.6418 1.3176 3.4645 0.49492 0.82265-0.82265 0.60194-2.3676-0.49492-3.4645l-2.9695-2.9695c-0.68554-0.68554-1.5469-1.0296-2.2969-0.98984z" style="fill:#4f4f4f"/>
   <path d="m5 2a5 5 0 0 0-5 5 5 5 0 0 0 5 5 5 5 0 0 0 5-5 5 5 0 0 0-5-5zm22 0a5 5 0 0 0-5 5 5 5 0 0 0 5 5 5 5 0 0 0 5-5 5 5 0 0 0-5-5z" style="fill:#c03120"/>
   <path d="M 5,2 A 5,5 0 0 0 0,7 5,5 0 0 0 0.027344,7.5156 5,5 0 0 1 5.000044,3 5,5 0 0 1 9.972744,7.4844 5,5 0 0 0 10.000044,7 a 5,5 0 0 0 -5,-5 z M 27,2 A 5,5 0 0 0 22,7 5,5 0 0 0 22.027,7.5156 5,5 0 0 1 27,3 5,5 0 0 1 31.973,7.4844 5,5 0 0 0 32,7 5,5 0 0 0 27,2 Z" style="fill:#ffffff;opacity:.1"/>
   <path d="m12.859 24.369c-0.119 0.576-0.427 1.17-0.927 1.67l-2.9711 2.969c-1.0968 1.097-2.6402 1.317-3.4629 0.494-0.2204-0.22-0.3597-0.493-0.4335-0.795-0.1428 0.686-0.0138 1.348 0.4335 1.795 0.8227 0.823 2.3661 0.603 3.4629-0.494l2.9711-2.971c0.803-0.803 1.129-1.844 0.927-2.668zm6.205 0c-0.201 0.824 0.125 1.865 0.928 2.668l2.969 2.971c1.097 1.097 2.642 1.317 3.465 0.494 0.447-0.447 0.576-1.109 0.433-1.795-0.073 0.302-0.213 0.575-0.433 0.795-0.823 0.823-2.368 0.603-3.465-0.494l-2.969-2.969c-0.5-0.5-0.808-1.094-0.928-1.67z" style="opacity:.2"/>
   <rect transform="matrix(0,-1,-1,0,0,0)" x="-30" y="-30" width="28" height="28" rx="14" ry="14" style="fill:#e74c3c"/>
   <rect transform="matrix(0,-1,-1,0,0,0)" x="-29" y="-28" width="24" height="24" rx="12" ry="12" style="opacity:.2"/>
   <path d="m16 2c-7.756 0-14 6.244-14 14 0 0.169 0.0195 0.333 0.0254 0.5 0.2637-7.5206 6.3874-13.5 13.975-13.5 7.587 0 13.711 5.9794 13.975 13.5 5e-3 -0.167 0.025-0.331 0.025-0.5 0-7.756-6.244-14-14-14z" style="fill:#ffffff;opacity:.2"/>
   <rect transform="matrix(0,-1,-1,0,0,0)" x="-28" y="-28" width="24" height="24" rx="12" ry="12" style="fill:#f8cac5"/>
   <path d="m16 6a1 1 0 0 0-1 1 1 1 0 0 0 1 1 1 1 0 0 0 1-1 1 1 0 0 0-1-1zm5.689453 5.005859c-0.09294 0.0115-0.185007 0.0406-0.271484 0.08984l-5.990235 3.412109c-0.81737 0.40148-1.128175 1.452747-0.796875 2.060547l2.177735 3.720703c0.39905 0.681761 1.27695 0.913502 1.96875 0.519532 0.69181-0.39398 0.928347-1.259606 0.529297-1.941406l-2.16211-3.695313 4.994141-2.84375c0.3459-0.19699 0.463302-0.631596 0.263672-0.972656-0.149723-0.255795-0.434083-0.384108-0.712891-0.34961zm-14.689453 3.994141a1 1 0 0 0-1 1 1 1 0 0 0 1 1 1 1 0 0 0 1-1 1 1 0 0 0-1-1zm18 0a1 1 0 0 0-1 1 1 1 0 0 0 1 1 1 1 0 0 0 1-1 1 1 0 0 0-1-1zm-9 9a1 1 0 0 0-1 1 1 1 0 0 0 1 1 1 1 0 0 0 1-1 1 1 0 0 0-1-1z" style="opacity:.7"/>
   <path d="m2.0254 16.5c-0.0059 0.167-0.0254 0.331-0.0254 0.5 0 7.756 6.244 14 14 14s14-6.244 14-14c0-0.169-0.02-0.333-0.025-0.5-0.264 7.521-6.388 13.5-13.975 13.5-7.5872 0-13.711-5.979-13.975-13.5z" style="opacity:.2"/>
   <path d="M 16,4 C 9.352,4 4,9.352 4,16 4,16.168838 4.018553,16.3329 4.0253906,16.5 4.2877843,10.087544 9.520838,5 16,5 22.479162,5 27.712216,10.087544 27.974609,16.5 27.981447,16.3329 28,16.168838 28,16 28,9.352 22.648,4 16,4 Z" style="fill:#ffffff;opacity:.2"/>
  </g>
 </g>
</svg>
