<?xml version="1.0" encoding="UTF-8"?>
<svg width="32" height="32" version="1" xmlns="http://www.w3.org/2000/svg">
 <g id="kate">
  <rect width="32" height="32" opacity=".001"/>
  <circle cx="16" cy="17" r="14" opacity=".2"/>
  <circle cx="16" cy="16" r="14" fill="#e4e4e4"/>
  <path d="m14.986 7.0039c-1.4748 0.048312-3.1386 0.50287-4.7559 1.6621-1.6791 1.2035-2.416 1.5316-3.2305 1.9316 0.72039 0.05439 5.0008-0.54419 5.8145 1.916-2.9202 1.0038-4.0848 2.592-3.7363 4.4375 0.013831 0.08563 0.029867 0.17226 0.050781 0.25977 0.00613 0.02343 0.012929 0.04681 0.019531 0.07031 0.067267 0.25934 0.15683 0.52374 0.28906 0.79883 0.19956 0.41515 0.4305 0.75415 0.67578 1.0625 0.05725 0.07811 0.10833 0.1559 0.16992 0.23438-0.0613-0.07722-0.10901-0.15268-0.16406-0.22852 1.3833 1.7331 3.4516 2.0359 5.8496 3.623 2.2068 1.4606 2.9393 2.2039 4.3633 4.2285-0.29611-2.7974-1.8565-6.4017-2.4961-7.9902l-0.04297-0.13281c2.0091 1.3866 4.3935 1.9102 7.207 2.1094-4.4669-3.1462-5.3143-3.5936-7.8711-5.75-1.7153 0.08555-1.5275 0.07151-2.5391 0.12891 0.30413 0.50164 0.6232 0.95727 0.95312 1.375 0.65676 1.6169 0.54852 3.3281-1.3301 3.7148-2.279 0.46912-4.7654-1.4758-4.1406-3.5605 0.67841-2.2638 3.6955-1.83 6.7676-2.2227 3.072-0.3927 5.8801-3.3735 7.5684-5.5801-2.4623 0.83128-5.4946 1.6089-8.9551 2.6191-0.68124-1.3523-1.4339-3.7651 3.1504-3.9375-0.16767-0.09164-0.35036-0.17072-0.54102-0.24219l-2e-3 -0.00195c-0.81952-0.33286-1.878-0.56458-3.0742-0.52539z" opacity=".1"/>
  <path d="m12.835 11.564c-0.7682-2.5235-5.1094-1.9111-5.8351-1.9659 0.81446-0.40004 1.5459-0.25209 3.2249-1.4556 3.2346-2.3185 5.5039-2.3493 7.2188-1.4286-4.6884 0.17635-2.6353 2.7624-1.9448 4.0941-0.87818 0.2524-2.2645 0.63341-2.6639 0.75599z" fill="#3aaaff"/>
  <path d="m24.408 8.092c-1.6883 2.2065-4.4952 5.1877-7.5673 5.5804-3.072 0.3927-6.0897-0.04234-6.7681 2.2215-0.62475 2.0848 1.8613 4.0312 4.1402 3.5621 2.4347-0.50117 1.9089-3.2316 0.5772-5.091 1.0115-0.05739 0.2166 0.29198 1.9319 0.20643l1.1142 3.4375c0.63957 1.5885 2.1991 5.1937 2.4953 7.9911-1.424-2.0246-2.1564-2.7686-4.3632-4.2292-2.8268-1.8709-5.2051-1.9343-6.5301-4.6908-1.3222-2.7505 0.71661-4.7318 3.8483-5.5899 4.4754-1.2262 8.1317-2.3888 11.122-3.3982z" fill="#008bff"/>
  <path d="m14.59 14.365c1.0115-0.0574 0.82336-0.04254 2.5387-0.12809 2.5568 2.1564 3.4042 2.6029 7.8711 5.7491-4.4898-0.3178-7.8869-1.4596-10.41-5.621z" fill="#3aaaff"/>
  <path d="m7 9.5985c0.81446-0.40004 1.5505-0.72979 3.2295-1.9333 3.2346-2.3185 6.6591-1.8129 8.3741-0.89213-4.6884 0.17635-4.0843 1.1007-4.1016 1.8253-3.115-0.64968-4.0245 0.23427-7.502 1.0002z" fill="#0cf"/>
  <path d="m18.604 6.773c-4.6884 0.17635-3.7952 2.7037-3.1046 4.0354-0.5471 0.15724-0.7795 0.33638-1.5109 0.5279-2.951-5.2028 2.207-5.8797 4.6155-4.5633z" fill="#008bff"/>
  <path d="m18.604 6.773c-4.6884 0.17635-3.7952 2.7037-3.1046 4.0354-0.5471 0.15724-0.7795 0.33638-1.5109 0.5279-2.951-5.2028 2.207-5.8797 4.6155-4.5633z" fill="#008bff"/>
  <path d="m10.282 18.376c-2.2942-2.923-1.5819-5.6022 2.9105-6.9942 4.4333-1.3737 8.2252-2.2806 11.215-3.29-8.0686 3.0419-18.261 5.0746-14.126 10.284z" fill="#0cf"/>
  <path d="M 16,2 A 14,14 0 0 0 2,16 14,14 0 0 0 2.0214844,16.585938 14,14 0 0 1 16,3 14,14 0 0 1 29.978516,16.414062 14,14 0 0 0 30,16 14,14 0 0 0 16,2 Z" fill="#fff" opacity=".2"/>
 </g>
 <g id="22-22-kate" transform="translate(27,5)">
  <rect x="5" y="5" width="22" height="22" opacity=".001"/>
  <path d="m15.212 8.0034c-1.1471 0.03865-2.4411 0.60256-3.699 1.5299-1.3059 0.96279-1.8791 1.2253-2.5126 1.5453 0.5603 0.04351 3.8895-0.63562 4.5224 1.3325-2.2713 0.80303-3.7772 2.0735-3.5062 3.5499 0.01076 0.0685 0.02323 0.1378 0.0395 0.20781 0.0048 0.01874 0.01006 0.03745 0.01519 0.05625 0.05232 0.20747 0.12198 0.41898 0.22483 0.63905 0.15522 0.33211 0.33483 0.60331 0.52561 0.84998 0.0013 0.0018 0.0033 0.0029 0.0046 0.0047 1.0759 1.3865 2.8852 1.6287 4.7503 2.8984 1.7164 1.1685 2.2861 1.7631 3.3937 3.3827-0.23031-2.2378-1.0444-5.1213-1.5418-6.3921l-0.03342-0.10625c1.5627 1.1093 3.4171 1.328 5.6055 1.4873-3.4742-2.5169-4.1334-2.6746-6.122-4.3998-1.3341 0.06844-1.1881 0.0572-1.9748 0.10312 0.23655 0.40131 0.48471 0.7658 0.74132 1.1 0.51081 1.2935 0.42662 2.6625-1.0345 2.9718-1.7725 0.37529-4.3066-1.1806-3.8207-2.8484 0.52765-1.811 3.4745-1.4639 5.8639-1.7781 2.3894-0.31415 4.0336-2.3725 5.3467-4.1377-1.9151 0.66501-3.9335 0.96084-6.625 1.769-0.52985-1.0818-0.91559-3.012 2.65-3.1499-0.13041-0.07331-0.2725-0.13657-0.42079-0.19375-0.63769-0.26672-1.4613-0.45324-2.3926-0.42187z" fill="#aaaaac"/>
 </g>
</svg>
