<svg id="svg" width="32" height="32" version="1.1" viewBox="0 0 32 32" xmlns="http://www.w3.org/2000/svg">
 <g id="16-16-kdeconnect" transform="translate(54,-10)">
  <rect y="26" width="16" height="16" rx="0" ry="0" style="fill-opacity:.80740739;fill:#5f666d;opacity:.00100002"/>
  <path d="m4.798828 28c-0.8 0-0.798828 0.75-0.798828 0.75v10.5s-0.0012 0.75 0.798828 0.75h6.400391c0.8 0 0.800781-0.75 0.800781-0.75v-10.5s-8.42e-4 -0.75-0.800781-0.75zm1.201172 2h4v6h-4zm2 7c0.552285 0 1 0.447715 1 1s-0.447715 1-1 1-1-0.447715-1-1 0.447715-1 1-1z" style="fill:#aaaaac;filter:url(#filter7554)"/>
 </g>
 <g id="22-22-kdeconnect" transform="translate(32,10)">
  <rect width="22" height="22" rx="0" ry="0" style="fill:#111213;opacity:.00100002"/>
  <path d="m7 3c-1 0-1 1-1 1v14s0 1 1 1h8c1 0 1-1 1-1v-14s0-1-1-1zm7 3v9h-6v-8.9980469zm-3 10a1 1 0 0 1 1 1 1 1 0 0 1-1 1 1 1 0 0 1-1-1 1 1 0 0 1 1-1z" style="fill:#aaaaac;filter:url(#filter7554)"/>
 </g>
 <g id="kdeconnect">
  <rect width="32" height="32" rx="0" ry="0" style="opacity:.00100002"/>
  <g>
   <rect x="4" y="2" width="23" height="30" rx="1.5" ry="1.5" style="opacity:.2"/>
   <rect x="4" y="1" width="23" height="30" rx="1.5" ry="1.5" style="fill:#8e8e8e"/>
   <rect x="6" y="4" width="19" height="22" rx="1.5" ry="1.5" style="opacity:.5"/>
   <rect x="12" y="2" width="7" height="1" rx=".5" ry=".5" style="opacity:.5"/>
   <circle cx="15.5" cy="28.5" r="1.5" style="opacity:.5"/>
   <path d="m5.5 1c-0.831 0-1.5 0.669-1.5 1.5v1c0-0.831 0.669-1.5 1.5-1.5h20c0.831 0 1.5 0.669 1.5 1.5v-1c0-0.831-0.669-1.5-1.5-1.5z" style="fill:#ffffff;opacity:.2"/>
   <path d="m17.01563 7.9746074-3.015625 0.5253906v10.38672l3-0.386719-0.01563-4.681642 3.539063 5.181642 3.476562-0.5-4-5.363282 4.013672-4.5000002-3.519526-0.6484376-3.509766 4.4999998zm-6.341797 2.6523436c-0.02897 0.0024-0.0563 0.01511-0.07813 0.03711l-1.0351561 1.046875c-0.04495 0.0453-0.052447 0.115922-0.017578 0.169922l1.2500001 1.919922c-0.235809 0.418481-0.413984 0.877322-0.529297 1.357422l-2.1582032 0.529297c-0.059906 0.0147-0.1054688 0.06886-0.1054688 0.130859v1.363282c0 0.062 0.045563 0.116159 0.1054688 0.130859l2.1582032 0.529297c0.115313 0.480101 0.293488 0.938943 0.529297 1.357423l-1.2500002 1.919922c-0.034868 0.054-0.027372 0.124623 0.017578 0.169921l1.0351562 1.046876c0.04364 0.044 0.111357 0.04763 0.164063 0.01562l1.958984-1.201167c0.384328 0.2239 0.98551 0.404037 1.423828 0.523437l0.458985 2.216797c0.01275 0.064 0.06358 0.109375 0.126953 0.109375h1.542968c0.06338 0 0.114202-0.04537 0.126954-0.109375l0.458984-2.216797c0.438319-0.1194 1.039502-0.299537 1.423828-0.523437l1.958984 1.201171c0.05271 0.032 0.120422 0.02838 0.164063-0.01562l1.035156-1.046876c0.04495-0.0453 0.05245-0.115921 0.01758-0.169921l-1.04101-1.59961-0.128907 0.01953-0.730468-1.070312c-0.746065 1.563963-2.323843 2.560614-4.056641 2.5625-2.485281 0-4.5-2.014719-4.5-4.500001 0.0014-1.708129 0.969847-3.26818 2.499998-4.027347v-0.982422c-0.285238 0.0951-0.565511 0.202441-0.78125 0.328125l-1.958984-1.201172c-0.02635-0.016-0.05696-0.02389-0.08594-0.02148z" style="opacity:.2"/>
   <path d="m17.01563 6.9746074-3.015625 0.5253906v10.38672l3-0.386719-0.01563-4.681642 3.539063 5.181642 3.476562-0.5-4-5.363282 4.013672-4.5000002-3.519526-0.6484376-3.509766 4.4999998zm-6.341797 2.6523436c-0.02897 0.0024-0.0563 0.01511-0.07813 0.03711l-1.0351561 1.046875c-0.04495 0.0453-0.052447 0.115922-0.017578 0.169922l1.2500001 1.919922c-0.235809 0.418481-0.413984 0.877322-0.529297 1.357422l-2.1582032 0.529297c-0.059906 0.0147-0.1054688 0.06886-0.1054688 0.130859v1.363282c0 0.062 0.045563 0.116159 0.1054688 0.130859l2.1582032 0.529297c0.115313 0.480101 0.293488 0.938943 0.529297 1.357423l-1.2500002 1.919922c-0.034868 0.054-0.027372 0.124623 0.017578 0.169921l1.0351562 1.046876c0.04364 0.044 0.111357 0.04763 0.164063 0.01562l1.958984-1.201167c0.384328 0.2239 0.98551 0.404037 1.423828 0.523437l0.458985 2.216797c0.01275 0.064 0.06358 0.109375 0.126953 0.109375h1.542968c0.06338 0 0.114202-0.04537 0.126954-0.109375l0.458984-2.216797c0.438319-0.1194 1.039502-0.299537 1.423828-0.523437l1.958984 1.201171c0.05271 0.032 0.120422 0.02838 0.164063-0.01562l1.035156-1.046876c0.04495-0.0453 0.05245-0.115921 0.01758-0.169921l-1.04101-1.59961-0.128907 0.01953-0.730468-1.070312c-0.746065 1.563963-2.323843 2.560614-4.056641 2.5625-2.485281 0-4.5-2.014719-4.5-4.500001 0.0014-1.708129 0.969847-3.26818 2.499998-4.027347v-0.982422c-0.285238 0.0951-0.565511 0.202441-0.78125 0.328125l-1.958984-1.201172c-0.02635-0.016-0.05696-0.02389-0.08594-0.02148z" style="fill:#ffffff"/>
  </g>
 </g>
</svg>
