<svg width="32" height="32" version="1.1" xmlns="http://www.w3.org/2000/svg">
 <g id="16-16-kdf" transform="matrix(-1,0,0,1,50,10)">
  <rect x="-20" y="6" width="16" height="16" ry="0" style="fill-opacity:.67054264;fill:#131313;opacity:.00100002"/>
  <path d="m-17 7c-1 0-1 1-1 1v12s0 1 1 1h10s1 0 1-1v-12s0-1-1-1zm5 2c2.20914 0 4 1.79086 4 4s-1.79086 4-4 4h-4v-4c0-2.20914 1.79086-4 4-4zm0 2c-1.10457 0-2 0.89543-2 2s0.89543 2 2 2 2-0.89543 2-2-0.89543-2-2-2z" style="fill:#aaaaac;filter:url(#filter7554)"/>
 </g>
 <g id="22-22-kdf" transform="matrix(-1,0,0,1,54,10)">
  <rect width="22" height="22" ry="1.375" style="fill:#dfdfdf;opacity:.00100002"/>
  <path d="m5.166016 3c-1.166666 0-1.166016 1.142578-1.166016 1.142578v13.714844s-6.5e-4 1.142578 1.166016 1.142578h11.667968s1.166016 2.79e-4 1.166016-1.142578v-13.714844s6.5e-4 -1.142578-1.166016-1.142578zm5.833984 2c2.761425 0 5 2.238575 5 5s-2.238575 5-5 5h-5v-5c0-2.761425 2.238573-5 5-5zm0 3c-1.10457 0-2 0.89543-2 2s0.89543 2 2 2 2-0.89543 2-2-0.89543-2-2-2z" style="fill:#aaaaac;filter:url(#filter7554)"/>
 </g>
 <g id="kdf">
  <rect transform="scale(-1,1)" x="-32" width="32" height="32" rx="3.349" ry="2.145" style="opacity:.00100002"/>
  <g transform="matrix(-1,0,0,1,32,0)">
   <rect transform="matrix(0,-1,-1,0,0,0)" x="-31" y="-27" width="28" height="22" rx="2" ry="2" style="opacity:.2"/>
   <rect transform="matrix(0,-1,-1,0,0,0)" x="-30" y="-27" width="28" height="22" rx="2" ry="2" style="fill:#20b68b"/>
   <path d="m16 6c-3.866 0-7 3.134-7 7v7h7c3.866 0 7-3.134 7-7s-3.134-7-7-7zm0 4a3 3 0 0 1 3 3 3 3 0 0 1-3 3 3 3 0 0 1-3-3 3 3 0 0 1 3-3z" style="opacity:.5"/>
   <path d="m7 2c-1.108 0-2 0.892-2 2v1c0-1.108 0.892-2 2-2h18c1.108 0 2 0.892 2 2v-1c0-1.108-0.892-2-2-2z" style="fill:#ffffff;opacity:.2"/>
  </g>
 </g>
</svg>
