<svg width="32" height="32" style="enable-background:new" version="1.1" xmlns="http://www.w3.org/2000/svg">
 <g id="22-22-kget" transform="translate(32,10)">
  <path d="m 0.25,0 h 21.5 C 21.8885,0 22,0.111499 22,0.250001 V 21.75 C 22,21.8885 21.88849,22 21.75,22 H 0.25 C 0.1115,22 0,21.888501 0,21.75 V 0.250001 C 0,0.1115 0.11151,0 0.25,0 Z" style="fill:#00000f;opacity:.00100002"/>
  <path d="m11 3a8 8 0 0 0-8 8 8 8 0 0 0 8 8 8 8 0 0 0 8-8 8 8 0 0 0-8-8zm-1 2h2v5h2.5l-3.5 5h4v1h-8v-1h4l-3.5-5h2.5z" style="fill:#aaaaac"/>
 </g>
 <g id="kget">
  <rect width="32" height="32" style="fill:#00000f;opacity:.00100002"/>
  <g transform="translate(-3.95e-4)">
   <rect transform="matrix(0,-1,-1,0,0,0)" x="-30" y="-30" width="28" height="28" rx="14" ry="14" style="fill:#37a0f2"/>
   <path d="m14.667 9c-0.37 0-0.667 0.2283-0.667 0.5122v7.8356h-2.6667l4.667 6.261 4.6667-6.2609h-2.6667v-7.8356c0-0.28397-0.29733-0.51223-0.66667-0.51223h-2.6667zm1.333 14.609h-5.3997c-0.332 0-0.6 0.31-0.6 0.695 0 0.386 0.268 0.696 0.6 0.696h10.799c0.333 0 0.601-0.31 0.601-0.696 0-0.385-0.268-0.695-0.6-0.695h-5.3997z" style="opacity:.2"/>
   <path d="m16 2c-7.756 0-14 6.244-14 14 0 0.16884 0.01952 0.33264 0.02539 0.5 0.2641-7.5206 6.3878-13.5 13.975-13.5s13.711 5.9794 13.975 13.5c6e-3 -0.16736 0.0254-0.33116 0.0254-0.5 0-7.756-6.244-14-14-14z" style="fill:#ffffff;opacity:.1"/>
   <path d="m14.667 8c-0.37 0-0.667 0.2283-0.667 0.5122v7.8356h-2.6667l4.667 6.261 4.6667-6.2609h-2.6667v-7.8356c0-0.28397-0.29733-0.51223-0.66667-0.51223h-2.6667zm1.333 14.609h-5.3997c-0.332 0-0.6 0.31-0.6 0.695 0 0.386 0.268 0.696 0.6 0.696h10.799c0.333 0 0.601-0.31 0.601-0.696 0-0.385-0.268-0.695-0.6-0.695h-5.3997z" style="fill:#ffffff"/>
   <path d="m2.0254 16.5c-0.0059 0.167-0.0254 0.331-0.0254 0.5 0 7.756 6.244 14 14 14s14-6.244 14-14c0-0.16884-0.01952-0.33264-0.02539-0.5-0.264 7.521-6.388 13.5-13.975 13.5-7.5872 0-13.711-5.979-13.975-13.5z" style="opacity:.2"/>
  </g>
 </g>
</svg>
