<svg width="32" height="32" style="enable-background:new" version="1.1" xmlns="http://www.w3.org/2000/svg">
 <g id="16-16-kgpg" transform="translate(-296,302)" style="enable-background:new">
  <rect x="350" y="-286" width="16" height="16" style="fill:#ff7dff;opacity:.00100002"/>
  <path d="m357.99759-285.00336c-2.216 0-4 1.82162-4 4.0625v1.9375h-1c-0.554 0-1 0.446-1 1v6c0 0.554 0.446 1 1 1h10c0.554 0 1-0.446 1-1v-6c0-0.554-0.446-1-1-1h-1v-1.9375c0-2.24-1.784-4.0625-4-4.0625zm0 2c1.108 0 2 0.892 2 2v2h-4v-2c0-1.108 0.892-2 2-2zm-4 6h8v4h-8z" style="fill:#aaaaac"/>
 </g>
 <g id="22-22-kgpg" transform="translate(-315,267)" style="enable-background:new">
  <rect x="347" y="-257" width="22" height="22" style="fill-opacity:.40392157;fill:#2b0000;opacity:.00100002"/>
  <path transform="translate(346.99759,-257.00336)" d="m11 3c-5.00262-3e-3 -5 4.6425781-5 4.6425781v2.3574219h-0.8339844c-0.64633 0-1.1660156 0.36686-1.1660156 1v6.857422c0 0.63315 0.5196856 1.142578 1.1660156 1.142578h11.667968c0.64633 0 1.166016-0.509428 1.166016-1.142578v-6.857422c0-0.63314-0.528976-0.89079-1.166016-1h-0.833984v-2.3574219s3e-3 -4.6392181-5-4.6425781zm0 3c2.00262-3e-3 2 1.5722656 2 1.5722656v2.4277344h-4v-2.4277344s0.00301-1.5689056 2-1.5722656zm-4 7h8v3h-8z" style="fill:#aaaaac"/>
 </g>
 <g id="kgpg">
  <rect width="32" height="32" style="fill:#00000f;opacity:.00100002"/>
  <g>
   <path d="m15.9998 2c-4.432 0-8 3.568-8 8v3h3v-3c0-2.77 2.23-5 5-5s5 2.23 5 5v3h3v-3c0-4.432-3.568-8-8-8z" style="fill:#d2d2d2"/>
   <rect transform="matrix(0,-1,-1,0,0,0)" x="-30" y="-27" width="17" height="22" rx="1.4" ry="1.4" style="fill:#fecd38"/>
   <path d="m15.9998 2c-4.432 0-8 3.568-8 8v1c0-4.432 3.568-8 8-8s8 3.568 8 8v-1c0-4.432-3.568-8-8-8z" style="fill:#ffffff;opacity:.1"/>
   <path d="m6.4002 13c-0.7756 0-1.4004 0.625-1.4004 1.4v1c0-0.775 0.6248-1.4 1.4004-1.4h19.2c0.775 0 1.4 0.625 1.4 1.4v-1c0-0.775-0.625-1.4-1.4-1.4z" style="fill:#ffffff;opacity:.1"/>
   <path d="m4.9998 27.6v1c0 0.775 0.6248 1.4 1.4004 1.4h19.2c0.775 0 1.4-0.625 1.4-1.4v-1c0 0.775-0.625 1.4-1.4 1.4h-19.2c-0.7752 0-1.4-0.625-1.4-1.4z" style="fill:#cb9a05"/>
   <path d="m4.9998 26.6v1c0 0.775 0.6248 1.4 1.4004 1.4h19.2c0.775 0 1.4-0.625 1.4-1.4v-1c0 0.775-0.625 1.4-1.4 1.4h-19.2c-0.7752 0-1.4-0.625-1.4-1.4z" style="fill:#ffffff;opacity:.1"/>
   <rect x="8" y="17" width="16" height="10" rx="0" ry="0" style="opacity:.2"/>
   <rect x="8" y="16" width="16" height="10" rx="0" ry="0" style="fill:#ffffff"/>
   <path d="m15.9998 5c-2.77 0-5 2.23-5 5v1c0-2.77 2.23-5 5-5s5 2.23 5 5v-1c0-2.77-2.23-5-5-5zm-11 23.6v1c0 0.775 0.6248 1.4 1.4004 1.4h19.2c0.775 0 1.4-0.625 1.4-1.4v-1c0 0.775-0.625 1.4-1.4 1.4h-19.2c-0.7752 0-1.4-0.625-1.4-1.4z" style="opacity:.2"/>
  </g>
 </g>
</svg>
