<svg width="32" height="32" version="1.1" viewBox="0 0 32 32" xmlns="http://www.w3.org/2000/svg">
 <g id="kleopatra">
  <rect width="32" height="32" style="fill:#000000;opacity:.00100002"/>
  <rect x="2" y="3" width="28" height="28" rx="8.3999996" ry="8.3999996" style="opacity:.2"/>
  <rect x="2" y="2" width="28" height="28" rx="8.3999996" ry="8.3999996" style="fill:#d5a43a"/>
  <path d="m14.009766 9c-1.888723 0-3.877411 0.5200791-5.9218754 1.544922-1.6641381 0.834193-2.3759213 1.52025-1.9824218 1.916016 0.1388084 0.139611 0.044028 0.16939 2.375-0.744141 1.5929982-0.624312 3.5521962-1.150189 4.6113282-1.240234 1.63539-0.139038 3.583151 0.192752 7.03125 1.458984 1.238221 0.454706 2.662177 0.832056 3.164062 0.960937 1.073378 0.275638 1.185168 0.233272 2.080079 0.236328l0.632812 0.001954v-0.441407c0-0.61669-0.07421-0.675781-0.847656-0.675781-1.724294 0-2.152859-0.179705-4.748047-1.335937-2.779679-1.2384311-4.464927-1.681641-6.394531-1.681641zm-1.664063 4.005859c-0.29358 0.01094-0.556837 0.03988-0.767578 0.08399-0.971979 0.203377-2.2718941 0.94337-3.0703125 1.693359-1.2375826 1.162514-2.6350231 3.334787-2.4980469 3.882813 0.061683 0.246781 0.1243646 0.262319 1.2148438 0.308593 0.6330357 0.02686 1.8738911 0.173798 2.8457026 0.324219l1.539063 0.271484v0.765626c-0.304814 1.402457-0.08549 2.161107-0.03125 2.671874 0.203134 1.848577 0.205506 2.049367 0.675781 1.982422 0.726472-1.199661 0.809191-3.502192 0.814453-4.828125l0.742188 0.730469c0.750873 0.672771 1.295054 1.031823 1.763672 1.275391 2.046401 1.063633 4.352219 1.868688 6.572265 1.726562 0.855448 0 1.936201-0.964696 1.935547-2.078125-3.52e-4 -0.858547-0.237555-1.321832-0.816406-1.597656-1.064149-0.507072-2.244141 0.09533-2.244141 1.220703 0 1.104524 1.046839 1.715817 1.742188 1.017578 0.290057-0.291267 0.36223-0.778797 0.15625-1.074219-0.09142-0.131115-0.100053-0.111185-0.04297 0.0918 0.197004 0.700483-0.341247 1.186008-0.958984 0.865235-0.645589-0.335234-0.522241-1.412447 0.18164-1.589844 0.347684-0.08764 0.95563 0.220222 1.183594 0.6875 0.122849 0.251802 0.126793 0.402965 0.02148 0.755859-0.345422 1.157711-2.342433 0.954057-4.671876-0.02539-1.521238-0.639626-3.220393-1.514255-4.054687-2.232422-0.576022-0.508258-0.224978-0.394528 1.277344-0.640625 0.431919-0.07074 1.996783-0.439331 3.107422-0.81836 1.973107-0.673359 2.046167-1.088946 3.251953-1.097656 0.678729-5e-3 -0.448337-0.04728 0.677734 2e-3l2.107428 0.087836v-2.429688l-2.443359-0.0625c-3.408436-0.08989-1.745572 0.390159-5.263672-0.974609-0.671778-0.260598-1.387704-0.573915-1.857422-0.697265-0.83299-0.218748-2.209099-0.331656-3.089844-0.298829zm3.992188 1.779297c0.04084 0 0.623058 0.329229 1.560547 0.732422 0.937491 0.403196 1.824913 0.76159 1.972656 0.798828 0.147748 0.03724 0.269531 0.108508 0.269531 0.15625 0 0.04774-0.569518 0.370688-1.263672 0.716797-1.415608 0.705828-2.255222 1.002122-3.623047 1.070313l-0.33789 0.01367 0.365234-0.289063c0.200572-0.158729 0.504183-0.524665 0.673828-0.814453 0.269149-0.459751 0.308594-0.64606 0.308594-1.457031 0-0.511162 0.03338-0.927736 0.07422-0.927735zm-6.109375 0.242188c0.168136-0.03198 0.166392 0.230838 0.167968 0.753906 0.0032 1.029359 0.249412 1.589457 0.957032 2.179688l0.464843 0.386718-2.1738278-0.203125c-1.1555861-0.110692-2.0546026-0.224394-2.0859374-0.255859-0.1123146-0.11278 0.5075928-0.975815 1.4160156-1.851563 0.6763876-0.65206 1.0857746-0.977775 1.2539066-1.009765z" style="opacity:.1"/>
  <path d="m14.009766 8c-1.888723 0-3.877411 0.5200791-5.9218754 1.5449219-1.6641381 0.8341931-2.3759213 1.5202501-1.9824218 1.9160161 0.1388084 0.139611 0.044028 0.16939 2.375-0.744141 1.5929982-0.624312 3.5521962-1.1501888 4.6113282-1.2402345 1.63539-0.1390379 3.583151 0.1927527 7.03125 1.4589845 1.238221 0.454706 2.662177 0.832056 3.164062 0.960937 1.073378 0.275638 1.185168 0.233272 2.080079 0.236328l0.632812 0.001954v-0.441407c0-0.61669-0.07421-0.675781-0.847656-0.675781-1.724294 0-2.152859-0.179705-4.748047-1.3359374-2.779679-1.2384307-4.464927-1.6816406-6.394531-1.6816406zm-1.664063 4.005859c-0.29358 0.01094-0.556837 0.03988-0.767578 0.08399-0.971979 0.203377-2.2718941 0.94337-3.0703125 1.693359-1.2375826 1.162514-2.6350231 3.334787-2.4980469 3.882813 0.061683 0.246781 0.1243646 0.262319 1.2148438 0.308593 0.6330357 0.02686 1.8738911 0.173798 2.8457026 0.324219l1.539063 0.271484v0.765626c-0.304814 1.402457-0.08549 2.161107-0.03125 2.671874 0.203134 1.848577 0.205506 2.049367 0.675781 1.982422 0.726472-1.199661 0.809191-3.502192 0.814453-4.828125l0.742188 0.730469c0.750873 0.672771 1.295054 1.031823 1.763672 1.275391 2.046401 1.063633 4.352219 1.868688 6.572265 1.726562 0.855448 0 1.936201-0.964696 1.935547-2.078125-3.52e-4 -0.858547-0.237555-1.321832-0.816406-1.597656-1.064149-0.507072-2.244141 0.09533-2.244141 1.220703 0 1.104524 1.046839 1.715817 1.742188 1.017578 0.290057-0.291267 0.36223-0.778797 0.15625-1.074219-0.09142-0.131115-0.100053-0.111185-0.04297 0.0918 0.197004 0.700483-0.341247 1.186008-0.958984 0.865235-0.645589-0.335234-0.522241-1.412447 0.18164-1.589844 0.347684-0.08764 0.95563 0.220222 1.183594 0.6875 0.122849 0.251802 0.126793 0.402965 0.02148 0.755859-0.345422 1.157711-2.342433 0.954057-4.671876-0.02539-1.521238-0.639626-3.220393-1.514255-4.054687-2.232422-0.576022-0.508258-0.224978-0.394528 1.277344-0.640625 0.431919-0.07074 1.996783-0.439331 3.107422-0.81836 1.973107-0.673359 2.046167-1.088946 3.251953-1.097656 0.678729-5e-3 -0.448337-0.04728 0.677734 2e-3l2.107428 0.087836v-2.429688l-2.443359-0.0625c-3.408436-0.08989-1.745572 0.390159-5.263672-0.974609-0.671778-0.260598-1.387704-0.573915-1.857422-0.697265-0.83299-0.218748-2.209099-0.331656-3.089844-0.298829zm3.992188 1.779297c0.04084 0 0.623058 0.329229 1.560547 0.732422 0.937491 0.403196 1.824913 0.76159 1.972656 0.798828 0.147748 0.03724 0.269531 0.108508 0.269531 0.15625 0 0.04774-0.569518 0.370688-1.263672 0.716797-1.415608 0.705828-2.255222 1.002122-3.623047 1.070313l-0.33789 0.01367 0.365234-0.289063c0.200572-0.158729 0.504183-0.524665 0.673828-0.814453 0.269149-0.459751 0.308594-0.64606 0.308594-1.457031 0-0.511162 0.03338-0.927736 0.07422-0.927735zm-6.109375 0.242188c0.168136-0.03198 0.166392 0.230838 0.167968 0.753906 0.0032 1.029359 0.249412 1.589457 0.957032 2.179688l0.464843 0.386718-2.1738278-0.203125c-1.1555861-0.110692-2.0546026-0.224394-2.0859374-0.255859-0.1123146-0.11278 0.5075928-0.975815 1.4160156-1.851563 0.6763876-0.65206 1.0857746-0.977775 1.2539066-1.009765z" style="fill:#482f00"/>
  <path d="M 10.400391,2 C 5.7467908,2 2,5.7467908 2,10.400391 v 1 C 2,6.7467908 5.7467908,3 10.400391,3 H 21.599609 C 26.253209,3 30,6.7467908 30,11.400391 v -1 C 30,5.7467908 26.253209,2 21.599609,2 Z" style="fill:#ffffff;opacity:.2"/>
 </g>
 <g id="22-22-kleopatra" transform="translate(27,4.9999997)">
  <rect x="5" y="5" width="22" height="22" style="fill:#000000;opacity:.00100002"/>
  <path d="m14.010006 7.9995466c-1.888723 0-3.877411 0.520079-5.9218754 1.544922-1.664138 0.8341934-2.375921 1.5202504-1.982422 1.9160164 0.138808 0.139611 0.04403 0.16939 2.375-0.744141 1.5929984-0.624312 3.5521964-1.1501894 4.6113284-1.2402344 1.63539-0.139038 3.583151 0.192752 7.03125 1.4589844 1.238221 0.454706 2.662177 0.832056 3.164062 0.960937 1.073378 0.275638 1.185168 0.233272 2.080079 0.236328l0.632812 2e-3v-0.441407c0-0.61669-0.07421-0.675781-0.847656-0.675781-1.724294 0-2.152859-0.179705-4.748047-1.3359374-2.779679-1.238431-4.464927-1.681641-6.394531-1.681641zm-1.664063 4.0058594c-0.29358 0.01094-0.556837 0.03988-0.767578 0.08399-0.971979 0.203377-2.2718944 0.94337-3.0703124 1.693359-1.237583 1.162514-2.635023 3.334787-2.498047 3.882813 0.06168 0.246781 0.124364 0.262319 1.214844 0.308593 0.633035 0.02686 1.873891 0.173798 2.8457024 0.324219l1.539063 0.271484v0.765626c-0.304814 1.402457-0.08549 2.161107-0.03125 2.671874 0.203134 1.848577 0.205506 2.049367 0.675781 1.982422 0.726472-1.199661 0.809191-3.502192 0.814453-4.828125l0.742188 0.730469c0.750873 0.672771 1.295054 1.031823 1.763672 1.275391 2.046401 1.063633 4.352219 1.868688 6.572265 1.726562 0.855448 0 1.936201-0.964696 1.935547-2.078125-3.52e-4 -0.858547-0.237555-1.321832-0.816406-1.597656-1.064149-0.507072-2.244141 0.09533-2.244141 1.220703 0 1.104524 1.046839 1.715817 1.742188 1.017578 0.290057-0.291267 0.36223-0.778797 0.15625-1.074219-0.09142-0.131115-0.100053-0.111185-0.04297 0.0918 0.197004 0.700483-0.341247 1.186008-0.958984 0.865235-0.645589-0.335234-0.522241-1.412447 0.18164-1.589844 0.347684-0.08764 0.95563 0.220222 1.183594 0.6875 0.122849 0.251802 0.126793 0.402965 0.02148 0.755859-0.345422 1.157711-2.342433 0.954057-4.671876-0.02539-1.521238-0.639626-3.220393-1.514255-4.054687-2.232422-0.576022-0.508258-0.224978-0.394528 1.277344-0.640625 0.431919-0.07074 1.996783-0.439331 3.107422-0.81836 1.973107-0.673359 2.046167-1.088946 3.251953-1.097656 0.678729-5e-3 -0.448337-0.04728 0.677734 2e-3l2.107428 0.08784v-2.429688l-2.443359-0.0625c-3.408436-0.08989-1.745572 0.390159-5.263672-0.974609-0.671778-0.260598-1.387704-0.573915-1.857422-0.697265-0.83299-0.218748-2.209099-0.331656-3.089844-0.298829zm3.992188 1.779297c0.04084 0 0.623058 0.329229 1.560547 0.732422 0.937491 0.403196 1.824913 0.76159 1.972656 0.798828 0.147748 0.03724 0.269531 0.108508 0.269531 0.15625 0 0.04774-0.569518 0.370688-1.263672 0.716797-1.415608 0.705828-2.255222 1.002122-3.623047 1.070313l-0.33789 0.01367 0.365234-0.289063c0.200572-0.158729 0.504183-0.524665 0.673828-0.814453 0.269149-0.459751 0.308594-0.64606 0.308594-1.457031 0-0.511162 0.03338-0.927736 0.07422-0.927735zm-6.109375 0.242188c0.168136-0.03198 0.166392 0.230838 0.167968 0.753906 0.0032 1.029359 0.249412 1.589457 0.957032 2.179688l0.464843 0.386718-2.1738284-0.203125c-1.155586-0.110692-2.054602-0.224394-2.085937-0.255859-0.112315-0.11278 0.507593-0.975815 1.416016-1.851563 0.676387-0.65206 1.0857744-0.977775 1.2539064-1.009765z" style="fill:#aaaaac"/>
 </g>
</svg>
