<svg width="32" height="32" style="enable-background:new" version="1.1" xmlns="http://www.w3.org/2000/svg">
 <g id="22-22-kmail" transform="translate(-435.0002,-125)">
  <path d="m467.0002 135h22v22h-22z" style="fill-opacity:.40392157;fill:#2b0000;opacity:.00100002"/>
  <path d="m472.00009 140c-1.108 0-2 0.892-2 2v8c0 1.108 0.892 2 2 2h12c1.108 0 2-0.892 2-2v-8c0-1.108-0.892-2-2-2zm0 2 6 3 6-3v2l-6 3-6-3z" style="fill:#aaaaac"/>
 </g>
 <g id="kmail">
  <rect width="32" height="32" style="opacity:.00100002"/>
  <g transform="translate(-3.4e-4,-7.5e-4)">
   <path d="m2.637 10.827c-0.02875 0.0187-0.05481 0.0408-0.08204 0.0615l-0.0164 0.0123v2e-3c-0.3259 0.2559-0.53868 0.64951-0.53868 1.0979l1.5e-5 12.199c2e-6 2 1.5771 2 2 2h24s2 0 2-2l-2e-5 -12.199c0-0.45851-0.22188-0.86056-0.56054-1.1156l6e-3 -8e-3 -13.445-9.876s-13.445 9.8886-13.363 9.8271z" style="fill:#fe9700"/>
   <path d="m16 1.002s-13.445 9.888-13.363 9.826l-3e-4 -2e-3c-0.0287 0.019-0.0548 0.042-0.082 0.063l-0.0156 0.011v2e-3c-0.3259 0.256-0.5391 0.65-0.5391 1.098v1.002c0-0.448 0.2132-0.844 0.5391-1.1v-2e-3l0.0156-0.011c0.0272-0.021 0.0533-0.042 0.082-0.061-0.082 0.062 13.363-9.826 13.363-9.826l13.445 9.875-6e-3 8e-3c0.339 0.255 0.561 0.658 0.561 1.117v-1.002c0-0.459-0.222-0.86-0.561-1.115l6e-3 -8e-3 -13.445-9.875z" style="fill:#ffffff;opacity:.1"/>
   <rect x="5" y="4" width="22" height="18" rx="1.5" ry="1.499" style="fill:#ebebeb"/>
   <path d="m2 12 26 18h-24c-1-8e-6 -2-0.4945-2-1.978z" style="fill:#fec006"/>
   <path d="m28 30c2 0 2-1.978 2-1.978v-16.022l-26 18z" style="fill:#fecd38"/>
   <path d="m16 7a5 5 0 0 0-5 5 5 5 0 0 0 5 5h3.5c0.277 0 0.5-0.223 0.5-0.5s-0.223-0.5-0.5-0.5h-3.5a4 4 0 0 1-4-4 4 4 0 0 1 4-4 4 4 0 0 1 4 4v1.5c0 0.277-0.223 0.5-0.5 0.5s-0.5-0.223-0.5-0.5v-1.5a3 3 0 0 0-3-3 3 3 0 0 0-3 3 3 3 0 0 0 3 3 3 3 0 0 0 2.1309-0.89062c0.233 0.525 0.756 0.891 1.369 0.891 0.831 0 1.5-0.669 1.5-1.5v-1.5a5 5 0 0 0-5-5zm0 3a2 2 0 0 1 2 2 2 2 0 0 1-2 2 2 2 0 0 1-2-2 2 2 0 0 1 2-2z" style="fill:#848484"/>
   <path d="m2 28v1c0 1.2374 0.68276 1.7863 1.4824 1.9434l-0.082 0.057h25.2l-0.0957-0.06641c1.4803-0.31236 1.4961-1.9336 1.4961-1.9336v-1s-0.01579 1.6212-1.4961 1.9336l0.096 0.066h-25.2l0.082-0.057c-0.7996-0.157-1.4824-0.706-1.4824-1.943z" style="opacity:.2"/>
  </g>
 </g>
</svg>
