<svg width="32" height="32" style="enable-background:new" version="1.1" xmlns="http://www.w3.org/2000/svg">
 <defs>
  <clipPath id="clipPath4483">
   <path d="m91.5 254c-0.831 0-1.5 0.669-1.5 1.5v25c0 0.831 0.669 1.5 1.5 1.5h16.5l10-10v-16.5c0-0.831-0.669-1.5-1.5-1.5z" style="fill:#fecd38"/>
  </clipPath>
 </defs>
 <g id="22-22-knotes">
  <path d="m32 10h22v22h-22v-22z" style="opacity:.00100002"/>
  <path d="m36.933594 13c-0.93334 0-0.933594 1.230469-0.933594 1.230469v13.539062s2.54e-4 1.230469 0.933594 1.230469h7.066406l6-6v-8.769531c0-1.23077-0.933594-1.230469-0.933594-1.230469zm1.066406 3h10v2h-10zm0 4h10v2h-10zm0 4h6v2h-6z" style="fill:#aaaaac"/>
 </g>
 <g id="knotes">
  <rect width="32" height="32" style="opacity:.00100002"/>
  <g>
   <path d="m4 2s-2 0-2 2v24c0 2 2 2 2 2h16l10-10v-16c0-2-2-2-2-2z" style="fill:#fecd38"/>
   <path transform="translate(-88,-252)" d="m118 272h-8.5c-0.82843 0-1.5 0.67158-1.5 1.5v8.5z" clip-path="url(#clipPath4483)" style="opacity:.2"/>
   <path d="m30 20h-8.5c-0.828 0-1.5 0.672-1.5 1.5v8.5z" style="fill:#ffe69b"/>
   <path d="m21.5 20c-0.828 0-1.5 0.672-1.5 1.5v1c0-0.828 0.672-1.5 1.5-1.5h7.5l1-1z" style="fill:#ffffff;opacity:.1"/>
   <path d="m4 2c-0.831 0-2 1.169-2 2v1c0-0.831 1.169-2 2-2h24c0.831 0 2 1.169 2 2v-1c0-0.831-1.169-2-2-2z" style="fill:#ffffff;opacity:.1"/>
   <path d="m30 20-10 10h-16.5c-0.831 0-1.5-0.669-1.5-1.5v1c0 0.831 0.669 1.5 1.5 1.5h16.5l10-10z" style="opacity:.2"/>
   <path d="m6.375 11c-0.76175 0-1.375 0.669-1.375 1.5s0.61325 1.5 1.375 1.5h19.25c0.76175 0 1.375-0.669 1.375-1.5s-0.61325-1.5-1.375-1.5zm-0.011719 5c-0.7554544 0-1.363281 0.669-1.363281 1.5s0.6078266 1.5 1.3632812 1.5h12.273438c0.755454 0 1.363281-0.669 1.363281-1.5s-0.607827-1.5-1.363281-1.5zm0.064453 5c-0.7914281 0-1.427734 0.669-1.427734 1.5s0.6363059 1.5 1.4277344 1.5h7.1445316c0.791428 0 1.427734-0.669 1.427734-1.5s-0.636306-1.5-1.427734-1.5z" style="opacity:.1"/>
   <path d="m6.375 10c-0.76175 0-1.375 0.669-1.375 1.5s0.61325 1.5 1.375 1.5h19.25c0.76175 0 1.375-0.669 1.375-1.5s-0.61325-1.5-1.375-1.5zm-0.011719 5c-0.7554544 0-1.363281 0.669-1.363281 1.5s0.6078266 1.5 1.3632812 1.5h12.273438c0.755454 0 1.363281-0.669 1.363281-1.5s-0.607827-1.5-1.363281-1.5zm0.064453 5c-0.7914281 0-1.427734 0.669-1.427734 1.5s0.6363059 1.5 1.4277344 1.5h7.1445316c0.791428 0 1.427734-0.669 1.427734-1.5s-0.636306-1.5-1.427734-1.5z" style="fill:#4f4f4f"/>
  </g>
 </g>
</svg>
