<svg id="svg" width="32" height="32" version="1.1" viewBox="0 0 32 32" xmlns="http://www.w3.org/2000/svg">
 <g id="22-22-kopete" transform="translate(32,10)">
  <rect width="22" height="22" style="fill-opacity:0;opacity:.00100002"/>
  <path d="m5.003906 3.0058586c-1.108 0-2 0.892-2 2v8.0000004c0 1.108 0.892 2 2 2h7v4l4-4h1c1.108 0 2-0.892 2-2v-8.0000004c0-1.108-0.892-2-2-2zm8.234375 1.529297c1.694116 0.846256 2.764762 2.576982 2.765625 4.470703-0.0023 1.8923144-1.072766 3.6211704-2.765625 4.4667974l-0.238281-0.472656c1.258853-0.942217 2.001106-2.42173 2.003906-3.9941414-0.0028-1.572411-0.745053-3.051923-2.003906-3.994141zm-6.234375 0.470703a1 1 0 0 1 1 1 1 1 0 0 1-1 1 1 1 0 0 1-1-1 1 1 0 0 1 1-1zm3 3h2c0.554 0 1 0.446 1 1s-0.446 1.0000004-1 1.0000004h-2c-0.554 0-1-0.4460004-1-1.0000004s0.446-1 1-1zm-3 3.0000004a1 1 0 0 1 1 1 1 1 0 0 1-1 1 1 1 0 0 1-1-1 1 1 0 0 1 1-1z" style="fill:#aaaaac"/>
 </g>
 <g id="22-22-kopete-offline" transform="translate(32,-22)">
  <rect width="22" height="22" style="fill-opacity:0;opacity:.00100002"/>
  <path d="m5 3c-1.108 0-2 0.892-2 2v8c0 1.108 0.892 2 2 2h7v4l4-4h1c1.108 0 2-0.892 2-2v-8c0-1.108-0.892-2-2-2zm8.234375 1.529297c1.694116 0.846256 2.764762 2.576982 2.765625 4.470703-0.0023 1.892314-1.072766 3.62117-2.765625 4.466797l-0.238281-0.472656c1.258853-0.942217 2.001106-2.42173 2.003906-3.994141-0.0028-1.572411-0.745053-3.051923-2.003906-3.994141zm-6.234375 0.470703a1 1 0 0 1 1 1 1 1 0 0 1-1 1 1 1 0 0 1-1-1 1 1 0 0 1 1-1zm3 3h2c0.554 0 1 0.446 1 1s-0.446 1-1 1h-2c-0.554 0-1-0.446-1-1s0.446-1 1-1zm-3 3a1 1 0 0 1 1 1 1 1 0 0 1-1 1 1 1 0 0 1-1-1 1 1 0 0 1 1-1z" style="fill:#ffffff;opacity:.25"/>
 </g>
 <g id="kopete">
  <rect width="32" height="32" style="opacity:.00100002"/>
  <g transform="translate(0,-1)">
   <path d="m 22,19.675 h 7.0325 L 22,32 Z" style="opacity:.2"/>
   <path d="m 22,18.675 h 7.0325 L 22,31 Z" style="fill:#4479d9"/>
   <path d="M 30,15.5 A 14.5,12.5 0 0 1 15.5,28 14.5,12.5 0 0 1 1,15.5 14.5,12.5 0 0 1 15.5,3 14.5,12.5 0 0 1 30,15.5 Z" style="opacity:.2"/>
   <path d="M 30,14.5 A 14.5,12.5 0 0 1 15.5,27 14.5,12.5 0 0 1 1,14.5 14.5,12.5 0 0 1 15.5,2 14.5,12.5 0 0 1 30,14.5 Z" style="fill:#47b4f4"/>
   <path d="m16.511719 8a7.4878132 7.5 0 0 0-1.482422 0.1542969 7.4878132 7.5 0 0 1 5.974609 7.3457031 7.4878132 7.5 0 0 1-6.003906 7.345703 7.4878132 7.5 0 0 0 1.511719 0.154297 7.4878132 7.5 0 0 0 7.488281-7.5 7.4878132 7.5 0 0 0-7.488281-7.5zm-8.011719 2a1.5 1.5 0 0 0-1.5 1.5 1.5 1.5 0 0 0 1.5 1.5 1.5 1.5 0 0 0 1.5-1.5 1.5 1.5 0 0 0-1.5-1.5zm3.900391 4c-0.7756 0-1.400391 0.669-1.400391 1.5s0.624791 1.5 1.400391 1.5h4.199218c0.7756 0 1.400391-0.669 1.400391-1.5s-0.624791-1.5-1.400391-1.5zm-3.900391 4c-0.82845 0-1.5 0.671573-1.5 1.5s0.6715724 1.5 1.5 1.5c0.5302276 0 0.75 1.5 0.75 1.5s0.75-2.7018 0.75-3c0-0.82845-0.6715726-1.5-1.5-1.5z" style="opacity:.1"/>
   <path d="m16.511719 7a7.4878132 7.5 0 0 0-1.482422 0.1542969 7.4878132 7.5 0 0 1 5.974609 7.3457031 7.4878132 7.5 0 0 1-6.003906 7.345703 7.4878132 7.5 0 0 0 1.511719 0.154297 7.4878132 7.5 0 0 0 7.488281-7.5 7.4878132 7.5 0 0 0-7.488281-7.5zm-8.011719 2a1.5 1.5 0 0 0-1.5 1.5 1.5 1.5 0 0 0 1.5 1.5 1.5 1.5 0 0 0 1.5-1.5 1.5 1.5 0 0 0-1.5-1.5zm3.900391 4c-0.7756 0-1.400391 0.669-1.400391 1.5s0.624791 1.5 1.400391 1.5h4.199218c0.7756 0 1.400391-0.669 1.400391-1.5s-0.624791-1.5-1.400391-1.5zm-3.900391 4c-0.82845 0-1.5 0.671573-1.5 1.5s0.6715724 1.5 1.5 1.5c0.5302276 0 0.75 1.5 0.75 1.5s0.75-2.7018 0.75-3c0-0.82845-0.6715726-1.5-1.5-1.5z" style="fill:#2e4e8a"/>
   <path d="M 15.5,2 A 14.5,12.5 0 0 0 1,14.5 14.5,12.5 0 0 0 1.0234375,15.080078 14.5,12.5 0 0 1 15.5,3 14.5,12.5 0 0 1 29.976562,14.919922 14.5,12.5 0 0 0 30,14.5 14.5,12.5 0 0 0 15.5,2 Z" style="fill:#ffffff;opacity:.2"/>
  </g>
 </g>
 <g id="kopete-offline" transform="translate(0,-32)">
  <rect width="32" height="32" style="opacity:.00100002"/>
  <g transform="translate(0,-1)">
   <path d="m 22,19.675 h 7.0325 L 22,32 Z" style="opacity:.2"/>
   <path d="m 22,18.675 h 7.0325 L 22,31 Z" style="fill:#8e8e8e"/>
   <path d="M 30,15.5 A 14.5,12.5 0 0 1 15.5,28 14.5,12.5 0 0 1 1,15.5 14.5,12.5 0 0 1 15.5,3 14.5,12.5 0 0 1 30,15.5 Z" style="opacity:.2"/>
   <path d="M 30,14.5 A 14.5,12.5 0 0 1 15.5,27 14.5,12.5 0 0 1 1,14.5 14.5,12.5 0 0 1 15.5,2 14.5,12.5 0 0 1 30,14.5 Z" style="fill:#9b9ea0"/>
   <path d="m16.511719 8a7.4878132 7.5 0 0 0-1.482422 0.1542969 7.4878132 7.5 0 0 1 5.974609 7.3457031 7.4878132 7.5 0 0 1-6.003906 7.345703 7.4878132 7.5 0 0 0 1.511719 0.154297 7.4878132 7.5 0 0 0 7.488281-7.5 7.4878132 7.5 0 0 0-7.488281-7.5zm-8.011719 2a1.5 1.5 0 0 0-1.5 1.5 1.5 1.5 0 0 0 1.5 1.5 1.5 1.5 0 0 0 1.5-1.5 1.5 1.5 0 0 0-1.5-1.5zm3.900391 4c-0.7756 0-1.400391 0.669-1.400391 1.5s0.624791 1.5 1.400391 1.5h4.199218c0.7756 0 1.400391-0.669 1.400391-1.5s-0.624791-1.5-1.400391-1.5zm-3.900391 4c-0.82845 0-1.5 0.671573-1.5 1.5s0.6715724 1.5 1.5 1.5c0.5302276 0 0.75 1.5 0.75 1.5s0.75-2.7018 0.75-3c0-0.82845-0.6715726-1.5-1.5-1.5z" style="opacity:.1"/>
   <path d="m16.511719 7a7.4878132 7.5 0 0 0-1.482422 0.1542969 7.4878132 7.5 0 0 1 5.974609 7.3457031 7.4878132 7.5 0 0 1-6.003906 7.345703 7.4878132 7.5 0 0 0 1.511719 0.154297 7.4878132 7.5 0 0 0 7.488281-7.5 7.4878132 7.5 0 0 0-7.488281-7.5zm-8.011719 2a1.5 1.5 0 0 0-1.5 1.5 1.5 1.5 0 0 0 1.5 1.5 1.5 1.5 0 0 0 1.5-1.5 1.5 1.5 0 0 0-1.5-1.5zm3.900391 4c-0.7756 0-1.400391 0.669-1.400391 1.5s0.624791 1.5 1.400391 1.5h4.199218c0.7756 0 1.400391-0.669 1.400391-1.5s-0.624791-1.5-1.400391-1.5zm-3.900391 4c-0.82845 0-1.5 0.671573-1.5 1.5s0.6715724 1.5 1.5 1.5c0.5302276 0 0.75 1.5 0.75 1.5s0.75-2.7018 0.75-3c0-0.82845-0.6715726-1.5-1.5-1.5z" style="fill:#5c5c5c"/>
   <path d="M 15.5,2 A 14.5,12.5 0 0 0 1,14.5 14.5,12.5 0 0 0 1.0234375,15.080078 14.5,12.5 0 0 1 15.5,3 14.5,12.5 0 0 1 29.976562,14.919922 14.5,12.5 0 0 0 30,14.5 14.5,12.5 0 0 0 15.5,2 Z" style="fill:#ffffff;opacity:.2"/>
  </g>
 </g>
</svg>
