<svg width="32" height="32" style="enable-background:new" version="1.1" xmlns="http://www.w3.org/2000/svg">
 <g id="22-22-korgac">
  <rect x="32" y="10" width="22" height="22" style="fill-opacity:.40392157;fill:#2b0000;opacity:.00100002"/>
  <path d="m42.998047 11.996094c-4.970563 0-9 4.029437-9 9s4.029437 9 9 9 9-4.029437 9-9-4.029437-9-9-9zm0 3c3.313708 0 6 2.686292 6 6s-2.686292 6-6 6-6-2.686292-6-6 2.686292-6 6-6zm-0.998047 1.003906v6h6v-2h-4v-4z" style="fill:#aaaaac"/>
 </g>
 <g id="korgac">
  <rect width="32" height="32" style="opacity:.00100002"/>
  <g>
   <circle cx="16" cy="17" r="14" style="opacity:.2"/>
   <circle cx="16" cy="16" r="14" style="fill:#ed4545"/>
   <circle cx="16" cy="16" r="10" style="fill:#4f4f4f"/>
   <rect x="14" y="7" width="4" height="11" rx="2" ry="2.2" style="fill:#ffffff"/>
   <path d="M 16,2 A 14,14 0 0 0 2,16 14,14 0 0 0 2.0214844,16.585938 14,14 0 0 1 16,3 14,14 0 0 1 29.978516,16.414062 14,14 0 0 0 30,16 14,14 0 0 0 16,2 Z" style="fill:#ffffff;opacity:.2"/>
   <rect transform="rotate(90)" x="14" y="-25" width="4" height="11" rx="2" ry="2.2" style="fill:#ffffff"/>
  </g>
 </g>
</svg>
