<svg id="svg" version="1.1" viewBox="0 0 22 22" xmlns="http://www.w3.org/2000/svg">
 <g id="kpackagekit-security">
  <rect width="22" height="22" style="fill:#7a0000;opacity:.00100002"/>
  <g>
   <path d="m10.761719 3.0136719a8 8 0 0 0-6.6894534 3.9863281 8 8 0 0 0 1.3261719 9.703125l1.0449219-1.810547a6 6 0 0 1-0.6386719-6.892578 6 6 0 0 1 6.2890625-2.8925781l1.041016-1.8046875a8 8 0 0 0-2.373047-0.2890625z" style="fill:#aaaaac"/>
   <path d="M 16.601562,5.296875 15.556641,7.1074219 A 6,6 0 0 1 16.195312,14 6,6 0 0 1 9.90625,16.892578 L 8.8652344,18.697266 A 8,8 0 0 0 17.927734,15 8,8 0 0 0 16.601562,5.296875 Z" style="fill:#aaaaac"/>
   <path d="m10 7v5h2v-5z" style="fill:#5294e2"/>
   <path d="m11 13a1 1 0 0 0-1 1 1 1 0 0 0 1 1 1 1 0 0 0 1-1 1 1 0 0 0-1-1z" style="fill:#5294e2"/>
  </g>
 </g>
 <g id="kpackagekit-updates" transform="translate(-27)">
  <rect width="22" height="22" style="fill:#7a0000;opacity:.00100002"/>
  <g>
   <path d="m10.761719 3.0136719a8 8 0 0 0-6.689453 3.9863281 8 8 0 0 0 1.326172 9.703125l1.044921-1.810547a6 6 0 0 1-0.638671-6.892578 6 6 0 0 1 6.289062-2.8925781l1.041016-1.8046875a8 8 0 0 0-2.373047-0.2890625z" style="fill:#aaaaac"/>
   <path d="m16.601562 5.296875-1.044921 1.8105469a6 6 0 0 1 0.638671 6.8925781 6 6 0 0 1-6.289062 2.892578l-1.041016 1.804688a8 8 0 0 0 9.0625-3.697266 8 8 0 0 0-1.326172-9.703125z" style="fill:#aaaaac"/>
   <path d="m8 10a1 1 0 0 0-1 1 1 1 0 0 0 1 1 1 1 0 0 0 1-1 1 1 0 0 0-1-1z" style="fill:#5294e2"/>
   <path d="m11 10a1 1 0 0 0-1 1 1 1 0 0 0 1 1 1 1 0 0 0 1-1 1 1 0 0 0-1-1z" style="fill:#5294e2"/>
   <path d="m14 10a1 1 0 0 0-1 1 1 1 0 0 0 1 1 1 1 0 0 0 1-1 1 1 0 0 0-1-1z" style="fill:#5294e2"/>
  </g>
 </g>
 <g id="kpackagekit-important" transform="translate(27)">
  <rect width="22" height="22" style="fill:#7a0000;opacity:.00100002"/>
  <g>
   <path d="m10.761719 3.0136719a8 8 0 0 0-6.6894534 3.9863281 8 8 0 0 0 1.3261719 9.703125l1.0449219-1.810547a6 6 0 0 1-0.6386719-6.892578 6 6 0 0 1 6.2890625-2.8925781l1.041016-1.8046875a8 8 0 0 0-2.373047-0.2890625z" style="fill:#aaaaac"/>
   <path d="M 16.601562,5.296875 15.556641,7.1074219 A 6,6 0 0 1 16.195312,14 6,6 0 0 1 9.90625,16.892578 L 8.8652344,18.697266 A 8,8 0 0 0 17.927734,15 8,8 0 0 0 16.601562,5.296875 Z" style="fill:#aaaaac"/>
   <path d="m10 7v5h2v-5z" style="fill:#5294e2"/>
   <path d="m11 13a1 1 0 0 0-1 1 1 1 0 0 0 1 1 1 1 0 0 0 1-1 1 1 0 0 0-1-1z" style="fill:#5294e2"/>
  </g>
 </g>
 <g id="kpackagekit-inactive" transform="translate(55.3)">
  <rect width="22" height="22" style="fill:#7a0000;opacity:.00100002"/>
  <path transform="translate(-55.3)" d="m66.0625 3.0136719a8 8 0 0 0-6.689453 3.9863281 8 8 0 0 0 1.326172 9.703125l1.044922-1.810547a6 6 0 0 1-0.638672-6.892578 6 6 0 0 1 6.289062-2.8925781l1.041016-1.8046875a8 8 0 0 0-2.373047-0.2890625zm5.839844 2.2832031-1.044922 1.8105469a6 6 0 0 1 0.638672 6.8925781 6 6 0 0 1-6.289063 2.892578l-1.041015 1.804688a8 8 0 0 0 9.0625-3.697266 8 8 0 0 0-1.326172-9.703125z" style="fill:#aaaaac"/>
 </g>
</svg>
