<svg width="32" height="32" version="1" xmlns="http://www.w3.org/2000/svg">
 <g id="22-22-krfb" transform="translate(32,10)">
  <rect width="22" height="22" style="fill:#000000;opacity:.00100002"/>
  <g>
   <path d="M 14.470703,5.1523438 5.1132812,11 14.470703,16.847656 15.529297,15.152344 8.8847656,11 15.529297,6.8476562 Z" style="color-rendering:auto;color:#000000;dominant-baseline:auto;fill:#aaaaac;font-feature-settings:normal;font-variant-alternates:normal;font-variant-caps:normal;font-variant-ligatures:normal;font-variant-numeric:normal;font-variant-position:normal;image-rendering:auto;isolation:auto;mix-blend-mode:normal;opacity:.3;shape-padding:0;shape-rendering:auto;solid-color:#000000;text-decoration-color:#000000;text-decoration-line:none;text-decoration-style:solid;text-indent:0;text-orientation:mixed;text-transform:none;white-space:normal"/>
   <path d="m15 3a3 3 0 0 0-3 3 3 3 0 0 0 3 3 3 3 0 0 0 3-3 3 3 0 0 0-3-3zm-8 5a3 3 0 0 0-3 3 3 3 0 0 0 3 3 3 3 0 0 0 3-3 3 3 0 0 0-3-3zm8 5a3 3 0 0 0-3 3 3 3 0 0 0 3 3 3 3 0 0 0 3-3 3 3 0 0 0-3-3z" style="fill-rule:evenodd;fill:#aaaaac"/>
  </g>
 </g>
 <g id="krfb">
  <rect width="32" height="32" style="fill:#000000;opacity:.00100002"/>
  <g transform="translate(-3.95e-4)">
   <rect transform="matrix(0,-1,-1,0,0,0)" x="-30" y="-30" width="28" height="28" rx="14" ry="14" style="fill:#1da6e8"/>
   <path d="m16 2c-7.756 0-14 6.244-14 14 0 0.16884 0.01952 0.33264 0.02539 0.5 0.2641-7.5206 6.3878-13.5 13.975-13.5s13.711 5.9794 13.975 13.5c6e-3 -0.16736 0.0254-0.33116 0.0254-0.5 0-7.756-6.244-14-14-14z" style="fill:#ffffff;opacity:.2"/>
   <path d="m2.0254 16.5c-0.0059 0.167-0.0254 0.331-0.0254 0.5 0 7.756 6.244 14 14 14s14-6.244 14-14c0-0.16884-0.01952-0.33264-0.02539-0.5-0.264 7.521-6.388 13.5-13.975 13.5-7.5872 0-13.711-5.979-13.975-13.5z" style="opacity:.2"/>
   <path d="m19 11-8 5 8 5" style="fill:none;opacity:.4;stroke-width:2;stroke:#000000"/>
   <path d="m19 9a3 3 0 0 0-3 3 3 3 0 0 0 3 3 3 3 0 0 0 3-3 3 3 0 0 0-3-3zm-8 5a3 3 0 0 0-3 3 3 3 0 0 0 3 3 3 3 0 0 0 3-3 3 3 0 0 0-3-3zm8 5a3 3 0 0 0-3 3 3 3 0 0 0 3 3 3 3 0 0 0 3-3 3 3 0 0 0-3-3z" style="fill-rule:evenodd;opacity:.2"/>
   <path d="m19 8a3 3 0 0 0-3 3 3 3 0 0 0 3 3 3 3 0 0 0 3-3 3 3 0 0 0-3-3zm-8 5a3 3 0 0 0-3 3 3 3 0 0 0 3 3 3 3 0 0 0 3-3 3 3 0 0 0-3-3zm8 5a3 3 0 0 0-3 3 3 3 0 0 0 3 3 3 3 0 0 0 3-3 3 3 0 0 0-3-3z" style="fill-rule:evenodd;fill:#ffffff"/>
  </g>
 </g>
</svg>
