<svg width="32" height="32" version="1" xmlns="http://www.w3.org/2000/svg">
 <g id="22-22-kup" transform="translate(32,10)">
  <rect width="22" height="22" style="opacity:.00100002"/>
  <path d="m4.002905 3.0004358a0.99829173 0.99855868 0 0 0-0.6960049 1.7141509l2.1036114 2.1041741a6.987343 6.9892116 0 0 0-1.3978586 4.1790962 6.987343 6.9892116 0 0 0 1.3978586 4.179096l-2.1036114 2.104174a0.99829173 0.99855868 0 1 0 1.4115056 1.411883l2.1036115-2.104174a6.987343 6.9892116 0 0 0 4.1779788 1.398233 6.987343 6.9892116 0 0 0 4.177979-1.398233l2.103612 2.104174a0.99829173 0.99855868 0 1 0 1.411505-1.411883l-2.103612-2.104174a6.987343 6.9892116 0 0 0 1.397859-4.179096 6.987343 6.9892116 0 0 0-1.397859-4.1790962l2.103612-2.1041741a0.99829173 0.99855868 0 0 0-0.725248-1.7141509 0.99829173 0.99855868 0 0 0-0.686257 0.3022678l-2.103612 2.104174a6.987343 6.9892116 0 0 0-4.177979-1.3982324 6.987343 6.9892116 0 0 0-4.1779788 1.3982324l-2.1036115-2.104174a0.99829173 0.99855868 0 0 0-0.7155007-0.3022678zm6.997091 3.0051271a4.9909592 4.9922939 0 0 1 2.748927 0.8307489l-2.748927 2.749662-2.7489266-2.749662a4.9909592 4.9922939 0 0 1 2.7489266-0.8307489zm-4.1604325 2.2426322 2.748927 2.7496619-2.748927 2.749661a4.9909592 4.9922939 0 0 1-0.8305268-2.749661 4.9909592 4.9922939 0 0 1 0.8305268-2.7496619zm8.3208655 0a4.9909592 4.9922939 0 0 1 0.830527 2.7496619 4.9909592 4.9922939 0 0 1-0.830527 2.749661l-2.748928-2.749661zm-4.160433 4.1615439 2.748927 2.749663a4.9909592 4.9922939 0 0 1-2.748927 0.830749 4.9909592 4.9922939 0 0 1-2.7489266-0.830749z" style="fill:#aaaaac"/>
 </g>
 <g id="kup">
  <rect width="32" height="32" style="opacity:.00100002"/>
  <g>
   <rect x="1" y="2" width="29" height="29" rx="1.45" ry="1.45" style="opacity:.2"/>
   <rect x="1" y="1" width="29" height="29" rx="1.45" ry="1.45" style="fill:#e4e4e4"/>
   <path d="m6.484375 5.984657a1.50015 1.50015 0 0 0-1.0449219 2.5761719l3.0917969 3.0917971a8.5 8.5 0 0 0-1.53125 4.847656 8.5 8.5 0 0 0 1.5253906 4.853516l-3.0859375 3.085937a1.50015 1.50015 0 1 0 2.1210938 2.121094l3.0917971-3.091797a8.5 8.5 0 0 0 4.847656 1.53125 8.5 8.5 0 0 0 4.853516-1.525391l3.085937 3.085938a1.50015 1.50015 0 1 0 2.121094-2.121094l-3.091797-3.091797a8.5 8.5 0 0 0 1.53125-4.847656 8.5 8.5 0 0 0-1.525391-4.853516l3.085938-3.0859371a1.50015 1.50015 0 0 0-1.089844-2.5742188 1.50015 1.50015 0 0 0-1.03125 0.453125l-3.091797 3.0917969a8.5 8.5 0 0 0-4.847656-1.53125 8.5 8.5 0 0 0-4.853516 1.5253906l-3.0859371-3.0859375a1.50015 1.50015 0 0 0-1.0761719-0.4550781zm9.015625 5.015625a5.4999999 5.4999999 0 0 1 2.679688 0.699219l-2.679688 2.679687-2.675781-2.675781a5.4999999 5.4999999 0 0 1 2.675781-0.703125zm-4.800781 2.820312 2.679687 2.679688-2.675781 2.675781a5.4999999 5.4999999 0 0 1-0.703125-2.675781 5.4999999 5.4999999 0 0 1 0.699219-2.679688zm9.597656 0.0039a5.4999999 5.4999999 0 0 1 0.703125 2.675788 5.4999999 5.4999999 0 0 1-0.699219 2.679688l-2.679687-2.679688zm-4.796875 4.796882 2.675781 2.675781a5.4999999 5.4999999 0 0 1-2.675781 0.703125 5.4999999 5.4999999 0 0 1-2.679688-0.699219z" style="opacity:.1"/>
   <path d="m15.5 7a8.5 8.5 0 0 0-8.5 8.5 8.5 8.5 0 0 0 8.5 8.5 8.5 8.5 0 0 0 8.5-8.5 8.5 8.5 0 0 0-8.5-8.5zm0 3a5.4999999 5.4999999 0 0 1 5.5 5.5 5.4999999 5.4999999 0 0 1-5.5 5.5 5.4999999 5.4999999 0 0 1-5.5-5.5 5.4999999 5.4999999 0 0 1 5.5-5.5z" style="fill:#4f4f4f"/>
   <path d="m6.5 6.5 18 18v0" style="fill:none;stroke-linecap:round;stroke-width:3;stroke:#4f4f4f"/>
   <path d="m24.5 6.5-18 18" style="fill:none;stroke-linecap:round;stroke-width:3;stroke:#4f4f4f"/>
   <path d="M 2.4492188,1 C 1.6459187,1 1,1.6459187 1,2.4492188 v 1 C 1,2.6459187 1.6459187,2 2.4492188,2 H 28.550781 C 29.354081,2 30,2.6459187 30,3.4492188 v -1 C 30,1.6459187 29.354081,1 28.550781,1 Z" style="fill:#ffffff;opacity:.2"/>
  </g>
 </g>
</svg>
