<svg width="32" height="32" version="1.1" viewBox="0 0 32 32" xmlns="http://www.w3.org/2000/svg">
 <g id="manjaro-settings-manager">
  <rect width="32" height="32" style="opacity:.00100002"/>
  <path d="m3.4 3c-0.7756 0-1.4 0.6244-1.4 1.4v25.2c0 0.7756 0.6244 1.4 1.4 1.4h6.6v-20h10v-8zm18.6 0v28h6.6c0.7756 0 1.4-0.6244 1.4-1.4v-25.2c0-0.7756-0.6244-1.4-1.4-1.4zm-10 10v18h8v-18z" style="opacity:.2"/>
  <path d="m3.4 2c-0.7756 0-1.4 0.6244-1.4 1.4v25.2c0 0.7756 0.6244 1.4 1.4 1.4h6.6v-20h10v-8zm18.6 0v28h6.6c0.7756 0 1.4-0.6244 1.4-1.4v-25.2c0-0.7756-0.6244-1.4-1.4-1.4zm-10 10v18h8v-18z" style="fill:#16a085"/>
  <path d="M 3.4003906,2 C 2.6247906,2 2,2.6247906 2,3.4003906 v 1 C 2,3.6247906 2.6247906,3 3.4003906,3 H 20 V 2 Z M 22,2 v 1 h 6.599609 C 29.375209,3 30,3.6247906 30,4.4003906 v -1 C 30,2.6247906 29.375209,2 28.599609,2 Z M 12,12 v 1 h 8 v -1 z" style="fill:#ffffff;opacity:.2"/>
 </g>
 <g id="22-22-manjaro-settings-manager" transform="translate(27,5)">
  <rect x="5" y="5" width="22" height="22" style="opacity:.00100002"/>
  <path d="m9.75 9c-0.4155 0-0.75 0.3345-0.75 0.75v12.5c0 0.4155 0.352874 0.627807 0.75 0.75h3.25v-10h5v-4zm9.25 0v14h3.25c0.4155 0 0.75-0.3345 0.75-0.75v-12.5c0-0.4155-0.3345-0.75-0.75-0.75zm-5 5v9h4v-9z" style="fill:#aaaaac"/>
 </g>
</svg>
