<svg width="22" height="22" version="1.1" viewBox="0 0 22 22" xmlns="http://www.w3.org/2000/svg">
 <g id="media-record" transform="translate(44,-1030.36)">
  <rect y="1030.36" width="22" height="22" style="opacity:.00100002"/>
  <path d="m11 1035.3622c-3.31104 0-6 2.6888-6 6 0 3.311 2.68896 6 6 6s6-2.689 6-6c0-3.3112-2.68896-6-6-6z" style="fill:#da4453"/>
 </g>
 <g id="media-playback-stop" transform="translate(22,-1030.36)">
  <rect y="1030.36" width="22" height="22" style="opacity:.00100002"/>
  <path d="m5 1035.3622v12h12v-12z" style="fill:#aaaaac"/>
 </g>
 <g id="media-skip-forward" transform="translate(66,-1030.36)">
  <rect y="1030.36" width="22" height="22" style="opacity:.00100002"/>
  <path d="m19 1037.3622v8h-2v-8zm-2 4-7 4v-8zm-7 0-7 4v-8z" style="fill:#aaaaac"/>
 </g>
 <g id="media-skip-backward" transform="matrix(-1,0,0,1,110.00001,-1030.36)">
  <rect y="1030.36" width="22" height="22" style="opacity:.00100002"/>
  <path d="m19 1037.3622v8h-2v-8zm-2 4-7 4v-8zm-7 0-7 4v-8z" style="fill:#aaaaac"/>
 </g>
 <g id="media-seek-forward" transform="translate(110.00001,-1030.36)">
  <rect y="1030.36" width="22" height="22" style="opacity:.00100002"/>
  <path d="m11.000002 1037.3622 6.999997 4-6.999997 4v-4zm0 4-7.0000007 4v-8z" style="fill:#aaaaac"/>
 </g>
 <g id="media-seek-backward" transform="matrix(-1,0,0,1,154.00001,-1030.36)">
  <rect y="1030.36" width="22" height="22" style="opacity:.00100002"/>
  <path d="m11.000002 1037.3622 6.999997 4-6.999997 4v-4zm0 4-7.0000007 4v-8z" style="fill:#aaaaac"/>
 </g>
 <g id="media-playback-pause" transform="translate(-22,-1030.36)">
  <rect y="1030.36" width="22" height="22" style="opacity:.00100002"/>
  <path d="m5 1035.3622v12h4v-12zm8 0v12h4v-12z" style="fill:#aaaaac"/>
 </g>
 <g id="media-playback-start" transform="translate(3.6e-7,-1030.36)">
  <rect y="1030.36" width="22" height="22" style="opacity:.00100002"/>
  <path d="m6 1035.3622v12l11-6-9.8992-5.3996z" style="fill:#aaaaac"/>
 </g>
 <g id="media-playback-stopped" transform="translate(22,-1008.36)">
  <rect y="1030.36" width="22" height="22" style="opacity:.00100002"/>
  <path d="m5 1035.3622v12h12v-12z" style="fill:#aaaaac"/>
 </g>
 <g id="media-playback-paused" transform="translate(-22,-1008.36)">
  <rect y="1030.36" width="22" height="22" style="opacity:.00100002"/>
  <path d="m5 1035.3622v12h4v-12zm8 0v12h4v-12z" style="fill:#aaaaac"/>
 </g>
 <g id="media-playback-playing" transform="translate(0,-1008.36)">
  <rect y="1030.36" width="22" height="22" style="opacity:.00100002"/>
  <path d="m6 1035.3622v12l11-6-9.8992-5.3996z" style="fill:#aaaaac"/>
 </g>
</svg>
