<svg width="32" height="32" version="1.1" viewBox="-2.01 0 32 32" xmlns="http://www.w3.org/2000/svg">
 <g id="22-22-mellowplayer" transform="translate(32,10)">
  <rect x="-2.01" width="22" height="22" style="fill:#000000;opacity:.00100002;stroke-width:1.6973369"/>
  <g>
   <path d="m6.99 3a5 5 0 0 0-5 4.9999999 5 5 0 0 0 0.3046875 1.6875 3 3 0 0 1 2.6953125-1.6875 3 3 0 0 1 0.00586 0v-2.595703c2.941e-4 0-0.022612-0.2663222 0.1855468-0.3710938 0.202273-0.1017342 0.3964844 0.060547 0.3964844 0.060547l1.96875 1.1699219a3 3 0 0 1 2.4433588-1.263672 3 3 0 0 1 1.152344 0.2324219 5 5 0 0 0-4.152344-2.2324219zm5.240234 3.0078125a3 3 0 0 1 0.759766 1.9921874 3 3 0 0 1-0.308594 1.31836l2.025391 1.2050781s0.283203 0.139514 0.283203 0.472656c0 0.334053-0.287109 0.443359-0.287109 0.443359l-2.035157 1.208985a3 3 0 0 1 0.322266 1.351562 3 3 0 0 1-0.757812 1.988281 5 5 0 0 0 4.757812-4.988281 5 5 0 0 0-4.759766-4.9921875zm-9.9374996 6.2949225a5 5 0 0 0-0.3027344 1.697265 5 5 0 0 0 5 5 5 5 0 0 0 4.158203-2.232422 3 3 0 0 1-1.158203 0.232422 3 3 0 0 1-2.4648438-1.294922l-2.0605468 1.22461s-0.1399356 0.122228-0.3183594 0.04297c-0.2037449-0.0911-0.1503906-0.322265-0.1503906-0.322265v-2.650393a3 3 0 0 1-0.00586 0 3 3 0 0 1-2.697265-1.697265z" style="fill:#aaaaac"/>
   <path d="m9.99 5a3 3 0 0 0-2.4433594 1.265625l2.6718754 1.5878909 2.464843 1.466797a3 3 0 0 0 0.306641-1.320313 3 3 0 0 0-3-2.9999999zm-5 2.9999999a3 3 0 0 0-3 3.0000001 3 3 0 0 0 3 3 3 3 0 0 0 0.00586 0v-6.0000001a3 3 0 0 0-0.00586 0zm7.675781 4.6503911-2.457031 1.458984-2.6855469 1.595703a3 3 0 0 0 2.4667969 1.294922 3 3 0 0 0 3-3 3 3 0 0 0-0.324219-1.349609z" style="fill:#aaaaac;opacity:.3"/>
  </g>
 </g>
 <g id="mellowplayer">
  <rect x="-2.01" width="32" height="32" style="fill:#000000;opacity:.00100002;stroke-width:3.031951"/>
  <g transform="translate(1.1444092e-7 -.002)">
   <path d="m9.49 3.002a8.5 8.5 0 0 0-8.5 8.5 8.5 8.5 0 0 0 2.0253906 5.494141 8.5 8.5 0 0 0-2.0253906 5.505859 8.5 8.5 0 0 0 8.5 8.5 8.5 8.5 0 0 0 8.154297-6.123047 8 8 0 0 0 1.345703 0.123047 8 8 0 0 0 8-8 8 8 0 0 0-8-8 8 8 0 0 0-1.347656 0.1152344 8.5 8.5 0 0 0-8.152344-6.1152344z" style="opacity:.2"/>
   <circle cx="18.99" cy="16.002001" r="8" style="fill:#5f81d4"/>
   <circle cx="9.4899998" cy="10.502" r="8.5" style="fill:#5f81d4"/>
   <path transform="translate(-2.01 .002)" d="M 11.5,2 A 8.5,8.5 0 0 0 3,10.5 8.5,8.5 0 0 0 3.0214844,10.914062 8.5,8.5 0 0 1 11.5,3 8.5,8.5 0 0 1 19.652344,9.1152344 8,8 0 0 1 21,9 8,8 0 0 1 28.978516,16.576172 8,8 0 0 0 29,16 8,8 0 0 0 21,8 8,8 0 0 0 19.652344,8.1152344 8.5,8.5 0 0 0 11.5,2 Z" style="fill:#ffffff;opacity:.2"/>
   <circle cx="9.4899998" cy="21.502001" r="8.5" style="fill:#5f81d4"/>
   <path d="m14.99 7.002a5 5 0 0 0-5 5 5 5 0 0 0 5 5 5 5 0 0 0 5-5 5 5 0 0 0-5-5zm0 10a5 5 0 0 0-5 5 5 5 0 0 0 5 5 5 5 0 0 0 5-5 5 5 0 0 0-5-5zm-9-5a5 5 0 0 0-5 5 5 5 0 0 0 5 5 5 5 0 0 0 5-5 5 5 0 0 0-5-5z" style="opacity:.2"/>
   <circle cx="5.9899998" cy="16.002001" r="5" style="fill:#f2f2f2"/>
   <circle cx="14.99" cy="21.002001" r="5" style="fill:#f2f2f2"/>
   <circle cx="14.99" cy="11.002" r="5" style="fill:#f2f2f2"/>
   <path d="m6.3163838 7.0578214c0.343864-0.1695568 0.6742129 0.1012285 0.6742129 0.1012285l7.8888333 4.5987991 7.627559 4.451009s0.483011 0.232318 0.483011 0.787555c0 0.556756-0.487014 0.737954-0.487014 0.737954l-7.641074 4.451007-8.066522 4.698511s-0.2352481 0.206-0.5385685 0.0739c-0.3463665-0.151844-0.2562708-0.53803-0.2562708-0.53803v-18.743933c5.001e-4 0-0.038037-0.4433792 0.3158331-0.6179985z" style="opacity:.2"/>
   <path d="m6.3163838 6.0578212c0.343864-0.1695568 0.6742129 0.1012285 0.6742129 0.1012285l7.8888333 4.5987993 7.627559 4.451009s0.483011 0.232318 0.483011 0.787555c0 0.556756-0.487014 0.737954-0.487014 0.737954l-7.641074 4.451007-8.066522 4.698511s-0.2352481 0.206-0.5385685 0.0739c-0.3463665-0.151844-0.2562708-0.53803-0.2562708-0.53803v-18.743933c5.001e-4 0-0.038037-0.4433792 0.3158331-0.6179985z" style="fill:#ffbf00"/>
  </g>
 </g>
</svg>
