<?xml version="1.0" encoding="UTF-8"?>
<svg width="22" height="22" version="1.1" xmlns="http://www.w3.org/2000/svg">
 <g id="notifications-disabled">
  <rect width="22" height="22" opacity=".001"/>
  <path d="m11 3c-0.55 0-1 0.45-1 1 0 0.03-2.344e-4 0.069609 0.0098 0.099609-2.29 0.46-4.0098 2.4704-4.0098 4.9004v4.5l-2 2v0.5h10.189c-0.12321-0.17052-0.1895-0.37556-0.18945-0.58594v-1.4141c5.5e-5 -0.55226 0.44774-0.99994 1-1h1v-4c0-2.43-1.7198-4.4404-4.0098-4.9004 0.01-0.03 0.009766-0.069609 0.009766-0.099609 0-0.55-0.45-1-1-1zm-1.7305 14c0.36 0.62 1.0205 1 1.7305 1s1.3705-0.38 1.7305-1z" fill="#aaaaac" opacity=".3"/>
  <path d="m15 14v1.4141l1.0859 1.0859-1.0859 1.0859v1.4141h1.4141l1.0859-1.0859 1.0859 1.0859h1.4141v-1.4141l-1.0859-1.0859 1.0859-1.0859v-1.4141h-1.4141l-1.0859 1.0859-1.0859-1.0859z" fill="#4285f4"/>
 </g>
</svg>
