<svg id="svg" width="32" height="32" version="1.1" viewBox="0 0 32 32" xmlns="http://www.w3.org/2000/svg">
 <g id="22-22-phone" transform="translate(32,9.9999997)">
  <rect width="22" height="22" rx="0" ry="0" style="fill:#111213;opacity:.00100002"/>
  <path d="m7 3c-1 0-1 1-1 1v14s0 1 1 1h8c1 0 1-1 1-1v-14s0-1-1-1zm7 3v9h-6v-8.9980469zm-3 10a1 1 0 0 1 1 1 1 1 0 0 1-1 1 1 1 0 0 1-1-1 1 1 0 0 1 1-1z" style="fill:#aaaaac;filter:url(#filter7554)"/>
 </g>
 <g id="22-22-phone-battery" transform="translate(2,-22)">
  <rect x="30" width="22" height="22" rx="0" ry="0" style="fill:#111213;opacity:.00100002"/>
  <path d="m37 3c-1 0-1 1-1 1v14s0 1 1 1h8c1 0 1-1 1-1v-14s0-1-1-1zm4 3h3v9h-6v-8.9980469h3zm0 0.00195-2 3.99805h2v4l2-5h-2v-2.9980469zm0.300781 9.99805a1 1 0 0 1 1 1 1 1 0 0 1-1 1 1 1 0 0 1-1-1 1 1 0 0 1 1-1z" style="fill:#aaaaac;filter:url(#filter7554)"/>
 </g>
 <g id="16-16-phone-battery" transform="translate(21,-42)">
  <rect x="33" y="26" width="16" height="16" rx="0" ry="0" style="fill:#6b727a;opacity:.00100002"/>
  <path d="m37.798828 28c-0.8 0-0.798828 0.75-0.798828 0.75v10.5s-0.0012 0.75 0.798828 0.75h6.400391c0.8 0 0.800781-0.75 0.800781-0.75v-10.5s-8.42e-4 -0.75-0.800781-0.75zm1.201172 2h4v6h-4zm2 6 1.5-3.75h-1.5v-2.25l-1.5 3h1.5zm0 1c0.552285 0 1 0.447715 1 1s-0.447715 1-1 1-1-0.447715-1-1 0.447715-1 1-1z" style="fill:#aaaaac;filter:url(#filter7554)"/>
 </g>
 <g id="16-16-phone" transform="translate(54,-10)">
  <rect y="26" width="16" height="16" rx="0" ry="0" style="fill-opacity:.80740739;fill:#5f666d;opacity:.00100002"/>
  <path d="m4.798828 28c-0.8 0-0.798828 0.75-0.798828 0.75v10.5s-0.0012 0.75 0.798828 0.75h6.400391c0.8 0 0.800781-0.75 0.800781-0.75v-10.5s-8.42e-4 -0.75-0.800781-0.75zm1.201172 2h4v6h-4zm2 7c0.552285 0 1 0.447715 1 1s-0.447715 1-1 1-1-0.447715-1-1 0.447715-1 1-1z" style="fill:#aaaaac;filter:url(#filter7554)"/>
 </g>
 <g id="phone">
  <rect width="32" height="32" style="opacity:.00100002"/>
  <g>
   <rect x="4" y="2" width="23" height="30" rx="1.5" ry="1.5" style="opacity:.2"/>
   <rect x="4" y="1" width="23" height="30" rx="1.5" ry="1.5" style="fill:#8e8e8e"/>
   <rect x="6" y="4" width="19" height="22" rx="1.5" ry="1.5" style="opacity:.6"/>
   <rect x="12" y="2" width="7" height="1" rx=".5" ry=".5" style="opacity:.5"/>
   <circle cx="15.5" cy="28.5" r="1.5" style="opacity:.5"/>
   <path d="m5.5 1c-0.831 0-1.5 0.669-1.5 1.5v1c0-0.831 0.669-1.5 1.5-1.5h20c0.831 0 1.5 0.669 1.5 1.5v-1c0-0.831-0.669-1.5-1.5-1.5z" style="fill:#ffffff;opacity:.2"/>
  </g>
 </g>
 <g id="phone-battery" transform="translate(0,-32)">
  <rect width="32" height="32" style="opacity:.00100002"/>
  <g>
   <rect x="4" y="2" width="23" height="30" rx="1.5" ry="1.5" style="opacity:.2"/>
   <rect x="4" y="1" width="23" height="30" rx="1.5" ry="1.5" style="fill:#8e8e8e"/>
   <rect x="6" y="4" width="19" height="22" rx="1.5" ry="1.5" style="opacity:.6"/>
   <rect x="12" y="2" width="7" height="1" rx=".5" ry=".5" style="opacity:.5"/>
   <circle cx="15.5" cy="28.5" r="1.5" style="opacity:.5"/>
   <path d="m5.5 1c-0.831 0-1.5 0.669-1.5 1.5v1c0-0.831 0.669-1.5 1.5-1.5h20c0.831 0 1.5 0.669 1.5 1.5v-1c0-0.831-0.669-1.5-1.5-1.5z" style="fill:#ffffff;opacity:.2"/>
  </g>
  <path d="m16 9v5h4l-4 7v-5h-4z" style="opacity:.2"/>
  <path d="m16 8v5h4l-4 7v-5h-4z" style="fill:#f45744"/>
 </g>
</svg>
