<svg width="32" height="32" version="1.1" viewBox="0 0 32 32" xmlns="http://www.w3.org/2000/svg">
 <g id="22-22-plasmavault-error" transform="translate(32,10)">
  <rect width="22" height="22" style="fill-opacity:.40392157;fill:#2b0000;opacity:.00100002"/>
  <path d="m4.1425781 3s-1.1425781 0.04269-1.1425781 1.1855469v12.671875s-2.789e-4 1.142578 1.1425781 1.142578h13.714844s1.142578 2.79e-4 1.142578-1.142578v-10.685547c0-1.1428573-1.142578-1.171875-1.142578-1.171875h-5.714844l-2.2851561-2zm5.8574219 3h2v7h-2zm1 8a1 1 0 0 1 1 1 1 1 0 0 1-1 1 1 1 0 0 1-1-1 1 1 0 0 1 1-1z" style="fill:#5294e2"/>
 </g>
 <g id="plasmavault-error">
  <rect width="32" height="32" style="opacity:.00100002"/>
  <rect x="3" y="12" width="25" height="16" rx="1.25" ry="1.25" style="opacity:.2"/>
  <path d="M 3,21.75 C 3,22.442 3.5575,23 4.25,23 h 22.5 C 27.442,23 28,22.442 28,21.75 V 8.25 C 28,7.5575 27.442,7 26.75,7 H 14 V 6.25 C 14,5.5575 13.443,5 12.75,5 H 4.25 C 3.5575,5 3,5.5575 3,6.25" style="fill:#bf4b4b"/>
  <rect x="3" y="10" width="25" height="16" rx="1.25" ry="1.25" style="opacity:.2"/>
  <rect x="5" y="9" width="21" height="10" rx="1.25" ry="1.25" style="fill:#e4e4e4"/>
  <rect x="3" y="11" width="25" height="16" rx="1.25" ry="1.25" style="fill:#e25252"/>
  <path d="M 4.25,5 C 3.5575,5 3,5.5575 3,6.25 v 1 C 3,6.5575 3.5575,6 4.25,6 h 8.5 C 13.443,6 14,6.5575 14,7.25 V 8 H 26.75 C 27.442,8 28,8.5575 28,9.25 v -1 C 28,7.5575 27.442,7 26.75,7 H 14 V 6.25 C 14,5.5575 13.443,5 12.75,5 Z" style="fill:#ffffff;opacity:.1"/>
  <path d="m15 14v7h2v-7zm1 8a1 1 0 0 0-1 1 1 1 0 0 0 1 1 1 1 0 0 0 1-1 1 1 0 0 0-1-1z" style="fill:#4f1d1d"/>
 </g>
</svg>
