<svg width="32" height="32" version="1.1" viewBox="0 0 32 32" xmlns="http://www.w3.org/2000/svg">
 <g id="22-22-plasmavault" transform="translate(32,10)">
  <rect width="22" height="22" style="fill-opacity:.40392157;fill:#2b0000;opacity:.00100002"/>
  <path d="m4.1425782 3.0000002s-1.142578 0.04269-1.142578 1.1855469v12.671875s-2.79e-4 1.142578 1.142578 1.142578h13.714844s1.142578 2.79e-4 1.142578-1.142578v-10.685547c0-1.1428573-1.142578-1.171875-1.142578-1.171875h-5.714844l-2.2851558-2zm6.8574218 3c1.6 0 3 0.9993514 3 2.9160156v1.0839842h0.333984c0.32322 0 0.666016 0.366005 0.666016 0.761719v4.523437c0 0.395714-0.296682 0.714844-0.666016 0.714844h-6.6679688c-0.369333 0-0.666015-0.31913-0.666015-0.714844v-4.523437c0-0.395714 0.296682-0.761719 0.666015-0.761719h0.333985v-1.0839842c0-1.9166642 1.399999-2.9160156 2.9999998-2.9160156zm0 1c-0.8 0-1.9999998 0.5633376-1.9999998 1.9160156v1.0839842h3.9999998v-1.0839842c0-1.3662-1.2-1.9160156-2-1.9160156z" style="fill:#aaaaac"/>
 </g>
 <g id="plasmavault">
  <rect width="32" height="32" style="opacity:.00100002"/>
  <g>
   <rect x="3" y="12" width="25" height="16" rx="1.25" ry="1.25" style="opacity:.2"/>
   <path d="M 3,21.75 C 3,22.442 3.5575,23 4.25,23 h 22.5 C 27.442,23 28,22.442 28,21.75 V 8.25 C 28,7.5575 27.442,7 26.75,7 H 14 V 6.25 C 14,5.5575 13.443,5 12.75,5 H 4.25 C 3.5575,5 3,5.5575 3,6.25" style="fill:#3f3f3f"/>
   <rect x="3" y="10" width="25" height="16" rx="1.25" ry="1.25" style="opacity:.2"/>
   <rect x="5" y="9" width="21" height="10" rx="1.25" ry="1.25" style="fill:#dcdcdc"/>
   <rect x="3" y="11" width="25" height="16" rx="1.25" ry="1.25" style="fill:#4f4f4f"/>
   <path d="M 4.25,5 C 3.5575,5 3,5.5575 3,6.25 v 1 C 3,6.5575 3.5575,6 4.25,6 h 8.5 C 13.443,6 14,6.5575 14,7.25 V 8 H 26.75 C 27.442,8 28,8.5575 28,9.25 v -1 C 28,7.5575 27.442,7 26.75,7 H 14 V 6.25 C 14,5.5575 13.443,5 12.75,5 Z" style="fill:#ffffff;opacity:.1"/>
   <path d="m16 14c-1.66 0-3 1.3-3 3v1h-0.5c-0.277 0-0.5 0.223-0.5 0.5v5c0 0.277 0.223 0.5 0.5 0.5h7c0.277 0 0.5-0.223 0.5-0.5v-5c0-0.277-0.223-0.5-0.5-0.5h-0.5v-1c0-1.7-1.34-3-3-3zm0 1c1.11 0 2 0.9 2 2v1h-4v-1c0-1.1 0.89-2 2-2z" style="fill:#c2c2c2"/>
   <path d="m12 23.5v0.5h0.5c-0.277 0-0.5-0.223-0.5-0.5z" style="fill:#3f51b5"/>
   <path d="m20 23.5c0 0.277-0.223 0.5-0.5 0.5h0.5z" style="fill:#3f51b5"/>
  </g>
 </g>
</svg>
