<?xml version="1.0" encoding="UTF-8"?>
<svg width="32" height="32" version="1.1" xmlns="http://www.w3.org/2000/svg">
 <g id="22-22-preferences-desktop-notification" transform="translate(32,-8)">
  <rect y="40" width="22" height="22" opacity=".001"/>
  <path d="m11 43c-4.4183 0-8 3.5817-8 8s3.5817 8 8 8 8-3.5817 8-8-3.5817-8-8-8z" fill="#4285f4"/>
  <path d="m10 47v6h2v-6zm1 7c-0.45315 0-1 0.51843-1 0.98047 0 0.46204 0.54685 1.0195 1 1.0195s1-0.55749 1-1.0195c0-0.46204-0.54685-0.98047-1-0.98047z" fill="#aaaaac"/>
 </g>
 <g id="22-22-preferences-system-bluetooth-activated" transform="translate(96,-72)">
  <rect y="104" width="22" height="22" opacity=".001"/>
  <path d="m11.5 107c-3.047 0-5.5 2.676-5.5 6v4c0 3.324 2.453 6 5.5 6s5.5-2.676 5.5-6v-4c0-3.324-2.453-6-5.5-6zm7.5 0a2 2 0 0 0-2 2 2 2 0 0 0 2 2 2 2 0 0 0 2-2 2 2 0 0 0-2-2zm-8 2h0.5c0.20775 0 0.39305 0.13292 0.46875 0.3125l2.875 2.8438 0.40625 0.375-0.4375 0.34375-2.5625 2.125 2.5625 2.125 0.4375 0.34375-0.40625 0.375-2.875 2.8438c-0.0252 0.0599-0.0798 0.11106-0.125 0.15625-0.0904 0.0904-0.20525 0.15625-0.34375 0.15625h-0.5v-4.9375l-2.1562 1.7812c-0.0905 0.0905-0.20568 0.15625-0.34375 0.15625h-0.5v-0.5c0-0.15322 0.079-0.28328 0.1875-0.375l2.5625-2.125-2.4375-2.0312c-0.0467-0.0197-0.0868-0.06155-0.125-0.09375-0.10854-0.0917-0.1875-0.22178-0.1875-0.375v-0.5h0.5c0.12292 0 0.22543 0.0514 0.3125 0.125 0.0107 9e-3 0.02135 0.0213 0.03125 0.0312l2.1562 1.7813v-4.4375zm1 1.6875v3.25l1.7812-1.4688zm0 5.375v3.25l1.7812-1.7812z" fill="#aaaaac"/>
 </g>
 <g id="22-22-preferences-system-bluetooth" transform="translate(8,32)">
  <rect x="56" width="22" height="22" opacity=".001"/>
  <path d="m67.5 3c-3.047 0-5.5 2.676-5.5 6v4c0 3.324 2.453 6 5.5 6s5.5-2.676 5.5-6v-4c0-3.324-2.453-6-5.5-6zm-0.5 2h0.5c0.20775 0 0.39305 0.13292 0.46875 0.3125l2.875 2.8438 0.40625 0.375-0.4375 0.34375-2.5625 2.125 2.5625 2.125 0.4375 0.34375-0.40625 0.375-2.875 2.8438c-0.0252 0.0599-0.0798 0.11106-0.125 0.15625-0.0904 0.0904-0.20525 0.15625-0.34375 0.15625h-0.5v-4.9375l-2.1562 1.7812c-0.0905 0.0905-0.20568 0.15625-0.34375 0.15625h-0.5v-0.5c0-0.15322 0.079-0.28328 0.1875-0.375l2.5625-2.125-2.4375-2.0312c-0.0467-0.0197-0.0868-0.0615-0.125-0.0937-0.10854-0.0917-0.1875-0.22178-0.1875-0.375v-0.5h0.5c0.12292 0 0.22543 0.0514 0.3125 0.125 0.0107 9e-3 0.0213 0.0213 0.0312 0.0312l2.1562 1.7812v-4.9375zm1 1.6875v3.25l1.7812-1.4688zm0 5.375v3.25l1.7812-1.7812z" fill="#aaaaac"/>
 </g>
 <g id="22-22-preferences-system-bluetooth-inactive" transform="translate(72,32)">
  <rect x="56" width="22" height="22" opacity=".001"/>
  <path d="m67.5 3c-3.047 0-5.5 2.676-5.5 6v4c0 3.324 2.453 6 5.5 6s5.5-2.676 5.5-6v-4c0-3.324-2.453-6-5.5-6zm-0.5 2h0.5c0.20775 0 0.39305 0.13292 0.46875 0.3125l2.875 2.8438 0.40625 0.375-0.4375 0.34375-2.5625 2.125 2.5625 2.125 0.4375 0.34375-0.40625 0.375-2.875 2.8438c-0.0252 0.0599-0.0798 0.11106-0.125 0.15625-0.0904 0.0904-0.20525 0.15625-0.34375 0.15625h-0.5v-4.9375l-2.1562 1.7812c-0.0905 0.0905-0.20568 0.15625-0.34375 0.15625h-0.5v-0.5c0-0.15322 0.079-0.28328 0.1875-0.375l2.5625-2.125-2.4375-2.0312c-0.0467-0.0197-0.0868-0.0615-0.125-0.0937-0.10854-0.0917-0.1875-0.22178-0.1875-0.375v-0.5h0.5c0.12292 0 0.22543 0.0514 0.3125 0.125 0.0107 9e-3 0.0213 0.0213 0.0312 0.0312l2.1562 1.7812v-4.9375zm1 1.6875v3.25l1.7812-1.4688zm0 5.375v3.25l1.7812-1.7812z" fill="#aaaaac" opacity=".3"/>
 </g>
 <g id="22-22-preferences-desktop-display-randr" transform="translate(0,32)">
  <rect width="22" height="22" opacity=".001"/>
  <path d="m3.125 3c-1.125 0-1.125 1.1432-1.125 1.1432v11.731c0 1.1432 1.125 1.1432 1.125 1.1432h5.0375s-1.2001-0.29896-1.1625 0.8436v1.1387h8v-1.1387c0-1.1432-1.0504-0.8436-1.0504-0.8436h4.9254c1.125 0 1.125-1.1432 1.125-1.1432v-11.731s0-1.1432-1.125-1.1432zm0.875 2h14v9.9855l-14 0.02902z" fill="#aaaaac"/>
 </g>
 <g id="preferences-desktop-display-randr">
  <rect width="32" height="32" opacity=".001"/>
  <g transform="translate(0,-1)">
   <rect transform="matrix(0,-1,-1,0,0,0)" x="-29" y="-24" width="21" height="16" rx="1.25" ry="1.25" opacity=".2"/>
   <rect transform="matrix(0,-1,-1,0,0,0)" x="-28" y="-24" width="21" height="16" rx="1.25" ry="1.25" fill="#8e8e8e"/>
   <rect transform="matrix(0,-1,-1,0,0,0)" x="-26" y="-29" width="20" height="26" rx="1.25" ry="1.25" opacity=".2"/>
   <rect transform="matrix(0,-1,-1,0,0,0)" x="-25" y="-29" width="20" height="26" rx="1.25" ry="1.25" fill="#4f4f4f"/>
   <rect transform="matrix(0,-1,-1,0,0,0)" x="-23" y="-27" width="16" height="22" rx="0" ry="0" fill="#333"/>
   <path d="M 4.25,5 C 3.5575,5 3,5.5575 3,6.25 v 1 C 3,6.5575 3.5575,6 4.25,6 h 23.5 C 28.442,6 29,6.5575 29,7.25 v -1 C 29,5.5575 28.442,5 27.75,5 Z" fill="#fff" opacity=".1"/>
   <rect x="5" y="23" width="22" height="1" fill="#fff" opacity=".1"/>
  </g>
 </g>
 <g id="preferences-desktop-notification" transform="translate(32)">
  <rect width="32" height="32" opacity=".001"/>
  <path d="m16 3c-7.732 0-14 6.268-14 14 0 7.732 6.268 14 14 14 7.732 0 14-6.268 14-14 0-7.732-6.268-14-14-14z" opacity=".2"/>
  <path d="m16 2c-7.732 0-14 6.268-14 14 0 7.732 6.268 14 14 14 7.732 0 14-6.268 14-14 0-7.732-6.268-14-14-14z" fill="#4285f4"/>
  <path d="m14 8v12h4v-12zm2 14c-0.9063 0-2 1.0369-2 1.9609 0 0.92409 1.0937 2.0391 2 2.0391s2-1.115 2-2.0391c0-0.92408-1.0937-1.9609-2-1.9609z" opacity=".2"/>
  <path d="m14 7v12h4v-12zm2 14c-0.9063 0-2 1.0369-2 1.9609 0 0.92409 1.0937 2.0391 2 2.0391s2-1.115 2-2.0391c0-0.92408-1.0937-1.9609-2-1.9609z" fill="#fff"/>
  <path d="m16 2c-7.732 0-14 6.268-14 14 0 0.16878 0.019467 0.33267 0.025391 0.5 0.26543-7.4985 6.4114-13.5 13.975-13.5 7.5632 0 13.709 6.0015 13.975 13.5 0.005924-0.16733 0.025391-0.33122 0.025391-0.5 0-7.732-6.268-14-14-14z" fill="#fff" opacity=".2"/>
 </g>
 <g id="preferences-system-bluetooth-activated" transform="translate(96)">
  <rect width="32" height="32" opacity=".001"/>
  <rect transform="matrix(0,-1,-1,0,0,0)" x="-30" y="-26" width="28" height="20" rx="11" ry="10" fill="#324090"/>
  <path d="m16 2c-5.54 0-10 4.906-10 11v1c0-6.094 4.46-11 10-11s10 4.906 10 11v-1c0-6.094-4.46-11-10-11z" fill="#fff" opacity=".1"/>
  <path d="m11 11.5 9 9-4.5 4.25v-17.5l4.5 4.25-9 8" fill="none" stroke="#2fec5d" stroke-linecap="square"/>
  <path d="m6 19v1c0 6.094 4.46 11 10 11s10-4.906 10-11v-1c0 6.094-4.46 11-10 11s-10-4.906-10-11z" opacity=".2"/>
 </g>
 <g id="preferences-system-bluetooth" transform="translate(64)">
  <rect width="32" height="32" opacity=".001"/>
  <rect transform="matrix(0,-1,-1,0,0,0)" x="-30" y="-26" width="28" height="20" rx="11" ry="10" fill="#324090"/>
  <path d="m16 2c-5.54 0-10 4.906-10 11v1c0-6.094 4.46-11 10-11s10 4.906 10 11v-1c0-6.094-4.46-11-10-11z" fill="#fff" opacity=".1"/>
  <path d="m11 11.5 9 9-4.5 4.25v-17.5l4.5 4.25-9 8" fill="none" stroke="#fff" stroke-linecap="square"/>
  <path d="m6 19v1c0 6.094 4.46 11 10 11s10-4.906 10-11v-1c0 6.094-4.46 11-10 11s-10-4.906-10-11z" opacity=".2"/>
 </g>
 <g id="preferences-system-bluetooth-inactive" transform="translate(128)">
  <rect width="32" height="32" opacity=".001"/>
  <rect transform="matrix(0,-1,-1,0,0,0)" x="-30" y="-26" width="28" height="20" rx="11" ry="10" fill="#616161"/>
  <path d="m16 2c-5.54 0-10 4.906-10 11v1c0-6.094 4.46-11 10-11s10 4.906 10 11v-1c0-6.094-4.46-11-10-11z" fill="#fff" opacity=".1"/>
  <path d="m11 11.5 9 9-4.5 4.25v-17.5l4.5 4.25-9 8" fill="none" stroke="#fff" stroke-linecap="square"/>
  <path d="m6 19v1c0 6.094 4.46 11 10 11s10-4.906 10-11v-1c0 6.094-4.46 11-10 11s-10-4.906-10-11z" opacity=".2"/>
 </g>
 <g id="22-22-preferences-system-windows" transform="translate(155,27)">
  <rect x="5" y="5" width="22" height="22" opacity=".001"/>
  <path d="m13.5 9c-0.5 0-0.5 0.5-0.5 0.5v8c0 0.5 0.5 0.5 0.5 0.5h10s0.5 0 0.5-0.5v-8c0-0.5-0.5-0.5-0.5-0.5zm1.5 3h7v4h-7zm-7.4805 2s-0.51953 0-0.51953 0.5v8c0 0.5 0.5 0.5 0.5 0.5h10s0.5-0.02 0.5-0.5v-3.5h-2v2h-7v-4h3v-3z" fill="#aaaaac"/>
 </g>
 <g id="preferences-system-windows" transform="translate(160)">
  <rect width="32" height="32" opacity=".001"/>
  <g transform="translate(0,1)">
   <path d="M 9.5,1 C 9.3521,1 9.2129,1.0288 9.0781,1.0684 9.2147,1.0357 9.3499,1 9.5,1 Z M 8,4.9 V 18.5 C 8,19.331 8.669,20 9.5,20 h 19 C 29.331,20 30,19.331 30,18.5 V 4.9 Z" fill="#d3d3d3"/>
   <path d="m8 18.5v1c0 0.831 0.669 1.5 1.5 1.5h19c0.831 0 1.5-0.669 1.5-1.5v-1c0 0.831-0.669 1.5-1.5 1.5h-19c-0.831 0-1.5-0.669-1.5-1.5z" opacity=".2"/>
   <path d="m2 13.9v13.6c0 0.831 0.669 1.5 1.5 1.5h19c0.831 0 1.5-0.669 1.5-1.5v-13.6z" fill="#e4e4e4"/>
   <path d="m3.5 10c-0.831 0-1.5 0.669-1.5 1.5v2.5h22v-2.5c0-0.831-0.669-1.5-1.5-1.5z" fill="#636e73"/>
   <path d="m9.5 1c-0.831 0-1.5 0.5-1.5 1.5v2.5h22v-2.5c0-0.831-0.669-1.5-1.5-1.5z" fill="#5a6367"/>
   <path d="m9.5 1c-0.831 0-1.5 0.669-1.5 1.5v1c0-0.831 0.669-1.5 1.5-1.5h19c0.831 0 1.5 0.669 1.5 1.5v-1c0-0.831-0.669-1.5-1.5-1.5z" fill="#fff" opacity=".1"/>
   <path d="m2 27.5v1c0 0.831 0.669 1.5 1.5 1.5h19c0.831 0 1.5-0.669 1.5-1.5v-1c0 0.831-0.669 1.5-1.5 1.5h-19c-0.831 0-1.5-0.669-1.5-1.5z" opacity=".2"/>
  </g>
 </g>
 <g id="preferences-desktop-notification-bell" transform="translate(-22,32)">
  <rect width="22" height="22" opacity=".001"/>
  <path d="m11 3c0.55 0 1 0.45 1 1 0 0.03 0 0.07-0.01 0.1 2.29 0.46 4.01 2.47 4.01 4.9v4.5l2 2v0.5h-14v-0.5l2-2v-4.5c0-2.43 1.72-4.44 4.01-4.9-0.01-0.03-0.01-0.07-0.01-0.1 0-0.55 0.45-1 1-1zm1.73 14c-0.36 0.62-1.02 1-1.73 1s-1.37-0.38-1.73-1z" fill="#aaaaac"/>
 </g>
</svg>
