<svg width="32" height="32" version="1.1" viewBox="0 0 32 32.000001" xmlns="http://www.w3.org/2000/svg">
 <g id="22-22-preferences-system-windows" transform="translate(155,27)">
  <rect x="5" y="5" width="22" height="22" style="opacity:.00100002"/>
  <path d="m13.5 9c-0.5 0-0.5 0.5-0.5 0.5v8c0 0.5 0.5 0.5 0.5 0.5h10s0.5 0 0.5-0.5v-8c0-0.5-0.5-0.5-0.5-0.5zm1.5 3h7v4h-7zm-7.480469 2s-0.519531 0-0.519531 0.5v8c0 0.5 0.5 0.5 0.5 0.5h10s0.5-0.02 0.5-0.5v-3.5h-2v2h-7v-4h3v-3z" style="fill:#aaaaac"/>
 </g>
 <g id="22-22-preferences-system-bluetooth-inactive" transform="translate(72,32)">
  <rect x="56" width="22" height="22" style="opacity:.00100002"/>
  <path d="m67.5 3c-3.047 0-5.5 2.676-5.5 6v4c0 3.324 2.453 6 5.5 6s5.5-2.676 5.5-6v-4c0-3.324-2.453-6-5.5-6zm-0.5 2h0.5c0.20775 0 0.39305 0.13292 0.46875 0.3125l2.875 2.84375 0.40625 0.375-0.4375 0.34375-2.5625 2.125 2.5625 2.125 0.4375 0.34375-0.40625 0.375-2.875 2.84375c-0.0252 0.0599-0.0798 0.11106-0.125 0.15625-0.0904 0.0904-0.20525 0.15625-0.34375 0.15625h-0.5v-4.9375l-2.15625 1.78125c-0.0905 0.0905-0.20568 0.15625-0.34375 0.15625h-0.5v-0.5c0-0.15322 0.079-0.28328 0.1875-0.375l2.5625-2.125-2.4375-2.03125c-0.0467-0.0197-0.0868-0.0615-0.125-0.0937-0.10854-0.0917-0.1875-0.22178-0.1875-0.375v-0.5h0.5c0.12292 0 0.22543 0.0514 0.3125 0.125 0.0107 9e-3 0.0213 0.0213 0.0312 0.0312l2.15625 1.78125v-4.9375zm1 1.6875v3.25l1.78125-1.46875zm0 5.375v3.25l1.78125-1.78125z" style="fill:#ffffff;opacity:.25"/>
 </g>
 <g id="22-22-preferences-system-bluetooth-activated" transform="translate(96,-72)">
  <rect y="104" width="22" height="22" style="opacity:.00100002"/>
  <path d="m11.5 107c-3.047 0-5.5 2.676-5.5 6v4c0 3.324 2.453 6 5.5 6s5.5-2.676 5.5-6v-4c0-3.324-2.453-6-5.5-6zm7.5 0a2 2 0 0 0-2 2 2 2 0 0 0 2 2 2 2 0 0 0 2-2 2 2 0 0 0-2-2zm-8 2h0.5c0.20775 0 0.39305 0.13292 0.46875 0.3125l2.875 2.84375 0.40625 0.375-0.4375 0.34375-2.5625 2.125 2.5625 2.125 0.4375 0.34375-0.40625 0.375-2.875 2.84375c-0.0252 0.0599-0.0798 0.11106-0.125 0.15625-0.0904 0.0904-0.20525 0.15625-0.34375 0.15625h-0.5v-4.9375l-2.15625 1.78125c-0.0905 0.0905-0.20568 0.15625-0.34375 0.15625h-0.5v-0.5c0-0.15322 0.079-0.28328 0.1875-0.375l2.5625-2.125-2.4375-2.03125c-0.0467-0.0197-0.0868-0.06155-0.125-0.09375-0.10854-0.0917-0.1875-0.22178-0.1875-0.375v-0.5h0.5c0.12292 0 0.22543 0.0514 0.3125 0.125 0.0107 9e-3 0.02135 0.0213 0.03125 0.0312l2.15625 1.7813v-4.4375zm1 1.6875v3.25l1.78125-1.46875zm0 5.375v3.25l1.78125-1.78125z" style="fill:#aaaaac"/>
 </g>
 <g id="22-22-preferences-system-bluetooth" transform="translate(8,32)">
  <rect x="56" width="22" height="22" style="opacity:.00100002"/>
  <path d="m67.5 3c-3.047 0-5.5 2.676-5.5 6v4c0 3.324 2.453 6 5.5 6s5.5-2.676 5.5-6v-4c0-3.324-2.453-6-5.5-6zm-0.5 2h0.5c0.20775 0 0.39305 0.13292 0.46875 0.3125l2.875 2.84375 0.40625 0.375-0.4375 0.34375-2.5625 2.125 2.5625 2.125 0.4375 0.34375-0.40625 0.375-2.875 2.84375c-0.0252 0.0599-0.0798 0.11106-0.125 0.15625-0.0904 0.0904-0.20525 0.15625-0.34375 0.15625h-0.5v-4.9375l-2.15625 1.78125c-0.0905 0.0905-0.20568 0.15625-0.34375 0.15625h-0.5v-0.5c0-0.15322 0.079-0.28328 0.1875-0.375l2.5625-2.125-2.4375-2.03125c-0.0467-0.0197-0.0868-0.0615-0.125-0.0937-0.10854-0.0917-0.1875-0.22178-0.1875-0.375v-0.5h0.5c0.12292 0 0.22543 0.0514 0.3125 0.125 0.0107 9e-3 0.0213 0.0213 0.0312 0.0312l2.15625 1.78125v-4.9375zm1 1.6875v3.25l1.78125-1.46875zm0 5.375v3.25l1.78125-1.78125z" style="fill:#aaaaac"/>
 </g>
 <g id="22-22-preferences-desktop-notification" transform="translate(32,-8.0000003)">
  <rect y="40" width="22" height="22" style="fill-opacity:.94117647;opacity:.00100002"/>
  <g>
   <path d="m11 43c-4.418278 0-8 3.581722-8 8s3.581722 8 8 8 8-3.581722 8-8-3.581722-8-8-8z" style="fill:#5294e2"/>
   <path d="m10 47v6h2v-6zm1 7c-0.453152 0-1 0.518427-1 0.980469 0 0.462043 0.546848 1.019531 1 1.019531s1-0.557488 1-1.019531c0-0.462042-0.546848-0.980469-1-0.980469z" style="fill:#dfdfdf"/>
  </g>
 </g>
 <g id="22-22-preferences-desktop-display-randr" transform="translate(0,32)">
  <rect width="22" height="22" style="opacity:.00100002"/>
  <path d="m3.125 2.9999998c-1.125 0-1.125 1.1431761-1.125 1.1431761v11.731336c0 1.143176 1.125 1.143176 1.125 1.143176h5.0375s-1.2001266-0.298955-1.1625 0.843601v1.138711h8v-1.138711c0-1.143176-1.050415-0.843601-1.050415-0.843601h4.925415c1.125 0 1.125-1.143176 1.125-1.143176v-11.731336s0-1.1431761-1.125-1.1431761zm0.875 2.0000002h14v9.98549l-14 0.02902z" style="fill:#aaaaac"/>
 </g>
 <g id="preferences-system-windows" transform="translate(160)">
  <rect width="32" height="32" style="opacity:.00100002"/>
  <g transform="translate(0,1)">
   <path d="M 9.5,1 C 9.3521,1 9.2129,1.0288 9.0781,1.0684 9.2147,1.0357 9.3499,1 9.5,1 Z M 8,4.9 V 18.5 C 8,19.331 8.669,20 9.5,20 h 19 C 29.331,20 30,19.331 30,18.5 V 4.9 Z" style="fill:#d3d3d3"/>
   <path d="m8 18.5v1c0 0.831 0.669 1.5 1.5 1.5h19c0.831 0 1.5-0.669 1.5-1.5v-1c0 0.831-0.669 1.5-1.5 1.5h-19c-0.831 0-1.5-0.669-1.5-1.5z" style="opacity:.2"/>
   <path d="m2 13.9v13.6c0 0.831 0.669 1.5 1.5 1.5h19c0.831 0 1.5-0.669 1.5-1.5v-13.6z" style="fill:#e4e4e4"/>
   <path d="m3.5 10c-0.831 0-1.5 0.669-1.5 1.5v2.5h22v-2.5c0-0.831-0.669-1.5-1.5-1.5z" style="fill:#636e73"/>
   <path d="m9.5 1c-0.831 0-1.5 0.5-1.5 1.5v2.5h22v-2.5c0-0.831-0.669-1.5-1.5-1.5z" style="fill:#5a6367"/>
   <path d="m9.5 1c-0.831 0-1.5 0.669-1.5 1.5v1c0-0.831 0.669-1.5 1.5-1.5h19c0.831 0 1.5 0.669 1.5 1.5v-1c0-0.831-0.669-1.5-1.5-1.5z" style="fill:#ffffff;opacity:.1"/>
   <path d="m2 27.5v1c0 0.831 0.669 1.5 1.5 1.5h19c0.831 0 1.5-0.669 1.5-1.5v-1c0 0.831-0.669 1.5-1.5 1.5h-19c-0.831 0-1.5-0.669-1.5-1.5z" style="opacity:.2"/>
  </g>
 </g>
 <g id="preferences-system-bluetooth-inactive" transform="translate(128)">
  <rect width="32" height="32" style="opacity:.00100002"/>
  <g>
   <rect transform="matrix(0,-1,-1,0,0,0)" x="-30" y="-26" width="28" height="20" rx="11" ry="10" style="fill:#616161"/>
   <path d="m16 2c-5.54 0-10 4.906-10 11v1c0-6.094 4.46-11 10-11s10 4.906 10 11v-1c0-6.094-4.46-11-10-11z" style="fill:#ffffff;opacity:.1"/>
   <path d="m11 11.5 9 9-4.5 4.25v-17.5l4.5 4.25-9 8" style="fill:none;stroke-linecap:square;stroke:#ffffff"/>
   <path d="m6 19v1c0 6.094 4.46 11 10 11s10-4.906 10-11v-1c0 6.094-4.46 11-10 11s-10-4.906-10-11z" style="opacity:.2"/>
  </g>
 </g>
 <g id="preferences-system-bluetooth-activated" transform="translate(96)">
  <rect width="32" height="32" style="opacity:.00100002"/>
  <g>
   <rect transform="matrix(0,-1,-1,0,0,0)" x="-30" y="-26" width="28" height="20" rx="11" ry="10" style="fill:#324090"/>
   <path d="m16 2c-5.54 0-10 4.906-10 11v1c0-6.094 4.46-11 10-11s10 4.906 10 11v-1c0-6.094-4.46-11-10-11z" style="fill:#ffffff;opacity:.1"/>
   <path d="m11 11.5 9 9-4.5 4.25v-17.5l4.5 4.25-9 8" style="fill:none;stroke-linecap:square;stroke:#2fec5d"/>
   <path d="m6 19v1c0 6.094 4.46 11 10 11s10-4.906 10-11v-1c0 6.094-4.46 11-10 11s-10-4.906-10-11z" style="opacity:.2"/>
  </g>
 </g>
 <g id="preferences-system-bluetooth" transform="translate(64)">
  <rect width="32" height="32" style="opacity:.00100002"/>
  <g>
   <rect transform="matrix(0,-1,-1,0,0,0)" x="-30" y="-26" width="28" height="20" rx="11" ry="10" style="fill:#324090"/>
   <path d="m16 2c-5.54 0-10 4.906-10 11v1c0-6.094 4.46-11 10-11s10 4.906 10 11v-1c0-6.094-4.46-11-10-11z" style="fill:#ffffff;opacity:.1"/>
   <path d="m11 11.5 9 9-4.5 4.25v-17.5l4.5 4.25-9 8" style="fill:none;stroke-linecap:square;stroke:#ffffff"/>
   <path d="m6 19v1c0 6.094 4.46 11 10 11s10-4.906 10-11v-1c0 6.094-4.46 11-10 11s-10-4.906-10-11z" style="opacity:.2"/>
  </g>
 </g>
 <g id="preferences-desktop-notification" transform="translate(32)">
  <rect width="32" height="32" style="opacity:.00100002"/>
  <g>
   <path d="m16 3c-7.7319868 0-14 6.2680135-14 14 0 7.731986 6.2680136 14 14 14 7.731987 0 14-6.268014 14-14 0-7.7319865-6.268013-14-14-14z" style="opacity:.2"/>
   <path d="m16 2c-7.7319868 0-14 6.2680135-14 14 0 7.731986 6.2680136 14 14 14 7.731987 0 14-6.268014 14-14 0-7.7319865-6.268013-14-14-14z" style="fill:#5294e2"/>
   <path d="m14 8v12h4v-12zm2 14c-0.906304 0-2 1.036854-2 1.960938 0 0.924086 1.093696 2.039062 2 2.039062s2-1.114976 2-2.039062c0-0.924084-1.093696-1.960938-2-1.960938z" style="opacity:.2"/>
   <path d="m14 7v12h4v-12zm2 14c-0.906304 0-2 1.036854-2 1.960938 0 0.924086 1.093696 2.039062 2 2.039062s2-1.114976 2-2.039062c0-0.924084-1.093696-1.960938-2-1.960938z" style="fill:#ffffff"/>
   <path d="M 16,2 C 8.2680132,2 2,8.2680135 2,16 2,16.168777 2.019467,16.332668 2.025391,16.5 2.2908203,9.0015471 8.4367904,3 16,3 23.56321,3 29.70918,9.0015471 29.974609,16.5 29.980533,16.332668 30,16.168777 30,16 30,8.2680135 23.731987,2 16,2 Z" style="fill:#ffffff;opacity:.2"/>
  </g>
 </g>
 <g id="preferences-desktop-display-randr">
  <rect width="32" height="32" style="opacity:.00100002"/>
  <g transform="translate(0,-1)">
   <rect transform="matrix(0,-1,-1,0,0,0)" x="-29" y="-24" width="21" height="16" rx="1.25" ry="1.25" style="opacity:.2"/>
   <rect transform="matrix(0,-1,-1,0,0,0)" x="-28" y="-24" width="21" height="16" rx="1.25" ry="1.25" style="fill:#8e8e8e"/>
   <rect transform="matrix(0,-1,-1,0,0,0)" x="-26" y="-29" width="20" height="26" rx="1.25" ry="1.25" style="opacity:.2"/>
   <rect transform="matrix(0,-1,-1,0,0,0)" x="-25" y="-29" width="20" height="26" rx="1.25" ry="1.25" style="fill:#4f4f4f"/>
   <rect transform="matrix(0,-1,-1,0,0,0)" x="-23" y="-27" width="16" height="22" rx="0" ry="0" style="opacity:.4"/>
   <path d="M 4.25,5 C 3.5575,5 3,5.5575 3,6.25 v 1 C 3,6.5575 3.5575,6 4.25,6 h 23.5 C 28.442,6 29,6.5575 29,7.25 v -1 C 29,5.5575 28.442,5 27.75,5 Z" style="fill:#ffffff;opacity:.1"/>
   <rect x="5" y="23" width="22" height="1" style="fill:#ffffff;opacity:.1"/>
  </g>
 </g>
</svg>
