<svg width="32" height="32" style="enable-background:new" version="1.1" xmlns="http://www.w3.org/2000/svg">
 <g id="22-22-qbittorrent" transform="translate(32,10)">
  <path d="m0 0h22v22h-22z" style="opacity:.00100002"/>
  <g>
   <path d="m13 3a1 1 0 0 0-1 1v11h2v-0.541016c0.607485 0.353206 1.297298 0.539172 2 0.541016 2.209139 0 4-1.790861 4-4 0-2.2091392-1.790861-4-4-4-0.70252 0.00125-1.392321 0.1865555-2 0.5390625v-3.5390625a1 1 0 0 0-1-1zm3 6c1.104569 0 2 0.8954308 2 2 0 1.104569-0.895431 2-2 2s-2-0.895431-2-2c0-1.1045692 0.895431-2 2-2z" style="fill:#aaaaac"/>
   <path d="m6 7c-2.209139 0-4 1.7908608-4 4 0 2.209139 1.790861 4 4 4 0.702523-0.0013 1.392325-0.188495 2-0.541016v3.541016a1 1 0 0 0 1 1 1 1 0 0 0 1-1v-11h-2v0.5410156c-0.607485-0.3532063-1.297298-0.5391613-2-0.5410156zm0 2c1.10457 0 2 0.8954308 2 2 0 1.104569-0.89543 2-2 2-1.104569 0-2-0.895431-2-2 0-1.1045692 0.895431-2 2-2z" style="fill:#ffffff;opacity:.25"/>
  </g>
 </g>
 <g id="qbittorrent">
  <rect width="32" height="32" style="opacity:.00100002"/>
  <g>
   <path d="m22.5 23a5.5 5.5 0 0 0 5.5-5.5 5.5 5.5 0 0 0-5.5-5.5 5.5 5.5 0 0 0-2.5 0.607v-5.607h-3v16h3v-0.60156a5.5 5.5 0 0 0 2.5 0.602zm0-3a2.5 2.5 0 0 1-2.5-2.5 2.5 2.5 0 0 1 2.5-2.5 2.5 2.5 0 0 1 2.5 2.5 2.5 2.5 0 0 1-2.5 2.5z" style="opacity:.2"/>
   <path d="m9.5 12a5.5 5.5 0 0 0-5.5 5.5 5.5 5.5 0 0 0 5.5 5.5 5.5 5.5 0 0 0 2.5-0.607v5.607h3v-16h-3v0.60156a5.5 5.5 0 0 0-2.5-0.602zm0 3a2.5 2.5 0 0 1 2.5 2.5 2.5 2.5 0 0 1-2.5 2.5 2.5 2.5 0 0 1-2.5-2.5 2.5 2.5 0 0 1 2.5-2.5z" style="opacity:.2"/>
   <circle cx="16" cy="17" r="14" style="opacity:.2"/>
   <circle cx="16" cy="16" r="14" style="fill:#2f67ba"/>
   <path d="m9.5 12c-3.0375661 0-5.5 2.462434-5.5 5.5s2.4624339 5.5 5.5 5.5c0.869602-0.0019 1.726371-0.210297 2.5-0.607422v4.107422a1.5 1.5 0 0 0 1.5 1.5 1.5 1.5 0 0 0 1.5-1.5v-14.5h-3v0.601562c-0.774058-0.395392-1.630805-0.601259-2.5-0.601562zm0 3c1.380712 0 2.5 1.119288 2.5 2.5s-1.119288 2.5-2.5 2.5c-1.3807119 0-2.5-1.119288-2.5-2.5s1.1192881-2.5 2.5-2.5z" style="opacity:.2"/>
   <path d="m9.5 11c-3.0375661 0-5.5 2.462434-5.5 5.5s2.4624339 5.5 5.5 5.5c0.869602-0.0019 1.726371-0.210297 2.5-0.607422v4.107422a1.5 1.5 0 0 0 1.5 1.5 1.5 1.5 0 0 0 1.5-1.5v-14.5h-3v0.601562c-0.774058-0.395392-1.630805-0.601259-2.5-0.601562zm0 3c1.380712 0 2.5 1.119288 2.5 2.5s-1.119288 2.5-2.5 2.5c-1.3807119 0-2.5-1.119288-2.5-2.5s1.1192881-2.5 2.5-2.5z" style="fill:#64d4f9"/>
   <path d="m18.5 7a1.5 1.5 0 0 0-1.5 1.5v14.5h3v-0.601562c0.774058 0.395392 1.630805 0.601259 2.5 0.601562 3.037566 0 5.5-2.462434 5.5-5.5s-2.462434-5.5-5.5-5.5c-0.869602 0.0019-1.726371 0.210297-2.5 0.607422v-4.107422a1.5 1.5 0 0 0-1.5-1.5zm4 8c1.380712 0 2.5 1.119288 2.5 2.5s-1.119288 2.5-2.5 2.5-2.5-1.119288-2.5-2.5 1.119288-2.5 2.5-2.5z" style="opacity:.2"/>
   <path d="m18.5 6a1.5 1.5 0 0 0-1.5 1.5v14.5h3v-0.601562c0.774058 0.395392 1.630805 0.601259 2.5 0.601562 3.037566 0 5.5-2.462434 5.5-5.5s-2.462434-5.5-5.5-5.5c-0.869602 0.0019-1.726371 0.210297-2.5 0.607422v-4.107422a1.5 1.5 0 0 0-1.5-1.5zm4 8c1.380712 0 2.5 1.119288 2.5 2.5s-1.119288 2.5-2.5 2.5-2.5-1.119288-2.5-2.5 1.119288-2.5 2.5-2.5z" style="fill:#ffffff"/>
   <path d="m16 2a14 14 0 0 0-14 14 14 14 0 0 0 0.0215 0.586 14 14 0 0 1 13.978-13.586 14 14 0 0 1 13.979 13.414 14 14 0 0 0 0.021-0.414 14 14 0 0 0-14-14z" style="fill:#ffffff;opacity:.1"/>
  </g>
 </g>
</svg>
