<svg id="svg" width="32" height="32" version="1.1" viewBox="0 0 32 32" xmlns="http://www.w3.org/2000/svg">
 <g id="22-22-quassel-message" transform="translate(-30,-23)">
  <rect x="62" y="1" width="22" height="22" style="fill:none;opacity:.00100002"/>
  <g>
   <circle cx="75" cy="15" r="3" style="fill:#5294e2"/>
   <path d="m73 4c-4.418278 0-8 3.581722-8 8s3.581722 8 8 8 8-3.581722 8-8-3.581722-8-8-8zm0 2a6 6 0 0 1 0.611328 0.03125c6.41e-4 6.49e-5 0.0013-6.51e-5 2e-3 0a6 6 0 0 1 0.578125 0.087891c0.197341 0.039778 0.392221 0.089811 0.582032 0.1484375 0.37981 0.1173121 0.742491 0.2704601 1.085937 0.4570313a6 6 0 0 1 0.01758 0.00977c0.03743 0.020494 0.07244 0.045143 0.109375 0.066406 0.133263 0.076717 0.266018 0.15578 0.392578 0.2421876a6 6 0 0 1 0.0098 0.00586c0.03701 0.025371 0.07102 0.053906 0.107422 0.080078 0.118154 0.084943 0.234194 0.1705678 0.345703 0.2636719a6 6 0 0 1 0.197265 0.1796875c0.07684 0.070144 0.155418 0.1388847 0.228516 0.2128906a6 6 0 0 1 0.175781 0.1933594c0.07709 0.085114 0.156349 0.1683609 0.228516 0.2578125a6 6 0 0 1 0.130859 0.1757813c0.07236 0.096699 0.142452 0.1938361 0.208985 0.2949218a6 6 0 0 1 0.132812 0.2167969c0.05881 0.098145 0.116665 0.1971462 0.169922 0.2988281a6 6 0 0 1 0.0918 0.1855469c0.05954 0.1239357 0.116872 0.2484738 0.167969 0.3769531a6 6 0 0 1 0.05273 0.1445313c0.04918 0.1336123 0.09502 0.2683643 0.134766 0.4062503a6 6 0 0 1 0.04883 0.189453c0.03261 0.128829 0.06377 0.258626 0.08789 0.390625a6 6 0 0 1 0.0332 0.220703c0.01702 0.117796 0.03289 0.235561 0.04297 0.355469a6 6 0 0 1 0.025309 0.507807 6 6 0 0 1-0.0625 0.820312c-0.0088 0.06364-0.01856 0.126465-0.0293 0.189454a6 6 0 0 1-0.179687 0.773437c-9.79e-4 0.0031-9.7e-4 0.0066-2e-3 0.0098a6 6 0 0 1-0.01758 0.04687 6 6 0 0 1-0.265625 0.666015c-0.03122 0.06765-0.06207 0.13491-0.0957 0.201172a6 6 0 0 1-0.36914 0.638672 6 6 0 0 1-0.01563 0.02344c-8e-5 6.39e-4 7.9e-5 0.0013 0 2e-3a6 6 0 0 1-3.773385 2.503828c0.0046 0.0013 0.0091 0.0026 0.01367 0.0039-0.03514 0.0072-0.07206 0.0091-0.107422 0.01563a6 6 0 0 1-0.257812 0.03906c-0.108164 0.01522-0.216245 0.03164-0.326172 0.04102a6 6 0 0 1-0.511717 0.02539 6 6 0 0 1-0.611328-0.03125 6 6 0 0 1-2e-3 0c-0.195786-0.01988-0.388365-0.04964-0.578125-0.08789-0.197342-0.03978-0.392221-0.08981-0.582032-0.148437-0.37981-0.117312-0.742491-0.27046-1.085937-0.457031-0.0033-0.0018-0.0064-4e-3 -0.0098-0.0059a6 6 0 0 1-0.117187-0.07031c-0.133263-0.07672-0.266018-0.15578-0.392578-0.242188a6 6 0 0 1-0.117188-0.08594c-0.118154-0.08494-0.234194-0.170568-0.345703-0.263672a6 6 0 0 1-0.197265-0.179688c-0.07684-0.07014-0.155418-0.138884-0.228516-0.21289a6 6 0 0 1-0.175781-0.19336c-0.07709-0.08511-0.156349-0.16836-0.228516-0.257812a6 6 0 0 1-0.130859-0.175781c-0.07236-0.0967-0.142452-0.193837-0.208985-0.294922a6 6 0 0 1-0.132812-0.216797c-0.05881-0.09814-0.116665-0.197146-0.169922-0.298828a6 6 0 0 1-0.0918-0.185547c-0.05954-0.123936-0.116872-0.248474-0.167969-0.376953a6 6 0 0 1-0.05273-0.144532c-0.04918-0.133612-0.09502-0.268364-0.134766-0.40625a6 6 0 0 1-0.04883-0.189453c-0.03261-0.128829-0.06377-0.258626-0.08789-0.390625a6 6 0 0 1-0.0332-0.220703c-0.01702-0.117796-0.03289-0.235561-0.04297-0.355469a6 6 0 0 1-0.025311-0.507772 6 6 0 0 1 0.03125-0.611328c0.01989-0.196445 0.04952-0.389697 0.08789-0.580078 0.03978-0.197341 0.08981-0.392221 0.148437-0.582032 0.117312-0.3798101 0.27046-0.7424909 0.457031-1.085937 0.0018-0.00334 4e-3 -0.00643 0.0059-0.00977a6 6 0 0 1 0.07031-0.1171875c0.07672-0.1332624 0.15578-0.2660184 0.242188-0.3925781a6 6 0 0 1 0.08594-0.1171876c0.08494-0.1181543 0.170568-0.234194 0.263672-0.3457031a6 6 0 0 1 0.179688-0.1972656c0.07014-0.076839 0.138884-0.1554177 0.21289-0.2285156a6 6 0 0 1 0.19336-0.1757813c0.08511-0.077093 0.16836-0.1563481 0.257812-0.2285156a6 6 0 0 1 0.175781-0.1308594c0.0967-0.072356 0.193837-0.1424516 0.294922-0.2089844a6 6 0 0 1 0.216797-0.1328124c0.09815-0.058814 0.197146-0.1166646 0.298828-0.1699219a6 6 0 0 1 0.185507-0.0917925c0.123936-0.05954 0.248474-0.116872 0.376953-0.1679688a6 6 0 0 1 0.144532-0.052734c0.133612-0.049182 0.268364-0.095015 0.40625-0.1347657a6 6 0 0 1 0.189453-0.048828c0.128829-0.032612 0.258626-0.063765 0.390625-0.087891a6 6 0 0 1 0.220703-0.033203c0.117796-0.017024 0.235561-0.032894 0.355469-0.042969a6 6 0 0 1 0.507812-0.0253905z" style="fill:#aaaaac"/>
  </g>
 </g>
 <g id="22-22-quassel" transform="translate(32,10)">
  <rect width="22" height="22" style="fill:none;opacity:.00100002"/>
  <path d="m11 3c-4.418278 0-8 3.581722-8 8s3.581722 8 8 8 8-3.581722 8-8-3.581722-8-8-8zm0 2c3.313708 0 6 2.6862915 6 6 0 1.249675-0.383439 2.410311-1.037109 3.371094 0.015304-0.122791 0.037109-0.244158 0.037109-0.371094 0-1.656854-1.343146-3-3-3s-3 1.343146-3 3c0 1.379197 0.935517 2.52824 2.203125 2.878906-0.38884 0.079178-0.790903 0.121094-1.203125 0.121094-3.3137085 0-6-2.686292-6-6 0-3.3137085 2.6862915-6 6-6z" style="fill:#aaaaac"/>
 </g>
 <g id="22-22-quassel-inactive" transform="translate(32,-54)">
  <rect width="22" height="22" style="fill:none;opacity:.00100002"/>
  <path d="m11 3c-4.418278 0-8 3.581722-8 8s3.581722 8 8 8 8-3.581722 8-8-3.581722-8-8-8zm0 2c3.313708 0 6 2.6862915 6 6 0 1.249675-0.383439 2.410311-1.037109 3.371094 0.015304-0.122791 0.037109-0.244158 0.037109-0.371094 0-1.656854-1.343146-3-3-3s-3 1.343146-3 3c0 1.379197 0.935517 2.52824 2.203125 2.878906-0.38884 0.079178-0.790903 0.121094-1.203125 0.121094-3.3137085 0-6-2.686292-6-6 0-3.3137085 2.6862915-6 6-6z" style="fill:#ffffff;opacity:.25"/>
 </g>
 <g id="quassel">
  <rect width="32" height="32" style="opacity:.00100002"/>
  <g transform="translate(-2e-4)">
   <rect transform="matrix(0,-1,-1,0,0,0)" x="-30" y="-30" width="28" height="28" rx="14" ry="14" style="fill:#0286c2"/>
   <path d="m2.0254 16.5c-0.0059 0.167-0.0254 0.331-0.0254 0.5 0 7.756 6.244 14 14 14s14-6.244 14-14c0-0.169-0.02-0.333-0.025-0.5-0.264 7.521-6.388 13.5-13.975 13.5-7.5872 0-13.711-5.979-13.975-13.5z" style="opacity:.2"/>
   <path d="m16 2c-7.756 0-14 6.244-14 14 0 0.169 0.0195 0.333 0.0254 0.5 0.2637-7.5206 6.3874-13.5 13.975-13.5 7.587 0 13.711 5.9794 13.975 13.5 5e-3 -0.167 0.025-0.331 0.025-0.5 0-7.756-6.244-14-14-14z" style="fill:#ffffff;opacity:.2"/>
   <path d="m16 9a8 8 0 0 0-8 8 8 8 0 0 0 8 8 8 8 0 0 0 5.0332-1.7852 4.5 4.5 0 0 1-2.533 0.785 4.5 4.5 0 0 1-4.5-4.5 4.5 4.5 0 0 1 4.5-4.5 4.5 4.5 0 0 1 4.5 4.5 4.5 4.5 0 0 1-0.746 2.477 8 8 0 0 0 1.746-4.977 8 8 0 0 0-8-8z" style="opacity:.2"/>
   <path d="m16 8a8 8 0 0 0-8 8 8 8 0 0 0 8 8 8 8 0 0 0 5.0332-1.7852 4.5 4.5 0 0 1-2.533 0.785 4.5 4.5 0 0 1-4.5-4.5 4.5 4.5 0 0 1 4.5-4.5 4.5 4.5 0 0 1 4.5 4.5 4.5 4.5 0 0 1-0.746 2.477 8 8 0 0 0 1.746-4.977 8 8 0 0 0-8-8z" style="fill:#ffffff"/>
  </g>
 </g>
 <g id="quassel-message" transform="translate(0,-32)">
  <rect width="32" height="32" style="opacity:.00100002"/>
  <g transform="translate(-2e-4)">
   <rect transform="matrix(0,-1,-1,0,0,0)" x="-30" y="-30" width="28" height="28" rx="14" ry="14" style="fill:#aa52e5"/>
   <path d="m2.0254 16.5c-0.0059 0.167-0.0254 0.331-0.0254 0.5 0 7.756 6.244 14 14 14s14-6.244 14-14c0-0.169-0.02-0.333-0.025-0.5-0.264 7.521-6.388 13.5-13.975 13.5-7.5872 0-13.711-5.979-13.975-13.5z" style="opacity:.2"/>
   <path d="m16 2c-7.756 0-14 6.244-14 14 0 0.169 0.0195 0.333 0.0254 0.5 0.2637-7.5206 6.3874-13.5 13.975-13.5 7.587 0 13.711 5.9794 13.975 13.5 5e-3 -0.167 0.025-0.331 0.025-0.5 0-7.756-6.244-14-14-14z" style="fill:#ffffff;opacity:.2"/>
   <path d="m16 9a8 8 0 0 0-8 8 8 8 0 0 0 8 8 8 8 0 0 0 5.0332-1.7852 4.5 4.5 0 0 1-2.533 0.785 4.5 4.5 0 0 1-4.5-4.5 4.5 4.5 0 0 1 4.5-4.5 4.5 4.5 0 0 1 4.5 4.5 4.5 4.5 0 0 1-0.746 2.477 8 8 0 0 0 1.746-4.977 8 8 0 0 0-8-8z" style="opacity:.2"/>
   <path d="m16 8a8 8 0 0 0-8 8 8 8 0 0 0 8 8 8 8 0 0 0 5.0332-1.7852 4.5 4.5 0 0 1-2.533 0.785 4.5 4.5 0 0 1-4.5-4.5 4.5 4.5 0 0 1 4.5-4.5 4.5 4.5 0 0 1 4.5 4.5 4.5 4.5 0 0 1-0.746 2.477 8 8 0 0 0 1.746-4.977 8 8 0 0 0-8-8z" style="fill:#ffffff"/>
  </g>
 </g>
 <g id="quassel-inactive" transform="translate(0,-64)">
  <rect width="32" height="32" style="opacity:.00100002"/>
  <g transform="translate(-2e-4)">
   <rect transform="matrix(0,-1,-1,0,0,0)" x="-30" y="-30" width="28" height="28" rx="14" ry="14" style="fill:#626262"/>
   <path d="m2.0254 16.5c-0.0059 0.167-0.0254 0.331-0.0254 0.5 0 7.756 6.244 14 14 14s14-6.244 14-14c0-0.169-0.02-0.333-0.025-0.5-0.264 7.521-6.388 13.5-13.975 13.5-7.5872 0-13.711-5.979-13.975-13.5z" style="opacity:.2"/>
   <path d="m16 2c-7.756 0-14 6.244-14 14 0 0.169 0.0195 0.333 0.0254 0.5 0.2637-7.5206 6.3874-13.5 13.975-13.5 7.587 0 13.711 5.9794 13.975 13.5 5e-3 -0.167 0.025-0.331 0.025-0.5 0-7.756-6.244-14-14-14z" style="fill:#ffffff;opacity:.1"/>
   <path d="m16 9a8 8 0 0 0-8 8 8 8 0 0 0 8 8 8 8 0 0 0 5.0332-1.7852 4.5 4.5 0 0 1-2.533 0.785 4.5 4.5 0 0 1-4.5-4.5 4.5 4.5 0 0 1 4.5-4.5 4.5 4.5 0 0 1 4.5 4.5 4.5 4.5 0 0 1-0.746 2.477 8 8 0 0 0 1.746-4.977 8 8 0 0 0-8-8z" style="opacity:.2"/>
   <path d="m16 8a8 8 0 0 0-8 8 8 8 0 0 0 8 8 8 8 0 0 0 5.0332-1.7852 4.5 4.5 0 0 1-2.533 0.785 4.5 4.5 0 0 1-4.5-4.5 4.5 4.5 0 0 1 4.5-4.5 4.5 4.5 0 0 1 4.5 4.5 4.5 4.5 0 0 1-0.746 2.477 8 8 0 0 0 1.746-4.977 8 8 0 0 0-8-8z" style="fill:#ffffff"/>
  </g>
 </g>
</svg>
