<svg width="32" height="32" version="1.1" viewBox="0 0 32 32" xmlns="http://www.w3.org/2000/svg">
 <g id="quota">
  <rect width="32" height="32" style="opacity:.00100002"/>
  <rect transform="matrix(0,-1,-1,0,0,0)" x="-29" y="-26" width="28" height="22" rx="2" ry="2" style="fill:#8e8e8e"/>
  <path d="m15 5c-3.866 0-7 3.134-7 7v7h7c3.866 0 7-3.134 7-7s-3.134-7-7-7zm0 3a4 4 0 0 1 4 4 4 4 0 0 1-4 4 4 4 0 0 1-4-4 4 4 0 0 1 4-4z" style="opacity:.5"/>
  <path d="m6 1c-1.108 0-2 0.892-2 2v1c0-1.108 0.892-2 2-2h18c1.108 0 2 0.892 2 2v-1c0-1.108-0.892-2-2-2z" style="fill:#ffffff;opacity:.2"/>
  <path d="m4 27v1c0 1.108 0.892 2 2 2h18c1.108 0 2-0.892 2-2v-1c0 1.108-0.892 2-2 2h-18c-1.108 0-2-0.892-2-2z" style="opacity:.2"/>
  <circle cx="23" cy="22" r="8" style="fill-rule:evenodd;fill:#47cd3b"/>
  <path d="M 30.979,22.424 A 8,8 0 0 1 23,30 8,8 0 0 1 15.021,22.576 8,8 0 0 0 15,23 a 8,8 0 0 0 8,8 8,8 0 0 0 8,-8 8,8 0 0 0 -0.02148,-0.57617 z" style="opacity:.2"/>
  <path d="m23 19a3 1 0 0 0-3 1v5a3 1 0 0 0 3 1 3 1 0 0 0 3-1v-5a3 1 0 0 0-3-1zm0 1a3 1 0 0 1 2 0.257812v0.486329a3 1 0 0 1-2 0.255859 3 1 0 0 1-2-0.257812v-0.486329a3 1 0 0 1 2-0.255859zm-2 1.744141a3 1 0 0 0 2 0.255859 3 1 0 0 0 2-0.255859v1a3 1 0 0 1-2 0.255859 3 1 0 0 1-2-0.257812zm0 2a3 1 0 0 0 2 0.255859 3 1 0 0 0 2-0.255859v1a3 1 0 0 1-2 0.255859 3 1 0 0 1-2-0.257812z" style="fill:#ffffff"/>
 </g>
 <g id="quota-low" transform="translate(32)">
  <rect width="32" height="32" style="opacity:.00100002"/>
  <rect transform="matrix(0,-1,-1,0,0,0)" x="-29" y="-26" width="28" height="22" rx="2" ry="2" style="fill:#8e8e8e"/>
  <path d="m15 5c-3.866 0-7 3.134-7 7v7h7c3.866 0 7-3.134 7-7s-3.134-7-7-7zm0 3a4 4 0 0 1 4 4 4 4 0 0 1-4 4 4 4 0 0 1-4-4 4 4 0 0 1 4-4z" style="opacity:.5"/>
  <path d="m6 1c-1.108 0-2 0.892-2 2v1c0-1.108 0.892-2 2-2h18c1.108 0 2 0.892 2 2v-1c0-1.108-0.892-2-2-2z" style="fill:#ffffff;opacity:.2"/>
  <path d="m4 27v1c0 1.108 0.892 2 2 2h18c1.108 0 2-0.892 2-2v-1c0 1.108-0.892 2-2 2h-18c-1.108 0-2-0.892-2-2z" style="opacity:.2"/>
  <circle cx="23" cy="22" r="8" style="fill-rule:evenodd;fill:#b658e3"/>
  <path d="M 30.979,22.424 A 8,8 0 0 1 23,30 8,8 0 0 1 15.021,22.576 8,8 0 0 0 15,23 a 8,8 0 0 0 8,8 8,8 0 0 0 8,-8 8,8 0 0 0 -0.02148,-0.57617 z" style="opacity:.2"/>
  <path d="m23 19c-1.656854 0-3 0.447715-3 1v5c0 0.552285 1.343146 1 3 1s3-0.447715 3-1v-5c0-0.552285-1.343146-1-3-1zm0 1c0.739186 8.7e-4 1.451386 0.09268 2 0.257812v0.486329c-0.549483 0.164426-1.261587 0.255525-2 0.255859-0.739186-8.7e-4 -1.451386-0.092677-2-0.257812v-0.486329c0.549483-0.164426 1.261587-0.255525 2-0.255859zm-2 1.744141c0.549483 0.164426 1.261587 0.255525 2 0.255859 0.738413-3.34e-4 1.450517-0.09143 2-0.255859v1c-0.549483 0.164426-1.261587 0.255525-2 0.255859-0.739186-8.7e-4 -1.451386-0.09268-2-0.257812z" style="fill:#ffffff"/>
 </g>
 <g id="quota-high" transform="translate(64)">
  <rect width="32" height="32" style="opacity:.00100002"/>
  <rect transform="matrix(0,-1,-1,0,0,0)" x="-29" y="-26" width="28" height="22" rx="2" ry="2" style="fill:#8e8e8e"/>
  <path d="m15 5c-3.866 0-7 3.134-7 7v7h7c3.866 0 7-3.134 7-7s-3.134-7-7-7zm0 3a4 4 0 0 1 4 4 4 4 0 0 1-4 4 4 4 0 0 1-4-4 4 4 0 0 1 4-4z" style="opacity:.5"/>
  <path d="m6 1c-1.108 0-2 0.892-2 2v1c0-1.108 0.892-2 2-2h18c1.108 0 2 0.892 2 2v-1c0-1.108-0.892-2-2-2z" style="fill:#ffffff;opacity:.2"/>
  <path d="m4 27v1c0 1.108 0.892 2 2 2h18c1.108 0 2-0.892 2-2v-1c0 1.108-0.892 2-2 2h-18c-1.108 0-2-0.892-2-2z" style="opacity:.2"/>
  <circle cx="23" cy="22" r="8" style="fill-rule:evenodd;fill:#ff711b"/>
  <path d="M 30.979,22.424 A 8,8 0 0 1 23,30 8,8 0 0 1 15.021,22.576 8,8 0 0 0 15,23 a 8,8 0 0 0 8,8 8,8 0 0 0 8,-8 8,8 0 0 0 -0.02148,-0.57617 z" style="opacity:.2"/>
  <path d="m23 19c-1.656854 0-3 0.447715-3 1v5c0 0.552285 1.343146 1 3 1s3-0.447715 3-1v-5c0-0.552285-1.343146-1-3-1zm0 1c0.739186 8.7e-4 1.451386 0.09268 2 0.257812v0.486329c-0.549483 0.164426-1.261587 0.255525-2 0.255859-0.739186-8.7e-4 -1.451386-0.092677-2-0.257812v-0.486329c0.549483-0.164426 1.261587-0.255525 2-0.255859z" style="fill:#ffffff"/>
 </g>
 <g id="quota-critical">
  <rect x="96" width="32" height="32" style="opacity:.00100002"/>
  <rect transform="matrix(0,-1,-1,0,0,0)" x="-29" y="-122" width="28" height="22" rx="2" ry="2" style="fill:#8e8e8e"/>
  <path d="m111 5c-3.866 0-7 3.134-7 7v7h7c3.866 0 7-3.134 7-7s-3.134-7-7-7zm0 3a4 4 0 0 1 4 4 4 4 0 0 1-4 4 4 4 0 0 1-4-4 4 4 0 0 1 4-4z" style="opacity:.5"/>
  <path d="m102 1c-1.108 0-2 0.892-2 2v1c0-1.108 0.892-2 2-2h18c1.108 0 2 0.892 2 2v-1c0-1.108-0.892-2-2-2z" style="fill:#ffffff;opacity:.2"/>
  <path d="m100 27v1c0 1.108 0.892 2 2 2h18c1.108 0 2-0.892 2-2v-1c0 1.108-0.892 2-2 2h-18c-1.108 0-2-0.892-2-2z" style="opacity:.2"/>
  <circle cx="119" cy="22" r="8" style="fill-rule:evenodd;fill:#f14f4f"/>
  <path d="m126.979 22.424a8 8 0 0 1-7.979 7.576 8 8 0 0 1-7.979-7.424 8 8 0 0 0-0.021 0.424 8 8 0 0 0 8 8 8 8 0 0 0 8-8 8 8 0 0 0-0.0215-0.57617z" style="opacity:.2"/>
  <path d="m118 17v7h2v-7zm1 8a1 1 0 0 0-1 1 1 1 0 0 0 1 1 1 1 0 0 0 1-1 1 1 0 0 0-1-1z" style="fill:#ffffff"/>
 </g>
 <g id="quota-missing">
  <rect x="128" width="32" height="32" style="opacity:.00100002"/>
  <rect transform="matrix(0,-1,-1,0,0,0)" x="-29" y="-154" width="28" height="22" rx="2" ry="2" style="fill:#8e8e8e"/>
  <path d="m143 5c-3.866 0-7 3.134-7 7v7h7c3.866 0 7-3.134 7-7s-3.134-7-7-7zm0 3a4 4 0 0 1 4 4 4 4 0 0 1-4 4 4 4 0 0 1-4-4 4 4 0 0 1 4-4z" style="opacity:.5"/>
  <path d="m134 1c-1.108 0-2 0.892-2 2v1c0-1.108 0.892-2 2-2h18c1.108 0 2 0.892 2 2v-1c0-1.108-0.892-2-2-2z" style="fill:#ffffff;opacity:.2"/>
  <path d="m132 27v1c0 1.108 0.892 2 2 2h18c1.108 0 2-0.892 2-2v-1c0 1.108-0.892 2-2 2h-18c-1.108 0-2-0.892-2-2z" style="opacity:.2"/>
  <circle cx="151" cy="22" r="8" style="fill-rule:evenodd;fill:#e4e4e4"/>
  <path d="m158.979 22.424a8 8 0 0 1-7.979 7.576 8 8 0 0 1-7.979-7.424 8 8 0 0 0-0.021 0.424 8 8 0 0 0 8 8 8 8 0 0 0 8-8 8 8 0 0 0-0.0215-0.57617z" style="opacity:.2"/>
  <path d="m151 16c-2.21 0-4 1.79-4 4h2c0-1.1 0.9-2 2-2s2 0.9 2 2c0 0.55-0.21984 1.050156-0.58984 1.410156l-1.24024 1.259766c-0.72 0.73-1.16992 0.730078-1.16992 1.830078v0.5h2c0-1 0.44982-1.100078 1.16992-1.830078l0.90039-0.919922c0.57-0.57 0.92969-1.37 0.92969-2.25 0-2.21-1.79-4-4-4zm0 10a1 1 0 0 0-1 1 1 1 0 0 0 1 1 1 1 0 0 0 1-1 1 1 0 0 0-1-1z" style="fill:#3f3f3f"/>
 </g>
 <g id="22-22-quota" transform="translate(-5,-27)">
  <rect x="5" y="5" width="22" height="22" style="opacity:.00100002"/>
  <g transform="translate(8,8.0002)">
   <path transform="translate(-8,-8.0002)" d="m11 8c-1 0-1 1.1425781-1 1.1425781v13.714844s0 1.142578 1 1.142578h7v-5c0-0.248628 0.07186-0.464157 0.173828-0.650391-0.62663 0.40747-1.370718 0.650391-2.173828 0.650391h-4v-4c0-2.2091 1.7909-4 4-4 2.209 0 4 1.7909 4 4 0 0.974222-0.362523 1.855007-0.941406 2.548828 0.160758-0.08044 0.327471-0.146266 0.503906-0.205078 0.687657-0.229219 1.519-0.34375 2.4375-0.34375v-7.8574219c0-1e-4 0-1.1425781-1-1.1425781zm5 5c-1.1046 0-2 0.8954-2 2s0.8954 2 2 2 2-0.8954 2-2-0.8954-2-2-2z" style="fill:#aaaaac"/>
  </g>
  <path d="m22 18a3 1 0 0 0-3 1v5a3 1 0 0 0 3 1 3 1 0 0 0 3-1v-5a3 1 0 0 0-3-1zm0 1a3 1 0 0 1 2 0.257812v0.486329a3 1 0 0 1-2 0.255859 3 1 0 0 1-2-0.257812v-0.486329a3 1 0 0 1 2-0.255859zm-2 1.744141a3 1 0 0 0 2 0.255859 3 1 0 0 0 2-0.255859v1a3 1 0 0 1-2 0.255859 3 1 0 0 1-2-0.257812zm0 2a3 1 0 0 0 2 0.255859 3 1 0 0 0 2-0.255859v1a3 1 0 0 1-2 0.255859 3 1 0 0 1-2-0.257812z" style="fill:#aaaaac"/>
 </g>
 <g id="22-22-quota-low" transform="translate(27,-27)">
  <rect x="5" y="5" width="22" height="22" style="opacity:.00100002"/>
  <g transform="translate(8,8.0002)">
   <path transform="translate(-8,-8.0002)" d="m11 8c-1 0-1 1.1425781-1 1.1425781v13.714844s0 1.142578 1 1.142578h7v-5c0-0.248628 0.07186-0.464157 0.173828-0.650391-0.62663 0.40747-1.370718 0.650391-2.173828 0.650391h-4v-4c0-2.2091 1.7909-4 4-4 2.209 0 4 1.7909 4 4 0 0.974222-0.362523 1.855007-0.941406 2.548828 0.160758-0.08044 0.327471-0.146266 0.503906-0.205078 0.687657-0.229219 1.519-0.34375 2.4375-0.34375v-7.8574219c0-1e-4 0-1.1425781-1-1.1425781zm5 5c-1.1046 0-2 0.8954-2 2s0.8954 2 2 2 2-0.8954 2-2-0.8954-2-2-2z" style="fill:#aaaaac"/>
  </g>
  <path d="m22 18c-1.656854 0-3 0.447715-3 1v5c0 0.552285 1.343146 1 3 1s3-0.447715 3-1v-5c0-0.552285-1.343146-1-3-1zm0 1c0.739186 8.7e-4 1.451386 0.09268 2 0.257812v0.486329c-0.549483 0.164426-1.261587 0.255525-2 0.255859-0.739186-8.7e-4 -1.451386-0.092677-2-0.257812v-0.486329c0.549483-0.164426 1.261587-0.255525 2-0.255859zm-2 1.744141c0.549483 0.164426 1.261587 0.255525 2 0.255859 0.738413-3.34e-4 1.450517-0.09143 2-0.255859v1c-0.549483 0.164426-1.261587 0.255525-2 0.255859-0.739186-8.7e-4 -1.451386-0.09268-2-0.257812z" style="fill:#aaaaac"/>
 </g>
 <g id="22-22-quota-high" transform="translate(59,-27)">
  <rect x="5" y="5" width="22" height="22" style="opacity:.00100002"/>
  <g transform="translate(8,8.0002)">
   <path transform="translate(-8,-8.0002)" d="m11 8c-1 0-1 1.1425781-1 1.1425781v13.714844s0 1.142578 1 1.142578h7v-5c0-0.248628 0.07186-0.464157 0.173828-0.650391-0.62663 0.40747-1.370718 0.650391-2.173828 0.650391h-4v-4c0-2.2091 1.7909-4 4-4 2.209 0 4 1.7909 4 4 0 0.974222-0.362523 1.855007-0.941406 2.548828 0.160758-0.08044 0.327471-0.146266 0.503906-0.205078 0.687657-0.229219 1.519-0.34375 2.4375-0.34375v-7.8574219c0-1e-4 0-1.1425781-1-1.1425781zm5 5c-1.1046 0-2 0.8954-2 2s0.8954 2 2 2 2-0.8954 2-2-0.8954-2-2-2z" style="fill:#aaaaac"/>
  </g>
  <path d="m22 18c-1.656854 0-3 0.447715-3 1v5c0 0.552285 1.343146 1 3 1s3-0.447715 3-1v-5c0-0.552285-1.343146-1-3-1zm0 1c0.739186 8.7e-4 1.451386 0.09268 2 0.257812v0.486329c-0.549483 0.164426-1.261587 0.255525-2 0.255859-0.739186-8.7e-4 -1.451386-0.092677-2-0.257812v-0.486329c0.549483-0.164426 1.261587-0.255525 2-0.255859z" style="fill:#5294e2"/>
 </g>
 <g id="22-22-quota-critical" transform="translate(91,-27)">
  <rect x="5" y="5" width="22" height="22" style="opacity:.00100002"/>
  <g transform="translate(8,8.0002)">
   <path transform="translate(-8,-8.0002)" d="m11 8c-1 0-1 1.1425781-1 1.1425781v13.714844s0 1.142578 1 1.142578h7v-5c0-0.248628 0.07186-0.464157 0.173828-0.650391-0.62663 0.40747-1.370718 0.650391-2.173828 0.650391h-4v-4c0-2.2091 1.7909-4 4-4 2.209 0 4 1.7909 4 4 0 0.974222-0.362523 1.855007-0.941406 2.548828 0.160758-0.08044 0.327471-0.146266 0.503906-0.205078 0.687657-0.229219 1.519-0.34375 2.4375-0.34375v-7.8574219c0-1e-4 0-1.1425781-1-1.1425781zm5 5c-1.1046 0-2 0.8954-2 2s0.8954 2 2 2 2-0.8954 2-2-0.8954-2-2-2z" style="fill:#5294e2"/>
  </g>
  <path d="m22 18c-1.656854 0-3 0.447715-3 1v5c0 0.552285 1.343146 1 3 1s3-0.447715 3-1v-5c0-0.552285-1.343146-1-3-1zm0 1c0.739186 8.7e-4 1.451386 0.09268 2 0.257812v0.486329c-0.549483 0.164426-1.261587 0.255525-2 0.255859-0.739186-8.7e-4 -1.451386-0.092677-2-0.257812v-0.486329c0.549483-0.164426 1.261587-0.255525 2-0.255859z" style="fill:#5294e2"/>
 </g>
 <g id="22-22-quota-missing" transform="translate(123,-27)">
  <rect x="5" y="5" width="22" height="22" style="opacity:.00100002"/>
  <g transform="translate(8,8.0002)">
   <path transform="translate(-8,-8.0002)" d="m11 8c-1 0-1 1.1425781-1 1.1425781v13.714844s0 1.142578 1 1.142578h7v-5c0-0.248628 0.07186-0.464157 0.173828-0.650391-0.62663 0.40747-1.370718 0.650391-2.173828 0.650391h-4v-4c0-2.2091 1.7909-4 4-4 2.209 0 4 1.7909 4 4 0 0.974222-0.362523 1.855007-0.941406 2.548828 0.160758-0.08044 0.327471-0.146266 0.503906-0.205078 0.687657-0.229219 1.519-0.34375 2.4375-0.34375v-7.8574219c0-1e-4 0-1.1425781-1-1.1425781zm5 5c-1.1046 0-2 0.8954-2 2s0.8954 2 2 2 2-0.8954 2-2-0.8954-2-2-2z" style="fill:#ffffff;opacity:.25"/>
  </g>
  <path d="m22 18a3 1 0 0 0-3 1v5a3 1 0 0 0 3 1 3 1 0 0 0 3-1v-5a3 1 0 0 0-3-1zm0 1a3 1 0 0 1 2 0.257812v0.486329a3 1 0 0 1-2 0.255859 3 1 0 0 1-2-0.257812v-0.486329a3 1 0 0 1 2-0.255859zm-2 1.744141a3 1 0 0 0 2 0.255859 3 1 0 0 0 2-0.255859v1a3 1 0 0 1-2 0.255859 3 1 0 0 1-2-0.257812zm0 2a3 1 0 0 0 2 0.255859 3 1 0 0 0 2-0.255859v1a3 1 0 0 1-2 0.255859 3 1 0 0 1-2-0.257812z" style="fill:#ffffff;opacity:.25"/>
 </g>
</svg>
