<?xml version="1.0" encoding="UTF-8"?>
<svg width="32" height="32" version="1.1" xmlns="http://www.w3.org/2000/svg">
 <g id="sirikali">
  <rect width="32" height="32" opacity=".001"/>
  <rect x="2" y="3" width="28" height="28" rx="1.4" ry="1.4" opacity=".2"/>
  <rect x="2" y="2" width="28" height="28" rx="1.4" ry="1.4" fill="#1493ca"/>
  <path d="m3.4004 2c-0.7756 0-1.4004 0.62479-1.4004 1.4004v1c0-0.7756 0.62479-1.4004 1.4004-1.4004h25.199c0.7756 0 1.4004 0.62479 1.4004 1.4004v-1c0-0.7756-0.62479-1.4004-1.4004-1.4004z" fill="#fff" opacity=".2"/>
  <path d="m16 8c-2.8204 0-5 2.2934-5 5.1426v1.8574h-1.1094c-0.4932 0-0.89062 0.4727-0.89062 0.9707v9.1289c0 0.498 0.39742 0.90039 0.89062 0.90039h12.219c0.493 0 0.89062-0.40239 0.89062-0.90039v-9.1289c0-0.498-0.39862-1.0027-0.89062-0.9707h-1.1094v-1.8574c0-2.8493-2.18-5.1426-5-5.1426zm0 2c1.7627 0 3 1.3618 3 3.1426v1.8574h-6v-1.8574c0-1.781 1.237-3.1426 3-3.1426zm0 7a2 2 0 0 1 2 2 2 2 0 0 1-1.0488 1.7578c0.020184 0.079445 0.048828 0.15629 0.048828 0.24219v2c0 0.554-0.446 1-1 1s-1-0.446-1-1v-2c0-0.08523 0.02895-0.16135 0.04883-0.24023a2 2 0 0 1-1.0488-1.7598 2 2 0 0 1 2-2z" opacity=".2"/>
  <path d="m16 7c-2.8204 0-5 2.2934-5 5.1426v1.8574h-1.1094c-0.4932 0-0.89062 0.4727-0.89062 0.9707v9.1289c0 0.498 0.39742 0.90039 0.89062 0.90039h12.219c0.493 0 0.89062-0.40239 0.89062-0.90039v-9.1289c0-0.498-0.39862-1.0027-0.89062-0.9707h-1.1094v-1.8574c0-2.8493-2.18-5.1426-5-5.1426zm0 2c1.7627 0 3 1.3618 3 3.1426v1.8574h-6v-1.8574c0-1.781 1.237-3.1426 3-3.1426zm0 7a2 2 0 0 1 2 2 2 2 0 0 1-1.0488 1.7578c0.020184 0.079445 0.048828 0.15629 0.048828 0.24219v2c0 0.554-0.446 1-1 1s-1-0.446-1-1v-2c0-0.08523 0.02895-0.16135 0.04883-0.24023a2 2 0 0 1-1.0488-1.7598 2 2 0 0 1 2-2z" fill="#fff"/>
 </g>
 <g id="22-22-sirikali" transform="translate(27,5)">
  <rect x="5" y="5" width="22" height="22" opacity=".001"/>
  <path d="m16 8c-2.6592 0-3.8669 2.1596-4 4.9238v2.0762h-1.1602c-0.465 0-0.83984 0.45472-0.83984 0.93164v7.207c0 0.47692 0.37484 0.86133 0.83984 0.86133h10.32c0.465 0 0.83984-0.3844 0.83984-0.86133v-7.207c0-0.47692-0.37484-0.93164-0.83984-0.93164h-1.1602v-2.0762c0-2.7274-1.3408-4.9238-4-4.9238zm0 2c1.385 0 2 1.3306 2 2.9844v2.0156h-4v-2.0156c0-1.6537 0.615-2.9844 2-2.9844zm0 7c1.1046 0 2 0.91789 2 2.0508-9.29e-4 0.74064-0.39168 1.4085-1 1.7695v1.1797a1 1 0 0 1-1 1 1 1 0 0 1-1-1v-1.1797c-0.60831-0.36104-0.99904-1.0289-1-1.7695 0-1.1329 0.89543-2.0508 2-2.0508z" fill="#aaaaac"/>
 </g>
</svg>
