<svg id="svg" width="32" height="32" version="1.1" viewBox="0 0 32 32" xmlns="http://www.w3.org/2000/svg">
 <g id="22-22-slc-like" transform="translate(31,-23)">
  <rect x="1" y="1" width="22" height="22" style="fill:none;opacity:.00100002"/>
  <path d="m8 4c-2.7614237 0-5 2.2385763-5 5 0 5 7 9 9 11 2-2 9-6 9-11 0-2.7614237-2.238576-5-5-5-1.639595 0-3.088189 0.7807653-4 2-0.911811-1.2192347-2.3604046-2-4-2z" style="fill:#aaaaac"/>
 </g>
 <g id="22-22-slc-share" transform="translate(31,9)">
  <rect x="1" y="1" width="22" height="22" style="fill:none;opacity:.00100002"/>
  <path d="m18 4c-1.656854 0-3 1.3431458-3 3 0 0.087382 0.02393 0.1645141 0.03125 0.25l-6.75 2.8125c-0.550279-0.6472823-1.3651071-1.0625-2.28125-1.0625-1.6568542 0-3 1.343146-3 3s1.3431458 3 3 3c0.9161429 0 1.730971-0.415218 2.28125-1.0625l6.75 2.8125c-0.007321 0.085486-0.03125 0.162618-0.03125 0.25 0 1.656854 1.343146 3 3 3s3-1.343146 3-3-1.343146-3-3-3c-0.916143 0-1.730971 0.415218-2.28125 1.0625l-6.75-2.8125c0.0073208-0.085486 0.03125-0.162618 0.03125-0.25s-0.0239292-0.164514-0.03125-0.25l6.75-2.8125c0.550279 0.6472823 1.365107 1.0625 2.28125 1.0625 1.656854 0 3-1.3431458 3-3s-1.343146-3-3-3zm0 2c0.552285 0 1 0.4477153 1 1s-0.447715 1-1 1-1-0.4477153-1-1 0.447715-1 1-1zm-12 5c0.5522847 0 1 0.447715 1 1s-0.4477153 1-1 1-1-0.447715-1-1 0.4477153-1 1-1zm12 5c0.552285 0 1 0.447715 1 1s-0.447715 1-1 1-1-0.447715-1-1 0.447715-1 1-1z" style="fill:#aaaaac"/>
 </g>
 <g id="22-22-slc-connect" transform="translate(31,-55)">
  <rect x="1" y="1" width="22" height="22" style="fill:none;opacity:.00100002"/>
  <path d="m14 4c-0.778503 0.7785032-0.936706 2.1686877-0.03125 3.6875l-4.2500001 2.84375c-0.5284067-0.213208-1.0955937-0.372183-1.65625-0.375-0.7287598-0.0037-1.4375 0.21875-2.0625 0.84375l3 3-4 4-1 2 2-1 4-4 3.0000001 3c1.106964-1.106964 0.964749-2.507767 0.46875-3.71875l2.84375-4.25c1.518812 0.905456 2.908997 0.747253 3.6875-0.03125z" style="fill:#aaaaac"/>
 </g>
 <g id="slc-like" transform="translate(0,-32)" style="enable-background:new">
  <rect width="32" height="32" style="opacity:.00100002"/>
  <g>
   <path d="M 9.9570312,3 C 5.5629266,3 2,7.1162801 2,12.193359 c 0,1.364118 0.2089286,2.676126 0.5742188,3.929688 0,0 0.3315681,1.131263 0.625,1.753906 C 6.5528776,25.837929 16,31 16,31 c 0,0 9.447122,-5.162071 12.800781,-13.123047 0.293432,-0.622643 0.625,-1.753906 0.625,-1.753906 C 29.791071,14.869485 30,13.557477 30,12.193359 30,7.1162801 26.437073,3 22.042969,3 19.738504,3 17.453413,4.1910383 16,6 14.546587,4.1910383 12.261496,3 9.9570312,3 Z" style="opacity:.2"/>
   <path d="M 9.9570312,2 C 5.5629266,2 2,6.1162801 2,11.193359 c 0,1.364118 0.2089286,2.676126 0.5742188,3.929688 0,0 0.3315681,1.131263 0.625,1.753906 C 6.5528776,24.837929 16,30 16,30 c 0,0 9.447122,-5.162071 12.800781,-13.123047 0.293432,-0.622643 0.625,-1.753906 0.625,-1.753906 C 29.791071,13.869485 30,12.557477 30,11.193359 30,6.1162801 26.437073,2 22.042969,2 19.738504,2 17.453413,3.1910383 16,5 14.546587,3.1910383 12.261496,2 9.9570312,2 Z" style="fill:#c2352a"/>
   <path d="M 9.9570312,2 C 5.5629267,2 2,6.1162805 2,11.193359 2,11.372076 2.012477,11.547696 2.019531,11.724609 2.2322298,6.8668695 5.699945,3 9.9570312,3 12.261496,3 14.546587,4.1910383 16,6 c 1.453413,-1.8089617 3.738504,-3 6.042969,-3 4.257085,0 7.724801,3.8668695 7.9375,8.724609 C 29.987523,11.547696 30,11.372076 30,11.193359 30,6.1162805 26.437073,2 22.042969,2 19.738504,2 17.453413,3.1910383 16,5 14.546587,3.1910383 12.261496,2 9.9570312,2 Z" style="fill:#ffffff;opacity:.2"/>
  </g>
 </g>
 <g id="slc-share">
  <rect width="32" height="32" style="opacity:.00100002"/>
  <g>
   <circle cx="16" cy="17" r="14" style="opacity:.2"/>
   <circle cx="16" cy="16" r="14" style="fill:#3aa3ec"/>
   <path d="m22 9c-1.656854 0-3 1.343146-3 3 0 0.08738 0.02393 0.164514 0.03125 0.25l-6.75 2.8125c-0.550279-0.647282-1.365107-1.0625-2.28125-1.0625-1.656854 0-3 1.343146-3 3s1.343146 3 3 3c0.916143 0 1.730971-0.415218 2.28125-1.0625l6.75 2.8125c-0.0073 0.08549-0.03125 0.162618-0.03125 0.25 0 1.656854 1.343146 3 3 3s3-1.343146 3-3-1.343146-3-3-3c-0.916143 0-1.730971 0.415218-2.28125 1.0625l-6.75-2.8125c0.0073-0.08549 0.03125-0.162618 0.03125-0.25 0-0.08738-0.02393-0.164514-0.03125-0.25l6.75-2.8125c0.550279 0.647282 1.365107 1.0625 2.28125 1.0625 1.656854 0 3-1.343146 3-3s-1.343146-3-3-3zm0 2c0.552285 0 1 0.447715 1 1s-0.447715 1-1 1-1-0.447715-1-1 0.447715-1 1-1zm-12 5c0.552285 0 1 0.447715 1 1s-0.447715 1-1 1-1-0.447715-1-1 0.447715-1 1-1zm12 5c0.552285 0 1 0.447715 1 1s-0.447715 1-1 1-1-0.447715-1-1 0.447715-1 1-1z" style="opacity:.2"/>
   <path d="m22 8c-1.656854 0-3 1.343146-3 3 0 0.08738 0.02393 0.164514 0.03125 0.25l-6.75 2.8125c-0.550279-0.647282-1.365107-1.0625-2.28125-1.0625-1.656854 0-3 1.343146-3 3s1.343146 3 3 3c0.916143 0 1.730971-0.415218 2.28125-1.0625l6.75 2.8125c-0.0073 0.08549-0.03125 0.162618-0.03125 0.25 0 1.656854 1.343146 3 3 3s3-1.343146 3-3-1.343146-3-3-3c-0.916143 0-1.730971 0.415218-2.28125 1.0625l-6.75-2.8125c0.0073-0.08549 0.03125-0.162618 0.03125-0.25 0-0.08738-0.02393-0.164514-0.03125-0.25l6.75-2.8125c0.550279 0.647282 1.365107 1.0625 2.28125 1.0625 1.656854 0 3-1.343146 3-3s-1.343146-3-3-3zm0 2c0.552285 0 1 0.447715 1 1s-0.447715 1-1 1-1-0.447715-1-1 0.447715-1 1-1zm-12 5c0.552285 0 1 0.447715 1 1s-0.447715 1-1 1-1-0.447715-1-1 0.447715-1 1-1zm12 5c0.552285 0 1 0.447715 1 1s-0.447715 1-1 1-1-0.447715-1-1 0.447715-1 1-1z" style="fill:#ffffff"/>
   <path d="M 16,2 A 14,14 0 0 0 2,16 14,14 0 0 0 2.0214844,16.585938 14,14 0 0 1 16,3 14,14 0 0 1 29.978516,16.414062 14,14 0 0 0 30,16 14,14 0 0 0 16,2 Z" style="fill:#ffffff;opacity:.2"/>
  </g>
 </g>
 <g id="slc-connect" transform="translate(0,-64)">
  <rect width="32" height="32" style="opacity:.00100002"/>
  <g>
   <rect transform="matrix(0,-1,-1,0,0,0)" x="-31" y="-30" width="28" height="28" rx="2.0999999" ry="2.0999999" style="opacity:.2"/>
   <rect transform="matrix(0,-1,-1,0,0,0)" x="-30" y="-30" width="28" height="28" rx="2.0999999" ry="2.0999999" style="fill:#70c74d"/>
   <path d="M 4.0996094,2 C 2.9361887,2 2,2.9361887 2,4.0996094 v 1 C 2,3.9361887 2.9361887,3 4.0996094,3 H 27.900391 C 29.063811,3 30,3.9361887 30,5.0996094 v -1 C 30,2.9361887 29.063811,2 27.900391,2 Z" style="fill:#ffffff;opacity:.2"/>
  </g>
  <g>
   <path d="m18 9c-0.778503 0.778503-0.936706 2.168688-0.03125 3.6875l-4.25 2.84375c-0.528407-0.213208-1.095594-0.372183-1.65625-0.375-0.72876-0.0037-1.4375 0.21875-2.0625 0.84375l3 3-4 4-1 2 2-1 4-4 3 3c1.106964-1.106964 0.964749-2.507767 0.46875-3.71875l2.84375-4.25c1.518812 0.905456 2.908997 0.747253 3.6875-0.03125z" style="opacity:.2"/>
   <path d="m18 8c-0.778503 0.778503-0.936706 2.168688-0.03125 3.6875l-4.25 2.84375c-0.528407-0.213208-1.095594-0.372183-1.65625-0.375-0.72876-0.0037-1.4375 0.21875-2.0625 0.84375l3 3-4 4-1 2 2-1 4-4 3 3c1.106964-1.106964 0.964749-2.507767 0.46875-3.71875l2.84375-4.25c1.518812 0.905456 2.908997 0.747253 3.6875-0.03125z" style="fill:#ffffff"/>
  </g>
 </g>
</svg>
