<svg width="32" height="32" version="1.1" viewBox="0 0 32 32" xmlns="http://www.w3.org/2000/svg">
 <g id="16-16-start-here-kde" transform="matrix(.23376457 0 0 .23376457 54.519533 -214.52453)">
  <rect x="-2.2224643" y="986.13989" width="68.444931" height="68.444931" ry="0" style="color-rendering:auto;color:#000000;fill:none;image-rendering:auto;isolation:auto;mix-blend-mode:normal;opacity:.00100002;shape-rendering:auto;solid-color:#000000"/>
  <g transform="matrix(.99905043 0 0 1 .00601379 0)">
   <path d="m36.301794 990.41714-8.57958 1.70642v36.41614l8.53167-1.3329v-15.4001l12.00181 17.1112 9.36242-4.2783-12.78466-14.5441 12.88219-15.40012-9.45995-4.27841-12.00181 17.96743v-17.96743z" style="fill:#aaaaac;stroke-width:4.2778082"/>
   <path d="m16.091924 1004.1111c-0.10523 0.013-0.22121 0.037-0.30078 0.1169l-3.65118 3.6262c-0.15311 0.1527-0.17104 0.3833-0.0585 0.5681l3.88512 6.3666c-0.91261 1.482-1.62127 3.0958-2.09713 4.8125l-7.1603201 1.4789c-0.21748 0.044-0.37598 0.2538-0.37598 0.4762v5.1217c0 0.2169 0.16501 0.4011 0.37598 0.4512l6.9430901 1.671c0.43686 1.9315 1.17524 3.7502 2.15561 5.4057l-4.04386 6.116c-0.12269 0.1861-0.0998 0.4353 0.0585 0.5932l3.65118 3.6261c0.154 0.1527 0.3917 0.1701 0.5765 0.059l6.31645-3.8099c1.56003 0.9324 3.26169 1.646 5.07154 2.0971l1.47886 7.0433c0.0462 0.2173 0.22701 0.376 0.45117 0.376h5.16345c0.2156 0 0.39984-0.1417 0.45117-0.3509l1.75457-7.0935c1.82423-0.4725 3.52292-1.2354 5.08825-2.1973l6.34152 4.1273c0.18737 0.1207 0.43408 0.097 0.59321-0.058l3.63447-3.6177c0.154-0.1527 0.18814-0.3929 0.0752-0.5765l-2.48146-4.0522-0.81045 0.2506c-0.11806 0.036-0.24819-0.015-0.31749-0.1169 0 0-0.76765-1.0442-1.37859-1.8716-0.25483-0.3877-2.35634-2.9421-3.80992-4.7958a12.833425 12.833425 0 0 1-11.67208 7.5196 12.833425 12.833425 0 0 1-12.83342-12.8334 12.833425 12.833425 0 0 1 5.9906-10.8449v-6.8011c-0.95459 0.3549-1.58227 0.7886-2.4564 1.2867l-6.31645-4.1024c-0.0937-0.062-0.18847-0.077-0.29243-0.067z" style="fill:#aaaaac;stroke-width:4.2778082"/>
  </g>
 </g>
 <g id="22-22-start-here-kde">
  <rect x="32" y="10" width="22" height="22" style="opacity:.00100002"/>
  <path d="m44.007934 13-3.01305 0.524559v10.370261l2.997438-0.386106-0.01562-4.674223 3.536041 5.17343 3.473594-0.499207-3.996585-5.354783 4.010245-4.49287-3.516526-0.647411-3.506769 4.49287zm-6.336382 2.648141c-0.02895 0.0024-0.05625 0.01509-0.07806 0.03705l-1.034273 1.045216c-0.04491 0.04523-0.05241 0.115738-0.01756 0.169653l1.248933 1.91688c-0.235609 0.417817-0.413631 0.875931-0.528845 1.355271l-2.156368 0.528458c-0.059859 0.014679-0.105379 0.068753-0.105379 0.130654v1.361122c0 0.0619 0.04552 0.115975 0.105379 0.130651l2.15636 0.528459c0.115214 0.479339 0.293236 0.937454 0.528845 1.355271l-1.248933 1.91688c-0.03484 0.05391-0.02735 0.124425 0.01756 0.169651l1.034273 1.045218c0.0436 0.04393 0.11126 0.04755 0.163921 0.0156l1.957313-1.199264c0.384 0.223545 0.984667 0.403397 1.422612 0.522608l0.458592 2.213284c0.012744 0.063894 0.063531 0.109197 0.12685 0.109197h1.541651c0.06333 0 0.114105-0.0453 0.126846-0.109202l0.458592-2.213284c0.437944-0.119211 1.038614-0.299063 1.422612-0.522608l1.957311 1.199268c0.05266 0.03195 0.120319 0.02833 0.163923-0.0156l1.034272-1.045218c0.04491-0.04523 0.05241-0.115737 0.01756-0.169651l-1.040126-1.597076-0.128797 0.0195-0.729844-1.068616c-0.745428 1.561485-2.321859 2.556557-4.053177 2.55844-2.48316 0-4.496158-2.011527-4.496158-4.49287 0.0014-1.705422 0.969019-3.263001 2.497864-4.020966v-0.980865c-0.284996 0.09495-0.56503 0.202121-0.780583 0.327605l-1.957308-1.199264c-0.02633-0.01597-0.05692-0.02385-0.08587-0.02146z" style="fill:#aaaaac;stroke-width:.99878073"/>
 </g>
 <g id="start-here-kde">
  <rect width="32" height="32" style="opacity:.00100002"/>
  <g>
   <path d="m18.398593 3.999995-4.79953 0.7207962v17.224703l4.79953-1.278832v-6.654577l4.799532 7.845054 4.799532-1.785714-5.999414-7.142859 6.001757-7.7357696-4.656577-1.1928014-4.94483 7.80785zm-9.7724821 4.6712242c-0.1134986 0-0.227 0.043858-0.3140322 0.1302083l-1.8865343 1.8717445c-0.174064 0.1727-0.1321596 0.419414 0 0.625465l1.9521522 3.041297c-0.1446355 0.297881-0.2698798 0.604653-0.3749625 0.918432-0.00459 0.0135-0.011861 0.02599-0.016406 0.03953l-3.54106 0.78125c-0.2403 0.052988-0.4452681 0.197544-0.4452681 0.441775v2.339102c0 0.24423 0.2049681 0.388796 0.4452691 0.441777l3.5410604 0.781251c0.00774 0.0231 0.020141 0.04442 0.028122 0.06744 0.1022831 0.304813 0.2236001 0.603009 0.3632458 0.892857l-1.9521532 3.038971c-0.1321597 0.206051-0.174064 0.452767 0 0.625464l1.8865325 1.871747c0.1740654 0.172698 0.4539982 0.172698 0.6280654 0l3.060638-1.934527c0.300882 0.145178 0.610867 0.270995 0.928034 0.376675 0.02082 0.0072 0.04007 0.0185 0.06093 0.02557l0.785077 3.510974c0 0.244233 0.199108 0.441778 0.44527 0.441778h2.664582c0.246163 0 0.391871-0.203361 0.44527-0.441778l0.78508-3.617932c0.360689-0.134537 0.710832-0.295415 1.047553-0.481305l2.987989 2.120535c0.174066 0.172698 0.454002 0.172698 0.628064 0l1.886535-1.871745c0.174064-0.172699 0.132159-0.419414 0-0.625465l-1.136608-1.71131-0.119519 0.04418c-0.270276 0.100724-0.574536-0.0039-0.724148-0.24879l-1.195193-1.953125c-0.995827 2.363328-3.347593 4.024833-6.090811 4.024833-3.644725 0-6.5993575-2.93147-6.5993575-6.547619 0-2.774906 1.7431895-5.140893 4.1995905-6.094216v-1.304416l-0.0094 0.04186c-0.02651 0.0089-0.05094 0.0233-0.07733 0.03254-0.312958 0.103119-0.619013 0.225818-0.916317 0.367373l-3.0559278-1.9321925c-0.087035-0.0863494-0.2005327-0.1302083-0.3140323-0.1302083z" style="fill:#000000;opacity:.2;stroke-width:1.1951703"/>
   <path d="m18.398593 3-4.79953 0.7207962v17.224703l4.79953-1.278832v-6.654577l4.799532 7.845054 4.799532-1.785714-5.999414-7.142859 6.001757-7.7357696-4.656577-1.1928014-4.94483 7.80785zm-9.7724821 4.6712242c-0.1134986 0-0.227 0.043858-0.3140322 0.1302083l-1.8865343 1.8717445c-0.174064 0.1727-0.1321596 0.419414 0 0.625465l1.9521522 3.041297c-0.1446355 0.297881-0.2698798 0.604653-0.3749625 0.918432-0.00459 0.0135-0.011861 0.02599-0.016406 0.03953l-3.54106 0.78125c-0.2403 0.052988-0.4452681 0.197544-0.4452681 0.441775v2.339102c0 0.24423 0.2049681 0.388796 0.4452691 0.441777l3.5410604 0.781251c0.00774 0.0231 0.020141 0.04442 0.028122 0.06744 0.1022831 0.304813 0.2236001 0.603009 0.3632458 0.892857l-1.9521532 3.038971c-0.1321597 0.206051-0.174064 0.452767 0 0.625464l1.8865325 1.871747c0.1740654 0.172698 0.4539982 0.172698 0.6280654 0l3.060638-1.934527c0.300882 0.145178 0.610867 0.270995 0.928034 0.376675 0.02082 0.0072 0.04007 0.0185 0.06093 0.02557l0.785077 3.510974c0 0.244233 0.199108 0.441778 0.44527 0.441778h2.664582c0.246163 0 0.391871-0.203361 0.44527-0.441778l0.78508-3.617932c0.360689-0.134537 0.710832-0.295415 1.047553-0.481305l2.987989 2.120535c0.174066 0.172698 0.454002 0.172698 0.628064 0l1.886535-1.871745c0.174064-0.172699 0.132159-0.419414 0-0.625465l-1.136608-1.71131-0.119519 0.04418c-0.270276 0.100724-0.574536-0.0039-0.724148-0.24879l-1.195193-1.953125c-0.995827 2.363328-3.347593 4.024833-6.090811 4.024833-3.644725 0-6.5993575-2.93147-6.5993575-6.547619 0-2.774906 1.7431895-5.140893 4.1995905-6.094216v-1.304416l-0.0094 0.04186c-0.02651 0.0089-0.05094 0.0233-0.07733 0.03254-0.312958 0.103119-0.619013 0.225818-0.916317 0.367373l-3.0559278-1.9321925c-0.087035-0.0863494-0.2005327-0.1302083-0.3140323-0.1302083z" style="fill:#aaaaac;stroke-width:1.1951703"/>
  </g>
 </g>
</svg>
