<?xml version="1.0" encoding="UTF-8"?>
<svg width="32" height="32" version="1.1" xmlns="http://www.w3.org/2000/svg">
 <g id="system-log-out" transform="translate(32 -1020.4)">
  <rect x="96" y="1020.4" width="32" height="32" opacity=".001"/>
  <g transform="translate(96 1020.4)">
   <path transform="translate(-128 -.0022)" d="m144 2.002a14 14 0 0 0-14 14 14 14 0 0 0 14 14 14 14 0 0 0 14-14 14 14 0 0 0-14-14zm0 5a9 9 0 0 1 9 9 9 9 0 0 1-9 9 9 9 0 0 1-9-9 9 9 0 0 1 9-9zm0 2a7 7 0 0 0-7 7 7 7 0 0 0 7 7 7 7 0 0 0 7-7 7 7 0 0 0-7-7zm0 4 1.9824 1.5391 2.0176 1.4609-2.0156 1.4609-1.9844 1.5391 0.02539-2h-3.0254c-0.554 0-1-0.446-1-1s0.446-1 1-1h3.0234l-0.02344-2z" fill="#aaaaac"/>
  </g>
 </g>
 <g id="system-shutdown" transform="translate(-32 -1020.4)">
  <rect x="32" y="1020.4" width="32" height="32" opacity=".001"/>
  <g transform="translate(32 1020.4)">
   <path transform="translate(0 -.0022)" d="m16 2.002a14 14 0 0 0-14 14 14 14 0 0 0 14 14 14 14 0 0 0 14-14 14 14 0 0 0-14-14zm0 5a9 9 0 0 1 9 9 9 9 0 0 1-9 9 9 9 0 0 1-9-9 9 9 0 0 1 9-9zm0 2a7 7 0 0 0-7 7 7 7 0 0 0 7 7 7 7 0 0 0 7-7 7 7 0 0 0-7-7zm0 3c0.554 0 1 0.446 1 1v6c0 0.554-0.446 1-1 1s-1-0.446-1-1v-6c0-0.554 0.446-1 1-1z" fill="#aaaaac"/>
  </g>
 </g>
 <g id="system-suspend-hibernate" transform="translate(96 -1020.4)">
  <rect y="1020.4" width="32" height="32" opacity=".001"/>
  <g transform="translate(0 1020.4)">
   <path transform="translate(-96 -.0022)" d="m112 2.002a14 14 0 0 0-14 14 14 14 0 0 0 14 14 14 14 0 0 0 14-14 14 14 0 0 0-14-14zm0 5c4.9706 0 9 4.0294 9 9s-4.0294 9-9 9-9-4.0294-9-9 4.0294-9 9-9zm0 2c-3.866 0-7 3.134-7 7s3.134 7 7 7 7-3.134 7-7-3.134-7-7-7zm0 5a2 2 0 0 1 2 2 2 2 0 0 1-2 2 2 2 0 0 1-2-2 2 2 0 0 1 2-2z" fill="#aaaaac"/>
  </g>
 </g>
 <g id="system-switch-user" transform="translate(192 -1020.4)">
  <rect y="1020.4" width="32" height="32" opacity=".001"/>
  <g transform="translate(0 1020.4)">
   <path transform="translate(-192 -.0022)" d="m208 2.002a14 14 0 0 0-14 14 14 14 0 0 0 14 14 14 14 0 0 0 14-14 14 14 0 0 0-14-14zm-3 6c0.665 0 1 0.41288 1 0.92578v11.074h3l-4 4-4-4h3v-11.074c0-0.5129 0.335-0.92578 1-0.92578zm6 0 4 4h-3v11.074c0 0.51287-0.3352 0.92578-1 0.92578-0.665 0-1-0.41278-1-0.92578v-11.074h-3l4-4z" fill="#aaaaac"/>
  </g>
 </g>
 <g id="system-suspend" transform="translate(64 -1020.4)">
  <rect y="1020.4" width="32" height="32" opacity=".001"/>
  <g transform="translate(0 1020.4)">
   <path transform="translate(-64 -.0022)" d="m80 2.002a14 14 0 0 0-14 14 14 14 0 0 0 14 14 14 14 0 0 0 14-14 14 14 0 0 0-14-14zm0 5a9 9 0 0 1 9 9 9 9 0 0 1-9 9 9 9 0 0 1-9-9 9 9 0 0 1 9-9zm0 2a7 7 0 0 0-7 7 7 7 0 0 0 7 7 7 7 0 0 0 7-7 7 7 0 0 0-7-7zm-3 6h6c0.554 0 1 0.446 1 1s-0.446 1-1 1h-6c-0.554 0-1-0.446-1-1s0.446-1 1-1z" fill="#aaaaac"/>
  </g>
 </g>
 <g id="system-reboot" transform="translate(32 -1020.4)">
  <rect y="1020.4" width="32" height="32" opacity=".001"/>
  <g transform="translate(0 1020.4)">
   <path transform="translate(-32 -.0022)" d="m48 2.002a14 14 0 0 0-14 14 14 14 0 0 0 14 14 14 14 0 0 0 14-14 14 14 0 0 0-14-14zm-2 2 4 4-4 4v-2.7012c-2.964 0.884-4.9969 3.6082-5 6.7012 0 3.866 3.134 7 7 7 3.477-4e-3 6.4229-2.559 6.9199-6 0 0 0.080078-1 1.0801-1s0.93359 1 0.93359 1c-0.5088 4.5512-4.3541 7.9946-8.9336 8-4.9706 0-9-4.0294-9-9 0.0044-4.197 2.9084-7.8331 7-8.7656v-3.2344z" fill="#aaaaac"/>
  </g>
 </g>
 <g id="system-lock-screen" transform="translate(32 -1020.4)">
  <rect x="128" y="1020.4" width="32" height="32" opacity=".001"/>
  <g transform="translate(128 1.7383e-5)">
   <path transform="translate(-160 1020.4)" d="m176 2.002a14 14 0 0 0-14 14 14 14 0 0 0 14 14 14 14 0 0 0 14-14 14 14 0 0 0-14-14zm0 4c2.82 0 5 2.2952 5 5.1445v1.8555h1.1094c0.49199-0.032 0.89062 0.47466 0.89062 0.97266v9.127c0 0.498-0.39763 0.90039-0.89062 0.90039h-12.219c-0.4932 0-0.89062-0.40239-0.89062-0.90039v-9.1289c0-0.498 0.39742-0.9707 0.89062-0.9707h1.1094v-1.8574c0-2.8492 2.1796-5.1426 5-5.1426zm0 2c-1.763 0-3 1.3616-3 3.1426v1.8574h6v-1.8574c0-1.7808-1.2373-3.1426-3-3.1426z" fill="#aaaaac"/>
  </g>
 </g>
 <g id="22-22-system-shutdown" transform="translate(-5 -27)">
  <rect x="5" y="5" width="22" height="22" opacity=".001"/>
  <path transform="translate(5 27)" d="m11-19c-4.4183 0-8 3.5817-8 8s3.5817 8 8 8 8-3.5817 8-8-3.5817-8-8-8zm0 2a6 6 0 0 1 6 6 6 6 0 0 1-6 6 6 6 0 0 1-6-6 6 6 0 0 1 6-6zm0 2a4 4 0 0 0-4 4 4 4 0 0 0 4 4 4 4 0 0 0 4-4 4 4 0 0 0-4-4zm0 1c0.554 0 1 0.446 1 1v4c0 0.554-0.446 1-1 1s-1-0.446-1-1v-4c0-0.554 0.446-1 1-1z" fill="#aaaaac"/>
 </g>
 <g id="22-22-system-suspend" transform="rotate(90 49 22)">
  <rect x="5" y="5" width="22" height="22" opacity=".001"/>
  <path transform="rotate(-90 49 22)" d="m55-19c-4.4183 0-8 3.5817-8 8s3.5817 8 8 8 8-3.5817 8-8-3.5817-8-8-8zm0 2a6 6 0 0 1 6 6 6 6 0 0 1-6 6 6 6 0 0 1-6-6 6 6 0 0 1 6-6zm0 2a4 4 0 0 0-4 4 4 4 0 0 0 4 4 4 4 0 0 0 4-4 4 4 0 0 0-4-4zm-2 3h4c0.554 0 1 0.446 1 1s-0.446 1-1 1h-4c-0.554 0-1-0.446-1-1s0.446-1 1-1z" fill="#aaaaac"/>
 </g>
 <g id="22-22-system-suspend-hibernate" transform="rotate(90 60 33)">
  <rect x="5" y="5" width="22" height="22" opacity=".001"/>
  <path transform="rotate(-90 60 33)" d="m77-19c-4.4183 0-8 3.5817-8 8s3.5817 8 8 8 8-3.5817 8-8-3.5817-8-8-8zm0 2a6 6 0 0 1 6 6 6 6 0 0 1-6 6 6 6 0 0 1-6-6 6 6 0 0 1 6-6zm0 2a4 4 0 0 0-4 4 4 4 0 0 0 4 4 4 4 0 0 0 4-4 4 4 0 0 0-4-4zm0 2a2 2 0 0 1 2 2 2 2 0 0 1-2 2 2 2 0 0 1-2-2 2 2 0 0 1 2-2z" fill="#aaaaac"/>
 </g>
 <g id="22-22-system-log-out" transform="rotate(90 71 44)">
  <rect x="5" y="5" width="22" height="22" opacity=".001"/>
  <path transform="rotate(-90 71 44)" d="m99-19c-4.4183 0-8 3.5817-8 8s3.5817 8 8 8c4.4183 0 8-3.5817 8-8s-3.5817-8-8-8zm0 2a6 6 0 0 1 6 6 6 6 0 0 1-6 6 6 6 0 0 1-6-6 6 6 0 0 1 6-6zm0 2a4 4 0 0 0-4 4 4 4 0 0 0 4 4 4 4 0 0 0 4-4 4 4 0 0 0-4-4zm0 1 3.5 3-3.5 3v-2h-2c-0.554 0-1-0.446-1-1s0.446-1 1-1h2v-2z" fill="#aaaaac"/>
 </g>
 <g id="22-22-system-reboot" transform="translate(44)">
  <rect x="-22" y="-22" width="22" height="22" opacity=".001"/>
  <path d="m-11-19c-4.4183 0-8 3.5817-8 8s3.5817 8 8 8 8-3.5817 8-8-3.5817-8-8-8zm0 1 2.5 2-2.5 2v-1c-2.2091 0-4 1.7909-4 4s1.7909 4 4 4c1.5475-0.00224 2.9276-0.89243 3.5873-2.2415 0.12105-0.27691 0.21473-0.644 0.30054-0.95497 0.097528-0.4582 0.52752-0.80352 1.0125-0.80352 0.47307 0 0.86942 0.32849 0.97338 0.76982 0.062371 0.2817-0.024194 0.53983-0.08458 0.77135-0.69451 2.6166-3.0644 4.4545-5.7892 4.4588-3.3137 0-6-2.6863-6-6 0-3.3137 2.6863-6 6-6z" fill="#aaaaac"/>
 </g>
 <g id="22-22-system-switch-user" transform="translate(127 -27)">
  <rect x="5" y="5" width="22" height="22" opacity=".001"/>
  <path transform="translate(27 27)" d="m-11-19c-4.4183 0-8 3.5817-8 8s3.5817 8 8 8 8-3.5817 8-8-3.5817-8-8-8zm-2 4c0.554 0 1 0.446 1 1v4h1l-2 3-2-3h1v-4c0-0.554 0.446-1 1-1zm4 0 2 3h-1v4c0 0.554-0.446 1-1 1s-1-0.446-1-1v-4h-1l1-1.5z" fill="#aaaaac"/>
 </g>
 <g id="22-22-system-lock-screen" transform="translate(105 -27)">
  <rect x="5" y="5" width="22" height="22" opacity=".001"/>
  <path transform="translate(27 27)" d="m-11-19c-4.4183 0-8 3.5817-8 8s3.5817 8 8 8 8-3.5817 8-8-3.5817-8-8-8zm0 3c1.662 0 3 1.338 3 3v1h0.33398c0.36933 0 0.66602 0.26348 0.66602 0.63281v4.7012c0 0.36933-0.29668 0.66602-0.66602 0.66602h-6.668c-0.36933 0-0.66602-0.29668-0.66602-0.66602v-4.7012c0-0.36933 0.29668-0.63281 0.66602-0.63281h0.33398v-1c0-1.662 1.338-3 3-3zm0 2c-0.58859 0-1 0.41141-1 1v1h2v-1c0-0.58859-0.41141-1-1-1z" fill="#aaaaac"/>
 </g>
 <g id="system-save-session" transform="translate(-32 -1.4648e-5)">
  <rect width="32" height="32" opacity=".001"/>
  <path transform="translate(32 1.4648e-5)" d="m-16 2a14 14 0 0 0-14 14 14 14 0 0 0 14 14 14 14 0 0 0 14-14 14 14 0 0 0-14-14zm-6 7h12c0.55 0 1 0.45 1 1v12c0 0.55-0.45 1-1 1h-11l-2-2v-11c0-0.55 0.45-1 1-1zm1 2v10h1v-5h8v5h1v-10h-10zm5 6v4h2v-4h-2z" fill="#aaaaac"/>
 </g>
 <g id="22-22-system-save-session" transform="translate(-22 -308.77)">
  <rect y="286.77" width="22" height="22" opacity=".001"/>
  <path d="m11 289.77a8 8 0 0 0-8 8 8 8 0 0 0 8 8 8 8 0 0 0 8-8 8 8 0 0 0-8-8zm-4.2852 3h8.5703c0.39286 0 0.71484 0.32198 0.71484 0.71484v8.5703c0 0.39285-0.32199 0.71484-0.71484 0.71484h-7.8574l-1.4277-1.4277v-7.8574c0-0.39286 0.32199-0.71484 0.71484-0.71484zm1.2852 2v6h1v-3h4v3h1v-6zm3 4v2h1v-2z" fill="#aaaaac" stroke-width=".57143"/>
 </g>
 <g id="22-22-system-software-update" transform="translate(32 10)">
  <rect y="32" width="22" height="22" opacity=".001"/>
  <path class="ColorScheme-Highlight" d="m11 35c-4.4183 0-8 3.5817-8 8 0 4.418 3.5817 8 8 8 4.418 0 8-3.582 8-8 0-4.4183-3.582-8-8-8zm0 2c1.4958 0 2.9891 0.56016 4.1484 1.6719-0.3707 0.14382-0.7136 0.37797-0.97656 0.75l-0.46094 0.6543c-1.5688-1.4543-4.0135-1.4299-5.5391 0.095703-0.78091 0.78091-1.1679 1.8045-1.168 2.8281h0.29688a0.69924 0.5747 1.1588e-6 0 1 0.60547 0.86133l-0.65039 0.92578-0.65234 0.92578a0.69924 0.5747 1.1588e-6 0 1-1.209 0l-1.3008-1.8516a0.69924 0.5747 1.1588e-6 0 1 0.39844-0.83594 0.69924 0.5747 1.1588e-6 0 1 0.20508-0.025391h0.30469c7.06e-5 -1.5355 0.58441-3.0707 1.7559-4.2422 1.1716-1.1716 2.7067-1.7578 4.2422-1.7578zm4.9629 3.002a0.69924 0.5747 1.1588e-6 0 1 0.64258 0.28516l1.3008 1.8516a0.69924 0.5747 1.1588e-6 0 1-0.39844 0.83594 0.69924 0.5747 1.1588e-6 0 1-0.20508 0.025391h-0.30469c-7.1e-5 1.5355-0.58441 3.0707-1.7559 4.2422-1.1716 1.1716-2.7067 1.7578-4.2422 1.7578-1.4949 0-2.9874-0.55949-4.1465-1.6699 0.36373-0.14094 0.70826-0.37348 0.97461-0.75v-2e-3l0.46094-0.6543c1.5688 1.4543 4.0135 1.4299 5.5391-0.0957 0.78091-0.78087 1.1679-1.8045 1.168-2.8281h-0.29688a0.69924 0.5747 1.1588e-6 0 1-0.60547-0.86133l0.65039-0.92578 0.65234-0.92578a0.69924 0.5747 1.1588e-6 0 1 0.56641-0.28516z" fill="#4285f4"/>
 </g>
 <g id="system-software-update" transform="translate(0 32)">
  <rect width="32" height="32" opacity=".001"/>
  <path class="ColorScheme-Highlight" d="m16 4c-6.6274 0-12 5.3726-12 12 0 6.627 5.3726 12 12 12 6.627 0 12-5.373 12-12 0-6.6274-5.373-12-12-12zm0 3c2.1628 0 4.3186 0.78637 6.0293 2.3359-0.40938 0.19881-0.79651 0.48705-1.1133 0.91797l-2e-3 2e-3 -0.92969 1.2695c-2.356-2.1006-5.9662-2.0279-8.2266 0.23242-1.1716 1.1716-1.7501 2.7066-1.75 4.2422h0.87109a1.1223 0.88227 0 0 1 0.9707 1.3223l-1.1895 1.6191-1.1875 1.6191a1.1223 0.88227 0 0 1-1.9434 0l-1.1894-1.6192-1.1895-1.6191a1.1223 0.88227 0 0 1 0.9707-1.3223h0.88281c-1.864e-4 -2.3035 0.87527-4.6057 2.6328-6.3633 1.7574-1.7574 4.06-2.6367 6.3633-2.6367zm7.4395 4a1.1223 0.88227 0 0 1 1.0312 0.43945l2.3789 3.2383a1.1223 0.88227 0 0 1-0.9707 1.3223h-0.88281c1.86e-4 2.3035-0.87527 4.6057-2.6328 6.3633-1.7574 1.7574-4.06 2.6367-6.3633 2.6367-2.1628 0-4.3186-0.78637-6.0293-2.3359 0.40938-0.19881 0.79651-0.48705 1.1133-0.91797l2e-3 -2e-3 0.92969-1.2695c2.356 2.1006 5.9662 2.0279 8.2266-0.23242 1.1716-1.1716 1.7501-2.7066 1.75-4.2422h-0.87109a1.1223 0.88227 0 0 1-0.9707-1.3223l1.1895-1.6191 1.1875-1.6191a1.1223 0.88227 0 0 1 0.91206-0.43941z" fill="#4285f4"/>
 </g>
</svg>
