<svg width="32" height="32" version="1.1" viewBox="0 0 32 32" xmlns="http://www.w3.org/2000/svg">
 <g id="system-log-out" transform="matrix(-1,0,0,1,256.00009,-1020.36)">
  <rect x="96" y="1020.36" width="32" height="32" style="opacity:.00100002"/>
  <g transform="translate(96,1020.3622)">
   <circle cx="16" cy="16" r="14" style="fill:#7bbb36"/>
   <path d="m16.00009 1.9977996a14 14 0 0 1 14 14 14 14 0 0 1-0.0215 0.586 14 14 0 0 0-13.978-13.586 14 14 0 0 0-13.979 13.414 14 14 0 0 1-0.021-0.414 14 14 0 0 1 14-14z" style="fill:#cfd8dc;opacity:.2"/>
   <path d="m2.0210904 16.4118a14 14 0 0 0 13.979 13.586 14 14 0 0 0 13.978-13.414 14 14 0 0 1 0.022 0.414 14 14 0 0 1-14 14 14 14 0 0 1-14-14 14 14 0 0 1 0.021-0.586z" style="opacity:.2"/>
   <path d="m17.56889 22.788393c-0.50252 0.13659-1.02693 0.208625-1.56154 0.209396-3.31058 0-5.99425-2.686499-5.99425-6.000445s2.68367-6.000444 5.99425-6.000444c0.53471 6e-4 1.05932 0.07251 1.56204 0.209015m2.43356 2.791207 2.99717 3.000222-2.99717 3.000222m2.99717-3.000222h-7.00003" style="color:#0000ff;fill:none;opacity:.2;stroke-linejoin:round;stroke-width:2.0000226;stroke:#000000"/>
   <path d="m17.568887 21.788849c-0.502513 0.13659-1.026925 0.208625-1.561539 0.209396-3.310581 0-5.994247-2.686499-5.994247-6.000445s2.683666-6.0004437 5.994247-6.0004437c0.534714 6e-4 1.059326 0.07251 1.562039 0.2090147m2.433559 2.791207 2.997174 3.000222-2.997174 3.000222m2.997174-3.000222h-7.00003" style="color:#0000ff;fill:none;stroke-linejoin:round;stroke-width:2.0000226;stroke:#f0f0f2"/>
  </g>
 </g>
 <g id="system-shutdown" transform="translate(-32,-1020.36)">
  <rect x="32" y="1020.36" width="32" height="32" style="opacity:.00100002"/>
  <g transform="translate(32,1020.36)">
   <circle cx="16" cy="16" r="14" style="fill:#c2352a"/>
   <path d="m16 1.9999999a14 14 0 0 0-14 14 14 14 0 0 0 0.0215 0.586 14 14 0 0 1 13.978-13.586 14 14 0 0 1 13.979 13.414 14 14 0 0 0 0.021-0.414 14 14 0 0 0-14-14z" style="fill:#cfd8dc;opacity:.2"/>
   <path d="M 29.979,16.414 A 14,14 0 0 1 16,30 14,14 0 0 1 2.022,16.586 14,14 0 0 0 2,17 14,14 0 0 0 16,31 14,14 0 0 0 30,17 14,14 0 0 0 29.979,16.414 Z" style="opacity:.2"/>
   <rect x="15" y="8.9999847" width="2" height="8" ry="1" style="color:#0000ff;fill:#000000;opacity:.2"/>
   <path d="M 12.478516,10.958983 A 7,7 0 0 0 9,17 a 7,7 0 0 0 7,7 7,7 0 0 0 7,-7 7,7 0 0 0 -3.480469,-6.041017 L 18.625,12.751953 A 5,5 0 0 1 21,17 a 5,5 0 0 1 -5,5 5,5 0 0 1 -5,-5 5,5 0 0 1 2.375,-4.25 z" style="fill:#000000;opacity:.2"/>
   <rect x="15" y="7.997798" width="2" height="8" ry="1" style="color:#0000ff;fill:#f0f0f2"/>
   <path d="m12.478516 9.9567966a7 7 0 0 0-3.478516 6.0410164 7 7 0 0 0 7 7 7 7 0 0 0 7-7 7 7 0 0 0-3.480469-6.0410164l-0.894531 1.7929694a5 5 0 0 1 2.375 4.248047 5 5 0 0 1-5 5 5 5 0 0 1-5-5 5 5 0 0 1 2.375-4.25z" style="fill:#f0f0f2"/>
  </g>
 </g>
 <g id="system-suspend-hibernate" transform="translate(96.00009,-1020.36)">
  <rect y="1020.36" width="32" height="32" style="opacity:.00100002"/>
  <g transform="translate(0,1020.3622)">
   <circle cx="16" cy="16" r="14" style="fill:#9f65d3"/>
   <path d="m15.99991 1.9977995a14 14 0 0 0-14 14 14 14 0 0 0 0.0215 0.586 14 14 0 0 1 13.978-13.586 14 14 0 0 1 13.979 13.414 14 14 0 0 0 0.021-0.414 14 14 0 0 0-14-14z" style="fill:#cfd8dc;opacity:.2"/>
   <path d="m29.97891 16.4118a14 14 0 0 1-13.979 13.586 14 14 0 0 1-13.978-13.414 14 14 0 0 0-0.022 0.414 14 14 0 0 0 14 14 14 14 0 0 0 14-14 14 14 0 0 0-0.021-0.586z" style="opacity:.2"/>
   <path d="m17.99991 16.9978a2.0000001 2.0000501 0 0 1-2 2 2.0000001 2.0000501 0 0 1-2-2 2.0000001 2.0000501 0 0 1 2-2 2.0000001 2.0000501 0 0 1 2 2z" style="fill:#000000;opacity:.2"/>
   <path d="m15.99991 9.9978a7 7 0 0 0-7 7 7 7 0 0 0 7 7 7 7 0 0 0 7-7 7 7 0 0 0-7-7zm0 2a5 5 0 0 1 5 5 5 5 0 0 1-5 5 5 5 0 0 1-5-5 5 5 0 0 1 5-5z" style="fill:#000000;opacity:.2"/>
   <path d="m17.99991 15.9978a2.0000001 2.0000501 0 0 1-2 2 2.0000001 2.0000501 0 0 1-2-2 2.0000001 2.0000501 0 0 1 2-2 2.0000001 2.0000501 0 0 1 2 2z" style="fill:#f0f0f2"/>
   <path d="m15.99991 8.9978a7 7 0 0 0-7 7 7 7 0 0 0 7 7 7 7 0 0 0 7-7 7 7 0 0 0-7-7zm0 2a5 5 0 0 1 5 5 5 5 0 0 1-5 5 5 5 0 0 1-5-5 5 5 0 0 1 5-5z" style="fill:#f0f0f2"/>
  </g>
 </g>
 <g id="system-switch-user" transform="translate(192.00009,-1020.36)">
  <rect y="1020.36" width="32" height="32" style="opacity:.00100002"/>
  <g transform="translate(0,1020.3622)">
   <circle cx="9.9999084" cy="14.997786" r="5" style="fill:#8c8c8e"/>
   <path d="m7.99989 21.9978c-3.32399 0-5.99998 2.8098-5.99998 6.2999v0.7001h15.99994v-0.7001c0-3.4901-2.67599-6.2999-5.99998-6.2999z" style="fill:#8c8c8e"/>
   <path d="m21.99989 2.9978a5 5 0 0 0-5 5 5 5 0 0 0 5 5 5 5 0 0 0 5-5 5 5 0 0 0-5-5zm0 2a3 3 0 0 1 3 3 3 3 0 0 1-3 3 3 3 0 0 1-3-3 3 3 0 0 1 3-3z" style="fill:#8c8c8e"/>
   <path d="m19.99989 14.9978c-1.09794 0-2.1224 0.311285-3.00586 0.847656l0.67397 6.152344h12.33193v-0.699219c0-3.4901-2.67601-6.300781-6-6.300781z" style="fill:#8c8c8e"/>
   <path transform="translate(-192.00009 -.0022)" d="m212 15c-1.12158 0-2.16638 0.324816-3.0625 0.882812a7 7 0 0 1-2.31641 4.353516c1.07162 0.309621 2.05216 0.922506 2.89649 1.763672h12.48242v-0.699219c0-3.4901-2.67601-6.300781-6-6.300781z" style="fill:#8c8c8e"/>
  </g>
 </g>
 <g id="system-suspend" transform="translate(64.00009,-1020.36)">
  <rect y="1020.36" width="32" height="32" style="opacity:.00100002"/>
  <g transform="translate(0,1020.3622)">
   <circle cx="16" cy="16" r="14" style="fill:#41a5c7"/>
   <path d="m15.99991 1.9978004a14 14 0 0 0-14 14 14 14 0 0 0 0.0215 0.586 14 14 0 0 1 13.978-13.586 14 14 0 0 1 13.979 13.414 14 14 0 0 0 0.021-0.414 14 14 0 0 0-14-14z" style="fill:#cfd8dc;opacity:.2"/>
   <path d="m29.97891 16.4118a14 14 0 0 1-13.979 13.586 14 14 0 0 1-13.978-13.414 14 14 0 0 0-0.022 0.414 14 14 0 0 0 14 14 14 14 0 0 0 14-14 14 14 0 0 0-0.021-0.586z" style="opacity:.2"/>
   <path d="m13.99991 15.9978c-0.552285 0-1 0.447715-1 1s0.447715 1 1 1h4c0.552285 0 1-0.447715 1-1s-0.447715-1-1-1z" style="fill:#000000;opacity:.2"/>
   <path d="m15.99991 9.9978a7 7 0 0 0-7 7 7 7 0 0 0 7 7 7 7 0 0 0 7-7 7 7 0 0 0-7-7zm0 2a5 5 0 0 1 5 5 5 5 0 0 1-5 5 5 5 0 0 1-5-5 5 5 0 0 1 5-5z" style="fill:#000000;opacity:.2"/>
   <path d="m13.99991 14.9978c-0.552285 0-1 0.447715-1 1s0.447715 1 1 1h4c0.552285 0 1-0.447715 1-1s-0.447715-1-1-1z" style="fill:#f0f0f2"/>
   <path d="m15.99991 8.9978a7 7 0 0 0-7 7 7 7 0 0 0 7 7 7 7 0 0 0 7-7 7 7 0 0 0-7-7zm0 2a5 5 0 0 1 5 5 5 5 0 0 1-5 5 5 5 0 0 1-5-5 5 5 0 0 1 5-5z" style="fill:#f0f0f2"/>
  </g>
 </g>
 <g id="system-reboot" transform="translate(32.00009,-1020.36)">
  <rect y="1020.36" width="32" height="32" style="opacity:.00100002"/>
  <g transform="translate(0,1020.3622)">
   <circle cx="16" cy="16" r="14" style="fill:#eac046"/>
   <path d="m15.99991 1.9978002a14 14 0 0 0-14 14 14 14 0 0 0 0.0215 0.586 14 14 0 0 1 13.978-13.586 14 14 0 0 1 13.979 13.414 14 14 0 0 0 0.021-0.414 14 14 0 0 0-14-14z" style="fill:#cfd8dc;opacity:.2"/>
   <path d="m29.97891 16.4118a14 14 0 0 1-13.979 13.586 14 14 0 0 1-13.978-13.414 14 14 0 0 0-0.022 0.414 14 14 0 0 0 14 14 14 14 0 0 0 14-14 14 14 0 0 0-0.021-0.586z" style="opacity:.2"/>
   <path d="m13.99991 14.9978v-4h-4.5m3.8203 0.6406c-2.031801 1.0142-3.316901 3.0885-3.3203 5.3594 0 3.3137 2.686299 6 6 6 3.3137 0 6-2.6863 6-6-0.0021-2.1423-1.1463-4.121-3.001999-5.1914" style="color:#0000ff;fill:none;opacity:.2;stroke-linejoin:round;stroke-width:2;stroke:#000000"/>
   <path d="m13.99991 13.9978v-4h-4.5m3.8203 0.6406c-2.031801 1.0142-3.316901 3.0885-3.3203 5.3594 0 3.3137 2.686299 6 6 6 3.3137 0 6-2.6863 6-6-0.0021-2.1423-1.1463-4.121-3.001999-5.1914" style="color:#0000ff;fill:none;stroke-linejoin:round;stroke-width:2;stroke:#f0f0f2"/>
  </g>
 </g>
 <g id="system-lock-screen" transform="translate(32.00009,-1020.36)">
  <rect x="128" y="1020.36" width="32" height="32" style="opacity:.00100002"/>
  <g transform="translate(127.99991,1020.36)">
   <path d="m16 2c-4.432 0-8 3.568-8 8v3h3v-3c0-2.77 2.23-5 5-5s5 2.23 5 5v3h3v-3c0-4.432-3.568-8-8-8z" style="fill:#d2d2d2"/>
   <rect transform="matrix(0,-1,-1,0,0,0)" x="-30" y="-27" width="17" height="22" rx="1.4" ry="1.4" style="fill:#fecd38"/>
   <path d="m16 2c-4.432 0-8 3.568-8 8v1c0-4.432 3.568-8 8-8s8 3.568 8 8v-1c0-4.432-3.568-8-8-8z" style="fill:#ffffff;opacity:.1"/>
   <path d="m6.4004 13c-0.7756 0-1.4004 0.625-1.4004 1.4v1c0-0.775 0.6248-1.4 1.4004-1.4h19.2c0.775 0 1.4 0.625 1.4 1.4v-1c0-0.775-0.625-1.4-1.4-1.4z" style="fill:#ffffff;opacity:.1"/>
   <path d="m5 27.6v1c0 0.775 0.6248 1.4 1.4004 1.4h19.2c0.775 0 1.4-0.625 1.4-1.4v-1c0 0.775-0.625 1.4-1.4 1.4h-19.2c-0.7752 0-1.4-0.625-1.4-1.4z" style="fill:#cb9a05"/>
   <path d="m5 26.6v1c0 0.775 0.6248 1.4 1.4004 1.4h19.2c0.775 0 1.4-0.625 1.4-1.4v-1c0 0.775-0.625 1.4-1.4 1.4h-19.2c-0.7752 0-1.4-0.625-1.4-1.4z" style="fill:#ffffff;opacity:.1"/>
   <rect x="5" y="16" width="22" height="10" rx="0" ry="0" style="fill:#fed96a"/>
   <path d="m16 5c-2.77 0-5 2.23-5 5v1c0-2.77 2.23-5 5-5s5 2.23 5 5v-1c0-2.77-2.23-5-5-5zm-11 23.6v1c0 0.775 0.6248 1.4 1.4004 1.4h19.2c0.775 0 1.4-0.625 1.4-1.4v-1c0 0.775-0.625 1.4-1.4 1.4h-19.2c-0.7752 0-1.4-0.625-1.4-1.4z" style="opacity:.2"/>
  </g>
 </g>
 <g id="22-22-system-suspend" transform="translate(64,-1052.36)">
  <rect y="1030.36" width="22" height="22" style="fill:none;opacity:.00100002"/>
  <g>
   <path transform="translate(-64,1052.36)" d="m73-12c-0.552285 0-1 0.447715-1 1s0.447715 1 1 1h4c0.552285 0 1-0.447715 1-1s-0.447715-1-1-1z" style="fill:#8c8c8e"/>
   <path d="m11 1034.36a7 7 0 0 0-7 7 7 7 0 0 0 7 7 7 7 0 0 0 7-7 7 7 0 0 0-7-7zm0 2a5 5 0 0 1 5 5 5 5 0 0 1-5 5 5 5 0 0 1-5-5 5 5 0 0 1 5-5z" style="fill:#8c8c8e"/>
  </g>
 </g>
 <g id="22-22-system-shutdown" transform="translate(0,-1052.36)">
  <rect y="1030.36" width="22" height="22" style="fill:none;opacity:.00100002"/>
  <g>
   <rect x="10" y="1033.36" width="2" height="8" ry="1" style="color:#0000ff;fill:#8c8c8e"/>
   <path transform="translate(0,1052.36)" d="M 7.4785156,-17.041016 A 7,7 0 0 0 4,-11 a 7,7 0 0 0 7,7 7,7 0 0 0 7,-7 7,7 0 0 0 -3.480469,-6.041016 L 13.625,-15.248047 A 5,5 0 0 1 16,-11 a 5,5 0 0 1 -5,5 5,5 0 0 1 -5,-5 5,5 0 0 1 2.375,-4.25 z" style="fill:#8c8c8e"/>
  </g>
 </g>
 <g id="22-22-system-log-out" transform="rotate(-90,-451.17998,451.17999)">
  <rect y="1030.36" width="22" height="22" style="fill:none;opacity:.00100002"/>
  <path d="m5.209833 1040.7967c-0.1365802 0.5029-0.2086104 1.0278-0.2093804 1.5629 0 3.3137 2.6863057 5.9999 6.0000134 5.9999 3.313708 0 6.000012-2.6862 6.000012-5.9999-6e-4 -0.5352-0.0725-1.0603-0.208999-1.5634m-2.791006-2.4359-3.000007-3-3.0000069 3m3.0000069-3 3.9e-4 6.9929" style="color:#0000ff;fill:none;stroke-linejoin:round;stroke-width:2.0008852;stroke:#8c8c8e"/>
 </g>
 <g id="22-22-system-reboot" transform="matrix(-1,0,0,1,54,-1052.36)">
  <rect y="1030.36" width="22" height="22" style="fill:none;opacity:.00100002"/>
  <path d="m12.999758 1039.36v-4h4.500242m-3.820542 0.6406c2.031801 1.0142 3.316901 3.0885 3.3203 5.3594 0 3.3137-2.686299 6-6 6-3.3136995 0-5.9999995-2.6863-5.9999995-6 0.0021-2.1423 1.1463-4.121 3.001999-5.1914" style="color:#0000ff;fill:none;stroke-linejoin:round;stroke-width:2;stroke:#8c8c8e"/>
 </g>
 <g id="22-22-system-suspend-hibernate" transform="translate(95.999996,-1052.36)">
  <rect y="1030.36" width="22" height="22" style="fill:none;opacity:.00100002"/>
  <g>
   <path d="m13.000004 1041.36a2.0000001 2.0000501 0 0 1-2 2 2.0000001 2.0000501 0 0 1-2-2 2.0000001 2.0000501 0 0 1 2-2 2.0000001 2.0000501 0 0 1 2 2z" style="fill:#8c8c8e"/>
   <path d="m11.000004 1034.36a7 7 0 0 0-7 7 7 7 0 0 0 7 7 7 7 0 0 0 7-7 7 7 0 0 0-7-7zm0 2a5 5 0 0 1 5 5 5 5 0 0 1-5 5 5 5 0 0 1-5-5 5 5 0 0 1 5-5z" style="fill:#8c8c8e"/>
  </g>
 </g>
 <g id="22-22-system-lock-screen" transform="translate(160,-1052.36)">
  <rect y="1030.36" width="22" height="22" style="fill:none;opacity:.00100002"/>
  <path class="ColorScheme-Text" d="m11 1034.3622c-2.216 0-4 1.8216-4 4.0625v1.9375h-1c-0.554 0-1 0.446-1 1v6c0 0.554 0.446 1 1 1h10c0.554 0 1-0.446 1-1v-6c0-0.554-0.446-1-1-1h-1v-1.9375c0-2.24-1.784-4.0625-4-4.0625zm0 2c1.108 0 2 0.892 2 2v2h-4v-2c0-1.108 0.892-2 2-2z" style="color:#d3dae3;fill:#8c8c8e"/>
 </g>
 <g id="22-22-system-switch-user" transform="translate(192.00009,-32.000015)">
  <path d="m0 10v22h22v-22z" style="fill:none;opacity:.00100002"/>
  <g>
   <circle cx="10.99991" cy="18.000015" r="4" style="fill:#8c8c8e"/>
   <path transform="translate(-192.00009,32.000015)" d="m201.5-9c-2.493 0-4.5 2.007-4.5 4.5v0.5h12v-0.5c0-2.493-2.007-4.5-4.5-4.5z" style="fill:#8c8c8e"/>
  </g>
 </g>
 <path d="m-11-18a7 7 0 0 0-7 7 7 7 0 0 0 7 7 7 7 0 0 0 7-7 7 7 0 0 0-7-7zm0 2a5 5 0 0 1 5 5 5 5 0 0 1-5 5 5 5 0 0 1-5-5 5 5 0 0 1 5-5z" style="fill:#8c8c8e"/>
</svg>
