<svg width="32" height="32" version="1.1" xmlns="http://www.w3.org/2000/svg">
 <g id="22-22-TeamViewer" transform="translate(32,10)">
  <rect width="22" height="22" style="opacity:.00100002"/>
  <path d="m11 3c-4.4179185-1e-7 -8.0000001 3.5820815-8 8-1e-7 4.417918 3.5820815 8 8 8 4.417918 0 8-3.582082 8-8 0-4.4179185-3.582082-8.0000001-8-8zm-2 5v2h4v-2l3 3-3 3v-2h-4v2l-3-3z" style="fill:#aaaaac"/>
 </g>
 <g id="TeamViewer">
  <rect width="32" height="32" style="opacity:.00100002"/>
  <g>
   <rect transform="matrix(0,-1,-1,0,0,0)" x="-31" y="-30" width="28" height="28" rx="8.4" ry="8.4" style="opacity:.2"/>
   <rect transform="matrix(0,-1,-1,0,0,0)" x="-30" y="-30" width="28" height="28" rx="8.4" ry="8.4" style="fill:#4e91d9"/>
   <path d="m16 6c-6.0751322 0-11 4.924868-11 11s4.9248678 11 11 11c6.075132 0 11-4.924868 11-11s-4.924868-11-11-11zm-4 6.5v2.5h8v-2.5l6 4.5-6 4.5v-2.5h-8v2.5l-6-4.5z" style="opacity:.2"/>
   <path d="m16 5c-6.0751322 0-11 4.9248678-11 11 0 6.075132 4.9248678 11 11 11 6.075132 0 11-4.924868 11-11 0-6.0751322-4.924868-11-11-11zm-4 6.5v2.5h8v-2.5l6 4.5-6 4.5v-2.5h-8v2.5l-6-4.5z" style="fill:#ffffff"/>
   <path d="M 10.400391,2 C 5.7467908,2 2,5.7467908 2,10.400391 v 1 C 2,6.7467908 5.7467908,3 10.400391,3 H 21.599609 C 26.253209,3 30,6.7467908 30,11.400391 v -1 C 30,5.7467908 26.253209,2 21.599609,2 Z" style="fill:#ffffff;opacity:.2"/>
  </g>
 </g>
</svg>
