<svg width="32" height="32" style="enable-background:new" version="1.1" xmlns="http://www.w3.org/2000/svg">
 <g id="thunderbird">
  <rect width="32" height="32" style="opacity:.00100002"/>
  <path d="m13 3.0003076c-2.191009 0.0584775-3.476277 2.1282747-4.3984375 3.921875-0.1752338 0.0928541-0.3508928 0.1825808-0.5253906 0.2792969-1.740689 1.1702912-3.1665066 2.7912729-4.2675781 4.5644535-0.9685411 1.709584-1.5552729 3.611818-1.7734376 5.560547-0.1296482 1.975741 0.0958554 3.987536 0.8398438 5.835937 1.4083891 3.174878 4.8947028 6.877482 8.125 6.837891-0.699845-0.404632-2.4515387-1.99068-3-5 0.5822585 1.140374 3.211045 2.65286 4 3-0.391947-0.366012-1.896881-2.560828-2-3.849609l-5.0253906-1.544922c-0.4434977-1.402891-0.7075547-2.854548-0.8691406-4.337891-0.020632-0.331459-0.0627824-0.689916 0.0566406-0.601562 0.4467322 0.708033 1.0623852 0.931983 1.8378906 1.333984-0.7354588-1.156737-1.0701174-2.482406-0.9492188-3.857422 0.1213107-1.379702 0.8989846-2.717813 1.7539063-3.708984 0.1013172-0.11599 0.2149118-0.225854 0.3203125-0.339844 0.045713 0.354968 0.1052068 0.709414 0.1464844 1.052734-0.012278 0.265666 0.1509049 0.822721 0.023437 0.878907-0.2571483 0.776811-0.5035642 1.780706 0.1113281 2.458984 0.1947603-0.877979 1.1531078-1.302589 1.9082031-1.671875 0.8535814-0.370582 1.5454574-0.930835 2.3906254-1.320312 1.113704-0.638871 2.188496 0.302734 3.619141 0.302734 1.367776 0 2.812533-0.791781 4.166015-1.400391 0.315 0.325857 0.878677 0.855519 1.125 1.242188h-0.0039c0.705491 1.128284 1.194812 2.43931 1.355469 3.726562 0.200478 1.683718 0.03266 3.361753-0.962891 4.636719 0.02052 0.0027 1.805099 0.130409 2.996094-1-0.849742 6.570236-4.87845 10.082465-7 11 2.824197 0.190066 5-2 5-2 0.410709-0.584957-0.992747 1.398133-2 2 1.84547-0.516751 3.081511-0.70496 4.246094-1.554688-4.36e-4 0 0.946341-0.514535 1.933594-1.640624 0.131339-0.14981 0.356974-0.358689 0.492187-0.529297 0.08405-0.106058 0.161991-0.21375 0.244141-0.320313 0.01448-0.01752 0.031-0.03496 0.04492-0.05273 2.07791-2.541944 3.088697-5.702434 3.013671-8.566406 0.014586-3.471781-1.394703-6.485127-3.761722-8.9765674-1.711803-1.801781-3.655444-3.0030651-5.40625-3.5996094-2.268383-0.6513838-5.066376-0.9295734-7.06836-0.5507812-0.189587 0.063386 0.02773-1.042627 0.261719-1.2089844-0.49911 0.046723-1.030395 1.0027346-1.462891 1.4160156-0.03138 0.00734-0.06991 0.013685-0.09961 0.021484 0.266095-0.5348561 0.149597-0.9000548 0.562501-1.4374996-1.199026 0.2238524-1.4337 1.007868-1.849609 1.7910156-0.158128 0.0533847-0.311348 0.1186946-0.466797 0.1777344 0.394019-1.3063348 1.110814-1.97161 2.316406-2.96875z" style="opacity:.2"/>
  <path d="m6.4261835 24.917543c1.2149782 1.747454 2.7833392 3.806382 4.5738165 4.082457-0.699845-0.404632-2.4515387-1.99068-3-5 0.5822585 1.140374 3.211045 2.65286 4 3-0.391947-0.366012-1.896881-2.561219-2-3.85l-5.0443221-1.550755c0.031428 0.04782 0.1430917 1.451275 1.4705056 3.318298z" style="fill:#304776"/>
  <path d="M 24.387733,13.494081 15.292862,10.304614 5.5460923,10.954089 3.058517,14.058441 c 0.4426297,2.869627 0.1676173,5.976021 1.709075,8.483118 L 22,28 24.373175,21.375843 Z" style="opacity:.2"/>
  <path d="M 24.387733,12.494081 15.292862,9.3046142 5.5460923,9.9540887 3.058517,13.058441 c 0.4426297,2.869627 0.1676173,5.976021 1.709075,8.483118 L 22,27 24.373175,20.375843 Z" style="fill:#ebebeb"/>
  <path d="m5.7794092 9.767613 1.6420561 0.23452 0.4508152-2.1975526-0.9016311 0.4395103z" style="fill-rule:evenodd;fill:#3f7da7"/>
  <path d="m23.647957 15.243162-1.349349-4.432597-16.504279-0.165645-0.0935758 0.115305-0.1546608 0.193864 6.2487427 8.836441z" style="opacity:.2"/>
  <path d="m23.647957 14.243162-1.349349-4.4325967-16.504279-0.1656449-0.0935758 0.1153048-0.1546608 0.1938635 6.2487427 8.8364413z" style="fill:#f7f7f7"/>
  <path d="m15.257336 4.1685036c-0.0017 3.96e-4 -2.075098 0.00999-2.980156 0.3006117-1.508106 0.3480266-2.8611361 0.9895862-4.2017312 1.7326162-1.740689 1.1702912-3.1662484 2.7906523-4.26732 4.5638325-0.9685411 1.709584-1.5554445 3.61122-1.7736091 5.559949-0.1296483 1.975741 0.096358 3.988932 0.8403464 5.837333 1.4083891 3.174878 4.8948367 6.876745 8.1251339 6.837154-0.410318-0.063267-0.722764-0.478786-1.1081722-0.704109-1.296372-0.757905-2.5290988-2.031352-3.4656443-3.378348-1.327414-1.867022-1.4388369-3.269835-1.4702645-3.31766l0.017763 0.0055c-0.4434977-1.402891-0.7074548-2.853698-0.8690407-4.337041-0.020632-0.331459-0.062033-0.690944 0.05739-0.60259 0.4467322 0.708033 1.0624633 0.932247 1.8379687 1.334248-0.7354588-1.156737-1.0708987-2.483004-0.95-3.85802 0.1213106-1.379702 0.8997596-2.717284 1.7546813-3.708455 2.2397958-2.5641647 5.5079797-4.6385584 8.4526547-6.2650214z" style="fill:#2f67a4"/>
  <path d="m15.257812 4.1679688c-0.0017 3.96e-4 -2.07541 0.01016-2.980468 0.3007812-1.508106 0.3480266-2.860577 0.9893919-4.2011721 1.7324219-1.740689 1.1702912-3.1665066 2.7912729-4.2675781 4.5644531-0.9685411 1.709584-1.5552729 3.611818-1.7734376 5.560547-0.036687 0.559089-0.037621 1.119184-0.013672 1.679687 0.00528-0.22685-0.00117-0.453515 0.013672-0.679687 0.2181646-1.948729 0.8048965-3.850963 1.7734376-5.560547 1.1010716-1.77318 2.5268891-3.3941619 4.2675781-4.5644531 1.3405951-0.74303 2.6930661-1.3843953 4.2011721-1.7324219 0.276735-0.0888619 0.663831-0.1453683 1.066406-0.1894531 0.643146-0.3872462 1.287196-0.7650847 1.914062-1.1113281z" style="fill:#ffffff;opacity:.1"/>
  <path d="m12.999992 2.0000033c-2.369664 0.0632458-3.7004247 2.4899344-4.6342819 4.3628684-0.336373 0.5953114-0.6850355 1.3017253-0.9788488 1.8640164-0.5623358 0.8861034-0.2322701 1.9502919-0.1157137 2.9197349-0.012278 0.265666 0.1504684 0.823433 0.023001 0.879619-0.2571483 0.776811-0.5021886 1.779195 0.1127037 2.457473 0.1947603-0.877979 1.1529417-1.301021 1.908037-1.670307 0.8535807-0.370582 1.5445067-0.931983 2.3896747-1.32146 1.113704-0.63887 2.189087 0.302528 3.619732 0.302528 1.367777 0 2.812717-0.790601 4.166199-1.399211 0.315001 0.325857 0.878397 0.855127 1.12472 1.241796h-0.0035c0.705491 1.128284 1.194628 2.439901 1.355285 3.727153 0.200478 1.683718 0.0325 3.35997-0.96305 4.634936-1.18e-4 2e-5 -0.0079 0.0017-0.0079 0.0017 2.3e-5 0 0.0069-1.8e-5 7e-3 0 0.02052 0.0027 1.805954 0.129559 2.99695-1.00085-0.849742 6.570236-4.87845 10.082465-7 11 2.824197 0.190066 5-2 5-2 0.410709-0.584957-0.992748 1.398133-2 2 1.845469-0.516751 3.080933-0.704546 4.245516-1.554273-4.36e-4 0 0.946324-0.515161 1.933576-1.64125 0.131339-0.14981 0.356986-0.357691 0.492199-0.528299 0.08405-0.106058 0.161748-0.214819 0.243898-0.321382 0.01448-0.01752 0.03099-0.03418 0.04491-0.05195 2.07791-2.541944 3.089855-5.702403 3.014829-8.566375 0.01459-3.471777-1.394493-6.485542-3.761512-8.9769823-1.711803-1.801781-3.655902-3.004055-5.406708-3.6005993-2.268383-0.6513838-5.0671-0.9290839-7.069084-0.5502917-0.189587 0.063386 0.028387-1.0422403 0.262376-1.2085977-0.561305 0.052545-1.169684 1.296728-1.624507 1.5736653 0.373262-0.6184114 0.175519-0.9892535 0.624507-1.5736653-1.669122 0.3116171-1.464162 1.7042094-2.490267 2.67696 0.33806-1.8075407 1.08349-2.5134204 2.490267-3.67696z" style="fill:#4a96e1"/>
  <path d="M 8.310329,12 C 11.643979,11.90405 9.5508374,9.8379792 14,5.9999995 10.375291,7.8767699 6.9252559,7.8741704 8.3146296,12 h -0.0042 z" style="fill:#4271a3"/>
  <path d="m10.806094 10.319479c-0.319638 0.583826-1.0654622 0.819131-1.4780492 0.599364-0.421651-0.219767-0.419384-0.9545437-0.0929804-1.5383706 0.3151044-0.5838269 1.7070056-0.3218805 1.7138066-0.3218805 0.0066 0 0.176817 0.6792796-0.142824 1.2608871z" style="fill:#ffffff"/>
  <path d="m8.9104789 12.984083s0.1795104-0.173232 0.085935-0.490002c-1.1190202 0.369987-1.6685026-0.701151-1.6645981-0.701151 0.00378 0-0.8383575 2.20707 0.1668883 3.20707 0.087079-0.823605 1.3701833-1.972836 1.3740878-1.972836" style="fill:#5c5f60"/>
  <path d="m13 2c-2.369664 0.0632458-3.7009084 2.4903472-4.6347656 4.3632812-0.336373 0.5953114-0.6847024 1.3009902-0.9785156 1.8632813-0.3426631 0.5399529-0.3452253 1.1473397-0.2753907 1.7578125 0.0432797-0.2611514 0.1228377-0.5174264 0.2753907-0.7578125 0.2938132-0.5622911 0.6421426-1.2679699 0.9785156-1.8632813 0.7173483-1.438706 1.6756046-3.1929363 3.1523436-3.9628906 0.383835-0.4653024 0.86598-0.8905343 1.482422-1.4003906zm0 1c-1.406777 1.1635396-2.152174 1.8701937-2.490234 3.6777344 0.925838-0.8776978 0.862143-2.0899778 2.064453-2.5488282 0.115716-0.3831717 0.094961-0.6983039 0.425781-1.1289062zm1 0c-0.370443 0.034678-0.75755 0.5810509-1.111328 1.0332031 0.040203-0.0093345 0.068736-0.0252514 0.111328-0.0332031-0.448988 0.5844118-0.251738 0.9558073-0.625 1.5742188 0.369374-0.2249084 0.840223-1.0794073 1.304688-1.4238282-0.058017-0.2158319 0.123799-1.010677 0.320312-1.1503906zm1.367188 1.0429688c-0.525978 0.015484-1.021819 0.065387-1.484376 0.1445312-0.178331 0.3554668-0.300838 1.0737436-0.144531 1.0214844 2.001984-0.3787922 4.799977-0.1006026 7.06836 0.5507812 1.750806 0.5965443 3.694447 1.7978284 5.40625 3.5996094 2.298812 2.419649 3.682908 5.335591 3.748047 8.681641 0.0082-0.235855 0.01976-0.47264 0.01367-0.705078 0.014591-3.471777-1.394698-6.485123-3.761717-8.976563-1.711803-1.801781-3.655444-3.0030651-5.40625-3.5996094-1.701288-0.4885378-3.701397-0.767963-5.439453-0.7167968z" style="fill:#ffffff;opacity:.1"/>
 </g>
 <g id="22-22-thunderbird" transform="translate(27,5)">
  <rect x="5" y="5" width="22" height="22" style="opacity:.00100002"/>
  <path d="m17.818359 13.310582c-0.567804 0.231761-1.10149 0.484375-1.824218 0.484375-0.02606 3.7e-4 -0.05212-2.84e-4 -0.07813-2e-3 -1.291809-0.101243-1.894597-0.02099-2.837886 0.898434-0.07581 0.07372-0.162828 0.13518-0.257812 0.181641-0.05975 0.02922-0.11626 0.05116-0.173828 0.07617-0.06556 0.04068-0.135855 0.07308-0.208985 0.09766l1.556641 1.748047 4.914062-1.544922c0.04003-0.147765 0.07825-0.316126 0.08399-0.300781-0.2267-0.922367-0.496956-1.302578-1.173829-1.638672zm-5.673828 1.90625c-0.208772 0.439056-0.699741 0.675018-1.173828 0.537109-4e-5 0.262589-0.07252 0.548361-0.0098 0.783203 0.102689 0.390092-0.03903 0.803687-0.359375 1.048829 0.191507 0.669017 0.438161 1.310166 0.761719 1.921874l6.205078 1.902344c0.03813-0.04568 0.07765-0.08161 0.115235-0.128906 0.389406-0.490041 0.754454-1.068637 1.054687-1.724609-0.0088 0.0042-0.0247 0.01162-0.0332 0.01563-0.09192 0.04338-0.167699 0.07808-0.224609 0.103515-0.02846 0.01272-0.05156 0.02165-0.07422 0.03125-0.01133 0.0048-0.02051 0.01028-0.03906 0.01758-0.0093 0.0037-0.01904 0.0067-0.04492 0.01563-0.01294 0.0045-0.06611 0.01945-0.06641 0.01953-1.5e-4 4e-5 -0.08975 0.02147-0.08984 0.02148-9.2e-5 1e-4 -0.257733 0.0053-0.289063 0.0059-0.774371-0.09183-1.15041-0.995198-0.669922-1.609375 0.0027-0.0034 0.01097-0.01603 0.01367-0.01953 0.243167-0.313175 0.751662-1.042657 1.158203-1.765625 0.112572-0.200191 0.181438-0.37224 0.271485-0.560547l-4.656251 1.462891z" style="fill:#aaaaac;opacity:.3"/>
  <path d="m14.396657 7.7953428c-1.20476 0.032155-1.859552 1.1267711-2.367188 2.1230469-0.185205 0.09344-0.373364 0.1757623-0.55664 0.2773433-0.99468 0.668738-1.8102696 1.59613-2.4394534 2.609375-0.5534521 0.976906-0.8890064 2.062222-1.0136719 3.175782-0.074085 1.128995 0.055332 2.279708 0.4804688 3.335937 0.3295182 0.928332 0.9097504 1.947786 1.6523435 2.583262 0.985875 0.657857 1.769874 1.133727 2.845703 1.087891-2.239841-1.791482-3.4216124-3.939763-3.7949215-6.468027-0.011789-0.189405-0.035038-0.394238 0.033203-0.34375 0.2552755 0.40459 0.3146666 0.389425 0.7578125 0.61914-0.3820351-1.429782 0.128135-3.020414 0.751953-4.181641 0.07805-0.08935 0.162801-0.175074 0.246094-0.261719l0.03906 0.0059c0.01402 0.22327 0.04043 0.448037 0.06641 0.664063-0.0048 0.104082 0.0616 0.281849 0.08203 0.396484-0.01537 0.04023-0.09877 0.280853-0.130859 0.582031-0.01935 0.119286-0.02002 0.236507-2e-3 0.351563 0.0032 0.02268 5e-3 0.0441 0.0098 0.06641 0.0097 0.04048 0.02065 0.08136 0.03711 0.121094 0.03475 0.09384 0.08104 0.182539 0.156242 0.255859 0.02782-0.125426 0.08458-0.226611 0.16211-0.310547 0.01936-0.02096 0.04863-0.03376 0.07031-0.05273 0.07025-0.05953 0.143598-0.116958 0.222656-0.160156 0.01556-0.0085 0.01582-0.0058 0.03125-0.01367 0.196357-0.100226 0.389587-0.16211 0.390625-0.16211l0.01563-0.01563c0.08124-0.03308 0.163188-0.06874 0.238282-0.105469 1.127185-1.098669 2.193155-1.290982 3.613281-1.179687 0.781587 0 1.226582-0.203004 2-0.550781 1.186546 0.49605 1.695811 1.270693 2 2.550781 0.114559 0.962125-1.431114 3.269495-2 3.998047-6.8e-5 1.1e-5 -0.0039 2e-3 -0.0039 2e-3 1.2e-5 0 0.0039-1e-5 0.0039 0 0.01173 0.0016 1.717869-0.760302 2.398438-1.40625-0.485567 3.754421-3.186124 6.081862-4.398438 6.606168 0.936965 0.06306 2.220246-0.52096 3.103516-1.060547-0.403265 0.43212-0.834566 0.89984-1.103516 1.060547 1.054554-0.295286 2.053274-0.403114 2.71875-0.888672-2.49e-4 0 0.539372-0.493939 1.103516-1.137418 0.07505-0.08561 0.203986-0.203291 0.28125-0.300781 0.04803-0.06061 0.09368-0.122701 0.140625-0.183594 0.0083-0.01001 0.01744-0.02109 0.02539-0.03125 1.187377-1.452539 1.765529-3.257976 1.722657-4.894531 0.0083-1.983918-0.797808-3.705273-2.150391-5.128954-0.978173-1.029589-2.089383-1.6610702-3.089844-2.0019527-1.03532-0.2973002-2.253484-0.4481223-3.289062-0.390625-0.103696 0.00127-0.391212 0.00968-0.783203 0.042969-0.04584-0.086358 0.0112-0.4068056 0.123047-0.4863281-0.245162 0.02295-0.471027 0.3418588-0.679688 0.5625-0.03512 0.00685-0.07117 0.013798-0.103516 0.021484 0.18793-0.3251345 0.379542-0.6908926 0.603516-0.9824218-0.69386 0.1295199-0.99666 0.6750525-1.335938 1.1777344-0.09792 0.032234-0.192967 0.071367-0.289062 0.1074219 0.251668-0.7261876 0.724921-1.123638 1.404297-1.6855469zm-1.798828 4.2001992c0.194105-0.0038 0.369394 0.0293 0.371094 0.0293 0.0033 0 0.08755 0.340058-0.07227 0.63086-0.159818 0.291911-0.531988 0.408711-0.73828 0.298828-0.210825-0.109883-0.210076-0.477619-0.04687-0.769531 0.07878-0.145956 0.292222-0.185708 0.486328-0.189454z" style="fill:#aaaaac"/>
  <path d="m14.396657 7.7953428c-1.20476 0.032155-1.859552 1.1267711-2.367188 2.1230469-0.185205 0.09344-0.373364 0.1757623-0.55664 0.2773433-0.99468 0.668738-1.8102696 1.59613-2.4394534 2.609375-0.5534521 0.976906-0.8890064 2.062222-1.0136719 3.175782-0.074085 1.128995 0.055332 2.279708 0.4804688 3.335937 0.3295182 0.928332 0.9097504 1.747336 1.6523435 2.382813 0.985875 0.657857 1.769874 1.133727 2.845703 1.087891-0.399911-0.231221-1.485421-0.879999-1.798828-2.59961 0.332719 0.651643 1.344091 1.409056 1.794922 1.607422 0 0-0.372088-0.610712-0.367187-1.048828 0.0035-0.309635 0.129869-0.646218 0.105468-0.951172l-3.0332028-0.798828c-0.253082-0.801049-0.4038282-1.629574-0.4960937-2.476562-0.011789-0.189405-0.035038-0.394238 0.033203-0.34375 0.2552755 0.40459 0.3146666 0.389425 0.7578125 0.61914-0.3820351-1.429782 0.128135-3.020414 0.751953-4.181641 0.07805-0.08935 0.162801-0.175074 0.246094-0.261719l0.03906 0.0059c0.01402 0.22327 0.04043 0.448037 0.06641 0.664063-0.0048 0.104082 0.0616 0.281849 0.08203 0.396484-0.01537 0.04023-0.09877 0.280853-0.130859 0.582031-0.01935 0.119286-0.02002 0.236507-2e-3 0.351563 0.0032 0.02268 5e-3 0.0441 0.0098 0.06641 0.0097 0.04048 0.02065 0.08136 0.03711 0.121094 0.03475 0.09384 0.08104 0.182539 0.156242 0.255859 0.02782-0.125426 0.08458-0.226611 0.16211-0.310547 0.01936-0.02096 0.04863-0.03376 0.07031-0.05273 0.07025-0.05953 0.143598-0.116958 0.222656-0.160156 0.01556-0.0085 0.01582-0.0058 0.03125-0.01367 0.196357-0.100226 0.389587-0.16211 0.390625-0.16211l0.01563-0.01563c0.08124-0.03308 0.163188-0.06874 0.238282-0.105469 1.127185-1.098669 2.193155-1.290982 3.613281-1.179687 0.781587 0 1.226582-0.203004 2-0.550781 1.186546 0.49605 1.695811 1.270693 2 2.550781 0.114559 0.962125-1.431114 3.269495-2 3.998047-6.8e-5 1.1e-5 -0.0039 2e-3 -0.0039 2e-3 1.2e-5 0 0.0039-1e-5 0.0039 0 0.01173 0.0016 1.717869-0.760302 2.398438-1.40625-0.485567 3.754421-3.186124 5.881944-4.398438 6.40625 0.936965 0.06306 2.220246-0.52096 3.103516-1.060547-0.403265 0.43212-0.834566 0.89984-1.103516 1.060547 1.054554-0.295287 2.053274-0.403114 2.71875-0.888672-2.49e-4 0 0.539372-0.294021 1.103516-0.9375 0.07505-0.08561 0.203986-0.203291 0.28125-0.300781 0.04803-0.06061 0.09368-0.122701 0.140625-0.183594 0.0083-0.01001 0.01744-0.02109 0.02539-0.03125 1.187377-1.452539 1.765529-3.257976 1.722657-4.894531 0.0083-1.983918-0.797808-3.705273-2.150391-5.128954-0.978173-1.029589-2.089383-1.6610702-3.089844-2.0019527-1.03532-0.2973002-2.253484-0.4481223-3.289062-0.390625-0.103696 0.00127-0.391212 0.00968-0.783203 0.042969-0.04584-0.086358 0.0112-0.4068056 0.123047-0.4863281-0.245162 0.02295-0.471027 0.3418588-0.679688 0.5625-0.03512 0.00685-0.07117 0.013798-0.103516 0.021484 0.18793-0.3251345 0.379542-0.6908926 0.603516-0.9824218-0.69386 0.1295199-0.99666 0.6750525-1.335938 1.1777344-0.09792 0.032234-0.192967 0.071367-0.289062 0.1074219 0.251668-0.7261876 0.724921-1.123638 1.404297-1.6855469zm-1.798828 4.0000002c0.194105-0.0038 0.369393 0.0293 0.371093 0.0293 0.0033 0 0.08755 0.340057-0.07227 0.630859-0.159818 0.291912-0.531988 0.408712-0.73828 0.298828-0.210825-0.109882-0.210076-0.477619-0.04687-0.769531 0.07878-0.145956 0.292222-0.185707 0.486328-0.189453z" style="fill:none"/>
 </g>
</svg>
