<svg width="32" height="32" version="1.1" xmlns="http://www.w3.org/2000/svg">
 <g id="22-22-user-identity" transform="translate(0,-22)">
  <rect width="22" height="22" style="opacity:.001"/>
  <path d="m11 3c-4.432 0-8 3.568-8 8s3.568 8 8 8 8-3.568 8-8-3.568-8-8-8zm0 3c1.104533 0 2 0.8954667 2 2 0 1.1044-0.8956 2-2 2s-2-0.8956-2-2 0.8956-2 2-2zm0 5c3.9992-0.0015 4 2.460938 4 2.460938v1c0-1e-6 -0.738457 1.539062-4 1.539062-3.2615432 0-4-1.539062-4-1.539062v-1c0-1e-6 3.998e-4 -2.458638 4-2.460938z" style="fill:#aaaaac"/>
 </g>
 <g id="22-22-user-online" transform="translate(123,-27)">
  <rect x="5" y="5" width="22" height="22" style="opacity:.001"/>
  <path d="m16 8c-4.432 0-8 3.568-8 8s3.568 8 8 8c0.402589 0 0.795337-0.03885 1.181641-0.0957a5.5 5.5 0 0 1-1.154297-2.90625c-0.010026 2.6e-5 -0.017271 0.00195-0.027344 0.00195-3.261543 0-4-1.539062-4-1.539062v-1c0-1e-6 4e-4 -2.458638 4-2.460938 0.823311-3.09e-4 1.469011 0.107876 1.988281 0.273438a5.5 5.5 0 0 1 3.511719-1.273438 5.5 5.5 0 0 1 2.480469 0.597656c-0.209569-4.242341-3.684321-7.597656-7.980469-7.597656zm0 3c1.104533 0 2 0.895467 2 2 0 1.1044-0.8956 2-2 2s-2-0.8956-2-2 0.8956-2 2-2z" style="fill:#aaaaac"/>
  <path d="m21.1875 16.009766c-1.44098 0.101835-2.807333 0.895036-3.583984 2.240234-1.24264 2.152317-0.505833 4.903842 1.646484 6.146484 2.152317 1.24264 4.903842 0.505833 6.146484-1.646484 1.24264-2.152317 0.505833-4.903842-1.646484-6.146484-0.807119-0.46599-1.697912-0.654852-2.5625-0.59375zm2.458984 2.636718 0.707032 0.707032-3.353516 3.353515-2.353516-2.353515 0.707032-0.707032 1.646484 1.646485z" style="fill:#aaaaac"/>
 </g>
 <g id="22-22-user-busy" transform="translate(27,-27)">
  <rect x="5" y="5" width="22" height="22" style="opacity:.001"/>
  <path d="m16 8c-4.432 0-8 3.568-8 8s3.568 8 8 8c0.402589 0 0.795337-0.03885 1.181641-0.0957a5.5 5.5 0 0 1-1.154297-2.90625c-0.010026 2.6e-5 -0.017271 0.00195-0.027344 0.00195-3.261543 0-4-1.539062-4-1.539062v-1c0-1e-6 4e-4 -2.458638 4-2.460938 0.823311-3.09e-4 1.469011 0.107876 1.988281 0.273438a5.5 5.5 0 0 1 3.511719-1.273438 5.5 5.5 0 0 1 2.480469 0.597656c-0.209569-4.242341-3.684321-7.597656-7.980469-7.597656zm0 3c1.104533 0 2 0.895467 2 2 0 1.1044-0.8956 2-2 2s-2-0.8956-2-2 0.8956-2 2-2z" style="fill:#aaaaac"/>
  <path d="m21.5 16a4.5 4.5 0 0 0-4.5 4.5 4.5 4.5 0 0 0 4.5 4.5 4.5 4.5 0 0 0 4.5-4.5 4.5 4.5 0 0 0-4.5-4.5zm-0.5 1h1v3h3v1h-4v-1z" style="fill:#aaaaac"/>
 </g>
 <g id="22-22-user-offline" transform="translate(91,-27)">
  <rect x="5" y="5" width="22" height="22" style="opacity:.001"/>
  <path d="m16 8c-4.432 0-8 3.568-8 8s3.568 8 8 8c0.402589 0 0.795337-0.03885 1.181641-0.0957a5.5 5.5 0 0 1-1.154297-2.90625c-0.010026 2.6e-5 -0.017271 0.00195-0.027344 0.00195-3.261543 0-4-1.539062-4-1.539062v-1c0-1e-6 4e-4 -2.458638 4-2.460938 0.823311-3.09e-4 1.469011 0.107876 1.988281 0.273438a5.5 5.5 0 0 1 3.511719-1.273438 5.5 5.5 0 0 1 2.480469 0.597656c-0.209569-4.242341-3.684321-7.597656-7.980469-7.597656zm0 3c1.104533 0 2 0.895467 2 2 0 1.1044-0.8956 2-2 2s-2-0.8956-2-2 0.8956-2 2-2z" style="fill:#aaaaac;opacity:.3"/>
  <path d="m21.5 16c-2.485281 0-4.5 2.014719-4.5 4.5s2.014719 4.5 4.5 4.5 4.5-2.014719 4.5-4.5-2.014719-4.5-4.5-4.5zm2.5 4v1h-5v-1z" style="fill:#aaaaac"/>
 </g>
 <g id="22-22-user-invisible" transform="translate(155,-27)">
  <rect x="5" y="5" width="22" height="22" style="opacity:.001"/>
  <path d="m16 8c-4.432 0-8 3.568-8 8s3.568 8 8 8c0.402589 0 0.795337-0.03885 1.181641-0.0957a5.5 5.5 0 0 1-1.154297-2.90625c-0.010026 2.6e-5 -0.017271 0.00195-0.027344 0.00195-3.261543 0-4-1.539062-4-1.539062v-1c0-1e-6 4e-4 -2.458638 4-2.460938 0.823311-3.09e-4 1.469011 0.107876 1.988281 0.273438a5.5 5.5 0 0 1 3.511719-1.273438 5.5 5.5 0 0 1 2.480469 0.597656c-0.209569-4.242341-3.684321-7.597656-7.980469-7.597656zm0 3c1.104533 0 2 0.895467 2 2 0 1.1044-0.8956 2-2 2s-2-0.8956-2-2 0.8956-2 2-2z" style="fill:#aaaaac"/>
  <path d="m17.602885 18.25c-1.24264 2.152317-0.505202 4.904473 1.647115 6.147115 2.152317 1.24264 4.904473 0.505202 6.147115-1.647115 1.24264-2.152317 0.505202-4.904473-1.647115-6.147115-2.152317-1.24264-4.904473-0.505202-6.147115 1.647115zm4.714103-0.165063 0.866024 0.499999-2.5 4.330127-0.866024-0.499999z" style="fill:#aaaaac"/>
 </g>
 <g id="22-22-user-away-extended" transform="translate(187,-27)">
  <rect x="5" y="5" width="22" height="22" style="opacity:.001"/>
  <path d="m16 8c-4.432 0-8 3.568-8 8s3.568 8 8 8c0.402589 0 0.795337-0.03885 1.181641-0.0957a5.5 5.5 0 0 1-1.154297-2.90625c-0.010026 2.6e-5 -0.017271 0.00195-0.027344 0.00195-3.261543 0-4-1.539062-4-1.539062v-1c0-1e-6 4e-4 -2.458638 4-2.460938 0.823311-3.09e-4 1.469011 0.107876 1.988281 0.273438a5.5 5.5 0 0 1 3.511719-1.273438 5.5 5.5 0 0 1 2.480469 0.597656c-0.209569-4.242341-3.684321-7.597656-7.980469-7.597656zm0 3c1.104533 0 2 0.895467 2 2 0 1.1044-0.8956 2-2 2s-2-0.8956-2-2 0.8956-2 2-2z" style="fill:#aaaaac"/>
  <path d="m21.5 16c-2.485281 0-4.5 2.014719-4.5 4.5s2.014719 4.5 4.5 4.5 4.5-2.014719 4.5-4.5-2.014719-4.5-4.5-4.5zm-2.5 4h1v1h-1zm2 0h1v1h-1zm2 0h1v1h-1z" style="fill:#aaaaac"/>
 </g>
 <g id="22-22-user-away" transform="translate(59,-27)">
  <rect x="5" y="5" width="22" height="22" style="opacity:.001"/>
  <path d="m16 8c-4.432 0-8 3.568-8 8s3.568 8 8 8c0.402589 0 0.795337-0.03885 1.181641-0.0957a5.5 5.5 0 0 1-1.154297-2.90625c-0.010026 2.6e-5 -0.017271 0.00195-0.027344 0.00195-3.261543 0-4-1.539062-4-1.539062v-1c0-1e-6 4e-4 -2.458638 4-2.460938 0.823311-3.09e-4 1.469011 0.107876 1.988281 0.273438a5.5 5.5 0 0 1 3.511719-1.273438 5.5 5.5 0 0 1 2.480469 0.597656c-0.209569-4.242341-3.684321-7.597656-7.980469-7.597656zm0 3c1.104533 0 2 0.895467 2 2 0 1.1044-0.8956 2-2 2s-2-0.8956-2-2 0.8956-2 2-2z" style="fill:#aaaaac"/>
  <path d="m21.5 16c-2.485281 0-4.5 2.014719-4.5 4.5s2.014719 4.5 4.5 4.5 4.5-2.014719 4.5-4.5-2.014719-4.5-4.5-4.5zm2.5 2-1.25 4.375-1.25-0.625-0.625 1.25-0.625-1.875-1.25-0.625z" style="fill:#aaaaac"/>
 </g>
 <g id="22-22-user-trash" transform="translate(75,88)">
  <rect x="5" y="5" width="22" height="22" style="opacity:.001"/>
  <path d="m14 9c-1 0-1 1-1 1h-3s-1 0-1 1v1h13v-1c0-1-1-1-1-1h-3s0-1-1-1zm-4 4v9c0 0.52 0.48 1 1 1h9c0.52 0 1-0.48 1-1v-9z" style="fill:#aaaaac"/>
 </g>
 <g id="22-22-user-trash-full" transform="translate(75,136)">
  <rect x="5" y="5" width="22" height="22" style="opacity:.001"/>
  <path d="m14 9.000001c-1 0-1 1-1 1h-3s-1 0-1 1v0.999999h13v-0.999999c0-1-1-1-1-1h-3s0-1-1-1zm-5 3.999999v3c0 1 0.05922 2.15 0.199219 3 0.14 0.85 0.800781 3 0.800781 3s0.48 1 1 1h9c0.52 0 1-1 1-1s0.660781-2.15 0.800781-3 0.199219-2 0.199219-3v-3z" style="fill:#aaaaac"/>
 </g>
 <g id="user-desktop" transform="translate(0,32)">
  <rect width="32" height="32" style="opacity:.001"/>
  <g>
   <rect x="3" y="6" width="25" height="22" rx="1.25" ry="1.25" style="opacity:.2"/>
   <path d="m3 7.9v17.85c0 0.6925 0.5575 1.25 1.25 1.25h22.5c0.6925 0 1.25-0.5575 1.25-1.25v-17.85z" style="fill:#4285f4"/>
   <path d="M 4.25,5 C 3.5575,5 3,5.5575 3,6.25 V 8 H 28 V 6.25 C 28,5.5575 27.442,5 26.75,5 Z" style="fill:#1d344f"/>
   <path d="m10.5 24c-0.831 0-1.5 0.669-1.5 1.5v1.5h13v-1.5c0-0.831-0.669-1.5-1.5-1.5z" style="fill:#1d344f"/>
   <path d="M 4.25,5 C 3.5575,5 3,5.5575 3,6.25 v 1 C 3,6.5575 3.5575,6 4.25,6 h 22.5 C 27.442,6 28,6.5575 28,7.25 v -1 C 28,5.5575 27.442,5 26.75,5 Z" style="fill:#ffffff;opacity:.1"/>
  </g>
 </g>
 <g id="22-22-user-desktop" transform="translate(27,37)">
  <rect x="5" y="5" width="22" height="22" style="opacity:.001"/>
  <path d="M 8,11 V 22.205078 C 8,22.64576 8.3575814,23 8.8007812,23 H 12 v -1 c 0,-0.554001 0.412443,-1 0.923828,-1 h 6.152344 C 19.587557,21 20,21.445999 20,22 v 1 h 3.199219 C 23.642419,23 24,22.64576 24,22.205078 V 11 Z" style="fill:#aaaaac"/>
  <path d="m8.7999995 8.9999999c-0.4432 0-0.8 0.3547728-0.8 0.7954546v1.2045455h16v-1.2045455c0-0.4406818-0.35712-0.7954546-0.8-0.7954546z" style="fill:#aaaaac;opacity:.3"/>
 </g>
 <g id="user-trash-full" transform="translate(8,123)">
  <rect x="-8" y="-8" width="48" height="48" style="opacity:.001"/>
  <g transform="translate(-8,-8)">
   <path d="m11 10h26c1.108 0 2 0.918314 2 2.059 0 0 3 8.941 3 15.941s-2 17-5 17h-26c-3 0-5-10-5-17s3-15.941 3-15.941c0.2109668-1.121007 0.892-2.059 2-2.059z" style="opacity:.2"/>
   <rect x="18" y="4" width="12" height="4" style="fill:#9f9f9f"/>
   <path d="m11 9h26c1.108 0 2 0.918314 2 2.059 0 0 3 8.941 3 15.941s-2 17-5 17h-26c-3 0-5-10-5-17s3-15.941 3-15.941c0.2109668-1.1210074 0.892-2.059 2-2.059z" style="fill:#8e8e8e"/>
   <path d="m16.0002 21s-1.0002 4-1.0002 8 1.0002 8 1.0002 8" style="fill:none;opacity:.3;stroke-linecap:round;stroke-width:4;stroke:#000000"/>
   <rect x="6" y="6" width="36" height="8" rx="2" ry="2" style="fill:#9f9f9f"/>
   <path d="m24 21v16" style="fill:none;opacity:.3;stroke-linecap:round;stroke-width:4;stroke:#000000"/>
   <path d="m8 6c-1.108 0-2 0.892-2 2v1c0-1.108 0.892-2 2-2h32c1.108 0 2 0.892 2 2v-1c0-1.108-0.892-2-2-2z" style="fill:#ffffff;opacity:.2"/>
   <path d="m6 12v1c0 1.108 0.892 2 2 2h32c1.108 0 2-0.892 2-2v-1c0 1.108-0.892 2-2 2h-32c-1.108 0-2-0.892-2-2z" style="opacity:.2"/>
   <path d="m32.0002 21s0.9998 4 0.9998 8-0.9998 8-0.9998 8" style="fill:none;opacity:.3;stroke-linecap:round;stroke-width:4;stroke:#000000"/>
  </g>
 </g>
 <g id="user-trash" transform="translate(8,75)">
  <rect x="-8" y="-8" width="48" height="48" style="opacity:.001"/>
  <g transform="translate(-8,-8)">
   <rect x="9" y="10" width="30" height="35" rx="2" ry="2.059" style="opacity:.2"/>
   <rect x="9" y="9" width="30" height="35" rx="2" ry="2.059" style="fill:#8e8e8e"/>
   <rect x="18" y="4" width="12" height="4" style="fill:#9f9f9f"/>
   <path d="m16.0002 21s-2e-4 4-2e-4 8 2e-4 8 2e-4 8" style="fill:none;opacity:.3;stroke-linecap:round;stroke-width:4;stroke:#000000"/>
   <rect x="6" y="6" width="36" height="8" rx="2" ry="2" style="fill:#9f9f9f"/>
   <path d="m24 21v16" style="fill:none;opacity:.3;stroke-linecap:round;stroke-width:4;stroke:#000000"/>
   <path d="m8 6c-1.108 0-2 0.892-2 2v1c0-1.108 0.892-2 2-2h32c1.108 0 2 0.892 2 2v-1c0-1.108-0.892-2-2-2z" style="fill:#ffffff;opacity:.2"/>
   <path d="m6 12v1c0 1.108 0.892 2 2 2h32c1.108 0 2-0.892 2-2v-1c0 1.108-0.892 2-2 2h-32c-1.108 0-2-0.892-2-2z" style="opacity:.2"/>
   <path d="m32.0002 21s-2e-4 4-2e-4 8 2e-4 8 2e-4 8" style="fill:none;opacity:.3;stroke-linecap:round;stroke-width:4;stroke:#000000"/>
  </g>
 </g>
 <g id="32-32-user-trash" transform="translate(48,83)">
  <rect width="32" height="32" style="opacity:.001"/>
  <g>
   <rect x="5" y="5" width="23" height="26" rx="1.534" ry="1.529" style="opacity:.2"/>
   <rect x="5" y="4" width="23" height="26" rx="1.534" ry="1.529" style="fill:#8e8e8e"/>
   <rect x="12" y="1" width="9" height="3" style="fill:#9f9f9f"/>
   <path d="m10.50015 12.5s-1.5e-4 3.25-1.5e-4 6.25 1.5e-4 5.75 1.5e-4 5.75" style="fill:none;opacity:.3;stroke-linecap:round;stroke-width:3;stroke:#000000"/>
   <rect x="3" y="3" width="27" height="6" rx="1.5" ry="1.5" style="opacity:.2"/>
   <rect x="3" y="2" width="27" height="6" rx="1.5" ry="1.5" style="fill:#9f9f9f"/>
   <path d="m16.5 12.5v12" style="fill:none;opacity:.3;stroke-linecap:round;stroke-width:3;stroke:#000000"/>
   <path d="m22.50015 12.5s-1.5e-4 3.25-1.5e-4 6.25 1.5e-4 5.75 1.5e-4 5.75" style="fill:none;opacity:.3;stroke-linecap:round;stroke-width:3;stroke:#000000"/>
   <path d="m4.5 2c-0.831 0-1.5 0.669-1.5 1.5v1c0-0.831 0.669-1.5 1.5-1.5h24c0.831 0 1.5 0.669 1.5 1.5v-1c0-0.831-0.669-1.5-1.5-1.5z" style="fill:#ffffff;opacity:.2"/>
  </g>
 </g>
 <g id="32-32-user-trash-full" transform="translate(48,131)">
  <rect width="32" height="32" style="opacity:.001"/>
  <g>
   <path d="m6.75 4.75h19.5c0.831 0 1.5 0.6887355 1.5 1.54425 0 0 2.25 6.70575 2.25 11.95575s-1.5 12.75-3.75 12.75h-19.5c-2.25 0-3.75-7.5-3.75-12.75s2.25-11.95575 2.25-11.95575c0.1582251-0.8407556 0.669-1.54425 1.5-1.54425z" style="opacity:.2"/>
   <rect x="12" y="1" width="9" height="3" style="fill:#9f9f9f"/>
   <path d="m6.75 3.75h19.5c0.831 0 1.5 0.6887355 1.5 1.54425 0 0 2.25 6.70575 2.25 11.95575s-1.5 12.75-3.75 12.75h-19.5c-2.25 0-3.75-7.5-3.75-12.75s2.25-11.95575 2.25-11.95575c0.1582251-0.8407556 0.669-1.54425 1.5-1.54425z" style="fill:#8e8e8e"/>
   <path d="m10.50015 12.5s-1.00015 3.25-1.00015 6.25 1.00015 5.75 1.00015 5.75" style="fill:none;opacity:.3;stroke-linecap:round;stroke-width:3;stroke:#000000"/>
   <rect x="3" y="3" width="27" height="6" rx="1.5" ry="1.5" style="opacity:.2"/>
   <rect x="3" y="2" width="27" height="6" rx="1.5" ry="1.5" style="fill:#9f9f9f"/>
   <path d="m16.5 12.5v12" style="fill:none;opacity:.3;stroke-linecap:round;stroke-width:3;stroke:#000000"/>
   <path d="m22.50015 12.5s0.99985 3.25 0.99985 6.25-0.99985 5.75-0.99985 5.75" style="fill:none;opacity:.3;stroke-linecap:round;stroke-width:3;stroke:#000000"/>
   <path d="m4.5 2c-0.831 0-1.5 0.669-1.5 1.5v1c0-0.831 0.669-1.5 1.5-1.5h24c0.831 0 1.5 0.669 1.5 1.5v-1c0-0.831-0.669-1.5-1.5-1.5z" style="fill:#ffffff;opacity:.2"/>
  </g>
 </g>
 <g id="user-identity">
  <rect width="32" height="32" style="opacity:.00100002"/>
  <path d="m16 4c-6.6479996 0-12 5.3520001-12 12 0 6.648 5.3520004 12 12 12 6.648001 0 12-5.352 12-12 0-6.6479999-5.351999-12-12-12zm0 5c1.6568 0 3 1.3432 3 3 0 1.6566-1.343399 3-3 3-1.6566 0-3-1.3434-3-3s1.3434-3 3-3zm0 8c5.998801-0.0021 6 3.445313 6 3.445312v1.400391c0-1e-6 -1.107685 2.154297-6 2.154297-4.892314 0-6-2.154297-6-2.154297v-1.400391c0-2e-6 6e-4 -3.442092 6-3.445312z" style="fill:#aaaaac"/>
 </g>
 <g id="user-busy" transform="translate(32)">
  <rect width="32" height="32" style="opacity:.00100002"/>
  <path d="m16 4c-6.6479996 0-12 5.3520001-12 12 0 6.648 5.3520004 12 12 12 0.245346 0 0.484951-0.02273 0.726562-0.03711a8 8 0 0 1-1.65625-3.992188c-4.102657-0.251265-5.070312-2.124999-5.070312-2.124999v-1.400391c0-1e-6 6e-4 -3.442092 6-3.445312 0.59769-2.09e-4 1.120925 0.04206 1.605469 0.103516a8 8 0 0 1 5.394531-2.103516 8 8 0 0 1 4.962891 1.734375c0.014682-0.244161 0.037109-0.486397 0.037109-0.734375 0-6.6479999-5.351999-12-12-12zm0 5c1.6568 0 3 1.3432 3 3 0 1.6566-1.343399 3-3 3-1.6566 0-3-1.3434-3-3s1.3434-3 3-3zm7 8c-3.313708 0-6 2.686292-6 6s2.686292 6 6 6 6-2.686292 6-6-2.686292-6-6-6zm-1 2h2v3h3v2h-5v-2z" style="fill:#aaaaac"/>
 </g>
 <g id="user-away" transform="translate(63.999996)">
  <rect width="32" height="32" style="opacity:.00100002"/>
  <path d="m16 4c-6.6479996 0-12 5.3520001-12 12 0 6.648 5.3520004 12 12 12 0.245346 0 0.484951-0.02273 0.726562-0.03711-0.907909-1.153564-1.480904-2.534703-1.65625-3.992188-4.102657-0.251264-5.070312-2.124999-5.070312-2.124999v-1.400391c0-1e-6 6e-4 -3.442092 6-3.445312 0.59769-2.09e-4 1.120925 0.04206 1.605469 0.103516 1.472459-1.350134 3.396785-2.100496 5.394531-2.103516 1.802442 0.0025 3.551213 0.613674 4.962891 1.734375 0.014682-0.244161 0.037109-0.486397 0.037109-0.734375 0-6.6479999-5.351999-12-12-12zm0 5c1.6568 0 3 1.3432 3 3 0 1.6566-1.343399 3-3 3-1.6566 0-3-1.3434-3-3s1.3434-3 3-3zm7 8c-3.313708 0-6 2.686292-6 6s2.686292 6 6 6 6-2.686292 6-6-2.686292-6-6-6zm3 3-1.5 5.25-1.5-0.75-0.75 1.5-0.75-2.25-1.5-0.75z" style="fill:#aaaaac"/>
 </g>
 <g id="user-offline" transform="translate(95.999996)">
  <rect width="32" height="32" style="opacity:.00100002"/>
  <path d="m16 4c-6.6479996 0-12 5.3520001-12 12 0 6.648 5.3520004 12 12 12 0.245346 0 0.484951-0.02273 0.726562-0.03711-0.907909-1.153564-1.480904-2.534703-1.65625-3.992188-4.102657-0.251264-5.070312-2.124999-5.070312-2.124999v-1.400391c0-1e-6 6e-4 -3.442092 6-3.445312 0.59769-2.09e-4 1.120925 0.04206 1.605469 0.103516 1.472459-1.350134 3.396785-2.100496 5.394531-2.103516 1.802442 0.0025 3.551213 0.613674 4.962891 1.734375 0.014682-0.244161 0.037109-0.486397 0.037109-0.734375 0-6.6479999-5.351999-12-12-12zm0 5c1.6568 0 3 1.3432 3 3 0 1.6566-1.343399 3-3 3-1.6566 0-3-1.3434-3-3s1.3434-3 3-3z" style="fill:#aaaaac;opacity:.3"/>
  <path d="m23 17c-3.313708 0-6 2.686292-6 6s2.686292 6 6 6 6-2.686292 6-6-2.686292-6-6-6zm-4 5h8v2h-8z" style="fill:#aaaaac"/>
 </g>
 <g id="user-invisible" transform="translate(128)">
  <rect width="32" height="32" style="opacity:.00100002"/>
  <path d="m16 4c-6.6479996 0-12 5.3520001-12 12 0 6.648 5.3520004 12 12 12 0.245346 0 0.484951-0.02273 0.726562-0.03711-0.907909-1.153564-1.480904-2.534703-1.65625-3.992188-4.102657-0.251263-5.070312-2.124999-5.070312-2.124999v-1.400391c0-1e-6 6e-4 -3.442092 6-3.445312 0.59769-2.09e-4 1.120925 0.04206 1.605469 0.103516 1.472459-1.350134 3.396785-2.100496 5.394531-2.103516 1.802442 0.0025 3.551213 0.613674 4.962891 1.734375 0.014682-0.244161 0.037109-0.486397 0.037109-0.734375 0-6.6479999-5.351999-12-12-12zm0 5c1.6568 0 3 1.3432 3 3 0 1.6566-1.343399 3-3 3-1.6566 0-3-1.3434-3-3s1.3434-3 3-3zm7.160156 8.001953c-2.127434-0.055253-4.216572 1.02542-5.355468 2.998047-1.656578 2.869276-0.673964 6.538736 2.195312 8.195312 2.869276 1.656578 6.538735 0.673964 8.195312-2.195312s0.673964-6.538735-2.195312-8.195312c-0.896649-0.517681-1.872828-0.77762-2.839844-0.802735zm0.972656 2.035156 1.732422 1-1.5 2.597657-2.498046 4.328125-1.732422-1 2.5-4.328125z" style="fill:#aaaaac"/>
 </g>
 <g id="user-online" transform="translate(160)">
  <rect width="32" height="32" style="opacity:.00100002"/>
  <path d="m16 4c-6.6479996 0-12 5.3520001-12 12 0 6.648 5.3520004 12 12 12 0.245346 0 0.484951-0.02273 0.726562-0.03711-0.907909-1.153564-1.480904-2.534703-1.65625-3.992188-4.102657-0.251264-5.070312-2.124999-5.070312-2.124999v-1.400391c0-1e-6 6e-4 -3.442092 6-3.445312 0.59769-2.09e-4 1.120925 0.04206 1.605469 0.103516 1.472459-1.350134 3.396785-2.100496 5.394531-2.103516 1.802442 0.0025 3.551213 0.613674 4.962891 1.734375 0.014682-0.244161 0.037109-0.486397 0.037109-0.734375 0-6.6479999-5.351999-12-12-12zm0 5c1.6568 0 3 1.3432 3 3 0 1.6566-1.343399 3-3 3-1.6566 0-3-1.3434-3-3s1.3434-3 3-3zm7 8c-3.313708 0-6 2.686292-6 6s2.686292 6 6 6 6-2.686292 6-6-2.686292-6-6-6zm2.642578 2.953125 1.408203 1.421875-4.720703 4.671875-3.380859-3.380859 1.414062-1.414063 1.972657 1.972656z" style="fill:#aaaaac"/>
 </g>
 <g id="user-away-extended" transform="translate(192)">
  <rect width="32" height="32" style="opacity:.00100002"/>
  <path d="m16 4c-6.6479996 0-12 5.3520001-12 12 0 6.648 5.3520004 12 12 12 0.245346 0 0.484951-0.02273 0.726562-0.03711-0.907909-1.153564-1.480904-2.534703-1.65625-3.992188-4.102657-0.251263-5.070312-2.124999-5.070312-2.124999v-1.400391c0-1e-6 6e-4 -3.442092 6-3.445312 0.59769-2.09e-4 1.120925 0.04206 1.605469 0.103516 1.472459-1.350134 3.396785-2.100496 5.394531-2.103516 1.802442 0.0025 3.551213 0.613674 4.962891 1.734375 0.014682-0.244161 0.037109-0.486397 0.037109-0.734375 0-6.6479999-5.351999-12-12-12zm0 5c1.6568 0 3 1.3432 3 3 0 1.6566-1.343399 3-3 3-1.6566 0-3-1.3434-3-3s1.3434-3 3-3zm7 8c-3.313708 0-6 2.686292-6 6s2.686292 6 6 6 6-2.686292 6-6-2.686292-6-6-6zm-4 5h2v2h-2zm3 0h2v2h-2zm3 0h2v2h-2z" style="fill:#aaaaac"/>
 </g>
</svg>
