<svg width="22" height="22" version="1.1" viewBox="0 0 22 22" xmlns="http://www.w3.org/2000/svg">
 <g id="user-busy" transform="translate(21,-1.0000049)">
  <rect x="1" y="1" width="22" height="22" style="fill:none;opacity:.00100002"/>
  <g>
   <path d="m12 4c-1.662 0-3 1.338-3 3s1.338 3 3 3 3-1.338 3-3-1.338-3-3-3zm0 1c1.108 0 2 0.892 2 2s-0.892 2-2 2-2-0.892-2-2 0.892-2 2-2zm0 7c-2.77 0-5 0.891984-5 2v6h10v-6c0-1.108016-2.23-2-5-2z" style="display:none;fill:#aaaaac"/>
   <path d="m17.658203 12.000005a4.5 4.5 0 0 0-4.5 4.5 4.5 4.5 0 0 0 4.5 4.5 4.5 4.5 0 0 0 4.5-4.5 4.5 4.5 0 0 0-4.5-4.5zm-0.5 1h1v3h3v1h-4v-1z" style="fill:#aaaaac"/>
   <path d="m12 13.000005a6 6 0 0 0-6 6v1h7.263675a5.5 5.5 0 0 1-1.263675-3.5 5.5 5.5 0 0 1 1.167969-3.378906 6 6 0 0 0-1.167969-0.121094z" style="fill:#aaaaac"/>
   <circle cx="12" cy="8" r="4" style="fill:#aaaaac"/>
  </g>
 </g>
 <g id="user-away-extended" transform="translate(131,-1.000005)">
  <rect x="1" y="1" width="22" height="22" style="fill:none;opacity:.00100002"/>
  <g>
   <path d="m17.5 12.000005c-2.48528 0-4.5 2.014719-4.5 4.5s2.01472 4.5 4.5 4.5 4.5-2.014719 4.5-4.5-2.01472-4.5-4.5-4.5zm-2.5 4h1v1h-1zm2 0h1v1h-1zm2 0h1v1h-1z" style="fill:#aaaaac"/>
   <path d="m12 13.000005a6 6 0 0 0-6 6v1h7.26364a5.5 5.5 0 0 1-1.26368-3.5 5.5 5.5 0 0 1 1.16797-3.378906 6 6 0 0 0-1.16793-0.121094z" style="fill:#aaaaac"/>
   <circle cx="12" cy="8" r="4" style="fill:#aaaaac"/>
  </g>
 </g>
 <g id="user-away" transform="translate(43,-1.0000049)">
  <rect x="1" y="1" width="22" height="22" style="fill:none;opacity:.00100002"/>
  <g>
   <path d="m17.5 12.000005c-2.485281 0-4.5 2.014719-4.5 4.5s2.014719 4.5 4.5 4.5 4.5-2.014719 4.5-4.5-2.014719-4.5-4.5-4.5zm2.5 2-1.25 4.375-1.25-0.625-0.625 1.25-0.625-1.875-1.25-0.625z" style="fill:#aaaaac"/>
   <path d="m12 13.000005a6 6 0 0 0-6 6v1h7.263675a5.5 5.5 0 0 1-1.263675-3.5 5.5 5.5 0 0 1 1.167969-3.378906 6 6 0 0 0-1.167969-0.121094z" style="fill:#aaaaac"/>
   <circle cx="12" cy="8" r="4" style="fill:#aaaaac"/>
  </g>
 </g>
 <g id="user-offline" transform="translate(65,-1.0000049)">
  <rect x="1" y="1" width="22" height="22" style="fill:none;opacity:.00100002"/>
  <g>
   <path d="m17.5 12.000005c-2.485281 0-4.5 2.014719-4.5 4.5s2.014719 4.5 4.5 4.5 4.5-2.014719 4.5-4.5-2.014719-4.5-4.5-4.5zm2.5 4v1h-5v-1z" style="fill:#aaaaac"/>
   <path d="m12 13.000005a6 6 0 0 0-6 6v1h7.263675a5.5 5.5 0 0 1-1.263675-3.5 5.5 5.5 0 0 1 1.167969-3.378906 6 6 0 0 0-1.167969-0.121094z" style="fill:#ffffff;opacity:.25"/>
   <circle cx="12" cy="8" r="4" style="fill:#ffffff;opacity:.25"/>
  </g>
 </g>
 <g id="user-invisible" transform="translate(69,-1.000005)">
  <rect x="41" y="1" width="22" height="22" style="fill:none;opacity:.00100002"/>
  <g>
   <path d="m53.603637 14.249253c-1.24264 2.152317-0.505202 4.904473 1.647115 6.147115 2.152317 1.24264 4.904473 0.505202 6.147115-1.647115 1.24264-2.152317 0.505202-4.904473-1.647115-6.147115-2.152317-1.24264-4.904473-0.505202-6.147115 1.647115zm4.714103-0.165063 0.866024 0.499999-2.5 4.330127-0.866024-0.499999z" style="fill:#aaaaac"/>
   <path d="m52 13.000005a6 6 0 0 0-6 6v1h7.263675a5.5 5.5 0 0 1-1.263675-3.5 5.5 5.5 0 0 1 1.167969-3.378906 6 6 0 0 0-1.167969-0.121094z" style="fill:#aaaaac"/>
   <circle cx="52" cy="8" r="4" style="fill:#aaaaac"/>
  </g>
 </g>
 <g id="user-online" transform="translate(87,38.999995)">
  <rect x="1" y="-39" width="22" height="22" style="fill:none;opacity:.00100002"/>
  <g>
   <path d="m17.1875-27.69726c-1.44098 0.101835-2.807333 0.895036-3.583984 2.240234-1.24264 2.152317-0.505833 4.903842 1.646484 6.146484 2.152317 1.24264 4.903842 0.505833 6.146484-1.646484 1.24264-2.152317 0.505833-4.903842-1.646484-6.146484-0.807119-0.46599-1.697912-0.654852-2.5625-0.59375zm2.458984 2.636718 0.707032 0.707032-3.353516 3.353515-2.353516-2.353515 0.707032-0.707032 1.646484 1.646485z" style="fill:#aaaaac"/>
   <path d="m12-26.999995a6 6 0 0 0-6 6v1h7.263675a5.5 5.5 0 0 1-1.263675-3.5 5.5 5.5 0 0 1 1.167969-3.378906 6 6 0 0 0-1.167969-0.121094z" style="fill:#aaaaac"/>
   <circle cx="12" cy="-32" r="4" style="fill:#aaaaac"/>
  </g>
 </g>
 <g id="user-identity" transform="translate(-721.72998,-502.12)">
  <rect x="721.72998" y="502.12" width="22" height="22" style="fill:none;opacity:.00100002"/>
  <g>
   <path transform="translate(721.72998,502.12)" d="m11 12a6 6 0 0 0-6 6v1h12v-1a6 6 0 0 0-6-6z" style="fill:#aaaaac"/>
   <circle cx="732.72998" cy="509.12" r="4" style="fill:#aaaaac"/>
  </g>
 </g>
</svg>
