<svg width="32" height="32" version="1.1" xmlns="http://www.w3.org/2000/svg">
 <g id="22-22-veracrypt" transform="translate(32,10)">
  <rect width="22" height="22" style="fill:#000000;opacity:.00100002;stroke-width:1.191676"/>
  <g>
   <path d="m2 3 4.4492188 16 0.2910156-0.955078 1.6152344-7.029297h0.085937l-2.1406246-8.015625z" style="fill:#ffffff;opacity:.25"/>
   <path d="m12.035877 11.019838-3.6795694-0.0049-1.6153846 7.029384-0.2923077 0.955077 4.1588307-7e-6c1.687754-7.318154 1.4288-7.980154 1.4288-7.980154z" style="fill:#ffffff;opacity:.15"/>
   <path d="M 11.038461,3.0000005 8.4394615,11.015539 10.6,19 h 8.631384 L 17.38523,15 h -3.7 L 12.562539,11.015539 13.992923,7 h 3.392307 l 1.846154,-3.9999995 z" style="fill:#aaaaac"/>
  </g>
 </g>
 <g id="veracrypt">
  <rect width="32" height="32" style="fill:#000000;opacity:.00100002;stroke-width:2.2169709"/>
  <g>
   <rect transform="matrix(0,-1,-1,0,0,0)" x="-30" y="-30" width="28" height="28" rx="1.5" ry="1.5" style="fill:#4f4f4f"/>
   <path d="m5 8 6 20h15l-2-5h-4.5l-1.5-4.5 1.5-5.5h4.5l2-5h-10l-2.992 10.471-3.008-10.471z" style="opacity:.2"/>
   <path d="m3.5 2c-0.831 0-1.5 0.669-1.5 1.5v1c0-0.831 0.669-1.5 1.5-1.5h25c0.831 0 1.5 0.669 1.5 1.5v-1c0-0.831-0.669-1.5-1.5-1.5z" style="fill:#ffffff;opacity:.1"/>
   <path d="m2 28.5v1c0 0.831 0.669 1.5 1.5 1.5h25c0.831 0 1.5-0.669 1.5-1.5v-1c0 0.831-0.669 1.5-1.5 1.5h-25c-0.831 0-1.5-0.669-1.5-1.5z" style="opacity:.2"/>
   <path d="m5 7 5-8e-7 5.269 18.335 0.356 1.665h-4.625z" style="fill:#0198c4"/>
   <path d="m17.344 17.505-4.119-5e-3 -2.225 9.5h4.5c2.0569-8.9187 1.8443-9.4947 1.8443-9.4947z" style="fill:#4dbac2"/>
   <path d="m16 7-3 10.5 2.625 9.5h10.375l-2-5h-4.5l-1.5-4.5 1.5-5.5h4.5l2-5z" style="fill:#06b788"/>
  </g>
 </g>
</svg>
