<svg id="svg" width="32" height="32" version="1.1" viewBox="0 0 32 32" xmlns="http://www.w3.org/2000/svg">
 <g id="22-22-video-display-brightness" transform="translate(32,10)">
  <rect width="22" height="22" style="fill-opacity:.00392157;fill:#00000f;opacity:.00100002"/>
  <path d="M 11,1.0996094 8.0996094,4 H 4 V 8.0996094 L 1.0996094,11 4,13.900391 V 18 H 8.0996094 L 11,20.900391 13.900391,18 H 18 V 13.900391 L 20.900391,11 18,8.0996094 V 4 H 13.900391 Z M 11,5 a 6,6 0 0 1 6,6 6,6 0 0 1 -6,6 6,6 0 0 1 -6,-6 6,6 0 0 1 6,-6 z m 0,2 c -2.209139,0 -4,1.790861 -4,4 0,2.209139 1.790861,4 4,4 z" style="fill:#aaaaac"/>
 </g>
 <g id="video-display-brightness" transform="translate(0,34.009998)">
  <rect y="-34.009998" width="32" height="32" style="opacity:.00100002"/>
  <g transform="translate(-1.366272e-6,-35)">
   <rect transform="matrix(0,-1,-1,0,0,0)" x="-28" y="-24" width="21" height="16" rx="1.313" ry="1.3329999" style="fill:#8e8e8e"/>
   <rect transform="matrix(0,-1,-1,0,0,0)" x="-25" y="-29" width="20" height="26" rx="1.25" ry="1.3" style="fill:#4f4f4f"/>
   <rect transform="matrix(0,-1,-1,0,0,0)" x="-23" y="-27" width="16" height="22" rx="0" ry="0" style="opacity:.4"/>
   <path d="m4.3008 5c-0.7202 0-1.3008 0.5575-1.3008 1.25v1c0-0.6925 0.5806-1.25 1.3008-1.25h23.398c0.72 0 1.301 0.5575 1.301 1.25v-1c0-0.6925-0.581-1.25-1.301-1.25z" style="fill:#dfdfdf;opacity:.1"/>
   <path d="m8 26.688v1c0 0.727 0.5953 1.312 1.334 1.312h13.332c0.739 0 1.334-0.585 1.334-1.312v-1c0 0.727-0.595 1.312-1.334 1.312h-13.332c-0.7387 0-1.334-0.585-1.334-1.312z" style="opacity:.2"/>
   <path d="m3 23.75v1c0 0.692 0.5806 1.25 1.3008 1.25h23.398c0.72 0 1.301-0.558 1.301-1.25v-1c0 0.692-0.581 1.25-1.301 1.25h-23.398c-0.7204 0-1.301-0.558-1.301-1.25z" style="opacity:.2"/>
   <path d="m16 8.7185c0.73778 0.72803 1.443 1.5569 2.1895 2.2812h2.8105v2.8086c0.72444 0.74643 1.5531 1.4536 2.2812 2.1914-0.72806 0.7378-1.5569 1.472-2.2812 2.2207v2.7793h-2.8105c-0.747 0.724-1.452 1.553-2.19 2.281-0.738-0.728-1.472-1.557-2.221-2.281h-2.779v-2.782c-0.724-0.748-1.5532-1.48-2.2812-2.218 0.728-0.738 1.5572-1.445 2.2812-2.192v-2.8086h2.7793c0.749-0.724 1.483-1.5524 2.221-2.2805zm0 3.2812v8a4 4 0 0 0 4-4 4 4 0 0 0-4-4z" style="opacity:.2"/>
   <path d="m16 7.7188c0.738 0.728 1.443 1.5569 2.189 2.2812h2.811v2.809c0.724 0.746 1.553 1.453 2.281 2.191-0.728 0.738-1.557 1.472-2.281 2.221v2.779h-2.811c-0.746 0.724-1.451 1.553-2.189 2.281-0.738-0.728-1.472-1.557-2.221-2.281h-2.779v-2.781c-0.724-0.749-1.5532-1.481-2.2812-2.219 0.728-0.738 1.5572-1.445 2.2812-2.191v-2.809h2.779c0.749-0.7244 1.483-1.5532 2.221-2.2812zm0 3.2812v8a4 4 0 0 0 4-4 4 4 0 0 0-4-4z" style="fill:#ffffff"/>
  </g>
 </g>
</svg>
