<svg id="svg" width="32" height="32" version="1.1" viewBox="0 0 32 32" xmlns="http://www.w3.org/2000/svg">
 <g id="22-22-video-card-inactive" transform="translate(27,5)">
  <rect x="5" y="5" width="22" height="22" style="opacity:.00100002"/>
  <g>
   <path d="m9 8c-1.325 0-1.325 2 0 2h1v3h-2v3h2v1h-2v3h2v2c0 1.325 2 1.325 2 0v-13c0-0.9999602-1-1-1-1zm4 3v2h9v5h0.199219c0.31658 0 0.477092 0.07124 0.46289 0.06836a1.0001 1.0001 0 0 1 0.507813 0.273438l0.830078 0.830077v-8.171875zm-4 3h1v1h-1zm5 0v4h1v-4zm2 0v4h1v-4zm2 0v4h1v-4zm2 0v4h1v-4zm-11 4h1v1h-1zm4 1v2h1v2h6.205078a1.0001 1.0001 0 0 1 0.136719-0.169922l0.830078-0.830078-0.830078-0.830078a1.0001 1.0001 0 0 1-0.134766-0.169922h-4.207031v-2z" style="fill:#aaaaac"/>
   <path d="m21.000002 18.999998v1.199219c0 0.0926 0.0311 0.176228 0.04883 0.263672l1.537108 1.537109-1.53711 1.537109c-0.01844 0.08759-0.04883 0.172582-0.04883 0.263672v1.199219h1.199219c0.09036 0 0.175657-0.03068 0.263672-0.04883l1.537109-1.537108 1.537109 1.53711c0.08802 0.01815 0.173313 0.04883 0.263672 0.04883h1.199219v-1.199219c0-0.09109-0.03039-0.176081-0.04883-0.263672l-1.537108-1.537109 1.53711-1.537109c0.01773-0.08744 0.04883-0.171072 0.04883-0.263672v-1.199219h-1.199219c-0.0926 0-0.17623 0.0311-0.263672 0.04883l-1.537109 1.537108-1.537109-1.53711c-0.08744-0.01772-0.171076-0.04883-0.263672-0.04883z" style="fill:#5294e2"/>
  </g>
 </g>
 <g id="video-card-inactive">
  <rect width="32" height="32" style="opacity:.00100002"/>
  <g>
   <path d="m7.3333 8.0004c-0.7386 0-1.3333 0.6175-1.3333 1.3846v15.23c0 0.767 0.5947 1.385 1.3333 1.385h2.6667v-3h6v3h12.667c0.738 0 1.333-0.618 1.333-1.385v-15.23c0-0.7675-0.595-1.385-1.333-1.385z" style="opacity:.2"/>
   <path d="m7.3333 7c-0.7386 0-1.3333 0.6175-1.3333 1.3846v15.23c0 0.767 0.5947 1.385 1.3333 1.385h2.6667v-3h6v3h12.667c0.738 0 1.333-0.618 1.333-1.385v-15.23c0-0.7675-0.595-1.385-1.333-1.385z" style="fill:#419d45"/>
   <path d="M 7.334,7 C 6.5953,7 6,7.6177 6,8.3848 v 1 C 6,8.6177 6.5953,8 7.334,8 H 28.666 C 29.405,8 30,8.6177 30,9.3848 v -1 C 30,7.6177 29.405,7 28.666,7 Z" style="fill:#ffffff;opacity:.1"/>
   <path d="m15 7v2h1v-2zm2 0v2h1v-2zm2 0v2h1v-2zm2 0v2h1v-2zm-10 4v1h2v-1zm13 0v1h2v-1zm-13 2v1h2v-1zm13 0v1h2v-1zm-13 2v1h2v-1zm13 0v1h2v-1zm0 2v1h2v-1zm-9 3v2h1v-2zm2 0v2h1v-2zm2 0v2h1v-2zm2 0v2h1v-2z" style="fill:#b7b7b7"/>
   <path d="m11 17v1h2v-1z" style="fill:#b7b7b7"/>
   <rect x="12" y="8" width="13" height="13" rx="2.5999999" ry="2.5999999" style="fill:#4e4e4e"/>
   <path d="m3 6h2v21" style="fill:none;opacity:.2;stroke-linecap:round;stroke-linejoin:round;stroke-width:2;stroke:#000000"/>
   <path d="m3 5h2v21" style="fill:none;stroke-linecap:round;stroke-linejoin:round;stroke-width:2;stroke:#b7b7b7"/>
   <g transform="translate(0,1)" style="opacity:.2">
    <rect x="17" y="22" width="2" height="4"/>
    <rect x="20" y="22" width="2" height="4"/>
    <rect x="23" y="22" width="2" height="4"/>
    <rect x="26" y="22" width="2" height="4"/>
   </g>
   <g style="fill:#f8c44e">
    <rect x="17" y="22" width="2" height="4"/>
    <rect x="20" y="22" width="2" height="4"/>
    <rect x="23" y="22" width="2" height="4"/>
    <rect x="26" y="22" width="2" height="4"/>
   </g>
   <path d="m3 4a1.0001 1.0001 0 0 0-0.8828 1.4941 1.0001 1.0001 0 0 1 0.8828-0.5078h2a1.0001 1.0001 0 0 1 1 1v-0.9863a1.0001 1.0001 0 0 0-1-1z" style="fill:#ffffff;opacity:.2"/>
   <path d="m13 12v5h3v-3h-1v2h-1v-3h2v-1h-2zm4 0v5h1v-2h2v-3zm4 0v5h3v-5h-1v4h-1v-4zm-3 1h1v1h-1z" style="fill:#ffffff"/>
  </g>
  <g transform="translate(-23,95)">
   <circle cx="48" cy="-70" r="7" style="opacity:.2"/>
   <circle cx="48" cy="-71" r="7" style="fill:#db3c30"/>
   <path d="m45-74v1.199219c0 0.0926 0.0311 0.176228 0.04883 0.263672l1.537108 1.537109-1.53711 1.537109c-0.01844 0.087591-0.048828 0.172582-0.048828 0.263672v1.199219h1.199219c0.09036 0 0.175657-0.03068 0.263672-0.04883l1.537109-1.537108 1.537109 1.53711c0.08802 0.018146 0.173313 0.048828 0.263672 0.048828h1.199219v-1.199219c0-0.09109-0.03039-0.176081-0.04883-0.263672l-1.537108-1.537109 1.53711-1.537109c0.01773-0.087444 0.048828-0.171072 0.048828-0.263672v-1.199219h-1.199219c-0.0926 0-0.17623 0.0311-0.263672 0.04883l-1.537109 1.537108-1.537109-1.53711c-0.087444-0.017725-0.171076-0.048828-0.263672-0.048828z" style="fill:#ffffff"/>
  </g>
 </g>
</svg>
