<svg width="32" height="32" style="enable-background:new" version="1.1" xmlns="http://www.w3.org/2000/svg">
 <g id="22-22-virt-manager" transform="translate(32,10)">
  <rect width="22" height="22" style="opacity:.00100002"/>
  <path d="m0 7 3.225 8h2.3l3.175-8h-2.175l-2.175 5.275-2.15-5.275z" style="fill:#aaaaac;opacity:.3"/>
  <path d="m9.825 7c-1.0831 2.6805-2.1839 5.3442-3.325 8h2.3l2.15-5.25 2.125 5.25h2.3l2.125-5.4 2.2 5.4h2.3c-1.1411-2.6558-2.2669-5.3195-3.35-8h-2.3l-2.125 5.275-2.175-5.275z" style="fill:#aaaaac"/>
 </g>
 <g id="virt-manager">
  <rect width="32" height="32" style="opacity:.00100002"/>
  <g transform="translate(-2e-4)">
   <rect x="2" y="2" width="28" height="28" rx="1.4" ry="1.4" style="fill:#4f4f4f"/>
   <path d="M 3.4004,2 C 2.6248,2 2,2.6248 2,3.4004 v 1 C 2,3.6248 2.6248,3 3.4004,3 h 25.2 c 0.775,0 1.4,0.6248 1.4,1.4004 v -1 C 30.0004,2.6248 29.3754,2 28.6004,2 Z" style="fill:#ffffff;opacity:.1"/>
   <path d="m2 28.6v1c0 0.775 0.6248 1.4 1.4004 1.4h25.2c0.775 0 1.4-0.625 1.4-1.4v-1c0 0.775-0.625 1.4-1.4 1.4h-25.2c-0.7752 0-1.4-0.625-1.4-1.4z" style="opacity:.2"/>
   <path d="m4.5 13 3.225 8h2.3l3.175-8h-2.175l-2.175 5.275-2.15-5.275z" style="opacity:.2"/>
   <path d="m4.5 12 3.225 8h2.3l3.175-8h-2.175l-2.175 5.275-2.15-5.275z" style="fill:#6a2537"/>
   <path d="m15.325 13c-1.0831 2.6805-2.1839 5.3442-3.325 8h2.3l2.15-5.25 2.125 5.25h2.3l2.125-5.4 2.2 5.4h2.3c-1.1411-2.6558-2.2669-5.3195-3.35-8h-2.3l-2.125 5.275-2.175-5.275z" style="opacity:.2"/>
   <path d="m15.325 12c-1.0831 2.6805-2.1839 5.3442-3.325 8h2.3l2.15-5.25 2.125 5.25h2.3l2.125-5.4 2.2 5.4h2.3c-1.1411-2.6558-2.2669-5.3195-3.35-8h-2.3l-2.125 5.275-2.175-5.275z" style="fill:#a6aaad"/>
  </g>
 </g>
</svg>
