<svg width="32" height="32" style="enable-background:new" version="1.1" xmlns="http://www.w3.org/2000/svg">
 <g id="22-22-vlc" transform="translate(32,10)">
  <rect width="22" height="22" rx=".75199997" ry=".72000003" style="opacity:.00100002"/>
  <path d="m10.96 3c-5e-3 -2e-5 -0.01-2e-3 -0.0154-2e-3 -0.687 0-1.1558 0.1941-1.2235 0.45952-0.0348 0.0546-0.0769 0.1056-0.0957 0.16913l-0.64422 3.1748c0.96505 0.69965 3.066 0.69965 4.0311 0l-0.64421-3.1748c-4e-3 -0.0136-0.0157-0.0226-0.0205-0.0359 6e-5 -2e-3 3e-3 -4e-3 3e-3 -5e-3 -1e-5 -0.0819-0.0559-0.16285-0.14355-0.23745-0.077-0.0825-0.17385-0.14845-0.28365-0.1862-0.2966-0.10208-0.60827-0.16215-0.92617-0.1657zm-2.8058 6.6003-0.65106 2.1986h-1.056c-0.28245 7e-5 -0.53724 0.16987-0.64593 0.43049l-1.7498 5.7989c-0.19207 0.46083 0.14656 0.96845 0.64593 0.9686h12.599c0.49936-1.5e-4 0.83799-0.50777 0.64592-0.9686l-1.7498-5.7989c-0.1087-0.26062-0.36349-0.43042-0.64593-0.43049h-1.056l-0.65105-2.1986c-1.9246 0.76526-3.5418 0.96203-5.6852 0zm6.4371 2.5351 0.57587 1.9492c0.0897 0.30331-0.0346 0.62879-0.30417 0.79435-1.0985 0.67411-2.4982 1.0048-3.8927 1.0181-1.3944 0.0134-2.7952-0.28843-3.8739-1.0404-0.24703-0.17234-0.35537-0.48336-0.26999-0.77214l0.55024-1.8603c0.75371 0.44185 4.1682 1.7558 7.2146-0.0888z" style="fill-rule:evenodd;fill:#aaaaac"/>
 </g>
 <g id="vlc">
  <rect width="32" height="32" style="opacity:.00100002"/>
  <g transform="translate(.00119667)">
   <path d="m6.8995 18.988c-0.56496 1.4e-4 -1.0745 0.33981-1.2919 0.86126l-3.4997 8.2118c-0.38418 0.92201 0.29304 1.9382 1.2919 1.9385h25.198c0.99885-3.1e-4 1.6761-1.0165 1.2919-1.9385l-3.4997-8.2118c-0.21741-0.52145-0.72692-0.86112-1.2919-0.86126z" style="fill-rule:evenodd;fill:#ff8800"/>
   <path d="m6.8991 18.988c-0.56496 1.4e-4 -1.0736 0.33988-1.291 0.86133l-3.5 8.2109c-0.14785 0.35483-0.1361 0.72351-0.01172 1.043 0.0054-0.0142 0.0058-0.0288 0.01172-0.043l3.5-8.2109c0.21741-0.52145 0.72606-0.8612 1.291-0.86133h18.199c0.56496 1.3e-4 1.0736 0.33988 1.291 0.86133l3.5 8.2109c6e-3 0.0142 6e-3 0.0288 0.0117 0.043 0.12438-0.31946 0.13614-0.68814-0.0117-1.043l-3.5-8.2109c-0.21741-0.52145-0.72605-0.86119-1.291-0.86133z" style="fill-rule:evenodd;fill:#ffffff;opacity:.2"/>
   <path d="m16.001 1.9884c-0.63588-7e-3 -1.2843 0.10086-1.9248 0.35818-0.39691 0.15963-0.69905 0.49198-0.82025 0.90227l-1.2878 4.3528c2.0367 4.38 6.1312 1.4352 8.0603 0l-1.2878-4.3528c-0.12843-0.43428-0.45898-0.7796-0.88723-0.92688-0.59324-0.20424-1.2165-0.32646-1.8524-0.33357zm-5.689 11.213-1.5536 5.25c0.50292 4.4562 8.3306 3.5251 14.428-0.17873l-1.5004-5.0707c-3.8497 1.5311-5.4111-2.9352-11.374 0z" style="fill-rule:evenodd;fill:#ff8800"/>
   <path d="m2.0964 29.104c-0.3477 0.91 0.3187 1.896 1.3027 1.896h25.199c0.98407-3.1e-4 1.6505-0.98561 1.3027-1.8965-0.19885 0.51062-0.69024 0.89629-1.3047 0.89648h-25.195c-0.6144 0-1.1058-0.386-1.3046-0.897z" style="fill-rule:evenodd;opacity:.2"/>
   <path d="m11.968 7.6018-3.2099 10.848 1.5539-5.249c4.2871 1.9248 7.5239 1.5311 11.374 0l1.5005 5.0709c-6.093 3.691-12.92 1.062-14.428 0.178l-1.1013 3.7201c-0.17073 0.57777 0.04736 1.2001 0.5414 1.5449 2.1575 1.5044 4.9594 2.1103 7.7485 2.0836s5.5868-0.6897 7.7841-2.0385c0.53921-0.33126 0.78922-0.98317 0.60976-1.59l-4.312-14.568c-1.9303 1.3999-6.1306 1.3999-8.0609 0z" style="fill-rule:evenodd;fill:#ffffff"/>
   <path d="m15.893 1.9919c-1.4863 0-2.4746 0.45284-2.4746 1.0508 0 0.16432 0.1063 0.33481 0.2793 0.49805 0.38993-0.33089 1.1688-0.54883 2.1953-0.54883 1.0268 0 1.9668 0.27693 2.457 0.64453 0.20761-0.16502 0.35938-0.3311 0.35938-0.4707-2e-5 -0.59794-1.3301-1.1738-2.8164-1.1738z" style="fill:#ffffff;opacity:.2"/>
  </g>
 </g>
</svg>
