<svg id="svg" version="1.1" viewBox="0 0 22 22" xmlns="http://www.w3.org/2000/svg">
 <g id="window-pin" transform="translate(46,-52)">
  <rect x="-46" y="44" width="8" height="8" style="fill:none;opacity:.00100002"/>
  <path d="m-41 44c-0.389252 0.389252-0.468353 1.084344-0.01563 1.84375l-2.125 1.421875c-0.264203-0.106604-0.547797-0.186091-0.828125-0.1875-0.364375-0.00185-0.718745 0.109375-1.031245 0.421875l1.5 1.5-2 2-0.5 1 1-0.5 2-2 1.5 1.5c0.553482-0.553482 0.482374-1.253884 0.234375-1.859375l1.421875-2.125c0.759406 0.452728 1.454498 0.373627 1.84375-0.015625z" style="fill:#aaaaac"/>
 </g>
 <g id="window-unpin" transform="translate(74,-52)">
  <rect x="-66" y="44" width="8" height="8" style="fill:none;opacity:.00100002"/>
  <path d="m-61 44c-0.389252 0.389252-0.468353 1.084344-0.01563 1.84375l-2.125 1.421875c-0.264203-0.106604-0.547797-0.186091-0.828125-0.1875-0.364375-0.00185-0.718745 0.109375-1.031245 0.421875l1.5 1.5-2 2-0.5 1 1-0.5 2-2 1.5 1.5c0.553482-0.553482 0.482374-1.253884 0.234375-1.859375l1.421875-2.125c0.759406 0.452728 1.454498 0.373627 1.84375-0.015625z" style="fill:#5294e2"/>
 </g>
 <g id="window-close">
  <rect width="22" height="22" style="fill:none;opacity:.00100002"/>
  <path d="M 15.666667,4 11,8.666667 6.333333,4 4,6.3333333 8.666667,11 4,15.666667 6.333333,18 11,13.333333 15.666667,18 18,15.666667 13.333333,11 18,6.3333333 Z" style="fill:#aaaaac"/>
 </g>
 <g id="16-16-window-close" transform="translate(19,25)">
  <rect x="3" y="-19" width="16" height="16" style="fill:none;opacity:.00100002"/>
  <path d="m14.071068-15.485281-2.828427 2.828427-2.8284273-2.828427-1.4142135 1.414214 2.8284271 2.828427-2.8284271 2.8284268 1.4142135 1.4142136 2.8284273-2.8284271 2.828427 2.8284271 1.414214-1.4142136-2.828428-2.8284268 2.828428-2.828427z" style="fill:#aaaaac"/>
 </g>
</svg>
