<?xml version="1.0" encoding="UTF-8"?>
<svg width="32" height="32" version="1.1" xmlns="http://www.w3.org/2000/svg">
 <g id="22-22-window-close" transform="translate(32,10)">
  <rect width="22" height="22" opacity=".001"/>
  <g transform="matrix(1.7493 0 0 1.7499 -107.95 -909.47)" fill="#fff">
   <g transform="translate(19,-242)" fill="#fff">
    <path d="m45.571 764.57h0.85714c0.0089-1.1e-4 0.01782-4e-4 0.02679 0 0.21853 0.01 0.43703 0.11021 0.58929 0.26785l1.9554 1.9554 1.9821-1.9554c0.22768-0.19757 0.38286-0.26185 0.58928-0.26785h0.85714v0.85714c0 0.24555-0.02943 0.47199-0.21428 0.64286l-1.9554 1.9554 1.9286 1.9286c0.1613 0.16128 0.24106 0.38867 0.24107 0.61607v0.85714h-0.85714c-0.2274-1e-5 -0.45479-0.0798-0.61607-0.24107l-1.9554-1.9554-1.9554 1.9554c-0.16129 0.1613-0.38868 0.24107-0.61608 0.24107h-0.85714v-0.85714c-3e-6 -0.22739 0.07977-0.45479 0.24107-0.61607l1.9554-1.9286-1.9554-1.9554c-0.18064-0.16683-0.25985-0.40222-0.24107-0.64286z" fill="#aaaaac"/>
   </g>
  </g>
 </g>
 <g id="16-16-window-close" transform="translate(54,32)">
  <rect y="-16" width="16" height="16" opacity=".001"/>
  <g transform="matrix(1.2495 0 0 1.25 -76.965 -665.48)" fill="#fff">
   <g transform="translate(19,-242)" fill="#fff">
    <path d="m45.8 764.8h0.8c0.0083-1e-4 0.01663-3.7e-4 0.025 0 0.20396 9e-3 0.4079 0.10286 0.55 0.25l1.825 1.825 1.85-1.825c0.2125-0.1844 0.35734-0.2444 0.55-0.25h0.8v0.8c0 0.22918-0.02747 0.44052-0.2 0.6l-1.825 1.825 1.8 1.8c0.15055 0.15054 0.22499 0.36276 0.225 0.575v0.8h-0.8c-0.21224-1e-5 -0.42447-0.0745-0.575-0.225l-1.825-1.825-1.825 1.825c-0.15053 0.15055-0.36277 0.225-0.575 0.225h-0.8v-0.8c-3e-6 -0.21223 0.07445-0.42446 0.225-0.575l1.825-1.8-1.825-1.825c-0.16859-0.1557-0.24253-0.3754-0.225-0.6z" fill="#aaaaac"/>
   </g>
  </g>
 </g>
 <g id="window-close">
  <rect width="32" height="32" opacity=".001"/>
  <rect transform="matrix(0,-1,-1,0,0,0)" x="-31" y="-30" width="28" height="28" rx="14" ry="14" opacity=".2"/>
  <rect transform="matrix(0,-1,-1,0,0,0)" x="-30" y="-30" width="28" height="28" rx="14" ry="14" fill="#f34235"/>
  <g transform="matrix(1.7493 0 0 1.7499 -102.95 -903.47)" opacity=".2">
   <g transform="translate(19,-242)">
    <path d="m45.571 764.57h0.85714c0.0089-1.1e-4 0.01782-4e-4 0.02679 0 0.21853 0.01 0.43703 0.11021 0.58929 0.26785l1.9554 1.9554 1.9821-1.9554c0.22768-0.19757 0.38286-0.26185 0.58928-0.26785h0.85714v0.85714c0 0.24555-0.02943 0.47199-0.21428 0.64286l-1.9554 1.9554 1.9286 1.9286c0.1613 0.16128 0.24106 0.38867 0.24107 0.61607v0.85714h-0.85714c-0.2274-1e-5 -0.45479-0.0798-0.61607-0.24107l-1.9554-1.9554-1.9554 1.9554c-0.16129 0.1613-0.38868 0.24107-0.61608 0.24107h-0.85714v-0.85714c-3e-6 -0.22739 0.07977-0.45479 0.24107-0.61607l1.9554-1.9286-1.9554-1.9554c-0.18064-0.16683-0.25985-0.40222-0.24107-0.64286z"/>
   </g>
  </g>
  <g transform="matrix(1.7493 0 0 1.7499 -102.95 -904.47)" fill="#fff">
   <g transform="translate(19,-242)" fill="#fff">
    <path d="m45.571 764.57h0.85714c0.0089-1.1e-4 0.01782-4e-4 0.02679 0 0.21853 0.01 0.43703 0.11021 0.58929 0.26785l1.9554 1.9554 1.9821-1.9554c0.22768-0.19757 0.38286-0.26185 0.58928-0.26785h0.85714v0.85714c0 0.24555-0.02943 0.47199-0.21428 0.64286l-1.9554 1.9554 1.9286 1.9286c0.1613 0.16128 0.24106 0.38867 0.24107 0.61607v0.85714h-0.85714c-0.2274-1e-5 -0.45479-0.0798-0.61607-0.24107l-1.9554-1.9554-1.9554 1.9554c-0.16129 0.1613-0.38868 0.24107-0.61608 0.24107h-0.85714v-0.85714c-3e-6 -0.22739 0.07977-0.45479 0.24107-0.61607l1.9554-1.9286-1.9554-1.9554c-0.18064-0.16683-0.25985-0.40222-0.24107-0.64286z" fill="#fff"/>
   </g>
  </g>
  <path d="m16 2c-7.756 0-14 6.244-14 14 0 0.16884 0.019521 0.33264 0.025391 0.5 0.26374-7.5206 6.3875-13.5 13.975-13.5 7.5872 0 13.711 5.9794 13.975 13.5 0.00587-0.16736 0.025391-0.33116 0.025391-0.5 0-7.756-6.244-14-14-14z" fill="#fff" opacity=".2"/>
 </g>
 <g id="22-22-window-pin" transform="translate(27,-27)">
  <rect x="5" y="5" width="22" height="22" opacity=".001"/>
  <path d="m18 8c-0.7785 0.7785-0.93671 2.1687-0.03126 3.6875l-4.25 2.8438c-0.52841-0.21321-1.0956-0.37218-1.6562-0.375-0.72875-0.0036-1.4375 0.21875-2.0625 0.84375l3 3-4 4-1 2 2-1 4-4 3 3c1.107-1.107 0.96475-2.5078 0.46875-3.7188l2.8438-4.25c1.5188 0.90546 2.909 0.74725 3.6875-0.03126z" fill="#aaaaac"/>
 </g>
 <g id="16-16-window-pin" transform="translate(46,-24)">
  <rect x="8" y="8" width="16" height="16" opacity=".001"/>
  <path d="m17 12c-0.38925 0.38925-0.46835 1.0843-0.01563 1.8438l-2.125 1.4219c-0.2642-0.1066-0.5478-0.18609-0.82812-0.1875-0.36438-0.0018-0.71874 0.10938-1.0312 0.42188l1.5 1.5-2 2-0.5 1 1-0.5 2-2 1.5 1.5c0.55348-0.55348 0.48237-1.2539 0.23438-1.8594l1.4219-2.125c0.75941 0.45273 1.4545 0.37363 1.8438-0.01563z" fill="#aaaaac"/>
 </g>
 <g id="window-pin" transform="translate(0,-32)">
  <rect width="32" height="32" opacity=".001"/>
  <path d="m19.5 2c-1.3624 1.3624-1.6392 3.7952-0.05471 6.4531l-7.4375 4.9766c-0.92471-0.37311-1.9173-0.65132-2.8984-0.65625-1.2753-0.006256-2.5156 0.38281-3.6094 1.4766l5.25 5.25-7 7-1.75 3.5 3.5-1.75 7-7 5.25 5.25c1.9372-1.9372 1.6883-4.3886 0.82031-6.5078l4.9766-7.4375c2.6579 1.5845 5.0907 1.3077 6.4531-0.05471z" fill="#aaaaac"/>
 </g>
</svg>
