<svg width="22" height="22" version="1.1" viewBox="0 0 22 22" xmlns="http://www.w3.org/2000/svg">
 <g id="16-16-zoom-fit-width" transform="translate(-467.0002,65)" style="enable-background:new">
  <rect x="489" y="-59" width="16" height="16" style="fill:none;opacity:.00100002"/>
  <path d="m494.0002-54.00334-4 2.999999 4 3.000001v-2.000001h6v2.000001l4-3.000001-4-2.999999v2.000001h-6z" style="fill:#aaaaac"/>
 </g>
 <g id="16-16-zoom-fit-height" transform="rotate(90,242.0001,-263.0001)" style="enable-background:new">
  <rect x="489" y="-59" width="16" height="16" style="fill:none;opacity:.00100002"/>
  <path d="m494.0002-54.00334-4 2.999999 4 3.000001v-2.000001h6v2.000001l4-3.000001-4-2.999999v2.000001h-6z" style="fill:#aaaaac"/>
 </g>
 <g id="zoom-fit-width" transform="translate(-465.0002,64.999998)" style="enable-background:new">
  <rect x="465" y="-65" width="22" height="22" style="fill:none;opacity:.00100002"/>
  <path d="m473.0002-57.00334-5 3 5 3v-2h6v2l5-3-5-3v2h-6z" style="fill:#aaaaac"/>
 </g>
 <g id="zoom-fit-height" transform="rotate(90,222.0001,-265.0001)" style="enable-background:new">
  <rect x="465" y="-65" width="22" height="22" style="fill:none;opacity:.00100002"/>
  <path d="m473.0002-57.00334-5 3 5 3v-2h6v2l5-3-5-3v2h-6z" style="fill:#aaaaac"/>
 </g>
</svg>
