<?xml version="1.0" encoding="UTF-8" standalone="no"?>
<svg
   xmlns:dc="http://purl.org/dc/elements/1.1/"
   xmlns:cc="http://creativecommons.org/ns#"
   xmlns:rdf="http://www.w3.org/1999/02/22-rdf-syntax-ns#"
   xmlns:svg="http://www.w3.org/2000/svg"
   xmlns="http://www.w3.org/2000/svg"
   xmlns:sodipodi="http://sodipodi.sourceforge.net/DTD/sodipodi-0.dtd"
   xmlns:inkscape="http://www.inkscape.org/namespaces/inkscape"
   width="48"
   height="48"
   viewBox="0 0 48 48"
   version="1.1"
   id="svg882"
   inkscape:version="1.0.2 (e86c870879, 2021-01-15)"
   sodipodi:docname="action-overlays.svg">
  <defs
     id="defs876" />
  <sodipodi:namedview
     id="base"
     pagecolor="#1e1e20"
     bordercolor="#666666"
     borderopacity="1.0"
     inkscape:pageopacity="1"
     inkscape:pageshadow="2"
     inkscape:zoom="24.854167"
     inkscape:cx="24"
     inkscape:cy="24"
     inkscape:document-units="px"
     inkscape:current-layer="svg882"
     showgrid="true"
     units="px"
     inkscape:pagecheckerboard="true"
     fit-margin-top="0"
     fit-margin-left="0"
     fit-margin-right="0"
     fit-margin-bottom="0"
     inkscape:window-width="2514"
     inkscape:window-height="1413"
     inkscape:window-x="46"
     inkscape:window-y="27"
     inkscape:window-maximized="1"
     inkscape:document-rotation="0">
    <inkscape:grid
       type="xygrid"
       id="grid868" />
  </sodipodi:namedview>
  <metadata
     id="metadata879">
    <rdf:RDF>
      <cc:Work
         rdf:about="">
        <dc:format>image/svg+xml</dc:format>
        <dc:type
           rdf:resource="http://purl.org/dc/dcmitype/StillImage" />
        <dc:title></dc:title>
      </cc:Work>
    </rdf:RDF>
  </metadata>
  <g
     id="remove-normal"
     transform="translate(0,-18)">
    <rect
       id="rect997"
       width="16"
       height="16"
       x="0"
       y="34"
       style="opacity:0.00100002;fill:#000000;fill-opacity:1;stroke:none;stroke-width:0.80000001" />
    <path
       id="path999"
       d="m 15,41.999999 a 6.9999999,6.9999999 0 0 1 -7,6.999999 6.9999999,6.9999999 0 0 1 -7,-6.999999 6.9999999,6.9999999 0 0 1 7,-7 6.9999999,6.9999999 0 0 1 7,7 z"
       style="opacity:1;fill:#414143;fill-opacity:1;stroke:none;stroke-width:0.87499994"
       inkscape:connector-curvature="0" />
    <rect
       id="rect1003"
       width="2"
       height="8"
       x="41"
       y="-12"
       transform="rotate(90)"
       style="opacity:1;fill:#aaaaac;fill-opacity:1;stroke:none;stroke-width:1.63299322;stroke-linecap:round;stroke-linejoin:round;stroke-miterlimit:4;stroke-dasharray:none;stroke-opacity:1" />
  </g>
  <g
     id="add-normal"
     transform="translate(0,-18)">
    <rect
       style="opacity:0.00100002;fill:#000000;fill-opacity:1;stroke:none;stroke-width:0.80000001"
       id="rect1007"
       width="16"
       height="16"
       x="0"
       y="18" />
    <path
       style="opacity:1;fill:#414143;fill-opacity:1;stroke:none;stroke-width:0.87499994"
       id="path1009"
       d="m 15,25.999999 a 6.9999999,6.9999999 0 0 1 -7,6.999999 6.9999999,6.9999999 0 0 1 -7,-6.999999 6.9999999,6.9999999 0 0 1 7,-7 6.9999999,6.9999999 0 0 1 7,7 z"
       inkscape:connector-curvature="0" />
    <rect
       id="rect1011"
       width="2"
       height="8"
       x="7"
       y="22"
       style="opacity:1;fill:#aaaaac;fill-opacity:1;stroke:none;stroke-width:1.63299322;stroke-linecap:round;stroke-linejoin:round;stroke-miterlimit:4;stroke-dasharray:none;stroke-opacity:1" />
    <rect
       style="opacity:1;fill:#aaaaac;fill-opacity:1;stroke:none;stroke-width:1.63299322;stroke-linecap:round;stroke-linejoin:round;stroke-miterlimit:4;stroke-dasharray:none;stroke-opacity:1"
       id="rect1013"
       width="2"
       height="8"
       x="25"
       y="-12"
       transform="rotate(90)" />
  </g>
  <g
     id="open-normal"
     transform="translate(0,-18)">
    <rect
       style="opacity:0.00100002;fill:#000000;fill-opacity:1;stroke:none;stroke-width:0.80000001"
       id="rect3042"
       width="16"
       height="16"
       x="0"
       y="50" />
    <path
       style="opacity:1;fill:#414143;fill-opacity:1;stroke:none;stroke-width:0.87499994"
       id="path3044"
       d="m 15,57.999999 a 6.9999999,6.9999999 0 0 1 -7,6.999999 6.9999999,6.9999999 0 0 1 -7,-6.999999 6.9999999,6.9999999 0 0 1 7,-7 6.9999999,6.9999999 0 0 1 7,7 z"
       inkscape:connector-curvature="0" />
    <path
       id="path1019"
       d="M 8.2810355,36.558561 10.140518,39.779279 12,42.999997 H 8.2810354 4.5620707 l 1.8594824,-3.220718 z"
       transform="matrix(1.0755682,0,0,0.77622444,-0.90681813,26.622351)"
       style="opacity:1;fill:#aaaaac;fill-opacity:1;stroke:none;stroke-width:2;stroke-linecap:round;stroke-linejoin:round;stroke-miterlimit:4;stroke-dasharray:none;stroke-opacity:1"
       inkscape:connector-curvature="0" />
  </g>
  <g
     id="remove-hover"
     transform="translate(16,-18)">
    <rect
       style="opacity:0.00100002;fill:#000000;fill-opacity:1;stroke:none;stroke-width:0.80000001"
       id="rect1046"
       width="16"
       height="16"
       x="0"
       y="34" />
    <path
       style="opacity:1;fill:#414143;fill-opacity:1;stroke:none;stroke-width:0.87499994"
       id="path1048"
       d="m 15,41.999999 a 6.9999999,6.9999999 0 0 1 -7,6.999999 6.9999999,6.9999999 0 0 1 -7,-6.999999 6.9999999,6.9999999 0 0 1 7,-7 6.9999999,6.9999999 0 0 1 7,7 z"
       inkscape:connector-curvature="0" />
    <rect
       style="opacity:1;fill:#c8c8ca;fill-opacity:1;stroke:none;stroke-width:1.63299322;stroke-linecap:round;stroke-linejoin:round;stroke-miterlimit:4;stroke-dasharray:none;stroke-opacity:1"
       id="rect1050"
       width="2"
       height="8"
       x="41"
       y="-12"
       transform="rotate(90)" />
  </g>
  <g
     id="add-hover"
     transform="translate(16,-18)">
    <rect
       id="rect1054"
       width="16"
       height="16"
       x="0"
       y="18"
       style="opacity:0.00100002;fill:#000000;fill-opacity:1;stroke:none;stroke-width:0.80000001" />
    <path
       id="path1056"
       d="m 15,25.999999 a 6.9999999,6.9999999 0 0 1 -7,6.999999 6.9999999,6.9999999 0 0 1 -7,-6.999999 6.9999999,6.9999999 0 0 1 7,-7 6.9999999,6.9999999 0 0 1 7,7 z"
       style="opacity:1;fill:#414143;fill-opacity:1;stroke:none;stroke-width:0.87499994"
       inkscape:connector-curvature="0" />
    <rect
       style="opacity:1;fill:#c8c8ca;fill-opacity:1;stroke:none;stroke-width:1.63299322;stroke-linecap:round;stroke-linejoin:round;stroke-miterlimit:4;stroke-dasharray:none;stroke-opacity:1"
       id="rect1058"
       width="2"
       height="8"
       x="7"
       y="22" />
    <rect
       id="rect1060"
       width="2"
       height="8"
       x="25"
       y="-12"
       transform="rotate(90)"
       style="opacity:1;fill:#c8c8ca;fill-opacity:1;stroke:none;stroke-width:1.63299322;stroke-linecap:round;stroke-linejoin:round;stroke-miterlimit:4;stroke-dasharray:none;stroke-opacity:1" />
  </g>
  <g
     id="open-hover"
     transform="translate(16,-18)">
    <rect
       id="rect1064"
       width="16"
       height="16"
       x="0"
       y="50"
       style="opacity:0.00100002;fill:#000000;fill-opacity:1;stroke:none;stroke-width:0.80000001" />
    <path
       id="path1066"
       d="m 15,57.999999 a 6.9999999,6.9999999 0 0 1 -7,6.999999 6.9999999,6.9999999 0 0 1 -7,-6.999999 6.9999999,6.9999999 0 0 1 7,-7 6.9999999,6.9999999 0 0 1 7,7 z"
       style="opacity:1;fill:#414143;fill-opacity:1;stroke:none;stroke-width:0.87499994"
       inkscape:connector-curvature="0" />
    <path
       style="opacity:1;fill:#c8c8ca;fill-opacity:1;stroke:none;stroke-width:2;stroke-linecap:round;stroke-linejoin:round;stroke-miterlimit:4;stroke-dasharray:none;stroke-opacity:1"
       id="path1068"
       d="M 8.2810355,36.558561 10.140518,39.779279 12,42.999997 H 8.2810354 4.5620707 l 1.8594824,-3.220718 z"
       transform="matrix(1.0755682,0,0,0.77622444,-0.90681813,26.622351)"
       inkscape:connector-curvature="0" />
  </g>
  <g
     id="remove-pressed"
     transform="translate(32,-18)">
    <rect
       id="rect1072"
       width="16"
       height="16"
       x="0"
       y="34"
       style="opacity:0.00100002;fill:#000000;fill-opacity:1;stroke:none;stroke-width:0.80000001" />
    <path
       id="path1074"
       d="m 15,41.999999 a 6.9999999,6.9999999 0 0 1 -7,6.999999 6.9999999,6.9999999 0 0 1 -7,-6.999999 6.9999999,6.9999999 0 0 1 7,-7 6.9999999,6.9999999 0 0 1 7,7 z"
       style="opacity:1;fill:#414143;fill-opacity:1;stroke:none;stroke-width:0.87499994"
       inkscape:connector-curvature="0" />
    <rect
       id="rect1076"
       width="2"
       height="8"
       x="41"
       y="-12"
       transform="rotate(90)"
       style="opacity:1;fill:#d2d2d4;fill-opacity:1;stroke:none;stroke-width:1.63299322;stroke-linecap:round;stroke-linejoin:round;stroke-miterlimit:4;stroke-dasharray:none;stroke-opacity:1" />
  </g>
  <g
     id="add-pressed"
     transform="translate(32,-18)">
    <rect
       style="opacity:0.00100002;fill:#000000;fill-opacity:1;stroke:none;stroke-width:0.80000001"
       id="rect1080"
       width="16"
       height="16"
       x="0"
       y="18" />
    <path
       style="opacity:1;fill:#414143;fill-opacity:1;stroke:none;stroke-width:0.87499994"
       id="path1082"
       d="m 15,25.999999 a 6.9999999,6.9999999 0 0 1 -7,6.999999 6.9999999,6.9999999 0 0 1 -7,-6.999999 6.9999999,6.9999999 0 0 1 7,-7 6.9999999,6.9999999 0 0 1 7,7 z"
       inkscape:connector-curvature="0" />
    <rect
       id="rect1084"
       width="2"
       height="8"
       x="7"
       y="22"
       style="opacity:1;fill:#d2d2d4;fill-opacity:1;stroke:none;stroke-width:1.63299322;stroke-linecap:round;stroke-linejoin:round;stroke-miterlimit:4;stroke-dasharray:none;stroke-opacity:1" />
    <rect
       style="opacity:1;fill:#d2d2d4;fill-opacity:1;stroke:none;stroke-width:1.63299322;stroke-linecap:round;stroke-linejoin:round;stroke-miterlimit:4;stroke-dasharray:none;stroke-opacity:1"
       id="rect1086"
       width="2"
       height="8"
       x="25"
       y="-12"
       transform="rotate(90)" />
  </g>
  <g
     id="open-pressed"
     transform="translate(32,-18)">
    <rect
       style="opacity:0.00100002;fill:#000000;fill-opacity:1;stroke:none;stroke-width:0.80000001"
       id="rect1090"
       width="16"
       height="16"
       x="0"
       y="50" />
    <path
       style="opacity:1;fill:#414143;fill-opacity:1;stroke:none;stroke-width:0.87499994"
       id="path1092"
       d="m 15,57.999999 a 6.9999999,6.9999999 0 0 1 -7,6.999999 6.9999999,6.9999999 0 0 1 -7,-6.999999 6.9999999,6.9999999 0 0 1 7,-7 6.9999999,6.9999999 0 0 1 7,7 z"
       inkscape:connector-curvature="0" />
    <path
       id="path1094"
       d="M 8.2810355,36.558561 10.140518,39.779279 12,42.999997 H 8.2810354 4.5620707 l 1.8594824,-3.220718 z"
       transform="matrix(1.0755682,0,0,0.77622444,-0.90681813,26.622351)"
       style="opacity:1;fill:#d2d2d4;fill-opacity:1;stroke:none;stroke-width:2;stroke-linecap:round;stroke-linejoin:round;stroke-miterlimit:4;stroke-dasharray:none;stroke-opacity:1"
       inkscape:connector-curvature="0" />
  </g>
</svg>
