<?xml version="1.0" encoding="UTF-8" standalone="no"?>
<svg
   xmlns:dc="http://purl.org/dc/elements/1.1/"
   xmlns:cc="http://creativecommons.org/ns#"
   xmlns:rdf="http://www.w3.org/1999/02/22-rdf-syntax-ns#"
   xmlns:svg="http://www.w3.org/2000/svg"
   xmlns="http://www.w3.org/2000/svg"
   xmlns:xlink="http://www.w3.org/1999/xlink"
   xmlns:sodipodi="http://sodipodi.sourceforge.net/DTD/sodipodi-0.dtd"
   xmlns:inkscape="http://www.inkscape.org/namespaces/inkscape"
   width="124.01764"
   height="51.979801"
   viewBox="0 0 124.01764 51.979801"
   version="1.1"
   id="svg905"
   inkscape:version="1.0.2 (e86c870879, 2021-01-15)"
   sodipodi:docname="configuration-icons.svg">
  <defs
     id="defs899">
    <linearGradient
       inkscape:collect="always"
       id="linearGradient1429">
      <stop
         style="stop-color:#646466;stop-opacity:1;"
         offset="0"
         id="stop1425" />
      <stop
         style="stop-color:#7a7a7c;stop-opacity:1"
         offset="1"
         id="stop1427" />
    </linearGradient>
    <linearGradient
       inkscape:collect="always"
       xlink:href="#linearGradient1429"
       id="linearGradient1431"
       x1="18.784584"
       y1="258.37332"
       x2="18.784584"
       y2="254.14"
       gradientUnits="userSpaceOnUse" />
  </defs>
  <sodipodi:namedview
     id="base"
     pagecolor="#1e1e20"
     bordercolor="#666666"
     borderopacity="1.0"
     inkscape:pageopacity="0"
     inkscape:pageshadow="2"
     inkscape:zoom="15.69938"
     inkscape:cx="62.008819"
     inkscape:cy="25.999367"
     inkscape:document-units="px"
     inkscape:current-layer="showbackground"
     showgrid="true"
     units="px"
     inkscape:pagecheckerboard="true"
     fit-margin-top="0"
     fit-margin-left="0"
     fit-margin-right="0"
     fit-margin-bottom="0"
     inkscape:window-width="2514"
     inkscape:window-height="1413"
     inkscape:window-x="46"
     inkscape:window-y="27"
     inkscape:window-maximized="1"
     inkscape:document-rotation="0">
    <inkscape:grid
       type="xygrid"
       id="grid932" />
  </sodipodi:namedview>
  <metadata
     id="metadata902">
    <rdf:RDF>
      <cc:Work
         rdf:about="">
        <dc:format>image/svg+xml</dc:format>
        <dc:type
           rdf:resource="http://purl.org/dc/dcmitype/StillImage" />
        <dc:title></dc:title>
      </cc:Work>
    </rdf:RDF>
  </metadata>
  <g
     id="showbackground"
     transform="matrix(3.7795277,0,0,3.7795277,38.003145,-924.52917)"
     inkscape:label="showbackground">
    <rect
       id="rect912"
       style="display:inline;opacity:1;fill:#ca5c5c;fill-opacity:0"
       width="4.2329998"
       height="4.2329998"
       x="18.52"
       y="254.14" />
    <path
       id="rect4560-9"
       style="fill:url(#linearGradient1431);fill-opacity:1;stroke-width:0.264583"
       d="m 19.284812,254.40458 c -0.277,0 -0.500228,0.22323 -0.500228,0.50023 v 2.70371 c 0,0.277 0.223228,0.50023 0.500228,0.50023 h 2.703711 c 0.277,0 0.500228,-0.22323 0.500228,-0.50023 v -2.70371 c 0,-0.277 -0.223228,-0.50023 -0.500228,-0.50023 z"
       inkscape:connector-curvature="0"
       sodipodi:nodetypes="sssssssss" />
    <text
       xml:space="preserve"
       style="font-size:11.2849px;line-height:1.25;font-family:'Noto Sans';-inkscape-font-specification:'Noto Sans';letter-spacing:0px;word-spacing:0px;display:inline;stroke-width:0.282124"
       x="18.953199"
       y="262.57074"
       id="text1140"
       transform="scale(1.019377,0.98099131)"><tspan
         sodipodi:role="line"
         id="tspan1138"
         x="18.953199"
         y="262.57074"
         style="font-style:normal;font-variant:normal;font-weight:bold;font-stretch:normal;font-size:3.76165px;font-family:'Noto Sans';-inkscape-font-specification:'Noto Sans, Bold';font-variant-ligatures:normal;font-variant-caps:normal;font-variant-numeric:normal;font-variant-east-asian:normal;fill:#1e1e20;fill-opacity:1;stroke-width:0.282124">A</tspan></text>
  </g>
  <g
     id="return-to-source"
     transform="matrix(3.7795277,0,0,3.7795277,2.0031496,-942.53864)">
    <rect
       id="rect4406"
       style="opacity:1;fill:#ca5c5c;fill-opacity:0"
       width="4.2329998"
       height="4.2329998"
       x="18.52"
       y="254.14" />
    <path
       id="rect4560"
       style="opacity:1;fill:#7a7a7c;fill-opacity:1"
       d="M 74.890625,19 C 73.843696,19 73,19.843696 73,20.890625 v 10.21875 C 73,32.156304 73.843696,33 74.890625,33 h 10.21875 C 86.156304,33 87,32.156304 87,31.109375 V 20.890625 C 87,19.843696 86.156304,19 85.109375,19 Z M 77,20 h 6 c 0,-0.04158 -3,4 -3,4 z m -3,5 h 12 v 2 H 74 Z m 6,3 c 0,0 3,4.041575 3,4 h -6 z"
       transform="matrix(0.26458333,0,0,0.26458333,-0.52916771,249.37493)"
       inkscape:connector-curvature="0" />
  </g>
  <g
     id="add"
     transform="matrix(3.7795277,0,0,3.7795277,2.0031496,-942.53864)">
    <rect
       id="rect4488"
       style="opacity:1;fill:none;fill-opacity:1;stroke:none"
       width="4.2329998"
       height="4.2329998"
       x="9"
       y="258.89999" />
    <rect
       id="rect4490"
       style="opacity:1;fill:none;fill-opacity:1;stroke:none"
       width="3.175"
       height="3.175"
       x="9.5299997"
       y="259.42999" />
    <path
       id="rect4498"
       style="color:#31363b;opacity:1;fill:#7a7a7c;fill-opacity:1;stroke:none"
       d="m 43,38 v 5 h -5 v 2 h 5 v 5 h 2 v -5 h 5 v -2 h -5 v -5 z"
       transform="matrix(0.26458333,0,0,0.26458333,-0.52916771,249.37493)"
       inkscape:connector-curvature="0" />
  </g>
  <g
     id="remove"
     transform="matrix(3.7795277,0,0,3.7795277,2.0031696,-942.53864)">
    <rect
       id="rect4502"
       style="opacity:1;fill:none;fill-opacity:1;stroke:none"
       width="4.2329998"
       height="4.2329998"
       x="13.76"
       y="258.89999" />
    <rect
       id="rect4504"
       style="opacity:1;fill:none;fill-opacity:1;stroke:none"
       width="3.175"
       height="3.175"
       x="14.29"
       y="259.42999" />
    <rect
       id="rect4508"
       style="color:#31363b;opacity:1;fill:#7a7a7c;fill-opacity:1;stroke:none"
       width="0.52899998"
       height="3.175"
       x="260.75"
       y="-17.459999"
       transform="rotate(90)" />
  </g>
  <g
     id="filter"
     transform="matrix(3.7795277,0,0,3.7795277,2.0031696,-942.53864)">
    <rect
       id="rect4527"
       style="opacity:1;fill:none;fill-opacity:1;stroke:none"
       width="4.2329998"
       height="4.2329998"
       x="18.52"
       y="258.89999" />
    <rect
       id="rect4529"
       style="opacity:1;fill:none;fill-opacity:1;stroke:none"
       width="3.175"
       height="3.175"
       x="19.049999"
       y="259.42999" />
    <path
       id="path4720"
       style="color:#31363b;opacity:1;fill:#7a7a7c;fill-opacity:1;fill-rule:evenodd;stroke:none;stroke-width:0.26458335px;stroke-linecap:butt;stroke-linejoin:miter;stroke-opacity:1"
       d="m 76.304688,57.787109 -1,1 v 1 l 3,5.259766 v 2.740234 0.002 l 3,1.996094 v 0.002 h 1 v -0.539062 -4.201172 l 3,-5.259766 v -1 l -1,-1 h -8 z m 1,2 h 3 l -1,1 v 1 z"
       transform="matrix(0.26458333,0,0,0.26458333,-0.60971093,244.13962)"
       inkscape:connector-curvature="0" />
  </g>
  <g
     id="configure"
     transform="matrix(3.7795277,0,0,3.7795277,2.0031496,-942.53864)">
    <rect
       id="rect4250"
       style="opacity:1;fill:#ca5c5c;fill-opacity:0"
       width="4.2329998"
       height="4.2329998"
       x="4.23"
       y="249.38" />
    <g
       id="layer2"
       style="display:inline"
       transform="matrix(0.26458333,0,0,0.26458333,-107.96654,136.13326)">
      <path
         id="path10500-6"
         style="display:inline;opacity:1;fill:#7a7a7c;fill-opacity:1;stroke:none;stroke-opacity:1;enable-background:new"
         d="m 430.25,429 -0.1543,1.84375 a 5.5,5.5 0 0 0 -1.60742,0.92969 l -1.67578,-0.78906 -1.75,3.03124 1.52148,1.05665 a 5.5,5.5 0 0 0 -0.084,0.92773 5.5,5.5 0 0 0 0.0801,0.93164 l -1.51758,1.05274 1.75,3.03124 1.67188,-0.7871 a 5.5,5.5 0 0 0 1.61132,0.92382 L 430.25,443 h 3.5 l 0.1543,-1.84375 a 5.5,5.5 0 0 0 1.60742,-0.92969 l 1.67578,0.78906 1.75,-3.03124 -1.52148,-1.05665 a 5.5,5.5 0 0 0 0.084,-0.92773 5.5,5.5 0 0 0 -0.0801,-0.93164 l 1.51758,-1.05274 -1.75,-3.03124 -1.67188,0.7871 a 5.5,5.5 0 0 0 -1.61132,-0.92382 L 433.75,429 Z m 1.75,5 a 2,2 0 0 1 2,2 2,2 0 0 1 -2,2 2,2 0 0 1 -2,-2 2,2 0 0 1 2,-2 z"
         inkscape:connector-curvature="0" />
    </g>
  </g>
  <g
     id="rotate"
     transform="matrix(3.7795277,0,0,3.7795277,2.0031496,-942.53864)">
    <rect
       id="rect4302"
       style="opacity:1;fill:#ca5c5c;fill-opacity:0"
       width="4.2329998"
       height="4.2329998"
       x="9"
       y="249.38" />
    <g
       id="g4328"
       style="enable-background:new"
       transform="matrix(0.26458333,0,0,0.26458333,8.9964326,249.37058)">
      <g
         id="layer12-4"
         style="display:inline"
         transform="translate(-425.00247,99.016457)">
        <path
           id="path5865"
           style="opacity:1;fill:#7a7a7c;fill-opacity:1;stroke:none"
           d="m 433.0002,-98 c -3.86599,0 -7,3.13401 -7,7 0,3.86599 3.13401,7 7,7 3.17482,0 5.86154,-2.10317 6.71875,-5 h -2.15625 c -0.77427,1.75952 -2.51681,3 -4.5625,3 -2.76142,0 -5,-2.23858 -5,-5 0,-2.76142 2.23858,-5 5,-5 1.38155,0 2.61548,0.575049 3.51562,1.484375 L 434.0002,-92 h 6 v -6 l -2.05273,2.052734 C 436.67897,-97.212023 434.93408,-98 433.0002,-98 Z"
           inkscape:connector-curvature="0" />
      </g>
    </g>
  </g>
  <g
     id="size-vertical"
     transform="matrix(3.7795277,0,0,3.7795277,2.0031496,-942.53864)">
    <rect
       id="rect4306"
       style="opacity:1;fill:#ca5c5c;fill-opacity:0"
       width="4.2329998"
       height="4.2329998"
       x="18.52"
       y="249.38" />
    <path
       id="path3807-1-1-4-7-2-1"
       style="opacity:1;fill:#7a7a7c;fill-opacity:1;stroke:none"
       d="m 80,1 -3,4 h 6 C 83,5.041575 80,1 80,1 Z m 0,5 a 2,2 0 0 0 -2,2 2,2 0 0 0 2,2 2,2 0 0 0 2,-2 2,2 0 0 0 -2,-2 z m -3,5 3,4 c 0,0 3,-4.041575 3,-4 z"
       transform="matrix(0.26458333,0,0,0.26458333,-0.52916771,249.37493)"
       inkscape:connector-curvature="0" />
  </g>
  <g
     id="size-horizontal"
     transform="matrix(3.7795277,0,0,3.7795277,2.0031496,-942.53864)">
    <rect
       id="rect4309"
       style="opacity:1;fill:#ca5c5c;fill-opacity:0"
       width="4.2329998"
       height="4.2329998"
       x="23.280001"
       y="249.38" />
    <path
       id="path4380"
       style="opacity:1;fill:#7a7a7c;fill-opacity:1;stroke:none"
       d="m 27.252082,251.4916 -1.058333,-0.79375 v 1.5875 c -0.011,0 1.058333,-0.79375 1.058333,-0.79375 z m -1.322917,0 a 0.52916666,0.52916666 0 0 0 -0.529166,-0.52917 0.52916666,0.52916666 0 0 0 -0.529167,0.52917 0.52916666,0.52916666 0 0 0 0.529167,0.52916 0.52916666,0.52916666 0 0 0 0.529166,-0.52916 z m -1.322916,-0.79375 -1.058334,0.79375 c 0,0 1.069334,0.79375 1.058334,0.79375 z"
       inkscape:connector-curvature="0" />
  </g>
  <g
     id="move"
     transform="matrix(3.7795277,0,0,3.7795277,2.0031496,-942.53864)">
    <rect
       id="rect4304"
       style="opacity:1;fill:#ca5c5c;fill-opacity:0"
       width="4.2329998"
       height="4.2329998"
       x="13.76"
       y="249.38" />
    <path
       id="path4382"
       style="opacity:1;fill:#7a7a7c;fill-opacity:1;stroke:none"
       d="m 62,1 -3,4 h 6 C 65,5.041575 62,1 62,1 Z m 3,4 v 6 c -0.04157,0 4,-3 4,-3 z m 0,6 h -6 l 3,4 c 0,0 3,-4.041575 3,-4 z m -6,0 V 5 l -4,3 c 0,0 4.041575,3 4,3 z m 3,-5 a 2,2 0 0 0 -2,2 2,2 0 0 0 2,2 2,2 0 0 0 2,-2 2,2 0 0 0 -2,-2 z"
       transform="matrix(0.26458333,0,0,0.26458333,-0.52916771,249.37493)"
       inkscape:connector-curvature="0" />
  </g>
  <g
     id="size-diagonal-tl2br"
     transform="matrix(3.7795277,0,0,3.7795277,2.0031496,-942.53864)">
    <rect
       id="rect4389"
       style="opacity:1;fill:#ca5c5c;fill-opacity:0"
       width="4.2329998"
       height="4.2329998"
       x="-0.52999997"
       y="254.14" />
    <g
       id="g4424"
       style="enable-background:new"
       transform="matrix(0.26458333,0,0,0.26458333,-0.52906453,254.13655)">
      <g
         id="layer12-0"
         style="display:inline"
         transform="translate(-265.00059,79.003339)">
        <path
           id="path10424"
           style="color:#bebebe;opacity:1;fill:#7a7a7c;fill-opacity:1;stroke:none"
           d="m 2,20 c -1.00000002,0 -1,1 -1,1 v 4 H 3 V 23.457031 L 6.2421875,26.699219 7.65625,25.285156 4.3710938,22 H 6 v -2 z m 8,0 v 2 h 3 v 3 h 2 v -4 c 0,-1 -1,-1 -1,-1 z m -9,7 v 4 c 0,1 1,1 1,1 H 6 V 30 H 3 v -3 z m 12,0 v 3 h -3 v 2 h 4 c 0,0 1,0 1,-1 v -4 z"
           transform="translate(265.0002,-97.000013)"
           inkscape:connector-curvature="0" />
      </g>
    </g>
  </g>
  <g
     id="maximize"
     transform="matrix(3.7795277,0,0,3.7795277,2.0031496,-942.53864)">
    <rect
       id="rect4412"
       style="opacity:1;fill:#ca5c5c;fill-opacity:0"
       width="4.2329998"
       height="4.2329998"
       x="4.23"
       y="254.14" />
    <g
       id="g4434"
       style="enable-background:new"
       transform="matrix(-0.26458333,0,0,0.26458333,8.4665622,254.13655)">
      <g
         id="g4436"
         style="display:inline"
         transform="translate(-265.00059,79.003339)">
        <path
           id="path4438"
           style="color:#bebebe;opacity:1;fill:#7a7a7c;fill-opacity:1;stroke:none"
           d="m 20,20 c -1,0 -1,1 -1,1 v 4 h 2 V 23.457031 L 24.242188,26.699219 25.65625,25.285156 22.371094,22 H 24 v -2 z m 8,0 v 2 h 3 v 3 h 2 v -4 c 0,-1 -1,-1 -1,-1 z m -9,7 v 4 c 0,1 1,1 1,1 h 4 v -2 h -3 v -3 z m 12,0 v 3 h -3 v 2 h 4 c 0,0 1,0 1,-1 v -4 z"
           transform="translate(247.0002,-97.000013)"
           inkscape:connector-curvature="0" />
      </g>
    </g>
  </g>
  <g
     id="unmaximize"
     transform="matrix(3.7795277,0,0,3.7795277,2.0031496,-942.53864)">
    <rect
       id="rect4410"
       style="opacity:1;fill:#ca5c5c;fill-opacity:0"
       width="4.2329998"
       height="4.2329998"
       x="9"
       y="254.14" />
    <path
       id="path4762"
       style="color:#bebebe;opacity:1;fill:#7a7a7c;fill-opacity:1;stroke:none"
       d="m 9.5249988,254.6666 c 0,0 -0.2645833,0 -0.2645833,0.26458 v 1.05833 h 0.5291667 v -0.79375 h 0.7937498 v -0.52916 z"
       inkscape:connector-curvature="0" />
    <path
       id="path4760"
       style="color:#bebebe;opacity:1;fill:#7a7a7c;fill-opacity:1;stroke:none"
       d="m 12.234911,254.74618 -0.857829,0.85783 v -0.40825 h -0.529167 v 1.05833 c 0,0 10e-7,0.26459 0.264584,0.26459 h 1.058333 v -0.52917 h -0.430981 l 0.869197,-0.8692 z"
       inkscape:connector-curvature="0" />
    <path
       id="path4758"
       style="color:#bebebe;opacity:1;fill:#7a7a7c;fill-opacity:1;stroke:none"
       d="m 9.2604155,256.51868 v 1.05833 c 0,0.26458 0.2645833,0.26459 0.2645833,0.26459 h 1.0583332 v -0.52917 H 9.7895822 v -0.79375 z"
       inkscape:connector-curvature="0" />
    <path
       id="path4478"
       style="color:#bebebe;opacity:1;fill:#7a7a7c;fill-opacity:1;stroke:none"
       d="m 12.435415,256.51868 v 0.79375 h -0.79375 v 0.52917 h 1.058334 c 0,0 0.264583,-1e-5 0.264583,-0.26459 v -1.05833 z"
       inkscape:connector-curvature="0" />
  </g>
  <g
     id="size-diagonal-tr2bl"
     transform="matrix(3.7795277,0,0,3.7795277,2.0031496,-942.53864)">
    <rect
       id="rect4311"
       style="opacity:1;fill:#ca5c5c;fill-opacity:0"
       width="4.2329998"
       height="4.2329998"
       x="28.049999"
       y="249.38" />
    <g
       id="g4489"
       style="enable-background:new"
       transform="matrix(-0.26458333,0,0,0.26458333,32.279062,249.37405)">
      <g
         id="g4491"
         style="display:inline"
         transform="translate(-265.00059,79.003339)">
        <path
           id="path4501"
           style="color:#bebebe;opacity:1;fill:#7a7a7c;fill-opacity:1;stroke:none"
           d="m 110,2 c 0,0 -1,0 -1,1 v 4 h 2 V 4 h 3 V 2 Z m 8,0 v 2 h 1.62891 l -3.28516,3.2851562 1.41406,1.4140626 L 121,5.4570312 V 7 h 2 V 3 c 0,0 0,-1 -1,-1 z M 114.24219,7.3007812 111,10.542969 V 9 h -2 v 4 c 0,0 0,1 1,1 h 4 v -2 h -1.62891 l 3.28516,-3.2851562 z M 121,9 v 3 h -3 v 2 h 4 c 0,0 1,0 1,-1 V 9 Z"
           transform="matrix(-0.99999998,0,0,0.99999998,389.0002,-79.000013)"
           inkscape:connector-curvature="0" />
      </g>
    </g>
  </g>
  <g
     id="status"
     transform="matrix(3.7795277,0,0,3.7795277,2.0031496,-942.53864)">
    <rect
       id="rect4408"
       style="opacity:1;fill:#ca5c5c;fill-opacity:0"
       width="4.2329998"
       height="4.2329998"
       x="13.76"
       y="254.14" />
    <g
       id="g4532"
       style="enable-background:new"
       transform="matrix(0.26458333,0,0,0.26458333,13.750344,254.00514)">
      <g
         id="layer12-1"
         style="display:inline"
         transform="translate(-345.00021,-61)">
        <path
           id="path8741"
           style="color:#000000;font-style:normal;font-variant:normal;font-weight:normal;font-stretch:normal;font-size:medium;line-height:normal;font-family:Sans;-inkscape-font-specification:Sans;text-indent:0;text-align:start;text-decoration:none;text-decoration-line:none;letter-spacing:normal;word-spacing:normal;text-transform:none;writing-mode:lr-tb;direction:ltr;baseline-shift:baseline;text-anchor:start;display:inline;overflow:visible;visibility:visible;opacity:1;fill:#7a7a7c;fill-opacity:1;stroke:none;stroke-width:2;marker:none;enable-background:accumulate"
           d="m 357.84395,64.03125 c -0.21888,0.0473 -0.42059,0.17053 -0.5625,0.34375 l -6.28125,7.1875 -2.25,-2.25 c -0.37633,-0.37638 -1.06119,-0.3764 -1.43755,-5e-5 -0.37635,0.37636 -0.37633,1.06122 5e-5,1.43755 l 3,3 0.78125,0.75 0.6875,-0.8125 7,-8 c 0.56742,-0.61773 -0.11583,-1.8248 -0.9375,-1.65625 z"
           inkscape:connector-curvature="0" />
      </g>
    </g>
  </g>
  <g
     id="collapse"
     transform="matrix(3.7795277,0,0,3.7795277,2.0031496,-942.53864)">
    <rect
       id="rect4404"
       style="opacity:1;fill:#ca5c5c;fill-opacity:0"
       width="4.2329998"
       height="4.2329998"
       x="23.280001"
       y="254.14" />
    <path
       id="path4542"
       style="opacity:1;fill:#7a7a7c;fill-opacity:1;stroke:none"
       d="m 95,19 3,4 c 0,0 3,-4.041575 3,-4 z m -4,6 v 2 h 14 v -2 z m 7,4 -3,4 h 6 c 0,0.04158 -3,-4 -3,-4 z"
       transform="matrix(0.26458333,0,0,0.26458333,-0.52916771,249.37493)"
       inkscape:connector-curvature="0" />
  </g>
  <g
     id="restore"
     transform="matrix(3.7795277,0,0,3.7795277,2.0031496,-942.53864)">
    <rect
       id="rect4401"
       style="opacity:1;fill:#ca5c5c;fill-opacity:0"
       width="4.2329998"
       height="4.2329998"
       x="28.049999"
       y="254.14" />
    <path
       id="path4546"
       style="opacity:1;fill:#7a7a7c;fill-opacity:1;stroke:none"
       d="m 116,19 -3,4 h 6 c 0,0.04158 -3,-4 -3,-4 z m -7,6 v 2 h 14 v -2 z m 4,4 3,4 c 0,0 3,-4.041575 3,-4 z"
       transform="matrix(0.26458333,0,0,0.26458333,-0.52916771,249.37493)"
       inkscape:connector-curvature="0" />
  </g>
  <g
     id="help"
     transform="matrix(3.7795277,0,0,3.7795277,2.0031496,-942.53864)">
    <rect
       id="rect4581"
       style="opacity:1;fill:#ca5c5c;fill-opacity:0"
       width="4.2329998"
       height="4.2329998"
       x="-0.52999997"
       y="258.89999" />
    <g
       id="layer2-9"
       style="display:inline"
       transform="matrix(0.26458333,0,0,0.26458333,-118.00412,149.89071)">
      <path
         id="path4-7-8"
         style="display:inline;opacity:1;fill:#7a7a7c;fill-opacity:1;stroke:none;enable-background:new"
         d="m 452.99983,427.00336 h -2 v -2 h 2 z m 2.07,-7.75 -0.9,0.92 c -0.72,0.73 -1.17,1.33 -1.17,2.83 h -2 v -0.5 c 0,-1.1 0.45,-2.1 1.17,-2.83 l 1.24,-1.26 c 0.37,-0.36 0.59,-0.86 0.59,-1.41 0,-1.1 -0.9,-2 -2,-2 -1.1,0 -2,0.9 -2,2 h -2 c 0,-2.21 1.79,-4 4,-4 2.21,0 4,1.79 4,4 0,0.88 -0.36,1.68 -0.93,2.25 z"
         inkscape:connector-curvature="0" />
    </g>
  </g>
  <g
     id="delete"
     transform="matrix(3.7795277,0,0,3.7795277,2.0031496,-942.53864)">
    <rect
       id="rect4579"
       style="opacity:1;fill:#ca5c5c;fill-opacity:0"
       width="4.2329998"
       height="4.2329998"
       x="4.23"
       y="258.89999" />
    <g
       id="g4697"
       style="enable-background:new"
       transform="matrix(0.26458333,0,0,0.26458333,4.233393,258.90089)">
      <g
         id="layer12-2"
         style="display:inline"
         transform="translate(-385.00043,78.996356)">
        <path
           id="path8476-3"
           style="color:#000000;font-style:normal;font-variant:normal;font-weight:normal;font-stretch:normal;font-size:medium;line-height:normal;font-family:Sans;-inkscape-font-specification:Sans;text-indent:0;text-align:start;text-decoration:none;text-decoration-line:none;letter-spacing:normal;word-spacing:normal;text-transform:none;writing-mode:lr-tb;direction:ltr;baseline-shift:baseline;text-anchor:start;display:inline;overflow:visible;visibility:visible;opacity:1;fill:#da4453;fill-opacity:1;stroke:none;stroke-width:2;marker:none;enable-background:accumulate"
           d="m 387.0002,-74 v 9 c 5e-5,0.52358 0.47642,0.99995 1,1 h 8 1 c 0.52358,-5e-5 0.99995,-0.47642 1,-1 v -9 z"
           inkscape:connector-curvature="0" />
        <path
           id="path8478-1"
           style="color:#000000;font-style:normal;font-variant:normal;font-weight:normal;font-stretch:normal;font-size:medium;line-height:normal;font-family:Sans;-inkscape-font-specification:Sans;text-indent:0;text-align:start;text-decoration:none;text-decoration-line:none;letter-spacing:normal;word-spacing:normal;text-transform:none;writing-mode:lr-tb;direction:ltr;baseline-shift:baseline;text-anchor:start;display:inline;overflow:visible;visibility:visible;opacity:1;fill:#da4453;fill-opacity:1;stroke:none;stroke-width:2;marker:none;enable-background:accumulate"
           d="m 386.0002,-76 v 1 l 13.0002,-0.0034 -2e-4,-0.99664 c 0,-1 -0.9998,-1.00336 -0.9998,-1.00336 h -3 c 0,0 0,-1 -1,-1 h -3 c -1,0 -1,1 -1,1 h -3 c 0,0 -1.0002,0.003 -1.0002,1.00336 z"
           inkscape:connector-curvature="0" />
      </g>
    </g>
  </g>
  <g
     transform="translate(-39.99685,-20.019136)"
     id="menu">
    <rect
       id="rect4248"
       style="opacity:0.00100002;fill:#000000;fill-opacity:1"
       width="15.999"
       height="15.999"
       x="40"
       y="20.02" />
    <path
       id="path4312"
       style="opacity:1;fill:#7a7a7c;fill-opacity:1;fill-rule:nonzero;stroke:none;stroke-width:2;stroke-linecap:round;stroke-linejoin:round;stroke-miterlimit:4;stroke-dasharray:none;stroke-opacity:1"
       d="m 48,21 a 2,2 0 0 0 -2,2 2,2 0 0 0 2,2 2,2 0 0 0 2,-2 2,2 0 0 0 -2,-2 z m 0,5 a 2,2 0 0 0 -2,2 2,2 0 0 0 2,2 2,2 0 0 0 2,-2 2,2 0 0 0 -2,-2 z m 0,5 a 2,2 0 0 0 -2,2 2,2 0 0 0 2,2 2,2 0 0 0 2,-2 2,2 0 0 0 -2,-2 z"
       inkscape:connector-curvature="0" />
  </g>
  <g
     transform="translate(-39.99685,-20.019136)"
     id="close">
    <rect
       id="rect3925"
       style="opacity:0.00100002;fill:#000000;fill-opacity:1;stroke:none"
       width="16"
       height="16"
       x="130"
       y="55.990002" />
    <g
       id="layer12-3"
       style="fill:#000000;fill-opacity:1;enable-background:new"
       transform="matrix(1.4994104,0,0,1.4999561,36.042451,-724.97673)">
      <g
         id="layer4-4-1"
         style="display:inline;fill:#000000;fill-opacity:1"
         transform="translate(19,-242)">
        <path
           id="path10839-9"
           style="color:#bebebe;font-style:normal;font-variant:normal;font-weight:normal;font-stretch:normal;font-size:medium;line-height:normal;font-family:'Andale Mono';-inkscape-font-specification:'Andale Mono';text-indent:0;text-align:start;text-decoration:none;text-decoration-line:none;letter-spacing:normal;word-spacing:normal;text-transform:none;writing-mode:lr-tb;direction:ltr;text-anchor:start;display:inline;overflow:visible;visibility:visible;fill:#da4453;fill-opacity:1;fill-rule:nonzero;stroke:none;stroke-width:1.78125;marker:none;enable-background:new"
           d="m 45,764 h 1 c 0.01037,-1.2e-4 0.02079,-4.6e-4 0.03125,0 0.254951,0.0112 0.50987,0.12858 0.6875,0.3125 L 49,766.59375 51.3125,764.3125 C 51.578125,764.082 51.759172,764.007 52,764 h 1 v 1 c 0,0.28647 -0.03434,0.55065 -0.25,0.75 l -2.28125,2.28125 2.25,2.25 C 52.906938,770.46942 52.999992,770.7347 53,771 v 1 h -1 c -0.265301,-10e-6 -0.530586,-0.0931 -0.71875,-0.28125 L 49,769.4375 46.71875,771.71875 C 46.530586,771.90694 46.26529,772 46,772 h -1 v -1 c -3e-6,-0.26529 0.09306,-0.53058 0.28125,-0.71875 l 2.28125,-2.25 L 45.28125,765.75 C 45.070508,765.55537 44.97809,765.28075 45,765 Z"
           inkscape:connector-curvature="0" />
      </g>
    </g>
  </g>
</svg>
