<svg width="128" height="128" version="1.1" viewBox="0 0 128 128" xmlns="http://www.w3.org/2000/svg">
 <g id="kde-logo" transform="translate(0,96)">
  <rect y="-96" width="128" height="128" style="opacity:.00100002;stroke-width:4"/>
  <g transform="matrix(4.9230769,0,0,4.9230769,-14.76923,-110.76923)">
   <path d="m18.398593 3.999995-4.79953 0.7207962v17.224703l4.79953-1.278832v-6.654577l4.799532 7.845054 4.799532-1.785714-5.999414-7.142859 6.001757-7.7357694-4.656577-1.1928014-4.94483 7.8078498zm-9.7724821 4.6712242c-0.1134986 0-0.227 0.043858-0.3140322 0.1302083l-1.8865343 1.8717445c-0.174064 0.1727-0.1321596 0.419414 0 0.625465l1.9521522 3.041297c-0.1446355 0.297881-0.2698798 0.604653-0.3749625 0.918432-0.00459 0.0135-0.011861 0.02599-0.016406 0.03953l-3.54106 0.78125c-0.2403 0.052988-0.4452681 0.197544-0.4452681 0.441775v2.339102c0 0.24423 0.2049681 0.388796 0.4452691 0.441777l3.5410604 0.781251c0.00774 0.0231 0.020141 0.04442 0.028122 0.06744 0.1022831 0.304813 0.2236001 0.603009 0.3632458 0.892857l-1.9521532 3.038971c-0.1321597 0.206051-0.174064 0.452767 0 0.625464l1.8865325 1.871747c0.1740654 0.172698 0.4539982 0.172698 0.6280654 0l3.060638-1.934527c0.300882 0.145178 0.610867 0.270995 0.928034 0.376675 0.02082 0.0072 0.04007 0.0185 0.06093 0.02557l0.785077 3.510974c0 0.244233 0.199108 0.441778 0.44527 0.441778h2.664582c0.246163 0 0.391871-0.203361 0.44527-0.441778l0.78508-3.617932c0.360689-0.134537 0.710832-0.295415 1.047553-0.481305l2.987989 2.120535c0.174066 0.172698 0.454002 0.172698 0.628064 0l1.886535-1.871745c0.174064-0.172699 0.132159-0.419414 0-0.625465l-1.136608-1.71131-0.119519 0.04418c-0.270276 0.100724-0.574536-0.0039-0.724148-0.24879l-1.195193-1.953125c-0.995827 2.363328-3.347593 4.024833-6.090811 4.024833-3.644725 0-6.5993575-2.93147-6.5993575-6.547619 0-2.774906 1.7431895-5.140893 4.1995905-6.094216v-1.304416l-0.0094 0.04186c-0.02651 0.0089-0.05094 0.0233-0.07733 0.03254-0.312958 0.103119-0.619013 0.225818-0.916317 0.367373l-3.0559278-1.9321925c-0.087035-0.0863494-0.2005327-0.1302083-0.3140323-0.1302083z" style="fill:#000000;opacity:.2;stroke-width:1.1951703"/>
   <path d="m18.398593 3-4.79953 0.7207962v17.224703l4.79953-1.278832v-6.654577l4.799532 7.845054 4.799532-1.785714-5.999414-7.142859 6.001757-7.7357694-4.656577-1.1928014-4.94483 7.8078498zm-9.7724821 4.6712242c-0.1134986 0-0.227 0.043858-0.3140322 0.1302083l-1.8865343 1.8717445c-0.174064 0.1727-0.1321596 0.419414 0 0.625465l1.9521522 3.041297c-0.1446355 0.297881-0.2698798 0.604653-0.3749625 0.918432-0.00459 0.0135-0.011861 0.02599-0.016406 0.03953l-3.54106 0.78125c-0.2403 0.052988-0.4452681 0.197544-0.4452681 0.441775v2.339102c0 0.24423 0.2049681 0.388796 0.4452691 0.441777l3.5410604 0.781251c0.00774 0.0231 0.020141 0.04442 0.028122 0.06744 0.1022831 0.304813 0.2236001 0.603009 0.3632458 0.892857l-1.9521532 3.038971c-0.1321597 0.206051-0.174064 0.452767 0 0.625464l1.8865325 1.871747c0.1740654 0.172698 0.4539982 0.172698 0.6280654 0l3.060638-1.934527c0.300882 0.145178 0.610867 0.270995 0.928034 0.376675 0.02082 0.0072 0.04007 0.0185 0.06093 0.02557l0.785077 3.510974c0 0.244233 0.199108 0.441778 0.44527 0.441778h2.664582c0.246163 0 0.391871-0.203361 0.44527-0.441778l0.78508-3.617932c0.360689-0.134537 0.710832-0.295415 1.047553-0.481305l2.987989 2.120535c0.174066 0.172698 0.454002 0.172698 0.628064 0l1.886535-1.871745c0.174064-0.172699 0.132159-0.419414 0-0.625465l-1.136608-1.71131-0.119519 0.04418c-0.270276 0.100724-0.574536-0.0039-0.724148-0.24879l-1.195193-1.953125c-0.995827 2.363328-3.347593 4.024833-6.090811 4.024833-3.644725 0-6.5993575-2.93147-6.5993575-6.547619 0-2.774906 1.7431895-5.140893 4.1995905-6.094216v-1.304416l-0.0094 0.04186c-0.02651 0.0089-0.05094 0.0233-0.07733 0.03254-0.312958 0.103119-0.619013 0.225818-0.916317 0.367373l-3.0559278-1.9321925c-0.087035-0.0863494-0.2005327-0.1302083-0.3140323-0.1302083z" style="fill:#aaaaac;stroke-width:1.1951703"/>
  </g>
 </g>
</svg>
