<svg id="svg825" width="32" height="32" version="1.1" viewBox="0 0 32 32.000001" xmlns="http://www.w3.org/2000/svg">
 <path id="kde-logo" d="m18.654645 2.9090914e-6 -5.621624 0.511363v21.909109l5.561566-0.795456v-9.340915l7.483489 10.363644 5.861863-1.761365-7.663667-9.965916 7.723728-9.3977351-5.981982-1.2954562-7.423431 9.3977355 0.060043-9.6250083zm-12.744753 5.3409144c-0.063564 0.00611-0.1323055 0.022691-0.1801891 0.068189l-2.2102143 2.0909125c-0.092829 0.088087-0.1041745 0.2229237-0.036014 0.3295448l2.5825837 4.0340924c-0.4585717 0.729266-0.830947 1.511549-1.093094 2.340905l-4.7447456 0.93182c-0.13204416 0.025891-0.22821872 0.144727-0.22821872 0.272727v2.954549c0 0.124917 0.10042184 0.231913 0.22821822 0.261353l4.600606 1.05682c0.2459927 0.960178 0.6260713 1.879009 1.1291318 2.715908l-2.6666681 3.84092c-0.074385 0.107258-0.059869 0.250356 0.036015 0.340908l2.2102084 2.090912c0.09312 0.08783 0.2359273 0.09882 0.3483521 0.03407l4.1801926-2.397731c0.819889 0.447814 1.707535 0.806543 2.642642 1.045455l0.972974 4.43182c0.027346 0.12529 0.141062 0.215908 0.276277 0.215908h3.123125c0.131083 0 0.245149-0.08326 0.276276-0.204538l1.153149-4.454549c0.964417-0.245993 1.873688-0.611189 2.714718-1.079547l4.12012 2.556818c0.113571 0.06999 0.264087 0.05644 0.360364-0.03406l2.198199-2.090918c0.09341-0.08817 0.116451-0.223185 0.04806-0.329542l-1.501505-2.340916-0.492494 0.147723c-0.0711 0.02066-0.149906-0.0096-0.192204-0.06819 0 0-0.948477-1.319921-2.186185-3.034095-1.480259 2.740169-4.499056 4.613645-7.975984 4.613645-4.940659 0-8.9489531-3.791943-8.9489531-8.465919 0-3.438072 2.1732281-6.391015 5.2852871-7.7159171v-2.1818176c-0.566386 0.1875492-1.113566 0.4138183-1.633633 0.6818183-6.54e-4 -3.898e-4 0.0011-0.010764 0-0.011345l-4.2162137-2.6136969c-0.0566982-0.0350836-0.1166255-0.0402909-0.1801891-0.0340655z" style="fill:#aaaaac;stroke-width:2.9090915"/>
</svg>
