<?xml version="1.0" encoding="UTF-8" standalone="no"?>
<!-- Created with Inkscape (http://www.inkscape.org/) -->

<svg
   xmlns:dc="http://purl.org/dc/elements/1.1/"
   xmlns:cc="http://creativecommons.org/ns#"
   xmlns:rdf="http://www.w3.org/1999/02/22-rdf-syntax-ns#"
   xmlns:svg="http://www.w3.org/2000/svg"
   xmlns="http://www.w3.org/2000/svg"
   xmlns:sodipodi="http://sodipodi.sourceforge.net/DTD/sodipodi-0.dtd"
   xmlns:inkscape="http://www.inkscape.org/namespaces/inkscape"
   width="36"
   height="16"
   viewBox="0 0 36 16.000001"
   version="1.1"
   id="svg837"
   inkscape:version="0.92.2 2405546, 2018-03-11"
   sodipodi:docname="checkmarks.svg">
  <defs
     id="defs831" />
  <sodipodi:namedview
     id="base"
     pagecolor="#1e1e20"
     bordercolor="#666666"
     borderopacity="1.0"
     inkscape:pageopacity="1"
     inkscape:pageshadow="2"
     inkscape:zoom="54.305556"
     inkscape:cx="18"
     inkscape:cy="8.0000467"
     inkscape:document-units="px"
     inkscape:current-layer="layer1"
     showgrid="false"
     units="px"
     inkscape:pagecheckerboard="true"
     inkscape:snap-object-midpoints="true"
     fit-margin-top="0"
     fit-margin-left="0"
     fit-margin-right="0"
     fit-margin-bottom="0"
     inkscape:window-width="2514"
     inkscape:window-height="1413"
     inkscape:window-x="46"
     inkscape:window-y="27"
     inkscape:window-maximized="1">
    <inkscape:grid
       type="xygrid"
       id="grid1385"
       originx="0"
       originy="-4.0000469" />
  </sodipodi:namedview>
  <metadata
     id="metadata834">
    <rdf:RDF>
      <cc:Work
         rdf:about="">
        <dc:format>image/svg+xml</dc:format>
        <dc:type
           rdf:resource="http://purl.org/dc/dcmitype/StillImage" />
        <dc:title></dc:title>
      </cc:Work>
    </rdf:RDF>
  </metadata>
  <g
     inkscape:label="checkmarks"
     inkscape:groupmode="layer"
     id="layer1"
     transform="translate(0,-1102.5197)">
    <g
       id="radiobutton"
       inkscape:label="#radiobutton">
      <circle
         r="8"
         inkscape:label="#path1387"
         cy="1110.5197"
         cx="8"
         id="path1387"
         style="opacity:0;fill:#000000;fill-opacity:1;stroke:none;stroke-width:1.60000002" />
      <circle
         r="7"
         inkscape:label="#path1387"
         cy="1110.5197"
         cx="8"
         id="path1387-3"
         style="opacity:1;fill:#6e6e70;fill-opacity:1;stroke:none;stroke-width:1.39999998" />
      <circle
         inkscape:label="#path1387"
         cy="1110.5197"
         cx="8"
         id="path1387-3-6"
         style="opacity:1;fill:#1e1e20;fill-opacity:1;stroke:none;stroke-width:1.20000005"
         r="6" />
      <circle
         inkscape:label="#path1387"
         cy="1110.5197"
         cx="8"
         id="path1387-3-6-7"
         style="opacity:1;fill:#6e6e70;fill-opacity:1;stroke:none;stroke-width:0.80000001"
         r="4" />
    </g>
    <g
       id="checkbox"
       inkscape:label="#checkbox">
      <rect
         ry="1.0000468"
         inkscape:label="#rect1389"
         y="1102.5197"
         x="20"
         height="16"
         width="16"
         id="rect1389"
         style="opacity:1;fill:#6e6e70;fill-opacity:1;stroke:none;stroke-width:1.0666666" />
      <path
         id="rect2910"
         d="m 32.783637,1105.8003 c -0.337258,0.011 -0.691713,0.1536 -0.956726,0.4185 l -5.740355,5.7404 -1.913451,-1.9134 c -0.530026,-0.5301 -1.349982,-0.5635 -1.853655,-0.06 l -0.119591,0.1196 c -0.503673,0.5036 -0.470231,1.3235 0.05979,1.8536 l 2.660893,2.631 c 0.04659,0.072 0.08653,0.1165 0.149489,0.1794 l 0.05979,0.06 0.05979,0.06 c 0.04791,0.044 0.09781,0.085 0.149489,0.1195 0.01272,0.011 0.01692,0.022 0.0299,0.03 0.06416,0.042 0.141106,0.06 0.209285,0.089 0.05967,0.024 0.116906,0.045 0.179385,0.059 0.02157,0.012 0.03807,0.025 0.05979,0.03 0.165282,0.031 0.340191,0.033 0.508261,0 0.03161,-0.011 0.05857,-0.022 0.0897,-0.03 0.22706,-0.061 0.446334,-0.1773 0.627851,-0.3587 l 0.05979,-0.06 c 0.06296,-0.063 0.102901,-0.1075 0.149488,-0.1794 l 6.487797,-6.4579 c 0.530026,-0.5299 0.563468,-1.3499 0.05979,-1.8537 l -0.11959,-0.1195 c -0.251838,-0.2518 -0.559672,-0.3674 -0.89693,-0.3589 z"
         style="opacity:1;fill:#1e1e20;fill-opacity:1;fill-rule:nonzero;stroke:none;stroke-width:0.95672566"
         inkscape:connector-curvature="0" />
    </g>
  </g>
</svg>
