<?xml version="1.0" encoding="UTF-8" standalone="no"?>
<!-- Created with Inkscape (http://www.inkscape.org/) -->

<svg
   xmlns:dc="http://purl.org/dc/elements/1.1/"
   xmlns:cc="http://creativecommons.org/ns#"
   xmlns:rdf="http://www.w3.org/1999/02/22-rdf-syntax-ns#"
   xmlns:svg="http://www.w3.org/2000/svg"
   xmlns="http://www.w3.org/2000/svg"
   xmlns:sodipodi="http://sodipodi.sourceforge.net/DTD/sodipodi-0.dtd"
   xmlns:inkscape="http://www.inkscape.org/namespaces/inkscape"
   width="74"
   height="103"
   viewBox="0 0 74 103"
   version="1.1"
   id="svg8"
   inkscape:version="0.92.2 2405546, 2018-03-11"
   sodipodi:docname="lineedit.svg">
  <sodipodi:namedview
     id="base"
     pagecolor="#1e1e20"
     bordercolor="#666666"
     borderopacity="1.0"
     inkscape:pageopacity="0"
     inkscape:pageshadow="2"
     inkscape:zoom="12.058253"
     inkscape:cx="37"
     inkscape:cy="51.499998"
     inkscape:document-units="px"
     inkscape:current-layer="layer2"
     showgrid="false"
     units="px"
     inkscape:pagecheckerboard="true"
     inkscape:window-width="2514"
     inkscape:window-height="1413"
     inkscape:window-x="46"
     inkscape:window-y="27"
     inkscape:window-maximized="1"
     fit-margin-top="0"
     fit-margin-left="0"
     fit-margin-right="0"
     fit-margin-bottom="0">
    <inkscape:grid
       originy="-192.00001"
       originx="-5"
       type="xygrid"
       id="grid815" />
  </sodipodi:namedview>
  <defs
     id="defs2" />
  <metadata
     id="metadata5">
    <rdf:RDF>
      <cc:Work
         rdf:about="">
        <dc:format>image/svg+xml</dc:format>
        <dc:type
           rdf:resource="http://purl.org/dc/dcmitype/StillImage" />
        <dc:title></dc:title>
      </cc:Work>
    </rdf:RDF>
  </metadata>
  <g
     transform="translate(-5,-5.0000033)"
     inkscape:groupmode="layer"
     id="layer4"
     inkscape:label="hover">
    <rect
       style="opacity:0.6;fill:#1e1e20;fill-opacity:1;stroke:none;stroke-width:1.53093112"
       id="hover-center"
       width="60"
       height="20"
       x="15"
       y="85" />
    <g
       id="hover-top">
      <rect
         y="84"
         x="15"
         height="1"
         width="60"
         id="rect826-5-1"
         style="opacity:0.6;fill:#1e1e20;fill-opacity:1;stroke:none" />
      <rect
         y="83"
         x="15"
         height="1"
         width="60"
         id="rect840-6-2"
         style="opacity:0.18000004;fill:#ffffff;fill-opacity:1;stroke:none;stroke-width:0.99176943" />
      <rect
         y="82"
         x="15"
         height="1"
         width="60"
         id="rect864-2-9"
         style="opacity:0;fill:#1a1a1a;fill-opacity:1;stroke:none" />
    </g>
    <g
       id="hover-bottom">
      <rect
         y="105"
         x="15"
         height="1"
         width="60"
         id="rect830-1-1"
         style="opacity:0.6;fill:#1e1e20;fill-opacity:1;stroke:none" />
      <rect
         y="106"
         x="15"
         height="1"
         width="60"
         id="rect842-2-9"
         style="opacity:0.18000004;fill:#ffffff;fill-opacity:1;stroke:none" />
      <rect
         y="107"
         x="15"
         height="1"
         width="60"
         id="rect866-7-4"
         style="opacity:0;fill:#1a1a1a;fill-opacity:1;stroke:none" />
    </g>
    <g
       inkscape:label="#hover-left"
       id="hover-left">
      <rect
         y="85"
         x="14"
         height="20"
         width="1"
         id="rect824-9-8"
         style="opacity:0.6;fill:#1e1e20;fill-opacity:1;stroke:none" />
      <rect
         y="85"
         x="13"
         height="20"
         width="1"
         id="rect844-3-4"
         style="opacity:0.18000004;fill:#ffffff;fill-opacity:1;stroke:none;stroke-width:0.97590005" />
      <rect
         y="85"
         x="12"
         height="20"
         width="1"
         id="rect868-6-5"
         style="opacity:0;fill:#1a1a1a;fill-opacity:1;stroke:none" />
    </g>
    <g
       id="hover-right">
      <rect
         y="85"
         x="75"
         height="20"
         width="1"
         id="rect828-6-3"
         style="opacity:0.6;fill:#1e1e20;fill-opacity:1;stroke:none" />
      <rect
         y="85"
         x="76"
         height="20"
         width="1"
         id="rect846-2-6"
         style="opacity:0.18000004;fill:#ffffff;fill-opacity:1;stroke:none;stroke-width:0.9534626" />
      <rect
         y="85"
         x="77"
         height="20"
         width="1"
         id="rect870-6-1"
         style="opacity:0;fill:#1a1a1a;fill-opacity:1;stroke:none;stroke-width:0.9534626" />
    </g>
    <g
       inkscape:label="#hover-topleft"
       id="hover-topleft">
      <rect
         style="opacity:0;fill:#000000;fill-opacity:1;stroke:none"
         id="rect2204-9"
         width="3"
         height="3"
         x="12"
         y="82" />
      <path
         style="opacity:0.18000004;fill:#ffffff;fill-opacity:1;stroke:none"
         d="m 15,83 c -1.108,0 -2,0.892 -2,2 h 2 z"
         id="rect2086-2"
         inkscape:connector-curvature="0" />
      <path
         style="opacity:0.6;fill:#1e1e20;fill-opacity:1;stroke:none"
         d="m 15,84 c -0.554,0 -1,0.446 -1,1 h 1 z"
         id="rect2097-6"
         inkscape:connector-curvature="0" />
    </g>
    <g
       id="hover-topright">
      <rect
         style="opacity:0;fill:#000000;fill-opacity:1;stroke:none"
         id="rect2204-9-6"
         width="3"
         height="3"
         x="82"
         y="-78"
         transform="rotate(90)" />
      <path
         style="opacity:0.18000004;fill:#ffffff;fill-opacity:1;stroke:none"
         d="m 77,85 c 0,-1.108 -0.892,-2 -2,-2 v 2 z"
         id="rect2086-2-4"
         inkscape:connector-curvature="0" />
      <path
         style="opacity:0.6;fill:#1e1e20;fill-opacity:1;stroke:none"
         d="m 76,85 c 0,-0.554 -0.446,-1 -1,-1 v 1 z"
         id="rect2097-6-9"
         inkscape:connector-curvature="0" />
    </g>
    <g
       id="hover-bottomright">
      <rect
         style="opacity:0;fill:#000000;fill-opacity:1;stroke:none"
         id="rect2204-9-6-5"
         width="3"
         height="3"
         x="-78"
         y="-108"
         transform="scale(-1)" />
      <path
         style="opacity:0.18000004;fill:#ffffff;fill-opacity:1;stroke:none"
         d="m 75,107 c 1.108,0 2,-0.892 2,-2 h -2 z"
         id="rect2086-2-4-0"
         inkscape:connector-curvature="0" />
      <path
         style="opacity:0.6;fill:#1e1e20;fill-opacity:1;stroke:none"
         d="m 75,106 c 0.554,0 1,-0.446 1,-1 h -1 z"
         id="rect2097-6-9-4"
         inkscape:connector-curvature="0" />
    </g>
    <g
       inkscape:label="#hover-bottomleft"
       id="hover-bottomleft">
      <rect
         style="opacity:0;fill:#000000;fill-opacity:1;stroke:none"
         id="rect2204-9-6-5-8"
         width="3"
         height="3"
         x="-108"
         y="12"
         transform="rotate(-90)" />
      <path
         style="opacity:0.18000004;fill:#ffffff;fill-opacity:1;stroke:none"
         d="m 13,105 c 0,1.108 0.892,2 2,2 v -2 z"
         id="rect2086-2-4-0-7"
         inkscape:connector-curvature="0" />
      <path
         style="opacity:0.6;fill:#1e1e20;fill-opacity:1;stroke:none"
         d="m 14,105 c 0,0.554 0.446,1 1,1 v -1 z"
         id="rect2097-6-9-4-1"
         inkscape:connector-curvature="0" />
    </g>
  </g>
  <g
     transform="translate(-5,-5.0000033)"
     inkscape:label="focus"
     id="layer3"
     inkscape:groupmode="layer">
    <rect
       style="opacity:0.6;fill:#1e1e20;fill-opacity:1;stroke:none;stroke-width:1.53093112"
       id="focus-center"
       width="60"
       height="20"
       x="15"
       y="50" />
    <g
       id="focus-top">
      <rect
         y="49"
         x="15"
         height="1"
         width="60"
         id="rect826-5"
         style="opacity:0.6;fill:#1e1e20;fill-opacity:1;stroke:none" />
      <rect
         y="48"
         x="15"
         height="1"
         width="60"
         id="rect840-6"
         style="opacity:0.18000004;fill:#ffffff;fill-opacity:1;stroke:none;stroke-width:0.99176943" />
      <rect
         y="47"
         x="15"
         height="1"
         width="60"
         id="rect864-2"
         style="opacity:0;fill:#000000;fill-opacity:1;stroke:none" />
    </g>
    <g
       id="focus-bottom">
      <rect
         y="70"
         x="15"
         height="1"
         width="60"
         id="rect830-1"
         style="opacity:0.6;fill:#1e1e20;fill-opacity:1;stroke:none" />
      <rect
         y="71"
         x="15"
         height="1"
         width="60"
         id="rect842-2"
         style="opacity:0.18000004;fill:#ffffff;fill-opacity:1;stroke:none" />
      <rect
         y="72"
         x="15"
         height="1"
         width="60"
         id="rect866-7"
         style="opacity:0;fill:#000000;fill-opacity:1;stroke:none" />
    </g>
    <g
       id="focus-left">
      <rect
         y="50"
         x="14"
         height="20"
         width="1"
         id="rect824-9"
         style="opacity:0.6;fill:#1e1e20;fill-opacity:1;stroke:none" />
      <rect
         y="50"
         x="13"
         height="20"
         width="1"
         id="rect844-3"
         style="opacity:0.18000004;fill:#ffffff;fill-opacity:1;stroke:none;stroke-width:0.97590005" />
      <rect
         y="50"
         x="12"
         height="20"
         width="1"
         id="rect868-6"
         style="opacity:0;fill:#000000;fill-opacity:1;stroke:none" />
    </g>
    <g
       id="focus-right">
      <rect
         y="50"
         x="75"
         height="20"
         width="1"
         id="rect828-6"
         style="opacity:0.6;fill:#1e1e20;fill-opacity:1;stroke:none" />
      <rect
         y="50"
         x="76"
         height="20"
         width="1"
         id="rect846-2"
         style="opacity:0.18000004;fill:#ffffff;fill-opacity:1;stroke:none;stroke-width:0.9534626" />
      <rect
         y="50"
         x="77"
         height="20"
         width="1"
         id="rect870-6"
         style="opacity:0;fill:#000000;fill-opacity:1;stroke:none;stroke-width:0.9534626" />
    </g>
    <g
       id="focus-topleft">
      <rect
         style="opacity:0;fill:#000000;fill-opacity:1;stroke:none"
         id="rect2204"
         width="3"
         height="3"
         x="12"
         y="47" />
      <path
         style="opacity:0.18000004;fill:#ffffff;fill-opacity:1;stroke:none"
         d="m 15,48 c -1.108,0 -2,0.892 -2,2 h 2 z"
         id="rect2086"
         inkscape:connector-curvature="0" />
      <path
         style="opacity:0.6;fill:#1e1e20;fill-opacity:1;stroke:none"
         d="m 15,49 c -0.554,0 -1,0.446 -1,1 h 1 z"
         id="rect2097"
         inkscape:connector-curvature="0" />
    </g>
    <g
       id="focus-topright">
      <rect
         style="opacity:0;fill:#000000;fill-opacity:1;stroke:none"
         id="rect2204-8"
         width="3"
         height="3"
         x="75"
         y="47" />
      <path
         style="opacity:0.18000004;fill:#ffffff;fill-opacity:1;stroke:none"
         d="m 77,50 c 0,-1.108 -0.892,-2 -2,-2 v 2 z"
         id="rect2086-7"
         inkscape:connector-curvature="0" />
      <path
         style="opacity:0.6;fill:#1e1e20;fill-opacity:1;stroke:none"
         d="m 76,50 c 0,-0.554 -0.446,-1 -1,-1 v 1 z"
         id="rect2097-4"
         inkscape:connector-curvature="0" />
    </g>
    <g
       id="focus-bottomright">
      <rect
         style="opacity:0;fill:#000000;fill-opacity:1;stroke:none"
         id="rect2204-8-8"
         width="3"
         height="3"
         x="75"
         y="70" />
      <path
         style="opacity:0.18000004;fill:#fffffd;fill-opacity:1;stroke:none"
         d="m 75,72 c 1.108,0 2,-0.892 2,-2 h -2 z"
         id="rect2086-7-8"
         inkscape:connector-curvature="0" />
      <path
         style="opacity:0.6;fill:#1e1e20;fill-opacity:1;stroke:none"
         d="m 75,71 c 0.554,0 1,-0.446 1,-1 h -1 z"
         id="rect2097-4-3"
         inkscape:connector-curvature="0" />
    </g>
    <g
       id="focus-bottomleft">
      <rect
         style="opacity:0;fill:#000000;fill-opacity:1;stroke:none"
         id="rect2204-8-8-4"
         width="3"
         height="3"
         x="12"
         y="70" />
      <path
         style="opacity:0.18000004;fill:#ffffff;fill-opacity:1;stroke:none"
         d="m 13,70 c 0,1.108 0.892,2 2,2 v -2 z"
         id="rect2086-7-8-6"
         inkscape:connector-curvature="0" />
      <path
         style="opacity:0.6;fill:#1e1e20;fill-opacity:1;stroke:none"
         d="m 14,70 c 0,0.554 0.446,1 1,1 v -1 z"
         id="rect2097-4-3-0"
         inkscape:connector-curvature="0" />
    </g>
  </g>
  <g
     transform="translate(-5,-5.0000033)"
     inkscape:groupmode="layer"
     id="layer2"
     inkscape:label="base">
    <rect
       style="opacity:0.8;fill:#1e1e20;fill-opacity:1;stroke:none;stroke-width:1.53093112"
       id="base-center"
       width="60"
       height="20"
       x="15"
       y="15" />
    <g
       id="base-top">
      <path
         style="opacity:0.8;fill:#1e1e20;fill-opacity:1;stroke:none"
         d="m 10,8 v 1 1 H 70 V 9 8 Z"
         transform="translate(5,5.0000033)"
         id="rect826"
         inkscape:connector-curvature="0" />
      <rect
         y="12"
         x="15"
         height="1"
         width="60"
         id="rect864"
         style="opacity:0.16000001;fill:#ffffff;fill-opacity:1;stroke:none" />
    </g>
    <g
       id="base-bottom">
      <path
         style="opacity:0.8;fill:#1e1e20;fill-opacity:1;stroke:none"
         d="m 10,30 v 1 1 h 60 v -1 -1 z"
         transform="translate(5,5.0000033)"
         id="rect830"
         inkscape:connector-curvature="0" />
      <rect
         y="37"
         x="15"
         height="1"
         width="60"
         id="rect866"
         style="opacity:0.16000001;fill:#ffffff;fill-opacity:1;stroke:none" />
    </g>
    <g
       id="base-left">
      <path
         style="opacity:0.8;fill:#1e1e20;fill-opacity:1;stroke:none"
         d="m 8,10 v 20 h 1 1 V 10 H 9 Z"
         transform="translate(5,5.0000033)"
         id="rect824"
         inkscape:connector-curvature="0" />
      <rect
         y="15"
         x="12"
         height="20"
         width="1"
         id="rect868"
         style="opacity:0.16000001;fill:#ffffff;fill-opacity:1;stroke:none" />
    </g>
    <g
       id="base-right">
      <path
         style="opacity:0.8;fill:#1e1e20;fill-opacity:1;stroke:none"
         d="m 70,10 v 20 h 1 1 V 10 h -1 z"
         transform="translate(5,5.0000033)"
         id="rect828"
         inkscape:connector-curvature="0" />
      <rect
         y="15"
         x="77"
         height="20"
         width="1"
         id="rect870"
         style="opacity:0.16000001;fill:#ffffff;fill-opacity:1;stroke:none;stroke-width:0.9534626" />
    </g>
    <g
       id="base-topleft">
      <path
         style="opacity:0.16000001;fill:#ffffff;fill-opacity:1;stroke:none"
         d="M 9,7 C 7.892,7 7,7.892 7,9 v 1 H 8 V 9 C 8,8.446 8.446,8 9,8 h 1 V 7 Z"
         transform="translate(5,5.0000033)"
         id="rect2086-1"
         inkscape:connector-curvature="0" />
      <path
         style="display:inline;opacity:0.8;fill:#1e1e20;fill-opacity:1;stroke:none"
         d="m 14,13 c -0.554,0 -1,0.446 -1,1 v 1 h 1 1 v -1 -1 z"
         id="rect2097-3"
         inkscape:connector-curvature="0" />
    </g>
    <g
       id="base-topright">
      <path
         style="opacity:0.16000001;fill:#ffffff;fill-opacity:1;stroke:none"
         d="m 70,7 v 1 h 1 c 0.554,0 1,0.446 1,1 v 1 h 1 V 9 C 73,7.892 72.108,7 71,7 Z"
         transform="translate(5,5.0000033)"
         id="rect2086-1-4"
         inkscape:connector-curvature="0" />
      <path
         style="opacity:0.8;fill:#1e1e20;fill-opacity:1;stroke:none"
         d="m 77,14 c 0,-0.554 -0.446,-1 -1,-1 h -1 v 1 1 h 1 1 z"
         id="rect2097-3-0"
         inkscape:connector-curvature="0" />
    </g>
    <g
       id="base-bottomright">
      <path
         style="opacity:0.16000001;fill:#ffffff;fill-opacity:1;stroke:none"
         d="m 72,30 v 1 c 0,0.554 -0.446,1 -1,1 h -1 v 1 h 1 c 1.108,0 2,-0.892 2,-2 v -1 z"
         transform="translate(5,5.0000033)"
         id="rect2086-1-4-9"
         inkscape:connector-curvature="0" />
      <path
         style="opacity:0.8;fill:#1e1e20;fill-opacity:1;stroke:none"
         d="m 76,37 c 0.554,0 1,-0.446 1,-1 v -1 h -1 -1 v 1 1 z"
         id="rect2097-3-0-6"
         inkscape:connector-curvature="0" />
    </g>
    <g
       id="base-bottomleft">
      <path
         style="opacity:0.16000001;fill:#ffffff;fill-opacity:1;stroke:none"
         d="m 7,30 v 1 c 0,1.108 0.892,2 2,2 h 1 V 32 H 9 C 8.446,32 8,31.554 8,31 v -1 z"
         transform="translate(5,5.0000033)"
         id="rect2086-1-4-9-2"
         inkscape:connector-curvature="0" />
      <path
         style="opacity:0.8;fill:#1e1e20;fill-opacity:1;stroke:none"
         d="m 13,36 c 0,0.554 0.446,1 1,1 h 1 v -1 -1 h -1 -1 z"
         id="rect2097-3-0-6-8"
         inkscape:connector-curvature="0" />
    </g>
  </g>
  <g
     inkscape:label="hint"
     inkscape:groupmode="layer"
     id="layer1"
     transform="translate(-5,-827.51965)">
    <rect
       style="opacity:1;fill:#ff00ff;fill-opacity:1;stroke:none"
       id="hint-focus-over-base"
       width="5"
       height="5"
       x="5"
       y="827.51965"
       inkscape:label="#hint-focus-over-base" />
    <rect
       inkscape:label="#base-hint-top-margin"
       y="833.51965"
       x="44"
       height="5"
       width="2"
       id="base-hint-top-margin"
       style="opacity:1;fill:#ff00ff;fill-opacity:1;stroke:none" />
    <rect
       inkscape:label="#base-hint-bottom-margin"
       y="856.51965"
       x="44"
       height="5"
       width="2"
       id="base-hint-bottom-margin"
       style="opacity:1;fill:#ff00ff;fill-opacity:1;stroke:none" />
    <rect
       inkscape:label="#base-hint-right-margin"
       transform="rotate(90)"
       y="-79"
       x="846.51965"
       height="8"
       width="1.9999933"
       id="base-hint-right-margin"
       style="opacity:1;fill:#ff00ff;fill-opacity:1;stroke:none;stroke-width:1.26490891" />
    <rect
       inkscape:label="#base-hint-left-margin"
       transform="rotate(90)"
       y="-19"
       x="846.51965"
       height="8"
       width="1.9999933"
       id="base-hint-left-margin"
       style="opacity:1;fill:#ff00ff;fill-opacity:1;stroke:none;stroke-width:1.26490891" />
    <rect
       inkscape:label="#focus-hint-top-margin"
       y="869.51965"
       x="44"
       height="0.99999666"
       width="2"
       id="focus-hint-top-margin"
       style="opacity:1;fill:#ff00ff;fill-opacity:1;stroke:none;stroke-width:0.44721285" />
    <rect
       inkscape:label="#focus-hint-bottom-margin"
       y="894.51965"
       x="44"
       height="1"
       width="2"
       id="focus-hint-bottom-margin"
       style="opacity:1;fill:#ff00ff;fill-opacity:1;stroke:none;stroke-width:0.44721359" />
    <rect
       inkscape:label="#focus-hint-right-margin"
       transform="rotate(90)"
       y="-78"
       x="881.51965"
       height="1"
       width="1.99999"
       id="focus-hint-right-margin"
       style="opacity:1;fill:#ff00ff;fill-opacity:1;stroke:none;stroke-width:0.44721246" />
    <rect
       inkscape:label="#focus-hint-left-margin"
       transform="rotate(90)"
       y="-13"
       x="881.51965"
       height="1"
       width="1.99999"
       id="focus-hint-left-margin"
       style="opacity:1;fill:#ff00ff;fill-opacity:1;stroke:none;stroke-width:0.44721246" />
    <rect
       inkscape:label="#hover-hint-top-margin"
       y="904.51965"
       x="44"
       height="0.99999666"
       width="2"
       id="hover-hint-top-margin"
       style="opacity:1;fill:#ff00ff;fill-opacity:1;stroke:none;stroke-width:0.44721285" />
    <rect
       inkscape:label="#hover-hint-bottom-margin"
       y="929.51965"
       x="44"
       height="0.99999833"
       width="2"
       id="hover-hint-bottom-margin"
       style="opacity:1;fill:#ff00ff;fill-opacity:1;stroke:none;stroke-width:0.44721323" />
    <rect
       inkscape:label="#hover-hint-right-margin"
       transform="rotate(90)"
       y="-78"
       x="916.51965"
       height="1"
       width="1.9999866"
       id="hover-hint-right-margin"
       style="opacity:1;fill:#ff00ff;fill-opacity:1;stroke:none;stroke-width:0.4472121" />
    <rect
       inkscape:label="#hover-hint-left-margin"
       transform="rotate(90)"
       y="-13"
       x="916.51965"
       height="1"
       width="1.9999866"
       id="hover-hint-left-margin"
       style="opacity:1;fill:#ff00ff;fill-opacity:1;stroke:none;stroke-width:0.4472121" />
  </g>
</svg>
