<?xml version="1.0" encoding="UTF-8" standalone="no"?>
<!-- Created with Inkscape (http://www.inkscape.org/) -->

<svg
   xmlns:dc="http://purl.org/dc/elements/1.1/"
   xmlns:cc="http://creativecommons.org/ns#"
   xmlns:rdf="http://www.w3.org/1999/02/22-rdf-syntax-ns#"
   xmlns:svg="http://www.w3.org/2000/svg"
   xmlns="http://www.w3.org/2000/svg"
   xmlns:xlink="http://www.w3.org/1999/xlink"
   xmlns:sodipodi="http://sodipodi.sourceforge.net/DTD/sodipodi-0.dtd"
   xmlns:inkscape="http://www.inkscape.org/namespaces/inkscape"
   width="349.21298"
   height="654.27783"
   viewBox="0 0 349.21298 654.27786"
   version="1.1"
   id="svg941"
   inkscape:version="0.92.2 2405546, 2018-03-11"
   sodipodi:docname="timer.svg">
  <defs
     id="defs935">
    <linearGradient
       id="linearGradient3158"
       x1="233.054"
       x2="233.054"
       y1="489.505"
       y2="326.64801"
       gradientTransform="translate(11.232143,-1.727455)"
       gradientUnits="userSpaceOnUse"
       xlink:href="#linearGradient3152" />
    <linearGradient
       id="linearGradient3152">
      <stop
         id="stop3154"
         offset="0"
         style="stop-color:#dcdcdc;stop-opacity:0.0627451" />
      <stop
         id="stop3176"
         offset=".5"
         style="stop-color:#ffffff;stop-opacity:0.0627451" />
      <stop
         id="stop3156"
         offset="1"
         style="stop-color:#dcdcdc;stop-opacity:0.0627451" />
    </linearGradient>
    <linearGradient
       id="linearGradient3214"
       x1="233.054"
       x2="233.054"
       y1="489.505"
       y2="326.64801"
       gradientTransform="translate(191.77613,0.1206541)"
       gradientUnits="userSpaceOnUse"
       xlink:href="#linearGradient3152" />
    <linearGradient
       id="linearGradient3226"
       x1="233.054"
       x2="233.054"
       y1="489.505"
       y2="326.64801"
       gradientTransform="translate(362.78499,-2.0717684)"
       gradientUnits="userSpaceOnUse"
       xlink:href="#linearGradient3152" />
    <linearGradient
       id="linearGradient3238"
       x1="233.054"
       x2="233.054"
       y1="489.505"
       y2="326.64801"
       gradientTransform="translate(16.382439,230.32488)"
       gradientUnits="userSpaceOnUse"
       xlink:href="#linearGradient3152" />
    <linearGradient
       id="linearGradient3250"
       x1="233.054"
       x2="233.054"
       y1="489.505"
       y2="326.64801"
       gradientTransform="translate(196.16098,232.5173)"
       gradientUnits="userSpaceOnUse"
       xlink:href="#linearGradient3152" />
    <linearGradient
       id="linearGradient3262"
       x1="233.054"
       x2="233.054"
       y1="489.505"
       y2="326.64801"
       gradientTransform="translate(373.7471,250.05667)"
       gradientUnits="userSpaceOnUse"
       xlink:href="#linearGradient3152" />
    <linearGradient
       id="linearGradient3274"
       x1="233.054"
       x2="233.054"
       y1="489.505"
       y2="326.64801"
       gradientTransform="translate(25.152128,480.2609)"
       gradientUnits="userSpaceOnUse"
       xlink:href="#linearGradient3152" />
    <linearGradient
       id="linearGradient3286"
       x1="233.054"
       x2="233.054"
       y1="489.505"
       y2="326.64801"
       gradientTransform="translate(389.58407,504.64574)"
       gradientUnits="userSpaceOnUse"
       xlink:href="#linearGradient3152" />
    <linearGradient
       id="linearGradient3310"
       x1="233.054"
       x2="233.054"
       y1="489.505"
       y2="326.64801"
       gradientTransform="translate(17.910142,696.57593)"
       gradientUnits="userSpaceOnUse"
       xlink:href="#linearGradient3152" />
    <linearGradient
       id="linearGradient2366"
       x1="233.054"
       x2="233.054"
       y1="489.505"
       y2="326.64801"
       gradientTransform="translate(212.16068,484.69246)"
       gradientUnits="userSpaceOnUse"
       xlink:href="#linearGradient3152" />
    <linearGradient
       inkscape:collect="always"
       xlink:href="#linearGradient3152"
       id="linearGradient1798"
       gradientUnits="userSpaceOnUse"
       gradientTransform="translate(11.232143,-1.727455)"
       x1="233.054"
       y1="489.505"
       x2="233.054"
       y2="326.64801" />
    <linearGradient
       inkscape:collect="always"
       xlink:href="#linearGradient3152"
       id="linearGradient1800"
       gradientUnits="userSpaceOnUse"
       gradientTransform="translate(191.77613,0.1206541)"
       x1="233.054"
       y1="489.505"
       x2="233.054"
       y2="326.64801" />
    <linearGradient
       inkscape:collect="always"
       xlink:href="#linearGradient3152"
       id="linearGradient1802"
       gradientUnits="userSpaceOnUse"
       gradientTransform="translate(362.78499,-2.0717684)"
       x1="233.054"
       y1="489.505"
       x2="233.054"
       y2="326.64801" />
    <linearGradient
       inkscape:collect="always"
       xlink:href="#linearGradient3152"
       id="linearGradient1804"
       gradientUnits="userSpaceOnUse"
       gradientTransform="translate(16.382439,230.32488)"
       x1="233.054"
       y1="489.505"
       x2="233.054"
       y2="326.64801" />
    <linearGradient
       inkscape:collect="always"
       xlink:href="#linearGradient3152"
       id="linearGradient1806"
       gradientUnits="userSpaceOnUse"
       gradientTransform="translate(196.16098,232.5173)"
       x1="233.054"
       y1="489.505"
       x2="233.054"
       y2="326.64801" />
    <linearGradient
       inkscape:collect="always"
       xlink:href="#linearGradient3152"
       id="linearGradient1808"
       gradientUnits="userSpaceOnUse"
       gradientTransform="translate(373.7471,250.05667)"
       x1="233.054"
       y1="489.505"
       x2="233.054"
       y2="326.64801" />
    <linearGradient
       inkscape:collect="always"
       xlink:href="#linearGradient3152"
       id="linearGradient1810"
       gradientUnits="userSpaceOnUse"
       gradientTransform="translate(25.152128,480.2609)"
       x1="233.054"
       y1="489.505"
       x2="233.054"
       y2="326.64801" />
    <linearGradient
       inkscape:collect="always"
       xlink:href="#linearGradient3152"
       id="linearGradient1812"
       gradientUnits="userSpaceOnUse"
       gradientTransform="translate(389.58407,504.64574)"
       x1="233.054"
       y1="489.505"
       x2="233.054"
       y2="326.64801" />
    <linearGradient
       inkscape:collect="always"
       xlink:href="#linearGradient3152"
       id="linearGradient1814"
       gradientUnits="userSpaceOnUse"
       gradientTransform="translate(17.910142,696.57593)"
       x1="233.054"
       y1="489.505"
       x2="233.054"
       y2="326.64801" />
    <linearGradient
       inkscape:collect="always"
       xlink:href="#linearGradient3152"
       id="linearGradient1816"
       gradientUnits="userSpaceOnUse"
       gradientTransform="translate(212.16068,484.69246)"
       x1="233.054"
       y1="489.505"
       x2="233.054"
       y2="326.64801" />
  </defs>
  <sodipodi:namedview
     id="base"
     pagecolor="#1e1e20"
     bordercolor="#666666"
     borderopacity="1.0"
     inkscape:pageopacity="0"
     inkscape:pageshadow="2"
     inkscape:zoom="1.894772"
     inkscape:cx="395.87496"
     inkscape:cy="327.74389"
     inkscape:document-units="px"
     inkscape:current-layer="layer1"
     showgrid="false"
     units="px"
     inkscape:pagecheckerboard="true"
     fit-margin-top="0"
     fit-margin-left="0"
     fit-margin-right="0"
     fit-margin-bottom="0"
     inkscape:window-width="2514"
     inkscape:window-height="1413"
     inkscape:window-x="46"
     inkscape:window-y="27"
     inkscape:window-maximized="1">
    <inkscape:grid
       type="xygrid"
       id="grid1818"
       originx="1.49997"
       originy="164.07699" />
  </sodipodi:namedview>
  <metadata
     id="metadata938">
    <rdf:RDF>
      <cc:Work
         rdf:about="">
        <dc:format>image/svg+xml</dc:format>
        <dc:type
           rdf:resource="http://purl.org/dc/dcmitype/StillImage" />
        <dc:title></dc:title>
      </cc:Work>
    </rdf:RDF>
  </metadata>
  <g
     inkscape:label="Layer 1"
     inkscape:groupmode="layer"
     id="layer1"
     transform="translate(1.49997,-632.31876)">
    <g
       transform="translate(-201.49997,798.8196)"
       id="0">
      <rect
         id="rect2162"
         width="88.570999"
         height="162.85699"
         x="200"
         y="324.92001"
         style="opacity:0;fill:url(#linearGradient1798);fill-opacity:1" />
      <path
         id="text3148"
         d="m 243.55382,363.056 c -7.31254,1e-4 -12.82035,3.60947 -16.52344,10.82812 -3.65628,7.17196 -5.4844,17.97663 -5.48437,32.41407 -3e-5,14.39066 1.82809,25.19534 5.48437,32.41406 3.70309,7.17189 9.2109,10.75782 16.52344,10.75781 7.35932,1e-5 12.86713,-3.58592 16.52344,-10.75781 3.70305,-7.21872 5.55461,-18.0234 5.55468,-32.41406 -7e-5,-14.43744 -1.85163,-25.24211 -5.55468,-32.41407 -3.65631,-7.21865 -9.16412,-10.82802 -16.52344,-10.82812 m 0,-11.25 c 11.76557,1.1e-4 20.74212,4.66416 26.92969,13.99219 6.23429,9.28133 9.35148,22.78132 9.35156,40.5 -8e-5,17.67191 -3.11727,31.17189 -9.35156,40.5 -6.18757,9.28125 -15.16412,13.92187 -26.92969,13.92187 -11.76566,0 -20.76565,-4.64062 -27,-13.92187 -6.18751,-9.32811 -9.28126,-22.82809 -9.28125,-40.5 -1e-5,-17.71868 3.09374,-31.21867 9.28125,-40.5 6.23435,-9.32803 15.23434,-13.99208 27,-13.99219"
         style="font-style:normal;font-weight:normal;font-size:144px;font-family:'Bitstream Vera Sans';opacity:1;fill:#aaaaac;fill-opacity:1;stroke:none;stroke-width:1px;stroke-linecap:butt;stroke-linejoin:miter;stroke-opacity:1"
         inkscape:connector-curvature="0" />
      <rect
         id="rect3160"
         width="88.570999"
         height="162.85699"
         x="200.5"
         y="324.51001"
         style="fill:none;fill-opacity:0;stroke:none;stroke-opacity:1" />
    </g>
    <g
       transform="translate(-381.53998,633.70263)"
       id="1">
      <rect
         id="rect3206"
         width="88.570999"
         height="162.85699"
         x="380.54001"
         y="326.76999"
         style="opacity:0;fill:url(#linearGradient1800);fill-opacity:1" />
      <path
         id="text3208"
         d="m 396.18375,448.57602 h 23.20312 v -80.08594 l -25.24219,5.0625 v -12.9375 l 25.10157,-5.0625 h 14.20312 v 93.02344 h 23.20313 v 11.95312 h -60.46875 v -11.95312"
         style="font-style:normal;font-weight:normal;font-size:144px;font-family:'Bitstream Vera Sans';opacity:1;fill:#aaaaac;fill-opacity:1;stroke:none;stroke-width:1px;stroke-linecap:butt;stroke-linejoin:miter;stroke-opacity:1"
         inkscape:connector-curvature="0" />
      <rect
         id="rect3212"
         width="88.570999"
         height="162.85699"
         x="381.04001"
         y="326.35999"
         style="fill:none;fill-opacity:0;stroke:none;stroke-opacity:1" />
    </g>
    <g
       transform="translate(-422.47897,634.67267)"
       id="2">
      <rect
         id="rect3218"
         width="88.570999"
         height="162.85699"
         x="551.54999"
         y="324.57999"
         style="opacity:0;fill:url(#linearGradient1802);fill-opacity:1" />
      <path
         id="text3220"
         d="m 576.96606,446.38358 h 49.57032 v 11.95312 h -66.65625 v -11.95312 c 5.39061,-5.57811 12.72654,-13.05467 22.00781,-22.42969 9.32808,-9.42183 15.18745,-15.49214 17.57812,-18.21094 4.54682,-5.10932 7.71088,-9.42181 9.49219,-12.9375 1.82807,-3.56243 2.74213,-7.05461 2.74219,-10.47656 -6e-5,-5.57805 -1.96881,-10.12492 -5.90625,-13.64063 -3.89068,-3.51553 -8.97661,-5.27334 -15.25781,-5.27343 -4.45316,9e-5 -9.1641,0.77353 -14.13282,2.32031 -4.92189,1.54696 -10.19532,3.89071 -15.82031,7.03125 v -14.34375 c 5.71873,-2.29677 11.06248,-4.03115 16.03125,-5.20313 4.96872,-1.17177 9.51559,-1.7577 13.64063,-1.75781 10.87495,1.1e-4 19.54681,2.71885 26.01562,8.15625 6.46868,5.43759 9.70305,12.70321 9.70313,21.79688 -8e-5,4.31257 -0.82039,8.41413 -2.46094,12.30468 -1.59382,3.84381 -4.52351,8.39068 -8.78906,13.64063 -1.17194,1.35942 -4.8985,5.29692 -11.17969,11.8125 -6.2813,6.46878 -15.14066,15.53908 -26.57813,27.21094"
         style="font-style:normal;font-weight:normal;font-size:144px;font-family:'Bitstream Vera Sans';opacity:1;fill:#aaaaac;fill-opacity:1;stroke:none;stroke-width:1px;stroke-linecap:butt;stroke-linejoin:miter;stroke-opacity:1"
         inkscape:connector-curvature="0" />
      <rect
         id="rect3224"
         width="88.570999"
         height="162.85699"
         x="552.04999"
         y="324.17001"
         style="fill:none;fill-opacity:0;stroke:none;stroke-opacity:1" />
    </g>
    <g
       id="3"
       transform="translate(51.992008,402.68265)">
      <rect
         id="rect3230"
         width="88.570999"
         height="162.85699"
         x="205.14999"
         y="556.96997"
         style="opacity:0;fill:url(#linearGradient1804);fill-opacity:1" />
      <path
         id="text3232"
         d="m 261.36034,634.13177 c 6.79681,1.45319 12.09368,4.47662 15.89062,9.07032 3.84367,4.59379 5.76555,10.26566 5.76563,17.01562 -8e-5,10.3594 -3.56258,18.37501 -10.6875,24.04688 -7.12507,5.67187 -17.25006,8.50781 -30.375,8.50781 -4.40629,0 -8.95316,-0.44531 -13.64063,-1.33594 -4.64064,-0.84375 -9.44533,-2.13281 -14.41406,-3.86719 v -13.71093 c 3.93748,2.29689 8.24998,4.03126 12.9375,5.20312 4.68747,1.17189 9.5859,1.75782 14.69531,1.75781 8.9062,1e-5 15.67963,-1.7578 20.32031,-5.27343 4.68744,-3.51561 7.03119,-8.62498 7.03125,-15.32813 -6e-5,-6.18746 -2.17975,-11.01558 -6.53906,-14.48437 -4.31255,-3.51558 -10.33599,-5.27339 -18.07031,-5.27344 h -12.23438 v -11.67188 h 12.79688 c 6.98432,7e-5 12.32807,-1.38274 16.03125,-4.14843 3.70306,-2.81243 5.55462,-6.84368 5.55469,-12.09375 -7e-5,-5.39054 -1.92194,-9.51554 -5.76563,-12.375 -3.79693,-2.90616 -9.25786,-4.35928 -16.38281,-4.35938 -3.89066,10e-5 -8.06253,0.42197 -12.51563,1.26563 -4.45315,0.84384 -9.35158,2.15634 -14.69531,3.9375 v -12.65625 c 5.39061,-1.4999 10.42966,-2.6249 15.11719,-3.375 4.73434,-0.7499 9.18746,-1.1249 13.35937,-1.125 10.7812,10e-5 19.31244,2.46104 25.59375,7.38281 6.28118,4.87509 9.4218,11.48446 9.42188,19.82812 -8e-5,5.81258 -1.66414,10.73445 -4.99219,14.76563 -3.32819,3.98444 -8.06256,6.75006 -14.20312,8.29687"
         style="font-style:normal;font-weight:normal;font-size:144px;font-family:'Bitstream Vera Sans';opacity:1;fill:#aaaaac;fill-opacity:1;stroke:none;stroke-width:1px;stroke-linecap:butt;stroke-linejoin:miter;stroke-opacity:1"
         inkscape:connector-curvature="0" />
      <rect
         id="rect3236"
         width="88.570999"
         height="162.85699"
         x="205.64999"
         y="556.57001"
         style="fill:none;fill-opacity:0;stroke:none;stroke-opacity:1" />
    </g>
    <g
       transform="translate(-386.42996,238.85565)"
       id="4">
      <rect
         id="rect3242"
         width="88.570999"
         height="162.85699"
         x="384.92999"
         y="559.15997"
         style="opacity:0;fill:url(#linearGradient1806);fill-opacity:1;stroke:none" />
      <path
         id="text3244"
         d="m 437.1311,600.32416 -35.85937,56.03906 h 35.85937 v -56.03906 m -3.72656,-12.375 h 17.85938 v 68.41406 h 14.97656 v 11.8125 h -14.97656 v 24.75 H 437.1311 v -24.75 h -47.39062 v -13.71094 l 43.66406,-66.51562"
         style="font-style:normal;font-weight:normal;font-size:144px;font-family:'Bitstream Vera Sans';opacity:1;fill:#aaaaac;fill-opacity:1;stroke:none;stroke-width:1px;stroke-linecap:butt;stroke-linejoin:miter;stroke-opacity:1"
         inkscape:connector-curvature="0" />
      <rect
         id="rect3248"
         width="88.570999"
         height="162.85699"
         x="385.42999"
         y="558.76001"
         style="fill:none;fill-opacity:0;stroke:none;stroke-opacity:1" />
    </g>
    <g
       transform="translate(-434.43899,220.4956)"
       id="5">
      <rect
         id="rect3254"
         width="88.570999"
         height="162.85699"
         x="562.51001"
         y="576.71002"
         style="opacity:0;fill:url(#linearGradient1808);fill-opacity:1;stroke:none" />
      <path
         id="text3256"
         d="m 575.83441,605.48859 h 55.75781 v 11.95312 h -42.75 v 25.73438 c 2.06247,-0.70306 4.12497,-1.21869 6.1875,-1.54688 2.06247,-0.37493 4.12497,-0.56243 6.1875,-0.5625 11.7187,7e-5 20.99994,3.21101 27.84375,9.63281 6.84368,6.42193 10.26555,15.11724 10.26563,26.08594 -8e-5,11.2969 -3.5157,20.08595 -10.54688,26.36719 -7.03131,6.23438 -16.94536,9.35156 -29.74218,9.35156 -4.40629,0 -8.90628,-0.375 -13.5,-1.125 -4.5469,-0.75 -9.25783,-1.875 -14.13282,-3.375 v -14.27344 c 4.21874,2.29689 8.57811,4.00783 13.07813,5.13282 4.49997,1.12501 9.25778,1.68751 14.27344,1.6875 8.10933,10e-6 14.53119,-2.1328 19.26562,-6.39844 4.73431,-4.26561 7.1015,-10.05466 7.10156,-17.36719 -6e-5,-7.31246 -2.36725,-13.10151 -7.10156,-17.36719 -4.73443,-4.26557 -11.15629,-6.39838 -19.26562,-6.39843 -3.79691,5e-5 -7.59378,0.42193 -11.39063,1.26562 -3.75002,0.84381 -7.59377,2.15631 -11.53125,3.9375 v -52.73437"
         style="font-style:normal;font-weight:normal;font-size:144px;font-family:'Bitstream Vera Sans';opacity:1;fill:#aaaaac;fill-opacity:1;stroke:none;stroke-width:1px;stroke-linecap:butt;stroke-linejoin:miter;stroke-opacity:1"
         inkscape:connector-curvature="0" />
      <rect
         id="rect3260"
         width="88.570999"
         height="162.85699"
         x="563.01001"
         y="576.29999"
         style="fill:none;fill-opacity:0;stroke:none;stroke-opacity:1" />
    </g>
    <g
       transform="translate(43.722019,-10.51431)"
       id="6">
      <rect
         id="rect3266"
         width="88.570999"
         height="162.85699"
         x="213.92"
         y="806.90997"
         style="opacity:0;fill:url(#linearGradient1810);fill-opacity:1;stroke:none" />
      <path
         id="text3268"
         d="m 259.23163,882.52094 c -6.37504,5e-5 -11.43754,2.17974 -15.1875,6.53906 -3.70316,4.35942 -5.55472,10.33598 -5.55469,17.92969 -3e-5,7.5469 1.85153,13.52345 5.55469,17.92968 3.74996,4.35939 8.81246,6.53907 15.1875,6.53907 6.37494,0 11.414,-2.17968 15.11719,-6.53907 3.74993,-4.40623 5.62493,-10.38278 5.625,-17.92968 -7e-5,-7.59371 -1.87507,-13.57027 -5.625,-17.92969 -3.70319,-4.35932 -8.74225,-6.53901 -15.11719,-6.53906 m 28.19531,-44.50782 v 12.9375 c -3.56257,-1.68741 -7.17194,-2.97647 -10.82812,-3.86718 -3.60944,-0.89054 -7.19537,-1.33585 -10.75782,-1.33594 -9.37504,9e-5 -16.54691,3.16415 -21.51562,9.49219 -4.9219,6.3282 -7.7344,15.89069 -8.4375,28.6875 2.7656,-4.07807 6.23434,-7.19525 10.40625,-9.35157 4.17183,-2.20305 8.76558,-3.30462 13.78125,-3.30468 10.54681,6e-5 18.86712,3.211 24.96094,9.63281 6.14054,6.37505 9.21085,15.07035 9.21093,26.08594 -8e-5,10.78127 -3.18758,19.4297 -9.5625,25.94531 -6.37506,6.51562 -14.85943,9.77343 -25.45312,9.77344 -12.14066,-10e-6 -21.4219,-4.64063 -27.84375,-13.92188 -6.42189,-9.3281 -9.63282,-22.82809 -9.63281,-40.5 -1e-5,-16.59368 3.93748,-29.81242 11.8125,-39.65625 7.87497,-9.89052 18.44527,-14.83583 31.71093,-14.83594 3.56245,1.1e-4 7.14838,0.35167 10.75782,1.05469 3.65618,0.70323 7.45305,1.75792 11.39062,3.16406"
         style="font-style:normal;font-weight:normal;font-size:144px;font-family:'Bitstream Vera Sans';opacity:1;fill:#aaaaac;fill-opacity:1;stroke:none;stroke-width:1px;stroke-linecap:butt;stroke-linejoin:miter;stroke-opacity:1"
         inkscape:connector-curvature="0" />
      <rect
         id="rect3272"
         width="88.570999"
         height="162.85699"
         x="214.42"
         y="806.5"
         style="fill:none;fill-opacity:0;stroke:none;stroke-opacity:1" />
    </g>
    <g
       transform="translate(-450.27896,-196.94135)"
       id="8">
      <rect
         id="rect3278"
         width="88.570999"
         height="162.85699"
         x="578.34998"
         y="831.28998"
         style="opacity:0;fill:url(#linearGradient1812);fill-opacity:1" />
      <path
         id="text3280"
         d="m 621.90576,915.2027 c -6.75004,5e-5 -12.07034,1.80473 -15.96094,5.41406 -3.84377,3.60942 -5.76564,8.57816 -5.76562,14.90625 -2e-5,6.32815 1.92185,11.29689 5.76562,14.90625 3.8906,3.60939 9.2109,5.41407 15.96094,5.41406 6.74995,1e-5 12.07026,-1.80467 15.96094,-5.41406 3.89056,-3.65623 5.83587,-8.62498 5.83594,-14.90625 -7e-5,-6.32809 -1.94538,-11.29683 -5.83594,-14.90625 -3.84381,-3.60933 -9.16412,-5.41401 -15.96094,-5.41406 m -14.20312,-6.04688 c -6.09378,-1.49994 -10.85159,-4.33587 -14.27344,-8.50781 -3.37501,-4.17181 -5.06251,-9.25774 -5.0625,-15.25781 -1e-5,-8.39054 2.97655,-15.02335 8.92969,-19.89844 5.99997,-4.8749 14.20309,-7.31239 24.60937,-7.3125 10.45307,1.1e-4 18.65619,2.4376 24.60938,7.3125 5.95305,4.87509 8.9296,11.5079 8.92968,19.89844 -8e-5,6.00007 -1.71101,11.086 -5.13281,15.25781 -3.37507,4.17194 -8.086,7.00787 -14.13281,8.50781 6.84368,1.59381 12.16399,4.71099 15.96094,9.35157 3.84367,4.64066 5.76554,10.31253 5.76562,17.01562 -8e-5,10.17189 -3.11726,17.97657 -9.35156,23.41406 -6.18757,5.4375 -15.07037,8.15625 -26.64844,8.15625 -11.57816,0 -20.4844,-2.71875 -26.71875,-8.15625 -6.18751,-5.43749 -9.28126,-13.24217 -9.28125,-23.41406 -10e-6,-6.70309 1.92187,-12.37496 5.76563,-17.01562 3.84373,-4.64058 9.18747,-7.75776 16.03125,-9.35157 m -5.20313,-22.42968 c -2e-5,5.43757 1.68747,9.67975 5.0625,12.72656 3.42184,3.04694 8.20309,4.57037 14.34375,4.57031 6.0937,6e-5 10.85151,-1.52337 14.27344,-4.57031 3.46869,-3.04681 5.20306,-7.28899 5.20312,-12.72656 -6e-5,-5.43742 -1.73443,-9.6796 -5.20312,-12.72657 -3.42193,-3.04678 -8.17974,-4.57021 -14.27344,-4.57031 -6.14066,10e-5 -10.92191,1.52353 -14.34375,4.57031 -3.37503,3.04697 -5.06252,7.28915 -5.0625,12.72657"
         style="font-style:normal;font-weight:normal;font-size:144px;font-family:'Bitstream Vera Sans';opacity:1;fill:#aaaaac;fill-opacity:1;stroke:none;stroke-width:1px;stroke-linecap:butt;stroke-linejoin:miter;stroke-opacity:1"
         inkscape:connector-curvature="0" />
      <rect
         id="rect3284"
         width="88.570999"
         height="162.85699"
         x="578.84998"
         y="830.89001"
         style="fill:none;fill-opacity:0;stroke:none;stroke-opacity:1" />
    </g>
    <g
       transform="translate(51.962011,-390.50125)"
       id="9">
      <rect
         id="rect3302"
         width="88.570999"
         height="162.85699"
         x="206.67999"
         y="1023.22"
         style="opacity:0;fill:url(#linearGradient1814);fill-opacity:1" />
      <path
         id="text3304"
         d="m 220.27869,1154.8047 v -12.9375 c 3.56248,1.6875 7.17185,2.9766 10.82812,3.8672 3.65622,0.8906 7.24216,1.3359 10.75781,1.3359 9.37496,0 16.52339,-3.1406 21.44532,-9.4219 4.96868,-6.3281 7.80462,-15.914 8.50781,-28.7578 -2.71882,4.0313 -6.16412,7.1251 -10.33594,9.2813 -4.17193,2.1563 -8.78911,3.2344 -13.85156,3.2343 -10.50003,1e-4 -18.82034,-3.164 -24.96094,-9.4921 -6.09376,-6.375 -9.14063,-15.0703 -9.14062,-26.086 -1e-5,-10.7811 3.18748,-19.4296 9.5625,-25.9453 6.37497,-6.5155 14.85934,-9.7733 25.45312,-9.7734 12.14057,10e-5 21.39837,4.6641 27.77344,13.9922 6.4218,9.2813 9.63273,22.7813 9.63281,40.5 -8e-5,16.5469 -3.93758,29.7656 -11.8125,39.6562 -7.82819,9.8438 -18.37505,14.7656 -31.64062,14.7656 -3.56254,0 -7.17191,-0.3515 -10.82813,-1.0546 -3.65627,-0.7032 -7.45314,-1.7579 -11.39062,-3.1641 m 28.26562,-44.5078 c 6.37495,0 11.41401,-2.1797 15.11719,-6.5391 3.74994,-4.3593 5.62493,-10.3359 5.625,-17.9297 -7e-5,-7.5468 -1.87506,-13.4999 -5.625,-17.8593 -3.70318,-4.4062 -8.74224,-6.6093 -15.11719,-6.6094 -6.37504,10e-5 -11.43753,2.2032 -15.1875,6.6094 -3.70315,4.3594 -5.55471,10.3125 -5.55469,17.8593 -2e-5,7.5938 1.85154,13.5704 5.55469,17.9297 3.74997,4.3594 8.81246,6.5391 15.1875,6.5391"
         style="font-style:normal;font-weight:normal;font-size:144px;font-family:'Bitstream Vera Sans';opacity:1;fill:#aaaaac;fill-opacity:1;stroke:none;stroke-width:1px;stroke-linecap:butt;stroke-linejoin:miter;stroke-opacity:1"
         inkscape:connector-curvature="0" />
      <rect
         id="rect3308"
         width="88.570999"
         height="162.85699"
         x="207.17999"
         y="1022.82"
         style="fill:none;fill-opacity:0;stroke:none;stroke-opacity:1" />
    </g>
    <g
       transform="translate(-401.92996,-176.58136)"
       id="7">
      <rect
         id="rect2358"
         width="88.570999"
         height="162.85699"
         x="400.92999"
         y="811.34003"
         style="opacity:0;fill:url(#linearGradient1816);fill-opacity:1" />
      <path
         id="text2360"
         d="m 410.52145,840.12445 h 67.5 v 6.04688 l -38.10937,98.92968 h -14.83594 l 35.85938,-93.02343 h -50.41407 v -11.95313"
         style="font-style:normal;font-weight:normal;font-size:144px;font-family:'Bitstream Vera Sans';opacity:1;fill:#aaaaac;fill-opacity:1;stroke:none;stroke-width:1px;stroke-linecap:butt;stroke-linejoin:miter;stroke-opacity:1"
         inkscape:connector-curvature="0" />
      <rect
         id="rect2364"
         width="88.570999"
         height="162.85699"
         x="401.42999"
         y="810.92999"
         style="fill:none;fill-opacity:0;stroke:none;stroke-opacity:1" />
    </g>
    <g
       id="separator"
       transform="translate(57.142002,798.22962)">
      <rect
         id="rect2559"
         width="45"
         height="163.082"
         x="200"
         y="324.28"
         style="opacity:1;fill:none;fill-opacity:1;stroke:none;stroke-opacity:1" />
      <path
         id="text2242"
         d="m 215.89905,424.22943 h 14.83594 v 17.85938 h -14.83594 v -17.85938 m 0,-56.60156 h 14.83594 v 17.85937 h -14.83594 v -17.85937"
         style="font-style:normal;font-weight:normal;font-size:144px;font-family:'Bitstream Vera Sans';opacity:1;fill:#aaaaac;fill-opacity:1;stroke:none;stroke-width:1px;stroke-linecap:butt;stroke-linejoin:miter;stroke-opacity:1"
         inkscape:connector-curvature="0" />
    </g>
    <g
       id="0_1"
       transform="translate(150.21299,793.93976)">
      <rect
         id="rect2386"
         width="88.570999"
         height="162.85699"
         x="200"
         y="324.92001"
         style="opacity:0;fill:url(#linearGradient3158);fill-opacity:1" />
      <path
         id="text2388"
         d="m 243.55382,363.056 c -7.31254,1e-4 -12.82035,3.60947 -16.52344,10.82812 -3.65628,7.17196 -5.4844,17.97663 -5.48437,32.41407 -3e-5,14.39066 1.82809,25.19534 5.48437,32.41406 3.70309,7.17189 9.2109,10.75782 16.52344,10.75781 7.35932,1e-5 12.86713,-3.58592 16.52344,-10.75781 3.70305,-7.21872 5.55461,-18.0234 5.55468,-32.41406 -7e-5,-14.43744 -1.85163,-25.24211 -5.55468,-32.41407 -3.65631,-7.21865 -9.16412,-10.82802 -16.52344,-10.82812 m 0,-11.25 c 11.76557,1.1e-4 20.74212,4.66416 26.92969,13.99219 6.23429,9.28133 9.35148,22.78132 9.35156,40.5 -8e-5,17.67191 -3.11727,31.17189 -9.35156,40.5 -6.18757,9.28125 -15.16412,13.92187 -26.92969,13.92187 -11.76566,0 -20.76565,-4.64062 -27,-13.92187 -6.18751,-9.32811 -9.28126,-22.82809 -9.28125,-40.5 -1e-5,-17.71868 3.09374,-31.21867 9.28125,-40.5 6.23435,-9.32803 15.23434,-13.99208 27,-13.99219"
         style="font-style:normal;font-weight:normal;font-size:144px;font-family:'Bitstream Vera Sans';fill:#da4453;fill-opacity:1;stroke:none;stroke-width:1px;stroke-linecap:butt;stroke-linejoin:miter;stroke-opacity:1"
         inkscape:connector-curvature="0" />
      <rect
         id="rect2392"
         width="88.570999"
         height="162.85699"
         x="200.5"
         y="324.51001"
         style="fill:none;fill-opacity:0;stroke:none;stroke-opacity:1" />
    </g>
    <g
       id="1_1"
       transform="translate(-31.327047,630.0528)">
      <rect
         id="rect2396"
         width="88.570999"
         height="162.85699"
         x="380.54001"
         y="326.76999"
         style="opacity:0;fill:url(#linearGradient3214);fill-opacity:1" />
      <path
         id="text2398"
         d="m 396.18375,448.57602 h 23.20312 v -80.08594 l -25.24219,5.0625 v -12.9375 l 25.10157,-5.0625 h 14.20312 v 93.02344 h 23.20313 v 11.95312 h -60.46875 v -11.95312"
         style="font-style:normal;font-weight:normal;font-size:144px;font-family:'Bitstream Vera Sans';fill:#da4453;fill-opacity:1;stroke:none;stroke-width:1px;stroke-linecap:butt;stroke-linejoin:miter;stroke-opacity:1"
         inkscape:connector-curvature="0" />
      <rect
         id="rect2402"
         width="88.570999"
         height="162.85699"
         x="381.04001"
         y="326.35999"
         style="fill:none;fill-opacity:0;stroke:none;stroke-opacity:1" />
    </g>
    <g
       id="2_1"
       transform="translate(-73.26601,631.83277)">
      <rect
         id="rect2406"
         width="88.570999"
         height="162.85699"
         x="551.54999"
         y="324.57999"
         style="opacity:0;fill:url(#linearGradient3226);fill-opacity:1" />
      <path
         id="text2408"
         d="m 576.96606,446.38358 h 49.57032 v 11.95312 h -66.65625 v -11.95312 c 5.39061,-5.57811 12.72654,-13.05467 22.00781,-22.42969 9.32808,-9.42183 15.18745,-15.49214 17.57812,-18.21094 4.54682,-5.10932 7.71088,-9.42181 9.49219,-12.9375 1.82807,-3.56243 2.74213,-7.05461 2.74219,-10.47656 -6e-5,-5.57805 -1.96881,-10.12492 -5.90625,-13.64063 -3.89068,-3.51553 -8.97661,-5.27334 -15.25781,-5.27343 -4.45316,9e-5 -9.1641,0.77353 -14.13282,2.32031 -4.92189,1.54696 -10.19532,3.89071 -15.82031,7.03125 v -14.34375 c 5.71873,-2.29677 11.06248,-4.03115 16.03125,-5.20313 4.96872,-1.17177 9.51559,-1.7577 13.64063,-1.75781 10.87495,1.1e-4 19.54681,2.71885 26.01562,8.15625 6.46868,5.43759 9.70305,12.70321 9.70313,21.79688 -8e-5,4.31257 -0.82039,8.41413 -2.46094,12.30468 -1.59382,3.84381 -4.52351,8.39068 -8.78906,13.64063 -1.17194,1.35942 -4.8985,5.29692 -11.17969,11.8125 -6.2813,6.46878 -15.14066,15.53908 -26.57813,27.21094"
         style="font-style:normal;font-weight:normal;font-size:144px;font-family:'Bitstream Vera Sans';fill:#da4453;fill-opacity:1;stroke:none;stroke-width:1px;stroke-linecap:butt;stroke-linejoin:miter;stroke-opacity:1"
         inkscape:connector-curvature="0" />
      <rect
         id="rect2412"
         width="88.570999"
         height="162.85699"
         x="552.04999"
         y="324.17001"
         style="fill:none;fill-opacity:0;stroke:none;stroke-opacity:1" />
    </g>
    <g
       id="3_1"
       transform="translate(402.20496,399.03281)">
      <rect
         id="rect2416"
         width="88.570999"
         height="162.85699"
         x="205.14999"
         y="556.96997"
         style="opacity:0;fill:url(#linearGradient3238);fill-opacity:1" />
      <path
         id="text2418"
         d="m 261.36034,634.13177 c 6.79681,1.45319 12.09368,4.47662 15.89062,9.07032 3.84367,4.59379 5.76555,10.26566 5.76563,17.01562 -8e-5,10.3594 -3.56258,18.37501 -10.6875,24.04688 -7.12507,5.67187 -17.25006,8.50781 -30.375,8.50781 -4.40629,0 -8.95316,-0.44531 -13.64063,-1.33594 -4.64064,-0.84375 -9.44533,-2.13281 -14.41406,-3.86719 v -13.71093 c 3.93748,2.29689 8.24998,4.03126 12.9375,5.20312 4.68747,1.17189 9.5859,1.75782 14.69531,1.75781 8.9062,1e-5 15.67963,-1.7578 20.32031,-5.27343 4.68744,-3.51561 7.03119,-8.62498 7.03125,-15.32813 -6e-5,-6.18746 -2.17975,-11.01558 -6.53906,-14.48437 -4.31255,-3.51558 -10.33599,-5.27339 -18.07031,-5.27344 h -12.23438 v -11.67188 h 12.79688 c 6.98432,7e-5 12.32807,-1.38274 16.03125,-4.14843 3.70306,-2.81243 5.55462,-6.84368 5.55469,-12.09375 -7e-5,-5.39054 -1.92194,-9.51554 -5.76563,-12.375 -3.79693,-2.90616 -9.25786,-4.35928 -16.38281,-4.35938 -3.89066,10e-5 -8.06253,0.42197 -12.51563,1.26563 -4.45315,0.84384 -9.35158,2.15634 -14.69531,3.9375 v -12.65625 c 5.39061,-1.4999 10.42966,-2.6249 15.11719,-3.375 4.73434,-0.7499 9.18746,-1.1249 13.35937,-1.125 10.7812,10e-5 19.31244,2.46104 25.59375,7.38281 6.28118,4.87509 9.4218,11.48446 9.42188,19.82812 -8e-5,5.81258 -1.66414,10.73445 -4.99219,14.76563 -3.32819,3.98444 -8.06256,6.75006 -14.20312,8.29687"
         style="font-style:normal;font-weight:normal;font-size:144px;font-family:'Bitstream Vera Sans';fill:#da4453;fill-opacity:1;stroke:none;stroke-width:1px;stroke-linecap:butt;stroke-linejoin:miter;stroke-opacity:1"
         inkscape:connector-curvature="0" />
      <rect
         id="rect2422"
         width="88.570999"
         height="162.85699"
         x="205.64999"
         y="556.57001"
         style="fill:none;fill-opacity:0;stroke:none;stroke-opacity:1" />
    </g>
    <g
       id="4_1"
       transform="translate(-36.217001,235.20578)">
      <rect
         id="rect2426"
         width="88.570999"
         height="162.85699"
         x="384.92999"
         y="559.15997"
         style="opacity:0;fill:url(#linearGradient3250);fill-opacity:1" />
      <path
         id="text2428"
         d="m 437.1311,600.32416 -35.85937,56.03906 h 35.85937 v -56.03906 m -3.72656,-12.375 h 17.85938 v 68.41406 h 14.97656 v 11.8125 h -14.97656 v 24.75 H 437.1311 v -24.75 h -47.39062 v -13.71094 l 43.66406,-66.51562"
         style="font-style:normal;font-weight:normal;font-size:144px;font-family:'Bitstream Vera Sans';fill:#da4453;fill-opacity:1;stroke:none;stroke-width:1px;stroke-linecap:butt;stroke-linejoin:miter;stroke-opacity:1"
         inkscape:connector-curvature="0" />
      <rect
         id="rect2432"
         width="88.570999"
         height="162.85699"
         x="385.42999"
         y="558.76001"
         style="fill:none;fill-opacity:0;stroke:none;stroke-opacity:1" />
    </g>
    <g
       id="5_1"
       transform="translate(-84.72603,217.25577)">
      <rect
         id="rect2436"
         width="88.570999"
         height="162.85699"
         x="562.51001"
         y="576.71002"
         style="opacity:0;fill:url(#linearGradient3262);fill-opacity:1;stroke:none" />
      <path
         id="text2438"
         d="m 575.83441,605.48859 h 55.75781 v 11.95312 h -42.75 v 25.73438 c 2.06247,-0.70306 4.12497,-1.21869 6.1875,-1.54688 2.06247,-0.37493 4.12497,-0.56243 6.1875,-0.5625 11.7187,7e-5 20.99994,3.21101 27.84375,9.63281 6.84368,6.42193 10.26555,15.11724 10.26563,26.08594 -8e-5,11.2969 -3.5157,20.08595 -10.54688,26.36719 -7.03131,6.23438 -16.94536,9.35156 -29.74218,9.35156 -4.40629,0 -8.90628,-0.375 -13.5,-1.125 -4.5469,-0.75 -9.25783,-1.875 -14.13282,-3.375 v -14.27344 c 4.21874,2.29689 8.57811,4.00783 13.07813,5.13282 4.49997,1.12501 9.25778,1.68751 14.27344,1.6875 8.10933,10e-6 14.53119,-2.1328 19.26562,-6.39844 4.73431,-4.26561 7.1015,-10.05466 7.10156,-17.36719 -6e-5,-7.31246 -2.36725,-13.10151 -7.10156,-17.36719 -4.73443,-4.26557 -11.15629,-6.39838 -19.26562,-6.39843 -3.79691,5e-5 -7.59378,0.42193 -11.39063,1.26562 -3.75002,0.84381 -7.59377,2.15631 -11.53125,3.9375 v -52.73437"
         style="font-style:normal;font-weight:normal;font-size:144px;font-family:'Bitstream Vera Sans';fill:#da4453;fill-opacity:1;stroke:none;stroke-width:1px;stroke-linecap:butt;stroke-linejoin:miter;stroke-opacity:1"
         inkscape:connector-curvature="0" />
      <rect
         id="rect2442"
         width="88.570999"
         height="162.85699"
         x="563.01001"
         y="576.29999"
         style="fill:none;fill-opacity:0;stroke:none;stroke-opacity:1" />
    </g>
    <g
       id="6_1"
       transform="translate(392.93497,-13.354215)">
      <rect
         id="rect2446"
         width="88.570999"
         height="162.85699"
         x="213.92"
         y="806.90997"
         style="opacity:0;fill:url(#linearGradient3274);fill-opacity:1" />
      <path
         id="text2448"
         d="m 259.23163,882.52094 c -6.37504,5e-5 -11.43754,2.17974 -15.1875,6.53906 -3.70316,4.35942 -5.55472,10.33598 -5.55469,17.92969 -3e-5,7.5469 1.85153,13.52345 5.55469,17.92968 3.74996,4.35939 8.81246,6.53907 15.1875,6.53907 6.37494,0 11.414,-2.17968 15.11719,-6.53907 3.74993,-4.40623 5.62493,-10.38278 5.625,-17.92968 -7e-5,-7.59371 -1.87507,-13.57027 -5.625,-17.92969 -3.70319,-4.35932 -8.74225,-6.53901 -15.11719,-6.53906 m 28.19531,-44.50782 v 12.9375 c -3.56257,-1.68741 -7.17194,-2.97647 -10.82812,-3.86718 -3.60944,-0.89054 -7.19537,-1.33585 -10.75782,-1.33594 -9.37504,9e-5 -16.54691,3.16415 -21.51562,9.49219 -4.9219,6.3282 -7.7344,15.89069 -8.4375,28.6875 2.7656,-4.07807 6.23434,-7.19525 10.40625,-9.35157 4.17183,-2.20305 8.76558,-3.30462 13.78125,-3.30468 10.54681,6e-5 18.86712,3.211 24.96094,9.63281 6.14054,6.37505 9.21085,15.07035 9.21093,26.08594 -8e-5,10.78127 -3.18758,19.4297 -9.5625,25.94531 -6.37506,6.51562 -14.85943,9.77343 -25.45312,9.77344 -12.14066,-10e-6 -21.4219,-4.64063 -27.84375,-13.92188 -6.42189,-9.3281 -9.63282,-22.82809 -9.63281,-40.5 -1e-5,-16.59368 3.93748,-29.81242 11.8125,-39.65625 7.87497,-9.89052 18.44527,-14.83583 31.71093,-14.83594 3.56245,1.1e-4 7.14838,0.35167 10.75782,1.05469 3.65618,0.70323 7.45305,1.75792 11.39062,3.16406"
         style="font-style:normal;font-weight:normal;font-size:144px;font-family:'Bitstream Vera Sans';fill:#da4453;fill-opacity:1;stroke:none;stroke-width:1px;stroke-linecap:butt;stroke-linejoin:miter;stroke-opacity:1"
         inkscape:connector-curvature="0" />
      <rect
         id="rect2452"
         width="88.570999"
         height="162.85699"
         x="214.42"
         y="806.5"
         style="fill:none;fill-opacity:0;stroke:none;stroke-opacity:1" />
    </g>
    <g
       id="8_1"
       transform="translate(-101.566,-199.38126)">
      <rect
         id="rect2456"
         width="88.570999"
         height="162.85699"
         x="578.34998"
         y="831.28998"
         style="opacity:0;fill:url(#linearGradient3286);fill-opacity:1" />
      <path
         id="text2458"
         d="m 621.90576,915.2027 c -6.75004,5e-5 -12.07034,1.80473 -15.96094,5.41406 -3.84377,3.60942 -5.76564,8.57816 -5.76562,14.90625 -2e-5,6.32815 1.92185,11.29689 5.76562,14.90625 3.8906,3.60939 9.2109,5.41407 15.96094,5.41406 6.74995,1e-5 12.07026,-1.80467 15.96094,-5.41406 3.89056,-3.65623 5.83587,-8.62498 5.83594,-14.90625 -7e-5,-6.32809 -1.94538,-11.29683 -5.83594,-14.90625 -3.84381,-3.60933 -9.16412,-5.41401 -15.96094,-5.41406 m -14.20312,-6.04688 c -6.09378,-1.49994 -10.85159,-4.33587 -14.27344,-8.50781 -3.37501,-4.17181 -5.06251,-9.25774 -5.0625,-15.25781 -1e-5,-8.39054 2.97655,-15.02335 8.92969,-19.89844 5.99997,-4.8749 14.20309,-7.31239 24.60937,-7.3125 10.45307,1.1e-4 18.65619,2.4376 24.60938,7.3125 5.95305,4.87509 8.9296,11.5079 8.92968,19.89844 -8e-5,6.00007 -1.71101,11.086 -5.13281,15.25781 -3.37507,4.17194 -8.086,7.00787 -14.13281,8.50781 6.84368,1.59381 12.16399,4.71099 15.96094,9.35157 3.84367,4.64066 5.76554,10.31253 5.76562,17.01562 -8e-5,10.17189 -3.11726,17.97657 -9.35156,23.41406 -6.18757,5.4375 -15.07037,8.15625 -26.64844,8.15625 -11.57816,0 -20.4844,-2.71875 -26.71875,-8.15625 -6.18751,-5.43749 -9.28126,-13.24217 -9.28125,-23.41406 -10e-6,-6.70309 1.92187,-12.37496 5.76563,-17.01562 3.84373,-4.64058 9.18747,-7.75776 16.03125,-9.35157 m -5.20313,-22.42968 c -2e-5,5.43757 1.68747,9.67975 5.0625,12.72656 3.42184,3.04694 8.20309,4.57037 14.34375,4.57031 6.0937,6e-5 10.85151,-1.52337 14.27344,-4.57031 3.46869,-3.04681 5.20306,-7.28899 5.20312,-12.72656 -6e-5,-5.43742 -1.73443,-9.6796 -5.20312,-12.72657 -3.42193,-3.04678 -8.17974,-4.57021 -14.27344,-4.57031 -6.14066,10e-5 -10.92191,1.52353 -14.34375,4.57031 -3.37503,3.04697 -5.06252,7.28915 -5.0625,12.72657"
         style="font-style:normal;font-weight:normal;font-size:144px;font-family:'Bitstream Vera Sans';fill:#da4453;fill-opacity:1;stroke:none;stroke-width:1px;stroke-linecap:butt;stroke-linejoin:miter;stroke-opacity:1"
         inkscape:connector-curvature="0" />
      <rect
         id="rect2462"
         width="88.570999"
         height="162.85699"
         x="578.84998"
         y="830.89001"
         style="fill:none;fill-opacity:0;stroke:none;stroke-opacity:1" />
    </g>
    <g
       id="9_1"
       transform="translate(399.17497,-391.71122)">
      <rect
         id="rect2466"
         width="88.570999"
         height="162.85699"
         x="206.67999"
         y="1023.22"
         style="opacity:0;fill:url(#linearGradient3310);fill-opacity:1;stroke:none" />
      <path
         id="text2468"
         d="m 220.27869,1154.8047 v -12.9375 c 3.56248,1.6875 7.17185,2.9766 10.82812,3.8672 3.65622,0.8906 7.24216,1.3359 10.75781,1.3359 9.37496,0 16.52339,-3.1406 21.44532,-9.4219 4.96868,-6.3281 7.80462,-15.914 8.50781,-28.7578 -2.71882,4.0313 -6.16412,7.1251 -10.33594,9.2813 -4.17193,2.1563 -8.78911,3.2344 -13.85156,3.2343 -10.50003,1e-4 -18.82034,-3.164 -24.96094,-9.4921 -6.09376,-6.375 -9.14063,-15.0703 -9.14062,-26.086 -1e-5,-10.7811 3.18748,-19.4296 9.5625,-25.9453 6.37497,-6.5155 14.85934,-9.7733 25.45312,-9.7734 12.14057,10e-5 21.39837,4.6641 27.77344,13.9922 6.4218,9.2813 9.63273,22.7813 9.63281,40.5 -8e-5,16.5469 -3.93758,29.7656 -11.8125,39.6562 -7.82819,9.8438 -18.37505,14.7656 -31.64062,14.7656 -3.56254,0 -7.17191,-0.3515 -10.82813,-1.0546 -3.65627,-0.7032 -7.45314,-1.7579 -11.39062,-3.1641 m 28.26562,-44.5078 c 6.37495,0 11.41401,-2.1797 15.11719,-6.5391 3.74994,-4.3593 5.62493,-10.3359 5.625,-17.9297 -7e-5,-7.5468 -1.87506,-13.4999 -5.625,-17.8593 -3.70318,-4.4062 -8.74224,-6.6093 -15.11719,-6.6094 -6.37504,10e-5 -11.43753,2.2032 -15.1875,6.6094 -3.70315,4.3594 -5.55471,10.3125 -5.55469,17.8593 -2e-5,7.5938 1.85154,13.5704 5.55469,17.9297 3.74997,4.3594 8.81246,6.5391 15.1875,6.5391"
         style="font-style:normal;font-weight:normal;font-size:144px;font-family:'Bitstream Vera Sans';fill:#da4453;fill-opacity:1"
         inkscape:connector-curvature="0" />
      <rect
         id="rect2472"
         width="88.570999"
         height="162.85699"
         x="207.17999"
         y="1022.82"
         style="fill:none;fill-opacity:0;stroke:none;stroke-opacity:1" />
    </g>
    <g
       id="7_1"
       transform="translate(-53.217005,-179.02127)">
      <rect
         id="rect2476"
         width="88.570999"
         height="162.85699"
         x="400.92999"
         y="811.34003"
         style="opacity:0;fill:url(#linearGradient2366);fill-opacity:1" />
      <path
         id="text2478"
         d="m 410.52145,840.12445 h 67.5 v 6.04688 l -38.10937,98.92968 h -14.83594 l 35.85938,-93.02343 h -50.41407 v -11.95313"
         style="font-style:normal;font-weight:normal;font-size:144px;font-family:'Bitstream Vera Sans';fill:#da4453;fill-opacity:1;stroke:none;stroke-width:1px;stroke-linecap:butt;stroke-linejoin:miter;stroke-opacity:1"
         inkscape:connector-curvature="0" />
      <rect
         id="rect2482"
         width="88.570999"
         height="162.85699"
         x="401.42999"
         y="810.92999"
         style="fill:none;fill-opacity:0;stroke:none;stroke-opacity:1" />
    </g>
    <g
       id="separator_1"
       transform="translate(407.85495,794.17981)">
      <rect
         id="rect2320"
         width="45"
         height="163.082"
         x="200"
         y="324.28"
         style="opacity:1;fill:none;fill-opacity:1;stroke:none;stroke-opacity:1" />
      <text
         id="text2322"
         x="199.02"
         y="442.09"
         xml:space="preserve"
         style="font-style:normal;font-weight:normal;font-size:144px;font-family:'Bitstream Vera Sans';fill:#da4453;fill-opacity:1;stroke:none;stroke-width:1px;stroke-linecap:butt;stroke-linejoin:miter;stroke-opacity:1">     <tspan
   id="tspan2324"
   x="199.02"
   y="442.09"
   style="fill:#da4453;fill-opacity:1">:</tspan>   </text>
    </g>
    <g
       id="separatorB_1"
       transform="translate(279.28397,793.94476)">
      <rect
         id="rect2561"
         width="45"
         height="163.082"
         x="200"
         y="324.28"
         style="opacity:1;fill:none;fill-opacity:1;stroke:none;stroke-opacity:1" />
      <path
         id="text2563"
         d="m 214.42249,424.22943 h 14.83593 v 17.85938 h -14.83593 v -17.85938"
         style="font-style:normal;font-weight:normal;font-size:144px;font-family:'Bitstream Vera Sans';fill:#da4453;fill-opacity:1;stroke:none;stroke-width:1px;stroke-linecap:butt;stroke-linejoin:miter;stroke-opacity:1"
         inkscape:connector-curvature="0" />
    </g>
    <g
       id="separatorB"
       transform="translate(-70.928982,797.82965)">
      <rect
         id="rect2569"
         width="45"
         height="163.082"
         x="200"
         y="324.28"
         style="opacity:1;fill:none;fill-opacity:1;stroke:none;stroke-opacity:1" />
      <path
         id="text2571"
         d="m 214.42249,424.22943 h 14.83593 v 17.85938 h -14.83593 v -17.85938"
         style="font-style:normal;font-weight:normal;font-size:144px;font-family:'Bitstream Vera Sans';opacity:1;fill:#aaaaac;fill-opacity:1;stroke:none;stroke-width:1px;stroke-linecap:butt;stroke-linejoin:miter;stroke-opacity:1"
         inkscape:connector-curvature="0" />
    </g>
    <g
       id="separatorC"
       transform="translate(463.75989,156.33643)">
      <rect
         id="rect2577"
         width="45"
         height="163.082"
         x="232.66608"
         y="635.95935"
         style="opacity:1;fill:none;fill-opacity:1;stroke:none;stroke-opacity:1" />
    </g>
    <g
       id="separatorC_1"
       transform="translate(496.42597,631.09781)">
      <rect
         id="rect2585"
         width="45"
         height="163.082"
         x="200"
         y="324.28"
         style="opacity:1;fill:none;fill-opacity:1;stroke:none;stroke-opacity:1" />
    </g>
  </g>
</svg>
