<svg width="230" height="80.000053" version="1.1" viewBox="0 0 230 80.000057" xmlns="http://www.w3.org/2000/svg" xmlns:xlink="http://www.w3.org/1999/xlink">
 <defs>
  <linearGradient id="shadow">
   <stop style="stop-color:#000000;stop-opacity:.5" offset="0"/>
   <stop style="stop-color:#000000;stop-opacity:0" offset="1"/>
  </linearGradient>
  <linearGradient id="shadow-corner">
   <stop style="stop-color:#000000;stop-opacity:.52" offset="0"/>
   <stop style="stop-color:#000000;stop-opacity:0" offset="1"/>
  </linearGradient>
  <radialGradient id="radialGradient2431" cx="159" cy="16.000013" r="7.5" gradientTransform="matrix(-5.1547509e-5,-2.0000002,2.0000011,-3.1925966e-7,135.00815,395.00003)" gradientUnits="userSpaceOnUse" xlink:href="#shadow-corner"/>
  <linearGradient id="linearGradient2451" x1="205" x2="205" y1="17.000042" y2="2.0000417" gradientTransform="translate(5,59.999948)" gradientUnits="userSpaceOnUse" xlink:href="#shadow"/>
  <radialGradient id="radialGradient2431-5" cx="159" cy="16.000013" r="7.5" gradientTransform="matrix(2.0000002,-5.1547509e-5,3.1925966e-7,2.0000011,-105.00008,45.008142)" gradientUnits="userSpaceOnUse" xlink:href="#shadow-corner"/>
  <linearGradient id="linearGradient2451-7" x1="205" x2="205" y1="17.000042" y2="2.0000417" gradientTransform="rotate(90,157.5,72.499995)" gradientUnits="userSpaceOnUse" xlink:href="#shadow"/>
  <radialGradient id="radialGradient2431-5-5" cx="159" cy="16.000013" r="7.5" gradientTransform="matrix(5.1547509e-5,2.0000002,-2.0000011,3.1925966e-7,244.99185,-195.00009)" gradientUnits="userSpaceOnUse" xlink:href="#shadow-corner"/>
  <linearGradient id="linearGradient2451-7-8" x1="205" x2="205" y1="17.000042" y2="2.0000417" gradientTransform="rotate(180,187.5,69.999994)" gradientUnits="userSpaceOnUse" xlink:href="#shadow"/>
  <radialGradient id="radialGradient2431-5-5-4" cx="159" cy="16.000013" r="7.5" gradientTransform="matrix(-2.0000002,5.1547509e-5,-3.1925966e-7,-2.0000011,485.00007,154.99183)" gradientUnits="userSpaceOnUse" xlink:href="#shadow-corner"/>
  <linearGradient id="linearGradient2451-7-8-9" x1="205" x2="205" y1="17.000042" y2="2.0000417" gradientTransform="rotate(-90,217.49999,67.499996)" gradientUnits="userSpaceOnUse" xlink:href="#shadow"/>
 </defs>
 <g transform="translate(0,-59.999948)">
  <rect id="mask-center" x="85" y="75" width="50" height="50" style="fill:#000000"/>
  <path id="mask-topleft" d="m85 75.000046v-5c-2.77 0-5 2.23-5 5z" style="fill:#000000"/>
  <path id="mask-topright" d="m135 75.000046h5c0-2.77-2.23-5-5-5z" style="fill:#000000"/>
  <path id="mask-bottomright" d="m135 125.00005v5c2.77 0 5-2.23 5-5z" style="fill:#000000"/>
  <path id="mask-bottomleft" d="m85 125.00005h-5c0 2.77 2.23 5 5 5z" style="fill:#000000"/>
  <rect id="mask-top" x="85" y="70" width="50" height="5" style="fill:#000000"/>
  <rect id="mask-right" transform="rotate(90)" x="75" y="-140" width="50" height="5" style="fill:#000000"/>
  <rect id="mask-bottom" transform="scale(-1)" x="-135" y="-130" width="50" height="5" style="fill:#000000"/>
  <rect id="mask-left" transform="rotate(-90)" x="-125" y="80" width="50" height="5" style="fill:#000000"/>
 </g>
 <g transform="translate(0,-59.999948)">
  <path id="shadow-topleft" d="m150 59.999948v15h10c0-2.77 2.23-5 5-5v-10z" style="fill:url(#radialGradient2431)"/>
  <path id="shadow-top" d="m165 59.999948v10h50v-10z" style="fill:url(#linearGradient2451)"/>
  <path id="shadow-topright" d="m230 59.999992h-15v9.999998c2.77 0 5 2.23 5 5h10z" style="fill:url(#radialGradient2431-5)"/>
  <path id="shadow-right" d="m230 74.99999h-10v49.99999h10z" style="fill:url(#linearGradient2451-7)"/>
  <path id="shadow-bottomright" d="m230 139.99998v-15h-10c0 2.77-2.23 5-5 5v10z" style="fill:url(#radialGradient2431-5-5)"/>
  <path id="shadow-bottom" d="m215 139.99998v-10h-50v10z" style="fill:url(#linearGradient2451-7-8)"/>
  <path id="shadow-bottomleft" d="m150 139.99998h15v-10c-2.77 0-5-2.23-5-5h-10z" style="fill:url(#radialGradient2431-5-5-4)"/>
  <path id="shadow-left" d="m150 124.99998h10v-49.99999h-10z" style="fill:url(#linearGradient2451-7-8-9)"/>
 </g>
 <g transform="translate(0,-1132.5197)">
  <rect id="center" x="15" y="1147.5197" width="50" height="50" style="fill:#1e1e20;opacity:.8"/>
  <path id="topright" d="m65 1147.5197h5c0-2.77-2.23-5-5-5z" style="fill:#1e1e20;opacity:.8"/>
  <path id="bottomright" d="m65 1197.5197v5c2.77 0 5-2.23 5-5z" style="fill:#1e1e20;opacity:.8"/>
  <path id="bottomleft" d="m15 1197.5197h-5c0 2.77 2.23 5 5 5z" style="fill:#1e1e20;opacity:.8"/>
  <rect id="top" x="15" y="1142.5197" width="50" height="5" style="fill:#1e1e20;opacity:.8"/>
  <rect id="right" transform="rotate(90)" x="1147.5197" y="-70" width="50" height="5" style="fill:#1e1e20;opacity:.8"/>
  <rect id="bottom" transform="scale(-1)" x="-65" y="-1202.5197" width="50" height="5" style="fill:#1e1e20;opacity:.8"/>
  <path id="topleft" d="m15 1147.5197v-5c-2.77 0-5 2.23-5 5z" style="fill:#1e1e20;opacity:.8"/>
  <rect id="left" transform="rotate(-90)" x="-1197.5198" y="10" width="50" height="5" style="fill:#1e1e20;opacity:.8"/>
 </g>
 <g transform="translate(0,-59.999948)">
  <rect id="hint-top-margin" transform="translate(0,-1072.5197)" x="39" y="1142.5197" width="2" height="5" style="fill:#ff00ff"/>
  <rect id="hint-right-margin" transform="rotate(90,536.25985,-536.25985)" x="1171.5197" y="-70" width="2" height="5" style="fill:#ff00ff"/>
  <rect id="hint-bottom-margin" transform="rotate(180,0,-536.25985)" x="-41" y="-1202.5197" width="2" height="5" style="fill:#ff00ff"/>
  <rect id="hint-left-margin" transform="rotate(-90,-536.25985,-536.25985)" x="-1173.5197" y="10" width="2" height="5" style="fill:#ff00ff"/>
  <rect id="hint-stretch-borders" transform="translate(0,-1072.5197)" y="1132.5197" width="5" height="5" style="fill:#00ff00"/>
  <rect id="shadow-hint-top-margin" x="189" y="59.999992" width="2" height="10.000005" style="fill:#ff00ff"/>
  <rect id="shadow-hint-right-margin" transform="rotate(90)" x="98.999992" y="-230" width="2" height="10" style="fill:#ff00ff"/>
  <rect id="shadow-hint-bottom-margin" transform="scale(-1)" x="-191" y="-140" width="2" height="9.9999952" style="fill:#ff00ff"/>
  <rect id="shadow-hint-left-margin" transform="rotate(-90)" x="-100.99999" y="150" width="2" height="10" style="fill:#ff00ff"/>
 </g>
</svg>
