<?xml version="1.0" encoding="UTF-8" standalone="no"?>
<svg
   xmlns:dc="http://purl.org/dc/elements/1.1/"
   xmlns:cc="http://creativecommons.org/ns#"
   xmlns:rdf="http://www.w3.org/1999/02/22-rdf-syntax-ns#"
   xmlns:svg="http://www.w3.org/2000/svg"
   xmlns="http://www.w3.org/2000/svg"
   xmlns:xlink="http://www.w3.org/1999/xlink"
   xmlns:sodipodi="http://sodipodi.sourceforge.net/DTD/sodipodi-0.dtd"
   xmlns:inkscape="http://www.inkscape.org/namespaces/inkscape"
   id="svg4198"
   width="300"
   height="300"
   version="1.1"
   sodipodi:docname="decoration.svg"
   inkscape:version="0.92.5 (2060ec1f9f, 2020-04-08)">
  <metadata
     id="metadata79">
    <rdf:RDF>
      <cc:Work
         rdf:about="">
        <dc:format>image/svg+xml</dc:format>
        <dc:type
           rdf:resource="http://purl.org/dc/dcmitype/StillImage" />
        <dc:title></dc:title>
      </cc:Work>
    </rdf:RDF>
  </metadata>
  <sodipodi:namedview
     pagecolor="#ffffff"
     bordercolor="#666666"
     borderopacity="1"
     objecttolerance="10"
     gridtolerance="10"
     guidetolerance="10"
     inkscape:pageopacity="0"
     inkscape:pageshadow="2"
     inkscape:window-width="2504"
     inkscape:window-height="1410"
     id="namedview77"
     showgrid="false"
     inkscape:zoom="4.1533333"
     inkscape:cx="319.42878"
     inkscape:cy="150"
     inkscape:window-x="56"
     inkscape:window-y="30"
     inkscape:window-maximized="1"
     inkscape:current-layer="svg4198" />
  <defs
     id="defs4200">
    <linearGradient
       id="linearGradient988">
      <stop
         id="stop984"
         style="stop-color:#000000;stop-opacity:1"
         offset="0" />
      <stop
         id="stop986"
         style="stop-color:#000000;stop-opacity:0"
         offset="1" />
    </linearGradient>
    <linearGradient
       id="linearGradient1054"
       x1="155"
       x2="155"
       y1="951.362"
       y2="971.362"
       gradientUnits="userSpaceOnUse"
       xlink:href="#linearGradient988" />
    <radialGradient
       id="radialGradient1062"
       cx="100"
       cy="948.862"
       r="12.5"
       fx="100"
       fy="948.862"
       gradientTransform="matrix(2,1.8506107e-6,1.4804909e-6,-1.6000026,-3.0014,1717.1817)"
       gradientUnits="userSpaceOnUse"
       xlink:href="#linearGradient988" />
    <radialGradient
       id="radialGradient1070"
       cx="100"
       cy="948.861"
       r="12.5"
       fx="100"
       fy="948.861"
       gradientTransform="matrix(-2,5.2353441e-5,-4.1884127e-5,-1.6000525,303.03974,1717.222)"
       gradientUnits="userSpaceOnUse"
       xlink:href="#linearGradient988" />
    <linearGradient
       id="linearGradient1078"
       x1="103"
       x2="78"
       y1="892.362"
       y2="892.362"
       gradientUnits="userSpaceOnUse"
       xlink:href="#linearGradient988" />
    <linearGradient
       id="linearGradient1086"
       x1="103"
       x2="78"
       y1="892.362"
       y2="892.362"
       gradientUnits="userSpaceOnUse"
       xlink:href="#linearGradient988" />
    <radialGradient
       id="radialGradient1094"
       cx="101"
       cy="856.862"
       r="12.5"
       fx="101"
       fy="856.862"
       gradientTransform="matrix(-2.8296227e-6,-1.4400016,1.9999992,-3.9300257e-6,-1610.7234,246.44353)"
       gradientUnits="userSpaceOnUse"
       xlink:href="#linearGradient988" />
    <radialGradient
       id="radialGradient1102"
       cx="101"
       cy="856.862"
       r="12.5"
       fx="101"
       fy="856.862"
       gradientTransform="matrix(2.8296276e-6,-1.4400016,-1.9999992,-3.9300326e-6,1910.7234,246.44353)"
       gradientUnits="userSpaceOnUse"
       xlink:href="#linearGradient988" />
    <linearGradient
       id="linearGradient1187"
       x1="103"
       x2="81"
       y1="892.362"
       y2="892.362"
       gradientUnits="userSpaceOnUse"
       xlink:href="#linearGradient988" />
    <linearGradient
       id="linearGradient1189"
       x1="155"
       x2="155"
       y1="951.362"
       y2="962.362"
       gradientUnits="userSpaceOnUse"
       xlink:href="#linearGradient988" />
    <radialGradient
       id="radialGradient1191"
       cx="100"
       cy="948.861"
       r="12.5"
       fx="100"
       fy="948.861"
       gradientTransform="matrix(-1.76,0,0,-0.87999659,547,1033.9944)"
       gradientUnits="userSpaceOnUse"
       xlink:href="#linearGradient988" />
    <radialGradient
       id="radialGradient1193"
       cx="101"
       cy="856.862"
       r="12.5"
       fx="101"
       fy="856.862"
       gradientTransform="matrix(0,-1.4400016,1.7599995,0,-1137.077,246.44016)"
       gradientUnits="userSpaceOnUse"
       xlink:href="#linearGradient988" />
    <linearGradient
       id="linearGradient1195"
       x1="103"
       x2="81"
       y1="892.362"
       y2="892.362"
       gradientUnits="userSpaceOnUse"
       xlink:href="#linearGradient988" />
    <radialGradient
       id="radialGradient1197"
       cx="101"
       cy="856.862"
       r="12.5"
       fx="101"
       fy="856.862"
       gradientTransform="matrix(0,-1.4400016,-1.7599995,0,1973.077,246.44016)"
       gradientUnits="userSpaceOnUse"
       xlink:href="#linearGradient988" />
    <radialGradient
       id="radialGradient1199"
       cx="100"
       cy="948.862"
       r="12.5"
       fx="100"
       fy="948.862"
       gradientTransform="matrix(1.76,0,0,-0.88000273,289,1034.0012)"
       gradientUnits="userSpaceOnUse"
       xlink:href="#linearGradient988" />
  </defs>
  <path
     id="decoration-center"
     style="fill:#1e1e20;fill-opacity:1;opacity:0.82"
     d="m 101,101 v 98 h 98 v -98 z" />
  <g
     id="decoration-left"
     transform="translate(0,-752.36216)">
    <path
       id="path5066"
       style="opacity:0.5;fill:url(#linearGradient1078)"
       d="m 76,853.36216 v 98 h 10 v -98 z"
       inkscape:connector-curvature="0" />
    <path
       id="path5064"
       style="opacity:0.82;fill:#1e1e20;fill-opacity:1"
       d="m 101,951.36156 v -97.9994 H 86 v 98 z"
       inkscape:connector-curvature="0" />
  </g>
  <g
     id="decoration-top"
     transform="translate(0,-752.36216)">
    <path
       id="path1620"
       style="opacity:0.82;fill:#1e1e20;fill-opacity:1"
       d="M 101.00061,853.36216 H 199 v -18 h -98 z"
       inkscape:connector-curvature="0" />
    <path
       id="path1622"
       style="opacity:0.00100002"
       d="m 199,833.36216 h -98 v 2 h 98 z"
       inkscape:connector-curvature="0" />
    <path
       id="path868"
       style="opacity:0.12000002;fill:#ffffff"
       transform="translate(0,752.36216)"
       d="m 101,83 v 1 h 98 v -1 z"
       inkscape:connector-curvature="0" />
  </g>
  <g
     id="decoration-bottom"
     transform="translate(0,-752.36216)">
    <path
       id="path1628"
       style="opacity:0.5;fill:url(#linearGradient1054)"
       d="m 101,971.36216 h 98 v -14 h -98 z"
       inkscape:connector-curvature="0" />
    <path
       id="path1626"
       style="opacity:0.82;fill:#1e1e20;fill-opacity:1"
       d="M 198.9994,951.36216 H 101 v 6 h 98 z"
       inkscape:connector-curvature="0" />
  </g>
  <g
     id="decoration-bottomleft"
     transform="translate(0,-752.36216)">
    <path
       style="opacity:0.5;fill:url(#radialGradient1070)"
       d="m 76,199 v 20 h 25 V 205 H 86 v -6 z"
       transform="translate(0,752.36216)"
       id="path2007"
       inkscape:connector-curvature="0" />
    <path
       inkscape:connector-curvature="0"
       d="M 101,957.36216 H 86 v -6 h 15 z"
       style="opacity:0.82;fill:#1e1e20;fill-opacity:1"
       id="path893" />
  </g>
  <g
     id="decoration-topleft"
     transform="translate(0,-752.36216)">
    <path
       style="opacity:0.5;fill:url(#radialGradient1094)"
       d="m 76,81 v 20 H 86 V 89 c 0,-4.49999 1.499999,-6 6,-6 h 9 v -2 z"
       transform="translate(0,752.36216)"
       id="path1558"
       inkscape:connector-curvature="0" />
    <path
       inkscape:connector-curvature="0"
       d="M 101,835.36216 H 92.000001 C 87.5,835.36216 86,836.86216 86,841.36215 v 12.00001 h 15 z"
       style="opacity:0.82;fill:#1e1e20;fill-opacity:1"
       id="path884" />
    <path
       id="path866"
       style="opacity:0.12000002;fill:#ffffff"
       transform="translate(0,752.36216)"
       d="m 92,83 c -4.500001,0 -6,1.50001 -6,6 v 1 c 0,-4.49999 1.499999,-6 6,-6 h 9 v -1 z"
       inkscape:connector-curvature="0" />
  </g>
  <g
     id="decoration-right"
     transform="matrix(-1,0,0,1,300,-752.36216)">
    <path
       id="path5018"
       style="opacity:0.5;fill:url(#linearGradient1086)"
       d="m 76,853.36216 v 98 h 10 v -98 z"
       inkscape:connector-curvature="0" />
    <path
       id="path5020"
       style="opacity:0.82;fill:#1e1e20;fill-opacity:1"
       d="m 101,951.36156 v -97.9994 H 86 v 98 z"
       inkscape:connector-curvature="0" />
  </g>
  <g
     id="decoration-topright"
     transform="matrix(-1,0,0,1,300,-752.36216)">
    <path
       style="opacity:0.5;fill:url(#radialGradient1102)"
       d="m 199,81 v 2 h 9 c 4.5,0 6,1.50001 6,6 v 12 h 10 V 81 Z"
       transform="matrix(-1,0,0,1,300,752.36216)"
       id="path5024"
       inkscape:connector-curvature="0" />
    <path
       inkscape:connector-curvature="0"
       d="M 101,835.36216 H 92.000001 C 87.5,835.36216 86,836.86216 86,841.36215 v 12.00001 h 15 z"
       style="opacity:0.82;fill:#1e1e20;fill-opacity:1"
       id="path887" />
    <path
       id="path878"
       style="opacity:0.12000002;fill:#ffffff"
       transform="matrix(-1,0,0,1,300,752.36216)"
       d="m 199,83 v 1 h 9 c 4.5,0 6,1.50001 6,6 v -1 c 0,-4.49999 -1.5,-6 -6,-6 z"
       inkscape:connector-curvature="0" />
  </g>
  <g
     id="decoration-bottomright"
     transform="matrix(-1,0,0,1,300,-752.36216)">
    <path
       style="opacity:0.5;fill:url(#radialGradient1062)"
       d="m 214,199 v 6 h -15 v 14 h 25 v -20 z"
       transform="matrix(-1,0,0,1,300,752.36216)"
       id="path5038"
       inkscape:connector-curvature="0" />
    <path
       inkscape:connector-curvature="0"
       d="M 101,957.36216 H 86 v -6 h 15 z"
       style="display:inline;opacity:0.82;fill:#1e1e20;fill-opacity:1"
       id="path890" />
  </g>
  <path
     id="decoration-inactive-center"
     style="fill:#1e1e20;fill-opacity:1;opacity:0.82"
     d="m 369,101 v 98 h 98 v -98 z" />
  <g
     id="decoration-inactive-left"
     transform="translate(268,-752.36216)">
    <path
       id="path1117"
       style="opacity:0.5;fill:url(#linearGradient1187)"
       d="m 76,853.36216 v 98 h 10 v -98 z"
       inkscape:connector-curvature="0" />
    <path
       id="path1119"
       style="opacity:0.82;fill:#1e1e20;fill-opacity:1"
       d="m 101,951.36156 v -97.9994 H 86 v 98 z"
       inkscape:connector-curvature="0" />
  </g>
  <g
     id="decoration-inactive-top"
     transform="translate(268,-752.36216)">
    <path
       id="path1123"
       style="opacity:0.82;fill:#1e1e20;fill-opacity:1"
       d="M 101.00061,853.36216 H 199 v -18 h -98 z"
       inkscape:connector-curvature="0" />
    <path
       id="path1125"
       style="opacity:0.00100002"
       d="m 199,833.36216 h -98 v 2 h 98 z"
       inkscape:connector-curvature="0" />
    <path
       id="path1127"
       style="opacity:0.12000002;fill:#ffffff"
       transform="translate(0,752.36216)"
       d="m 101,83 v 1 h 98 v -1 z"
       inkscape:connector-curvature="0" />
  </g>
  <g
     id="decoration-inactive-bottom"
     transform="translate(268,-752.36216)">
    <path
       id="path1131"
       style="opacity:0.5;fill:url(#linearGradient1189)"
       d="m 101,971.36216 h 98 v -14 h -98 z"
       inkscape:connector-curvature="0" />
    <path
       id="path1133"
       style="opacity:0.82;fill:#1e1e20;fill-opacity:1"
       d="M 198.9994,951.36216 H 101 v 6 h 98 z"
       inkscape:connector-curvature="0" />
  </g>
  <g
     id="decoration-inactive-bottomleft"
     transform="translate(268,-752.36216)">
    <path
       style="opacity:0.5;fill:url(#radialGradient1191)"
       d="m 344,199 v 20 h 25 v -14 h -15 v -6 z"
       transform="translate(-268,752.36216)"
       id="path1137"
       inkscape:connector-curvature="0" />
    <path
       inkscape:connector-curvature="0"
       d="M 101,957.36216 H 86 v -6 h 15 z"
       style="opacity:0.82;fill:#1e1e20;fill-opacity:1"
       id="path902" />
  </g>
  <g
     id="decoration-inactive-topleft"
     transform="translate(268,-752.36216)">
    <path
       style="opacity:0.5;fill:url(#radialGradient1193)"
       d="m 344,81 v 20 h 10 V 89 c 0,-4.49999 1.5,-6 6,-6 h 9 v -2 z"
       transform="translate(-268,752.36216)"
       id="path1143"
       inkscape:connector-curvature="0" />
    <path
       inkscape:connector-curvature="0"
       d="M 101,835.36216 H 92.000001 C 87.5,835.36216 86,836.86216 86,841.36215 v 12.00001 h 15 z"
       style="opacity:0.82;fill:#1e1e20;fill-opacity:1"
       id="path896" />
    <path
       id="path1147"
       style="opacity:0.12000002;fill:#ffffff"
       transform="translate(0,752.36216)"
       d="m 92,83 c -4.500001,0 -6,1.50001 -6,6 v 1 c 0,-4.49999 1.499999,-6 6,-6 h 9 v -1 z"
       inkscape:connector-curvature="0" />
  </g>
  <g
     id="decoration-inactive-right"
     transform="matrix(-1,0,0,1,568,-752.36216)">
    <path
       id="path1151"
       style="opacity:0.5;fill:url(#linearGradient1195)"
       d="m 76,853.36216 v 98 h 10 v -98 z"
       inkscape:connector-curvature="0" />
    <path
       id="path1153"
       style="opacity:0.82;fill:#1e1e20;fill-opacity:1"
       d="m 101,951.36156 v -97.9994 H 86 v 98 z"
       inkscape:connector-curvature="0" />
  </g>
  <g
     id="decoration-inactive-topright"
     transform="matrix(-1,0,0,1,568,-752.36216)">
    <path
       style="opacity:0.5;fill:url(#radialGradient1197)"
       d="m 467,81 v 2 h 9 c 4.5,0 6,1.50001 6,6 v 12 h 10 V 81 Z"
       transform="matrix(-1,0,0,1,568,752.36216)"
       id="path1157"
       inkscape:connector-curvature="0" />
    <path
       inkscape:connector-curvature="0"
       d="M 101,835.36216 H 92.000001 C 87.5,835.36216 86,836.86216 86,841.36215 v 12.00001 h 15 z"
       style="opacity:0.82;fill:#1e1e20;fill-opacity:1"
       id="path899" />
    <path
       id="path1161"
       style="opacity:0.12000002;fill:#ffffff"
       transform="matrix(-1,0,0,1,300,752.36216)"
       d="m 199,83 v 1 h 9 c 4.5,0 6,1.50001 6,6 v -1 c 0,-4.49999 -1.5,-6 -6,-6 z"
       inkscape:connector-curvature="0" />
  </g>
  <g
     id="decoration-inactive-bottomright"
     transform="matrix(-1,0,0,1,568,-752.36216)">
    <path
       style="opacity:0.5;fill:url(#radialGradient1199)"
       d="m 482,199 v 6 h -15 v 14 h 25 v -20 z"
       transform="matrix(-1,0,0,1,568,752.36216)"
       id="path1165"
       inkscape:connector-curvature="0" />
    <path
       inkscape:connector-curvature="0"
       d="M 101,957.36216 H 86 v -6 h 15 z"
       style="opacity:0.82;fill:#1e1e20;fill-opacity:1"
       id="path905" />
  </g>
</svg>
