<?xml version="1.0" encoding="UTF-8" standalone="no"?>
<!-- Created with Inkscape (http://www.inkscape.org/) -->

<svg
   xmlns:dc="http://purl.org/dc/elements/1.1/"
   xmlns:cc="http://creativecommons.org/ns#"
   xmlns:rdf="http://www.w3.org/1999/02/22-rdf-syntax-ns#"
   xmlns:svg="http://www.w3.org/2000/svg"
   xmlns="http://www.w3.org/2000/svg"
   xmlns:sodipodi="http://sodipodi.sourceforge.net/DTD/sodipodi-0.dtd"
   xmlns:inkscape="http://www.inkscape.org/namespaces/inkscape"
   width="22"
   height="22"
   viewBox="0 0 22 22"
   version="1.1"
   id="svg844"
   inkscape:version="0.92.2 2405546, 2018-03-11"
   sodipodi:docname="close.svg">
  <defs
     id="defs838" />
  <sodipodi:namedview
     id="base"
     pagecolor="#1e1e20"
     bordercolor="#666666"
     borderopacity="1.0"
     inkscape:pageopacity="1"
     inkscape:pageshadow="2"
     inkscape:zoom="17.45614"
     inkscape:cx="47.204021"
     inkscape:cy="11"
     inkscape:document-units="px"
     inkscape:current-layer="hover-center"
     showgrid="false"
     units="px"
     inkscape:pagecheckerboard="true"
     inkscape:window-width="2514"
     inkscape:window-height="1413"
     inkscape:window-x="46"
     inkscape:window-y="27"
     inkscape:window-maximized="1" />
  <metadata
     id="metadata841">
    <rdf:RDF>
      <cc:Work
         rdf:about="">
        <dc:format>image/svg+xml</dc:format>
        <dc:type
           rdf:resource="http://purl.org/dc/dcmitype/StillImage" />
        <dc:title />
      </cc:Work>
    </rdf:RDF>
  </metadata>
  <g
     style="enable-background:new"
     id="active-center">
    <rect
       id="rect4175"
       width="22"
       height="22"
       x="0"
       y="0"
       style="opacity:0.00100002;fill:#000000;fill-opacity:1;fill-rule:nonzero;stroke:none;stroke-width:2;stroke-linecap:round;stroke-linejoin:round;stroke-miterlimit:4;stroke-dasharray:none;stroke-opacity:1" />
    <path
       id="path10839-9"
       d="m 7.0031448,7.0002319 h 0.999607 c 0.010366,-1.2e-4 0.020782,-4.599e-4 0.031238,0 0.2548508,0.0112 0.5096696,0.1285763 0.6872297,0.3124909 L 11.001573,9.5939061 13.313164,7.3127228 C 13.578684,7.0822295 13.75966,7.0072317 14.000393,7.0002319 H 15 v 0.9999708 c 0,0.2864616 -0.03433,0.5506339 -0.249901,0.7499781 l -2.280354,2.2811832 2.249116,2.249934 C 14.906975,13.469463 14.999992,13.734735 15,14.000027 v 0.999971 h -0.999607 c -0.265196,-10e-6 -0.530377,-0.0931 -0.718467,-0.281242 l -2.280353,-2.281183 -2.2803538,2.281183 c -0.18809,0.188185 -0.4532817,0.281242 -0.7184674,0.281242 h -0.999607 v -0.999971 c -3e-6,-0.265282 0.093023,-0.530564 0.2811395,-0.718729 L 9.5646376,11.031364 7.2842843,8.7501808 C 7.0736251,8.5555565 6.9812434,8.2809445 7.0031448,8.0002027 Z"
       style="color:#bebebe;font-style:normal;font-variant:normal;font-weight:normal;font-stretch:normal;font-size:medium;line-height:normal;font-family:'Andale Mono';-inkscape-font-specification:'Andale Mono';text-indent:0;text-align:start;text-decoration:none;text-decoration-line:none;letter-spacing:normal;word-spacing:normal;text-transform:none;writing-mode:lr-tb;direction:ltr;text-anchor:start;display:inline;overflow:visible;visibility:visible;fill:#aaaaac;fill-opacity:1;fill-rule:nonzero;stroke:none;stroke-width:1.78087378;marker:none;enable-background:new"
       inkscape:connector-curvature="0" />
  </g>
  <g
     style="enable-background:new"
     id="pressed-center">
    <rect
       id="rect4211"
       width="22"
       height="22"
       x="46"
       y="0"
       style="opacity:0.00100002;fill:#000000;fill-opacity:1;fill-rule:nonzero;stroke:none;stroke-width:2;stroke-linecap:round;stroke-linejoin:round;stroke-miterlimit:4;stroke-dasharray:none;stroke-opacity:1" />
    <circle
       id="circle4215"
       cx="57"
       cy="11"
       r="11"
       style="opacity:0.8;fill:#da4453;fill-opacity:1;fill-rule:nonzero;stroke:none;stroke-width:0;stroke-linecap:square;stroke-linejoin:round;stroke-miterlimit:4;stroke-dasharray:none;stroke-dashoffset:478.43673706;stroke-opacity:0.4" />
    <path
       id="path4221"
       d="m 53.003145,7.0002283 h 0.999607 c 0.01037,-1.2e-4 0.02078,-4.6e-4 0.03124,0 0.25485,0.0112 0.509669,0.1285762 0.687229,0.3124908 l 2.280354,2.2811834 2.311591,-2.2811834 c 0.26552,-0.2304932 0.446496,-0.305491 0.68723,-0.3124908 H 61 V 8.000199 c 0,0.2864617 -0.03433,0.550634 -0.249901,0.7499781 l -2.280354,2.2811829 2.249116,2.249935 C 60.906975,13.469459 60.999992,13.734731 61,14.000024 v 0.99997 h -0.999606 c -0.265197,-10e-6 -0.530378,-0.0931 -0.718468,-0.281241 l -2.280353,-2.281184 -2.280354,2.281184 c -0.18809,0.188184 -0.453281,0.281241 -0.718467,0.281241 h -0.999607 v -0.99997 c -3e-6,-0.265283 0.09302,-0.530565 0.281139,-0.718729 L 55.564638,11.03136 53.284284,8.7501771 C 53.073625,8.5555528 52.981243,8.2809408 53.003145,8.000199 Z"
       style="color:#bebebe;font-style:normal;font-variant:normal;font-weight:normal;font-stretch:normal;font-size:medium;line-height:normal;font-family:'Andale Mono';-inkscape-font-specification:'Andale Mono';text-indent:0;text-align:start;text-decoration:none;text-decoration-line:none;letter-spacing:normal;word-spacing:normal;text-transform:none;writing-mode:lr-tb;direction:ltr;text-anchor:start;display:inline;overflow:visible;visibility:visible;fill:#aaaaac;fill-opacity:1;fill-rule:nonzero;stroke:none;stroke-width:1.78087378;marker:none;enable-background:new"
       inkscape:connector-curvature="0" />
  </g>
  <g
     style="enable-background:new"
     id="inactive-center"
     transform="translate(69)">
    <rect
       id="rect4225"
       width="22"
       height="22"
       x="0"
       y="0"
       style="opacity:0.00100002;fill:#000000;fill-opacity:1;fill-rule:nonzero;stroke:none;stroke-width:2;stroke-linecap:round;stroke-linejoin:round;stroke-miterlimit:4;stroke-dasharray:none;stroke-opacity:1" />
    <path
       id="path4231"
       d="m 7.0031448,7.0002319 h 0.999607 c 0.010366,-1.2e-4 0.020782,-4.599e-4 0.031238,0 0.2548508,0.0112 0.5096696,0.1285763 0.6872297,0.3124909 L 11.001573,9.5939061 13.313164,7.3127228 C 13.578684,7.0822295 13.75966,7.0072317 14.000393,7.0002319 H 15 v 0.9999708 c 0,0.2864616 -0.03433,0.5506339 -0.249901,0.7499781 l -2.280354,2.2811832 2.249116,2.249934 C 14.906975,13.469463 14.999992,13.734735 15,14.000027 v 0.999971 h -0.999607 c -0.265196,-10e-6 -0.530377,-0.0931 -0.718467,-0.281242 l -2.280353,-2.281183 -2.2803538,2.281183 c -0.18809,0.188185 -0.4532817,0.281242 -0.7184674,0.281242 h -0.999607 v -0.999971 c -3e-6,-0.265282 0.093023,-0.530564 0.2811395,-0.718729 L 9.5646376,11.031364 7.2842843,8.7501808 C 7.0736251,8.5555565 6.9812434,8.2809445 7.0031448,8.0002027 Z"
       style="color:#bebebe;font-style:normal;font-variant:normal;font-weight:normal;font-stretch:normal;font-size:medium;line-height:normal;font-family:'Andale Mono';-inkscape-font-specification:'Andale Mono';text-indent:0;text-align:start;text-decoration:none;text-decoration-line:none;letter-spacing:normal;word-spacing:normal;text-transform:none;writing-mode:lr-tb;direction:ltr;text-anchor:start;display:inline;overflow:visible;visibility:visible;opacity:0.25;fill:#ffffff;fill-opacity:1;fill-rule:nonzero;stroke:none;stroke-width:1.78087378;marker:none;enable-background:new"
       inkscape:connector-curvature="0" />
  </g>
  <g
     style="enable-background:new"
     id="deactivated-center"
     transform="translate(92)">
    <rect
       id="rect4235"
       width="22"
       height="22"
       x="0"
       y="0"
       style="opacity:0.00100002;fill:#000000;fill-opacity:1;fill-rule:nonzero;stroke:none;stroke-width:2;stroke-linecap:round;stroke-linejoin:round;stroke-miterlimit:4;stroke-dasharray:none;stroke-opacity:1" />
    <path
       id="path4241"
       d="m 7.0031447,7.0002283 h 0.999607 c 0.010366,-1.2e-4 0.020782,-4.6e-4 0.031238,0 0.2548508,0.0112 0.5096696,0.1285762 0.6872298,0.3124908 l 2.2803535,2.2811834 2.311591,-2.2811834 c 0.26552,-0.2304932 0.446496,-0.305491 0.687229,-0.3124908 H 15 V 8.000199 c 0,0.2864617 -0.03433,0.550634 -0.249901,0.7499781 l -2.280354,2.2811829 2.249116,2.249935 C 14.906975,13.469459 14.999992,13.734731 15,14.000024 v 0.99997 h -0.999607 c -0.265196,-10e-6 -0.530377,-0.0931 -0.718467,-0.281241 l -2.280353,-2.281184 -2.2803538,2.281184 c -0.18809,0.188184 -0.4532818,0.281241 -0.7184675,0.281241 h -0.999607 v -0.99997 c -2.9e-6,-0.265283 0.093024,-0.530565 0.2811395,-0.718729 L 9.5646376,11.03136 7.2842842,8.7501771 C 7.073625,8.5555528 6.9812434,8.2809408 7.0031447,8.000199 Z"
       style="color:#bebebe;font-style:normal;font-variant:normal;font-weight:normal;font-stretch:normal;font-size:medium;line-height:normal;font-family:'Andale Mono';-inkscape-font-specification:'Andale Mono';text-indent:0;text-align:start;text-decoration:none;text-decoration-line:none;letter-spacing:normal;word-spacing:normal;text-transform:none;writing-mode:lr-tb;direction:ltr;text-anchor:start;display:inline;overflow:visible;visibility:visible;opacity:0.25;fill:#ffffff;fill-opacity:1;fill-rule:nonzero;stroke:none;stroke-width:1.78087378;marker:none;enable-background:new"
       inkscape:connector-curvature="0" />
  </g>
  <g
     style="enable-background:new"
     id="hover-center">
    <rect
       id="rect4224"
       width="22"
       height="22"
       x="23"
       y="0"
       style="opacity:0.00100002;fill:#000000;fill-opacity:1;fill-rule:nonzero;stroke:none;stroke-width:2;stroke-linecap:round;stroke-linejoin:round;stroke-miterlimit:4;stroke-dasharray:none;stroke-opacity:1" />
    <circle
       id="circle4230"
       cx="34"
       cy="11"
       r="11"
       style="opacity:0.5;fill:#da4453;fill-opacity:1;fill-rule:nonzero;stroke:none;stroke-width:0;stroke-linecap:square;stroke-linejoin:round;stroke-miterlimit:4;stroke-dasharray:none;stroke-dashoffset:478.43673706;stroke-opacity:0.4" />
    <path
       inkscape:connector-curvature="0"
       d="m 30.003145,7.0002283 h 0.999607 c 0.01037,-1.2e-4 0.02078,-4.6e-4 0.03124,0 0.254851,0.0112 0.50967,0.1285762 0.68723,0.3124908 l 2.280354,2.2811834 2.311591,-2.2811834 c 0.26552,-0.2304932 0.446496,-0.305491 0.687229,-0.3124908 H 38 V 8.000199 c 0,0.2864617 -0.03433,0.550634 -0.249901,0.7499781 l -2.280354,2.2811829 2.249116,2.249935 C 37.906975,13.469459 37.999992,13.734731 38,14.000024 v 0.99997 h -0.999607 c -0.265196,-10e-6 -0.530377,-0.0931 -0.718467,-0.281241 l -2.280353,-2.281184 -2.280354,2.281184 c -0.18809,0.188184 -0.453282,0.281241 -0.718467,0.281241 h -0.999607 v -0.99997 c -3e-6,-0.265283 0.09302,-0.530565 0.281139,-0.718729 L 32.564638,11.03136 30.284284,8.7501771 C 30.073625,8.5555528 29.981243,8.2809408 30.003145,8.000199 Z"
       id="path4236"
       style="color:#bebebe;font-style:normal;font-variant:normal;font-weight:normal;font-stretch:normal;font-size:medium;line-height:normal;font-family:'Andale Mono';-inkscape-font-specification:'Andale Mono';text-indent:0;text-align:start;text-decoration:none;text-decoration-line:none;letter-spacing:normal;word-spacing:normal;text-transform:none;writing-mode:lr-tb;direction:ltr;text-anchor:start;display:inline;overflow:visible;visibility:visible;fill:#aaaaac;fill-opacity:1;fill-rule:nonzero;stroke:none;stroke-width:1.78087378;marker:none;enable-background:new" />
  </g>
</svg>
