<svg width="22" height="22" version="1.1" xmlns="http://www.w3.org/2000/svg">
 <defs>
  <style id="current-color-scheme" type="text/css">.ColorScheme-Text { color:#6e6e70; } .ColorScheme-Highlight { color:#aaaaac; }</style>
 </defs>
 <path class="ColorScheme-Text" transform="translate(3 3)" d="m8 1.0039062a6.999825 6.999825 0 0 0-7 7 6.999825 6.999825 0 0 0 7 6.9999998 6.999825 6.999825 0 0 0 7-6.9999998 6.999825 6.999825 0 0 0-7-7zm0 2c0.1725957 0 0.3319042 0.0140505 0.5 0.03125 0.0125997 0.0024 0.0258628 7e-4 0.0390625 0a4.999875 4.999875 0 0 1 0.3066406 0.046875c0.1160971 0.0223995 0.2246998 0.0491258 0.3417969 0.078125 0.2565936 0.0629985 0.510706 0.1488026 0.75 0.25 0.131497 0.0554987 0.250003 0.1209017 0.375 0.1875 0 0.0089998 1e-3 0.0200503 0 0.03125 0.028999 0.0127997 0.044751 0.0667507 0.09375 0.09375 0.018 0.0096998 0.01425 0.0242034 0.03125 0.0332032 0.027999 0.0156996 0.0685 0.0320476 0.0625 0.0605468-8e-3 0.0396991-0.065751 0.0318008-0.09375 0.0625 4e-3 0.0576986-0.0475 0.054751-0.0625 0.09375 9e-3 0.0246994 0.0585 0.0326008 0.0625 0.0625-5e-3 0.0322992-0.0745 0.0295009-0.0625 0.0625 0.053999 0.041899 0.105251 0.0096998 0.15625 0 0.111997-0.0142996 0.212252-0.0077013 0.28125-0.0625-9e-3 -0.0531986 0.09975-0.0457512 0.09375-0.09375 0.028999 0.0209995 0.064751 0.0415006 0.09375 0.0625-0.011 0.0104998-0.01925 0.0252502-0.03125 0.03125-0.021999 0.0097998-0.0435 0.0192503-0.0625 0.03125-0.027999 0.0179996-0.061751 0.0415006-0.09375 0.0625-0.022999 0.0157997-0.069751 0.09375-0.09375 0.09375-0.028999 0-0.072751-0.0372498-0.09375-0.03125-0.029999 0.0096998-0.028501 0.0505004-0.0625 0.0625-0.065998 0.0239995-0.195751-0.0364975-0.21875 0.0625 0.027999 0.0569986 0.137501 0.0310008 0.1875 0.0625 0.030999 0.0201995 0.08575 0.0910009 0.09375 0.125 8e-3 0.0276994 0.012 0.1575008 0 0.1875-0.030999 0.079998-0.126752 0.064-0.21875 0.0625h-0.0625c-0.153996-0.0097997-0.305502-0.0799472-0.375 0.03125 0.0048999 0.0849979 0.0189995 0.1447519 0 0.21875-0.0139997 0.0539987-0.0967499 0.1097512-0.09375 0.15625 0.0011 0.0239995 0.0566001 0.0600509 0.0625 0.09375 0.0038999 0.0179996-0.0079998 0.0460005 0 0.0625 0.0260993 0.0486988 0.0793011-0.0096997 0.125 0 0.043999 0.0096998 0.09375 0.0738482 0.09375 0.1230469 0 0.0352991-0.009251 0.0911009-0.03125 0.125-0.043999 0.0659984-0.1245016 0.0577509-0.1875 0.09375-0.0518987 0.0299993-0.0627508 0.1046513-0.09375 0.15625-0.0329992 0.0562986-0.0754997 0.0781052-0.0625 0.1582031-0.0449989 0.0888978-0.0945023 0.1445011-0.1875 0.1875-0.0269993 0.0119997-0.0688506 0.0132505-0.09375 0.03125-0.0200995 0.0142997-0.0344007 0.0615509-0.0625 0.09375-0.0348991 0.0389991-0.0747505 0.0637508-0.09375 0.09375-0.0139996 0.0231995-0.0162504 0.0614509-0.03125 0.09375-0.0218995 0.041899-0.0657507 0.0517511-0.09375 0.09375-0.0129997 0.0201995-0.0172504 0.0675507-0.03125 0.09375-0.0319992 0.0577986-0.0684999 0.1052513-0.0625 0.15625 0.0048999 0.0479989 0.0596001 0.0495512 0.0625 0.09375 0.0027999 0.0239995-0.03225 0.0355007-0.03125 0.0625 0.0011 0.0381991 0.0283501 0.0637508 0.03125 0.09375 0.0069998 0.0741982-0.0486003 0.1056513-0.0625 0.15625-0.0069998 0.0238995 0.0059999 0.0410474 0 0.0605469-0.0119997 0.0366991-0.0615 0.0808011-0.0625 0.125-0.0011 0.0306993 0.0595001 0.0495511 0.0625 0.09375 0.0020999 0.0292993-0.0372499 0.0659507-0.03125 0.09375 0.0109997 0.0539987 0.1142511 0.1142511 0.15625 0.15625 0.0569986 0.0569986 0.1312506 0.0962515 0.15625 0.15625 0.0209995 0.0509988 0.023501 0.149401 0.0625 0.1875 0.0289993 0.0276993 0.0880009 0.0325008 0.125 0.0625 0.0349991 0.0269994 0.0568509 0.0325008 0.09375 0.0625 0.0609985 0.0479988 0.1531024 0.1632499 0.25 0.15625 0.0509987-0.0096997 0.100251-0.0527002 0.15625-0.0625 0.059998-0.0096997 0.127502-0.0357499 0.1875-0.03125 0.045999 0.0096998 0.108251 0.03425 0.15625 0.03125 0.049999-0.0096997 0.100251-0.0072506 0.15625-0.03125 0.099997-0.0427989 0.262254-0.1144495 0.40625-0.09375 0.109997 0.0157996 0.110502 0.1386012 0.1875 0.1875 0.087998 0.0097998 0.148752-0.0171995 0.21875 0 0.052999 0.0127997 0.12 0.0834011 0.125 0.125 5e-3 0.042799-0.0575 0.0979007-0.0625 0.125-0.014 0.0577986 9e-3 0.119151 0 0.15625-9e-3 0.0291993-0.03225 0.0645508-0.03125 0.09375 0 0.0262994 0.035501 0.0908009 0.0625 0.125 0.032999 0.041999 0.085001 0.0798012 0.125 0.125 0.072998 0.0839979 0.105251 0.1702528 0.15625 0.28125 0.013 0.0276993-0.012 0.0577509 0 0.09375-0.021999 0.1679958-0.077503 0.2828547-0.1875 0.46875-0.050999 0.0601989-0.127 0.1125019-0.125 0.1874999-4e-3 0.179996 0.10175 0.294754 0.09375 0.46875-0.018 0.233994 0.018 0.250003 0 0.375 0.078998 0.039999 0.022999 0.167002 0 0.25-0.033999 0.098998-0.07575 0.123455-0.09375 0.189453 0.052999 0.023 0.128501 0.013 0.1875 0a4.999875 4.999875 0 0 1-0.009766 0.007813c-0.026999 0.028999-0.055985 0.056985-0.083984 0.083984-0.213995 0.214995-0.459944 0.417801-0.710938 0.591797a4.999875 4.999875 0 0 1-0.068359 0.048828c-0.196995 0.130997-0.406146 0.242659-0.619141 0.347656a4.999875 4.999875 0 0 1-0.3124995 0.138672 4.999875 4.999875 0 0 1-0.0078125 0.003906c-0.1658959 0.066999-0.3387762 0.11997-0.5136719 0.167969a4.999875 4.999875 0 0 1-0.9257812 0.158203c-0.1235969 6e-3 -0.2464501 0.011719-0.3730469 0.011719-0.1843954 0-0.3661263-0.01125-0.5449219-0.03125a4.999875 4.999875 0 0 1-0.5800781-0.099609c-0.2362941-0.062999-0.4637056-0.156143-0.6875-0.244141-0.0093998-0.016999-0.0333499-0.040547-0.03125-0.060547 0.0519987-0.021999 0.149501 0.073998 0.1875 0 0.0189995-0.035999-0.0250994-0.123204 0-0.158203 0.0178996-0.023999 0.1192509-0.02325 0.15625-0.03125 0.0529987-0.01 0.1263507-0.01725 0.15625-0.03125 0.0329992-0.020999 0.0684999-0.093298 0.0625-0.154297-0.0027999-0.029999-0.0395006-0.038454-0.0625-0.064453-0.0188995-0.021999 0.0129997-0.039547 0-0.060547-0.0238994-0.035999-0.0837502-0.044704-0.09375-0.095703 0.0719982-0.014 0.1772526 0.060249 0.28125 0.03125 0.0489988-0.014 0.1332506-0.110251 0.15625-0.15625 0.0069998-0.014-0.0079998-0.042547 0-0.060547 0.0089998-0.017999 0.0282501-0.0535 0.03125-0.0625 0.0069998-0.026999-0.0059999-0.011297 0-0.029297 0.0179995-0.051998 0.0637507-0.090954 0.09375-0.126953 0.0229994-0.027999 0.0726505-0.066704 0.09375-0.095703 0.0238994-0.030999 0.0152504-0.032547 0.03125-0.060547 0.0149996-0.090997-0.0532495-0.170002-0.03125-0.25 0.0238994-0.089997 0.1630022-0.146501 0.25-0.1875 0.0298993-0.014999 0.0687506-0.02225 0.09375-0.03125 0.0599985-0.020999 0.1315014-0.0435 0.1875-0.0625 0.0939977-0.033999 0.1102511-0.100549 0.15625-0.185547 0.0219995-0.039999 0.0584001-0.096954 0.0625-0.126953 0.0037999-0.025999-0.0049999-0.031501 0-0.0625 0.0048999-0.028999-0.0079998-0.059751 0-0.09375 0.0109997-0.041999 0.03125-0.139501 0.03125-0.1875 0-0.039999-0.03035-0.057751-0.03125-0.09375-0.0069998-0.1299965 0.0457512-0.116002 0.09375-0.1874998 0.0239994-0.0351991 0.0456004-0.1000006 0.0625-0.125 0.080998-0.1199969 0.2286498-0.1617545 0.21875-0.34375-0.0038999-0.0599985-0.0497511-0.1997504-0.09375-0.21875-0.0249994-0.0111997-0.0567509-0.0178503-0.09375-0.03125-0.1178971-0.0442988-0.2207531-0.1775002-0.34375-0.1875h-0.0625c-0.0479988 0-0.1023513-0.0237501-0.15625-0.03125-0.0339991-0.0097997-0.1051005 0.0097998-0.125 0-0.0310992-0.0149996-0.0375006-0.0766504-0.0625-0.09375-0.0199995-0.0141996-0.0627508-0.0219034-0.09375-0.0332031-0.0489988-0.0179995-0.0680014-0.0568469-0.125-0.0605469-0.0179995 0-0.0425005 0.0096998-0.0625 0-0.0309992-0.0096997-0.0647507-0.0152035-0.09375-0.0332031-0.0358991-0.0217994-0.0787504-0.0298476-0.09375-0.0605469 0.0329992-0.1078973-0.0718505-0.1245015-0.09375-0.1875-0.0100997-0.0291992 0.0099997-0.0990006 0-0.125-0.0129997-0.036699-0.052751-0.0630507-0.09375-0.09375-0.0719982-0.0561985-0.1157526-0.0809503-0.21875-0.09375-0.0458989-0.0097997-0.1012514 0.0096998-0.15625 0-0.0579985-0.0097997-0.1435011-0.0435512-0.1875-0.09375-0.0419989-0.0486987-0.0568509-0.1019005-0.09375-0.125-0.0349991-0.0216994-0.0697506-0.0400005-0.09375-0.0625-0.0109997-0.0096997-0.0212503-0.0079505-0.03125-0.03125-0.0179995-0.036699-0.0532495-0.0487511-0.03125-0.09375-0.039999-0.0201994-0.0195011 0.0379499-0.0625 0.03125-0.038999-0.0547986-0.0683522-0.1097496-0.15625-0.09375-0.039999 0.0097998-0.0781012 0.0926501-0.125 0.09375-0.038999 0-0.0741013-0.0857501-0.125-0.09375-0.038999-0.0097997-0.0981007 0.0358499-0.125 0.03125-0.0430989-0.0096997-0.054751-0.0371006-0.09375-0.0625-0.0289993-0.0187995-0.0777504-0.0638999-0.09375-0.0625-0.0498988 0-0.0872517 0.0989991-0.15625 0.0625-0.0339991-0.0427989 0.071349-0.0540509 0.03125-0.09375-0.0298993-0.0291992-0.0385006 0.0170504-0.0625 0.03125-0.0279993 0.0179996-0.0627508 0.0199503-0.09375 0.03125-0.0689983 0.0261994-0.1335014 0.0340008-0.1875 0.0625-0.0499988 0.0261994-0.0648507 0.0427513-0.09375 0.09375-0.0229994 0.041899-0.0587509 0.1230001-0.09375 0.125-0.0419989 0-0.055751-0.0459004-0.09375-0.0625-0.1148971-0.0501987-0.1862524 0.0289501-0.28125 0.03125-0.0879978 0-0.2226499-0.135752-0.21875-0.21875 0.0027999-0.0509987 0.0252502-0.1245015 0.03125-0.1875 0.0048999-0.0501987 0.0616-0.1106511 0.0625-0.15625 0.0011-0.0621984-0.116351-0.0866501-0.15625-0.09375-0.0939976-0.0171995-0.2055027 0.041999-0.3125 0-0.0199995-0.0336991 0.0192503-0.0600508 0.03125-0.09375 0.0069998-0.0179995-0.0069998-0.0415005 0-0.0625 0.0119997-0.0321991 0.0788504-0.0599508 0.09375-0.09375 0.0110997-0.0261993-0.0109997-0.0607508 0-0.09375 0.0129997-0.035999 0.0594001-0.0675506 0.0625-0.09375 0.0037999-0.0337991-0.0355007-0.0720505-0.0625-0.09375-0.0828979 0.0097998-0.1396012 0.0092038-0.1875 0.0332032-0.1079973 0.0487988-0.0785027 0.1846508-0.1875 0.21875-0.0369991 0.0119997-0.0830011 0.0237502-0.125 0.03125-0.0176996 0.0093997-0.0404474 6e-4 -0.0605469 0a4.999875 4.999875 0 0 1 0.0117188-0.0585938c0.0073998-0.0111997 0.0147782-0.0225565 0.0175781-0.0351562 0.0712982-0.3249919 0.1814033-0.6396075 0.3125-0.9375h0.03125c0.037999 0.0096997 0.0607508 0.0595001 0.09375 0.0625 0.0919977 0.0096997 0.1115019-0.084801 0.1875-0.125 0.077998 0.0111997 0.1165018-0.0097998 0.1875 0 0.0479988 0.0096997 0.1182509 0.0567469 0.15625 0.0605468 0.0319992 0 0.0325008-0.0350499 0.0625-0.03125 0.0299993 0.0096998 0.0887501 0.0577509 0.09375 0.09375 0.0049999 0.0449989-0.0443497 0.1066513-0.03125 0.15625 0.0469988 0.0478989 0.1517517 0.0660507 0.21875 0.09375 0.0439989-0.036699 0.0069998-0.1042513 0-0.15625-0.0011-0.0231994 0.0027999-0.0727505 0-0.09375-0.0048999-0.035999-0.03125-0.0630507-0.03125-0.09375 0-0.1430964 0.1227524-0.1941013 0.21875-0.25 0.040999-0.0239994 0.0890009-0.0757504 0.125-0.09375 0.0509987-0.0246993 0.0830011-0.0073505 0.125-0.03125 0.0759981-0.0427989 0.1285015-0.1075512 0.1875-0.15625 0.0269993-0.0651983-0.0027999-0.1548515 0-0.21875 0.0269993-0.0172995 0.0648507 0 0.09375 0 0.0459989-0.0097997 0.0677507-0.0675506 0.09375-0.09375 0.0149996-0.0149996 0.0445005-0.0162503 0.0625-0.03125 0.0459989-0.035999 0.053751-0.0777503 0.09375-0.09375 0.0140996-0.0097997 0.0404006-0.0238501 0.0625-0.03125 0.0299993-0.0097997 0.0770012-0.0132504 0.125-0.03125 0.0309992-0.0112997 0.1129003-0.0176503 0.125-0.03125 0.0149996-0.0149996-0.0038999-0.0705505 0-0.09375 0.0238994-0.1128971 0.1802525-0.1181509 0.28125-0.15625 0.0699983-0.0261993 0.1407519-0.1076496 0.21875-0.09375-0.0150996 0.0539987-0.0754997 0.0600017-0.0625 0.125 0.0169996 0.0909978 0.1242508-0.0197034 0.15625-0.0332031 0.0609985-0.0262993 0.170002-0.0637507 0.25-0.09375 0.0699983-0.0246994 0.1909983-0.0423489 0.125-0.1230469-0.0549986-0.0096997-0.0770012 0.0410474-0.125 0.0605469-0.0329992 0.0097998-0.0345007-0.02825-0.0625-0.03125-0.0269993 0-0.0355007 0.0357499-0.0625 0.03125-0.0269993-0.0096997-0.0585001-0.0607508-0.0625-0.09375-0.0109997-0.0839979 0.0597509-0.0943515 0.09375-0.15625-0.0229994-0.0759981-0.1235016-0.0305476-0.1875-0.0605469 0.0069998-0.0449988 0.0407513-0.0837502 0.09375-0.09375 0.0429989-0.0097997 0.1615007 0.0080506 0.1875 0.03125 0.0149996 0.0127997-0.0228994 0.0415006 0 0.0625 0.0259994 0.0231995 0.0598508 0.0096998 0.09375 0 0.0119997-0.0569985-0.0724998-0.0258009-0.0625-0.0625 0.0678983-0.0441988 0.1982521-0.0200502 0.28125-0.03125 0.0479988-0.0097997 0.1133511-0.0400005 0.15625-0.0625 0.039999-0.0231994 0.0517511-0.068749 0.09375-0.03125 0.0119997 0.041199-0.0083506 0.0719506-0.03125 0.09375-0.0769981 0.0681983-0.1587515 0.139852-0.21875 0.21875 0.0369991 0.0359991 0.0943515 0.0236502 0.15625 0.03125 0.0239994 0.0096998 0.0687506-0.0075998 0.09375 0 0.0299993 0.0096998 0.0696506-0.0097997 0.09375 0 0.0419989 0.0096998 0.0517511 0.09375 0.09375 0.09375 0.0679983 0 0.038999-0.0798011 0-0.125 0.0119997-0.0471988 0.0482496-0.0918008 0.03125-0.125-0.0310992-0.0621984-0.1502502 0.018498-0.15625-0.0625-0.0037999-0.0501987 0.0445004-0.0554509 0.0625-0.09375-0.0079998-0.0958976 0.0724998-0.1006021 0.0625-0.1875-0.0048999-0.035999-0.0375006-0.0287008-0.0625-0.0625-0.0129997-0.0179995-0.0163504-0.0798503-0.03125-0.09375-0.0519987-0.0441988-0.1502501-0.009852-0.15625-0.09375-0.0027999-0.0502987 0.0069998-0.1026513 0-0.15625-0.0069998-0.0509987-0.0498511-0.2088502-0.09375-0.21875-0.0559986-0.0119997-0.0892517 0.0937008-0.15625 0.125-0.0359991 0.0171996-0.1192509 0.0372499-0.15625 0.03125-0.0238994-0.0097997-0.0595001-0.0160011-0.0625-0.0625-0.0039999-0.0426989 0.0469004-0.0615508 0.0625-0.09375 0.0039999-0.0082997-0.0019-0.0199502 0-0.03125 0.0246994-0.0068998 0.0495194-0.0139845 0.0742188-0.0214843a4.999875 4.999875 0 0 1 0.3242187-0.0722657c0.0132997 0.0014 0.0264628 0.0031 0.0390625 0 0.1334967-0.0247993 0.2691534-0.0489003 0.40625-0.0625 0.1661958-0.0171995 0.3289043-0.0312499 0.5-0.03125zm-2.03125 0.46875c-0.0318992 0.1824955-0.2027551 0.2552999-0.40625 0.25-0.0459989 0.0441989-0.0062506 0.1266016-0.03125 0.1875-0.0209995 0.0509988-0.1052513 0.0977499-0.15625 0.09375-0.0369991 0-0.09375-0.0584508-0.09375-0.09375 0-0.0426989 0.0682491-0.0442512 0.03125-0.09375 0.0017-0.0096997 0.0208503-0.0206502 0.03125-0.03125 0.0201995-0.0126996 0.0422005-0.0184503 0.0625-0.03125 0.1812955-0.1114972 0.3669049-0.1932521 0.5625-0.28125zm4.1875 0.1875c-0.018 0.0097998-0.01525 0.0207503-0.03125 0.03125-0.037999 0.0231995-0.064751 0.0520003-0.09375 0.0625-0.040699 0.0149997-0.0877502 0.025801-0.09375 0.0625-0.0048999 0.0306993 0.03225 0.0340008 0.03125 0.0625-0.0150996 0.0366991-0.0232502 0.0487512-0.03125 0.09375 0.0509987 0.082898 0.155752-0.0177503 0.21875-0.03125 0.027999-0.0096997 0.0475-0.0092037 0.0625-0.0332031 0.017-0.0269993 0.01825-0.0554509 0.03125-0.09375 0.014-0.0419989 0.0685-0.0570509 0.0625-0.09375-3e-3 -0.0367991-0.094252-0.0657467-0.15625-0.0605469zm-5.46875 0.625c0.0473988 0.0382991 0.1140479 0.1205509 0.03125 0.15625-0.0100997 0.0096998-0.1322506 0.03495-0.15625 0.03125-0.0096998 0-0.0227502-0.0237501-0.03125-0.03125 0.0516987-0.0501987 0.1024513-0.1081512 0.15625-0.15625zm0.1875 0.1875c0.0239994 0 0.0345007 0.0611001 0.0625 0.0625 0.0269993 0 0.0465004-0.0350499 0.0625-0.03125 0.0419989 0.0111998 0.071349 0.0938008 0.03125 0.125-0.0329992 0.0097998-0.0386006-0.0350499-0.0625-0.03125-0.0679983 0.0119997-0.1052513 0.1602499-0.15625 0.15625-0.0479988-0.0097997-0.0802488-0.1212508-0.03125-0.15625 0.0012-0.0299992-2e-3 -0.0317007 0-0.0625 0.0150996-0.0179995 0.053751-0.0654999 0.09375-0.0625zm-0.25 0.03125c0.0139997 0 0.0262501-0.0097997 0.03125 0-0.0068998 0.0531987-0.021601 0.0689507-0.0625 0.09375-0.0709982 0.042699-0.1332506 0.0961023-0.15625 0.1875-0.0069998 0.0269994-0.0910009 0.1004499-0.125 0.09375-0.078998-0.0171995 0.0445005-0.1646005 0.0625-0.1875 0.0199995-0.0246993 0.0395006-0.0340007 0.0625-0.0625 0.0229994-0.0276993 0.0406005-0.0777503 0.0625-0.09375 0.0239994-0.0171995 0.083001-0.0327499 0.125-0.03125zm6.78125 0.15625c0.078998-0.0096997 0.121251 0.0774012 0.15625 0.125 0.029999 0.0389991 0.107251 0.0978007 0.15625 0.125 0.027999 0.0149997 0.063751 0.0489004 0.09375 0.0625 0.064998 0.0291993 0.1845 0.1236016 0.1875 0.1875 1e-3 0.0322992-0.03625 0.0637508-0.03125 0.09375 0.048999 0.0097998 0.09375-0.0758012 0.09375-0.125 0.091998 0.1299968 0.171002 0.2677535 0.25 0.40625 0.037999 0.0652984 0.090001 0.1200017 0.125 0.1875-0.044999 0.0126997-0.0555 0.0198011-0.0625 0.0625-0.01 0.0562986 0.021498 0.1463503-0.0625 0.15625-0.051999 0.0096998-0.114502-0.0460004-0.1875-0.0625-0.029999-0.0097997-0.069751 0.0097998-0.09375 0-0.054999-0.0179995-0.046751-0.0917008-0.09375-0.125-0.027999-0.0187995-0.113251-0.0580001-0.15625-0.0625-0.026999 0-0.034501 0.0096998-0.0625 0-0.033999-0.0096997-0.097001 0.0142997-0.125 0-0.026999-0.0172995-0.08675-0.0705505-0.09375-0.09375-0.011-0.036799 0.09175-0.0622507 0.09375-0.09375 2e-3 -0.0239994-0.02525-0.0569509-0.03125-0.09375-3e-3 -0.0216994 5e-3 -0.0475003 0-0.0625-6e-3 -0.0262993-0.052751-0.02975-0.09375-0.03125h-0.09375c-0.043999 0-0.133501-0.0074998-0.1875 0h-0.09375c-0.086998 0.0096998-0.150752-0.0096997-0.21875 0-0.048999 0-0.142501 0.0415006-0.1875 0.0625-0.022999 0.0111998-0.032501 0.0162504-0.0625 0.03125-0.014 0.0097998-0.0435 0.0229503-0.0625 0.03125-0.026999 0.0126997-0.066751 0.0550002-0.09375 0.0625-0.038999 0.0097998-0.085252-0.0097997-0.15625 0-0.049999 0-0.124-0.0329515-0.125-0.09375-2e-3 -0.0928976 0.162002-0.0461004 0.25-0.0625 0.031999-0.0097997 0.053751-0.0385005 0.09375-0.0625 0.019-0.0111997 0.01425-0.0192502 0.03125-0.03125 0.029999-0.0209994 0.08875-0.0697506 0.09375-0.09375 4e-3 -0.0216994-3e-3 -0.0461004 0-0.0625 4e-3 -0.0209994 0.035501-0.0347006 0.0625-0.0625 0.041999-0.0418989 0.073001-0.0978006 0.125-0.125 0.034999-0.0179995 0.07775-0.0320475 0.09375-0.0605468 3e-3 -0.0321992-2e-3 -0.0325008 0-0.0625 0.020999-0.0201995 0.0445-0.0267501 0.0625-0.03125 0.053999-0.0119997 0.093252 0 0.15625 0 0.026999 0 0.064751 0.0126997 0.09375 0 0.023999-0.0157996 0.038501-0.0505003 0.0625-0.0625 0.026999-0.0142997 0.061751-0.0289501 0.09375-0.03125v-0.0019532zm0.5625 0.59375h-0.125c-0.043999 0-0.099001-0.0231994-0.125 0 0.036999 0.0599985 0.104502 0.0787504 0.1875 0.09375 0.029999-0.0217994 0.0485-0.0555509 0.0625-0.09375zm-6.84375-0.5625h0.09375c0.0249994 0 0.0526002-0.0096997 0.0625 0-0.0159996 0.0659984-0.1667513 0.0551495-0.21875 0.03125 0.0027999-0.0247993 0.0305008-0.0267501 0.0625-0.03125zm-0.21875 0.125c-0.0435989 0.0314993-0.0869517 0.0720506-0.15625 0.09375-0.037999 0.0119997-0.0866502 0.010749-0.09375-0.03125-0.0079998-0.0516987 0.0597509-0.0260501 0.09375-0.03125 0.0439989-0.0097997 0.1053513-0.02895 0.15625-0.03125zm6.5 0c-0.032999 0.0112998-0.048999 0.0837503 0 0.09375 0.022999-0.0141996 0.03725-0.051051 0.03125-0.09375-0.013-0.0142996-0.02125-0.0096997-0.03125 0zm-0.0625 0.15625c1e-3 0.0561986 0.011 0.1076513 0 0.15625 0.031999 0.0621985 0.109 0.010649 0.125-0.03125 0.019-0.1040973-0.014501-0.1379996-0.0625-0.125-0.016 0.0096998-0.0455-0.0127996-0.0625 0zm-8.28125 2.34375c0.0563986 0.0509988 0.0887517 0.1227509 0.15625 0.15625 0.0249994 0.0126997 0.0617508 0.0230503 0.09375 0.03125 0.0259993 0.0097998 0.0375006-0.0081997 0.0625 0 0.0529987 0.0179996 0.114351 0.0438005 0.15625 0.0625 0.0639984 0.0276994 0.1324014 0.1241509 0.1875 0.15625 0.0026999 0.0321992-0.0100997 0.0697506 0 0.09375 0.0259993 0.0351992 0.051751 0.0698506 0.09375 0.09375 0.0509987 0.0277994 0.0770012 0.0712506 0.125 0.09375 0.0169996 0.0097998 0.0365007-0.0097997 0.0625 0 0.0659983 0.0201995 0.0993514 0.1105496 0.15625 0.09375 0.0370991-0.0112997 0.0252502-0.0577509 0.03125-0.09375 0.0249994-0.0269993 0.054751-0.0624999 0.09375-0.0625 0.0619985 0 0.0707506 0.0956516 0.09375 0.15625 0.0129997 0.0336992 0.0535002 0.057751 0.0625 0.09375 0.0149996 0.0621985 0.0129997 0.244251 0 0.28125-0.0159996 0.0456989-0.087001 0.0435513-0.125 0.09375-0.0179995 0.0239994-0.0172503 0.0767505-0.03125 0.09375-0.0238994 0.0292993-0.0445005 0.0347007-0.0625 0.0625-0.0100997 0.0149997-0.0222502 0.0416006-0.03125 0.0625-0.0299993 0.0637985-0.0874994 0.110402-0.0625 0.1875 0.0099997 0.0306993 0.0625 0.057051 0.0625 0.09375 0 0.0441989-0.0867502 0.0769013-0.09375 0.125-0.0049999 0.0351992 0.0203503 0.0783012 0.03125 0.125 0.0079998 0.0351992 0.0727505 0.0705506 0.09375 0.09375 0.0348991 0.0389991 0.0617508 0.1067513 0.09375 0.15625 0.0629984 0.0969976 0.0942515 0.2175024 0.15625 0.3125 0.0329992 0.0486988 0.1030005 0.0735013 0.125 0.1249998 0.0109997 0.026-0.0100997 0.069751 0 0.09375 0.0358991 0.080998 0.200252 0.179751 0.28125 0.21875 0.0379991 0.019 0.0900009 0.011251 0.125 0.03125 0.0529987 0.029999 0.1605007 0.109251 0.1875 0.15625 0.0239994 0.041999 0.0192503 0.151752 0.03125 0.21875 0.0149996 0.087998-0.0038999 0.155003 0 0.25 0.0026999 0.050999 0.03125 0.073002 0.03125 0.125 0 0.018 0.0011 0.076704 0 0.095703-0.0011 0.061999 0.0049999 0.122549 0 0.185547-0.0027999 0.033999-0.0021999 0.064751 0 0.09375 0.0027999 0.030999 0.02935 0.035501 0.03125 0.0625 0.0021999 0.029-0.0342499 0.070751-0.03125 0.09375 0.0069998 0.062999 0.0505003 0.098252 0.0625 0.15625 0.0099997 0.045999 0.0371499 0.163752 0.03125 0.21875-0.0038999 0.029-0.0272501 0.060751-0.03125 0.09375-0.0027999 0.026 0.0037999 0.038501 0 0.0625-0.0022999 0.02 0.0017 0.036735 0 0.052735a4.999875 4.999875 0 0 1-0.1132812-0.066407c-0.2586936-0.176995-0.5100743-0.390333-0.7304688-0.611328-0.0305992-0.030999-0.0639507-0.060797-0.09375-0.091797-0.1805955-0.190995-0.3509037-0.409958-0.5-0.626953-0.0134997-0.018999-0.0180503-0.0425-0.03125-0.0625-0.1730957-0.258993-0.3146031-0.522007-0.4375-0.8124998-0.0087998-0.0209994-0.0226502-0.0415005-0.03125-0.0625-0.1053974-0.2589935-0.1889015-0.5340069-0.25-0.8125-0.0114997-0.0524986-0.0214502-0.1030513-0.03125-0.15625-0.0247994-0.1333966-0.0485004-0.2692534-0.0625-0.40625-0.0169996-0.1680957-0.03125-0.3274043-0.03125-0.5 0-0.237694 0.0304008-0.4587057 0.0625-0.6875zm1.9375 0.53125c0.0479988-0.0217994 0.038999 0.0558002 0 0.0625-0.0369991 0.0097998-0.0359991-0.0445004 0-0.0625z" style="fill:#aaaaac"/>
</svg>
