<svg id="svg824" width="32" height="32" version="1.1" viewBox="0 0 32 32" xmlns="http://www.w3.org/2000/svg">
 <g id="system-suspend" transform="translate(0,-1020.36)">
  <rect id="rect70" y="1020.36" width="32" height="32" style="opacity:.00100002"/>
  <g id="g86" transform="translate(0,1020.3622)">
   <circle id="circle72" cx="16" cy="16" r="14" style="fill:#41a5c7"/>
   <path id="path74" d="m15.99991 1.9978004a14 14 0 0 0-14 14 14 14 0 0 0 0.0215 0.586 14 14 0 0 1 13.978-13.586 14 14 0 0 1 13.979 13.414 14 14 0 0 0 0.021-0.414 14 14 0 0 0-14-14z" style="fill:#cfd8dc;opacity:.2"/>
   <path id="path76" d="m29.97891 16.4118a14 14 0 0 1-13.979 13.586 14 14 0 0 1-13.978-13.414 14 14 0 0 0-0.022 0.414 14 14 0 0 0 14 14 14 14 0 0 0 14-14 14 14 0 0 0-0.021-0.586z" style="opacity:.2"/>
   <path id="path78" d="m13.99991 15.9978c-0.552285 0-1 0.447715-1 1s0.447715 1 1 1h4c0.552285 0 1-0.447715 1-1s-0.447715-1-1-1z" style="fill:#000000;opacity:.2"/>
   <path id="path80" d="m15.99991 9.9978a7 7 0 0 0-7 7 7 7 0 0 0 7 7 7 7 0 0 0 7-7 7 7 0 0 0-7-7zm0 2a5 5 0 0 1 5 5 5 5 0 0 1-5 5 5 5 0 0 1-5-5 5 5 0 0 1 5-5z" style="fill:#000000;opacity:.2"/>
   <path id="path82" d="m13.99991 14.9978c-0.552285 0-1 0.447715-1 1s0.447715 1 1 1h4c0.552285 0 1-0.447715 1-1s-0.447715-1-1-1z" style="fill:#f0f0f2"/>
   <path id="path84" d="m15.99991 8.9978a7 7 0 0 0-7 7 7 7 0 0 0 7 7 7 7 0 0 0 7-7 7 7 0 0 0-7-7zm0 2a5 5 0 0 1 5 5 5 5 0 0 1-5 5 5 5 0 0 1-5-5 5 5 0 0 1 5-5z" style="fill:#f0f0f2"/>
  </g>
 </g>
</svg>
