<svg width="32" height="32" version="1.1" viewBox="0 0 32 32" xmlns="http://www.w3.org/2000/svg">
 <g id="system-suspend" transform="translate(0,-1020.36)">
  <rect y="1020.36" width="32" height="32" style="opacity:.00100002"/>
  <g transform="translate(0,1020.3622)">
   <path transform="translate(-64.00009 -.0022)" d="m80 2.0019531a14 14 0 0 0-14 14 14 14 0 0 0 14 14 14 14 0 0 0 14-14 14 14 0 0 0-14-14zm0 5a9 9 0 0 1 9 8.9999999 9 9 0 0 1-9 9 9 9 0 0 1-9-9 9 9 0 0 1 9-8.9999999zm0 2a7 7 0 0 0-7 6.9999999 7 7 0 0 0 7 7 7 7 0 0 0 7-7 7 7 0 0 0-7-6.9999999zm-3 5.9999999h6c0.554 0 1 0.446 1 1s-0.446 1-1 1h-6c-0.554 0-1-0.446-1-1s0.446-1 1-1z" style="fill:#aaaaac"/>
  </g>
 </g>
</svg>
