<svg width="32" height="32" version="1.1" viewBox="0 0 32 32" xmlns="http://www.w3.org/2000/svg">
 <g id="system-reboot" transform="translate(0,-1020.36)">
  <rect y="1020.36" width="32" height="32" style="opacity:.00100002"/>
  <g transform="translate(0,1020.3622)">
   <path transform="translate(-32.00009 -.0022)" d="m48 2.0019531a14 14 0 0 0-14 14 14 14 0 0 0 14 14 14 14 0 0 0 14-14 14 14 0 0 0-14-14zm-2 2 4 4-4 3.9999999v-2.7011718c-2.964 0.8839998-4.9969 3.6081718-5 6.7011718 0 3.866 3.134 7 7 7 3.477-4e-3 6.422922-2.559 6.919922-6 0 0 0.08008-1 1.080078-1 1 0 0.933594 1 0.933594 1-0.5088 4.5512-4.354094 7.9946-8.933594 8-4.9706 0-9-4.0294-9-9 0.0044-4.197 2.9084-7.8331249 7-8.7656249z" style="fill:#aaaaac"/>
  </g>
 </g>
</svg>
