<?xml version="1.0" encoding="UTF-8" standalone="no"?>
<!-- Created with Inkscape (http://www.inkscape.org/) -->

<svg
   xmlns:dc="http://purl.org/dc/elements/1.1/"
   xmlns:cc="http://creativecommons.org/ns#"
   xmlns:rdf="http://www.w3.org/1999/02/22-rdf-syntax-ns#"
   xmlns:svg="http://www.w3.org/2000/svg"
   xmlns="http://www.w3.org/2000/svg"
   xmlns:sodipodi="http://sodipodi.sourceforge.net/DTD/sodipodi-0.dtd"
   xmlns:inkscape="http://www.inkscape.org/namespaces/inkscape"
   width="32"
   height="32"
   viewBox="0 0 32 32.000001"
   version="1.1"
   id="svg873"
   inkscape:version="0.92.2 2405546, 2018-03-11"
   sodipodi:docname="icon.svg">
  <defs
     id="defs867" />
  <sodipodi:namedview
     id="base"
     pagecolor="#1e1e20"
     bordercolor="#666666"
     borderopacity="1.0"
     inkscape:pageopacity="0"
     inkscape:pageshadow="2"
     inkscape:zoom="22.627417"
     inkscape:cx="14.101564"
     inkscape:cy="13.278689"
     inkscape:document-units="px"
     inkscape:current-layer="layer1"
     showgrid="true"
     units="px"
     inkscape:pagecheckerboard="true"
     inkscape:window-width="2514"
     inkscape:window-height="1413"
     inkscape:window-x="46"
     inkscape:window-y="27"
     inkscape:window-maximized="1">
    <inkscape:grid
       type="xygrid"
       id="grid1421" />
  </sodipodi:namedview>
  <metadata
     id="metadata870">
    <rdf:RDF>
      <cc:Work
         rdf:about="">
        <dc:format>image/svg+xml</dc:format>
        <dc:type
           rdf:resource="http://purl.org/dc/dcmitype/StillImage" />
        <dc:title></dc:title>
      </cc:Work>
    </rdf:RDF>
  </metadata>
  <g
     inkscape:label="icon"
     inkscape:groupmode="layer"
     id="layer1"
     transform="translate(0,-1090.5197)">
    <path
       inkscape:connector-curvature="0"
       style="opacity:0.2"
       d="m 2,1117.0197 v 1 c 0,0.831 0.669,1.5 1.5,1.5 h 25 c 0.831,0 1.5,-0.669 1.5,-1.5 v -1 c 0,0.831 -0.669,1.5 -1.5,1.5 h -25 c -0.831,0 -1.5,-0.669 -1.5,-1.5 z"
       id="path2" />
    <rect
       style="fill:#4f4f4f"
       width="28"
       height="24"
       x="2"
       y="1094.5197"
       rx="1.5"
       ry="1.5"
       id="rect4" />
    <path
       inkscape:connector-curvature="0"
       style="opacity:0.1;fill:#ffffff"
       d="m 3.5,1094.5197 c -0.831,0 -1.5,0.669 -1.5,1.5 v 1 c 0,-0.831 0.669,-1.5 1.5,-1.5 h 25 c 0.831,0 1.5,0.669 1.5,1.5 v -1 c 0,-0.831 -0.669,-1.5 -1.5,-1.5 z"
       id="path6" />
    <path
       inkscape:connector-curvature="0"
       style="opacity:0.2"
       d="m 6,1098.5197 v 1 H 5.5 c -0.831,0 -1.5,0.669 -1.5,1.5 0,0.831 0.669,1.5 1.5,1.5 H 6 v 1 H 4.0918 c 0.206,0.582 0.754,1 1.4082,1 H 6 v 1 h 1 v -1 h 0.5 c 0.831,0 1.5,-0.669 1.5,-1.5 0,-0.831 -0.669,-1.5 -1.5,-1.5 H 7 v -1 h 1.9082 c -0.206,-0.582 -0.754,-1 -1.408,-1 h -0.5 v -1 h -1 z m -0.5,2 H 6 v 1 H 5.5 c -0.277,0 -0.5,-0.223 -0.5,-0.5 0,-0.277 0.223,-0.5 0.5,-0.5 z m 1.5,2 h 0.5 c 0.277,0 0.5,0.223 0.5,0.5 0,0.277 -0.2233,0.513 -0.5,0.5 H 7 Z m 4,2 v 1 h 6 v -1 z"
       id="path8" />
    <path
       inkscape:connector-curvature="0"
       style="fill:#ffffff"
       d="m 6,1097.5197 v 1 H 5.5 c -0.831,0 -1.5,0.669 -1.5,1.5 0,0.831 0.669,1.5 1.5,1.5 H 6 v 1 H 4.0918 c 0.206,0.582 0.754,1 1.4082,1 H 6 v 1 h 1 v -1 h 0.5 c 0.831,0 1.5,-0.669 1.5,-1.5 0,-0.831 -0.669,-1.5 -1.5,-1.5 H 7 v -1 h 1.9082 c -0.206,-0.582 -0.754,-1 -1.408,-1 h -0.5 v -1 h -1 z m -0.5,2 H 6 v 1 H 5.5 c -0.277,0 -0.5,-0.223 -0.5,-0.5 0,-0.277 0.223,-0.5 0.5,-0.5 z m 1.5,2 h 0.5 c 0.277,0 0.5,0.223 0.5,0.5 0,0.277 -0.2233,0.513 -0.5,0.5 H 7 Z m 4,2 v 1 h 6 v -1 z"
       id="path10" />
  </g>
</svg>
