<?xml version="1.0" encoding="UTF-8"?>
<svg width="57" height="137" version="1.1" viewBox="0 0 57 137" xmlns="http://www.w3.org/2000/svg" xmlns:xlink="http://www.w3.org/1999/xlink">
 <defs>
  <linearGradient id="border">
   <stop stop-color="#88888a" offset="0"/>
   <stop stop-color="#727274" offset="1"/>
  </linearGradient>
  <linearGradient id="fill">
   <stop stop-color="#7a7a7c" offset="0"/>
   <stop stop-color="#646466" offset="1"/>
  </linearGradient>
  <linearGradient id="linearGradient1759" x1="16" x2="16" y1="1094.5" y2="1122.5" gradientUnits="userSpaceOnUse" xlink:href="#border"/>
  <linearGradient id="linearGradient1767" x1="16" x2="16" y1="1095.5" y2="1121.5" gradientTransform="matrix(.92308 0 0 .92308 1.2308 85.271)" gradientUnits="userSpaceOnUse" xlink:href="#fill"/>
  <linearGradient id="linearGradient1775" x1="46" x2="46" y1="1098.5" y2="1118.5" gradientUnits="userSpaceOnUse" xlink:href="#border"/>
  <linearGradient id="linearGradient1783" x1="46" x2="46" y1="1099.5" y2="1117.5" gradientTransform="matrix(.88889 0 0 .88889 5.1111 123.17)" gradientUnits="userSpaceOnUse" xlink:href="#fill"/>
 </defs>
 <g transform="translate(0 -1022.5)">
  <g id="normal">
   <circle cx="16" cy="1038.5" r="16" opacity="0" stroke-width="6.4"/>
   <circle cx="16" cy="1038.5" r="14" fill="#fff" opacity=".18"/>
   <circle cx="16" cy="1038.5" r="12" fill="#1e1e20"/>
  </g>
  <g id="22-22-normal">
   <circle cx="46" cy="1038.5" r="11" opacity="0" stroke-width="4.4"/>
   <circle cx="46" cy="1038.5" r="10" fill="#fff" opacity=".18"/>
   <circle cx="46" cy="1038.5" r="8" fill="#1e1e20"/>
  </g>
  <g id="hover">
   <circle cx="16" cy="1073.5" r="16" opacity="0" stroke-width="6.4"/>
   <circle cx="16" cy="1073.5" r="14" fill="#fff" opacity=".2"/>
   <circle cx="16" cy="1073.5" r="12" fill="#1e1e20"/>
  </g>
  <g id="22-22-hover">
   <circle cx="46" cy="1073.5" r="11" opacity="0" stroke-width="4.4"/>
   <circle cx="46" cy="1073.5" r="10" fill="#fff" opacity=".2"/>
   <circle cx="46" cy="1073.5" r="8" fill="#1e1e20"/>
  </g>
  <g id="pressed">
   <circle cx="16" cy="1108.5" r="16" opacity="0" stroke-width="6.4"/>
   <circle cx="16" cy="1108.5" r="14" fill="url(#linearGradient1759)"/>
   <circle cx="16" cy="1108.5" r="12" fill="url(#linearGradient1767)"/>
  </g>
  <g id="22-22-pressed">
   <circle cx="46" cy="1108.5" r="11" opacity="0" stroke-width="4.4"/>
   <circle cx="46" cy="1108.5" r="10" fill="url(#linearGradient1775)"/>
   <circle cx="46" cy="1108.5" r="8" fill="url(#linearGradient1783)"/>
  </g>
  <g id="focus">
   <circle cx="16" cy="1143.5" r="16" opacity="0" stroke-width="6.4"/>
   <circle cx="16" cy="1143.5" r="14" fill="#fff" opacity=".2"/>
   <circle cx="16" cy="1143.5" r="12" fill="#1e1e20"/>
  </g>
  <g id="22-22-focus">
   <circle cx="46" cy="1143.5" r="11" opacity="0" stroke-width="4.4"/>
   <circle cx="46" cy="1143.5" r="10" fill="#fff" opacity=".2"/>
   <circle cx="46" cy="1143.5" r="8" fill="#1e1e20"/>
  </g>
 </g>
</svg>
