<?xml version="1.0" encoding="UTF-8"?>
<svg width="48" height="48" version="1.1" viewBox="0 0 48 48" xmlns="http://www.w3.org/2000/svg">
 <g id="remove-normal" transform="translate(0,-18)">
  <rect y="34" width="16" height="16" opacity=".001"/>
  <path d="m15 42a7 7 0 0 1-7 7 7 7 0 0 1-7-7 7 7 0 0 1 7-7 7 7 0 0 1 7 7z" fill="#414143"/>
  <rect transform="rotate(90)" x="41" y="-12" width="2" height="8" fill="#aaaaac"/>
 </g>
 <g id="add-normal" transform="translate(0,-18)">
  <rect y="18" width="16" height="16" opacity=".001"/>
  <path d="m15 26a7 7 0 0 1-7 7 7 7 0 0 1-7-7 7 7 0 0 1 7-7 7 7 0 0 1 7 7z" fill="#414143"/>
  <rect x="7" y="22" width="2" height="8" fill="#aaaaac"/>
  <rect transform="rotate(90)" x="25" y="-12" width="2" height="8" fill="#aaaaac"/>
 </g>
 <g id="open-normal" transform="translate(0,-18)">
  <rect y="50" width="16" height="16" opacity=".001"/>
  <path d="m15 58a7 7 0 0 1-7 7 7 7 0 0 1-7-7 7 7 0 0 1 7-7 7 7 0 0 1 7 7z" fill="#414143"/>
  <path transform="matrix(1.0756 0 0 .77622 -.90682 26.622)" d="m8.281 36.559 3.719 6.4414h-7.4379l1.8595-3.2207z" fill="#aaaaac"/>
 </g>
 <g id="remove-hover" transform="translate(16,-18)">
  <rect y="34" width="16" height="16" opacity=".001"/>
  <path d="m15 42a7 7 0 0 1-7 7 7 7 0 0 1-7-7 7 7 0 0 1 7-7 7 7 0 0 1 7 7z" fill="#414143"/>
  <rect transform="rotate(90)" x="41" y="-12" width="2" height="8" fill="#c8c8ca"/>
 </g>
 <g id="add-hover" transform="translate(16,-18)">
  <rect y="18" width="16" height="16" opacity=".001"/>
  <path d="m15 26a7 7 0 0 1-7 7 7 7 0 0 1-7-7 7 7 0 0 1 7-7 7 7 0 0 1 7 7z" fill="#414143"/>
  <rect x="7" y="22" width="2" height="8" fill="#c8c8ca"/>
  <rect transform="rotate(90)" x="25" y="-12" width="2" height="8" fill="#c8c8ca"/>
 </g>
 <g id="open-hover" transform="translate(16,-18)">
  <rect y="50" width="16" height="16" opacity=".001"/>
  <path d="m15 58a7 7 0 0 1-7 7 7 7 0 0 1-7-7 7 7 0 0 1 7-7 7 7 0 0 1 7 7z" fill="#414143"/>
  <path transform="matrix(1.0756 0 0 .77622 -.90682 26.622)" d="m8.281 36.559 3.719 6.4414h-7.4379l1.8595-3.2207z" fill="#c8c8ca"/>
 </g>
 <g id="remove-pressed" transform="translate(32,-18)">
  <rect y="34" width="16" height="16" opacity=".001"/>
  <path d="m15 42a7 7 0 0 1-7 7 7 7 0 0 1-7-7 7 7 0 0 1 7-7 7 7 0 0 1 7 7z" fill="#414143"/>
  <rect transform="rotate(90)" x="41" y="-12" width="2" height="8" fill="#d2d2d4"/>
 </g>
 <g id="add-pressed" transform="translate(32,-18)">
  <rect y="18" width="16" height="16" opacity=".001"/>
  <path d="m15 26a7 7 0 0 1-7 7 7 7 0 0 1-7-7 7 7 0 0 1 7-7 7 7 0 0 1 7 7z" fill="#414143"/>
  <rect x="7" y="22" width="2" height="8" fill="#d2d2d4"/>
  <rect transform="rotate(90)" x="25" y="-12" width="2" height="8" fill="#d2d2d4"/>
 </g>
 <g id="open-pressed" transform="translate(32,-18)">
  <rect y="50" width="16" height="16" opacity=".001"/>
  <path d="m15 58a7 7 0 0 1-7 7 7 7 0 0 1-7-7 7 7 0 0 1 7-7 7 7 0 0 1 7 7z" fill="#414143"/>
  <path transform="matrix(1.0756 0 0 .77622 -.90682 26.622)" d="m8.281 36.559 3.719 6.4414h-7.4379l1.8595-3.2207z" fill="#d2d2d4"/>
 </g>
</svg>
