<?xml version="1.0" encoding="UTF-8"?>
<svg width="75" height="75" version="1.1" viewBox="0 0 75 75" xmlns="http://www.w3.org/2000/svg" xmlns:xlink="http://www.w3.org/1999/xlink">
 <defs>
  <linearGradient id="shadow">
   <stop stop-opacity=".6" offset="0"/>
   <stop stop-opacity="0" offset="1"/>
  </linearGradient>
  <radialGradient id="radialGradient905" cx="95" cy="15" r="5" gradientTransform="matrix(-1.8302e-5 -2 2 7.2323e-7 -14.998 1337.5)" gradientUnits="userSpaceOnUse" xlink:href="#shadow"/>
  <linearGradient id="linearGradient929" x1="100" x2="100" y1="1147.5" y2="1137.5" gradientTransform="translate(-80 1.8371e-5)" gradientUnits="userSpaceOnUse" xlink:href="#shadow"/>
  <radialGradient id="radialGradient905-6" cx="95" cy="15" r="5" gradientTransform="matrix(2 -1.8302e-5 -7.2323e-7 2 -125 1117.5)" gradientUnits="userSpaceOnUse" xlink:href="#shadow"/>
  <linearGradient id="linearGradient929-5" x1="100" x2="100" y1="1147.5" y2="1137.5" gradientTransform="translate(1052.5 -1212.5)" gradientUnits="userSpaceOnUse" xlink:href="#shadow"/>
  <radialGradient id="radialGradient905-6-1" cx="95" cy="15" r="5" gradientTransform="matrix(1.8302e-5 2 -2 -7.2323e-7 94.998 1007.5)" gradientUnits="userSpaceOnUse" xlink:href="#shadow"/>
  <linearGradient id="linearGradient929-5-9" x1="100" x2="100" y1="1147.5" y2="1137.5" gradientTransform="translate(-160 -2345)" gradientUnits="userSpaceOnUse" xlink:href="#shadow"/>
  <radialGradient id="radialGradient905-6-1-6" cx="95" cy="15" r="5" gradientTransform="matrix(-2 1.8302e-5 7.2323e-7 -2 205 1227.5)" gradientUnits="userSpaceOnUse" xlink:href="#shadow"/>
  <linearGradient id="linearGradient929-5-9-8" x1="100" x2="100" y1="1147.5" y2="1137.5" gradientTransform="translate(-1292.5 -1132.5)" gradientUnits="userSpaceOnUse" xlink:href="#shadow"/>
 </defs>
 <g transform="translate(0 -1132.5)">
  <rect id="center" x="15" y="1147.5" width="50" height="50" fill="#141416" opacity=".95"/>
  <g id="topright">
   <path d="m75 1137.5h-10v5c2.77 0 5 2.23 5 5h5z" fill="url(#radialGradient905-6)"/>
   <path id="background-topright" d="m65 1147.5h5c0-2.77-2.23-5-5-5z" fill="#141416" opacity=".95"/>
  </g>
  <g id="bottomright">
   <path d="m75 1207.5v-10h-5c0 2.77-2.23 5-5 5v5z" fill="url(#radialGradient905-6-1)"/>
   <path id="background-bottomright" d="m65 1197.5v5c2.77 0 5-2.23 5-5z" fill="#141416" opacity=".95"/>
  </g>
  <g id="bottomleft">
   <path d="m5 1207.5h10v-5c-2.77 0-5-2.23-5-5h-5z" fill="url(#radialGradient905-6-1-6)"/>
   <path id="background-bottomleft" d="m15 1197.5h-5c0 2.77 2.23 5 5 5z" fill="#141416" opacity=".95"/>
  </g>
  <g id="top">
   <rect x="15" y="1137.5" width="50" height="5" fill="url(#linearGradient929)"/>
   <rect id="background-top" x="15" y="1142.5" width="50" height="5" fill="#141416" opacity=".95"/>
  </g>
  <g id="right">
   <rect transform="rotate(90)" x="1147.5" y="-75" width="50" height="5" fill="url(#linearGradient929-5)"/>
   <rect id="background-right" transform="rotate(90)" x="1147.5" y="-70" width="50" height="5" fill="#141416" opacity=".95"/>
  </g>
  <g id="bottom">
   <rect transform="scale(-1)" x="-65" y="-1207.5" width="50" height="5" fill="url(#linearGradient929-5-9)"/>
   <rect id="background-bottom" transform="scale(-1)" x="-65" y="-1202.5" width="50" height="5" fill="#141416" opacity=".95"/>
  </g>
  <g id="topleft">
   <path d="m5 1137.5v10h5c0-2.77 2.23-5 5-5v-5z" fill="url(#radialGradient905)"/>
   <path id="background-topleft" d="m15 1147.5v-5c-2.77 0-5 2.23-5 5z" fill="#141416" opacity=".95"/>
  </g>
  <g id="left">
   <rect transform="rotate(-90)" x="-1197.5" y="5" width="50" height="5" fill="url(#linearGradient929-5-9-8)"/>
   <rect id="background-left" transform="rotate(-90)" x="-1197.5" y="10" width="50" height="5" fill="#141416" opacity=".95"/>
  </g>
 </g>
 <g transform="translate(0 -60)">
  <rect id="hint-top-margin" x="39" y="65" width="2" height="10" fill="#f0f"/>
  <rect id="hint-right-margin" transform="rotate(90)" x="99" y="-75" width="2" height="10" fill="#f0f"/>
  <rect id="hint-bottom-margin" transform="scale(-1)" x="-41" y="-135" width="2" height="10" fill="#f0f"/>
  <rect id="hint-left-margin" transform="rotate(-90)" x="-101" y="5" width="2" height="10" fill="#f0f"/>
  <rect id="hint-stretch-borders" transform="translate(0 -1072.5)" y="1132.5" width="5" height="5" fill="#0f0"/>
 </g>
</svg>
