<svg width="75" height="75.000076" version="1.1" viewBox="0 0 75 75.000081" xmlns="http://www.w3.org/2000/svg" xmlns:xlink="http://www.w3.org/1999/xlink">
 <defs>
  <linearGradient id="fill">
   <stop style="stop-color:#141416" offset="0"/>
   <stop style="stop-color:#1e1e20" offset=".5000006"/>
   <stop style="stop-color:#28282a" offset="1"/>
  </linearGradient>
  <linearGradient id="shadow">
   <stop style="stop-color:#000000;stop-opacity:.6" offset="0"/>
   <stop style="stop-color:#000000;stop-opacity:0" offset="1"/>
  </linearGradient>
  <linearGradient id="linearGradient2745" x1="15" x2="65" y1="1147.5198" y2="1197.5197" gradientUnits="userSpaceOnUse" xlink:href="#fill"/>
  <linearGradient id="linearGradient2755" x1="35" x2="-65" y1="-1197.5198" y2="-1197.5197" gradientUnits="userSpaceOnUse" xlink:href="#fill"/>
  <linearGradient id="linearGradient2763" x1="1097.5198" x2="1197.5197" y1="-65" y2="-65" gradientUnits="userSpaceOnUse" xlink:href="#fill"/>
  <linearGradient id="linearGradient2771" x1="15" x2="115" y1="1147.5198" y2="1147.5198" gradientUnits="userSpaceOnUse" xlink:href="#fill"/>
  <linearGradient id="linearGradient2779" x1="-1147.5198" x2="-1247.5197" y1="15" y2="15" gradientUnits="userSpaceOnUse" xlink:href="#fill"/>
  <radialGradient id="radialGradient905" cx="95" cy="15.000018" r="5" gradientTransform="matrix(-1.8301974e-5,-1.9999998,2,7.2322802e-7,-14.998298,1337.5197)" gradientUnits="userSpaceOnUse" xlink:href="#shadow"/>
  <linearGradient id="linearGradient929" x1="100" x2="100" y1="1147.5198" y2="1137.5198" gradientTransform="translate(-80,1.8370605e-5)" gradientUnits="userSpaceOnUse" xlink:href="#shadow"/>
  <radialGradient id="radialGradient905-6" cx="95" cy="15.000018" r="5" gradientTransform="matrix(1.9999998,-1.8301974e-5,-7.2322802e-7,2,-125,1117.5214)" gradientUnits="userSpaceOnUse" xlink:href="#shadow"/>
  <linearGradient id="linearGradient929-5" x1="100" x2="100" y1="1147.5198" y2="1137.5198" gradientTransform="translate(1052.5197,-1212.5198)" gradientUnits="userSpaceOnUse" xlink:href="#shadow"/>
  <radialGradient id="radialGradient905-6-1" cx="95" cy="15.000018" r="5" gradientTransform="matrix(1.8301974e-5,1.9999998,-2,-7.2322802e-7,94.9983,1007.5197)" gradientUnits="userSpaceOnUse" xlink:href="#shadow"/>
  <linearGradient id="linearGradient929-5-9" x1="100" x2="100" y1="1147.5198" y2="1137.5198" gradientTransform="translate(-160.00008,-2345.0395)" gradientUnits="userSpaceOnUse" xlink:href="#shadow"/>
  <radialGradient id="radialGradient905-6-1-6" cx="95" cy="15.000018" r="5" gradientTransform="matrix(-1.9999998,1.8301974e-5,7.2322802e-7,-2,205,1227.518)" gradientUnits="userSpaceOnUse" xlink:href="#shadow"/>
  <linearGradient id="linearGradient929-5-9-8" x1="100" x2="100" y1="1147.5198" y2="1137.5198" gradientTransform="translate(-1292.5198,-1132.5197)" gradientUnits="userSpaceOnUse" xlink:href="#shadow"/>
 </defs>
 <g transform="translate(0,-1132.5197)">
  <rect id="center" x="15" y="1147.5197" width="50" height="50" style="fill:url(#linearGradient2745);opacity:.85"/>
  <g id="topright">
   <path d="m75 1137.5197h-10v5c2.77 0 5 2.23 5 5h5z" style="fill:url(#radialGradient905-6)"/>
   <path id="background-topright" d="m65 1147.5197h5c0-2.77-2.23-5-5-5z" style="fill:#1e1e20;opacity:.85"/>
  </g>
  <g id="bottomright">
   <path d="m75 1207.5197v-10h-5c0 2.77-2.23 5-5 5v5z" style="fill:url(#radialGradient905-6-1)"/>
   <path id="background-bottomright" d="m65 1197.5197v5c2.77 0 5-2.23 5-5z" style="fill:#28282a;opacity:.85"/>
  </g>
  <g id="bottomleft">
   <path d="m5 1207.5197h10v-5c-2.77 0-5-2.23-5-5h-5z" style="fill:url(#radialGradient905-6-1-6)"/>
   <path id="background-bottomleft" d="m15 1197.5197h-5c0 2.77 2.23 5 5 5z" style="fill:#1e1e20;opacity:.85"/>
  </g>
  <g id="top">
   <rect x="15" y="1137.5198" width="50" height="5" style="fill:url(#linearGradient929)"/>
   <rect id="background-top" x="15" y="1142.5197" width="50" height="5" style="fill:url(#linearGradient2771);opacity:.85"/>
  </g>
  <g id="right">
   <rect transform="rotate(90)" x="1147.5198" y="-75" width="50" height="5" style="fill:url(#linearGradient929-5)"/>
   <rect id="background-right" transform="rotate(90)" x="1147.5197" y="-70" width="50" height="5" style="fill:url(#linearGradient2763);opacity:.85"/>
  </g>
  <g id="bottom">
   <rect transform="scale(-1)" x="-65" y="-1207.5198" width="50" height="5" style="fill:url(#linearGradient929-5-9)"/>
   <rect id="background-bottom" transform="scale(-1)" x="-65" y="-1202.5197" width="50" height="5" style="fill:url(#linearGradient2755);opacity:.85"/>
  </g>
  <g id="topleft">
   <path d="m5 1137.5197v10h5c0-2.77 2.23-5 5-5v-5z" style="fill:url(#radialGradient905)"/>
   <path id="background-topleft" d="m15 1147.5197v-5c-2.77 0-5 2.23-5 5z" style="fill:#141416;opacity:.85"/>
  </g>
  <g id="left">
   <rect transform="rotate(-90)" x="-1197.5198" y="5" width="50" height="5" style="fill:url(#linearGradient929-5-9-8)"/>
   <rect id="background-left" transform="rotate(-90)" x="-1197.5198" y="10" width="50" height="5" style="fill:url(#linearGradient2779);opacity:.85"/>
  </g>
 </g>
 <g transform="translate(0,-59.999953)">
  <rect id="hint-top-margin" x="39" y="64.999969" width="2" height="10.000008" style="fill:#ff00ff"/>
  <rect id="hint-right-margin" transform="rotate(90)" x="98.999977" y="-75" width="2" height="10" style="fill:#ff00ff"/>
  <rect id="hint-bottom-margin" transform="scale(-1)" x="-41" y="-134.99997" width="2" height="9.9999924" style="fill:#ff00ff"/>
  <rect id="hint-left-margin" transform="rotate(-90)" x="-100.99997" y="5" width="2" height="10" style="fill:#ff00ff"/>
  <rect id="hint-stretch-borders" transform="translate(0,-1072.5197)" y="1132.5197" width="5" height="5" style="fill:#00ff00"/>
 </g>
</svg>
