<?xml version="1.0" encoding="UTF-8"?>
<svg width="36" height="16" version="1.1" viewBox="0 0 36 16" xmlns="http://www.w3.org/2000/svg">
 <g transform="translate(0 -1102.5)">
  <g id="radiobutton">
   <circle cx="8" cy="1110.5" r="8" opacity="0" stroke-width="1.6"/>
   <circle cx="8" cy="1110.5" r="7" fill="#6e6e70"/>
   <circle cx="8" cy="1110.5" r="6" fill="#1e1e20"/>
   <circle cx="8" cy="1110.5" r="4" fill="#6e6e70"/>
  </g>
  <g id="checkbox">
   <rect x="20" y="1102.5" width="16" height="16" ry="1" fill="#6e6e70"/>
   <path d="m32.784 1105.8c-0.33726 0.011-0.69171 0.1536-0.95673 0.4185l-5.7404 5.7404-1.9135-1.9134c-0.53003-0.5301-1.35-0.5635-1.8537-0.06l-0.11959 0.1196c-0.50367 0.5036-0.47023 1.3235 0.05979 1.8536l2.6609 2.631c0.04659 0.072 0.08653 0.1165 0.14949 0.1794l0.11958 0.12c0.04791 0.044 0.09781 0.085 0.14949 0.1195 0.01272 0.011 0.01692 0.022 0.0299 0.03 0.06416 0.042 0.14111 0.06 0.20928 0.089 0.05967 0.024 0.11691 0.045 0.17938 0.059 0.02157 0.012 0.03807 0.025 0.05979 0.03 0.16528 0.031 0.34019 0.033 0.50826 0 0.03161-0.011 0.05857-0.022 0.0897-0.03 0.22706-0.061 0.44633-0.1773 0.62785-0.3587l0.05979-0.06c0.06296-0.063 0.1029-0.1075 0.14949-0.1794l6.4878-6.4579c0.53003-0.5299 0.56347-1.3499 0.05979-1.8537l-0.11959-0.1195c-0.25184-0.2518-0.55967-0.3674-0.89693-0.3589z" fill="#1e1e20"/>
  </g>
 </g>
</svg>
