<svg width="36" height="16" version="1.1" viewBox="0 0 36 16.000001" xmlns="http://www.w3.org/2000/svg">
 <g transform="translate(0,-1102.5197)">
  <g id="radiobutton">
   <circle cx="8" cy="1110.5197" r="8" style="opacity:0;stroke-width:1.6"/>
   <circle cx="8" cy="1110.5197" r="7" style="fill:#6e6e70"/>
   <circle cx="8" cy="1110.5197" r="6" style="fill:#1e1e20"/>
   <circle cx="8" cy="1110.5197" r="4" style="fill:#6e6e70"/>
  </g>
  <g id="checkbox">
   <rect x="20" y="1102.5197" width="16" height="16" ry="1.0000468" style="fill:#6e6e70"/>
   <path d="m32.783637 1105.8003c-0.337258 0.011-0.691713 0.1536-0.956726 0.4185l-5.740355 5.7404-1.913451-1.9134c-0.530026-0.5301-1.349982-0.5635-1.853655-0.06l-0.119591 0.1196c-0.503673 0.5036-0.470231 1.3235 0.05979 1.8536l2.660893 2.631c0.04659 0.072 0.08653 0.1165 0.149489 0.1794l0.11958 0.12c0.04791 0.044 0.09781 0.085 0.149489 0.1195 0.01272 0.011 0.01692 0.022 0.0299 0.03 0.06416 0.042 0.141106 0.06 0.209285 0.089 0.05967 0.024 0.116906 0.045 0.179385 0.059 0.02157 0.012 0.03807 0.025 0.05979 0.03 0.165282 0.031 0.340191 0.033 0.508261 0 0.03161-0.011 0.05857-0.022 0.0897-0.03 0.22706-0.061 0.446334-0.1773 0.627851-0.3587l0.05979-0.06c0.06296-0.063 0.102901-0.1075 0.149488-0.1794l6.487797-6.4579c0.530026-0.5299 0.563468-1.3499 0.05979-1.8537l-0.11959-0.1195c-0.251838-0.2518-0.559672-0.3674-0.89693-0.3589z" style="fill:#1e1e20"/>
  </g>
 </g>
</svg>
