<?xml version="1.0" encoding="UTF-8"?>
<svg width="124.02" height="51.98" version="1.1" viewBox="0 0 124.02 51.98" xmlns="http://www.w3.org/2000/svg" xmlns:xlink="http://www.w3.org/1999/xlink">
 <defs>
  <linearGradient id="linearGradient1431" x1="18.785" x2="18.785" y1="258.37" y2="254.14" gradientUnits="userSpaceOnUse">
   <stop stop-color="#646466" offset="0"/>
   <stop stop-color="#7a7a7c" offset="1"/>
  </linearGradient>
 </defs>
 <g id="showbackground" transform="matrix(3.7795 0 0 3.7795 38.003 -924.53)">
  <rect x="18.52" y="254.14" width="4.233" height="4.233" fill-opacity="0"/>
  <path d="m19.285 254.4c-0.277 0-0.50023 0.22323-0.50023 0.50023v2.7037c0 0.277 0.22323 0.50023 0.50023 0.50023h2.7037c0.277 0 0.50023-0.22323 0.50023-0.50023v-2.7037c0-0.277-0.22323-0.50023-0.50023-0.50023z" fill="url(#linearGradient1431)" stroke-width=".26458"/>
  <text transform="scale(1.0194 .98099)" x="18.953199" y="262.57074" font-family="'Noto Sans'" font-size="11.285px" letter-spacing="0px" stroke-width=".28212" word-spacing="0px" style="line-height:1.25" xml:space="preserve"><tspan x="18.953199" y="262.57074" fill="#1e1e20" font-family="'Noto Sans'" font-size="3.7616px" font-weight="bold" stroke-width=".28212" style="font-variant-caps:normal;font-variant-east-asian:normal;font-variant-ligatures:normal;font-variant-numeric:normal">A</tspan></text>
 </g>
 <g id="return-to-source" transform="matrix(3.7795 0 0 3.7795 2.0031 -942.54)">
  <rect x="18.52" y="254.14" width="4.233" height="4.233" fill-opacity="0"/>
  <path transform="matrix(.26458 0 0 .26458 -.52917 249.37)" d="m74.891 19c-1.0469 0-1.8906 0.8437-1.8906 1.8906v10.219c0 1.0469 0.8437 1.8906 1.8906 1.8906h10.219c1.0469 0 1.8906-0.8437 1.8906-1.8906v-10.219c0-1.0469-0.8437-1.8906-1.8906-1.8906zm2.1094 1h6c0-0.04158-3 4-3 4zm-3 5h12v2h-12zm6 3s3 4.0416 3 4h-6z" fill="#7a7a7c"/>
 </g>
 <g id="add" transform="matrix(3.7795 0 0 3.7795 2.0031 -942.54)">
  <rect x="9" y="258.9" width="4.233" height="4.233" fill="none"/>
  <rect x="9.53" y="259.43" width="3.175" height="3.175" fill="none"/>
  <path transform="matrix(.26458 0 0 .26458 -.52917 249.37)" d="m43 38v5h-5v2h5v5h2v-5h5v-2h-5v-5z" color="#31363b" fill="#7a7a7c"/>
 </g>
 <g id="remove" transform="matrix(3.7795 0 0 3.7795 2.0032 -942.54)">
  <rect x="13.76" y="258.9" width="4.233" height="4.233" fill="none"/>
  <rect x="14.29" y="259.43" width="3.175" height="3.175" fill="none"/>
  <rect transform="rotate(90)" x="260.75" y="-17.46" width=".529" height="3.175" color="#31363b" fill="#7a7a7c"/>
 </g>
 <g id="filter" transform="matrix(3.7795 0 0 3.7795 2.0032 -942.54)">
  <rect x="18.52" y="258.9" width="4.233" height="4.233" fill="none"/>
  <rect x="19.05" y="259.43" width="3.175" height="3.175" fill="none"/>
  <path transform="matrix(.26458 0 0 .26458 -.60971 244.14)" d="m76.305 57.787-1 1v1l3 5.2598v2.7422l3 1.9961v2e-3h1v-4.7402l3-5.2598v-1l-1-1h-8zm1 2h3l-1 1v1z" color="#31363b" fill="#7a7a7c" fill-rule="evenodd"/>
 </g>
 <g id="configure" transform="matrix(3.7795 0 0 3.7795 2.0031 -942.54)">
  <rect x="4.23" y="249.38" width="4.233" height="4.233" fill-opacity="0"/>
  <g transform="matrix(.26458 0 0 .26458 -107.97 136.13)">
   <path d="m430.25 429-0.1543 1.8438a5.5 5.5 0 0 0-1.6074 0.92969l-1.6758-0.78906-1.75 3.0312 1.5215 1.0566a5.5 5.5 0 0 0-0.084 0.92773 5.5 5.5 0 0 0 0.0801 0.93164l-1.5176 1.0527 1.75 3.0312 1.6719-0.7871a5.5 5.5 0 0 0 1.6113 0.92382l0.1543 1.8477h3.5l0.1543-1.8438a5.5 5.5 0 0 0 1.6074-0.92969l1.6758 0.78906 1.75-3.0312-1.5215-1.0566a5.5 5.5 0 0 0 0.084-0.92773 5.5 5.5 0 0 0-0.0801-0.93164l1.5176-1.0527-1.75-3.0312-1.6719 0.7871a5.5 5.5 0 0 0-1.6113-0.92382l-0.1543-1.8477zm1.75 5a2 2 0 0 1 2 2 2 2 0 0 1-2 2 2 2 0 0 1-2-2 2 2 0 0 1 2-2z" enable-background="new" fill="#7a7a7c"/>
  </g>
 </g>
 <g id="rotate" transform="matrix(3.7795 0 0 3.7795 2.0031 -942.54)">
  <rect x="9" y="249.38" width="4.233" height="4.233" fill-opacity="0"/>
  <g transform="matrix(.26458 0 0 .26458 8.9964 249.37)" enable-background="new">
   <g transform="translate(-425 99.016)">
    <path d="m433-98c-3.866 0-7 3.134-7 7s3.134 7 7 7c3.1748 0 5.8615-2.1032 6.7188-5h-2.1562c-0.77427 1.7595-2.5168 3-4.5625 3-2.7614 0-5-2.2386-5-5s2.2386-5 5-5c1.3816 0 2.6155 0.57505 3.5156 1.4844l-2.5156 2.5156h6v-6l-2.0527 2.0527c-1.2685-1.2648-3.0134-2.0527-4.9473-2.0527z" fill="#7a7a7c"/>
   </g>
  </g>
 </g>
 <g id="size-vertical" transform="matrix(3.7795 0 0 3.7795 2.0031 -942.54)">
  <rect x="18.52" y="249.38" width="4.233" height="4.233" fill-opacity="0"/>
  <path transform="matrix(.26458 0 0 .26458 -.52917 249.37)" d="m80 1-3 4h6c0 0.041575-3-4-3-4zm0 5a2 2 0 0 0-2 2 2 2 0 0 0 2 2 2 2 0 0 0 2-2 2 2 0 0 0-2-2zm-3 5 3 4s3-4.0416 3-4z" fill="#7a7a7c"/>
 </g>
 <g id="size-horizontal" transform="matrix(3.7795 0 0 3.7795 2.0031 -942.54)">
  <rect x="23.28" y="249.38" width="4.233" height="4.233" fill-opacity="0"/>
  <path d="m27.252 251.49-1.0583-0.79375v1.5875c-0.011 0 1.0583-0.79375 1.0583-0.79375zm-1.3229 0a0.52917 0.52917 0 0 0-0.52917-0.52917 0.52917 0.52917 0 0 0-0.52917 0.52917 0.52917 0.52917 0 0 0 0.52917 0.52916 0.52917 0.52917 0 0 0 0.52917-0.52916zm-1.3229-0.79375-1.0583 0.79375s1.0693 0.79375 1.0583 0.79375z" fill="#7a7a7c"/>
 </g>
 <g id="move" transform="matrix(3.7795 0 0 3.7795 2.0031 -942.54)">
  <rect x="13.76" y="249.38" width="4.233" height="4.233" fill-opacity="0"/>
  <path transform="matrix(.26458 0 0 .26458 -.52917 249.37)" d="m62 1-3 4h6c0 0.041575-3-4-3-4zm3 4v6c-0.04157 0 4-3 4-3zm0 6h-6l3 4s3-4.0416 3-4zm-6 0v-6l-4 3s4.0416 3 4 3zm3-5a2 2 0 0 0-2 2 2 2 0 0 0 2 2 2 2 0 0 0 2-2 2 2 0 0 0-2-2z" fill="#7a7a7c"/>
 </g>
 <g id="size-diagonal-tl2br" transform="matrix(3.7795 0 0 3.7795 2.0031 -942.54)">
  <rect x="-.53" y="254.14" width="4.233" height="4.233" fill-opacity="0"/>
  <g transform="matrix(.26458 0 0 .26458 -.52906 254.14)" enable-background="new">
   <g transform="translate(-265 79.003)">
    <path transform="translate(265 -97)" d="m2 20c-1 0-1 1-1 1v4h2v-1.543l3.2422 3.2422 1.4141-1.4141-3.2852-3.2852h1.6289v-2zm8 0v2h3v3h2v-4c0-1-1-1-1-1zm-9 7v4c0 1 1 1 1 1h4v-2h-3v-3zm12 0v3h-3v2h4s1 0 1-1v-4z" color="#bebebe" fill="#7a7a7c"/>
   </g>
  </g>
 </g>
 <g id="maximize" transform="matrix(3.7795 0 0 3.7795 2.0031 -942.54)">
  <rect x="4.23" y="254.14" width="4.233" height="4.233" fill-opacity="0"/>
  <g transform="matrix(-.26458 0 0 .26458 8.4666 254.14)" enable-background="new">
   <g transform="translate(-265 79.003)">
    <path transform="translate(247 -97)" d="m20 20c-1 0-1 1-1 1v4h2v-1.543l3.2422 3.2422 1.4141-1.4141-3.2852-3.2852h1.6289v-2zm8 0v2h3v3h2v-4c0-1-1-1-1-1zm-9 7v4c0 1 1 1 1 1h4v-2h-3v-3zm12 0v3h-3v2h4s1 0 1-1v-4z" color="#bebebe" fill="#7a7a7c"/>
   </g>
  </g>
 </g>
 <g id="unmaximize" transform="matrix(3.7795 0 0 3.7795 2.0031 -942.54)">
  <rect x="9" y="254.14" width="4.233" height="4.233" fill-opacity="0"/>
  <path d="m9.525 254.67s-0.26458 0-0.26458 0.26458v1.0583h0.52917v-0.79375h0.79375v-0.52916z" color="#bebebe" fill="#7a7a7c"/>
  <path d="m12.235 254.75-0.85783 0.85783v-0.40825h-0.52917v1.0583s1e-6 0.26459 0.26458 0.26459h1.0583v-0.52917h-0.43098l0.8692-0.8692z" color="#bebebe" fill="#7a7a7c"/>
  <path d="m9.2604 256.52v1.0583c0 0.26458 0.26458 0.26459 0.26458 0.26459h1.0583v-0.52917h-0.79375v-0.79375z" color="#bebebe" fill="#7a7a7c"/>
  <path d="m12.435 256.52v0.79375h-0.79375v0.52917h1.0583s0.26458-1e-5 0.26458-0.26459v-1.0583z" color="#bebebe" fill="#7a7a7c"/>
 </g>
 <g id="size-diagonal-tr2bl" transform="matrix(3.7795 0 0 3.7795 2.0031 -942.54)">
  <rect x="28.05" y="249.38" width="4.233" height="4.233" fill-opacity="0"/>
  <g transform="matrix(-.26458 0 0 .26458 32.279 249.37)" enable-background="new">
   <g transform="translate(-265 79.003)">
    <path transform="matrix(-1 0 0 1 389 -79)" d="m110 2s-1 0-1 1v4h2v-3h3v-2zm8 0v2h1.6289l-3.2852 3.2852 1.4141 1.4141 3.2422-3.2422v1.543h2v-4s0-1-1-1zm-3.7578 5.3008-3.2422 3.2422v-1.543h-2v4s0 1 1 1h4v-2h-1.6289l3.2852-3.2852zm6.7578 1.6992v3h-3v2h4s1 0 1-1v-4z" color="#bebebe" fill="#7a7a7c"/>
   </g>
  </g>
 </g>
 <g id="status" transform="matrix(3.7795 0 0 3.7795 2.0031 -942.54)">
  <rect x="13.76" y="254.14" width="4.233" height="4.233" fill-opacity="0"/>
  <g transform="matrix(.26458 0 0 .26458 13.75 254.01)" enable-background="new">
   <g transform="translate(-345 -61)">
    <path d="m357.84 64.031c-0.21888 0.0473-0.42059 0.17053-0.5625 0.34375l-6.2812 7.1875-2.25-2.25c-0.37633-0.37638-1.0612-0.3764-1.4376-5e-5 -0.37635 0.37636-0.37633 1.0612 5e-5 1.4376l3 3 0.78125 0.75 0.6875-0.8125 7-8c0.56742-0.61773-0.11583-1.8248-0.9375-1.6562z" color="#000000" enable-background="accumulate" fill="#7a7a7c" style="text-decoration-line:none;text-indent:0;text-transform:none"/>
   </g>
  </g>
 </g>
 <g id="collapse" transform="matrix(3.7795 0 0 3.7795 2.0031 -942.54)">
  <rect x="23.28" y="254.14" width="4.233" height="4.233" fill-opacity="0"/>
  <path transform="matrix(.26458 0 0 .26458 -.52917 249.37)" d="m95 19 3 4s3-4.0416 3-4zm-4 6v2h14v-2zm7 4-3 4h6c0 0.04158-3-4-3-4z" fill="#7a7a7c"/>
 </g>
 <g id="restore" transform="matrix(3.7795 0 0 3.7795 2.0031 -942.54)">
  <rect x="28.05" y="254.14" width="4.233" height="4.233" fill-opacity="0"/>
  <path transform="matrix(.26458 0 0 .26458 -.52917 249.37)" d="m116 19-3 4h6c0 0.04158-3-4-3-4zm-7 6v2h14v-2zm4 4 3 4s3-4.0416 3-4z" fill="#7a7a7c"/>
 </g>
 <g id="help" transform="matrix(3.7795 0 0 3.7795 2.0031 -942.54)">
  <rect x="-.53" y="258.9" width="4.233" height="4.233" fill-opacity="0"/>
  <g transform="matrix(.26458 0 0 .26458 -118 149.89)">
   <path d="m453 427h-2v-2h2zm2.07-7.75-0.9 0.92c-0.72 0.73-1.17 1.33-1.17 2.83h-2v-0.5c0-1.1 0.45-2.1 1.17-2.83l1.24-1.26c0.37-0.36 0.59-0.86 0.59-1.41 0-1.1-0.9-2-2-2s-2 0.9-2 2h-2c0-2.21 1.79-4 4-4s4 1.79 4 4c0 0.88-0.36 1.68-0.93 2.25z" enable-background="new" fill="#7a7a7c"/>
  </g>
 </g>
 <g id="delete" transform="matrix(3.7795 0 0 3.7795 2.0031 -942.54)">
  <rect x="4.23" y="258.9" width="4.233" height="4.233" fill-opacity="0"/>
  <g transform="matrix(.26458 0 0 .26458 4.2334 258.9)" enable-background="new">
   <g transform="translate(-385 78.996)" fill="#da4453">
    <path d="m387-74v9c5e-5 0.52358 0.47642 0.99995 1 1h8 1c0.52358-5e-5 0.99995-0.47642 1-1v-9z" color="#000000" enable-background="accumulate" style="text-decoration-line:none;text-indent:0;text-transform:none"/>
    <path d="m386-76v1l13-0.0034-2e-4 -0.99664c0-1-0.9998-1.0034-0.9998-1.0034h-3s0-1-1-1h-3c-1 0-1 1-1 1h-3s-1.0002 3e-3 -1.0002 1.0034z" color="#000000" enable-background="accumulate" style="text-decoration-line:none;text-indent:0;text-transform:none"/>
   </g>
  </g>
 </g>
 <g id="menu" transform="translate(-39.997 -20.019)">
  <rect x="40" y="20.02" width="15.999" height="15.999" opacity=".001"/>
  <path d="m48 21a2 2 0 0 0-2 2 2 2 0 0 0 2 2 2 2 0 0 0 2-2 2 2 0 0 0-2-2zm0 5a2 2 0 0 0-2 2 2 2 0 0 0 2 2 2 2 0 0 0 2-2 2 2 0 0 0-2-2zm0 5a2 2 0 0 0-2 2 2 2 0 0 0 2 2 2 2 0 0 0 2-2 2 2 0 0 0-2-2z" fill="#7a7a7c"/>
 </g>
 <g id="close" transform="translate(-39.997 -20.019)">
  <rect x="130" y="55.99" width="16" height="16" opacity=".001"/>
  <g transform="matrix(1.4994 0 0 1.5 36.042 -724.98)" enable-background="new">
   <g transform="translate(19,-242)">
    <path d="m45 764h1c0.01037-1.2e-4 0.02079-4.6e-4 0.03125 0 0.25495 0.0112 0.50987 0.12858 0.6875 0.3125l2.2812 2.2812 2.3125-2.2812c0.26562-0.2305 0.44667-0.3055 0.6875-0.3125h1v1c0 0.28647-0.03434 0.55065-0.25 0.75l-2.2812 2.2812 2.25 2.25c0.18819 0.18817 0.28124 0.45345 0.28125 0.71875v1h-1c-0.2653-1e-5 -0.53059-0.0931-0.71875-0.28125l-2.2812-2.2812-2.2812 2.2812c-0.18816 0.18819-0.45346 0.28125-0.71875 0.28125h-1v-1c-3e-6 -0.26529 0.09306-0.53058 0.28125-0.71875l2.2812-2.25-2.2812-2.2812c-0.21074-0.19463-0.30316-0.46925-0.28125-0.75z" color="#bebebe" enable-background="new" fill="#da4453" style="text-decoration-line:none;text-indent:0;text-transform:none"/>
   </g>
  </g>
 </g>
</svg>
