<svg width="124.01764" height="51.979801" version="1.1" viewBox="0 0 124.01764 51.979801" xmlns="http://www.w3.org/2000/svg">
 <g id="return-to-source" transform="matrix(3.7795277,0,0,3.7795277,2.0031496,-942.53864)">
  <rect x="18.52" y="254.14" width="4.2329998" height="4.2329998" style="fill-opacity:0"/>
  <path transform="matrix(.26458333 0 0 .26458333 -.52916771 249.37493)" d="m74.890625 19c-1.046929 0-1.890625 0.843696-1.890625 1.890625v10.21875c0 1.046929 0.843696 1.890625 1.890625 1.890625h10.21875c1.046929 0 1.890625-0.843696 1.890625-1.890625v-10.21875c0-1.046929-0.843696-1.890625-1.890625-1.890625zm2.109375 1h6c0-0.04158-3 4-3 4zm-3 5h12v2h-12zm6 3s3 4.041575 3 4h-6z" style="fill:#7a7a7c"/>
 </g>
 <g id="add" transform="matrix(3.7795277,0,0,3.7795277,2.0031496,-942.53864)">
  <rect x="9" y="258.89999" width="4.2329998" height="4.2329998" style="fill:none"/>
  <rect x="9.5299997" y="259.42999" width="3.175" height="3.175" style="fill:none"/>
  <path transform="matrix(.26458333 0 0 .26458333 -.52916771 249.37493)" d="m43 38v5h-5v2h5v5h2v-5h5v-2h-5v-5z" style="color:#31363b;fill:#7a7a7c"/>
 </g>
 <g id="remove" transform="matrix(3.7795277,0,0,3.7795277,2.0031696,-942.53864)">
  <rect x="13.76" y="258.89999" width="4.2329998" height="4.2329998" style="fill:none"/>
  <rect x="14.29" y="259.42999" width="3.175" height="3.175" style="fill:none"/>
  <rect transform="rotate(90)" x="260.75" y="-17.459999" width=".52899998" height="3.175" style="color:#31363b;fill:#7a7a7c"/>
 </g>
 <g id="filter" transform="matrix(3.7795277,0,0,3.7795277,2.0031696,-942.53864)">
  <rect x="18.52" y="258.89999" width="4.2329998" height="4.2329998" style="fill:none"/>
  <rect x="19.049999" y="259.42999" width="3.175" height="3.175" style="fill:none"/>
  <path transform="matrix(.26458333 0 0 .26458333 -.60971093 244.13962)" d="m76.304688 57.787109-1 1v1l3 5.259766v2.742234l3 1.996094v2e-3h1v-4.740234l3-5.259766v-1l-1-1h-8zm1 2h3l-1 1v1z" style="color:#31363b;fill-rule:evenodd;fill:#7a7a7c"/>
 </g>
 <g id="configure" transform="matrix(3.7795277,0,0,3.7795277,2.0031496,-942.53864)">
  <rect x="4.23" y="249.38" width="4.2329998" height="4.2329998" style="fill-opacity:0"/>
  <g transform="matrix(.26458333 0 0 .26458333 -107.96654 136.13326)">
   <path d="m430.25 429-0.1543 1.84375a5.5 5.5 0 0 0-1.60742 0.92969l-1.67578-0.78906-1.75 3.03124 1.52148 1.05665a5.5 5.5 0 0 0-0.084 0.92773 5.5 5.5 0 0 0 0.0801 0.93164l-1.51758 1.05274 1.75 3.03124 1.67188-0.7871a5.5 5.5 0 0 0 1.61132 0.92382l0.1543 1.84766h3.5l0.1543-1.84375a5.5 5.5 0 0 0 1.60742-0.92969l1.67578 0.78906 1.75-3.03124-1.52148-1.05665a5.5 5.5 0 0 0 0.084-0.92773 5.5 5.5 0 0 0-0.0801-0.93164l1.51758-1.05274-1.75-3.03124-1.67188 0.7871a5.5 5.5 0 0 0-1.61132-0.92382l-0.1543-1.84766zm1.75 5a2 2 0 0 1 2 2 2 2 0 0 1-2 2 2 2 0 0 1-2-2 2 2 0 0 1 2-2z" style="enable-background:new;fill:#7a7a7c"/>
  </g>
 </g>
 <g id="rotate" transform="matrix(3.7795277,0,0,3.7795277,2.0031496,-942.53864)">
  <rect x="9" y="249.38" width="4.2329998" height="4.2329998" style="fill-opacity:0"/>
  <g transform="matrix(.26458333 0 0 .26458333 8.9964326 249.37058)" style="enable-background:new">
   <g transform="translate(-425.00247,99.016457)">
    <path d="m433.0002-98c-3.86599 0-7 3.13401-7 7s3.13401 7 7 7c3.17482 0 5.86154-2.10317 6.71875-5h-2.15625c-0.77427 1.75952-2.51681 3-4.5625 3-2.76142 0-5-2.23858-5-5s2.23858-5 5-5c1.38155 0 2.61548 0.575049 3.51562 1.484375l-2.51562 2.515625h6v-6l-2.05273 2.052734c-1.2685-1.264757-3.01339-2.052734-4.94727-2.052734z" style="fill:#7a7a7c"/>
   </g>
  </g>
 </g>
 <g id="size-vertical" transform="matrix(3.7795277,0,0,3.7795277,2.0031496,-942.53864)">
  <rect x="18.52" y="249.38" width="4.2329998" height="4.2329998" style="fill-opacity:0"/>
  <path transform="matrix(.26458333 0 0 .26458333 -.52916771 249.37493)" d="m80 1-3 4h6c0 0.041575-3-4-3-4zm0 5a2 2 0 0 0-2 2 2 2 0 0 0 2 2 2 2 0 0 0 2-2 2 2 0 0 0-2-2zm-3 5 3 4s3-4.041575 3-4z" style="fill:#7a7a7c"/>
 </g>
 <g id="size-horizontal" transform="matrix(3.7795277,0,0,3.7795277,2.0031496,-942.53864)">
  <rect x="23.280001" y="249.38" width="4.2329998" height="4.2329998" style="fill-opacity:0"/>
  <path d="m27.252082 251.4916-1.058333-0.79375v1.5875c-0.011 0 1.058333-0.79375 1.058333-0.79375zm-1.322917 0a0.52916666 0.52916666 0 0 0-0.529166-0.52917 0.52916666 0.52916666 0 0 0-0.529167 0.52917 0.52916666 0.52916666 0 0 0 0.529167 0.52916 0.52916666 0.52916666 0 0 0 0.529166-0.52916zm-1.322916-0.79375-1.058334 0.79375s1.069334 0.79375 1.058334 0.79375z" style="fill:#7a7a7c"/>
 </g>
 <g id="move" transform="matrix(3.7795277,0,0,3.7795277,2.0031496,-942.53864)">
  <rect x="13.76" y="249.38" width="4.2329998" height="4.2329998" style="fill-opacity:0"/>
  <path transform="matrix(.26458333 0 0 .26458333 -.52916771 249.37493)" d="m62 1-3 4h6c0 0.041575-3-4-3-4zm3 4v6c-0.04157 0 4-3 4-3zm0 6h-6l3 4s3-4.041575 3-4zm-6 0v-6l-4 3s4.041575 3 4 3zm3-5a2 2 0 0 0-2 2 2 2 0 0 0 2 2 2 2 0 0 0 2-2 2 2 0 0 0-2-2z" style="fill:#7a7a7c"/>
 </g>
 <g id="size-diagonal-tl2br" transform="matrix(3.7795277,0,0,3.7795277,2.0031496,-942.53864)">
  <rect x="-.52999997" y="254.14" width="4.2329998" height="4.2329998" style="fill-opacity:0"/>
  <g transform="matrix(.26458333 0 0 .26458333 -.52906453 254.13655)" style="enable-background:new">
   <g transform="translate(-265.00059,79.003339)">
    <path transform="translate(265.0002,-97.000013)" d="m2 20c-1 0-1 1-1 1v4h2v-1.542969l3.2421875 3.242188 1.4140625-1.414063-3.2851562-3.285156h1.6289062v-2zm8 0v2h3v3h2v-4c0-1-1-1-1-1zm-9 7v4c0 1 1 1 1 1h4v-2h-3v-3zm12 0v3h-3v2h4s1 0 1-1v-4z" style="color:#bebebe;fill:#7a7a7c"/>
   </g>
  </g>
 </g>
 <g id="maximize" transform="matrix(3.7795277,0,0,3.7795277,2.0031496,-942.53864)">
  <rect x="4.23" y="254.14" width="4.2329998" height="4.2329998" style="fill-opacity:0"/>
  <g transform="matrix(-.26458333 0 0 .26458333 8.4665622 254.13655)" style="enable-background:new">
   <g transform="translate(-265.00059,79.003339)">
    <path transform="translate(247.0002,-97.000013)" d="m20 20c-1 0-1 1-1 1v4h2v-1.542969l3.242188 3.242188 1.414062-1.414063-3.285156-3.285156h1.628906v-2zm8 0v2h3v3h2v-4c0-1-1-1-1-1zm-9 7v4c0 1 1 1 1 1h4v-2h-3v-3zm12 0v3h-3v2h4s1 0 1-1v-4z" style="color:#bebebe;fill:#7a7a7c"/>
   </g>
  </g>
 </g>
 <g id="unmaximize" transform="matrix(3.7795277,0,0,3.7795277,2.0031496,-942.53864)">
  <rect x="9" y="254.14" width="4.2329998" height="4.2329998" style="fill-opacity:0"/>
  <path d="m9.5249988 254.6666s-0.2645833 0-0.2645833 0.26458v1.05833h0.5291667v-0.79375h0.7937498v-0.52916z" style="color:#bebebe;fill:#7a7a7c"/>
  <path d="m12.234911 254.74618-0.857829 0.85783v-0.40825h-0.529167v1.05833s1e-6 0.26459 0.264584 0.26459h1.058333v-0.52917h-0.430981l0.869197-0.8692z" style="color:#bebebe;fill:#7a7a7c"/>
  <path d="m9.2604155 256.51868v1.05833c0 0.26458 0.2645833 0.26459 0.2645833 0.26459h1.0583332v-0.52917h-0.7937498v-0.79375z" style="color:#bebebe;fill:#7a7a7c"/>
  <path d="m12.435415 256.51868v0.79375h-0.79375v0.52917h1.058334s0.264583-1e-5 0.264583-0.26459v-1.05833z" style="color:#bebebe;fill:#7a7a7c"/>
 </g>
 <g id="size-diagonal-tr2bl" transform="matrix(3.7795277,0,0,3.7795277,2.0031496,-942.53864)">
  <rect x="28.049999" y="249.38" width="4.2329998" height="4.2329998" style="fill-opacity:0"/>
  <g transform="matrix(-.26458333 0 0 .26458333 32.279062 249.37405)" style="enable-background:new">
   <g transform="translate(-265.00059,79.003339)">
    <path transform="matrix(-.99999998 0 0 .99999998 389.0002 -79.000013)" d="m110 2s-1 0-1 1v4h2v-3h3v-2zm8 0v2h1.62891l-3.28516 3.2851562 1.41406 1.4140626 3.24219-3.2421876v1.5429688h2v-4s0-1-1-1zm-3.75781 5.3007812-3.24219 3.2421878v-1.542969h-2v4s0 1 1 1h4v-2h-1.62891l3.28516-3.2851562zm6.75781 1.6992188v3h-3v2h4s1 0 1-1v-4z" style="color:#bebebe;fill:#7a7a7c"/>
   </g>
  </g>
 </g>
 <g id="status" transform="matrix(3.7795277,0,0,3.7795277,2.0031496,-942.53864)">
  <rect x="13.76" y="254.14" width="4.2329998" height="4.2329998" style="fill-opacity:0"/>
  <g transform="matrix(.26458333 0 0 .26458333 13.750344 254.00514)" style="enable-background:new">
   <g transform="translate(-345.00021,-61)">
    <path d="m357.84395 64.03125c-0.21888 0.0473-0.42059 0.17053-0.5625 0.34375l-6.28125 7.1875-2.25-2.25c-0.37633-0.37638-1.06119-0.3764-1.43755-5e-5 -0.37635 0.37636-0.37633 1.06122 5e-5 1.43755l3 3 0.78125 0.75 0.6875-0.8125 7-8c0.56742-0.61773-0.11583-1.8248-0.9375-1.65625z" style="color:#000000;enable-background:accumulate;fill:#7a7a7c;text-decoration-line:none;text-indent:0;text-transform:none"/>
   </g>
  </g>
 </g>
 <g id="collapse" transform="matrix(3.7795277,0,0,3.7795277,2.0031496,-942.53864)">
  <rect x="23.280001" y="254.14" width="4.2329998" height="4.2329998" style="fill-opacity:0"/>
  <path transform="matrix(.26458333 0 0 .26458333 -.52916771 249.37493)" d="m95 19 3 4s3-4.041575 3-4zm-4 6v2h14v-2zm7 4-3 4h6c0 0.04158-3-4-3-4z" style="fill:#7a7a7c"/>
 </g>
 <g id="restore" transform="matrix(3.7795277,0,0,3.7795277,2.0031496,-942.53864)">
  <rect x="28.049999" y="254.14" width="4.2329998" height="4.2329998" style="fill-opacity:0"/>
  <path transform="matrix(.26458333 0 0 .26458333 -.52916771 249.37493)" d="m116 19-3 4h6c0 0.04158-3-4-3-4zm-7 6v2h14v-2zm4 4 3 4s3-4.041575 3-4z" style="fill:#7a7a7c"/>
 </g>
 <g id="help" transform="matrix(3.7795277,0,0,3.7795277,2.0031496,-942.53864)">
  <rect x="-.52999997" y="258.89999" width="4.2329998" height="4.2329998" style="fill-opacity:0"/>
  <g transform="matrix(.26458333 0 0 .26458333 -118.00412 149.89071)">
   <path d="m452.99983 427.00336h-2v-2h2zm2.07-7.75-0.9 0.92c-0.72 0.73-1.17 1.33-1.17 2.83h-2v-0.5c0-1.1 0.45-2.1 1.17-2.83l1.24-1.26c0.37-0.36 0.59-0.86 0.59-1.41 0-1.1-0.9-2-2-2s-2 0.9-2 2h-2c0-2.21 1.79-4 4-4s4 1.79 4 4c0 0.88-0.36 1.68-0.93 2.25z" style="enable-background:new;fill:#7a7a7c"/>
  </g>
 </g>
 <g id="delete" transform="matrix(3.7795277,0,0,3.7795277,2.0031496,-942.53864)">
  <rect x="4.23" y="258.89999" width="4.2329998" height="4.2329998" style="fill-opacity:0"/>
  <g transform="matrix(.26458333 0 0 .26458333 4.233393 258.90089)" style="enable-background:new">
   <g transform="translate(-385.00043,78.996356)">
    <path d="m387.0002-74v9c5e-5 0.52358 0.47642 0.99995 1 1h8 1c0.52358-5e-5 0.99995-0.47642 1-1v-9z" style="color:#000000;enable-background:accumulate;fill:#da4453;text-decoration-line:none;text-indent:0;text-transform:none"/>
    <path d="m386.0002-76v1l13.0002-0.0034-2e-4 -0.99664c0-1-0.9998-1.00336-0.9998-1.00336h-3s0-1-1-1h-3c-1 0-1 1-1 1h-3s-1.0002 3e-3 -1.0002 1.00336z" style="color:#000000;enable-background:accumulate;fill:#da4453;text-decoration-line:none;text-indent:0;text-transform:none"/>
   </g>
  </g>
 </g>
 <g id="menu" transform="translate(-39.99685,-20.019136)">
  <rect x="40" y="20.02" width="15.999" height="15.999" style="fill:#000000;opacity:.00100002"/>
  <path d="m48 21a2 2 0 0 0-2 2 2 2 0 0 0 2 2 2 2 0 0 0 2-2 2 2 0 0 0-2-2zm0 5a2 2 0 0 0-2 2 2 2 0 0 0 2 2 2 2 0 0 0 2-2 2 2 0 0 0-2-2zm0 5a2 2 0 0 0-2 2 2 2 0 0 0 2 2 2 2 0 0 0 2-2 2 2 0 0 0-2-2z" style="fill:#7a7a7c"/>
 </g>
 <g id="close" transform="translate(-39.99685,-20.019136)">
  <rect x="130" y="55.990002" width="16" height="16" style="fill:#000000;opacity:.00100002"/>
  <g transform="matrix(1.4994104,0,0,1.4999561,36.042451,-724.97673)" style="enable-background:new;fill:#000000">
   <g transform="translate(19,-242)" style="fill:#000000">
    <path d="m45 764h1c0.01037-1.2e-4 0.02079-4.6e-4 0.03125 0 0.254951 0.0112 0.50987 0.12858 0.6875 0.3125l2.28125 2.28125 2.3125-2.28125c0.265625-0.2305 0.446672-0.3055 0.6875-0.3125h1v1c0 0.28647-0.03434 0.55065-0.25 0.75l-2.28125 2.28125 2.25 2.25c0.188188 0.18817 0.281242 0.45345 0.28125 0.71875v1h-1c-0.265301-1e-5 -0.530586-0.0931-0.71875-0.28125l-2.28125-2.28125-2.28125 2.28125c-0.188164 0.18819-0.45346 0.28125-0.71875 0.28125h-1v-1c-3e-6 -0.26529 0.09306-0.53058 0.28125-0.71875l2.28125-2.25-2.28125-2.28125c-0.210742-0.19463-0.30316-0.46925-0.28125-0.75z" style="color:#bebebe;enable-background:new;fill:#da4453;text-decoration-line:none;text-indent:0;text-transform:none"/>
   </g>
  </g>
 </g>
</svg>
