<?xml version="1.0" encoding="UTF-8"?>
<svg width="71.469" height="125" version="1.1" viewBox="0 0 71.469 125" xmlns="http://www.w3.org/2000/svg">
 <g transform="translate(0 -10)">
  <g id="vertical-centerindicator" transform="translate(-6,101)">
   <rect x="11" y="31" width="42" height="3" opacity="0"/>
   <rect x="11" y="32" width="42" height="1" fill="#fff" opacity=".18"/>
  </g>
  <g id="horizontal-centerindicator" transform="translate(-7,101)">
   <rect transform="rotate(-90)" x="-31" y="7" width="42" height="3" opacity="0" stroke-width="1.7321"/>
   <rect transform="rotate(-90)" x="-31" y="8" width="42" height="1" fill="#fff" opacity=".18"/>
  </g>
  <rect id="south-center" x="60" y="25" width="5" height="5" fill="#1e1e20"/>
  <g id="south-top" transform="rotate(90,37.5,47.5)">
   <rect x="10" y="20" width="5" height="5" fill="#1e1e20"/>
   <rect x="10" y="20" width="1" height="5" fill="#fff" opacity=".18"/>
  </g>
  <g id="south-bottom" transform="rotate(90,37.5,47.5)">
   <rect x="20" y="20" width="5" height="5" fill="#1e1e20"/>
   <rect x="24" y="20" width="1" height="5" fill="#fff" opacity=".18"/>
  </g>
  <rect id="north-center" x="50" y="25" width="5" height="5" fill="#1e1e20"/>
  <g id="north-top" transform="rotate(90,32.5,42.5)">
   <rect x="10" y="20" width="5" height="5" fill="#1e1e20"/>
   <rect x="10" y="20" width="1" height="5" fill="#fff" opacity=".18"/>
  </g>
  <g id="north-bottom" transform="rotate(90,32.5,42.5)">
   <rect x="20" y="20" width="5" height="5" fill="#1e1e20"/>
   <rect x="24" y="20" width="1" height="5" fill="#fff" opacity=".18"/>
  </g>
  <rect id="west-center" x="35" y="20" width="5" height="5" fill="#1e1e20"/>
  <g id="west-left" transform="translate(20)">
   <rect x="10" y="20" width="5" height="5" fill="#1e1e20"/>
   <rect x="10" y="20" width="1" height="5" fill="#fff" opacity=".18"/>
  </g>
  <g id="west-right" transform="translate(20)">
   <rect x="20" y="20" width="5" height="5" fill="#1e1e20"/>
   <rect x="24" y="20" width="1" height="5" fill="#fff" opacity=".18"/>
  </g>
  <rect id="east-center" x="15" y="20" width="5" height="5" fill="#1e1e20"/>
  <g id="east-left">
   <rect x="10" y="20" width="5" height="5" fill="#1e1e20"/>
   <rect x="10" y="20" width="1" height="5" fill="#fff" opacity=".18"/>
  </g>
  <g id="east-right">
   <rect x="20" y="20" width="5" height="5" fill="#1e1e20"/>
   <rect x="24" y="20" width="1" height="5" fill="#fff" opacity=".18"/>
  </g>
  <path id="north-offsetslider" d="m35.98 73-5.9805 6v6h12v-6z" fill="#828284" stroke-width=".98959"/>
  <path id="south-offsetslider" d="m50.98 85-5.9805-6v-6h12v6z" fill="#828284" stroke-width=".98959"/>
  <path id="west-offsetslider" d="m15 79.02 6 5.9805h6v-12h-6z" fill="#828284" stroke-width=".98959"/>
  <path id="east-offsetslider" d="m12 79.02-6 5.9805h-6v-12h6z" fill="#828284" stroke-width=".98959"/>
  <g id="west-minslider" transform="translate(-3 .5312)" fill="#828284">
   <path d="M 15.0312,49.25 13.6562,50.6562 10,47 l 0.0312,7.4688 h -2 L 8,47 4.375,50.6562 3,49.25 l 6.0312,-6 z"/>
   <rect x="3" y="40" width="12" height="2"/>
  </g>
  <g id="east-minslider" transform="translate(12 .5312)" fill="#828284">
   <path d="M 15.0312,49.25 13.6562,50.6562 10,47 l 0.0312,7.4688 h -2 L 8,47 4.375,50.6562 3,49.25 l 6.0312,-6 z"/>
   <rect x="3" y="40" width="12" height="2"/>
  </g>
  <g id="west-maxslider" transform="matrix(1,0,0,-1,27,94)" fill="#828284">
   <path d="M 15.0312,49.25 13.6562,50.6562 10,47 l 0.0312,7.4688 h -2 L 8,47 4.375,50.6562 3,49.25 l 6.0312,-6 z"/>
   <rect x="3" y="40" width="12" height="2"/>
  </g>
  <g id="east-maxslider" transform="matrix(1,0,0,-1,42,94)" fill="#828284">
   <path d="M 15.0312,49.25 13.6562,50.6562 10,47 l 0.0312,7.4688 h -2 L 8,47 4.375,50.6562 3,49.25 l 6.0312,-6 z"/>
   <rect x="3" y="40" width="12" height="2"/>
  </g>
  <g id="north-maxslider" transform="rotate(90 -.25 54.719)" fill="#828284">
   <path d="M 15.0312,49.25 13.6562,50.6562 10,47 l 0.0312,7.4688 h -2 L 8,47 4.375,50.6562 3,49.25 l 6.0312,-6 z"/>
   <rect x="3" y="40" width="12" height="2"/>
  </g>
  <g id="south-maxslider" transform="rotate(90 9.0156 63.984)" fill="#828284">
   <path d="M 15.0312,49.25 13.6562,50.6562 10,47 l 0.0312,7.4688 h -2 L 8,47 4.375,50.6562 3,49.25 l 6.0312,-6 z"/>
   <rect x="3" y="40" width="12" height="2"/>
  </g>
  <g id="north-minslider" transform="matrix(0 1 1 0 -2 54.969)" fill="#828284">
   <path d="M 15.0312,49.25 13.6562,50.6562 10,47 l 0.0312,7.4688 h -2 L 8,47 4.375,50.6562 3,49.25 l 6.0312,-6 z"/>
   <rect x="3" y="40" width="12" height="2"/>
  </g>
  <g id="south-minslider" transform="matrix(0 1 1 0 17 54.969)" fill="#828284">
   <path d="M 15.0312,49.25 13.6562,50.6562 10,47 l 0.0312,7.4688 h -2 L 8,47 4.375,50.6562 3,49.25 l 6.0312,-6 z"/>
   <rect x="3" y="40" width="12" height="2"/>
  </g>
 </g>
 <g transform="translate(0 -632.52)">
  <rect id="hint-tile-center" y="632.52" width="5" height="5" fill="#f0f"/>
 </g>
</svg>
