<svg width="520" height="520" version="1.1" viewBox="0 0 520 520.00002" xmlns="http://www.w3.org/2000/svg" xmlns:xlink="http://www.w3.org/1999/xlink">
 <defs>
  <linearGradient id="shadow-corner">
   <stop style="stop-color:#000000;stop-opacity:.6" offset="0"/>
   <stop style="stop-color:#000000;stop-opacity:0" offset="1"/>
  </linearGradient>
  <linearGradient id="fill-dark" x1="7" x2="507" y2="500" gradientTransform="translate(3,3.9999998)" gradientUnits="userSpaceOnUse">
   <stop style="stop-color:#0a0a0c" offset="0"/>
   <stop style="stop-color:#28282a" offset="1"/>
  </linearGradient>
  <radialGradient id="radialGradient1530" cx="20" cy="502" r="10" gradientTransform="matrix(-2.0000003,-4.1504823e-6,-7.7963594e-7,-1.9999992,60.000401,1505.9997)" gradientUnits="userSpaceOnUse" xlink:href="#shadow-corner"/>
  <radialGradient id="radialGradient1530-3" cx="20" cy="502" r="10" gradientTransform="matrix(4.1504823e-6,-2.0000003,1.9999992,-7.7963594e-7,-983.9997,54.0004)" gradientUnits="userSpaceOnUse" xlink:href="#shadow-corner"/>
  <radialGradient id="radialGradient1530-3-3" cx="20" cy="502" r="10" gradientTransform="matrix(2.0000003,4.1504823e-6,7.7963594e-7,1.9999992,459.9996,-989.9997)" gradientUnits="userSpaceOnUse" xlink:href="#shadow-corner"/>
  <radialGradient id="radialGradient1530-3-3-9" cx="20" cy="502" r="10" gradientTransform="matrix(-4.1504823e-6,2.0000003,-1.9999992,7.7963594e-7,1503.9997,453.9996)" gradientUnits="userSpaceOnUse" xlink:href="#shadow-corner"/>
  <linearGradient id="linearGradient1622" x1="20" x2="20" y1="494" y2="514" gradientUnits="userSpaceOnUse" xlink:href="#shadow-corner"/>
  <linearGradient id="linearGradient1622-0" x1="20" x2="20" y1="494" y2="514" gradientTransform="translate(-6,-514)" gradientUnits="userSpaceOnUse" xlink:href="#shadow-corner"/>
  <linearGradient id="linearGradient1622-0-0" x1="20" x2="20" y1="494" y2="514" gradientTransform="translate(-520,-508)" gradientUnits="userSpaceOnUse" xlink:href="#shadow-corner"/>
  <linearGradient id="linearGradient1622-0-0-1" x1="20" x2="20" y1="494" y2="514" gradientTransform="translate(-514,6)" gradientUnits="userSpaceOnUse" xlink:href="#shadow-corner"/>
  <linearGradient id="fill" x1="7" x2="507" y2="500" gradientTransform="translate(3,3.9999998)" gradientUnits="userSpaceOnUse">
   <stop style="stop-color:#141416" offset="0"/>
   <stop style="stop-color:#323234" offset="1"/>
  </linearGradient>
 </defs>
 <g id="black-notes" transform="translate(0,6)">
  <path transform="translate(0,-8)" d="m0 502a20 20 0 0 0 20 20v-20z" style="fill:url(#radialGradient1530)"/>
  <path d="m20-6a20 20 0 0 0-20 20h20z" style="fill:url(#radialGradient1530-3)"/>
  <path d="m520 14a20 20 0 0 0-20-20v20z" style="fill:url(#radialGradient1530-3-3)"/>
  <path d="m500 514a20 20 0 0 0 20-20h-20z" style="fill:url(#radialGradient1530-3-3-9)"/>
  <rect x="20" y="494" width="480" height="20" ry="0" style="fill:url(#linearGradient1622)"/>
  <rect transform="rotate(90)" x="14" y="-20" width="480" height="20" ry="0" style="fill:url(#linearGradient1622-0)"/>
  <rect transform="scale(-1)" x="-500" y="-14" width="480" height="20" ry="0" style="fill:url(#linearGradient1622-0-0)"/>
  <rect transform="rotate(-90)" x="-494" y="500" width="480" height="20" ry="0" style="fill:url(#linearGradient1622-0-0-1)"/>
  <rect x="10" y="4" width="500" height="500" ry="15" style="fill:url(#fill-dark)"/>
  <path transform="translate(0,-8)" d="m10 497a15 15 0 0 0 15 15v-15z" style="display:none;fill:#0a0a0c"/>
 </g>
 <g id="yellow-notes" transform="translate(520,6)">
  <path transform="translate(0,-8)" d="m0 502a20 20 0 0 0 20 20v-20z" style="fill:url(#radialGradient1530)"/>
  <path d="m20-6a20 20 0 0 0-20 20h20z" style="fill:url(#radialGradient1530-3)"/>
  <path d="m520 14a20 20 0 0 0-20-20v20z" style="fill:url(#radialGradient1530-3-3)"/>
  <path d="m500 514a20 20 0 0 0 20-20h-20z" style="fill:url(#radialGradient1530-3-3-9)"/>
  <rect x="20" y="494" width="480" height="20" ry="0" style="fill:url(#linearGradient1622)"/>
  <rect transform="rotate(90)" x="14" y="-20" width="480" height="20" ry="0" style="fill:url(#linearGradient1622-0)"/>
  <rect transform="scale(-1)" x="-500" y="-14" width="480" height="20" ry="0" style="fill:url(#linearGradient1622-0-0)"/>
  <rect transform="rotate(-90)" x="-494" y="500" width="480" height="20" ry="0" style="fill:url(#linearGradient1622-0-0-1)"/>
  <rect x="10" y="4" width="500" height="500" ry="15" style="fill:url(#fill)"/>
  <path transform="translate(0,-8)" d="m10 497a15 15 0 0 0 15 15v-15z" style="display:none;fill:#0a0a0c"/>
 </g>
</svg>
