<svg width="14" height="40.999996" version="1.1" viewBox="0 0 14 40.999998" xmlns="http://www.w3.org/2000/svg">
 <g transform="translate(-58,-39.000003)">
  <rect id="active-topleft" x="60" y="71" width="1" height="1" ry="0" style="fill:#ffffff;opacity:.17999998"/>
  <rect id="active-top" x="61" y="71" width="10" height="1" style="fill:#ffffff;opacity:.17999998"/>
  <rect id="active-topright" x="71" y="71" width="1" height="1" ry="0" style="fill:#ffffff;opacity:.17999998"/>
  <rect id="active-right" x="71" y="72" width="1" height="7" style="fill:#ffffff;opacity:.17999998"/>
  <rect id="active-bottomright" x="71" y="79" width="1" height="1" ry="0" style="fill:#ffffff;opacity:.17999998"/>
  <rect id="active-bottom" x="61" y="79" width="10" height="1" style="fill:#ffffff;opacity:.17999998"/>
  <rect id="active-bottomleft" x="60" y="79" width="1" height="1" ry="0" style="fill:#ffffff;opacity:.17999998"/>
  <rect id="active-left" x="60" y="72" width="1" height="7" style="fill:#ffffff;opacity:.17999998"/>
  <rect id="active-center" x="61" y="72" width="10" height="7" style="fill:#ffffff;opacity:.17999998"/>
 </g>
 <g transform="translate(-58,-39.000003)">
  <rect id="hover-topleft" x="60" y="56" width="1" height="1" ry="0" style="fill:#ffffff;opacity:.17999998"/>
  <rect id="hover-top" x="61" y="56" width="10" height="1" style="fill:#ffffff;opacity:.17999998"/>
  <rect id="hover-topright" x="71" y="56" width="1" height="1" ry="0" style="fill:#ffffff;opacity:.17999998"/>
  <rect id="hover-right" x="71" y="57" width="1" height="7" style="fill:#ffffff;opacity:.17999998"/>
  <rect id="hover-bottomright" x="71" y="64" width="1" height="1" ry="0" style="fill:#ffffff;opacity:.17999998"/>
  <rect id="hover-bottom" x="61" y="64" width="10" height="1" style="fill:#ffffff;opacity:.17999998"/>
  <rect id="hover-bottomleft" x="60" y="64" width="1" height="1" ry="0" style="fill:#ffffff;opacity:.17999998"/>
  <rect id="hover-left" x="60" y="57" width="1" height="7" style="fill:#ffffff;opacity:.17999998"/>
  <rect id="hover-center" x="61" y="57" width="10" height="7" style="fill:#ffffff;opacity:.07999998"/>
 </g>
 <g transform="translate(-58,-39.000003)">
  <rect id="normal-topleft" x="60" y="41" width="1" height="1" ry="0" style="fill:#ffffff;opacity:.07999998"/>
  <rect id="normal-top" x="61" y="41" width="10" height="1" style="fill:#ffffff;opacity:.07999998"/>
  <rect id="normal-topright" x="71" y="41" width="1" height="1" ry="0" style="fill:#ffffff;opacity:.07999998"/>
  <rect id="normal-right" x="71" y="42" width="1" height="7" style="fill:#ffffff;opacity:.07999998"/>
  <rect id="normal-bottomright" x="71" y="49" width="1" height="1" ry="0" style="fill:#ffffff;opacity:.07999998"/>
  <rect id="normal-bottom" x="61" y="49" width="10" height="1" style="fill:#ffffff;opacity:.07999998"/>
  <rect id="normal-bottomleft" x="60" y="49" width="1" height="1" ry="0" style="fill:#ffffff;opacity:.07999998"/>
  <rect id="normal-left" x="60" y="42" width="1" height="7" style="fill:#ffffff;opacity:.07999998"/>
  <rect id="normal-center" x="61" y="42" width="10" height="7" style="fill:#ffffff;opacity:.07999998"/>
 </g>
 <g transform="translate(-58,-761.51965)">
  <rect id="hint-tile-center" x="58" y="761.51965" width="1" height="1" style="fill:#ff00ff;opacity:.875"/>
 </g>
</svg>
