<?xml version="1.0" encoding="UTF-8"?>
<svg width="220" height="75" version="1.1" viewBox="0 0 220 75" xmlns="http://www.w3.org/2000/svg" xmlns:xlink="http://www.w3.org/1999/xlink">
 <defs>
  <linearGradient id="linearGradient929-5-9-8" x1="100" x2="100" y1="1147.5" y2="1137.5" gradientTransform="translate(-220 -987.52)" gradientUnits="userSpaceOnUse" xlink:href="#shadow"/>
  <linearGradient id="shadow">
   <stop stop-opacity=".6" offset="0"/>
   <stop stop-opacity="0" offset="1"/>
  </linearGradient>
  <radialGradient id="radialGradient905-6-1-6" cx="95" cy="15" r="5" gradientTransform="matrix(-2 1.8302e-5 7.2323e-7 -2 350 155)" gradientUnits="userSpaceOnUse" xlink:href="#shadow"/>
  <linearGradient id="linearGradient929-5-9" x1="100" x2="100" y1="1147.5" y2="1137.5" gradientTransform="translate(-305 -1272.5)" gradientUnits="userSpaceOnUse" xlink:href="#shadow"/>
  <radialGradient id="radialGradient905-6-1" cx="95" cy="15" r="5" gradientTransform="matrix(1.8302e-5 2 -2 -7.2323e-7 240 -65)" gradientUnits="userSpaceOnUse" xlink:href="#shadow"/>
  <linearGradient id="linearGradient929-5" x1="100" x2="100" y1="1147.5" y2="1137.5" gradientTransform="translate(-20 -1357.5)" gradientUnits="userSpaceOnUse" xlink:href="#shadow"/>
  <radialGradient id="radialGradient905-6" cx="95" cy="15" r="5" gradientTransform="matrix(2 -1.8302e-5 -7.2323e-7 2 20 45.002)" gradientUnits="userSpaceOnUse" xlink:href="#shadow"/>
  <linearGradient id="linearGradient929" x1="100" x2="100" y1="1147.5" y2="1137.5" gradientTransform="translate(65 -1072.5)" gradientUnits="userSpaceOnUse" xlink:href="#shadow"/>
  <radialGradient id="radialGradient905" cx="95" cy="15" r="5" gradientTransform="matrix(-1.8302e-5 -2 2 7.2323e-7 130 265)" gradientUnits="userSpaceOnUse" xlink:href="#shadow"/>
 </defs>
 <g transform="translate(0 -60)">
  <rect id="mask-center" x="85" y="75" width="50" height="50"/>
  <path id="mask-topleft" d="m85 75v-5c-2.77 0-5 2.23-5 5z"/>
  <path id="mask-topright" d="m135 75h5c0-2.77-2.23-5-5-5z"/>
  <path id="mask-bottomright" d="m135 125v5c2.77 0 5-2.23 5-5z"/>
  <path id="mask-bottomleft" d="m85 125h-5c0 2.77 2.23 5 5 5z"/>
  <rect id="mask-top" x="85" y="70" width="50" height="5"/>
  <rect id="mask-right" transform="rotate(90)" x="75" y="-140" width="50" height="5"/>
  <rect id="mask-bottom" transform="scale(-1)" x="-135" y="-130" width="50" height="5"/>
  <rect id="mask-left" transform="rotate(-90)" x="-125" y="80" width="50" height="5"/>
  <path id="shadow-topright" d="m220 65h-10v5c2.77 0 5 2.23 5 5h5z" fill="url(#radialGradient905-6)"/>
  <path id="shadow-bottomright" d="m220 135v-10h-5c0 2.77-2.23 5-5 5v5z" fill="url(#radialGradient905-6-1)"/>
  <path id="shadow-bottomleft" d="m150 135h10v-5c-2.77 0-5-2.23-5-5h-5z" fill="url(#radialGradient905-6-1-6)"/>
  <rect id="shadow-top" x="160" y="65" width="50" height="5" fill="url(#linearGradient929)"/>
  <rect id="shadow-right" transform="rotate(90)" x="75" y="-220" width="50" height="5" fill="url(#linearGradient929-5)"/>
  <rect id="shadow-bottom" transform="scale(-1)" x="-210" y="-135" width="50" height="5" fill="url(#linearGradient929-5-9)"/>
  <path id="shadow-topleft" d="m150 65v10h5c0-2.77 2.23-5 5-5v-5z" fill="url(#radialGradient905)"/>
  <rect id="shadow-left" transform="rotate(-90)" x="-125" y="150" width="50" height="5" fill="url(#linearGradient929-5-9-8)"/>
 </g>
 <g transform="translate(0 -1132.5)" fill="#1e1e20">
  <rect id="center" x="15" y="1147.5" width="50" height="50" opacity=".9"/>
  <path id="topright" d="m65 1147.5h5c0-2.77-2.23-5-5-5z" opacity=".9"/>
  <path id="bottomright" d="m65 1197.5v5c2.77 0 5-2.23 5-5z" opacity=".9"/>
  <path id="bottomleft" d="m15 1197.5h-5c0 2.77 2.23 5 5 5z" opacity=".9"/>
  <rect id="top" x="15" y="1142.5" width="50" height="5" opacity=".9"/>
  <rect id="right" transform="rotate(90)" x="1147.5" y="-70" width="50" height="5" opacity=".9"/>
  <rect id="bottom" transform="scale(-1)" x="-65" y="-1202.5" width="50" height="5" opacity=".9"/>
  <path id="topleft" d="m15 1147.5v-5c-2.77 0-5 2.23-5 5z" opacity=".9"/>
  <rect id="left" transform="rotate(-90)" x="-1197.5" y="10" width="50" height="5" opacity=".9"/>
 </g>
 <g transform="translate(0 -60)">
  <rect id="shadow-hint-top-margin" x="184" y="65" width="2" height="5" fill="#f0f"/>
  <rect id="shadow-hint-right-margin" transform="rotate(90)" x="99" y="-220" width="2" height="5" fill="#f0f"/>
  <rect id="shadow-hint-bottom-margin" transform="scale(-1)" x="-186" y="-135" width="2" height="5" fill="#f0f"/>
  <rect id="shadow-hint-left-margin" transform="rotate(-90)" x="-101" y="150" width="2" height="5" fill="#f0f"/>
  <rect id="shadow-hint-top-inset" x="186" y="130" width="2" height="5" fill="#0f0" stroke-width=".44721"/>
  <rect id="shadow-hint-bottom-inset" x="186" y="65" width="2" height="5" fill="#0f0" stroke-width=".44721"/>
  <rect id="shadow-hint-right-inset" transform="rotate(90)" x="97" y="-220" width="2" height="5" fill="#0f0" stroke-width=".44721"/>
  <rect id="shadow-hint-left-inset" transform="rotate(90)" x="97" y="-155" width="2" height="5" fill="#0f0" stroke-width=".44721"/>
  <rect id="hint-stretch-borders" transform="translate(0 -1072.5)" y="1132.5" width="5" height="5" fill="#0f0"/>
  <rect id="thick-center" x="5" y="60" width="2" height="2" fill="#800080"/>
  <rect id="thick-hint-top-margin" x="39" y="70" width="2" height="5" fill="#f0f" stroke-width=".55902"/>
  <rect id="thick-hint-bottom-margin" x="39" y="125" width="2" height="5" fill="#f0f" stroke-width=".55902"/>
  <rect id="thick-right-margin" transform="rotate(90)" x="99" y="-70" width="2" height="5" fill="#f0f" stroke-width=".55902"/>
  <rect id="thick-hint-left-margin" transform="rotate(90)" x="99" y="-15" width="2" height="5" fill="#f0f" stroke-width=".55902"/>
  <rect id="hint-top-margin" x="39" y="70" width="2" height="2" fill="#800080" stroke-width=".5"/>
  <rect id="hint-bottom-margin" x="39" y="128" width="2" height="2" fill="#800080" stroke-width=".5"/>
  <rect id="hint-left-margin" x="10" y="99" width="2" height="2" fill="#800080" stroke-width=".5"/>
  <rect id="hint-right-margin" x="68" y="99" width="2" height="2" fill="#800080" stroke-width=".5"/>
 </g>
</svg>
