<svg width="220" height="75.000061" version="1.1" viewBox="0 0 220 75.000064" xmlns="http://www.w3.org/2000/svg" xmlns:xlink="http://www.w3.org/1999/xlink">
 <defs>
  <linearGradient id="linearGradient929-5-9-8" x1="100" x2="100" y1="1147.5198" y2="1137.5198" gradientTransform="translate(-220.00002,-987.5197)" gradientUnits="userSpaceOnUse" xlink:href="#shadow"/>
  <linearGradient id="shadow">
   <stop style="stop-color:#000000;stop-opacity:.6" offset="0"/>
   <stop style="stop-color:#000000;stop-opacity:0" offset="1"/>
  </linearGradient>
  <radialGradient id="radialGradient905-6-1-6" cx="95" cy="15.000018" r="5" gradientTransform="matrix(-1.9999998,1.8301974e-5,7.2322802e-7,-2,350,154.99822)" gradientUnits="userSpaceOnUse" xlink:href="#shadow"/>
  <linearGradient id="linearGradient929-5-9" x1="100" x2="100" y1="1147.5198" y2="1137.5198" gradientTransform="translate(-305.00008,-1272.5197)" gradientUnits="userSpaceOnUse" xlink:href="#shadow"/>
  <radialGradient id="radialGradient905-6-1" cx="95" cy="15.000018" r="5" gradientTransform="matrix(1.8301974e-5,1.9999998,-2,-7.2322802e-7,239.9983,-65.000079)" gradientUnits="userSpaceOnUse" xlink:href="#shadow"/>
  <linearGradient id="linearGradient929-5" x1="100" x2="100" y1="1147.5198" y2="1137.5198" gradientTransform="translate(-20.000079,-1357.5198)" gradientUnits="userSpaceOnUse" xlink:href="#shadow"/>
  <radialGradient id="radialGradient905-6" cx="95" cy="15.000018" r="5" gradientTransform="matrix(1.9999998,-1.8301974e-5,-7.2322802e-7,2,20.000004,45.001621)" gradientUnits="userSpaceOnUse" xlink:href="#shadow"/>
  <linearGradient id="linearGradient929" x1="100" x2="100" y1="1147.5198" y2="1137.5198" gradientTransform="translate(65.000004,-1072.5198)" gradientUnits="userSpaceOnUse" xlink:href="#shadow"/>
  <radialGradient id="radialGradient905" cx="95" cy="15.000018" r="5" gradientTransform="matrix(-1.8301974e-5,-1.9999998,2,7.2322802e-7,130.0017,264.99992)" gradientUnits="userSpaceOnUse" xlink:href="#shadow"/>
 </defs>
 <g transform="translate(0,-59.999953)">
  <rect id="mask-center" x="85" y="75" width="50" height="50" style="fill:#000000"/>
  <path id="mask-topleft" d="m85 75.000046v-5c-2.77 0-5 2.23-5 5z" style="fill:#000000"/>
  <path id="mask-topright" d="m135 75.000046h5c0-2.77-2.23-5-5-5z" style="fill:#000000"/>
  <path id="mask-bottomright" d="m135 125.00005v5c2.77 0 5-2.23 5-5z" style="fill:#000000"/>
  <path id="mask-bottomleft" d="m85 125.00005h-5c0 2.77 2.23 5 5 5z" style="fill:#000000"/>
  <rect id="mask-top" x="85" y="70" width="50" height="5" style="fill:#000000"/>
  <rect id="mask-right" transform="rotate(90)" x="75" y="-140" width="50" height="5" style="fill:#000000"/>
  <rect id="mask-bottom" transform="scale(-1)" x="-135" y="-130" width="50" height="5" style="fill:#000000"/>
  <rect id="mask-left" transform="rotate(-90)" x="-125" y="80" width="50" height="5" style="fill:#000000"/>
 </g>
 <g transform="translate(0,-59.999953)">
  <path id="shadow-topright" d="m220 64.999921h-10v5c2.77 0 5 2.23 5 5h5z" style="fill:url(#radialGradient905-6)"/>
  <path id="shadow-bottomright" d="m220 134.99992v-10h-5c0 2.77-2.23 5-5 5v5z" style="fill:url(#radialGradient905-6-1)"/>
  <path id="shadow-bottomleft" d="m150 134.99992h10v-5c-2.77 0-5-2.23-5-5h-5z" style="fill:url(#radialGradient905-6-1-6)"/>
  <rect id="shadow-top" x="160" y="64.999992" width="50" height="5" style="fill:url(#linearGradient929)"/>
  <rect id="shadow-right" transform="rotate(90)" x="74.999992" y="-220" width="50" height="5" style="fill:url(#linearGradient929-5)"/>
  <rect id="shadow-bottom" transform="scale(-1)" x="-210" y="-135.00002" width="50" height="5" style="fill:url(#linearGradient929-5-9)"/>
  <path id="shadow-topleft" d="m150 64.999921v10h5c0-2.77 2.23-5 5-5v-5z" style="fill:url(#radialGradient905)"/>
  <rect id="shadow-left" transform="rotate(-90)" x="-125" y="150" width="50" height="5" style="fill:url(#linearGradient929-5-9-8)"/>
 </g>
 <g transform="translate(0,-1132.5197)">
  <rect id="center" x="15" y="1147.5197" width="50" height="50" style="fill:#1e1e20;opacity:.9"/>
  <path id="topright" d="m65 1147.5197h5c0-2.77-2.23-5-5-5z" style="fill:#1e1e20;opacity:.9"/>
  <path id="bottomright" d="m65 1197.5197v5c2.77 0 5-2.23 5-5z" style="fill:#1e1e20;opacity:.9"/>
  <path id="bottomleft" d="m15 1197.5197h-5c0 2.77 2.23 5 5 5z" style="fill:#1e1e20;opacity:.9"/>
  <rect id="top" x="15" y="1142.5197" width="50" height="5" style="fill:#1e1e20;opacity:.9"/>
  <rect id="right" transform="rotate(90)" x="1147.5197" y="-70" width="50" height="5" style="fill:#1e1e20;opacity:.9"/>
  <rect id="bottom" transform="scale(-1)" x="-65" y="-1202.5197" width="50" height="5" style="fill:#1e1e20;opacity:.9"/>
  <path id="topleft" d="m15 1147.5197v-5c-2.77 0-5 2.23-5 5z" style="fill:#1e1e20;opacity:.9"/>
  <rect id="left" transform="rotate(-90)" x="-1197.5198" y="10" width="50" height="5" style="fill:#1e1e20;opacity:.9"/>
 </g>
 <g transform="translate(0,-59.999953)">
  <rect id="hint-top-margin" transform="translate(0,-1072.5197)" x="39" y="1142.5197" width="2" height="5" style="fill:#ff00ff"/>
  <rect id="hint-right-margin" transform="rotate(90,536.25985,-536.25985)" x="1171.5197" y="-70" width="2" height="5" style="fill:#ff00ff"/>
  <rect id="hint-bottom-margin" transform="rotate(180,0,-536.25985)" x="-41" y="-1202.5197" width="2" height="5" style="fill:#ff00ff"/>
  <rect id="hint-left-margin" transform="rotate(-90,-536.25985,-536.25985)" x="-1173.5197" y="10" width="2" height="5" style="fill:#ff00ff"/>
  <rect id="hint-stretch-borders" transform="translate(0,-1072.5197)" y="1132.5197" width="5" height="5" style="fill:#00ff00"/>
  <rect id="shadow-hint-top-margin" x="184" y="64.999992" width="2" height="4.9999971" style="fill:#ff00ff"/>
  <rect id="shadow-hint-right-margin" transform="rotate(90)" x="98.999992" y="-220" width="2" height="5" style="fill:#ff00ff"/>
  <rect id="shadow-hint-bottom-margin" transform="scale(-1)" x="-186" y="-135" width="2" height="4.9999876" style="fill:#ff00ff"/>
  <rect id="shadow-hint-left-margin" transform="rotate(-90)" x="-100.99999" y="150" width="2" height="5" style="fill:#ff00ff"/>
 </g>
</svg>
