<?xml version="1.0" encoding="UTF-8"?>
<svg width="56" height="58" version="1.1" viewBox="0 0 56 58" xmlns="http://www.w3.org/2000/svg">
 <g transform="translate(0 -1.4355e-5)">
  <rect id="background-horizontal-center" x="34" y="45" width="2" height="10" fill="#414143"/>
  <g id="background-horizontal-topleft" transform="translate(15)">
   <rect x="14" y="42" width="4" height="2" opacity="0"/>
   <rect x="16" y="43" width="2" height="1" fill="#414143"/>
  </g>
  <g id="background-horizontal-top" transform="translate(15)">
   <rect x="19" y="42" width="2" height="2" opacity="0" stroke-width=".70711"/>
   <rect x="19" y="43" width="2" height="1" fill="#414143"/>
  </g>
  <g id="background-horizontal-topright" transform="translate(15)">
   <rect x="22" y="42" width="4" height="2" opacity="0"/>
   <rect x="22" y="43" width="2" height="1" fill="#414143"/>
  </g>
  <g id="background-horizontal-right" transform="translate(15)">
   <rect x="22" y="45" width="4" height="10" opacity="0" stroke-width="2.2361"/>
   <rect x="22" y="45" width="2" height="10" fill="#414143"/>
  </g>
  <g id="background-horizontal-bottomright" transform="translate(15)">
   <rect x="22" y="56" width="4" height="2" opacity="0"/>
   <rect x="22" y="56" width="2" height="1" fill="#414143"/>
  </g>
  <g id="background-horizontal-bottom" transform="translate(15)">
   <rect x="19" y="56" width="2" height="2" opacity="0" stroke-width=".70711"/>
   <rect x="19" y="56" width="2" height="1" fill="#414143"/>
  </g>
  <g id="background-horizontal-bottomleft" transform="translate(15)">
   <rect x="14" y="56" width="4" height="2" opacity="0"/>
   <rect x="16" y="56" width="2" height="1" fill="#414143"/>
  </g>
  <g id="background-horizontal-left" transform="translate(15)">
   <rect x="14" y="45" width="4" height="10" opacity="0" stroke-width="2.2361"/>
   <rect x="16" y="45" width="2" height="10" fill="#414143"/>
  </g>
  <rect id="background-vertical-center" x="19" y="45" width="2" height="10" fill="#414143"/>
  <g id="background-vertical-topleft">
   <rect x="14" y="42" width="4" height="2" opacity="0"/>
   <rect x="16" y="43" width="2" height="1" fill="#414143"/>
  </g>
  <g id="background-vertical-top">
   <rect x="19" y="42" width="2" height="2" opacity="0" stroke-width=".70711"/>
   <rect x="19" y="43" width="2" height="1" fill="#414143"/>
  </g>
  <g id="background-vertical-topright">
   <rect x="22" y="42" width="4" height="2" opacity="0"/>
   <rect x="22" y="43" width="2" height="1" fill="#414143"/>
  </g>
  <g id="background-vertical-right">
   <rect x="22" y="45" width="4" height="10" opacity="0" stroke-width="2.2361"/>
   <rect x="22" y="45" width="2" height="10" fill="#414143"/>
  </g>
  <g id="background-vertical-bottomright">
   <rect x="22" y="56" width="4" height="2" opacity="0"/>
   <rect x="22" y="56" width="2" height="1" fill="#414143"/>
  </g>
  <g id="background-vertical-bottom">
   <rect x="19" y="56" width="2" height="2" opacity="0" stroke-width=".70711"/>
   <rect x="19" y="56" width="2" height="1" fill="#414143"/>
  </g>
  <g id="background-vertical-bottomleft">
   <rect x="14" y="56" width="4" height="2" opacity="0"/>
   <rect x="16" y="56" width="2" height="1" fill="#414143"/>
  </g>
  <g id="background-vertical-left">
   <rect x="14" y="45" width="4" height="10" opacity="0" stroke-width="2.2361"/>
   <rect x="16" y="45" width="2" height="10" fill="#414143"/>
  </g>
  <rect id="sunken-slider-center" x="49" y="25" width="2" height="10" fill="#8c8c8e"/>
  <g id="sunken-slider-topleft" transform="translate(30,-26)">
   <rect x="14" y="48" width="4" height="2" opacity="0"/>
   <rect x="16" y="49" width="2" height="1" fill="#8c8c8e"/>
  </g>
  <g id="sunken-slider-top" transform="translate(30,-26)">
   <rect x="19" y="48" width="2" height="2" opacity="0" stroke-width=".70711"/>
   <rect x="19" y="49" width="2" height="1" fill="#8c8c8e"/>
  </g>
  <g id="sunken-slider-topright" transform="translate(30,-26)">
   <rect x="22" y="48" width="4" height="2" opacity="0"/>
   <rect x="22" y="49" width="2" height="1" fill="#8c8c8e"/>
  </g>
  <g id="sunken-slider-right" transform="translate(30,-26)">
   <rect x="22" y="51" width="4" height="10" opacity="0" stroke-width="2.2361"/>
   <rect x="22" y="51" width="2" height="10" fill="#8c8c8e"/>
  </g>
  <g id="sunken-slider-bottomright" transform="translate(30,-26)">
   <rect x="22" y="62" width="4" height="2" opacity="0"/>
   <rect x="22" y="62" width="2" height="1" fill="#8c8c8e"/>
  </g>
  <g id="sunken-slider-bottom" transform="translate(30,-26)">
   <rect x="19" y="62" width="2" height="2" opacity="0" stroke-width=".70711"/>
   <rect x="19" y="62" width="2" height="1" fill="#8c8c8e"/>
  </g>
  <g id="sunken-slider-bottomleft" transform="translate(30,-26)">
   <rect x="14" y="62" width="4" height="2" opacity="0"/>
   <rect x="16" y="62" width="2" height="1" fill="#8c8c8e"/>
  </g>
  <g id="sunken-slider-left" transform="translate(30,-26)">
   <rect x="14" y="51" width="4" height="10" opacity="0" stroke-width="2.2361"/>
   <rect x="16" y="51" width="2" height="10" fill="#8c8c8e"/>
  </g>
  <rect id="mouseover-slider-center" x="34" y="25" width="2" height="10" fill="#78787a"/>
  <g id="mouseover-slider-topleft" transform="translate(0,-1)">
   <rect x="29" y="23" width="4" height="2" opacity="0"/>
   <rect x="31" y="24" width="2" height="1" fill="#78787a"/>
  </g>
  <g id="mouseover-slider-top" transform="translate(0,-1)">
   <rect x="34" y="23" width="2" height="2" opacity="0" stroke-width=".70711"/>
   <rect x="34" y="24" width="2" height="1" fill="#78787a"/>
  </g>
  <g id="mouseover-slider-topright" transform="translate(0,-1)">
   <rect x="37" y="23" width="4" height="2" opacity="0"/>
   <rect x="37" y="24" width="2" height="1" fill="#78787a"/>
  </g>
  <g id="mouseover-slider-right" transform="translate(0,-1)">
   <rect x="37" y="26" width="4" height="10" opacity="0" stroke-width="2.2361"/>
   <rect x="37" y="26" width="2" height="10" fill="#78787a"/>
  </g>
  <g id="mouseover-slider-bottomright" transform="translate(0,-1)">
   <rect x="37" y="37" width="4" height="2" opacity="0"/>
   <rect x="37" y="37" width="2" height="1" fill="#78787a"/>
  </g>
  <g id="mouseover-slider-bottom" transform="translate(0,-1)">
   <rect x="34" y="37" width="2" height="2" opacity="0" stroke-width=".70711"/>
   <rect x="34" y="37" width="2" height="1" fill="#78787a"/>
  </g>
  <g id="mouseover-slider-bottomleft" transform="translate(0,-1)">
   <rect x="29" y="37" width="4" height="2" opacity="0"/>
   <rect x="31" y="37" width="2" height="1" fill="#78787a"/>
  </g>
  <g id="mouseover-slider-left" transform="translate(0,-1)">
   <rect x="29" y="26" width="4" height="10" opacity="0" stroke-width="2.2361"/>
   <rect x="31" y="26" width="2" height="10" fill="#78787a"/>
  </g>
  <rect id="slider-center" x="19" y="25" width="2" height="10" fill="#646466"/>
  <g id="slider-topleft" transform="translate(0,-1)">
   <rect x="14" y="23" width="4" height="2" opacity="0"/>
   <rect x="16" y="24" width="2" height="1" fill="#646466"/>
  </g>
  <g id="slider-top" transform="translate(0,-1)">
   <rect x="19" y="23" width="2" height="2" opacity="0" stroke-width=".70711"/>
   <rect x="19" y="24" width="2" height="1" fill="#646466"/>
  </g>
  <g id="slider-topright" transform="translate(0,-1)">
   <rect x="22" y="23" width="4" height="2" opacity="0"/>
   <rect x="22" y="24" width="2" height="1" fill="#646466"/>
  </g>
  <g id="slider-right" transform="translate(0,-1)">
   <rect x="22" y="26" width="4" height="10" opacity="0" stroke-width="2.2361"/>
   <rect x="22" y="26" width="2" height="10" fill="#646466"/>
  </g>
  <g id="slider-bottomright" transform="translate(0,-1)">
   <rect x="22" y="37" width="4" height="2" opacity="0"/>
   <rect x="22" y="37" width="2" height="1" fill="#646466"/>
  </g>
  <g id="slider-bottom" transform="translate(0,-1)">
   <rect x="19" y="37" width="2" height="2" opacity="0" stroke-width=".70711"/>
   <rect x="19" y="37" width="2" height="1" fill="#646466"/>
  </g>
  <g id="slider-bottomleft" transform="translate(0,-1)">
   <rect x="14" y="37" width="4" height="2" opacity="0"/>
   <rect x="16" y="37" width="2" height="1" fill="#646466"/>
  </g>
  <g id="slider-left" transform="translate(0,-1)">
   <rect x="14" y="26" width="4" height="10" opacity="0" stroke-width="2.2361"/>
   <rect x="16" y="26" width="2" height="10" fill="#646466"/>
  </g>
 </g>
 <g transform="translate(0 -1022.5)" fill="#f0f">
  <rect id="hint-tile-center" y="1022.5" width="5" height="5"/>
  <rect id="hint-scrollbar-size" y="1032.5" width="8" height="8"/>
 </g>
</svg>
