<?xml version="1.0" encoding="UTF-8"?>
<svg width="90" height="70" version="1.1" viewBox="0 0 90 70" xmlns="http://www.w3.org/2000/svg" xmlns:xlink="http://www.w3.org/1999/xlink">
 <defs>
  <linearGradient id="fill">
   <stop stop-color="#7a7a7c" offset="0"/>
   <stop stop-color="#646466" offset="1"/>
  </linearGradient>
  <linearGradient id="linearGradient1746" x1="80" x2="80" y1="26" y2="44" gradientTransform="matrix(.88889 0 0 .88889 8.8889 3.8889)" gradientUnits="userSpaceOnUse" xlink:href="#fill"/>
  <linearGradient id="linearGradient879" x1="80" x2="80" y1="26" y2="44" gradientUnits="userSpaceOnUse" xlink:href="#fill"/>
 </defs>
 <g transform="translate(0 -3.3203e-6)">
  <g id="horizontal-slider-handle" transform="translate(0,25)">
   <rect x="10" y="25" width="20" height="20" opacity="0"/>
   <circle cx="20" cy="35" r="8" fill="#505052"/>
   <circle cx="20" cy="35" r="7" fill="#28282a"/>
  </g>
  <g id="horizontal-slider-hover" transform="translate(0,25)">
   <rect x="40" y="25" width="20" height="20" opacity="0"/>
   <circle cx="50" cy="35" r="9" fill="#7a7a7c"/>
   <circle cx="50" cy="35" r="8" fill="#7a7a7c"/>
  </g>
  <g id="horizontal-slider-focus" transform="translate(0,25)">
   <rect x="70" y="25" width="20" height="20" opacity="0"/>
   <circle cx="80" cy="35" r="9" fill="url(#linearGradient879)"/>
   <circle cx="80" cy="35" r="8" fill="url(#linearGradient1746)"/>
  </g>
 </g>
 <g id="vertical-slider-handle">
  <rect x="10" y="25" width="20" height="20" opacity="0"/>
  <circle cx="20" cy="35" r="8" fill="#505052"/>
  <circle cx="20" cy="35" r="7" fill="#28282a"/>
 </g>
 <g id="vertical-slider-hover">
  <rect x="40" y="25" width="20" height="20" opacity="0"/>
  <circle cx="50" cy="35" r="9" fill="#7a7a7c"/>
  <circle cx="50" cy="35" r="8" fill="#7a7a7c"/>
 </g>
 <g id="vertical-slider-focus">
  <rect x="70" y="25" width="20" height="20" opacity="0"/>
  <circle cx="80" cy="35" r="9" fill="url(#linearGradient879)"/>
  <circle cx="80" cy="35" r="8" fill="url(#linearGradient1746)"/>
 </g>
 <g transform="translate(0 -3.3203e-6)">
  <rect id="groove-highlight-center" x="33" y="13" width="2" height="2" fill="#6e6e70"/>
  <rect id="groove-highlight-right" x="36" y="13" width="2" height="2" fill="#6e6e70"/>
  <rect id="groove-highlight-bottom" x="33" y="16" width="2" height="2" fill="#6e6e70"/>
  <rect id="groove-highlight-top" x="33" y="10" width="2" height="2" fill="#6e6e70"/>
  <rect id="groove-highlight-left" x="30" y="13" width="2" height="2" fill="#6e6e70"/>
  <rect id="groove-highlight-topleft" x="30" y="10" width="2" height="2" fill="#6e6e70"/>
  <rect id="groove-highlight-topright" x="36" y="10" width="2" height="2" fill="#6e6e70"/>
  <rect id="groove-highlight-bottomright" x="36" y="16" width="2" height="2" fill="#6e6e70"/>
  <rect id="groove-highlight-bottomleft" x="30" y="16" width="2" height="2" fill="#6e6e70"/>
  <rect id="groove-center" x="13" y="13" width="2" height="2" fill="#414143"/>
  <rect id="groove-right" x="16" y="13" width="2" height="2" fill="#414143"/>
  <rect id="groove-bottom" x="13" y="16" width="2" height="2" fill="#414143"/>
  <rect id="groove-top" x="13" y="10" width="2" height="2" fill="#414143"/>
  <rect id="groove-left" x="10" y="13" width="2" height="2" fill="#414143"/>
  <rect id="groove-topleft" x="10" y="10" width="2" height="2" fill="#414143"/>
  <rect id="groove-topright" x="16" y="10" width="2" height="2" fill="#414143"/>
  <rect id="groove-bottomright" x="16" y="16" width="2" height="2" fill="#414143"/>
  <rect id="groove-bottomleft" x="10" y="16" width="2" height="2" fill="#414143"/>
 </g>
 <g transform="translate(0 -822.52)" fill="#f0f">
  <rect id="hint-tile-center" y="822.52" width="5" height="5" ry="0"/>
  <circle id="hint-handle-size" cx="80" cy="832.52" r="10"/>
 </g>
</svg>
