<?xml version="1.0" encoding="UTF-8"?>
<svg width="138" height="138" version="1.1" viewBox="0 0 138 138" xmlns="http://www.w3.org/2000/svg">
 <rect id="west-active-tab-right" transform="rotate(-90)" x="-109" y="16" width="80" height="3" ry="0" fill="#6e6e70"/>
 <rect id="west-active-tab-bottom" transform="rotate(-90)" x="-119" y="4" width="10" height="12" fill="#fff" opacity=".08"/>
 <rect id="west-active-tab-top" transform="rotate(-90)" x="-29" y="4" width="10" height="12" fill="#fff" opacity=".08"/>
 <rect id="west-active-tab-center" transform="rotate(-90)" x="-109" y="4" width="80" height="12" fill="#fff" opacity=".08"/>
 <rect id="west-active-tab-bottomleft" transform="rotate(-90)" x="-119" width="10" height="4" fill="#fff" opacity=".08"/>
 <rect id="west-active-tab-topleft" transform="rotate(-90)" x="-29" width="10" height="4" fill="#fff" opacity=".08"/>
 <rect id="west-active-tab-left" transform="rotate(-90)" x="-109" width="80" height="4" fill="#fff" opacity=".08"/>
 <g id="west-active-tab-bottomright" transform="translate(-36,-51)">
  <rect transform="rotate(-90)" x="-170" y="52" width="10" height="3" ry="0" fill="#fff" opacity=".08"/>
  <rect transform="rotate(-90)" x="-170" y="52" width="10" height="3" fill="#6e6e70"/>
 </g>
 <g id="west-active-tab-topright" transform="translate(-36,-51)">
  <rect transform="rotate(-90)" x="-80" y="52" width="10" height="3" ry="0" fill="#fff" opacity=".08"/>
  <rect transform="rotate(-90)" x="-80" y="52" width="10" height="3" fill="#6e6e70"/>
 </g>
 <rect id="south-active-tab-top" transform="scale(-1)" x="-109" y="-122" width="80" height="3" ry="0" fill="#6e6e70"/>
 <rect id="south-active-tab-right" transform="scale(-1)" x="-119" y="-134" width="10" height="12" fill="#fff" opacity=".08"/>
 <rect id="south-active-tab-left" transform="scale(-1)" x="-29" y="-134" width="10" height="12" fill="#fff" opacity=".08"/>
 <rect id="south-active-tab-center" transform="scale(-1)" x="-109" y="-134" width="80" height="12" fill="#fff" opacity=".08"/>
 <rect id="south-active-tab-bottomright" transform="scale(-1)" x="-119" y="-138" width="10" height="4" fill="#fff" opacity=".08"/>
 <rect id="south-active-tab-bottomleft" transform="scale(-1)" x="-29" y="-138" width="10" height="4" fill="#fff" opacity=".08"/>
 <rect id="south-active-tab-bottom" transform="scale(-1)" x="-109" y="-138" width="80" height="4" fill="#fff" opacity=".08"/>
 <g id="south-active-tab-topright" transform="translate(-36,-51)">
  <rect transform="scale(-1)" x="-155" y="-173" width="10" height="3" ry="0" fill="#fff" opacity=".08"/>
  <rect transform="scale(-1)" x="-155" y="-173" width="10" height="3" fill="#6e6e70"/>
 </g>
 <g id="south-active-tab-topleft" transform="translate(-36,-51)">
  <rect transform="scale(-1)" x="-65" y="-173" width="10" height="3" ry="0" fill="#fff" opacity=".08"/>
  <rect transform="scale(-1)" x="-65" y="-173" width="10" height="3" fill="#6e6e70"/>
 </g>
 <rect id="east-active-tab-left" transform="rotate(90)" x="29" y="-122" width="80" height="3" ry="0" fill="#6e6e70"/>
 <rect id="east-active-tab-top" transform="rotate(90)" x="19" y="-134" width="10" height="12" fill="#fff" opacity=".08"/>
 <rect id="east-active-tab-bottom" transform="rotate(90)" x="109" y="-134" width="10" height="12" fill="#fff" opacity=".08"/>
 <rect id="east-active-tab-center" transform="rotate(90)" x="29" y="-134" width="80" height="12" fill="#fff" opacity=".08"/>
 <rect id="east-active-tab-topright" transform="rotate(90)" x="19" y="-138" width="10" height="4" fill="#fff" opacity=".08"/>
 <rect id="east-active-tab-bottomright" transform="rotate(90)" x="109" y="-138" width="10" height="4" fill="#fff" opacity=".08"/>
 <rect id="east-active-tab-right" transform="rotate(90)" x="29" y="-138" width="80" height="4" fill="#fff" opacity=".08"/>
 <g id="east-active-tab-topleft" transform="translate(-36,-51)">
  <rect transform="rotate(90)" x="70" y="-158" width="10" height="3" ry="0" fill="#fff" opacity=".08"/>
  <rect transform="rotate(90)" x="70" y="-158" width="10" height="3" fill="#6e6e70"/>
 </g>
 <g id="east-active-tab-bottomleft" transform="translate(-36,-51)">
  <rect transform="rotate(90)" x="160" y="-158" width="10" height="3" ry="0" fill="#fff" opacity=".08"/>
  <rect transform="rotate(90)" x="160" y="-158" width="10" height="3" fill="#6e6e70"/>
 </g>
 <rect id="north-active-tab-bottom" x="29" y="16" width="80" height="3" ry="0" fill="#6e6e70"/>
 <rect id="north-active-tab-left" x="19" y="4" width="10" height="12" fill="#fff" opacity=".08"/>
 <rect id="north-active-tab-right" x="109" y="4" width="10" height="12" fill="#fff" opacity=".08"/>
 <rect id="north-active-tab-center" x="29" y="4" width="80" height="12" fill="#fff" opacity=".08"/>
 <rect id="north-active-tab-topleft" x="19" width="10" height="4" fill="#fff" opacity=".08"/>
 <rect id="north-active-tab-topright" x="109" width="10" height="4" fill="#fff" opacity=".08"/>
 <rect id="north-active-tab-top" x="29" width="80" height="4" fill="#fff" opacity=".08"/>
 <g id="north-active-tab-bottomleft" transform="translate(-36,-51)">
  <rect x="55" y="67" width="10" height="3" ry="0" fill="#fff" opacity=".08"/>
  <rect x="55" y="67" width="10" height="3" fill="#6e6e70"/>
 </g>
 <g id="north-active-tab-bottomright" transform="translate(-36,-51)">
  <rect x="145" y="67" width="10" height="3" ry="0" fill="#fff" opacity=".08"/>
  <rect x="145" y="67" width="10" height="3" fill="#6e6e70"/>
 </g>
 <rect id="north-focus-hint-right-margin" transform="scale(-1)" x="-119" y="-12" width="6" height="4" fill="#f0f"/>
 <rect id="north-focus-hint-left-margin" transform="scale(-1)" x="-25" y="-12" width="6" height="4" fill="#f0f"/>
 <rect id="north-focus-hint-bottom-margin" transform="scale(-1)" x="-71" y="-19" width="4" height="8" fill="#f0f"/>
 <rect id="north-focus-hint-top-margin" transform="scale(-1)" x="-71" y="-4" width="4" height="4" fill="#f0f"/>
 <rect id="hint-tile-center" y="1.9531e-5" width="5" height="5" fill="#f0f" opacity=".875"/>
 <rect id="east-active-tab-hint-bottom-margin" transform="rotate(-90)" x="-118.98" y="127" width="6" height="4" fill="#f0f"/>
 <rect id="east-active-tab-hint-top-margin" transform="rotate(-90)" x="-25" y="127" width="6" height="4" fill="#f0f"/>
 <rect id="east-active-tab-hint-left-margin" transform="rotate(-90)" x="-70.98" y="119" width="4" height="8" fill="#f0f"/>
 <rect id="east-active-tab-hint-right-margin" transform="rotate(-90)" x="-70.98" y="134" width="4" height="4" fill="#f0f"/>
 <rect id="south-active-tab-hint-left-margin" x="19" y="126.98" width="6" height="4" fill="#f0f"/>
 <rect id="south-active-tab-hint-right-margin" x="113" y="126.98" width="6" height="4" fill="#f0f"/>
 <rect id="south-active-tab-hint-top-margin" x="67" y="121.98" width="4" height="8" fill="#f0f"/>
 <rect id="south-active-tab-hint-bottom-margin" x="67" y="133.98" width="4" height="4" fill="#f0f"/>
 <rect id="west-active-tab-hint-top-margin" transform="rotate(90)" x="19" y="-11" width="6" height="4" fill="#f0f"/>
 <rect id="west-active-tab-hint-bottom-margin" transform="rotate(90)" x="112.98" y="-11" width="6" height="4" fill="#f0f"/>
 <rect id="west-active-tab-hint-right-margin" transform="rotate(90)" x="66.98" y="-19" width="4" height="8" fill="#f0f"/>
 <rect id="west-active-tab-hint-left-margin" transform="rotate(90)" x="66.98" y="-4" width="4" height="4" fill="#f0f"/>
</svg>
