<?xml version="1.0" encoding="UTF-8"?>
<svg width="138" height="138" version="1.1" viewBox="0 0 138 138" xmlns="http://www.w3.org/2000/svg">
 <g transform="translate(-36,-51)">
  <rect id="west-active-tab-right" transform="rotate(-90)" x="-160" y="52" width="80" height="3" ry="0" fill="#6e6e70"/>
  <rect id="west-active-tab-bottom" transform="rotate(-90)" x="-170" y="40" width="10" height="12" fill="#fff" opacity=".08"/>
  <rect id="west-active-tab-top" transform="rotate(-90)" x="-80" y="40" width="10" height="12" fill="#fff" opacity=".08"/>
  <rect id="west-active-tab-center" transform="rotate(-90)" x="-160" y="40" width="80" height="12" fill="#fff" opacity=".08"/>
  <rect id="west-active-tab-bottomleft" transform="rotate(-90)" x="-170" y="36" width="10" height="4" fill="#fff" opacity=".08"/>
  <rect id="west-active-tab-topleft" transform="rotate(-90)" x="-80" y="36" width="10" height="4" fill="#fff" opacity=".08"/>
  <rect id="west-active-tab-left" transform="rotate(-90)" x="-160" y="36" width="80" height="4" fill="#fff" opacity=".08"/>
  <g id="west-active-tab-bottomright">
   <rect transform="rotate(-90)" x="-170" y="52" width="10" height="3" ry="0" fill="#fff" opacity=".08"/>
   <rect transform="rotate(-90)" x="-170" y="52" width="10" height="3" fill="#6e6e70"/>
  </g>
  <g id="west-active-tab-topright">
   <rect transform="rotate(-90)" x="-80" y="52" width="10" height="3" ry="0" fill="#fff" opacity=".08"/>
   <rect transform="rotate(-90)" x="-80" y="52" width="10" height="3" fill="#6e6e70"/>
  </g>
  <rect id="south-active-tab-top" transform="scale(-1)" x="-145" y="-173" width="80" height="3" ry="0" fill="#6e6e70"/>
  <rect id="south-active-tab-right" transform="scale(-1)" x="-155" y="-185" width="10" height="12" fill="#fff" opacity=".08"/>
  <rect id="south-active-tab-left" transform="scale(-1)" x="-65" y="-185" width="10" height="12" fill="#fff" opacity=".08"/>
  <rect id="south-active-tab-center" transform="scale(-1)" x="-145" y="-185" width="80" height="12" fill="#fff" opacity=".08"/>
  <rect id="south-active-tab-bottomright" transform="scale(-1)" x="-155" y="-189" width="10" height="4" fill="#fff" opacity=".08"/>
  <rect id="south-active-tab-bottomleft" transform="scale(-1)" x="-65" y="-189" width="10" height="4" fill="#fff" opacity=".08"/>
  <rect id="south-active-tab-bottom" transform="scale(-1)" x="-145" y="-189" width="80" height="4" fill="#fff" opacity=".08"/>
  <g id="south-active-tab-topright">
   <rect transform="scale(-1)" x="-155" y="-173" width="10" height="3" ry="0" fill="#fff" opacity=".08"/>
   <rect transform="scale(-1)" x="-155" y="-173" width="10" height="3" fill="#6e6e70"/>
  </g>
  <g id="south-active-tab-topleft">
   <rect transform="scale(-1)" x="-65" y="-173" width="10" height="3" ry="0" fill="#fff" opacity=".08"/>
   <rect transform="scale(-1)" x="-65" y="-173" width="10" height="3" fill="#6e6e70"/>
  </g>
  <rect id="east-active-tab-left" transform="rotate(90)" x="80" y="-158" width="80" height="3" ry="0" fill="#6e6e70"/>
  <rect id="east-active-tab-top" transform="rotate(90)" x="70" y="-170" width="10" height="12" fill="#fff" opacity=".08"/>
  <rect id="east-active-tab-bottom" transform="rotate(90)" x="160" y="-170" width="10" height="12" fill="#fff" opacity=".08"/>
  <rect id="east-active-tab-center" transform="rotate(90)" x="80" y="-170" width="80" height="12" fill="#fff" opacity=".08"/>
  <rect id="east-active-tab-topright" transform="rotate(90)" x="70" y="-174" width="10" height="4" fill="#fff" opacity=".08"/>
  <rect id="east-active-tab-bottomright" transform="rotate(90)" x="160" y="-174" width="10" height="4" fill="#fff" opacity=".08"/>
  <rect id="east-active-tab-right" transform="rotate(90)" x="80" y="-174" width="80" height="4" fill="#fff" opacity=".08"/>
  <g id="east-active-tab-topleft">
   <rect transform="rotate(90)" x="70" y="-158" width="10" height="3" ry="0" fill="#fff" opacity=".08"/>
   <rect transform="rotate(90)" x="70" y="-158" width="10" height="3" fill="#6e6e70"/>
  </g>
  <g id="east-active-tab-bottomleft">
   <rect transform="rotate(90)" x="160" y="-158" width="10" height="3" ry="0" fill="#fff" opacity=".08"/>
   <rect transform="rotate(90)" x="160" y="-158" width="10" height="3" fill="#6e6e70"/>
  </g>
  <rect id="north-active-tab-bottom" x="65" y="67" width="80" height="3" ry="0" fill="#6e6e70"/>
  <rect id="north-active-tab-left" x="55" y="55" width="10" height="12" fill="#fff" opacity=".08"/>
  <rect id="north-active-tab-right" x="145" y="55" width="10" height="12" fill="#fff" opacity=".08"/>
  <rect id="north-active-tab-center" x="65" y="55" width="80" height="12" fill="#fff" opacity=".08"/>
  <rect id="north-active-tab-topleft" x="55" y="51" width="10" height="4" fill="#fff" opacity=".08"/>
  <rect id="north-active-tab-topright" x="145" y="51" width="10" height="4" fill="#fff" opacity=".08"/>
  <rect id="north-active-tab-top" x="65" y="51" width="80" height="4" fill="#fff" opacity=".08"/>
  <g id="north-active-tab-bottomleft">
   <rect x="55" y="67" width="10" height="3" ry="0" fill="#fff" opacity=".08"/>
   <rect x="55" y="67" width="10" height="3" fill="#6e6e70"/>
  </g>
  <g id="north-active-tab-bottomright">
   <rect x="145" y="67" width="10" height="3" ry="0" fill="#fff" opacity=".08"/>
   <rect x="145" y="67" width="10" height="3" fill="#6e6e70"/>
  </g>
 </g>
 <g transform="translate(-36 -973.52)" fill="#f0f">
  <rect id="north-focus-hint-right-margin" transform="scale(-1)" x="-155" y="-985.52" width="6" height="4"/>
  <rect id="north-focus-hint-left-margin" transform="scale(-1)" x="-61" y="-985.52" width="6" height="4"/>
  <rect id="north-focus-hint-bottom-margin" transform="scale(-1)" x="-107" y="-992.52" width="4" height="8"/>
  <rect id="north-focus-hint-top-margin" transform="scale(-1)" x="-107" y="-977.52" width="4" height="4"/>
  <rect id="hint-tile-center" x="36" y="973.52" width="5" height="5" opacity=".875"/>
  <rect id="east-active-tab-hint-bottom-margin" transform="rotate(-90)" x="-1092.5" y="163" width="6" height="4"/>
  <rect id="east-active-tab-hint-top-margin" transform="rotate(-90)" x="-998.52" y="163" width="6" height="4"/>
  <rect id="east-active-tab-hint-left-margin" transform="rotate(-90)" x="-1044.5" y="155" width="4" height="8"/>
  <rect id="east-active-tab-hint-right-margin" transform="rotate(-90)" x="-1044.5" y="170" width="4" height="4"/>
  <rect id="south-active-tab-hint-left-margin" x="55" y="1100.5" width="6" height="4"/>
  <rect id="south-active-tab-hint-right-margin" x="149" y="1100.5" width="6" height="4"/>
  <rect id="south-active-tab-hint-top-margin" x="103" y="1095.5" width="4" height="8"/>
  <rect id="south-active-tab-hint-bottom-margin" x="103" y="1107.5" width="4" height="4"/>
  <rect id="west-active-tab-hint-top-margin" transform="rotate(90)" x="992.52" y="-47" width="6" height="4"/>
  <rect id="west-active-tab-hint-bottom-margin" transform="rotate(90)" x="1086.5" y="-47" width="6" height="4"/>
  <rect id="west-active-tab-hint-right-margin" transform="rotate(90)" x="1040.5" y="-55" width="4" height="8"/>
  <rect id="west-active-tab-hint-left-margin" transform="rotate(90)" x="1040.5" y="-40" width="4" height="4"/>
 </g>
</svg>
