<?xml version="1.0" encoding="UTF-8"?>
<svg width="349.21" height="654.28" version="1.1" viewBox="0 0 349.21 654.28" xmlns="http://www.w3.org/2000/svg" xmlns:xlink="http://www.w3.org/1999/xlink">
 <g transform="translate(1.5 -632.32)">
  <g transform="translate(-201.5 798.82)">
   <rect x="200" y="324.92" width="88.571" height="162.86" opacity="0"/>
   <path d="m243.55 363.06c-7.3125 1e-4 -12.82 3.6095-16.523 10.828-3.6563 7.172-5.4844 17.977-5.4844 32.414-3e-5 14.391 1.8281 25.195 5.4844 32.414 3.7031 7.1719 9.2109 10.758 16.523 10.758 7.3593 1e-5 12.867-3.5859 16.523-10.758 3.703-7.2187 5.5546-18.023 5.5547-32.414-7e-5 -14.437-1.8516-25.242-5.5547-32.414-3.6563-7.2186-9.1641-10.828-16.523-10.828m0-11.25c11.766 1.1e-4 20.742 4.6642 26.93 13.992 6.2343 9.2813 9.3515 22.781 9.3516 40.5-8e-5 17.672-3.1173 31.172-9.3516 40.5-6.1876 9.2812-15.164 13.922-26.93 13.922-11.766 0-20.766-4.6406-27-13.922-6.1875-9.3281-9.2813-22.828-9.2812-40.5-1e-5 -17.719 3.0937-31.219 9.2812-40.5 6.2344-9.328 15.234-13.992 27-13.992" fill="#aaaaac"/>
   <rect x="200.5" y="324.51" width="88.571" height="162.86" fill="none"/>
  </g>
  <g transform="translate(-381.54 633.7)">
   <rect x="380.54" y="326.77" width="88.571" height="162.86" opacity="0"/>
   <path d="m396.18 448.58h23.203v-80.086l-25.242 5.0625v-12.938l25.102-5.0625h14.203v93.023h23.203v11.953h-60.469v-11.953" fill="#aaaaac"/>
   <rect x="381.04" y="326.36" width="88.571" height="162.86" fill="none"/>
  </g>
  <g transform="translate(-422.48 634.67)">
   <rect x="551.55" y="324.58" width="88.571" height="162.86" opacity="0"/>
   <path d="m576.97 446.38h49.57v11.953h-66.656v-11.953c5.3906-5.5781 12.727-13.055 22.008-22.43 9.3281-9.4218 15.187-15.492 17.578-18.211 4.5468-5.1093 7.7109-9.4218 9.4922-12.938 1.8281-3.5624 2.7421-7.0546 2.7422-10.477-6e-5 -5.578-1.9688-10.125-5.9062-13.641-3.8907-3.5155-8.9766-5.2733-15.258-5.2734-4.4532 9e-5 -9.1641 0.77353-14.133 2.3203-4.9219 1.547-10.195 3.8907-15.82 7.0312v-14.344c5.7187-2.2968 11.062-4.0312 16.031-5.2031 4.9687-1.1718 9.5156-1.7577 13.641-1.7578 10.875 1.1e-4 19.547 2.7188 26.016 8.1562 6.4687 5.4376 9.703 12.703 9.7031 21.797-8e-5 4.3126-0.82039 8.4141-2.4609 12.305-1.5938 3.8438-4.5235 8.3907-8.7891 13.641-1.1719 1.3594-4.8985 5.2969-11.18 11.812-6.2813 6.4688-15.141 15.539-26.578 27.211" fill="#aaaaac"/>
   <rect x="552.05" y="324.17" width="88.571" height="162.86" fill="none"/>
  </g>
  <g transform="translate(51.992 402.68)">
   <rect x="205.15" y="556.97" width="88.571" height="162.86" opacity="0"/>
   <path d="m261.36 634.13c6.7968 1.4532 12.094 4.4766 15.891 9.0703 3.8437 4.5938 5.7656 10.266 5.7656 17.016-8e-5 10.359-3.5626 18.375-10.688 24.047-7.1251 5.6719-17.25 8.5078-30.375 8.5078-4.4063 0-8.9532-0.44531-13.641-1.3359-4.6406-0.84375-9.4453-2.1328-14.414-3.8672v-13.711c3.9375 2.2969 8.25 4.0313 12.938 5.2031 4.6875 1.1719 9.5859 1.7578 14.695 1.7578 8.9062 1e-5 15.68-1.7578 20.32-5.2734 4.6874-3.5156 7.0312-8.625 7.0312-15.328-6e-5 -6.1875-2.1798-11.016-6.5391-14.484-4.3126-3.5156-10.336-5.2734-18.07-5.2734h-12.234v-11.672h12.797c6.9843 7e-5 12.328-1.3827 16.031-4.1484 3.7031-2.8124 5.5546-6.8437 5.5547-12.094-7e-5 -5.3905-1.9219-9.5155-5.7656-12.375-3.7969-2.9062-9.2579-4.3593-16.383-4.3594-3.8907 1e-4 -8.0625 0.42197-12.516 1.2656-4.4532 0.84384-9.3516 2.1563-14.695 3.9375v-12.656c5.3906-1.4999 10.43-2.6249 15.117-3.375 4.7343-0.7499 9.1875-1.1249 13.359-1.125 10.781 1e-4 19.312 2.461 25.594 7.3828 6.2812 4.8751 9.4218 11.484 9.4219 19.828-8e-5 5.8126-1.6641 10.734-4.9922 14.766-3.3282 3.9844-8.0626 6.7501-14.203 8.2969" fill="#aaaaac"/>
   <rect x="205.65" y="556.57" width="88.571" height="162.86" fill="none"/>
  </g>
  <g transform="translate(-386.43 238.86)">
   <rect x="384.93" y="559.16" width="88.571" height="162.86" opacity="0"/>
   <path d="m437.13 600.32-35.859 56.039h35.859v-56.039m-3.7266-12.375h17.859v68.414h14.977v11.812h-14.977v24.75h-14.133v-24.75h-47.391v-13.711l43.664-66.516" fill="#aaaaac"/>
   <rect x="385.43" y="558.76" width="88.571" height="162.86" fill="none"/>
  </g>
  <g transform="translate(-434.44 220.5)">
   <rect x="562.51" y="576.71" width="88.571" height="162.86" opacity="0"/>
   <path d="m575.83 605.49h55.758v11.953h-42.75v25.734c2.0625-0.70306 4.125-1.2187 6.1875-1.5469 2.0625-0.37493 4.125-0.56243 6.1875-0.5625 11.719 7e-5 21 3.211 27.844 9.6328 6.8437 6.4219 10.266 15.117 10.266 26.086-8e-5 11.297-3.5157 20.086-10.547 26.367-7.0313 6.2344-16.945 9.3516-29.742 9.3516-4.4063 0-8.9063-0.375-13.5-1.125-4.5469-0.75-9.2578-1.875-14.133-3.375v-14.273c4.2187 2.2969 8.5781 4.0078 13.078 5.1328 4.5 1.125 9.2578 1.6875 14.273 1.6875 8.1093 1e-5 14.531-2.1328 19.266-6.3984 4.7343-4.2656 7.1015-10.055 7.1016-17.367-6e-5 -7.3125-2.3672-13.102-7.1016-17.367-4.7344-4.2656-11.156-6.3984-19.266-6.3984-3.7969 5e-5 -7.5938 0.42193-11.391 1.2656-3.75 0.84381-7.5938 2.1563-11.531 3.9375v-52.734" fill="#aaaaac"/>
   <rect x="563.01" y="576.3" width="88.571" height="162.86" fill="none"/>
  </g>
  <g transform="translate(43.722 -10.514)">
   <rect x="213.92" y="806.91" width="88.571" height="162.86" opacity="0"/>
   <path d="m259.23 882.52c-6.375 5e-5 -11.438 2.1797-15.188 6.5391-3.7032 4.3594-5.5547 10.336-5.5547 17.93-3e-5 7.5469 1.8515 13.523 5.5547 17.93 3.75 4.3594 8.8125 6.5391 15.188 6.5391 6.3749 0 11.414-2.1797 15.117-6.5391 3.7499-4.4062 5.6249-10.383 5.625-17.93-7e-5 -7.5937-1.8751-13.57-5.625-17.93-3.7032-4.3593-8.7422-6.539-15.117-6.5391m28.195-44.508v12.938c-3.5626-1.6874-7.1719-2.9765-10.828-3.8672-3.6094-0.89054-7.1954-1.3358-10.758-1.3359-9.375 9e-5 -16.547 3.1642-21.516 9.4922-4.9219 6.3282-7.7344 15.891-8.4375 28.688 2.7656-4.0781 6.2343-7.1952 10.406-9.3516 4.1718-2.203 8.7656-3.3046 13.781-3.3047 10.547 6e-5 18.867 3.211 24.961 9.6328 6.1405 6.375 9.2108 15.07 9.2109 26.086-8e-5 10.781-3.1876 19.43-9.5625 25.945-6.3751 6.5156-14.859 9.7734-25.453 9.7734-12.141-1e-5 -21.422-4.6406-27.844-13.922-6.4219-9.3281-9.6328-22.828-9.6328-40.5-1e-5 -16.594 3.9375-29.812 11.812-39.656 7.875-9.8905 18.445-14.836 31.711-14.836 3.5624 1.1e-4 7.1484 0.35167 10.758 1.0547 3.6562 0.70323 7.453 1.7579 11.391 3.1641" fill="#aaaaac"/>
   <rect x="214.42" y="806.5" width="88.571" height="162.86" fill="none"/>
  </g>
  <g transform="translate(-450.28 -196.94)">
   <rect x="578.35" y="831.29" width="88.571" height="162.86" opacity="0"/>
   <path d="m621.91 915.2c-6.75 5e-5 -12.07 1.8047-15.961 5.4141-3.8438 3.6094-5.7656 8.5782-5.7656 14.906-2e-5 6.3282 1.9218 11.297 5.7656 14.906 3.8906 3.6094 9.2109 5.4141 15.961 5.4141 6.75 1e-5 12.07-1.8047 15.961-5.4141 3.8906-3.6562 5.8359-8.625 5.8359-14.906-7e-5 -6.3281-1.9454-11.297-5.8359-14.906-3.8438-3.6093-9.1641-5.414-15.961-5.4141m-14.203-6.0469c-6.0938-1.4999-10.852-4.3359-14.273-8.5078-3.375-4.1718-5.0625-9.2577-5.0625-15.258-1e-5 -8.3905 2.9766-15.023 8.9297-19.898 6-4.8749 14.203-7.3124 24.609-7.3125 10.453 1.1e-4 18.656 2.4376 24.609 7.3125 5.953 4.8751 8.9296 11.508 8.9297 19.898-8e-5 6.0001-1.711 11.086-5.1328 15.258-3.3751 4.1719-8.086 7.0079-14.133 8.5078 6.8437 1.5938 12.164 4.711 15.961 9.3516 3.8437 4.6407 5.7655 10.313 5.7656 17.016-8e-5 10.172-3.1173 17.977-9.3516 23.414-6.1876 5.4375-15.07 8.1562-26.648 8.1562-11.578 0-20.484-2.7188-26.719-8.1562-6.1875-5.4375-9.2813-13.242-9.2812-23.414-1e-5 -6.7031 1.9219-12.375 5.7656-17.016 3.8437-4.6406 9.1875-7.7578 16.031-9.3516m-5.2031-22.43c-2e-5 5.4376 1.6875 9.6798 5.0625 12.727 3.4218 3.0469 8.2031 4.5704 14.344 4.5703 6.0937 6e-5 10.852-1.5234 14.273-4.5703 3.4687-3.0468 5.2031-7.289 5.2031-12.727-6e-5 -5.4374-1.7344-9.6796-5.2031-12.727-3.4219-3.0468-8.1797-4.5702-14.273-4.5703-6.1407 1e-4 -10.922 1.5235-14.344 4.5703-3.375 3.047-5.0625 7.2892-5.0625 12.727" fill="#aaaaac"/>
   <rect x="578.85" y="830.89" width="88.571" height="162.86" fill="none"/>
  </g>
  <g transform="translate(51.962 -390.5)">
   <rect x="206.68" y="1023.2" width="88.571" height="162.86" opacity="0"/>
   <path d="m220.28 1154.8v-12.938c3.5625 1.6875 7.1718 2.9766 10.828 3.8672 3.6562 0.8906 7.2422 1.3359 10.758 1.3359 9.375 0 16.523-3.1406 21.445-9.4219 4.9687-6.3281 7.8046-15.914 8.5078-28.758-2.7188 4.0313-6.1641 7.1251-10.336 9.2813-4.1719 2.1563-8.7891 3.2344-13.852 3.2343-10.5 1e-4 -18.82-3.164-24.961-9.4921-6.0938-6.375-9.1406-15.07-9.1406-26.086-1e-5 -10.781 3.1875-19.43 9.5625-25.945 6.375-6.5155 14.859-9.7733 25.453-9.7734 12.141 1e-4 21.398 4.6641 27.773 13.992 6.4218 9.2813 9.6327 22.781 9.6328 40.5-8e-5 16.547-3.9376 29.766-11.812 39.656-7.8282 9.8438-18.375 14.766-31.641 14.766-3.5625 0-7.1719-0.3515-10.828-1.0546-3.6563-0.7032-7.4531-1.7579-11.391-3.1641m28.266-44.508c6.375 0 11.414-2.1797 15.117-6.5391 3.7499-4.3593 5.6249-10.336 5.625-17.93-7e-5 -7.5468-1.8751-13.5-5.625-17.859-3.7032-4.4062-8.7422-6.6093-15.117-6.6094-6.375 1e-4 -11.438 2.2032-15.188 6.6094-3.7032 4.3594-5.5547 10.312-5.5547 17.859-2e-5 7.5938 1.8515 13.57 5.5547 17.93 3.75 4.3594 8.8125 6.5391 15.188 6.5391" fill="#aaaaac"/>
   <rect x="207.18" y="1022.8" width="88.571" height="162.86" fill="none"/>
  </g>
  <g transform="translate(-401.93 -176.58)">
   <rect x="400.93" y="811.34" width="88.571" height="162.86" opacity="0"/>
   <path d="m410.52 840.12h67.5v6.0469l-38.109 98.93h-14.836l35.859-93.023h-50.414v-11.953" fill="#aaaaac"/>
   <rect x="401.43" y="810.93" width="88.571" height="162.86" fill="none"/>
  </g>
  <g id="separator" transform="translate(57.142 798.23)">
   <rect x="200" y="324.28" width="45" height="163.08" fill="none"/>
   <path d="m215.9 424.23h14.836v17.859h-14.836v-17.859m0-56.602h14.836v17.859h-14.836v-17.859" fill="#aaaaac"/>
  </g>
  <g transform="translate(150.21 793.94)">
   <rect x="200" y="324.92" width="88.571" height="162.86" opacity="0"/>
   <path d="m243.55 363.06c-7.3125 1e-4 -12.82 3.6095-16.523 10.828-3.6563 7.172-5.4844 17.977-5.4844 32.414-3e-5 14.391 1.8281 25.195 5.4844 32.414 3.7031 7.1719 9.2109 10.758 16.523 10.758 7.3593 1e-5 12.867-3.5859 16.523-10.758 3.703-7.2187 5.5546-18.023 5.5547-32.414-7e-5 -14.437-1.8516-25.242-5.5547-32.414-3.6563-7.2186-9.1641-10.828-16.523-10.828m0-11.25c11.766 1.1e-4 20.742 4.6642 26.93 13.992 6.2343 9.2813 9.3515 22.781 9.3516 40.5-8e-5 17.672-3.1173 31.172-9.3516 40.5-6.1876 9.2812-15.164 13.922-26.93 13.922-11.766 0-20.766-4.6406-27-13.922-6.1875-9.3281-9.2813-22.828-9.2812-40.5-1e-5 -17.719 3.0937-31.219 9.2812-40.5 6.2344-9.328 15.234-13.992 27-13.992" fill="#da4453"/>
   <rect x="200.5" y="324.51" width="88.571" height="162.86" fill="none"/>
  </g>
  <g transform="translate(-31.327 630.05)">
   <rect x="380.54" y="326.77" width="88.571" height="162.86" opacity="0"/>
   <path d="m396.18 448.58h23.203v-80.086l-25.242 5.0625v-12.938l25.102-5.0625h14.203v93.023h23.203v11.953h-60.469v-11.953" fill="#da4453"/>
   <rect x="381.04" y="326.36" width="88.571" height="162.86" fill="none"/>
  </g>
  <g transform="translate(-73.266 631.83)">
   <rect x="551.55" y="324.58" width="88.571" height="162.86" opacity="0"/>
   <path d="m576.97 446.38h49.57v11.953h-66.656v-11.953c5.3906-5.5781 12.727-13.055 22.008-22.43 9.3281-9.4218 15.187-15.492 17.578-18.211 4.5468-5.1093 7.7109-9.4218 9.4922-12.938 1.8281-3.5624 2.7421-7.0546 2.7422-10.477-6e-5 -5.578-1.9688-10.125-5.9062-13.641-3.8907-3.5155-8.9766-5.2733-15.258-5.2734-4.4532 9e-5 -9.1641 0.77353-14.133 2.3203-4.9219 1.547-10.195 3.8907-15.82 7.0312v-14.344c5.7187-2.2968 11.062-4.0312 16.031-5.2031 4.9687-1.1718 9.5156-1.7577 13.641-1.7578 10.875 1.1e-4 19.547 2.7188 26.016 8.1562 6.4687 5.4376 9.703 12.703 9.7031 21.797-8e-5 4.3126-0.82039 8.4141-2.4609 12.305-1.5938 3.8438-4.5235 8.3907-8.7891 13.641-1.1719 1.3594-4.8985 5.2969-11.18 11.812-6.2813 6.4688-15.141 15.539-26.578 27.211" fill="#da4453"/>
   <rect x="552.05" y="324.17" width="88.571" height="162.86" fill="none"/>
  </g>
  <g transform="translate(402.2 399.03)">
   <rect x="205.15" y="556.97" width="88.571" height="162.86" opacity="0"/>
   <path d="m261.36 634.13c6.7968 1.4532 12.094 4.4766 15.891 9.0703 3.8437 4.5938 5.7656 10.266 5.7656 17.016-8e-5 10.359-3.5626 18.375-10.688 24.047-7.1251 5.6719-17.25 8.5078-30.375 8.5078-4.4063 0-8.9532-0.44531-13.641-1.3359-4.6406-0.84375-9.4453-2.1328-14.414-3.8672v-13.711c3.9375 2.2969 8.25 4.0313 12.938 5.2031 4.6875 1.1719 9.5859 1.7578 14.695 1.7578 8.9062 1e-5 15.68-1.7578 20.32-5.2734 4.6874-3.5156 7.0312-8.625 7.0312-15.328-6e-5 -6.1875-2.1798-11.016-6.5391-14.484-4.3126-3.5156-10.336-5.2734-18.07-5.2734h-12.234v-11.672h12.797c6.9843 7e-5 12.328-1.3827 16.031-4.1484 3.7031-2.8124 5.5546-6.8437 5.5547-12.094-7e-5 -5.3905-1.9219-9.5155-5.7656-12.375-3.7969-2.9062-9.2579-4.3593-16.383-4.3594-3.8907 1e-4 -8.0625 0.42197-12.516 1.2656-4.4532 0.84384-9.3516 2.1563-14.695 3.9375v-12.656c5.3906-1.4999 10.43-2.6249 15.117-3.375 4.7343-0.7499 9.1875-1.1249 13.359-1.125 10.781 1e-4 19.312 2.461 25.594 7.3828 6.2812 4.8751 9.4218 11.484 9.4219 19.828-8e-5 5.8126-1.6641 10.734-4.9922 14.766-3.3282 3.9844-8.0626 6.7501-14.203 8.2969" fill="#da4453"/>
   <rect x="205.65" y="556.57" width="88.571" height="162.86" fill="none"/>
  </g>
  <g transform="translate(-36.217 235.21)">
   <rect x="384.93" y="559.16" width="88.571" height="162.86" opacity="0"/>
   <path d="m437.13 600.32-35.859 56.039h35.859v-56.039m-3.7266-12.375h17.859v68.414h14.977v11.812h-14.977v24.75h-14.133v-24.75h-47.391v-13.711l43.664-66.516" fill="#da4453"/>
   <rect x="385.43" y="558.76" width="88.571" height="162.86" fill="none"/>
  </g>
  <g transform="translate(-84.726 217.26)">
   <rect x="562.51" y="576.71" width="88.571" height="162.86" opacity="0"/>
   <path d="m575.83 605.49h55.758v11.953h-42.75v25.734c2.0625-0.70306 4.125-1.2187 6.1875-1.5469 2.0625-0.37493 4.125-0.56243 6.1875-0.5625 11.719 7e-5 21 3.211 27.844 9.6328 6.8437 6.4219 10.266 15.117 10.266 26.086-8e-5 11.297-3.5157 20.086-10.547 26.367-7.0313 6.2344-16.945 9.3516-29.742 9.3516-4.4063 0-8.9063-0.375-13.5-1.125-4.5469-0.75-9.2578-1.875-14.133-3.375v-14.273c4.2187 2.2969 8.5781 4.0078 13.078 5.1328 4.5 1.125 9.2578 1.6875 14.273 1.6875 8.1093 1e-5 14.531-2.1328 19.266-6.3984 4.7343-4.2656 7.1015-10.055 7.1016-17.367-6e-5 -7.3125-2.3672-13.102-7.1016-17.367-4.7344-4.2656-11.156-6.3984-19.266-6.3984-3.7969 5e-5 -7.5938 0.42193-11.391 1.2656-3.75 0.84381-7.5938 2.1563-11.531 3.9375v-52.734" fill="#da4453"/>
   <rect x="563.01" y="576.3" width="88.571" height="162.86" fill="none"/>
  </g>
  <g transform="translate(392.93 -13.354)">
   <rect x="213.92" y="806.91" width="88.571" height="162.86" opacity="0"/>
   <path d="m259.23 882.52c-6.375 5e-5 -11.438 2.1797-15.188 6.5391-3.7032 4.3594-5.5547 10.336-5.5547 17.93-3e-5 7.5469 1.8515 13.523 5.5547 17.93 3.75 4.3594 8.8125 6.5391 15.188 6.5391 6.3749 0 11.414-2.1797 15.117-6.5391 3.7499-4.4062 5.6249-10.383 5.625-17.93-7e-5 -7.5937-1.8751-13.57-5.625-17.93-3.7032-4.3593-8.7422-6.539-15.117-6.5391m28.195-44.508v12.938c-3.5626-1.6874-7.1719-2.9765-10.828-3.8672-3.6094-0.89054-7.1954-1.3358-10.758-1.3359-9.375 9e-5 -16.547 3.1642-21.516 9.4922-4.9219 6.3282-7.7344 15.891-8.4375 28.688 2.7656-4.0781 6.2343-7.1952 10.406-9.3516 4.1718-2.203 8.7656-3.3046 13.781-3.3047 10.547 6e-5 18.867 3.211 24.961 9.6328 6.1405 6.375 9.2108 15.07 9.2109 26.086-8e-5 10.781-3.1876 19.43-9.5625 25.945-6.3751 6.5156-14.859 9.7734-25.453 9.7734-12.141-1e-5 -21.422-4.6406-27.844-13.922-6.4219-9.3281-9.6328-22.828-9.6328-40.5-1e-5 -16.594 3.9375-29.812 11.812-39.656 7.875-9.8905 18.445-14.836 31.711-14.836 3.5624 1.1e-4 7.1484 0.35167 10.758 1.0547 3.6562 0.70323 7.453 1.7579 11.391 3.1641" fill="#da4453"/>
   <rect x="214.42" y="806.5" width="88.571" height="162.86" fill="none"/>
  </g>
  <g transform="translate(-101.57 -199.38)">
   <rect x="578.35" y="831.29" width="88.571" height="162.86" opacity="0"/>
   <path d="m621.91 915.2c-6.75 5e-5 -12.07 1.8047-15.961 5.4141-3.8438 3.6094-5.7656 8.5782-5.7656 14.906-2e-5 6.3282 1.9218 11.297 5.7656 14.906 3.8906 3.6094 9.2109 5.4141 15.961 5.4141 6.75 1e-5 12.07-1.8047 15.961-5.4141 3.8906-3.6562 5.8359-8.625 5.8359-14.906-7e-5 -6.3281-1.9454-11.297-5.8359-14.906-3.8438-3.6093-9.1641-5.414-15.961-5.4141m-14.203-6.0469c-6.0938-1.4999-10.852-4.3359-14.273-8.5078-3.375-4.1718-5.0625-9.2577-5.0625-15.258-1e-5 -8.3905 2.9766-15.023 8.9297-19.898 6-4.8749 14.203-7.3124 24.609-7.3125 10.453 1.1e-4 18.656 2.4376 24.609 7.3125 5.953 4.8751 8.9296 11.508 8.9297 19.898-8e-5 6.0001-1.711 11.086-5.1328 15.258-3.3751 4.1719-8.086 7.0079-14.133 8.5078 6.8437 1.5938 12.164 4.711 15.961 9.3516 3.8437 4.6407 5.7655 10.313 5.7656 17.016-8e-5 10.172-3.1173 17.977-9.3516 23.414-6.1876 5.4375-15.07 8.1562-26.648 8.1562-11.578 0-20.484-2.7188-26.719-8.1562-6.1875-5.4375-9.2813-13.242-9.2812-23.414-1e-5 -6.7031 1.9219-12.375 5.7656-17.016 3.8437-4.6406 9.1875-7.7578 16.031-9.3516m-5.2031-22.43c-2e-5 5.4376 1.6875 9.6798 5.0625 12.727 3.4218 3.0469 8.2031 4.5704 14.344 4.5703 6.0937 6e-5 10.852-1.5234 14.273-4.5703 3.4687-3.0468 5.2031-7.289 5.2031-12.727-6e-5 -5.4374-1.7344-9.6796-5.2031-12.727-3.4219-3.0468-8.1797-4.5702-14.273-4.5703-6.1407 1e-4 -10.922 1.5235-14.344 4.5703-3.375 3.047-5.0625 7.2892-5.0625 12.727" fill="#da4453"/>
   <rect x="578.85" y="830.89" width="88.571" height="162.86" fill="none"/>
  </g>
  <g transform="translate(399.17 -391.71)">
   <rect x="206.68" y="1023.2" width="88.571" height="162.86" opacity="0"/>
   <path d="m220.28 1154.8v-12.938c3.5625 1.6875 7.1718 2.9766 10.828 3.8672 3.6562 0.8906 7.2422 1.3359 10.758 1.3359 9.375 0 16.523-3.1406 21.445-9.4219 4.9687-6.3281 7.8046-15.914 8.5078-28.758-2.7188 4.0313-6.1641 7.1251-10.336 9.2813-4.1719 2.1563-8.7891 3.2344-13.852 3.2343-10.5 1e-4 -18.82-3.164-24.961-9.4921-6.0938-6.375-9.1406-15.07-9.1406-26.086-1e-5 -10.781 3.1875-19.43 9.5625-25.945 6.375-6.5155 14.859-9.7733 25.453-9.7734 12.141 1e-4 21.398 4.6641 27.773 13.992 6.4218 9.2813 9.6327 22.781 9.6328 40.5-8e-5 16.547-3.9376 29.766-11.812 39.656-7.8282 9.8438-18.375 14.766-31.641 14.766-3.5625 0-7.1719-0.3515-10.828-1.0546-3.6563-0.7032-7.4531-1.7579-11.391-3.1641m28.266-44.508c6.375 0 11.414-2.1797 15.117-6.5391 3.7499-4.3593 5.6249-10.336 5.625-17.93-7e-5 -7.5468-1.8751-13.5-5.625-17.859-3.7032-4.4062-8.7422-6.6093-15.117-6.6094-6.375 1e-4 -11.438 2.2032-15.188 6.6094-3.7032 4.3594-5.5547 10.312-5.5547 17.859-2e-5 7.5938 1.8515 13.57 5.5547 17.93 3.75 4.3594 8.8125 6.5391 15.188 6.5391" fill="#da4453"/>
   <rect x="207.18" y="1022.8" width="88.571" height="162.86" fill="none"/>
  </g>
  <g transform="translate(-53.217 -179.02)">
   <rect x="400.93" y="811.34" width="88.571" height="162.86" opacity="0"/>
   <path d="m410.52 840.12h67.5v6.0469l-38.109 98.93h-14.836l35.859-93.023h-50.414v-11.953" fill="#da4453"/>
   <rect x="401.43" y="810.93" width="88.571" height="162.86" fill="none"/>
  </g>
  <g transform="translate(407.85 794.18)">
   <rect x="200" y="324.28" width="45" height="163.08" fill="none"/>
   <text x="199.02" y="442.09" fill="#da4453" font-family="'Bitstream Vera Sans'" font-size="144px" stroke-width="1px" xml:space="preserve">     <tspan x="199.02" y="442.09" fill="#da4453">:</tspan>   </text>
  </g>
  <g transform="translate(279.28 793.94)">
   <rect x="200" y="324.28" width="45" height="163.08" fill="none"/>
   <path d="m214.42 424.23h14.836v17.859h-14.836v-17.859" fill="#da4453"/>
  </g>
  <g id="separatorB" transform="translate(-70.929 797.83)">
   <rect x="200" y="324.28" width="45" height="163.08" fill="none"/>
   <path d="m214.42 424.23h14.836v17.859h-14.836v-17.859" fill="#aaaaac"/>
  </g>
  <g id="separatorC" transform="translate(463.76 156.34)">
   <rect x="232.67" y="635.96" width="45" height="163.08" fill="none"/>
  </g>
  <g transform="translate(496.43 631.1)">
   <rect x="200" y="324.28" width="45" height="163.08" fill="none"/>
  </g>
 </g>
</svg>
