<?xml version="1.0" encoding="UTF-8" standalone="no"?>
<svg
   xmlns:dc="http://purl.org/dc/elements/1.1/"
   xmlns:cc="http://creativecommons.org/ns#"
   xmlns:rdf="http://www.w3.org/1999/02/22-rdf-syntax-ns#"
   xmlns:svg="http://www.w3.org/2000/svg"
   xmlns="http://www.w3.org/2000/svg"
   xmlns:sodipodi="http://sodipodi.sourceforge.net/DTD/sodipodi-0.dtd"
   xmlns:inkscape="http://www.inkscape.org/namespaces/inkscape"
   sodipodi:docname="logo.svg"
   inkscape:version="1.0 (4035a4fb49, 2020-05-01)"
   id="svg849"
   version="1.1"
   viewBox="0 0 32 32"
   height="32"
   width="32">
  <defs
     id="defs843" />
  <sodipodi:namedview
     inkscape:snap-page="true"
     units="px"
     showgrid="false"
     inkscape:document-rotation="0"
     inkscape:current-layer="layer1"
     inkscape:document-units="px"
     inkscape:cy="16"
     inkscape:cx="16"
     inkscape:zoom="38.96875"
     inkscape:pageshadow="2"
     inkscape:pageopacity="0.0"
     borderopacity="1.0"
     bordercolor="#666666"
     pagecolor="#ffffff"
     id="base" />
  <metadata
     id="metadata846">
    <rdf:RDF>
      <cc:Work
         rdf:about="">
        <dc:format>image/svg+xml</dc:format>
        <dc:type
           rdf:resource="http://purl.org/dc/dcmitype/StillImage" />
        <dc:title></dc:title>
      </cc:Work>
    </rdf:RDF>
  </metadata>
  <g
     id="layer1"
     inkscape:groupmode="layer"
     inkscape:label="Layer 1">
    <path
       style="opacity:0.2"
       d="m 2,26.5 v 1 C 2,28.331001 2.669,29 3.5,29 h 25 c 0.831,0 1.5,-0.668999 1.5,-1.5 v -1 C 30,27.331001 29.331,28 28.5,28 H 3.5 C 2.669,28 2,27.331001 2,26.5 Z"
       id="path2" />
    <rect
       style="fill:#4f4f4f"
       width="28"
       height="24"
       x="2.0000012"
       y="4"
       rx="1.5"
       ry="1.5"
       id="rect4" />
    <path
       style="opacity:0.1;fill:#ffffff"
       d="M 3.5,4 C 2.669,4 2,4.669 2,5.5 v 1 C 2,5.669 2.669,5 3.5,5 h 25 C 29.331,5 30,5.669 30,6.5 v -1 C 30,4.669 29.331,4 28.5,4 Z"
       id="path6" />
    <path
       style="opacity:0.2"
       d="M 6,8 V 9 H 5.5 C 4.669,9 4,9.669 4,10.5 4,11.331 4.669,12 5.5,12 H 6 v 1 H 4.0918 c 0.206,0.582 0.754,1 1.4082,1 H 6 v 1 H 7 V 14 H 7.5 C 8.331,14 9,13.331 9,12.5 9,11.669 8.331,11 7.5,11 H 7 V 10 H 8.9082 C 8.7022,9.418 8.1542,9 7.5002,9 h -0.5 V 8 h -1 z M 5.5,10 H 6 v 1 H 5.5 C 5.223,11 5,10.777 5,10.5 5,10.223 5.223,10 5.5,10 Z M 7,12 H 7.5 C 7.777,12 8,12.223 8,12.5 8,12.777 7.7767,13.013 7.5,13 H 7 Z m 4,2 v 1 h 6 v -1 z"
       id="path8" />
    <path
       style="fill:#ffffff"
       d="M 6,7 V 8 H 5.5 C 4.669,8 4,8.669 4,9.5 4,10.331 4.669,11 5.5,11 H 6 v 1 H 4.0918 c 0.206,0.582 0.754,1 1.4082,1 H 6 v 1 H 7 V 13 H 7.5 C 8.331,13 9,12.331 9,11.5 9,10.669 8.331,10 7.5,10 H 7 V 9 H 8.9082 C 8.7022,8.418 8.1542,8 7.5002,8 h -0.5 V 7 h -1 z M 5.5,9 H 6 v 1 H 5.5 C 5.223,10 5,9.777 5,9.5 5,9.223 5.223,9 5.5,9 Z M 7,11 H 7.5 C 7.777,11 8,11.223 8,11.5 8,11.777 7.7767,12.013 7.5,12 H 7 Z m 4,2 v 1 h 6 v -1 z"
       id="path10" />
  </g>
</svg>
