<?xml version="1.0" encoding="UTF-8" standalone="no"?>
<svg
   xmlns:dc="http://purl.org/dc/elements/1.1/"
   xmlns:cc="http://creativecommons.org/ns#"
   xmlns:rdf="http://www.w3.org/1999/02/22-rdf-syntax-ns#"
   xmlns:svg="http://www.w3.org/2000/svg"
   xmlns="http://www.w3.org/2000/svg"
   xmlns:sodipodi="http://sodipodi.sourceforge.net/DTD/sodipodi-0.dtd"
   xmlns:inkscape="http://www.inkscape.org/namespaces/inkscape"
   width="16"
   height="16"
   viewBox="0 0 16 16"
   version="1.1"
   id="svg842"
   inkscape:version="1.0 (4035a4fb49, 2020-05-01)"
   sodipodi:docname="lock.svg">
  <defs
     id="defs836" />
  <sodipodi:namedview
     id="base"
     pagecolor="#000000"
     bordercolor="#666666"
     borderopacity="1.0"
     inkscape:pageopacity="0.4"
     inkscape:pageshadow="2"
     inkscape:zoom="77.9375"
     inkscape:cx="8"
     inkscape:cy="8"
     inkscape:document-units="px"
     inkscape:current-layer="layer1"
     inkscape:document-rotation="0"
     showgrid="false"
     units="px"
     inkscape:pagecheckerboard="true"
     inkscape:snap-page="true" />
  <metadata
     id="metadata839">
    <rdf:RDF>
      <cc:Work
         rdf:about="">
        <dc:format>image/svg+xml</dc:format>
        <dc:type
           rdf:resource="http://purl.org/dc/dcmitype/StillImage" />
        <dc:title></dc:title>
      </cc:Work>
    </rdf:RDF>
  </metadata>
  <g
     inkscape:label="Layer 1"
     inkscape:groupmode="layer"
     id="layer1">
    <g
       transform="translate(2,2)"
       id="g837">
      <rect
         y="0"
         x="0"
         height="12"
         width="12"
         id="rect817"
         style="opacity:0.00100002" />
      <rect
         style="opacity:1;fill:#aaaaac;fill-opacity:1"
         ry="1"
         rx="1"
         y="6"
         x="2"
         height="5"
         width="8"
         id="rect825" />
      <path
         style="opacity:1;fill:#aaaaac;fill-opacity:1"
         d="M 6,1 C 4.338,1 3,2.338 3,4 v 4 c 0,1.662 1.338,3 3,3 1.662,0 3,-1.338 3,-3 V 4 C 9,2.338 7.662,1 6,1 Z M 6,3 C 6.5885945,3 7,3.4114055 7,4 V 8 C 7,8.5885945 6.5885945,9 6,9 5.4114055,9 5,8.5885945 5,8 V 4 C 5,3.4114055 5.4114055,3 6,3 Z"
         id="rect829" />
    </g>
  </g>
</svg>
